%
M48
M72
T01C0.0276
T02C0.0400
T03C0.0700
T04C0.1360
%
T01
X2930Y4430
X6180Y4430
X9180Y4430
X12680Y4430
X15930Y4430
X11180Y10180
X12180Y13180
X7180Y9680
X8180Y18680
X4930Y18680
X11430Y18680
X14680Y18680
X17930Y18680
T02
X18930Y18430
X18930Y17430
X18930Y16430
X18930Y15430
X18930Y14430
X18930Y19430
T03
X17715Y20260
X16145Y20260
X14465Y20260
X12895Y20260
X11215Y20260
X9645Y20260
X7965Y20260
X6395Y20260
X4715Y20260
X3145Y20260
X3145Y2850
X4715Y2850
X6395Y2850
X7965Y2850
X9645Y2850
X11215Y2850
X12895Y2850
X14465Y2850
X16145Y2850
X17715Y2850
T04
X1180Y1430
X20180Y1430
X20180Y21680
X1180Y21680
M30
