G75*
%MOIN*%
%OFA0B0*%
%FSLAX24Y24*%
%IPPOS*%
%LPD*%
%AMOC8*
5,1,8,0,0,1.08239X$1,22.5*
%
%ADD10R,0.0157X0.0472*%
%ADD11R,0.1050X0.1050*%
%ADD12R,0.0236X0.0866*%
%ADD13R,0.0551X0.0394*%
%ADD14R,0.0433X0.0394*%
%ADD15C,0.0600*%
%ADD16R,0.0551X0.0551*%
%ADD17R,0.0591X0.0591*%
%ADD18R,0.0394X0.0433*%
%ADD19C,0.0160*%
%ADD20C,0.0436*%
%ADD21C,0.0320*%
D10*
X007773Y010038D03*
X008028Y010038D03*
X008284Y010038D03*
X008540Y010038D03*
X008796Y010038D03*
X009052Y010038D03*
X009308Y010038D03*
X009564Y010038D03*
X009820Y010038D03*
X010076Y010038D03*
X010332Y010038D03*
X010587Y010038D03*
X010587Y012322D03*
X010332Y012322D03*
X010076Y012322D03*
X009820Y012322D03*
X009564Y012322D03*
X009308Y012322D03*
X009052Y012322D03*
X008796Y012322D03*
X008540Y012322D03*
X008284Y012322D03*
X008028Y012322D03*
X007773Y012322D03*
D11*
X007965Y020260D03*
X006395Y020260D03*
X004715Y020260D03*
X003145Y020260D03*
X009645Y020260D03*
X011215Y020260D03*
X012895Y020260D03*
X014465Y020260D03*
X016145Y020260D03*
X017715Y020260D03*
X017715Y002850D03*
X016145Y002850D03*
X014465Y002850D03*
X012895Y002850D03*
X011215Y002850D03*
X009645Y002850D03*
X007965Y002850D03*
X006395Y002850D03*
X004715Y002850D03*
X003145Y002850D03*
D12*
X012430Y010156D03*
X012930Y010156D03*
X013430Y010156D03*
X013930Y010156D03*
X013930Y012204D03*
X013430Y012204D03*
X012930Y012204D03*
X012430Y012204D03*
D13*
X013613Y018306D03*
X013613Y019054D03*
X012747Y018680D03*
X010363Y018306D03*
X010363Y019054D03*
X009497Y018680D03*
X007113Y018306D03*
X007113Y019054D03*
X006247Y018680D03*
X003863Y018306D03*
X003863Y019054D03*
X002997Y018680D03*
X015997Y018680D03*
X016863Y018306D03*
X016863Y019054D03*
X016997Y004804D03*
X016997Y004056D03*
X017863Y004430D03*
X014613Y004430D03*
X013747Y004056D03*
X013747Y004804D03*
X011363Y004430D03*
X010497Y004056D03*
X010497Y004804D03*
X008113Y004430D03*
X007247Y004056D03*
X007247Y004804D03*
X004863Y004430D03*
X003997Y004056D03*
X003997Y004804D03*
D14*
X003930Y005595D03*
X003930Y006265D03*
X002930Y006265D03*
X002930Y005595D03*
X006180Y005595D03*
X006180Y006265D03*
X007180Y006265D03*
X007180Y005595D03*
X009430Y005595D03*
X009430Y006265D03*
X010430Y006265D03*
X010430Y005595D03*
X012680Y005595D03*
X012680Y006265D03*
X013680Y006265D03*
X013680Y005595D03*
X015930Y005595D03*
X015930Y006265D03*
X016930Y006265D03*
X016930Y005595D03*
X016930Y016845D03*
X016930Y017515D03*
X015930Y017515D03*
X015930Y016845D03*
X013680Y016845D03*
X013680Y017515D03*
X012680Y017515D03*
X012680Y016845D03*
X010430Y016845D03*
X010430Y017515D03*
X009430Y017515D03*
X009430Y016845D03*
X007180Y016845D03*
X007180Y017515D03*
X006180Y017515D03*
X006180Y016845D03*
X003930Y016845D03*
X003930Y017515D03*
X002930Y017515D03*
X002930Y016845D03*
D15*
X018630Y016430D02*
X019230Y016430D01*
X019230Y015430D02*
X018630Y015430D01*
X018630Y014430D02*
X019230Y014430D01*
X019230Y017430D02*
X018630Y017430D01*
X018630Y018430D02*
X019230Y018430D01*
X019230Y019430D02*
X018630Y019430D01*
D16*
X017678Y021430D03*
X016182Y021430D03*
X014428Y021430D03*
X012932Y021430D03*
X011178Y021430D03*
X009682Y021430D03*
X007928Y021430D03*
X006432Y021430D03*
X004678Y021430D03*
X003182Y021430D03*
X003182Y001680D03*
X004678Y001680D03*
X006432Y001680D03*
X007928Y001680D03*
X009682Y001680D03*
X011178Y001680D03*
X012932Y001680D03*
X014428Y001680D03*
X016182Y001680D03*
X017678Y001680D03*
D17*
X017119Y006930D03*
X015741Y006930D03*
X013869Y006930D03*
X012491Y006930D03*
X010619Y006930D03*
X009241Y006930D03*
X007369Y006930D03*
X005991Y006930D03*
X004119Y006930D03*
X002741Y006930D03*
X002930Y014491D03*
X002930Y015869D03*
X006180Y015869D03*
X006180Y014491D03*
X009430Y014491D03*
X009430Y015869D03*
X012680Y015869D03*
X012680Y014491D03*
X015930Y014491D03*
X015930Y015869D03*
X018491Y009680D03*
X018491Y008680D03*
X019869Y008680D03*
X019869Y009680D03*
D18*
X017515Y009680D03*
X016845Y009680D03*
X016845Y008680D03*
X017515Y008680D03*
D19*
X002261Y000982D02*
X002219Y000910D01*
X019141Y000910D01*
X019099Y000982D01*
X019020Y001277D01*
X019020Y001583D01*
X019099Y001878D01*
X019252Y002142D01*
X019468Y002358D01*
X019732Y002511D01*
X020027Y002590D01*
X020333Y002590D01*
X020628Y002511D01*
X020692Y002474D01*
X020692Y020636D01*
X020628Y020599D01*
X020333Y020520D01*
X020027Y020520D01*
X019732Y020599D01*
X019468Y020752D01*
X019252Y020968D01*
X019099Y021232D01*
X019020Y021527D01*
X019020Y021833D01*
X019084Y022070D01*
X002276Y022070D01*
X002340Y021833D01*
X002340Y021527D01*
X002261Y021232D01*
X002108Y020968D01*
X001892Y020752D01*
X001628Y020599D01*
X001333Y020520D01*
X001027Y020520D01*
X000732Y020599D01*
X000660Y020641D01*
X000660Y002469D01*
X000732Y002511D01*
X001027Y002590D01*
X001333Y002590D01*
X001628Y002511D01*
X001892Y002358D01*
X002108Y002142D01*
X002261Y001878D01*
X002340Y001583D01*
X002340Y001277D01*
X002261Y000982D01*
X002283Y001064D02*
X019077Y001064D01*
X019035Y001223D02*
X002325Y001223D01*
X002340Y001381D02*
X002746Y001381D01*
X002746Y001338D02*
X002840Y001244D01*
X003524Y001244D01*
X003618Y001338D01*
X003618Y002022D01*
X003535Y002105D01*
X003539Y002165D01*
X003736Y002165D01*
X003830Y002259D01*
X003830Y003441D01*
X003736Y003535D01*
X002554Y003535D01*
X002460Y003441D01*
X002460Y002259D01*
X002554Y002165D01*
X002897Y002165D01*
X002894Y002116D01*
X002840Y002116D01*
X002746Y002022D01*
X002746Y001338D01*
X002746Y001540D02*
X002340Y001540D01*
X002309Y001698D02*
X002746Y001698D01*
X002746Y001857D02*
X002267Y001857D01*
X002182Y002015D02*
X002746Y002015D01*
X002545Y002174D02*
X002077Y002174D01*
X001918Y002332D02*
X002460Y002332D01*
X002460Y002491D02*
X001663Y002491D01*
X002460Y002649D02*
X000660Y002649D01*
X000660Y002491D02*
X000697Y002491D01*
X000660Y002808D02*
X002460Y002808D01*
X002460Y002966D02*
X000660Y002966D01*
X000660Y003125D02*
X002460Y003125D01*
X002460Y003283D02*
X000660Y003283D01*
X000660Y003442D02*
X002460Y003442D01*
X002716Y004110D02*
X002855Y004052D01*
X002968Y004052D01*
X003168Y003853D01*
X003256Y003816D01*
X003561Y003816D01*
X003561Y003793D01*
X003655Y003699D01*
X004339Y003699D01*
X004433Y003793D01*
X004433Y004162D01*
X004521Y004073D01*
X004623Y004073D01*
X004623Y003535D01*
X004124Y003535D01*
X004030Y003441D01*
X004030Y002259D01*
X004124Y002165D01*
X004401Y002165D01*
X004405Y002116D01*
X004336Y002116D01*
X004242Y002022D01*
X004242Y001338D01*
X004336Y001244D01*
X005020Y001244D01*
X005114Y001338D01*
X005114Y002022D01*
X005020Y002116D01*
X004886Y002116D01*
X004882Y002165D01*
X005306Y002165D01*
X005400Y002259D01*
X005400Y003441D01*
X005306Y003535D01*
X005103Y003535D01*
X005103Y004073D01*
X005205Y004073D01*
X005299Y004167D01*
X005299Y004693D01*
X005205Y004787D01*
X004521Y004787D01*
X004433Y004698D01*
X004433Y005067D01*
X004339Y005161D01*
X004170Y005161D01*
X004170Y005239D01*
X004213Y005239D01*
X004307Y005332D01*
X004307Y005467D01*
X005133Y006294D01*
X005170Y006382D01*
X005170Y007081D01*
X005529Y007440D01*
X007478Y007440D01*
X007566Y007477D01*
X007633Y007544D01*
X009324Y009234D01*
X009324Y009163D01*
X008044Y007883D01*
X007977Y007816D01*
X007940Y007728D01*
X007940Y006029D01*
X007581Y005670D01*
X007557Y005670D01*
X007557Y005858D01*
X007497Y005918D01*
X007507Y005924D01*
X007541Y005957D01*
X007564Y005998D01*
X007577Y006044D01*
X007577Y006246D01*
X007198Y006246D01*
X007198Y006283D01*
X007577Y006283D01*
X007577Y006455D01*
X007688Y006455D01*
X007734Y006467D01*
X007775Y006491D01*
X007808Y006524D01*
X007832Y006565D01*
X007844Y006611D01*
X007844Y006862D01*
X007437Y006862D01*
X007437Y006998D01*
X007844Y006998D01*
X007844Y007249D01*
X007832Y007295D01*
X007808Y007336D01*
X007775Y007369D01*
X007734Y007393D01*
X007688Y007405D01*
X007437Y007405D01*
X007437Y006998D01*
X007301Y006998D01*
X007301Y007405D01*
X007050Y007405D01*
X007004Y007393D01*
X006963Y007369D01*
X006930Y007336D01*
X006906Y007295D01*
X006894Y007249D01*
X006894Y006998D01*
X007301Y006998D01*
X007301Y006862D01*
X006894Y006862D01*
X006894Y006629D01*
X006853Y006606D01*
X006819Y006572D01*
X006796Y006531D01*
X006783Y006485D01*
X006783Y006283D01*
X007162Y006283D01*
X007162Y006246D01*
X006783Y006246D01*
X006783Y006044D01*
X006796Y005998D01*
X006819Y005957D01*
X006853Y005924D01*
X006863Y005918D01*
X006803Y005858D01*
X006803Y005670D01*
X006557Y005670D01*
X006557Y005858D01*
X006485Y005930D01*
X006557Y006002D01*
X006557Y006528D01*
X006463Y006621D01*
X006446Y006621D01*
X006446Y007292D01*
X006353Y007385D01*
X005629Y007385D01*
X005536Y007292D01*
X005536Y006568D01*
X005629Y006475D01*
X005803Y006475D01*
X005803Y006002D01*
X005875Y005930D01*
X005803Y005858D01*
X005803Y005332D01*
X005897Y005239D01*
X006032Y005239D01*
X006044Y005227D01*
X006132Y005190D01*
X006940Y005190D01*
X006940Y005161D01*
X006905Y005161D01*
X006811Y005067D01*
X006811Y004541D01*
X006905Y004447D01*
X007589Y004447D01*
X007677Y004536D01*
X007677Y004324D01*
X007589Y004413D01*
X006905Y004413D01*
X006811Y004319D01*
X006811Y004296D01*
X006653Y004296D01*
X006558Y004392D01*
X006558Y004505D01*
X006500Y004644D01*
X006394Y004750D01*
X006255Y004808D01*
X006105Y004808D01*
X005966Y004750D01*
X005860Y004644D01*
X005802Y004505D01*
X005802Y004355D01*
X005860Y004216D01*
X005966Y004110D01*
X006105Y004052D01*
X006218Y004052D01*
X006418Y003853D01*
X006506Y003816D01*
X006811Y003816D01*
X006811Y003793D01*
X006905Y003699D01*
X007589Y003699D01*
X007683Y003793D01*
X007683Y004162D01*
X007771Y004073D01*
X007873Y004073D01*
X007873Y003535D01*
X007374Y003535D01*
X007280Y003441D01*
X007280Y002259D01*
X007374Y002165D01*
X007651Y002165D01*
X007655Y002116D01*
X007586Y002116D01*
X007492Y002022D01*
X007492Y001338D01*
X007586Y001244D01*
X008270Y001244D01*
X008364Y001338D01*
X008364Y002022D01*
X008270Y002116D01*
X008136Y002116D01*
X008132Y002165D01*
X008556Y002165D01*
X008650Y002259D01*
X008650Y003441D01*
X008556Y003535D01*
X008353Y003535D01*
X008353Y004073D01*
X008455Y004073D01*
X008549Y004167D01*
X008549Y004693D01*
X008455Y004787D01*
X007771Y004787D01*
X007683Y004698D01*
X007683Y005067D01*
X007589Y005161D01*
X007420Y005161D01*
X007420Y005190D01*
X007728Y005190D01*
X007816Y005227D01*
X007883Y005294D01*
X008383Y005794D01*
X008420Y005882D01*
X008420Y007581D01*
X009680Y008840D01*
X009700Y008849D01*
X009767Y008916D01*
X009793Y008978D01*
X009794Y008977D01*
X009882Y008940D01*
X010581Y008940D01*
X010940Y008581D01*
X010940Y007405D01*
X010938Y007405D01*
X010687Y007405D01*
X010687Y006998D01*
X010551Y006998D01*
X010551Y007405D01*
X010300Y007405D01*
X010254Y007393D01*
X010213Y007369D01*
X010180Y007336D01*
X010156Y007295D01*
X010144Y007249D01*
X010144Y006998D01*
X010551Y006998D01*
X010551Y006862D01*
X010144Y006862D01*
X010144Y006629D01*
X010103Y006606D01*
X010069Y006572D01*
X010046Y006531D01*
X010033Y006485D01*
X010033Y006283D01*
X010412Y006283D01*
X010412Y006246D01*
X010033Y006246D01*
X010033Y006044D01*
X010046Y005998D01*
X010069Y005957D01*
X010103Y005924D01*
X010113Y005918D01*
X010053Y005858D01*
X010053Y005670D01*
X009807Y005670D01*
X009807Y005858D01*
X009735Y005930D01*
X009807Y006002D01*
X009807Y006528D01*
X009713Y006621D01*
X009696Y006621D01*
X009696Y007292D01*
X009603Y007385D01*
X008879Y007385D01*
X008786Y007292D01*
X008786Y006568D01*
X008879Y006475D01*
X009053Y006475D01*
X009053Y006002D01*
X009125Y005930D01*
X009053Y005858D01*
X009053Y005332D01*
X009147Y005239D01*
X009282Y005239D01*
X009294Y005227D01*
X009382Y005190D01*
X010190Y005190D01*
X010190Y005161D01*
X010155Y005161D01*
X010061Y005067D01*
X010061Y004541D01*
X010155Y004447D01*
X010839Y004447D01*
X010927Y004536D01*
X010927Y004324D01*
X010839Y004413D01*
X010155Y004413D01*
X010061Y004319D01*
X010061Y004296D01*
X009653Y004296D01*
X009558Y004392D01*
X009558Y004505D01*
X009500Y004644D01*
X009394Y004750D01*
X009255Y004808D01*
X009105Y004808D01*
X008966Y004750D01*
X008860Y004644D01*
X008802Y004505D01*
X008802Y004355D01*
X008860Y004216D01*
X008966Y004110D01*
X009105Y004052D01*
X009218Y004052D01*
X009351Y003920D01*
X009418Y003853D01*
X009506Y003816D01*
X010061Y003816D01*
X010061Y003793D01*
X010155Y003699D01*
X010839Y003699D01*
X010933Y003793D01*
X010933Y004162D01*
X011021Y004073D01*
X011123Y004073D01*
X011123Y003535D01*
X010624Y003535D01*
X010530Y003441D01*
X010530Y002259D01*
X010624Y002165D01*
X010901Y002165D01*
X010905Y002116D01*
X010836Y002116D01*
X010742Y002022D01*
X010742Y001338D01*
X010836Y001244D01*
X011520Y001244D01*
X011614Y001338D01*
X011614Y002022D01*
X011520Y002116D01*
X011386Y002116D01*
X011382Y002165D01*
X011806Y002165D01*
X011900Y002259D01*
X011900Y003441D01*
X011806Y003535D01*
X011603Y003535D01*
X011603Y004073D01*
X011705Y004073D01*
X011799Y004167D01*
X011799Y004693D01*
X011705Y004787D01*
X011021Y004787D01*
X010933Y004698D01*
X010933Y005067D01*
X010839Y005161D01*
X010670Y005161D01*
X010670Y005239D01*
X010713Y005239D01*
X010807Y005332D01*
X010807Y005355D01*
X010893Y005355D01*
X010981Y005392D01*
X011383Y005794D01*
X011420Y005882D01*
X011420Y008601D01*
X011440Y008581D01*
X011440Y005882D01*
X011477Y005794D01*
X011811Y005459D01*
X011879Y005392D01*
X011967Y005355D01*
X012303Y005355D01*
X012303Y005332D01*
X012397Y005239D01*
X012532Y005239D01*
X012544Y005227D01*
X012632Y005190D01*
X013440Y005190D01*
X013440Y005161D01*
X013405Y005161D01*
X013311Y005067D01*
X013311Y004541D01*
X013405Y004447D01*
X014089Y004447D01*
X014177Y004536D01*
X014177Y004324D01*
X014089Y004413D01*
X013405Y004413D01*
X013311Y004319D01*
X013311Y004296D01*
X013153Y004296D01*
X013058Y004392D01*
X013058Y004505D01*
X013000Y004644D01*
X012894Y004750D01*
X012755Y004808D01*
X012605Y004808D01*
X012466Y004750D01*
X012360Y004644D01*
X012302Y004505D01*
X012302Y004355D01*
X012360Y004216D01*
X012466Y004110D01*
X012605Y004052D01*
X012718Y004052D01*
X012918Y003853D01*
X013006Y003816D01*
X013311Y003816D01*
X013311Y003793D01*
X013405Y003699D01*
X014089Y003699D01*
X014183Y003793D01*
X014183Y004162D01*
X014271Y004073D01*
X014373Y004073D01*
X014373Y003535D01*
X013874Y003535D01*
X013780Y003441D01*
X013780Y002259D01*
X013874Y002165D01*
X014151Y002165D01*
X014155Y002116D01*
X014086Y002116D01*
X013992Y002022D01*
X013992Y001338D01*
X014086Y001244D01*
X014770Y001244D01*
X014864Y001338D01*
X014864Y002022D01*
X014770Y002116D01*
X014636Y002116D01*
X014632Y002165D01*
X015056Y002165D01*
X015150Y002259D01*
X015150Y003441D01*
X015056Y003535D01*
X014853Y003535D01*
X014853Y004073D01*
X014955Y004073D01*
X015049Y004167D01*
X015049Y004693D01*
X014955Y004787D01*
X014271Y004787D01*
X014183Y004698D01*
X014183Y005067D01*
X014089Y005161D01*
X013920Y005161D01*
X013920Y005239D01*
X013963Y005239D01*
X014057Y005332D01*
X014057Y005858D01*
X013997Y005918D01*
X014007Y005924D01*
X014041Y005957D01*
X014064Y005998D01*
X014077Y006044D01*
X014077Y006246D01*
X013698Y006246D01*
X013698Y006283D01*
X014077Y006283D01*
X014077Y006455D01*
X014188Y006455D01*
X014234Y006467D01*
X014275Y006491D01*
X014308Y006524D01*
X014332Y006565D01*
X014344Y006611D01*
X014344Y006862D01*
X013937Y006862D01*
X013937Y006998D01*
X014344Y006998D01*
X014344Y007249D01*
X014332Y007295D01*
X014308Y007336D01*
X014275Y007369D01*
X014234Y007393D01*
X014188Y007405D01*
X013937Y007405D01*
X013937Y006998D01*
X013801Y006998D01*
X013801Y007405D01*
X013550Y007405D01*
X013504Y007393D01*
X013463Y007369D01*
X013430Y007336D01*
X013406Y007295D01*
X013394Y007249D01*
X013394Y006998D01*
X013801Y006998D01*
X013801Y006862D01*
X013394Y006862D01*
X013394Y006629D01*
X013353Y006606D01*
X013319Y006572D01*
X013296Y006531D01*
X013283Y006485D01*
X013283Y006283D01*
X013662Y006283D01*
X013662Y006246D01*
X013283Y006246D01*
X013283Y006044D01*
X013296Y005998D01*
X013319Y005957D01*
X013353Y005924D01*
X013363Y005918D01*
X013303Y005858D01*
X013303Y005670D01*
X013057Y005670D01*
X013057Y005858D01*
X012985Y005930D01*
X013057Y006002D01*
X013057Y006528D01*
X012963Y006621D01*
X012946Y006621D01*
X012946Y007292D01*
X012853Y007385D01*
X012129Y007385D01*
X012036Y007292D01*
X012036Y006568D01*
X012129Y006475D01*
X012303Y006475D01*
X012303Y006002D01*
X012375Y005930D01*
X012303Y005858D01*
X012303Y005835D01*
X012114Y005835D01*
X011920Y006029D01*
X011920Y008728D01*
X011883Y008816D01*
X011816Y008883D01*
X011066Y009633D01*
X010978Y009670D01*
X010760Y009670D01*
X010826Y009736D01*
X010826Y009938D01*
X010829Y009940D01*
X010886Y009940D01*
X010966Y009860D01*
X011105Y009802D01*
X011255Y009802D01*
X011394Y009860D01*
X011500Y009966D01*
X011558Y010105D01*
X011558Y010255D01*
X011500Y010394D01*
X011454Y010440D01*
X011690Y010440D01*
X011690Y009382D01*
X011727Y009294D01*
X011794Y009227D01*
X013044Y007977D01*
X013132Y007940D01*
X014081Y007940D01*
X014440Y007581D01*
X014440Y006382D01*
X014477Y006294D01*
X014544Y006227D01*
X015379Y005392D01*
X015467Y005355D01*
X015553Y005355D01*
X015553Y005332D01*
X015647Y005239D01*
X015782Y005239D01*
X015794Y005227D01*
X015882Y005190D01*
X016757Y005190D01*
X016757Y005161D01*
X016655Y005161D01*
X016561Y005067D01*
X016561Y004541D01*
X016655Y004447D01*
X017339Y004447D01*
X017427Y004536D01*
X017427Y004324D01*
X017339Y004413D01*
X016655Y004413D01*
X016561Y004319D01*
X016561Y004296D01*
X016403Y004296D01*
X016308Y004392D01*
X016308Y004505D01*
X016250Y004644D01*
X016144Y004750D01*
X016005Y004808D01*
X015855Y004808D01*
X015716Y004750D01*
X015610Y004644D01*
X015552Y004505D01*
X015552Y004355D01*
X015610Y004216D01*
X015716Y004110D01*
X015855Y004052D01*
X015968Y004052D01*
X016168Y003853D01*
X016256Y003816D01*
X016561Y003816D01*
X016561Y003793D01*
X016655Y003699D01*
X017339Y003699D01*
X017433Y003793D01*
X017433Y004162D01*
X017521Y004073D01*
X017623Y004073D01*
X017623Y003535D01*
X017124Y003535D01*
X017030Y003441D01*
X017030Y002259D01*
X017124Y002165D01*
X017401Y002165D01*
X017405Y002116D01*
X017336Y002116D01*
X017242Y002022D01*
X017242Y001338D01*
X017336Y001244D01*
X018020Y001244D01*
X018114Y001338D01*
X018114Y002022D01*
X018020Y002116D01*
X017886Y002116D01*
X017882Y002165D01*
X018306Y002165D01*
X018400Y002259D01*
X018400Y003441D01*
X018306Y003535D01*
X018103Y003535D01*
X018103Y004073D01*
X018205Y004073D01*
X018299Y004167D01*
X018299Y004693D01*
X018205Y004787D01*
X017521Y004787D01*
X017433Y004698D01*
X017433Y005067D01*
X017339Y005161D01*
X017237Y005161D01*
X017237Y005263D01*
X017307Y005332D01*
X017307Y005858D01*
X017247Y005918D01*
X017257Y005924D01*
X017291Y005957D01*
X017314Y005998D01*
X017327Y006044D01*
X017327Y006246D01*
X016948Y006246D01*
X016948Y006283D01*
X017327Y006283D01*
X017327Y006455D01*
X017438Y006455D01*
X017484Y006467D01*
X017525Y006491D01*
X017558Y006524D01*
X017582Y006565D01*
X017594Y006611D01*
X017594Y006862D01*
X017187Y006862D01*
X017187Y006998D01*
X017594Y006998D01*
X017594Y007249D01*
X017582Y007295D01*
X017558Y007336D01*
X017525Y007369D01*
X017484Y007393D01*
X017438Y007405D01*
X017187Y007405D01*
X017187Y006998D01*
X017051Y006998D01*
X017051Y007405D01*
X016800Y007405D01*
X016754Y007393D01*
X016713Y007369D01*
X016680Y007336D01*
X016656Y007295D01*
X016644Y007249D01*
X016644Y006998D01*
X017051Y006998D01*
X017051Y006862D01*
X016644Y006862D01*
X016644Y006629D01*
X016603Y006606D01*
X016569Y006572D01*
X016546Y006531D01*
X016533Y006485D01*
X016533Y006283D01*
X016912Y006283D01*
X016912Y006246D01*
X016533Y006246D01*
X016533Y006044D01*
X016546Y005998D01*
X016569Y005957D01*
X016603Y005924D01*
X016613Y005918D01*
X016553Y005858D01*
X016553Y005670D01*
X016307Y005670D01*
X016307Y005858D01*
X016235Y005930D01*
X016307Y006002D01*
X016307Y006528D01*
X016213Y006621D01*
X016196Y006621D01*
X016196Y007292D01*
X016103Y007385D01*
X015379Y007385D01*
X015286Y007292D01*
X015286Y006568D01*
X015379Y006475D01*
X015553Y006475D01*
X015553Y006002D01*
X015625Y005930D01*
X015572Y005877D01*
X014920Y006529D01*
X014920Y007728D01*
X014883Y007816D01*
X014383Y008316D01*
X014316Y008383D01*
X014228Y008420D01*
X013279Y008420D01*
X012170Y009529D01*
X012170Y009639D01*
X012246Y009563D01*
X012614Y009563D01*
X012680Y009629D01*
X012746Y009563D01*
X013114Y009563D01*
X013180Y009629D01*
X013246Y009563D01*
X013614Y009563D01*
X013666Y009615D01*
X013668Y009613D01*
X013701Y009579D01*
X013742Y009556D01*
X013788Y009543D01*
X013930Y009543D01*
X013930Y010156D01*
X013930Y009543D01*
X014072Y009543D01*
X014118Y009556D01*
X014159Y009579D01*
X014192Y009613D01*
X014216Y009654D01*
X014228Y009700D01*
X014228Y010156D01*
X013930Y010156D01*
X013930Y010156D01*
X013930Y010156D01*
X014228Y010156D01*
X014228Y010613D01*
X014216Y010659D01*
X014192Y010700D01*
X014159Y010733D01*
X014118Y010757D01*
X014072Y010769D01*
X013930Y010769D01*
X013788Y010769D01*
X013742Y010757D01*
X013701Y010733D01*
X013670Y010702D01*
X013670Y010831D01*
X013779Y010940D01*
X016478Y010940D01*
X016566Y010977D01*
X016633Y011044D01*
X017383Y011794D01*
X017420Y011882D01*
X017420Y014581D01*
X018029Y015190D01*
X018232Y015190D01*
X018240Y015169D01*
X018369Y015040D01*
X018538Y014970D01*
X019321Y014970D01*
X019491Y015040D01*
X019620Y015169D01*
X019690Y015338D01*
X019690Y015521D01*
X019620Y015691D01*
X019491Y015820D01*
X019321Y015890D01*
X018538Y015890D01*
X018369Y015820D01*
X018240Y015691D01*
X018232Y015670D01*
X017882Y015670D01*
X017794Y015633D01*
X017044Y014883D01*
X016977Y014816D01*
X016940Y014728D01*
X016940Y012029D01*
X016331Y011420D01*
X013632Y011420D01*
X013544Y011383D01*
X013477Y011316D01*
X013227Y011066D01*
X013190Y010978D01*
X013190Y010694D01*
X013180Y010684D01*
X013114Y010749D01*
X013039Y010749D01*
X012898Y011030D01*
X012883Y011066D01*
X012877Y011072D01*
X012873Y011080D01*
X012844Y011106D01*
X012816Y011133D01*
X012808Y011137D01*
X012801Y011143D01*
X012764Y011155D01*
X012728Y011170D01*
X012719Y011170D01*
X012711Y011173D01*
X012671Y011170D01*
X008529Y011170D01*
X008268Y011431D01*
X008268Y011502D01*
X008477Y011294D01*
X008544Y011227D01*
X008632Y011190D01*
X012728Y011190D01*
X012816Y011227D01*
X013066Y011477D01*
X013133Y011544D01*
X013170Y011632D01*
X013170Y011666D01*
X013180Y011676D01*
X013246Y011611D01*
X013614Y011611D01*
X013680Y011676D01*
X013746Y011611D01*
X014114Y011611D01*
X014208Y011704D01*
X014208Y012703D01*
X014114Y012797D01*
X013746Y012797D01*
X013680Y012731D01*
X013670Y012741D01*
X013670Y012831D01*
X013779Y012940D01*
X016228Y012940D01*
X016316Y012977D01*
X016816Y013477D01*
X016883Y013544D01*
X016920Y013632D01*
X016920Y015331D01*
X017779Y016190D01*
X018232Y016190D01*
X018240Y016169D01*
X018369Y016040D01*
X018538Y015970D01*
X019321Y015970D01*
X019491Y016040D01*
X019620Y016169D01*
X019690Y016338D01*
X019690Y016521D01*
X019620Y016691D01*
X019491Y016820D01*
X019321Y016890D01*
X018538Y016890D01*
X018369Y016820D01*
X018240Y016691D01*
X018232Y016670D01*
X017632Y016670D01*
X017544Y016633D01*
X017477Y016566D01*
X016477Y015566D01*
X016440Y015478D01*
X016440Y013779D01*
X016081Y013420D01*
X013632Y013420D01*
X013544Y013383D01*
X013477Y013316D01*
X013227Y013066D01*
X013190Y012978D01*
X013190Y012741D01*
X013180Y012731D01*
X013114Y012797D01*
X012746Y012797D01*
X012680Y012731D01*
X012670Y012741D01*
X012670Y012978D01*
X012633Y013066D01*
X012558Y013142D01*
X012558Y013255D01*
X012500Y013394D01*
X012454Y013440D01*
X013728Y013440D01*
X013816Y013477D01*
X015066Y014727D01*
X015133Y014794D01*
X015170Y014882D01*
X015170Y016581D01*
X015553Y016964D01*
X015553Y016582D01*
X015647Y016489D01*
X015690Y016489D01*
X015690Y016324D01*
X015568Y016324D01*
X015475Y016231D01*
X015475Y015507D01*
X015568Y015414D01*
X016292Y015414D01*
X016385Y015507D01*
X016385Y016231D01*
X016292Y016324D01*
X016170Y016324D01*
X016170Y016489D01*
X016213Y016489D01*
X016307Y016582D01*
X016307Y017108D01*
X016235Y017180D01*
X016307Y017252D01*
X016307Y017440D01*
X016553Y017440D01*
X016553Y017252D01*
X016613Y017192D01*
X016603Y017186D01*
X016569Y017153D01*
X016546Y017112D01*
X016533Y017066D01*
X016533Y016864D01*
X016912Y016864D01*
X016912Y016827D01*
X016948Y016827D01*
X016948Y016469D01*
X017170Y016469D01*
X017216Y016481D01*
X017257Y016504D01*
X017291Y016538D01*
X017314Y016579D01*
X017327Y016625D01*
X017327Y016827D01*
X016948Y016827D01*
X016948Y016864D01*
X017327Y016864D01*
X017327Y017066D01*
X017314Y017112D01*
X017291Y017153D01*
X017257Y017186D01*
X017247Y017192D01*
X017307Y017252D01*
X017307Y017778D01*
X017213Y017871D01*
X017170Y017871D01*
X017170Y017949D01*
X017205Y017949D01*
X017299Y018043D01*
X017299Y018569D01*
X017205Y018663D01*
X016521Y018663D01*
X016433Y018574D01*
X016433Y018786D01*
X016521Y018697D01*
X017205Y018697D01*
X017299Y018791D01*
X017299Y018814D01*
X017457Y018814D01*
X017552Y018718D01*
X017552Y018605D01*
X017610Y018466D01*
X017716Y018360D01*
X017855Y018302D01*
X018005Y018302D01*
X018144Y018360D01*
X018154Y018369D01*
X018162Y018318D01*
X018185Y018246D01*
X018219Y018178D01*
X018264Y018117D01*
X018317Y018064D01*
X018378Y018019D01*
X018446Y017985D01*
X018518Y017962D01*
X018592Y017950D01*
X018910Y017950D01*
X018910Y018410D01*
X018950Y018410D01*
X018950Y018450D01*
X018910Y018450D01*
X018910Y018910D01*
X018592Y018910D01*
X018518Y018898D01*
X018446Y018875D01*
X018378Y018841D01*
X018317Y018796D01*
X018299Y018777D01*
X018250Y018894D01*
X018144Y019000D01*
X018005Y019058D01*
X017892Y019058D01*
X017692Y019257D01*
X017604Y019294D01*
X017299Y019294D01*
X017299Y019317D01*
X017205Y019411D01*
X016521Y019411D01*
X016427Y019317D01*
X016427Y018948D01*
X016339Y019037D01*
X016237Y019037D01*
X016237Y019575D01*
X016736Y019575D01*
X016830Y019669D01*
X016830Y020851D01*
X016736Y020945D01*
X016459Y020945D01*
X016455Y020994D01*
X016524Y020994D01*
X016618Y021088D01*
X016618Y021772D01*
X016524Y021866D01*
X015840Y021866D01*
X015746Y021772D01*
X015746Y021088D01*
X015840Y020994D01*
X015974Y020994D01*
X015978Y020945D01*
X015554Y020945D01*
X015460Y020851D01*
X015460Y019669D01*
X015554Y019575D01*
X015757Y019575D01*
X015757Y019037D01*
X015655Y019037D01*
X015561Y018943D01*
X015561Y018417D01*
X015655Y018323D01*
X016339Y018323D01*
X016427Y018412D01*
X016427Y018043D01*
X016521Y017949D01*
X016690Y017949D01*
X016690Y017920D01*
X015882Y017920D01*
X015794Y017883D01*
X015782Y017871D01*
X015647Y017871D01*
X015553Y017778D01*
X015553Y017643D01*
X014727Y016816D01*
X014690Y016728D01*
X014690Y015029D01*
X013581Y013920D01*
X011898Y013920D01*
X011810Y013883D01*
X011742Y013816D01*
X010644Y012718D01*
X010572Y012718D01*
X010572Y012732D01*
X011816Y013977D01*
X011883Y014044D01*
X011920Y014132D01*
X011920Y016581D01*
X012303Y016964D01*
X012303Y016582D01*
X012397Y016489D01*
X012440Y016489D01*
X012440Y016324D01*
X012318Y016324D01*
X012225Y016231D01*
X012225Y015507D01*
X012318Y015414D01*
X013042Y015414D01*
X013135Y015507D01*
X013135Y016231D01*
X013042Y016324D01*
X012920Y016324D01*
X012920Y016489D01*
X012963Y016489D01*
X013057Y016582D01*
X013057Y017108D01*
X012985Y017180D01*
X013057Y017252D01*
X013057Y017440D01*
X013303Y017440D01*
X013303Y017252D01*
X013363Y017192D01*
X013353Y017186D01*
X013319Y017153D01*
X013296Y017112D01*
X013283Y017066D01*
X013283Y016864D01*
X013662Y016864D01*
X013662Y016827D01*
X013698Y016827D01*
X013698Y016469D01*
X013920Y016469D01*
X013966Y016481D01*
X014007Y016504D01*
X014041Y016538D01*
X014064Y016579D01*
X014077Y016625D01*
X014077Y016827D01*
X013698Y016827D01*
X013698Y016864D01*
X014077Y016864D01*
X014077Y017066D01*
X014064Y017112D01*
X014041Y017153D01*
X014007Y017186D01*
X013997Y017192D01*
X014057Y017252D01*
X014057Y017778D01*
X013963Y017871D01*
X013920Y017871D01*
X013920Y017949D01*
X013955Y017949D01*
X014049Y018043D01*
X014049Y018569D01*
X013955Y018663D01*
X013271Y018663D01*
X013183Y018574D01*
X013183Y018786D01*
X013271Y018697D01*
X013955Y018697D01*
X014049Y018791D01*
X014049Y018814D01*
X014207Y018814D01*
X014302Y018718D01*
X014302Y018605D01*
X014360Y018466D01*
X014466Y018360D01*
X014605Y018302D01*
X014755Y018302D01*
X014894Y018360D01*
X015000Y018466D01*
X015058Y018605D01*
X015058Y018755D01*
X015000Y018894D01*
X014894Y019000D01*
X014755Y019058D01*
X014642Y019058D01*
X014442Y019257D01*
X014354Y019294D01*
X014049Y019294D01*
X014049Y019317D01*
X013955Y019411D01*
X013271Y019411D01*
X013177Y019317D01*
X013177Y018948D01*
X013089Y019037D01*
X012987Y019037D01*
X012987Y019575D01*
X013486Y019575D01*
X013580Y019669D01*
X013580Y020851D01*
X013486Y020945D01*
X013209Y020945D01*
X013205Y020994D01*
X013274Y020994D01*
X013368Y021088D01*
X013368Y021772D01*
X013274Y021866D01*
X012590Y021866D01*
X012496Y021772D01*
X012496Y021088D01*
X012590Y020994D01*
X012724Y020994D01*
X012728Y020945D01*
X012304Y020945D01*
X012210Y020851D01*
X012210Y019669D01*
X012304Y019575D01*
X012507Y019575D01*
X012507Y019037D01*
X012405Y019037D01*
X012311Y018943D01*
X012311Y018417D01*
X012405Y018323D01*
X013089Y018323D01*
X013177Y018412D01*
X013177Y018043D01*
X013271Y017949D01*
X013440Y017949D01*
X013440Y017920D01*
X012798Y017920D01*
X012709Y017883D01*
X012697Y017871D01*
X012397Y017871D01*
X012303Y017778D01*
X012303Y017643D01*
X011544Y016883D01*
X011477Y016816D01*
X011440Y016728D01*
X011440Y014279D01*
X011420Y014259D01*
X011420Y016978D01*
X011383Y017066D01*
X010807Y017643D01*
X010807Y017778D01*
X010713Y017871D01*
X010670Y017871D01*
X010670Y017949D01*
X010705Y017949D01*
X010799Y018043D01*
X010799Y018569D01*
X010705Y018663D01*
X010021Y018663D01*
X009933Y018574D01*
X009933Y018786D01*
X010021Y018697D01*
X010705Y018697D01*
X010799Y018791D01*
X010799Y018814D01*
X010957Y018814D01*
X011052Y018718D01*
X011052Y018605D01*
X011110Y018466D01*
X011216Y018360D01*
X011355Y018302D01*
X011505Y018302D01*
X011644Y018360D01*
X011750Y018466D01*
X011808Y018605D01*
X011808Y018755D01*
X011750Y018894D01*
X011644Y019000D01*
X011505Y019058D01*
X011392Y019058D01*
X011192Y019257D01*
X011104Y019294D01*
X010799Y019294D01*
X010799Y019317D01*
X010705Y019411D01*
X010021Y019411D01*
X009927Y019317D01*
X009927Y018948D01*
X009839Y019037D01*
X009737Y019037D01*
X009737Y019575D01*
X010236Y019575D01*
X010330Y019669D01*
X010330Y020851D01*
X010236Y020945D01*
X009959Y020945D01*
X009955Y020994D01*
X010024Y020994D01*
X010118Y021088D01*
X010118Y021772D01*
X010024Y021866D01*
X009340Y021866D01*
X009246Y021772D01*
X009246Y021088D01*
X009340Y020994D01*
X009474Y020994D01*
X009478Y020945D01*
X009054Y020945D01*
X008960Y020851D01*
X008960Y019669D01*
X009054Y019575D01*
X009257Y019575D01*
X009257Y019037D01*
X009155Y019037D01*
X009061Y018943D01*
X009061Y018417D01*
X009155Y018323D01*
X009839Y018323D01*
X009927Y018412D01*
X009927Y018043D01*
X010021Y017949D01*
X010190Y017949D01*
X010190Y017920D01*
X009548Y017920D01*
X009459Y017883D01*
X009447Y017871D01*
X009147Y017871D01*
X009053Y017778D01*
X009053Y017252D01*
X009125Y017180D01*
X009053Y017108D01*
X009053Y016582D01*
X009147Y016489D01*
X009190Y016489D01*
X009190Y016324D01*
X009068Y016324D01*
X008975Y016231D01*
X008975Y015507D01*
X009068Y015414D01*
X009792Y015414D01*
X009885Y015507D01*
X009885Y016231D01*
X009792Y016324D01*
X009670Y016324D01*
X009670Y016489D01*
X009713Y016489D01*
X009807Y016582D01*
X009807Y017108D01*
X009735Y017180D01*
X009807Y017252D01*
X009807Y017440D01*
X010053Y017440D01*
X010053Y017252D01*
X010113Y017192D01*
X010103Y017186D01*
X010069Y017153D01*
X010046Y017112D01*
X010033Y017066D01*
X010033Y016864D01*
X010412Y016864D01*
X010412Y016827D01*
X010448Y016827D01*
X010448Y016469D01*
X010670Y016469D01*
X010716Y016481D01*
X010757Y016504D01*
X010791Y016538D01*
X010814Y016579D01*
X010827Y016625D01*
X010827Y016827D01*
X010448Y016827D01*
X010448Y016864D01*
X010827Y016864D01*
X010827Y016944D01*
X010940Y016831D01*
X010940Y014279D01*
X009934Y013273D01*
X009930Y013269D01*
X009184Y014016D01*
X009362Y014016D01*
X009362Y014423D01*
X008955Y014423D01*
X008955Y014245D01*
X008420Y014779D01*
X008420Y016728D01*
X008383Y016816D01*
X007557Y017643D01*
X007557Y017778D01*
X007463Y017871D01*
X007420Y017871D01*
X007420Y017949D01*
X007455Y017949D01*
X007549Y018043D01*
X007549Y018569D01*
X007455Y018663D01*
X006771Y018663D01*
X006683Y018574D01*
X006683Y018786D01*
X006771Y018697D01*
X007455Y018697D01*
X007549Y018791D01*
X007549Y018814D01*
X007707Y018814D01*
X007802Y018718D01*
X007802Y018605D01*
X007860Y018466D01*
X007966Y018360D01*
X008105Y018302D01*
X008255Y018302D01*
X008394Y018360D01*
X008500Y018466D01*
X008558Y018605D01*
X008558Y018755D01*
X008500Y018894D01*
X008394Y019000D01*
X008255Y019058D01*
X008142Y019058D01*
X007942Y019257D01*
X007854Y019294D01*
X007549Y019294D01*
X007549Y019317D01*
X007455Y019411D01*
X006771Y019411D01*
X006677Y019317D01*
X006677Y018948D01*
X006589Y019037D01*
X006487Y019037D01*
X006487Y019575D01*
X006986Y019575D01*
X007080Y019669D01*
X007080Y020851D01*
X006986Y020945D01*
X006709Y020945D01*
X006705Y020994D01*
X006774Y020994D01*
X006868Y021088D01*
X006868Y021772D01*
X006774Y021866D01*
X006090Y021866D01*
X005996Y021772D01*
X005996Y021088D01*
X006090Y020994D01*
X006224Y020994D01*
X006228Y020945D01*
X005804Y020945D01*
X005710Y020851D01*
X005710Y019669D01*
X005804Y019575D01*
X006007Y019575D01*
X006007Y019037D01*
X005905Y019037D01*
X005811Y018943D01*
X005811Y018417D01*
X005905Y018323D01*
X006589Y018323D01*
X006677Y018412D01*
X006677Y018043D01*
X006771Y017949D01*
X006940Y017949D01*
X006940Y017920D01*
X006298Y017920D01*
X006209Y017883D01*
X006197Y017871D01*
X005897Y017871D01*
X005803Y017778D01*
X005803Y017252D01*
X005875Y017180D01*
X005803Y017108D01*
X005803Y016582D01*
X005897Y016489D01*
X005940Y016489D01*
X005940Y016324D01*
X005818Y016324D01*
X005725Y016231D01*
X005725Y015507D01*
X005818Y015414D01*
X006542Y015414D01*
X006635Y015507D01*
X006635Y016231D01*
X006542Y016324D01*
X006420Y016324D01*
X006420Y016489D01*
X006463Y016489D01*
X006557Y016582D01*
X006557Y017108D01*
X006485Y017180D01*
X006557Y017252D01*
X006557Y017440D01*
X006803Y017440D01*
X006803Y017252D01*
X006863Y017192D01*
X006853Y017186D01*
X006819Y017153D01*
X006796Y017112D01*
X006783Y017066D01*
X006783Y016864D01*
X007162Y016864D01*
X007162Y016827D01*
X007198Y016827D01*
X007198Y016469D01*
X007420Y016469D01*
X007466Y016481D01*
X007507Y016504D01*
X007541Y016538D01*
X007564Y016579D01*
X007577Y016625D01*
X007577Y016827D01*
X007198Y016827D01*
X007198Y016864D01*
X007577Y016864D01*
X007577Y016944D01*
X007940Y016581D01*
X007940Y014632D01*
X007977Y014544D01*
X008044Y014477D01*
X008601Y013920D01*
X005529Y013920D01*
X005170Y014279D01*
X005170Y016728D01*
X005133Y016816D01*
X004307Y017643D01*
X004307Y017778D01*
X004213Y017871D01*
X004170Y017871D01*
X004170Y017949D01*
X004205Y017949D01*
X004299Y018043D01*
X004299Y018569D01*
X004205Y018663D01*
X003521Y018663D01*
X003433Y018574D01*
X003433Y018786D01*
X003521Y018697D01*
X004205Y018697D01*
X004299Y018791D01*
X004299Y018814D01*
X004457Y018814D01*
X004552Y018718D01*
X004552Y018605D01*
X004610Y018466D01*
X004716Y018360D01*
X004855Y018302D01*
X005005Y018302D01*
X005144Y018360D01*
X005250Y018466D01*
X005308Y018605D01*
X005308Y018755D01*
X005250Y018894D01*
X005144Y019000D01*
X005005Y019058D01*
X004892Y019058D01*
X004692Y019257D01*
X004604Y019294D01*
X004299Y019294D01*
X004299Y019317D01*
X004205Y019411D01*
X003521Y019411D01*
X003427Y019317D01*
X003427Y018948D01*
X003339Y019037D01*
X003237Y019037D01*
X003237Y019575D01*
X003736Y019575D01*
X003830Y019669D01*
X003830Y020851D01*
X003736Y020945D01*
X003459Y020945D01*
X003455Y020994D01*
X003524Y020994D01*
X003618Y021088D01*
X003618Y021772D01*
X003524Y021866D01*
X002840Y021866D01*
X002746Y021772D01*
X002746Y021088D01*
X002840Y020994D01*
X002974Y020994D01*
X002978Y020945D01*
X002554Y020945D01*
X002460Y020851D01*
X002460Y019669D01*
X002554Y019575D01*
X002757Y019575D01*
X002757Y019037D01*
X002655Y019037D01*
X002561Y018943D01*
X002561Y018417D01*
X002655Y018323D01*
X003339Y018323D01*
X003427Y018412D01*
X003427Y018043D01*
X003521Y017949D01*
X003690Y017949D01*
X003690Y017920D01*
X002882Y017920D01*
X002794Y017883D01*
X002782Y017871D01*
X002647Y017871D01*
X002553Y017778D01*
X002553Y017252D01*
X002625Y017180D01*
X002553Y017108D01*
X002553Y016582D01*
X002647Y016489D01*
X002690Y016489D01*
X002690Y016324D01*
X002568Y016324D01*
X002475Y016231D01*
X002475Y015507D01*
X002568Y015414D01*
X003292Y015414D01*
X003385Y015507D01*
X003385Y016231D01*
X003292Y016324D01*
X003170Y016324D01*
X003170Y016489D01*
X003213Y016489D01*
X003307Y016582D01*
X003307Y017108D01*
X003235Y017180D01*
X003307Y017252D01*
X003307Y017440D01*
X003553Y017440D01*
X003553Y017252D01*
X003613Y017192D01*
X003603Y017186D01*
X003569Y017153D01*
X003546Y017112D01*
X003533Y017066D01*
X003533Y016864D01*
X003912Y016864D01*
X003912Y016827D01*
X003948Y016827D01*
X003948Y016469D01*
X004170Y016469D01*
X004216Y016481D01*
X004257Y016504D01*
X004291Y016538D01*
X004314Y016579D01*
X004327Y016625D01*
X004327Y016827D01*
X003948Y016827D01*
X003948Y016864D01*
X004327Y016864D01*
X004327Y016944D01*
X004690Y016581D01*
X004690Y014132D01*
X004727Y014044D01*
X004794Y013977D01*
X005294Y013477D01*
X005382Y013440D01*
X008581Y013440D01*
X009303Y012718D01*
X008702Y012718D01*
X008688Y012726D01*
X008643Y012738D01*
X008540Y012738D01*
X008438Y012738D01*
X008392Y012726D01*
X008379Y012718D01*
X007934Y012718D01*
X007921Y012726D01*
X007875Y012738D01*
X007773Y012738D01*
X007773Y012322D01*
X007773Y012322D01*
X007680Y012229D01*
X007680Y011180D01*
X008028Y010832D01*
X008028Y010038D01*
X008284Y010038D01*
X008284Y010038D01*
X008028Y010038D01*
X008028Y010038D01*
X007773Y010038D02*
X007414Y009680D01*
X007180Y009680D01*
X006906Y009940D02*
X000660Y009940D01*
X000660Y009782D02*
X006813Y009782D01*
X006802Y009755D02*
X006802Y009605D01*
X006860Y009466D01*
X006966Y009360D01*
X007105Y009302D01*
X007255Y009302D01*
X007394Y009360D01*
X007483Y009449D01*
X007550Y009477D01*
X007618Y009544D01*
X007716Y009642D01*
X007867Y009642D01*
X007880Y009634D01*
X007926Y009622D01*
X008028Y009622D01*
X008028Y009768D01*
X008028Y009768D01*
X008028Y009622D01*
X008131Y009622D01*
X008156Y009629D01*
X008182Y009622D01*
X008284Y009622D01*
X008284Y009768D01*
X008284Y009622D01*
X008387Y009622D01*
X008433Y009634D01*
X008446Y009642D01*
X009053Y009642D01*
X007331Y007920D01*
X005382Y007920D01*
X005294Y007883D01*
X004794Y007383D01*
X004727Y007316D01*
X004690Y007228D01*
X004690Y006529D01*
X004327Y006166D01*
X004327Y006246D01*
X003948Y006246D01*
X003948Y006283D01*
X004327Y006283D01*
X004327Y006455D01*
X004438Y006455D01*
X004484Y006467D01*
X004525Y006491D01*
X004558Y006524D01*
X004582Y006565D01*
X004594Y006611D01*
X004594Y006862D01*
X004187Y006862D01*
X004187Y006998D01*
X004594Y006998D01*
X004594Y007249D01*
X004582Y007295D01*
X004558Y007336D01*
X004525Y007369D01*
X004484Y007393D01*
X004438Y007405D01*
X004187Y007405D01*
X004187Y006998D01*
X004051Y006998D01*
X004051Y007405D01*
X003800Y007405D01*
X003754Y007393D01*
X003713Y007369D01*
X003680Y007336D01*
X003656Y007295D01*
X003644Y007249D01*
X003644Y006998D01*
X004051Y006998D01*
X004051Y006862D01*
X003644Y006862D01*
X003644Y006629D01*
X003603Y006606D01*
X003569Y006572D01*
X003546Y006531D01*
X003533Y006485D01*
X003533Y006283D01*
X003912Y006283D01*
X003912Y006246D01*
X003533Y006246D01*
X003533Y006044D01*
X003546Y005998D01*
X003569Y005957D01*
X003603Y005924D01*
X003613Y005918D01*
X003553Y005858D01*
X003553Y005670D01*
X003307Y005670D01*
X003307Y005858D01*
X003235Y005930D01*
X003307Y006002D01*
X003307Y006528D01*
X003213Y006621D01*
X003196Y006621D01*
X003196Y007292D01*
X003103Y007385D01*
X002379Y007385D01*
X002286Y007292D01*
X002286Y006568D01*
X002379Y006475D01*
X002553Y006475D01*
X002553Y006002D01*
X002625Y005930D01*
X002553Y005858D01*
X002553Y005332D01*
X002647Y005239D01*
X002782Y005239D01*
X002794Y005227D01*
X002882Y005190D01*
X003690Y005190D01*
X003690Y005161D01*
X003655Y005161D01*
X003561Y005067D01*
X003561Y004541D01*
X003655Y004447D01*
X004339Y004447D01*
X004427Y004536D01*
X004427Y004324D01*
X004339Y004413D01*
X003655Y004413D01*
X003561Y004319D01*
X003561Y004296D01*
X003403Y004296D01*
X003308Y004392D01*
X003308Y004505D01*
X003250Y004644D01*
X003144Y004750D01*
X003005Y004808D01*
X002855Y004808D01*
X002716Y004750D01*
X002610Y004644D01*
X002552Y004505D01*
X002552Y004355D01*
X002610Y004216D01*
X002716Y004110D01*
X002799Y004076D02*
X000660Y004076D01*
X000660Y004234D02*
X002602Y004234D01*
X002552Y004393D02*
X000660Y004393D01*
X000660Y004551D02*
X002571Y004551D01*
X002675Y004710D02*
X000660Y004710D01*
X000660Y004868D02*
X003561Y004868D01*
X003561Y004710D02*
X003185Y004710D01*
X003289Y004551D02*
X003561Y004551D01*
X003635Y004393D02*
X003308Y004393D01*
X003304Y004056D02*
X002930Y004430D01*
X003304Y004056D02*
X003997Y004056D01*
X004433Y004076D02*
X004519Y004076D01*
X004433Y003917D02*
X004623Y003917D01*
X004623Y003759D02*
X004398Y003759D01*
X004623Y003600D02*
X000660Y003600D01*
X000660Y003759D02*
X003596Y003759D01*
X003830Y003442D02*
X004030Y003442D01*
X004030Y003283D02*
X003830Y003283D01*
X003830Y003125D02*
X004030Y003125D01*
X004030Y002966D02*
X003830Y002966D01*
X003830Y002808D02*
X004030Y002808D01*
X004030Y002649D02*
X003830Y002649D01*
X003830Y002491D02*
X004030Y002491D01*
X004030Y002332D02*
X003830Y002332D01*
X003745Y002174D02*
X004115Y002174D01*
X004242Y002015D02*
X003618Y002015D01*
X003618Y001857D02*
X004242Y001857D01*
X004242Y001698D02*
X003618Y001698D01*
X003618Y001540D02*
X004242Y001540D01*
X004242Y001381D02*
X003618Y001381D01*
X004678Y001680D02*
X004599Y002734D01*
X004715Y002850D01*
X004863Y002998D01*
X004863Y004430D01*
X004427Y004393D02*
X004359Y004393D01*
X004433Y004710D02*
X004444Y004710D01*
X004433Y004868D02*
X006811Y004868D01*
X006811Y004710D02*
X006435Y004710D01*
X006539Y004551D02*
X006811Y004551D01*
X006885Y004393D02*
X006558Y004393D01*
X006554Y004056D02*
X006180Y004430D01*
X005925Y004710D02*
X005282Y004710D01*
X005299Y004551D02*
X005821Y004551D01*
X005802Y004393D02*
X005299Y004393D01*
X005299Y004234D02*
X005852Y004234D01*
X006049Y004076D02*
X005207Y004076D01*
X005103Y003917D02*
X006354Y003917D01*
X006554Y004056D02*
X007247Y004056D01*
X006846Y003759D02*
X005103Y003759D01*
X005103Y003600D02*
X007873Y003600D01*
X007873Y003759D02*
X007648Y003759D01*
X007683Y003917D02*
X007873Y003917D01*
X007769Y004076D02*
X007683Y004076D01*
X007677Y004393D02*
X007609Y004393D01*
X007683Y004710D02*
X007694Y004710D01*
X007683Y004868D02*
X010061Y004868D01*
X010061Y004710D02*
X009435Y004710D01*
X009539Y004551D02*
X010061Y004551D01*
X010135Y004393D02*
X009558Y004393D01*
X009554Y004056D02*
X009180Y004430D01*
X008925Y004710D02*
X008532Y004710D01*
X008549Y004551D02*
X008821Y004551D01*
X008802Y004393D02*
X008549Y004393D01*
X008549Y004234D02*
X008852Y004234D01*
X009049Y004076D02*
X008457Y004076D01*
X008353Y003917D02*
X009354Y003917D01*
X009351Y003920D02*
X009351Y003920D01*
X009554Y004056D02*
X010497Y004056D01*
X010096Y003759D02*
X008353Y003759D01*
X008353Y003600D02*
X011123Y003600D01*
X011123Y003759D02*
X010898Y003759D01*
X010933Y003917D02*
X011123Y003917D01*
X011019Y004076D02*
X010933Y004076D01*
X010927Y004393D02*
X010859Y004393D01*
X010933Y004710D02*
X010944Y004710D01*
X010933Y004868D02*
X013311Y004868D01*
X013311Y004710D02*
X012935Y004710D01*
X013039Y004551D02*
X013311Y004551D01*
X013385Y004393D02*
X013058Y004393D01*
X013054Y004056D02*
X012680Y004430D01*
X012425Y004710D02*
X011782Y004710D01*
X011799Y004551D02*
X012321Y004551D01*
X012302Y004393D02*
X011799Y004393D01*
X011799Y004234D02*
X012352Y004234D01*
X012549Y004076D02*
X011707Y004076D01*
X011603Y003917D02*
X012854Y003917D01*
X013054Y004056D02*
X013747Y004056D01*
X014183Y004076D02*
X014269Y004076D01*
X014183Y003917D02*
X014373Y003917D01*
X014373Y003759D02*
X014148Y003759D01*
X014373Y003600D02*
X011603Y003600D01*
X011603Y003759D02*
X013346Y003759D01*
X013486Y003535D02*
X012304Y003535D01*
X012210Y003441D01*
X012210Y002259D01*
X012304Y002165D01*
X012647Y002165D01*
X012644Y002116D01*
X012590Y002116D01*
X012496Y002022D01*
X012496Y001338D01*
X012590Y001244D01*
X013274Y001244D01*
X013368Y001338D01*
X013368Y002022D01*
X013285Y002105D01*
X013289Y002165D01*
X013486Y002165D01*
X013580Y002259D01*
X013580Y003441D01*
X013486Y003535D01*
X013580Y003442D02*
X013780Y003442D01*
X013780Y003283D02*
X013580Y003283D01*
X013580Y003125D02*
X013780Y003125D01*
X013780Y002966D02*
X013580Y002966D01*
X013580Y002808D02*
X013780Y002808D01*
X013780Y002649D02*
X013580Y002649D01*
X013580Y002491D02*
X013780Y002491D01*
X013780Y002332D02*
X013580Y002332D01*
X013495Y002174D02*
X013865Y002174D01*
X013992Y002015D02*
X013368Y002015D01*
X013368Y001857D02*
X013992Y001857D01*
X013992Y001698D02*
X013368Y001698D01*
X013368Y001540D02*
X013992Y001540D01*
X013992Y001381D02*
X013368Y001381D01*
X012496Y001381D02*
X011614Y001381D01*
X011614Y001540D02*
X012496Y001540D01*
X012496Y001698D02*
X011614Y001698D01*
X011614Y001857D02*
X012496Y001857D01*
X012496Y002015D02*
X011614Y002015D01*
X011815Y002174D02*
X012295Y002174D01*
X012210Y002332D02*
X011900Y002332D01*
X011900Y002491D02*
X012210Y002491D01*
X012210Y002649D02*
X011900Y002649D01*
X011900Y002808D02*
X012210Y002808D01*
X012210Y002966D02*
X011900Y002966D01*
X011900Y003125D02*
X012210Y003125D01*
X012210Y003283D02*
X011900Y003283D01*
X011900Y003442D02*
X012210Y003442D01*
X011363Y002998D02*
X011363Y004430D01*
X010933Y005027D02*
X013311Y005027D01*
X013440Y005185D02*
X010670Y005185D01*
X010807Y005344D02*
X012303Y005344D01*
X012015Y005595D02*
X012680Y005595D01*
X012680Y005430D01*
X013680Y005430D01*
X013680Y004871D01*
X013747Y004804D01*
X013920Y005185D02*
X016757Y005185D01*
X016561Y005027D02*
X014183Y005027D01*
X014183Y004868D02*
X016561Y004868D01*
X016561Y004710D02*
X016185Y004710D01*
X016289Y004551D02*
X016561Y004551D01*
X016635Y004393D02*
X016308Y004393D01*
X016304Y004056D02*
X015930Y004430D01*
X015675Y004710D02*
X015032Y004710D01*
X015049Y004551D02*
X015571Y004551D01*
X015552Y004393D02*
X015049Y004393D01*
X015049Y004234D02*
X015602Y004234D01*
X015799Y004076D02*
X014957Y004076D01*
X014853Y003917D02*
X016104Y003917D01*
X016304Y004056D02*
X016997Y004056D01*
X017433Y004076D02*
X017519Y004076D01*
X017433Y003917D02*
X017623Y003917D01*
X017623Y003759D02*
X017398Y003759D01*
X017623Y003600D02*
X014853Y003600D01*
X014853Y003759D02*
X016596Y003759D01*
X016736Y003535D02*
X015554Y003535D01*
X015460Y003441D01*
X015460Y002259D01*
X015554Y002165D01*
X015897Y002165D01*
X015894Y002116D01*
X015840Y002116D01*
X015746Y002022D01*
X015746Y001338D01*
X015840Y001244D01*
X016524Y001244D01*
X016618Y001338D01*
X016618Y002022D01*
X016535Y002105D01*
X016539Y002165D01*
X016736Y002165D01*
X016830Y002259D01*
X016830Y003441D01*
X016736Y003535D01*
X016830Y003442D02*
X017030Y003442D01*
X017030Y003283D02*
X016830Y003283D01*
X016830Y003125D02*
X017030Y003125D01*
X017030Y002966D02*
X016830Y002966D01*
X016830Y002808D02*
X017030Y002808D01*
X017030Y002649D02*
X016830Y002649D01*
X016830Y002491D02*
X017030Y002491D01*
X017030Y002332D02*
X016830Y002332D01*
X016745Y002174D02*
X017115Y002174D01*
X017242Y002015D02*
X016618Y002015D01*
X016618Y001857D02*
X017242Y001857D01*
X017242Y001698D02*
X016618Y001698D01*
X016618Y001540D02*
X017242Y001540D01*
X017242Y001381D02*
X016618Y001381D01*
X015746Y001381D02*
X014864Y001381D01*
X014864Y001540D02*
X015746Y001540D01*
X015746Y001698D02*
X014864Y001698D01*
X014864Y001857D02*
X015746Y001857D01*
X015746Y002015D02*
X014864Y002015D01*
X015065Y002174D02*
X015545Y002174D01*
X015460Y002332D02*
X015150Y002332D01*
X015150Y002491D02*
X015460Y002491D01*
X015460Y002649D02*
X015150Y002649D01*
X015150Y002808D02*
X015460Y002808D01*
X015460Y002966D02*
X015150Y002966D01*
X015150Y003125D02*
X015460Y003125D01*
X015460Y003283D02*
X015150Y003283D01*
X015150Y003442D02*
X015460Y003442D01*
X014613Y002998D02*
X014465Y002850D01*
X014349Y002734D01*
X014428Y001680D01*
X014613Y002998D02*
X014613Y004430D01*
X014177Y004393D02*
X014109Y004393D01*
X014183Y004710D02*
X014194Y004710D01*
X014057Y005344D02*
X015553Y005344D01*
X015515Y005595D02*
X014680Y006430D01*
X014680Y007680D01*
X014180Y008180D01*
X013180Y008180D01*
X011930Y009430D01*
X011930Y010680D01*
X010430Y010680D01*
X010332Y010582D01*
X010332Y010038D01*
X010587Y010038D02*
X010729Y010180D01*
X011180Y010180D01*
X011474Y009940D02*
X011690Y009940D01*
X011690Y009782D02*
X010826Y009782D01*
X011076Y009623D02*
X011690Y009623D01*
X011690Y009465D02*
X011235Y009465D01*
X011393Y009306D02*
X011722Y009306D01*
X011873Y009148D02*
X011552Y009148D01*
X011710Y008989D02*
X012032Y008989D01*
X012190Y008831D02*
X011869Y008831D01*
X011920Y008672D02*
X012349Y008672D01*
X012507Y008514D02*
X011920Y008514D01*
X011920Y008355D02*
X012666Y008355D01*
X012824Y008197D02*
X011920Y008197D01*
X011920Y008038D02*
X012983Y008038D01*
X013186Y008514D02*
X016489Y008514D01*
X016489Y008397D02*
X016582Y008303D01*
X017108Y008303D01*
X017180Y008375D01*
X017252Y008303D01*
X017778Y008303D01*
X017871Y008397D01*
X017871Y008440D01*
X018036Y008440D01*
X018036Y008318D01*
X018129Y008225D01*
X018853Y008225D01*
X018946Y008318D01*
X018946Y009042D01*
X018853Y009135D01*
X018129Y009135D01*
X018036Y009042D01*
X018036Y008920D01*
X017871Y008920D01*
X017871Y008963D01*
X017778Y009057D01*
X017252Y009057D01*
X017180Y008985D01*
X017108Y009057D01*
X017085Y009057D01*
X017085Y009303D01*
X017108Y009303D01*
X017180Y009375D01*
X017252Y009303D01*
X017778Y009303D01*
X017871Y009397D01*
X017871Y009440D01*
X018036Y009440D01*
X018036Y009318D01*
X018129Y009225D01*
X018853Y009225D01*
X018946Y009318D01*
X018946Y010042D01*
X018853Y010135D01*
X018129Y010135D01*
X018036Y010042D01*
X018036Y009920D01*
X017871Y009920D01*
X017871Y009963D01*
X017778Y010057D01*
X017252Y010057D01*
X017180Y009985D01*
X017108Y010057D01*
X017085Y010057D01*
X017085Y010746D01*
X017816Y011477D01*
X017883Y011544D01*
X017920Y011632D01*
X017920Y013831D01*
X018249Y014160D01*
X018369Y014040D01*
X018538Y013970D01*
X019321Y013970D01*
X019491Y014040D01*
X019620Y014169D01*
X019690Y014338D01*
X019690Y014521D01*
X019620Y014691D01*
X019491Y014820D01*
X019321Y014890D01*
X018538Y014890D01*
X018369Y014820D01*
X018240Y014691D01*
X018232Y014670D01*
X018132Y014670D01*
X018044Y014633D01*
X017977Y014566D01*
X017477Y014066D01*
X017440Y013978D01*
X017440Y011779D01*
X016642Y010981D01*
X016605Y010893D01*
X016605Y010057D01*
X016582Y010057D01*
X016489Y009963D01*
X016489Y009397D01*
X016582Y009303D01*
X016605Y009303D01*
X016605Y009057D01*
X016582Y009057D01*
X016489Y008963D01*
X016489Y008397D01*
X016531Y008355D02*
X014344Y008355D01*
X014503Y008197D02*
X020692Y008197D01*
X020692Y008355D02*
X020343Y008355D01*
X020344Y008361D02*
X020344Y008612D01*
X019937Y008612D01*
X019937Y008748D01*
X020344Y008748D01*
X020344Y008999D01*
X020332Y009045D01*
X020308Y009086D01*
X020275Y009119D01*
X020234Y009143D01*
X020188Y009155D01*
X019937Y009155D01*
X019937Y008748D01*
X019801Y008748D01*
X019801Y009155D01*
X019550Y009155D01*
X019504Y009143D01*
X019463Y009119D01*
X019430Y009086D01*
X019406Y009045D01*
X019394Y008999D01*
X019394Y008748D01*
X019801Y008748D01*
X019801Y008612D01*
X019937Y008612D01*
X019937Y008205D01*
X020188Y008205D01*
X020234Y008217D01*
X020275Y008241D01*
X020308Y008274D01*
X020332Y008315D01*
X020344Y008361D01*
X020344Y008514D02*
X020692Y008514D01*
X020692Y008672D02*
X019937Y008672D01*
X019801Y008672D02*
X018946Y008672D01*
X018946Y008514D02*
X019394Y008514D01*
X019394Y008612D02*
X019394Y008361D01*
X019406Y008315D01*
X019430Y008274D01*
X019463Y008241D01*
X019504Y008217D01*
X019550Y008205D01*
X019801Y008205D01*
X019801Y008612D01*
X019394Y008612D01*
X019394Y008831D02*
X018946Y008831D01*
X018946Y008989D02*
X019394Y008989D01*
X019521Y009148D02*
X017085Y009148D01*
X017111Y009306D02*
X017249Y009306D01*
X017184Y008989D02*
X017176Y008989D01*
X016845Y008680D02*
X016845Y010845D01*
X017680Y011680D01*
X017680Y013930D01*
X018180Y014430D01*
X018930Y014430D01*
X018450Y014854D02*
X017693Y014854D01*
X017851Y015012D02*
X018437Y015012D01*
X018240Y015171D02*
X018010Y015171D01*
X017930Y015430D02*
X017180Y014680D01*
X017180Y011930D01*
X016430Y011180D01*
X013680Y011180D01*
X013430Y010930D01*
X013430Y010156D01*
X013930Y010156D02*
X013930Y010769D01*
X013930Y010156D01*
X013930Y010156D01*
X013930Y010099D02*
X013930Y010099D01*
X013930Y010257D02*
X013930Y010257D01*
X013930Y010416D02*
X013930Y010416D01*
X013930Y010574D02*
X013930Y010574D01*
X013930Y010733D02*
X013930Y010733D01*
X013700Y010733D02*
X013670Y010733D01*
X013730Y010891D02*
X016605Y010891D01*
X016605Y010733D02*
X014160Y010733D01*
X014228Y010574D02*
X016605Y010574D01*
X016605Y010416D02*
X014228Y010416D01*
X014228Y010257D02*
X016605Y010257D01*
X016605Y010099D02*
X014228Y010099D01*
X014228Y009940D02*
X016489Y009940D01*
X016489Y009782D02*
X014228Y009782D01*
X014198Y009623D02*
X016489Y009623D01*
X016489Y009465D02*
X012235Y009465D01*
X012186Y009623D02*
X012170Y009623D01*
X012393Y009306D02*
X016580Y009306D01*
X016605Y009148D02*
X012552Y009148D01*
X012710Y008989D02*
X016515Y008989D01*
X016489Y008831D02*
X012869Y008831D01*
X013027Y008672D02*
X016489Y008672D01*
X016845Y008680D02*
X016845Y009680D01*
X017085Y010099D02*
X018093Y010099D01*
X018036Y009940D02*
X017871Y009940D01*
X017515Y009680D02*
X018491Y009680D01*
X018946Y009623D02*
X019414Y009623D01*
X019414Y009465D02*
X018946Y009465D01*
X018934Y009306D02*
X019426Y009306D01*
X019414Y009318D02*
X019507Y009225D01*
X020231Y009225D01*
X020324Y009318D01*
X020324Y009985D01*
X020383Y010044D01*
X020420Y010132D01*
X020420Y019228D01*
X020383Y019316D01*
X020316Y019383D01*
X020133Y019566D01*
X020066Y019633D01*
X019978Y019670D01*
X019628Y019670D01*
X019620Y019691D01*
X019491Y019820D01*
X019321Y019890D01*
X018538Y019890D01*
X018400Y019833D01*
X018400Y020851D01*
X018306Y020945D01*
X018035Y020945D01*
X018035Y021010D01*
X018114Y021088D01*
X018114Y021772D01*
X018020Y021866D01*
X017336Y021866D01*
X017242Y021772D01*
X017242Y021088D01*
X017336Y020994D01*
X017395Y020994D01*
X017395Y020945D01*
X017124Y020945D01*
X017030Y020851D01*
X017030Y019669D01*
X017124Y019575D01*
X018192Y019575D01*
X018170Y019521D01*
X018170Y019338D01*
X018240Y019169D01*
X018369Y019040D01*
X018538Y018970D01*
X019321Y018970D01*
X019491Y019040D01*
X019620Y019169D01*
X019628Y019190D01*
X019831Y019190D01*
X019940Y019081D01*
X019940Y010279D01*
X019796Y010135D01*
X019507Y010135D01*
X019414Y010042D01*
X019414Y009318D01*
X019801Y009148D02*
X019937Y009148D01*
X019937Y008989D02*
X019801Y008989D01*
X019801Y008831D02*
X019937Y008831D01*
X019937Y008514D02*
X019801Y008514D01*
X019801Y008355D02*
X019937Y008355D01*
X020344Y008831D02*
X020692Y008831D01*
X020692Y008989D02*
X020344Y008989D01*
X020217Y009148D02*
X020692Y009148D01*
X020692Y009306D02*
X020312Y009306D01*
X020324Y009465D02*
X020692Y009465D01*
X020692Y009623D02*
X020324Y009623D01*
X020324Y009782D02*
X020692Y009782D01*
X020692Y009940D02*
X020324Y009940D01*
X020406Y010099D02*
X020692Y010099D01*
X020692Y010257D02*
X020420Y010257D01*
X020420Y010416D02*
X020692Y010416D01*
X020692Y010574D02*
X020420Y010574D01*
X020420Y010733D02*
X020692Y010733D01*
X020692Y010891D02*
X020420Y010891D01*
X020420Y011050D02*
X020692Y011050D01*
X020692Y011208D02*
X020420Y011208D01*
X020420Y011367D02*
X020692Y011367D01*
X020692Y011525D02*
X020420Y011525D01*
X020420Y011684D02*
X020692Y011684D01*
X020692Y011842D02*
X020420Y011842D01*
X020420Y012001D02*
X020692Y012001D01*
X020692Y012159D02*
X020420Y012159D01*
X020420Y012318D02*
X020692Y012318D01*
X020692Y012476D02*
X020420Y012476D01*
X020420Y012635D02*
X020692Y012635D01*
X020692Y012793D02*
X020420Y012793D01*
X020420Y012952D02*
X020692Y012952D01*
X020692Y013110D02*
X020420Y013110D01*
X020420Y013269D02*
X020692Y013269D01*
X020692Y013427D02*
X020420Y013427D01*
X020420Y013586D02*
X020692Y013586D01*
X020692Y013744D02*
X020420Y013744D01*
X020420Y013903D02*
X020692Y013903D01*
X020692Y014061D02*
X020420Y014061D01*
X020420Y014220D02*
X020692Y014220D01*
X020692Y014378D02*
X020420Y014378D01*
X020420Y014537D02*
X020692Y014537D01*
X020692Y014695D02*
X020420Y014695D01*
X020420Y014854D02*
X020692Y014854D01*
X020692Y015012D02*
X020420Y015012D01*
X020420Y015171D02*
X020692Y015171D01*
X020692Y015329D02*
X020420Y015329D01*
X020420Y015488D02*
X020692Y015488D01*
X020692Y015646D02*
X020420Y015646D01*
X020420Y015805D02*
X020692Y015805D01*
X020692Y015963D02*
X020420Y015963D01*
X020420Y016122D02*
X020692Y016122D01*
X020692Y016280D02*
X020420Y016280D01*
X020420Y016439D02*
X020692Y016439D01*
X020692Y016597D02*
X020420Y016597D01*
X020420Y016756D02*
X020692Y016756D01*
X020692Y016914D02*
X020420Y016914D01*
X020420Y017073D02*
X020692Y017073D01*
X020692Y017231D02*
X020420Y017231D01*
X020420Y017390D02*
X020692Y017390D01*
X020692Y017548D02*
X020420Y017548D01*
X020420Y017707D02*
X020692Y017707D01*
X020692Y017865D02*
X020420Y017865D01*
X020420Y018024D02*
X020692Y018024D01*
X020692Y018182D02*
X020420Y018182D01*
X020420Y018341D02*
X020692Y018341D01*
X020692Y018499D02*
X020420Y018499D01*
X020420Y018658D02*
X020692Y018658D01*
X020692Y018816D02*
X020420Y018816D01*
X020420Y018975D02*
X020692Y018975D01*
X020692Y019133D02*
X020420Y019133D01*
X020394Y019292D02*
X020692Y019292D01*
X020692Y019450D02*
X020249Y019450D01*
X020316Y019383D02*
X020316Y019383D01*
X020180Y019180D02*
X019930Y019430D01*
X018930Y019430D01*
X018528Y018975D02*
X018170Y018975D01*
X018276Y019133D02*
X017816Y019133D01*
X017610Y019292D02*
X018189Y019292D01*
X018170Y019450D02*
X016237Y019450D01*
X016237Y019292D02*
X016427Y019292D01*
X016427Y019133D02*
X016237Y019133D01*
X016401Y018975D02*
X016427Y018975D01*
X016863Y019054D02*
X017556Y019054D01*
X017930Y018680D01*
X018098Y018341D02*
X018158Y018341D01*
X018218Y018182D02*
X017299Y018182D01*
X017299Y018341D02*
X017762Y018341D01*
X017596Y018499D02*
X017299Y018499D01*
X017210Y018658D02*
X017552Y018658D01*
X016930Y018239D02*
X016930Y017680D01*
X015930Y017680D01*
X015930Y017515D01*
X015765Y017515D01*
X014930Y016680D01*
X014930Y014930D01*
X013680Y013680D01*
X011946Y013680D01*
X010587Y012322D01*
X010332Y012322D02*
X010332Y012832D01*
X011680Y014180D01*
X011680Y016680D01*
X012515Y017515D01*
X012680Y017515D01*
X012845Y017680D01*
X013680Y017680D01*
X013680Y017515D01*
X013680Y017680D02*
X013680Y018239D01*
X013613Y018306D01*
X014049Y018341D02*
X014512Y018341D01*
X014346Y018499D02*
X014049Y018499D01*
X013960Y018658D02*
X014302Y018658D01*
X014680Y018680D02*
X014306Y019054D01*
X013613Y019054D01*
X013177Y019133D02*
X012987Y019133D01*
X012987Y019292D02*
X013177Y019292D01*
X012987Y019450D02*
X015757Y019450D01*
X015757Y019292D02*
X014360Y019292D01*
X014566Y019133D02*
X015757Y019133D01*
X015593Y018975D02*
X014920Y018975D01*
X015033Y018816D02*
X015561Y018816D01*
X015561Y018658D02*
X015058Y018658D01*
X015014Y018499D02*
X015561Y018499D01*
X015638Y018341D02*
X014848Y018341D01*
X015641Y017865D02*
X013969Y017865D01*
X014029Y018024D02*
X016447Y018024D01*
X016427Y018182D02*
X014049Y018182D01*
X014057Y017707D02*
X015553Y017707D01*
X015459Y017548D02*
X014057Y017548D01*
X014057Y017390D02*
X015300Y017390D01*
X015142Y017231D02*
X014036Y017231D01*
X014075Y017073D02*
X014983Y017073D01*
X014825Y016914D02*
X014077Y016914D01*
X014077Y016756D02*
X014702Y016756D01*
X014690Y016597D02*
X014069Y016597D01*
X013698Y016597D02*
X013662Y016597D01*
X013662Y016469D02*
X013662Y016827D01*
X013283Y016827D01*
X013283Y016625D01*
X013296Y016579D01*
X013319Y016538D01*
X013353Y016504D01*
X013394Y016481D01*
X013440Y016469D01*
X013662Y016469D01*
X013662Y016756D02*
X013698Y016756D01*
X013283Y016756D02*
X013057Y016756D01*
X013057Y016914D02*
X013283Y016914D01*
X013285Y017073D02*
X013057Y017073D01*
X013036Y017231D02*
X013324Y017231D01*
X013303Y017390D02*
X013057Y017390D01*
X013197Y018024D02*
X010779Y018024D01*
X010799Y018182D02*
X013177Y018182D01*
X013177Y018341D02*
X013106Y018341D01*
X013183Y018658D02*
X013266Y018658D01*
X013177Y018975D02*
X013151Y018975D01*
X012747Y018680D02*
X012747Y020112D01*
X012895Y020260D01*
X013011Y020376D01*
X012932Y021430D01*
X013314Y021035D02*
X014046Y021035D01*
X014086Y020994D02*
X013992Y021088D01*
X013992Y021772D01*
X014086Y021866D01*
X014770Y021866D01*
X014864Y021772D01*
X014864Y021088D01*
X014785Y021010D01*
X014785Y020945D01*
X015056Y020945D01*
X015150Y020851D01*
X015150Y019669D01*
X015056Y019575D01*
X013874Y019575D01*
X013780Y019669D01*
X013780Y020851D01*
X013874Y020945D01*
X014145Y020945D01*
X014145Y020994D01*
X014086Y020994D01*
X013992Y021194D02*
X013368Y021194D01*
X013368Y021352D02*
X013992Y021352D01*
X013992Y021511D02*
X013368Y021511D01*
X013368Y021669D02*
X013992Y021669D01*
X014048Y021828D02*
X013312Y021828D01*
X012552Y021828D02*
X011558Y021828D01*
X011520Y021866D02*
X010836Y021866D01*
X010742Y021772D01*
X010742Y021088D01*
X010836Y020994D01*
X010895Y020994D01*
X010895Y020945D01*
X010624Y020945D01*
X010530Y020851D01*
X010530Y019669D01*
X010624Y019575D01*
X011806Y019575D01*
X011900Y019669D01*
X011900Y020851D01*
X011806Y020945D01*
X011535Y020945D01*
X011535Y020950D01*
X011536Y020951D01*
X011536Y020951D01*
X011561Y021036D01*
X011614Y021088D01*
X011614Y021772D01*
X011520Y021866D01*
X011614Y021669D02*
X012496Y021669D01*
X012496Y021511D02*
X011614Y021511D01*
X011614Y021352D02*
X012496Y021352D01*
X012496Y021194D02*
X011614Y021194D01*
X011561Y021035D02*
X012549Y021035D01*
X012235Y020877D02*
X011875Y020877D01*
X011900Y020718D02*
X012210Y020718D01*
X012210Y020560D02*
X011900Y020560D01*
X011900Y020401D02*
X012210Y020401D01*
X012210Y020243D02*
X011900Y020243D01*
X011900Y020084D02*
X012210Y020084D01*
X012210Y019926D02*
X011900Y019926D01*
X011900Y019767D02*
X012210Y019767D01*
X012270Y019609D02*
X011840Y019609D01*
X011670Y018975D02*
X012343Y018975D01*
X012311Y018816D02*
X011783Y018816D01*
X011808Y018658D02*
X012311Y018658D01*
X012311Y018499D02*
X011764Y018499D01*
X011598Y018341D02*
X012388Y018341D01*
X012391Y017865D02*
X010719Y017865D01*
X010807Y017707D02*
X012303Y017707D01*
X012209Y017548D02*
X010901Y017548D01*
X011060Y017390D02*
X012050Y017390D01*
X011892Y017231D02*
X011218Y017231D01*
X011377Y017073D02*
X011733Y017073D01*
X011575Y016914D02*
X011420Y016914D01*
X011544Y016883D02*
X011544Y016883D01*
X011452Y016756D02*
X011420Y016756D01*
X011420Y016597D02*
X011440Y016597D01*
X011440Y016439D02*
X011420Y016439D01*
X011420Y016280D02*
X011440Y016280D01*
X011440Y016122D02*
X011420Y016122D01*
X011420Y015963D02*
X011440Y015963D01*
X011440Y015805D02*
X011420Y015805D01*
X011420Y015646D02*
X011440Y015646D01*
X011440Y015488D02*
X011420Y015488D01*
X011420Y015329D02*
X011440Y015329D01*
X011440Y015171D02*
X011420Y015171D01*
X011420Y015012D02*
X011440Y015012D01*
X011440Y014854D02*
X011420Y014854D01*
X011420Y014695D02*
X011440Y014695D01*
X011440Y014537D02*
X011420Y014537D01*
X011420Y014378D02*
X011440Y014378D01*
X011180Y014180D02*
X011180Y016930D01*
X010595Y017515D01*
X010430Y017515D01*
X010430Y017680D01*
X010430Y018239D01*
X010363Y018306D01*
X010710Y018658D02*
X011052Y018658D01*
X011096Y018499D02*
X010799Y018499D01*
X010799Y018341D02*
X011262Y018341D01*
X011430Y018680D02*
X011056Y019054D01*
X010363Y019054D01*
X009927Y019133D02*
X009737Y019133D01*
X009737Y019292D02*
X009927Y019292D01*
X009737Y019450D02*
X012507Y019450D01*
X012507Y019292D02*
X011110Y019292D01*
X011316Y019133D02*
X012507Y019133D01*
X013520Y019609D02*
X013840Y019609D01*
X013780Y019767D02*
X013580Y019767D01*
X013580Y019926D02*
X013780Y019926D01*
X013780Y020084D02*
X013580Y020084D01*
X013580Y020243D02*
X013780Y020243D01*
X013780Y020401D02*
X013580Y020401D01*
X013580Y020560D02*
X013780Y020560D01*
X013780Y020718D02*
X013580Y020718D01*
X013555Y020877D02*
X013805Y020877D01*
X014811Y021035D02*
X015799Y021035D01*
X015746Y021194D02*
X014864Y021194D01*
X014864Y021352D02*
X015746Y021352D01*
X015746Y021511D02*
X014864Y021511D01*
X014864Y021669D02*
X015746Y021669D01*
X015802Y021828D02*
X014808Y021828D01*
X015125Y020877D02*
X015485Y020877D01*
X015460Y020718D02*
X015150Y020718D01*
X015150Y020560D02*
X015460Y020560D01*
X015460Y020401D02*
X015150Y020401D01*
X015150Y020243D02*
X015460Y020243D01*
X015460Y020084D02*
X015150Y020084D01*
X015150Y019926D02*
X015460Y019926D01*
X015460Y019767D02*
X015150Y019767D01*
X015090Y019609D02*
X015520Y019609D01*
X015997Y020112D02*
X016145Y020260D01*
X016261Y020376D01*
X016182Y021430D01*
X016618Y021352D02*
X017242Y021352D01*
X017242Y021194D02*
X016618Y021194D01*
X016564Y021035D02*
X017296Y021035D01*
X017055Y020877D02*
X016805Y020877D01*
X016830Y020718D02*
X017030Y020718D01*
X017030Y020560D02*
X016830Y020560D01*
X016830Y020401D02*
X017030Y020401D01*
X017030Y020243D02*
X016830Y020243D01*
X016830Y020084D02*
X017030Y020084D01*
X017030Y019926D02*
X016830Y019926D01*
X016830Y019767D02*
X017030Y019767D01*
X017090Y019609D02*
X016770Y019609D01*
X015997Y020112D02*
X015997Y018680D01*
X016356Y018341D02*
X016427Y018341D01*
X016433Y018658D02*
X016516Y018658D01*
X016863Y018306D02*
X016930Y018239D01*
X017279Y018024D02*
X018373Y018024D01*
X018478Y017865D02*
X017219Y017865D01*
X017307Y017707D02*
X018256Y017707D01*
X018240Y017691D02*
X018170Y017521D01*
X018170Y017338D01*
X018240Y017169D01*
X018369Y017040D01*
X018538Y016970D01*
X019321Y016970D01*
X019491Y017040D01*
X019620Y017169D01*
X019690Y017338D01*
X019690Y017521D01*
X019620Y017691D01*
X019491Y017820D01*
X019321Y017890D01*
X018538Y017890D01*
X018369Y017820D01*
X018240Y017691D01*
X018181Y017548D02*
X017307Y017548D01*
X017307Y017390D02*
X018170Y017390D01*
X018215Y017231D02*
X017286Y017231D01*
X017325Y017073D02*
X018337Y017073D01*
X018305Y016756D02*
X017327Y016756D01*
X017327Y016914D02*
X019940Y016914D01*
X019940Y016756D02*
X019555Y016756D01*
X019659Y016597D02*
X019940Y016597D01*
X019940Y016439D02*
X019690Y016439D01*
X019666Y016280D02*
X019940Y016280D01*
X019940Y016122D02*
X019572Y016122D01*
X019506Y015805D02*
X019940Y015805D01*
X019940Y015963D02*
X017552Y015963D01*
X017394Y015805D02*
X018354Y015805D01*
X018288Y016122D02*
X017711Y016122D01*
X017680Y016430D02*
X018930Y016430D01*
X019523Y017073D02*
X019940Y017073D01*
X019940Y017231D02*
X019645Y017231D01*
X019690Y017390D02*
X019940Y017390D01*
X019940Y017548D02*
X019679Y017548D01*
X019604Y017707D02*
X019940Y017707D01*
X019940Y017865D02*
X019382Y017865D01*
X019342Y017962D02*
X019414Y017985D01*
X019482Y018019D01*
X019543Y018064D01*
X019596Y018117D01*
X019641Y018178D01*
X019675Y018246D01*
X019698Y018318D01*
X019710Y018392D01*
X019710Y018410D01*
X018950Y018410D01*
X018950Y017950D01*
X019268Y017950D01*
X019342Y017962D01*
X019487Y018024D02*
X019940Y018024D01*
X019940Y018182D02*
X019642Y018182D01*
X019702Y018341D02*
X019940Y018341D01*
X019940Y018499D02*
X019705Y018499D01*
X019710Y018468D02*
X019698Y018542D01*
X019675Y018614D01*
X019641Y018682D01*
X019596Y018743D01*
X019543Y018796D01*
X019482Y018841D01*
X019414Y018875D01*
X019342Y018898D01*
X019268Y018910D01*
X018950Y018910D01*
X018950Y018450D01*
X019710Y018450D01*
X019710Y018468D01*
X019653Y018658D02*
X019940Y018658D01*
X019940Y018816D02*
X019515Y018816D01*
X019332Y018975D02*
X019940Y018975D01*
X019888Y019133D02*
X019584Y019133D01*
X020091Y019609D02*
X020692Y019609D01*
X020692Y019767D02*
X019544Y019767D01*
X020133Y019566D02*
X020133Y019566D01*
X020180Y019180D02*
X020180Y010180D01*
X019680Y009680D01*
X019869Y009680D01*
X019414Y009782D02*
X018946Y009782D01*
X018946Y009940D02*
X019414Y009940D01*
X019471Y010099D02*
X018889Y010099D01*
X018048Y009306D02*
X017780Y009306D01*
X017845Y008989D02*
X018036Y008989D01*
X018491Y008680D02*
X017515Y008680D01*
X017200Y008355D02*
X017160Y008355D01*
X017829Y008355D02*
X018036Y008355D01*
X018946Y008355D02*
X019395Y008355D01*
X020692Y008038D02*
X014661Y008038D01*
X014820Y007880D02*
X020692Y007880D01*
X020692Y007721D02*
X014920Y007721D01*
X014920Y007563D02*
X020692Y007563D01*
X020692Y007404D02*
X017443Y007404D01*
X017594Y007246D02*
X020692Y007246D01*
X020692Y007087D02*
X017594Y007087D01*
X017594Y006770D02*
X020692Y006770D01*
X020692Y006612D02*
X017594Y006612D01*
X017327Y006453D02*
X020692Y006453D01*
X020692Y006295D02*
X017327Y006295D01*
X017327Y006136D02*
X020692Y006136D01*
X020692Y005978D02*
X017302Y005978D01*
X017307Y005819D02*
X020692Y005819D01*
X020692Y005661D02*
X017307Y005661D01*
X017307Y005502D02*
X020692Y005502D01*
X020692Y005344D02*
X017307Y005344D01*
X017237Y005185D02*
X020692Y005185D01*
X020692Y005027D02*
X017433Y005027D01*
X017433Y004868D02*
X020692Y004868D01*
X020692Y004710D02*
X018282Y004710D01*
X018299Y004551D02*
X020692Y004551D01*
X020692Y004393D02*
X018299Y004393D01*
X018299Y004234D02*
X020692Y004234D01*
X020692Y004076D02*
X018207Y004076D01*
X018103Y003917D02*
X020692Y003917D01*
X020692Y003759D02*
X018103Y003759D01*
X018103Y003600D02*
X020692Y003600D01*
X020692Y003442D02*
X018400Y003442D01*
X018400Y003283D02*
X020692Y003283D01*
X020692Y003125D02*
X018400Y003125D01*
X018400Y002966D02*
X020692Y002966D01*
X020692Y002808D02*
X018400Y002808D01*
X018400Y002649D02*
X020692Y002649D01*
X020692Y002491D02*
X020663Y002491D01*
X019697Y002491D02*
X018400Y002491D01*
X018400Y002332D02*
X019442Y002332D01*
X019283Y002174D02*
X018315Y002174D01*
X018114Y002015D02*
X019178Y002015D01*
X019093Y001857D02*
X018114Y001857D01*
X018114Y001698D02*
X019051Y001698D01*
X019020Y001540D02*
X018114Y001540D01*
X018114Y001381D02*
X019020Y001381D01*
X017678Y001680D02*
X017599Y002734D01*
X017715Y002850D01*
X017863Y002998D01*
X017863Y004430D01*
X017427Y004393D02*
X017359Y004393D01*
X017433Y004710D02*
X017444Y004710D01*
X016997Y004804D02*
X016997Y005430D01*
X016930Y005430D01*
X015930Y005430D01*
X015930Y005595D01*
X015515Y005595D01*
X015269Y005502D02*
X014057Y005502D01*
X014057Y005661D02*
X015110Y005661D01*
X014952Y005819D02*
X014057Y005819D01*
X014052Y005978D02*
X014793Y005978D01*
X014635Y006136D02*
X014077Y006136D01*
X014077Y006295D02*
X014476Y006295D01*
X014440Y006453D02*
X014077Y006453D01*
X014344Y006612D02*
X014440Y006612D01*
X014440Y006770D02*
X014344Y006770D01*
X014440Y006929D02*
X013937Y006929D01*
X013801Y006929D02*
X012946Y006929D01*
X012946Y007087D02*
X013394Y007087D01*
X013394Y007246D02*
X012946Y007246D01*
X012946Y006770D02*
X013394Y006770D01*
X013363Y006612D02*
X012973Y006612D01*
X013057Y006453D02*
X013283Y006453D01*
X013283Y006295D02*
X013057Y006295D01*
X013057Y006136D02*
X013283Y006136D01*
X013308Y005978D02*
X013033Y005978D01*
X013057Y005819D02*
X013303Y005819D01*
X013680Y005595D02*
X013765Y005430D01*
X013680Y005430D01*
X012680Y006265D02*
X012491Y006930D01*
X012036Y006929D02*
X011920Y006929D01*
X011920Y007087D02*
X012036Y007087D01*
X012036Y007246D02*
X011920Y007246D01*
X011920Y007404D02*
X013545Y007404D01*
X013801Y007404D02*
X013937Y007404D01*
X013937Y007246D02*
X013801Y007246D01*
X013801Y007087D02*
X013937Y007087D01*
X014193Y007404D02*
X014440Y007404D01*
X014440Y007246D02*
X014344Y007246D01*
X014344Y007087D02*
X014440Y007087D01*
X014440Y007563D02*
X011920Y007563D01*
X011920Y007721D02*
X014300Y007721D01*
X014141Y007880D02*
X011920Y007880D01*
X011440Y007880D02*
X011420Y007880D01*
X011420Y008038D02*
X011440Y008038D01*
X011440Y008197D02*
X011420Y008197D01*
X011420Y008355D02*
X011440Y008355D01*
X011440Y008514D02*
X011420Y008514D01*
X011180Y008680D02*
X011180Y005930D01*
X010845Y005595D01*
X010430Y005595D01*
X010515Y005430D01*
X010430Y005430D01*
X010430Y004871D01*
X010497Y004804D01*
X010190Y005185D02*
X007420Y005185D01*
X007345Y005430D02*
X007180Y005430D01*
X007180Y004871D01*
X007247Y004804D01*
X006811Y005027D02*
X004433Y005027D01*
X004170Y005185D02*
X006940Y005185D01*
X007180Y005430D02*
X006180Y005430D01*
X006180Y005595D01*
X006557Y005819D02*
X006803Y005819D01*
X006808Y005978D02*
X006533Y005978D01*
X006557Y006136D02*
X006783Y006136D01*
X006783Y006295D02*
X006557Y006295D01*
X006557Y006453D02*
X006783Y006453D01*
X006863Y006612D02*
X006473Y006612D01*
X006446Y006770D02*
X006894Y006770D01*
X006894Y007087D02*
X006446Y007087D01*
X006446Y006929D02*
X007301Y006929D01*
X007437Y006929D02*
X007940Y006929D01*
X007940Y007087D02*
X007844Y007087D01*
X007844Y007246D02*
X007940Y007246D01*
X007940Y007404D02*
X007693Y007404D01*
X007652Y007563D02*
X007940Y007563D01*
X007940Y007721D02*
X007810Y007721D01*
X007969Y007880D02*
X008040Y007880D01*
X008044Y007883D02*
X008044Y007883D01*
X008127Y008038D02*
X008199Y008038D01*
X008286Y008197D02*
X008357Y008197D01*
X008444Y008355D02*
X008516Y008355D01*
X008603Y008514D02*
X008674Y008514D01*
X008761Y008672D02*
X008833Y008672D01*
X008920Y008831D02*
X008991Y008831D01*
X009078Y008989D02*
X009150Y008989D01*
X009237Y009148D02*
X009308Y009148D01*
X009552Y009052D02*
X009564Y009052D01*
X009564Y010038D01*
X009820Y010038D02*
X009820Y009296D01*
X009814Y009296D01*
X009930Y009180D01*
X010680Y009180D01*
X011180Y008680D01*
X010940Y008514D02*
X009353Y008514D01*
X009511Y008672D02*
X010849Y008672D01*
X010690Y008831D02*
X009670Y008831D01*
X009552Y009052D02*
X008180Y007680D01*
X008180Y005930D01*
X007680Y005430D01*
X007345Y005430D01*
X007180Y005595D01*
X007557Y005819D02*
X007730Y005819D01*
X007888Y005978D02*
X007552Y005978D01*
X007577Y006136D02*
X007940Y006136D01*
X007940Y006295D02*
X007577Y006295D01*
X007577Y006453D02*
X007940Y006453D01*
X007940Y006612D02*
X007844Y006612D01*
X007844Y006770D02*
X007940Y006770D01*
X008420Y006770D02*
X008786Y006770D01*
X008786Y006612D02*
X008420Y006612D01*
X008420Y006453D02*
X009053Y006453D01*
X009053Y006295D02*
X008420Y006295D01*
X008420Y006136D02*
X009053Y006136D01*
X009077Y005978D02*
X008420Y005978D01*
X008394Y005819D02*
X009053Y005819D01*
X009053Y005661D02*
X008250Y005661D01*
X008091Y005502D02*
X009053Y005502D01*
X009053Y005344D02*
X007933Y005344D01*
X007883Y005294D02*
X007883Y005294D01*
X007683Y005027D02*
X010061Y005027D01*
X010430Y005430D02*
X009430Y005430D01*
X009430Y005595D01*
X009807Y005819D02*
X010053Y005819D01*
X010058Y005978D02*
X009783Y005978D01*
X009807Y006136D02*
X010033Y006136D01*
X010033Y006295D02*
X009807Y006295D01*
X009807Y006453D02*
X010033Y006453D01*
X010113Y006612D02*
X009723Y006612D01*
X009696Y006770D02*
X010144Y006770D01*
X010144Y007087D02*
X009696Y007087D01*
X009696Y006929D02*
X010551Y006929D01*
X010551Y007087D02*
X010687Y007087D01*
X010687Y007246D02*
X010551Y007246D01*
X010551Y007404D02*
X010687Y007404D01*
X010940Y007563D02*
X008420Y007563D01*
X008420Y007404D02*
X010295Y007404D01*
X010144Y007246D02*
X009696Y007246D01*
X009241Y006930D02*
X009430Y006265D01*
X008786Y006929D02*
X008420Y006929D01*
X008420Y007087D02*
X008786Y007087D01*
X008786Y007246D02*
X008420Y007246D01*
X008560Y007721D02*
X010940Y007721D01*
X010940Y007880D02*
X008719Y007880D01*
X008877Y008038D02*
X010940Y008038D01*
X010940Y008197D02*
X009036Y008197D01*
X009194Y008355D02*
X010940Y008355D01*
X011420Y007721D02*
X011440Y007721D01*
X011440Y007563D02*
X011420Y007563D01*
X011420Y007404D02*
X011440Y007404D01*
X011440Y007246D02*
X011420Y007246D01*
X011420Y007087D02*
X011440Y007087D01*
X011440Y006929D02*
X011420Y006929D01*
X011420Y006770D02*
X011440Y006770D01*
X011440Y006612D02*
X011420Y006612D01*
X011420Y006453D02*
X011440Y006453D01*
X011440Y006295D02*
X011420Y006295D01*
X011420Y006136D02*
X011440Y006136D01*
X011440Y005978D02*
X011420Y005978D01*
X011394Y005819D02*
X011466Y005819D01*
X011610Y005661D02*
X011250Y005661D01*
X011091Y005502D02*
X011769Y005502D01*
X012015Y005595D02*
X011680Y005930D01*
X011680Y008680D01*
X010930Y009430D01*
X010180Y009430D01*
X010076Y009534D01*
X010076Y010038D01*
X010092Y010434D02*
X008446Y010434D01*
X008433Y010442D01*
X008387Y010454D01*
X008284Y010454D01*
X008182Y010454D01*
X008156Y010448D01*
X008131Y010454D01*
X008028Y010454D01*
X007926Y010454D01*
X007880Y010442D01*
X007867Y010434D01*
X007628Y010434D01*
X007534Y010341D01*
X007534Y010139D01*
X007395Y010000D01*
X007394Y010000D01*
X007255Y010058D01*
X007105Y010058D01*
X006966Y010000D01*
X006860Y009894D01*
X006802Y009755D01*
X006802Y009623D02*
X000660Y009623D01*
X000660Y009465D02*
X006861Y009465D01*
X007096Y009306D02*
X000660Y009306D01*
X000660Y009148D02*
X008558Y009148D01*
X008717Y009306D02*
X007264Y009306D01*
X007521Y009465D02*
X008875Y009465D01*
X009034Y009623D02*
X008390Y009623D01*
X008284Y009623D02*
X008284Y009623D01*
X008178Y009623D02*
X008134Y009623D01*
X008028Y009623D02*
X008028Y009623D01*
X007922Y009623D02*
X007697Y009623D01*
X007493Y010099D02*
X000660Y010099D01*
X000660Y010257D02*
X007534Y010257D01*
X007609Y010416D02*
X000660Y010416D01*
X000660Y010574D02*
X010092Y010574D01*
X010092Y010629D02*
X010092Y010434D01*
X010092Y010629D02*
X010117Y010690D01*
X008382Y010690D01*
X008294Y010727D01*
X008227Y010794D01*
X007825Y011196D01*
X007788Y011284D01*
X007788Y011906D01*
X007773Y011906D01*
X007773Y012322D01*
X007773Y012738D01*
X007670Y012738D01*
X007624Y012726D01*
X007583Y012702D01*
X007550Y012668D01*
X007526Y012627D01*
X007514Y012582D01*
X007514Y012322D01*
X007773Y012322D01*
X007773Y012322D01*
X007773Y012322D01*
X007773Y011906D01*
X007670Y011906D01*
X007624Y011918D01*
X007583Y011941D01*
X007550Y011975D01*
X007526Y012016D01*
X007514Y012062D01*
X007514Y012322D01*
X007773Y012322D01*
X007773Y012318D02*
X007773Y012318D01*
X007773Y012476D02*
X007773Y012476D01*
X007773Y012635D02*
X007773Y012635D01*
X007530Y012635D02*
X000660Y012635D01*
X000660Y012793D02*
X009228Y012793D01*
X009069Y012952D02*
X000660Y012952D01*
X000660Y013110D02*
X008911Y013110D01*
X008752Y013269D02*
X000660Y013269D01*
X000660Y013427D02*
X008594Y013427D01*
X008680Y013680D02*
X005430Y013680D01*
X004930Y014180D01*
X004930Y016680D01*
X004095Y017515D01*
X003930Y017515D01*
X003930Y018239D01*
X003863Y018306D01*
X003516Y018658D02*
X003433Y018658D01*
X003427Y018341D02*
X003356Y018341D01*
X003427Y018182D02*
X000660Y018182D01*
X000660Y018024D02*
X003447Y018024D01*
X003765Y017680D02*
X003930Y017515D01*
X003765Y017680D02*
X002930Y017680D01*
X002930Y017515D01*
X002553Y017548D02*
X000660Y017548D01*
X000660Y017390D02*
X002553Y017390D01*
X002574Y017231D02*
X000660Y017231D01*
X000660Y017073D02*
X002553Y017073D01*
X002553Y016914D02*
X000660Y016914D01*
X000660Y016756D02*
X002553Y016756D01*
X002553Y016597D02*
X000660Y016597D01*
X000660Y016439D02*
X002690Y016439D01*
X002524Y016280D02*
X000660Y016280D01*
X000660Y016122D02*
X002475Y016122D01*
X002475Y015963D02*
X000660Y015963D01*
X000660Y015805D02*
X002475Y015805D01*
X002475Y015646D02*
X000660Y015646D01*
X000660Y015488D02*
X002495Y015488D01*
X002611Y014966D02*
X002565Y014954D01*
X002524Y014930D01*
X002491Y014897D01*
X002467Y014856D01*
X002455Y014810D01*
X002455Y014559D01*
X002862Y014559D01*
X002862Y014423D01*
X002998Y014423D01*
X002998Y014559D01*
X002862Y014559D01*
X002862Y014966D01*
X002611Y014966D01*
X002466Y014854D02*
X000660Y014854D01*
X000660Y015012D02*
X004690Y015012D01*
X004690Y014854D02*
X003394Y014854D01*
X003393Y014856D02*
X003369Y014897D01*
X003336Y014930D01*
X003295Y014954D01*
X003249Y014966D01*
X002998Y014966D01*
X002998Y014559D01*
X003405Y014559D01*
X003405Y014810D01*
X003393Y014856D01*
X003405Y014695D02*
X004690Y014695D01*
X004690Y014537D02*
X002998Y014537D01*
X002998Y014423D02*
X003405Y014423D01*
X003405Y014172D01*
X003393Y014126D01*
X003369Y014085D01*
X003336Y014052D01*
X003295Y014028D01*
X003249Y014016D01*
X002998Y014016D01*
X002998Y014423D01*
X002998Y014378D02*
X002862Y014378D01*
X002862Y014423D02*
X002862Y014016D01*
X002611Y014016D01*
X002565Y014028D01*
X002524Y014052D01*
X002491Y014085D01*
X002467Y014126D01*
X002455Y014172D01*
X002455Y014423D01*
X002862Y014423D01*
X002862Y014537D02*
X000660Y014537D01*
X000660Y014695D02*
X002455Y014695D01*
X002455Y014378D02*
X000660Y014378D01*
X000660Y014220D02*
X002455Y014220D01*
X002515Y014061D02*
X000660Y014061D01*
X000660Y013903D02*
X004868Y013903D01*
X004720Y014061D02*
X003345Y014061D01*
X003405Y014220D02*
X004690Y014220D01*
X004690Y014378D02*
X003405Y014378D01*
X002998Y014220D02*
X002862Y014220D01*
X002862Y014061D02*
X002998Y014061D01*
X002998Y014695D02*
X002862Y014695D01*
X002862Y014854D02*
X002998Y014854D01*
X003365Y015488D02*
X004690Y015488D01*
X004690Y015646D02*
X003385Y015646D01*
X003385Y015805D02*
X004690Y015805D01*
X004690Y015963D02*
X003385Y015963D01*
X003385Y016122D02*
X004690Y016122D01*
X004690Y016280D02*
X003336Y016280D01*
X003170Y016439D02*
X004690Y016439D01*
X004674Y016597D02*
X004319Y016597D01*
X004327Y016756D02*
X004515Y016756D01*
X004357Y016914D02*
X004327Y016914D01*
X003948Y016756D02*
X003912Y016756D01*
X003912Y016827D02*
X003912Y016469D01*
X003690Y016469D01*
X003644Y016481D01*
X003603Y016504D01*
X003569Y016538D01*
X003546Y016579D01*
X003533Y016625D01*
X003533Y016827D01*
X003912Y016827D01*
X003912Y016597D02*
X003948Y016597D01*
X003541Y016597D02*
X003307Y016597D01*
X003307Y016756D02*
X003533Y016756D01*
X003533Y016914D02*
X003307Y016914D01*
X003307Y017073D02*
X003535Y017073D01*
X003574Y017231D02*
X003286Y017231D01*
X003307Y017390D02*
X003553Y017390D01*
X004307Y017707D02*
X005803Y017707D01*
X005803Y017548D02*
X004401Y017548D01*
X004560Y017390D02*
X005803Y017390D01*
X005824Y017231D02*
X004718Y017231D01*
X004877Y017073D02*
X005803Y017073D01*
X005803Y016914D02*
X005035Y016914D01*
X005158Y016756D02*
X005803Y016756D01*
X005803Y016597D02*
X005170Y016597D01*
X005170Y016439D02*
X005940Y016439D01*
X005774Y016280D02*
X005170Y016280D01*
X005170Y016122D02*
X005725Y016122D01*
X005725Y015963D02*
X005170Y015963D01*
X005170Y015805D02*
X005725Y015805D01*
X005725Y015646D02*
X005170Y015646D01*
X005170Y015488D02*
X005745Y015488D01*
X005861Y014966D02*
X005815Y014954D01*
X005774Y014930D01*
X005741Y014897D01*
X005717Y014856D01*
X005705Y014810D01*
X005705Y014559D01*
X006112Y014559D01*
X006112Y014423D01*
X006248Y014423D01*
X006248Y014559D01*
X006112Y014559D01*
X006112Y014966D01*
X005861Y014966D01*
X005716Y014854D02*
X005170Y014854D01*
X005170Y015012D02*
X007940Y015012D01*
X007940Y014854D02*
X006644Y014854D01*
X006643Y014856D02*
X006619Y014897D01*
X006586Y014930D01*
X006545Y014954D01*
X006499Y014966D01*
X006248Y014966D01*
X006248Y014559D01*
X006655Y014559D01*
X006655Y014810D01*
X006643Y014856D01*
X006655Y014695D02*
X007940Y014695D01*
X007984Y014537D02*
X006248Y014537D01*
X006248Y014423D02*
X006655Y014423D01*
X006655Y014172D01*
X006643Y014126D01*
X006619Y014085D01*
X006586Y014052D01*
X006545Y014028D01*
X006499Y014016D01*
X006248Y014016D01*
X006248Y014423D01*
X006248Y014378D02*
X006112Y014378D01*
X006112Y014423D02*
X006112Y014016D01*
X005861Y014016D01*
X005815Y014028D01*
X005774Y014052D01*
X005741Y014085D01*
X005717Y014126D01*
X005705Y014172D01*
X005705Y014423D01*
X006112Y014423D01*
X006112Y014537D02*
X005170Y014537D01*
X005170Y014695D02*
X005705Y014695D01*
X005705Y014378D02*
X005170Y014378D01*
X005230Y014220D02*
X005705Y014220D01*
X005765Y014061D02*
X005388Y014061D01*
X005027Y013744D02*
X000660Y013744D01*
X000660Y013586D02*
X005185Y013586D01*
X006112Y014061D02*
X006248Y014061D01*
X006248Y014220D02*
X006112Y014220D01*
X006112Y014695D02*
X006248Y014695D01*
X006248Y014854D02*
X006112Y014854D01*
X006655Y014378D02*
X008143Y014378D01*
X008301Y014220D02*
X006655Y014220D01*
X006595Y014061D02*
X008460Y014061D01*
X008821Y014378D02*
X008955Y014378D01*
X008955Y014559D02*
X009362Y014559D01*
X009362Y014423D01*
X009498Y014423D01*
X009498Y014559D01*
X009362Y014559D01*
X009362Y014966D01*
X009111Y014966D01*
X009065Y014954D01*
X009024Y014930D01*
X008991Y014897D01*
X008967Y014856D01*
X008955Y014810D01*
X008955Y014559D01*
X008955Y014695D02*
X008504Y014695D01*
X008420Y014854D02*
X008966Y014854D01*
X009362Y014854D02*
X009498Y014854D01*
X009498Y014966D02*
X009498Y014559D01*
X009905Y014559D01*
X009905Y014810D01*
X009893Y014856D01*
X009869Y014897D01*
X009836Y014930D01*
X009795Y014954D01*
X009749Y014966D01*
X009498Y014966D01*
X009498Y014695D02*
X009362Y014695D01*
X009362Y014537D02*
X008663Y014537D01*
X008180Y014680D02*
X008180Y016680D01*
X007345Y017515D01*
X007180Y017515D01*
X007180Y018239D01*
X007113Y018306D01*
X007460Y018658D02*
X007802Y018658D01*
X007846Y018499D02*
X007549Y018499D01*
X007549Y018341D02*
X008012Y018341D01*
X008348Y018341D02*
X009138Y018341D01*
X009061Y018499D02*
X008514Y018499D01*
X008558Y018658D02*
X009061Y018658D01*
X009061Y018816D02*
X008533Y018816D01*
X008420Y018975D02*
X009093Y018975D01*
X009257Y019133D02*
X008066Y019133D01*
X007860Y019292D02*
X009257Y019292D01*
X009257Y019450D02*
X006487Y019450D01*
X006487Y019292D02*
X006677Y019292D01*
X006677Y019133D02*
X006487Y019133D01*
X006651Y018975D02*
X006677Y018975D01*
X006683Y018658D02*
X006766Y018658D01*
X006677Y018341D02*
X006606Y018341D01*
X006677Y018182D02*
X004299Y018182D01*
X004299Y018341D02*
X004762Y018341D01*
X004596Y018499D02*
X004299Y018499D01*
X004210Y018658D02*
X004552Y018658D01*
X004930Y018680D02*
X004556Y019054D01*
X003863Y019054D01*
X003427Y019133D02*
X003237Y019133D01*
X003237Y019292D02*
X003427Y019292D01*
X003237Y019450D02*
X006007Y019450D01*
X006007Y019292D02*
X004610Y019292D01*
X004816Y019133D02*
X006007Y019133D01*
X005843Y018975D02*
X005170Y018975D01*
X005283Y018816D02*
X005811Y018816D01*
X005811Y018658D02*
X005308Y018658D01*
X005264Y018499D02*
X005811Y018499D01*
X005888Y018341D02*
X005098Y018341D01*
X004279Y018024D02*
X006697Y018024D01*
X006345Y017680D02*
X007180Y017680D01*
X007180Y017515D01*
X006803Y017390D02*
X006557Y017390D01*
X006536Y017231D02*
X006824Y017231D01*
X006785Y017073D02*
X006557Y017073D01*
X006557Y016914D02*
X006783Y016914D01*
X006783Y016827D02*
X006783Y016625D01*
X006796Y016579D01*
X006819Y016538D01*
X006853Y016504D01*
X006894Y016481D01*
X006940Y016469D01*
X007162Y016469D01*
X007162Y016827D01*
X006783Y016827D01*
X006783Y016756D02*
X006557Y016756D01*
X006557Y016597D02*
X006791Y016597D01*
X006586Y016280D02*
X007940Y016280D01*
X007940Y016122D02*
X006635Y016122D01*
X006635Y015963D02*
X007940Y015963D01*
X007940Y015805D02*
X006635Y015805D01*
X006635Y015646D02*
X007940Y015646D01*
X007940Y015488D02*
X006615Y015488D01*
X006180Y015869D02*
X006180Y016845D01*
X006420Y016439D02*
X007940Y016439D01*
X007924Y016597D02*
X007569Y016597D01*
X007577Y016756D02*
X007765Y016756D01*
X007607Y016914D02*
X007577Y016914D01*
X007198Y016756D02*
X007162Y016756D01*
X007162Y016597D02*
X007198Y016597D01*
X007968Y017231D02*
X009074Y017231D01*
X009053Y017073D02*
X008127Y017073D01*
X008285Y016914D02*
X009053Y016914D01*
X009053Y016756D02*
X008408Y016756D01*
X008420Y016597D02*
X009053Y016597D01*
X009190Y016439D02*
X008420Y016439D01*
X008420Y016280D02*
X009024Y016280D01*
X008975Y016122D02*
X008420Y016122D01*
X008420Y015963D02*
X008975Y015963D01*
X008975Y015805D02*
X008420Y015805D01*
X008420Y015646D02*
X008975Y015646D01*
X008995Y015488D02*
X008420Y015488D01*
X008420Y015329D02*
X010940Y015329D01*
X010940Y015171D02*
X008420Y015171D01*
X008420Y015012D02*
X010940Y015012D01*
X010940Y014854D02*
X009894Y014854D01*
X009905Y014695D02*
X010940Y014695D01*
X010940Y014537D02*
X009498Y014537D01*
X009498Y014423D02*
X009905Y014423D01*
X009905Y014172D01*
X009893Y014126D01*
X009869Y014085D01*
X009836Y014052D01*
X009795Y014028D01*
X009749Y014016D01*
X009498Y014016D01*
X009498Y014423D01*
X009498Y014378D02*
X009362Y014378D01*
X009362Y014220D02*
X009498Y014220D01*
X009498Y014061D02*
X009362Y014061D01*
X009297Y013903D02*
X010563Y013903D01*
X010722Y014061D02*
X009845Y014061D01*
X009905Y014220D02*
X010880Y014220D01*
X010940Y014378D02*
X009905Y014378D01*
X009455Y013744D02*
X010405Y013744D01*
X010246Y013586D02*
X009614Y013586D01*
X009772Y013427D02*
X010088Y013427D01*
X010070Y013070D02*
X010076Y013070D01*
X010076Y012322D01*
X009820Y012322D02*
X009820Y013052D01*
X009808Y013052D01*
X008180Y014680D01*
X007940Y015171D02*
X005170Y015171D01*
X005170Y015329D02*
X007940Y015329D01*
X009430Y015869D02*
X009430Y016845D01*
X009807Y016914D02*
X010033Y016914D01*
X010033Y016827D02*
X010033Y016625D01*
X010046Y016579D01*
X010069Y016538D01*
X010103Y016504D01*
X010144Y016481D01*
X010190Y016469D01*
X010412Y016469D01*
X010412Y016827D01*
X010033Y016827D01*
X010033Y016756D02*
X009807Y016756D01*
X009807Y016597D02*
X010041Y016597D01*
X009836Y016280D02*
X010940Y016280D01*
X010940Y016122D02*
X009885Y016122D01*
X009885Y015963D02*
X010940Y015963D01*
X010940Y015805D02*
X009885Y015805D01*
X009885Y015646D02*
X010940Y015646D01*
X010940Y015488D02*
X009865Y015488D01*
X009670Y016439D02*
X010940Y016439D01*
X010940Y016597D02*
X010819Y016597D01*
X010827Y016756D02*
X010940Y016756D01*
X010857Y016914D02*
X010827Y016914D01*
X010448Y016756D02*
X010412Y016756D01*
X010412Y016597D02*
X010448Y016597D01*
X010035Y017073D02*
X009807Y017073D01*
X009786Y017231D02*
X010074Y017231D01*
X010053Y017390D02*
X009807Y017390D01*
X009595Y017680D02*
X010430Y017680D01*
X009947Y018024D02*
X007529Y018024D01*
X007549Y018182D02*
X009927Y018182D01*
X009927Y018341D02*
X009856Y018341D01*
X009933Y018658D02*
X010016Y018658D01*
X009927Y018975D02*
X009901Y018975D01*
X009497Y018680D02*
X009497Y020112D01*
X009645Y020260D01*
X009761Y020376D01*
X009682Y021430D01*
X010064Y021035D02*
X010796Y021035D01*
X010742Y021194D02*
X010118Y021194D01*
X010118Y021352D02*
X010742Y021352D01*
X010742Y021511D02*
X010118Y021511D01*
X010118Y021669D02*
X010742Y021669D01*
X010798Y021828D02*
X010062Y021828D01*
X009302Y021828D02*
X008308Y021828D01*
X008270Y021866D02*
X007586Y021866D01*
X007492Y021772D01*
X007492Y021088D01*
X007586Y020994D01*
X007645Y020994D01*
X007645Y020945D01*
X007374Y020945D01*
X007280Y020851D01*
X007280Y019669D01*
X007374Y019575D01*
X008556Y019575D01*
X008650Y019669D01*
X008650Y020851D01*
X008556Y020945D01*
X008285Y020945D01*
X008285Y021010D01*
X008364Y021088D01*
X008364Y021772D01*
X008270Y021866D01*
X008364Y021669D02*
X009246Y021669D01*
X009246Y021511D02*
X008364Y021511D01*
X008364Y021352D02*
X009246Y021352D01*
X009246Y021194D02*
X008364Y021194D01*
X008311Y021035D02*
X009299Y021035D01*
X008985Y020877D02*
X008625Y020877D01*
X008650Y020718D02*
X008960Y020718D01*
X008960Y020560D02*
X008650Y020560D01*
X008650Y020401D02*
X008960Y020401D01*
X008960Y020243D02*
X008650Y020243D01*
X008650Y020084D02*
X008960Y020084D01*
X008960Y019926D02*
X008650Y019926D01*
X008650Y019767D02*
X008960Y019767D01*
X009020Y019609D02*
X008590Y019609D01*
X007806Y019054D02*
X008180Y018680D01*
X007806Y019054D02*
X007113Y019054D01*
X007020Y019609D02*
X007340Y019609D01*
X007280Y019767D02*
X007080Y019767D01*
X007080Y019926D02*
X007280Y019926D01*
X007280Y020084D02*
X007080Y020084D01*
X007080Y020243D02*
X007280Y020243D01*
X007280Y020401D02*
X007080Y020401D01*
X007080Y020560D02*
X007280Y020560D01*
X007280Y020718D02*
X007080Y020718D01*
X007055Y020877D02*
X007305Y020877D01*
X007546Y021035D02*
X006814Y021035D01*
X006868Y021194D02*
X007492Y021194D01*
X007492Y021352D02*
X006868Y021352D01*
X006868Y021511D02*
X007492Y021511D01*
X007492Y021669D02*
X006868Y021669D01*
X006812Y021828D02*
X007548Y021828D01*
X006432Y021430D02*
X006511Y020376D01*
X006395Y020260D01*
X006247Y020112D01*
X006247Y018680D01*
X005891Y017865D02*
X004219Y017865D01*
X003427Y018975D02*
X003401Y018975D01*
X002997Y018680D02*
X002997Y020112D01*
X003145Y020260D01*
X003261Y020376D01*
X003182Y021430D01*
X003618Y021352D02*
X004242Y021352D01*
X004242Y021194D02*
X003618Y021194D01*
X003564Y021035D02*
X004296Y021035D01*
X004336Y020994D02*
X004242Y021088D01*
X004242Y021772D01*
X004336Y021866D01*
X005020Y021866D01*
X005114Y021772D01*
X005114Y021088D01*
X005035Y021010D01*
X005035Y020945D01*
X005306Y020945D01*
X005400Y020851D01*
X005400Y019669D01*
X005306Y019575D01*
X004124Y019575D01*
X004030Y019669D01*
X004030Y020851D01*
X004124Y020945D01*
X004395Y020945D01*
X004395Y020994D01*
X004336Y020994D01*
X004055Y020877D02*
X003805Y020877D01*
X003830Y020718D02*
X004030Y020718D01*
X004030Y020560D02*
X003830Y020560D01*
X003830Y020401D02*
X004030Y020401D01*
X004030Y020243D02*
X003830Y020243D01*
X003830Y020084D02*
X004030Y020084D01*
X004030Y019926D02*
X003830Y019926D01*
X003830Y019767D02*
X004030Y019767D01*
X004090Y019609D02*
X003770Y019609D01*
X002757Y019450D02*
X000660Y019450D01*
X000660Y019292D02*
X002757Y019292D01*
X002757Y019133D02*
X000660Y019133D01*
X000660Y018975D02*
X002593Y018975D01*
X002561Y018816D02*
X000660Y018816D01*
X000660Y018658D02*
X002561Y018658D01*
X002561Y018499D02*
X000660Y018499D01*
X000660Y018341D02*
X002638Y018341D01*
X002641Y017865D02*
X000660Y017865D01*
X000660Y017707D02*
X002553Y017707D01*
X002930Y016845D02*
X002930Y015869D01*
X004690Y015329D02*
X000660Y015329D01*
X000660Y015171D02*
X004690Y015171D01*
X006180Y017515D02*
X006345Y017680D01*
X007469Y017865D02*
X009141Y017865D01*
X009053Y017707D02*
X007557Y017707D01*
X007651Y017548D02*
X009053Y017548D01*
X009053Y017390D02*
X007810Y017390D01*
X009430Y017515D02*
X009595Y017680D01*
X010270Y019609D02*
X010590Y019609D01*
X010530Y019767D02*
X010330Y019767D01*
X010330Y019926D02*
X010530Y019926D01*
X010530Y020084D02*
X010330Y020084D01*
X010330Y020243D02*
X010530Y020243D01*
X010530Y020401D02*
X010330Y020401D01*
X010330Y020560D02*
X010530Y020560D01*
X010530Y020718D02*
X010330Y020718D01*
X010305Y020877D02*
X010555Y020877D01*
X012253Y016914D02*
X012303Y016914D01*
X012303Y016756D02*
X012095Y016756D01*
X011936Y016597D02*
X012303Y016597D01*
X012440Y016439D02*
X011920Y016439D01*
X011920Y016280D02*
X012274Y016280D01*
X012225Y016122D02*
X011920Y016122D01*
X011920Y015963D02*
X012225Y015963D01*
X012225Y015805D02*
X011920Y015805D01*
X011920Y015646D02*
X012225Y015646D01*
X012245Y015488D02*
X011920Y015488D01*
X011920Y015329D02*
X014690Y015329D01*
X014690Y015171D02*
X011920Y015171D01*
X011920Y015012D02*
X014673Y015012D01*
X014514Y014854D02*
X013144Y014854D01*
X013143Y014856D02*
X013119Y014897D01*
X013086Y014930D01*
X013045Y014954D01*
X012999Y014966D01*
X012748Y014966D01*
X012748Y014559D01*
X012612Y014559D01*
X012612Y014423D01*
X012748Y014423D01*
X012748Y014559D01*
X013155Y014559D01*
X013155Y014810D01*
X013143Y014856D01*
X013155Y014695D02*
X014356Y014695D01*
X014197Y014537D02*
X012748Y014537D01*
X012748Y014423D02*
X013155Y014423D01*
X013155Y014172D01*
X013143Y014126D01*
X013119Y014085D01*
X013086Y014052D01*
X013045Y014028D01*
X012999Y014016D01*
X012748Y014016D01*
X012748Y014423D01*
X012748Y014378D02*
X012612Y014378D01*
X012612Y014423D02*
X012612Y014016D01*
X012361Y014016D01*
X012315Y014028D01*
X012274Y014052D01*
X012241Y014085D01*
X012217Y014126D01*
X012205Y014172D01*
X012205Y014423D01*
X012612Y014423D01*
X012612Y014537D02*
X011920Y014537D01*
X011920Y014695D02*
X012205Y014695D01*
X012205Y014810D02*
X012205Y014559D01*
X012612Y014559D01*
X012612Y014966D01*
X012361Y014966D01*
X012315Y014954D01*
X012274Y014930D01*
X012241Y014897D01*
X012217Y014856D01*
X012205Y014810D01*
X012216Y014854D02*
X011920Y014854D01*
X011920Y014378D02*
X012205Y014378D01*
X012205Y014220D02*
X011920Y014220D01*
X011890Y014061D02*
X012265Y014061D01*
X012612Y014061D02*
X012748Y014061D01*
X012748Y014220D02*
X012612Y014220D01*
X012612Y014695D02*
X012748Y014695D01*
X012748Y014854D02*
X012612Y014854D01*
X013155Y014378D02*
X014039Y014378D01*
X013880Y014220D02*
X013155Y014220D01*
X013095Y014061D02*
X013722Y014061D01*
X014083Y013744D02*
X016405Y013744D01*
X016440Y013903D02*
X014242Y013903D01*
X014400Y014061D02*
X015515Y014061D01*
X015524Y014052D02*
X015565Y014028D01*
X015611Y014016D01*
X015862Y014016D01*
X015862Y014423D01*
X015998Y014423D01*
X015998Y014559D01*
X015862Y014559D01*
X015862Y014423D01*
X015455Y014423D01*
X015455Y014172D01*
X015467Y014126D01*
X015491Y014085D01*
X015524Y014052D01*
X015455Y014220D02*
X014559Y014220D01*
X014717Y014378D02*
X015455Y014378D01*
X015455Y014559D02*
X015862Y014559D01*
X015862Y014966D01*
X015611Y014966D01*
X015565Y014954D01*
X015524Y014930D01*
X015491Y014897D01*
X015467Y014856D01*
X015455Y014810D01*
X015455Y014559D01*
X015455Y014695D02*
X015034Y014695D01*
X015158Y014854D02*
X015466Y014854D01*
X015862Y014854D02*
X015998Y014854D01*
X015998Y014966D02*
X015998Y014559D01*
X016405Y014559D01*
X016405Y014810D01*
X016393Y014856D01*
X016369Y014897D01*
X016336Y014930D01*
X016295Y014954D01*
X016249Y014966D01*
X015998Y014966D01*
X015998Y014695D02*
X015862Y014695D01*
X015862Y014537D02*
X014876Y014537D01*
X015170Y015012D02*
X016440Y015012D01*
X016440Y014854D02*
X016394Y014854D01*
X016405Y014695D02*
X016440Y014695D01*
X016440Y014537D02*
X015998Y014537D01*
X015998Y014423D02*
X016405Y014423D01*
X016405Y014172D01*
X016393Y014126D01*
X016369Y014085D01*
X016336Y014052D01*
X016295Y014028D01*
X016249Y014016D01*
X015998Y014016D01*
X015998Y014423D01*
X015998Y014378D02*
X015862Y014378D01*
X015862Y014220D02*
X015998Y014220D01*
X015998Y014061D02*
X015862Y014061D01*
X016345Y014061D02*
X016440Y014061D01*
X016440Y014220D02*
X016405Y014220D01*
X016405Y014378D02*
X016440Y014378D01*
X016920Y014378D02*
X016940Y014378D01*
X016940Y014220D02*
X016920Y014220D01*
X016920Y014061D02*
X016940Y014061D01*
X016940Y013903D02*
X016920Y013903D01*
X016920Y013744D02*
X016940Y013744D01*
X016940Y013586D02*
X016901Y013586D01*
X016940Y013427D02*
X016766Y013427D01*
X016608Y013269D02*
X016940Y013269D01*
X016940Y013110D02*
X016449Y013110D01*
X016256Y012952D02*
X016940Y012952D01*
X016940Y012793D02*
X014118Y012793D01*
X014208Y012635D02*
X016940Y012635D01*
X016940Y012476D02*
X014208Y012476D01*
X014208Y012318D02*
X016940Y012318D01*
X016940Y012159D02*
X014208Y012159D01*
X014208Y012001D02*
X016911Y012001D01*
X016753Y011842D02*
X014208Y011842D01*
X014187Y011684D02*
X016594Y011684D01*
X016436Y011525D02*
X013114Y011525D01*
X012956Y011367D02*
X013527Y011367D01*
X013369Y011208D02*
X012771Y011208D01*
X012890Y011050D02*
X013220Y011050D01*
X013190Y010891D02*
X012968Y010891D01*
X013131Y010733D02*
X013190Y010733D01*
X012930Y010430D02*
X012930Y010156D01*
X012930Y010430D02*
X012680Y010930D01*
X008430Y010930D01*
X008028Y011332D01*
X008028Y012322D01*
X008284Y012322D02*
X008284Y011826D01*
X008680Y011430D01*
X012680Y011430D01*
X012930Y011680D01*
X012930Y012204D01*
X012430Y012204D02*
X012430Y012930D01*
X012180Y013180D01*
X012467Y013427D02*
X016088Y013427D01*
X016246Y013586D02*
X013925Y013586D01*
X013680Y013180D02*
X016180Y013180D01*
X016680Y013680D01*
X016680Y015430D01*
X017680Y016430D01*
X017508Y016597D02*
X017319Y016597D01*
X017349Y016439D02*
X016170Y016439D01*
X016307Y016597D02*
X016541Y016597D01*
X016546Y016579D02*
X016569Y016538D01*
X016603Y016504D01*
X016644Y016481D01*
X016690Y016469D01*
X016912Y016469D01*
X016912Y016827D01*
X016533Y016827D01*
X016533Y016625D01*
X016546Y016579D01*
X016533Y016756D02*
X016307Y016756D01*
X016307Y016914D02*
X016533Y016914D01*
X016535Y017073D02*
X016307Y017073D01*
X016286Y017231D02*
X016574Y017231D01*
X016553Y017390D02*
X016307Y017390D01*
X016930Y017515D02*
X017015Y017680D01*
X016930Y017680D01*
X016912Y016756D02*
X016948Y016756D01*
X016948Y016597D02*
X016912Y016597D01*
X017191Y016280D02*
X016336Y016280D01*
X016385Y016122D02*
X017032Y016122D01*
X016874Y015963D02*
X016385Y015963D01*
X016385Y015805D02*
X016715Y015805D01*
X016557Y015646D02*
X016385Y015646D01*
X016365Y015488D02*
X016444Y015488D01*
X016440Y015329D02*
X015170Y015329D01*
X015170Y015171D02*
X016440Y015171D01*
X016920Y015171D02*
X017331Y015171D01*
X017490Y015329D02*
X016920Y015329D01*
X017077Y015488D02*
X017648Y015488D01*
X017824Y015646D02*
X017235Y015646D01*
X017173Y015012D02*
X016920Y015012D01*
X016920Y014854D02*
X017014Y014854D01*
X016940Y014695D02*
X016920Y014695D01*
X016920Y014537D02*
X016940Y014537D01*
X017420Y014537D02*
X017947Y014537D01*
X017789Y014378D02*
X017420Y014378D01*
X017420Y014220D02*
X017630Y014220D01*
X017474Y014061D02*
X017420Y014061D01*
X017420Y013903D02*
X017440Y013903D01*
X017440Y013744D02*
X017420Y013744D01*
X017420Y013586D02*
X017440Y013586D01*
X017440Y013427D02*
X017420Y013427D01*
X017420Y013269D02*
X017440Y013269D01*
X017440Y013110D02*
X017420Y013110D01*
X017420Y012952D02*
X017440Y012952D01*
X017440Y012793D02*
X017420Y012793D01*
X017420Y012635D02*
X017440Y012635D01*
X017440Y012476D02*
X017420Y012476D01*
X017420Y012318D02*
X017440Y012318D01*
X017440Y012159D02*
X017420Y012159D01*
X017420Y012001D02*
X017440Y012001D01*
X017440Y011842D02*
X017403Y011842D01*
X017344Y011684D02*
X017273Y011684D01*
X017186Y011525D02*
X017114Y011525D01*
X017027Y011367D02*
X016956Y011367D01*
X016869Y011208D02*
X016797Y011208D01*
X016710Y011050D02*
X016639Y011050D01*
X017085Y010733D02*
X019940Y010733D01*
X019940Y010891D02*
X017230Y010891D01*
X017389Y011050D02*
X019940Y011050D01*
X019940Y011208D02*
X017547Y011208D01*
X017706Y011367D02*
X019940Y011367D01*
X019940Y011525D02*
X017864Y011525D01*
X017920Y011684D02*
X019940Y011684D01*
X019940Y011842D02*
X017920Y011842D01*
X017920Y012001D02*
X019940Y012001D01*
X019940Y012159D02*
X017920Y012159D01*
X017920Y012318D02*
X019940Y012318D01*
X019940Y012476D02*
X017920Y012476D01*
X017920Y012635D02*
X019940Y012635D01*
X019940Y012793D02*
X017920Y012793D01*
X017920Y012952D02*
X019940Y012952D01*
X019940Y013110D02*
X017920Y013110D01*
X017920Y013269D02*
X019940Y013269D01*
X019940Y013427D02*
X017920Y013427D01*
X017920Y013586D02*
X019940Y013586D01*
X019940Y013744D02*
X017920Y013744D01*
X017992Y013903D02*
X019940Y013903D01*
X019940Y014061D02*
X019512Y014061D01*
X019641Y014220D02*
X019940Y014220D01*
X019940Y014378D02*
X019690Y014378D01*
X019684Y014537D02*
X019940Y014537D01*
X019940Y014695D02*
X019616Y014695D01*
X019410Y014854D02*
X019940Y014854D01*
X019940Y015012D02*
X019423Y015012D01*
X019620Y015171D02*
X019940Y015171D01*
X019940Y015329D02*
X019686Y015329D01*
X019690Y015488D02*
X019940Y015488D01*
X019940Y015646D02*
X019638Y015646D01*
X018930Y015430D02*
X017930Y015430D01*
X018244Y014695D02*
X017534Y014695D01*
X018150Y014061D02*
X018348Y014061D01*
X015930Y015869D02*
X015930Y016845D01*
X015553Y016914D02*
X015503Y016914D01*
X015553Y016756D02*
X015345Y016756D01*
X015186Y016597D02*
X015553Y016597D01*
X015690Y016439D02*
X015170Y016439D01*
X015170Y016280D02*
X015524Y016280D01*
X015475Y016122D02*
X015170Y016122D01*
X015170Y015963D02*
X015475Y015963D01*
X015475Y015805D02*
X015170Y015805D01*
X015170Y015646D02*
X015475Y015646D01*
X015495Y015488D02*
X015170Y015488D01*
X014690Y015488D02*
X013115Y015488D01*
X013135Y015646D02*
X014690Y015646D01*
X014690Y015805D02*
X013135Y015805D01*
X013135Y015963D02*
X014690Y015963D01*
X014690Y016122D02*
X013135Y016122D01*
X013086Y016280D02*
X014690Y016280D01*
X014690Y016439D02*
X012920Y016439D01*
X013057Y016597D02*
X013291Y016597D01*
X012680Y016845D02*
X012680Y015869D01*
X011180Y014180D02*
X010070Y013070D01*
X009564Y012814D02*
X009564Y012322D01*
X009546Y012814D02*
X009564Y012814D01*
X009546Y012814D02*
X008680Y013680D01*
X008540Y012738D02*
X008540Y012322D01*
X008540Y012738D01*
X008540Y012635D02*
X008540Y012635D01*
X008540Y012476D02*
X008540Y012476D01*
X008540Y012322D02*
X008540Y012322D01*
X007773Y012159D02*
X007773Y012159D01*
X007773Y012001D02*
X007773Y012001D01*
X007788Y011842D02*
X000660Y011842D01*
X000660Y011684D02*
X007788Y011684D01*
X007788Y011525D02*
X000660Y011525D01*
X000660Y011367D02*
X007788Y011367D01*
X007820Y011208D02*
X000660Y011208D01*
X000660Y011050D02*
X007971Y011050D01*
X008130Y010891D02*
X000660Y010891D01*
X000660Y010733D02*
X008288Y010733D01*
X008284Y010454D02*
X008284Y010309D01*
X008284Y010309D01*
X008284Y010454D01*
X008284Y010416D02*
X008284Y010416D01*
X008028Y010416D02*
X008028Y010416D01*
X008028Y010454D02*
X008028Y010309D01*
X008028Y010309D01*
X008028Y010454D01*
X008284Y009768D02*
X008284Y009768D01*
X008400Y008989D02*
X000660Y008989D01*
X000660Y008831D02*
X008241Y008831D01*
X008083Y008672D02*
X000660Y008672D01*
X000660Y008514D02*
X007924Y008514D01*
X007766Y008355D02*
X000660Y008355D01*
X000660Y008197D02*
X007607Y008197D01*
X007449Y008038D02*
X000660Y008038D01*
X000660Y007880D02*
X005290Y007880D01*
X005132Y007721D02*
X000660Y007721D01*
X000660Y007563D02*
X004973Y007563D01*
X004815Y007404D02*
X004443Y007404D01*
X004594Y007246D02*
X004697Y007246D01*
X004690Y007087D02*
X004594Y007087D01*
X004690Y006929D02*
X004187Y006929D01*
X004051Y006929D02*
X003196Y006929D01*
X003196Y007087D02*
X003644Y007087D01*
X003644Y007246D02*
X003196Y007246D01*
X003196Y006770D02*
X003644Y006770D01*
X003613Y006612D02*
X003223Y006612D01*
X003307Y006453D02*
X003533Y006453D01*
X003533Y006295D02*
X003307Y006295D01*
X003307Y006136D02*
X003533Y006136D01*
X003558Y005978D02*
X003283Y005978D01*
X003307Y005819D02*
X003553Y005819D01*
X003930Y005595D02*
X004095Y005595D01*
X004930Y006430D01*
X004930Y007180D01*
X005430Y007680D01*
X007430Y007680D01*
X009290Y009540D01*
X009308Y009540D01*
X009308Y010038D01*
X008589Y011208D02*
X008491Y011208D01*
X008404Y011367D02*
X008333Y011367D01*
X007535Y012001D02*
X000660Y012001D01*
X000660Y012159D02*
X007514Y012159D01*
X007514Y012318D02*
X000660Y012318D01*
X000660Y012476D02*
X007514Y012476D01*
X010632Y012793D02*
X010719Y012793D01*
X010791Y012952D02*
X010878Y012952D01*
X010949Y013110D02*
X011036Y013110D01*
X011108Y013269D02*
X011195Y013269D01*
X011266Y013427D02*
X011353Y013427D01*
X011425Y013586D02*
X011512Y013586D01*
X011583Y013744D02*
X011670Y013744D01*
X011742Y013903D02*
X011856Y013903D01*
X012552Y013269D02*
X013429Y013269D01*
X013271Y013110D02*
X012589Y013110D01*
X012670Y012952D02*
X013190Y012952D01*
X013190Y012793D02*
X013118Y012793D01*
X012742Y012793D02*
X012670Y012793D01*
X013430Y012930D02*
X013430Y012204D01*
X013670Y012793D02*
X013742Y012793D01*
X013430Y012930D02*
X013680Y013180D01*
X011690Y010416D02*
X011479Y010416D01*
X011557Y010257D02*
X011690Y010257D01*
X011690Y010099D02*
X011555Y010099D01*
X012674Y009623D02*
X012686Y009623D01*
X013174Y009623D02*
X013186Y009623D01*
X013930Y009623D02*
X013930Y009623D01*
X013930Y009782D02*
X013930Y009782D01*
X013930Y009940D02*
X013930Y009940D01*
X014920Y007404D02*
X016795Y007404D01*
X016644Y007246D02*
X016196Y007246D01*
X016196Y007087D02*
X016644Y007087D01*
X017051Y007087D02*
X017187Y007087D01*
X017187Y006929D02*
X020692Y006929D01*
X019918Y010257D02*
X017085Y010257D01*
X017085Y010416D02*
X019940Y010416D01*
X019940Y010574D02*
X017085Y010574D01*
X017051Y007404D02*
X017187Y007404D01*
X017187Y007246D02*
X017051Y007246D01*
X017051Y006929D02*
X016196Y006929D01*
X016196Y006770D02*
X016644Y006770D01*
X016613Y006612D02*
X016223Y006612D01*
X016307Y006453D02*
X016533Y006453D01*
X016533Y006295D02*
X016307Y006295D01*
X016307Y006136D02*
X016533Y006136D01*
X016558Y005978D02*
X016283Y005978D01*
X016307Y005819D02*
X016553Y005819D01*
X016930Y005595D02*
X016930Y005430D01*
X016930Y006265D02*
X016930Y006619D01*
X017119Y006930D01*
X015930Y006265D02*
X015741Y006930D01*
X015286Y006929D02*
X014920Y006929D01*
X014920Y007087D02*
X015286Y007087D01*
X015286Y007246D02*
X014920Y007246D01*
X014920Y006770D02*
X015286Y006770D01*
X015286Y006612D02*
X014920Y006612D01*
X014996Y006453D02*
X015553Y006453D01*
X015553Y006295D02*
X015155Y006295D01*
X015313Y006136D02*
X015553Y006136D01*
X015577Y005978D02*
X015472Y005978D01*
X012327Y005978D02*
X011972Y005978D01*
X011920Y006136D02*
X012303Y006136D01*
X012303Y006295D02*
X011920Y006295D01*
X011920Y006453D02*
X012303Y006453D01*
X012036Y006612D02*
X011920Y006612D01*
X011920Y006770D02*
X012036Y006770D01*
X010940Y006455D02*
X010940Y006029D01*
X010788Y005877D01*
X010747Y005918D01*
X010757Y005924D01*
X010791Y005957D01*
X010814Y005998D01*
X010827Y006044D01*
X010827Y006246D01*
X010448Y006246D01*
X010448Y006283D01*
X010827Y006283D01*
X010827Y006455D01*
X010938Y006455D01*
X010940Y006455D01*
X010940Y006453D02*
X010827Y006453D01*
X010827Y006295D02*
X010940Y006295D01*
X010940Y006136D02*
X010827Y006136D01*
X010802Y005978D02*
X010888Y005978D01*
X010236Y003535D02*
X009054Y003535D01*
X008960Y003441D01*
X008960Y002259D01*
X009054Y002165D01*
X009397Y002165D01*
X009394Y002116D01*
X009340Y002116D01*
X009246Y002022D01*
X009246Y001338D01*
X009340Y001244D01*
X010024Y001244D01*
X010118Y001338D01*
X010118Y002022D01*
X010035Y002105D01*
X010039Y002165D01*
X010236Y002165D01*
X010330Y002259D01*
X010330Y003441D01*
X010236Y003535D01*
X010330Y003442D02*
X010530Y003442D01*
X010530Y003283D02*
X010330Y003283D01*
X010330Y003125D02*
X010530Y003125D01*
X010530Y002966D02*
X010330Y002966D01*
X010330Y002808D02*
X010530Y002808D01*
X010530Y002649D02*
X010330Y002649D01*
X010330Y002491D02*
X010530Y002491D01*
X010530Y002332D02*
X010330Y002332D01*
X010245Y002174D02*
X010615Y002174D01*
X010742Y002015D02*
X010118Y002015D01*
X010118Y001857D02*
X010742Y001857D01*
X010742Y001698D02*
X010118Y001698D01*
X010118Y001540D02*
X010742Y001540D01*
X010742Y001381D02*
X010118Y001381D01*
X009246Y001381D02*
X008364Y001381D01*
X008364Y001540D02*
X009246Y001540D01*
X009246Y001698D02*
X008364Y001698D01*
X008364Y001857D02*
X009246Y001857D01*
X009246Y002015D02*
X008364Y002015D01*
X008565Y002174D02*
X009045Y002174D01*
X008960Y002332D02*
X008650Y002332D01*
X008650Y002491D02*
X008960Y002491D01*
X008960Y002649D02*
X008650Y002649D01*
X008650Y002808D02*
X008960Y002808D01*
X008960Y002966D02*
X008650Y002966D01*
X008650Y003125D02*
X008960Y003125D01*
X008960Y003283D02*
X008650Y003283D01*
X008650Y003442D02*
X008960Y003442D01*
X008113Y002998D02*
X008113Y004430D01*
X007280Y003442D02*
X007080Y003442D01*
X007080Y003441D02*
X006986Y003535D01*
X005804Y003535D01*
X005710Y003441D01*
X005710Y002259D01*
X005804Y002165D01*
X006147Y002165D01*
X006144Y002116D01*
X006090Y002116D01*
X005996Y002022D01*
X005996Y001338D01*
X006090Y001244D01*
X006774Y001244D01*
X006868Y001338D01*
X006868Y002022D01*
X006785Y002105D01*
X006789Y002165D01*
X006986Y002165D01*
X007080Y002259D01*
X007080Y003441D01*
X007080Y003283D02*
X007280Y003283D01*
X007280Y003125D02*
X007080Y003125D01*
X007080Y002966D02*
X007280Y002966D01*
X007280Y002808D02*
X007080Y002808D01*
X007080Y002649D02*
X007280Y002649D01*
X007280Y002491D02*
X007080Y002491D01*
X007080Y002332D02*
X007280Y002332D01*
X007365Y002174D02*
X006995Y002174D01*
X006868Y002015D02*
X007492Y002015D01*
X007492Y001857D02*
X006868Y001857D01*
X006868Y001698D02*
X007492Y001698D01*
X007492Y001540D02*
X006868Y001540D01*
X006868Y001381D02*
X007492Y001381D01*
X007928Y001680D02*
X007849Y002734D01*
X007965Y002850D01*
X008113Y002998D01*
X005996Y002015D02*
X005114Y002015D01*
X005114Y001857D02*
X005996Y001857D01*
X005996Y001698D02*
X005114Y001698D01*
X005114Y001540D02*
X005996Y001540D01*
X005996Y001381D02*
X005114Y001381D01*
X005315Y002174D02*
X005795Y002174D01*
X005710Y002332D02*
X005400Y002332D01*
X005400Y002491D02*
X005710Y002491D01*
X005710Y002649D02*
X005400Y002649D01*
X005400Y002808D02*
X005710Y002808D01*
X005710Y002966D02*
X005400Y002966D01*
X005400Y003125D02*
X005710Y003125D01*
X005710Y003283D02*
X005400Y003283D01*
X005400Y003442D02*
X005710Y003442D01*
X003997Y004804D02*
X003930Y004871D01*
X003930Y005595D01*
X003765Y005430D01*
X002930Y005430D01*
X002930Y005595D01*
X002553Y005661D02*
X000660Y005661D01*
X000660Y005819D02*
X002553Y005819D01*
X002577Y005978D02*
X000660Y005978D01*
X000660Y006136D02*
X002553Y006136D01*
X002553Y006295D02*
X000660Y006295D01*
X000660Y006453D02*
X002553Y006453D01*
X002286Y006612D02*
X000660Y006612D01*
X000660Y006770D02*
X002286Y006770D01*
X002286Y006929D02*
X000660Y006929D01*
X000660Y007087D02*
X002286Y007087D01*
X002286Y007246D02*
X000660Y007246D01*
X000660Y007404D02*
X003795Y007404D01*
X004051Y007404D02*
X004187Y007404D01*
X004187Y007246D02*
X004051Y007246D01*
X004051Y007087D02*
X004187Y007087D01*
X004594Y006770D02*
X004690Y006770D01*
X004690Y006612D02*
X004594Y006612D01*
X004614Y006453D02*
X004327Y006453D01*
X004327Y006295D02*
X004455Y006295D01*
X004817Y005978D02*
X005827Y005978D01*
X005803Y006136D02*
X004975Y006136D01*
X005134Y006295D02*
X005803Y006295D01*
X005803Y006453D02*
X005170Y006453D01*
X005170Y006612D02*
X005536Y006612D01*
X005536Y006770D02*
X005170Y006770D01*
X005170Y006929D02*
X005536Y006929D01*
X005536Y007087D02*
X005176Y007087D01*
X005335Y007246D02*
X005536Y007246D01*
X005493Y007404D02*
X007045Y007404D01*
X006894Y007246D02*
X006446Y007246D01*
X005991Y006930D02*
X006180Y006265D01*
X005803Y005819D02*
X004658Y005819D01*
X004500Y005661D02*
X005803Y005661D01*
X005803Y005502D02*
X004341Y005502D01*
X004307Y005344D02*
X005803Y005344D01*
X007301Y007087D02*
X007437Y007087D01*
X007437Y007246D02*
X007301Y007246D01*
X007301Y007404D02*
X007437Y007404D01*
X003690Y005185D02*
X000660Y005185D01*
X000660Y005027D02*
X003561Y005027D01*
X003104Y003917D02*
X000660Y003917D01*
X000660Y005344D02*
X002553Y005344D01*
X002553Y005502D02*
X000660Y005502D01*
X002930Y006265D02*
X002741Y006930D01*
X011099Y002734D02*
X011178Y001680D01*
X011099Y002734D02*
X011215Y002850D01*
X011363Y002998D01*
X018910Y018024D02*
X018950Y018024D01*
X018950Y018182D02*
X018910Y018182D01*
X018910Y018341D02*
X018950Y018341D01*
X018950Y018499D02*
X018910Y018499D01*
X018910Y018658D02*
X018950Y018658D01*
X018950Y018816D02*
X018910Y018816D01*
X018345Y018816D02*
X018283Y018816D01*
X018400Y019926D02*
X020692Y019926D01*
X020692Y020084D02*
X018400Y020084D01*
X018400Y020243D02*
X020692Y020243D01*
X020692Y020401D02*
X018400Y020401D01*
X018400Y020560D02*
X019880Y020560D01*
X019526Y020718D02*
X018400Y020718D01*
X018375Y020877D02*
X019343Y020877D01*
X019213Y021035D02*
X018061Y021035D01*
X018114Y021194D02*
X019121Y021194D01*
X019067Y021352D02*
X018114Y021352D01*
X018114Y021511D02*
X019024Y021511D01*
X019020Y021669D02*
X018114Y021669D01*
X018058Y021828D02*
X019020Y021828D01*
X019061Y021986D02*
X002299Y021986D01*
X002340Y021828D02*
X002802Y021828D01*
X002746Y021669D02*
X002340Y021669D01*
X002336Y021511D02*
X002746Y021511D01*
X002746Y021352D02*
X002293Y021352D01*
X002239Y021194D02*
X002746Y021194D01*
X002799Y021035D02*
X002147Y021035D01*
X002017Y020877D02*
X002485Y020877D01*
X002460Y020718D02*
X001834Y020718D01*
X001480Y020560D02*
X002460Y020560D01*
X002460Y020401D02*
X000660Y020401D01*
X000660Y020243D02*
X002460Y020243D01*
X002460Y020084D02*
X000660Y020084D01*
X000660Y019926D02*
X002460Y019926D01*
X002460Y019767D02*
X000660Y019767D01*
X000660Y019609D02*
X002520Y019609D01*
X000880Y020560D02*
X000660Y020560D01*
X003618Y021511D02*
X004242Y021511D01*
X004242Y021669D02*
X003618Y021669D01*
X003562Y021828D02*
X004298Y021828D01*
X005058Y021828D02*
X006052Y021828D01*
X005996Y021669D02*
X005114Y021669D01*
X005114Y021511D02*
X005996Y021511D01*
X005996Y021352D02*
X005114Y021352D01*
X005114Y021194D02*
X005996Y021194D01*
X006049Y021035D02*
X005061Y021035D01*
X005375Y020877D02*
X005735Y020877D01*
X005710Y020718D02*
X005400Y020718D01*
X005400Y020560D02*
X005710Y020560D01*
X005710Y020401D02*
X005400Y020401D01*
X005400Y020243D02*
X005710Y020243D01*
X005710Y020084D02*
X005400Y020084D01*
X005400Y019926D02*
X005710Y019926D01*
X005710Y019767D02*
X005400Y019767D01*
X005340Y019609D02*
X005770Y019609D01*
X016618Y021511D02*
X017242Y021511D01*
X017242Y021669D02*
X016618Y021669D01*
X016562Y021828D02*
X017298Y021828D01*
X020480Y020560D02*
X020692Y020560D01*
D20*
X017930Y018680D03*
X014680Y018680D03*
X011430Y018680D03*
X008180Y018680D03*
X004930Y018680D03*
X012180Y013180D03*
X011180Y010180D03*
X007180Y009680D03*
X006180Y004430D03*
X009180Y004430D03*
X012680Y004430D03*
X015930Y004430D03*
X002930Y004430D03*
D21*
X003145Y002850D02*
X003261Y002734D01*
X003182Y001680D01*
X006432Y001680D02*
X006511Y002734D01*
X006395Y002850D01*
X009645Y002850D02*
X009761Y002734D01*
X009682Y001680D01*
X012932Y001680D02*
X013011Y002734D01*
X012895Y002850D01*
X016145Y002850D02*
X016261Y002734D01*
X016182Y001680D01*
X017715Y020260D02*
X017715Y021180D01*
X017678Y021430D01*
X014465Y021180D02*
X014465Y020260D01*
X014465Y021180D02*
X014428Y021430D01*
X011215Y021064D02*
X011215Y020260D01*
X011215Y021065D02*
X011234Y021090D01*
X011249Y021118D01*
X011261Y021147D01*
X011269Y021177D01*
X011273Y021208D01*
X011274Y021239D01*
X011271Y021271D01*
X011264Y021301D01*
X011253Y021331D01*
X011239Y021359D01*
X011222Y021385D01*
X011202Y021409D01*
X011178Y021430D01*
X007965Y021314D02*
X007965Y020260D01*
X007965Y021314D02*
X007928Y021430D01*
X004715Y021180D02*
X004715Y020260D01*
X004715Y021180D02*
X004678Y021430D01*
M02*
