G75*
%MOIN*%
%OFA0B0*%
%FSLAX25Y25*%
%IPPOS*%
%LPD*%
%AMOC8*
5,1,8,0,0,1.08239X$1,22.5*
%
%ADD10OC8,0.07924*%
%ADD11C,0.14800*%
%ADD12OC8,0.14918*%
%ADD13OC8,0.09050*%
%ADD14C,0.06800*%
%ADD15R,0.06546X0.06546*%
%ADD16R,0.06350X0.06350*%
%ADD17C,0.06350*%
%ADD18C,0.12600*%
%ADD19C,0.25469*%
%ADD20C,0.07200*%
%ADD21C,0.13300*%
%ADD22C,0.05359*%
%ADD23C,0.05556*%
%ADD24C,0.05753*%
%ADD25OC8,0.06146*%
%ADD26OC8,0.05950*%
%ADD27C,0.06737*%
D10*
X0993000Y0963000D03*
X0993000Y0973000D03*
X0993000Y0983000D03*
X0993000Y0993000D03*
X0993000Y1023000D03*
X0993000Y1033000D03*
X1081700Y0956100D03*
X1091700Y0956100D03*
X1156700Y0951100D03*
X1166700Y0951100D03*
X1201700Y0951100D03*
X1211700Y0951100D03*
X1241700Y0951100D03*
X1251700Y0951100D03*
X1281700Y0951100D03*
X1291700Y0951100D03*
X1413000Y0978000D03*
X1413000Y0988000D03*
X1413000Y0998000D03*
X1413000Y1008000D03*
X1413000Y1033000D03*
X1413000Y1043000D03*
X1413000Y1053000D03*
X1413000Y1063000D03*
X1413000Y1088000D03*
X1413000Y1098000D03*
X1413000Y1108000D03*
X1413000Y1118000D03*
X1413000Y1143000D03*
X1413000Y1153000D03*
X1413000Y1163000D03*
X1413000Y1173000D03*
X1413000Y1198000D03*
X1413000Y1208000D03*
X1413000Y1218000D03*
X1413000Y1228000D03*
X1413000Y1253000D03*
X1413000Y1263000D03*
X1413000Y1273000D03*
X1413000Y1283000D03*
X1413000Y1308000D03*
X1413000Y1318000D03*
X1413000Y1328000D03*
X1413000Y1338000D03*
X1413000Y1363000D03*
X1413000Y1373000D03*
X1413000Y1383000D03*
X1413000Y1393000D03*
X1258000Y1393000D03*
X1248000Y1393000D03*
X1233000Y1393000D03*
X1223000Y1393000D03*
X1208000Y1393000D03*
X1198000Y1393000D03*
X1164300Y1234900D03*
X1154300Y1234900D03*
X1191100Y1214300D03*
X1191100Y1204300D03*
X1191100Y1194300D03*
X1191100Y1184300D03*
D11*
X1233000Y1195650D03*
X1233000Y1165650D03*
X1233000Y1270350D03*
X1233000Y1300350D03*
D12*
X1161701Y1308709D03*
X1141701Y1308709D03*
X1118000Y1308709D03*
X1098000Y1308709D03*
X1074299Y1308709D03*
X1074299Y1333000D03*
X1098000Y1333000D03*
X1118000Y1333000D03*
X1141701Y1333000D03*
X1161701Y1333000D03*
X1161701Y1357016D03*
X1141701Y1357016D03*
X1141701Y1396701D03*
X1161701Y1396701D03*
X1074299Y1396701D03*
X1054299Y1396701D03*
X1054299Y1357016D03*
X1054299Y1333000D03*
X1054299Y1308709D03*
X1074299Y1357016D03*
D13*
X1071950Y1066800D03*
X1071950Y1016800D03*
X1109450Y1016800D03*
X1121950Y1016800D03*
X1134450Y1016800D03*
X1159450Y1016800D03*
X1159450Y1066800D03*
X0796750Y1038000D03*
X0796750Y0988000D03*
X0771750Y0988000D03*
X0759250Y0988000D03*
X0746750Y0988000D03*
X0709250Y0988000D03*
X0709250Y1038000D03*
D14*
X0728000Y0966000D02*
X0728000Y0960000D01*
X0738000Y0960000D02*
X0738000Y0966000D01*
X1053800Y0965300D02*
X1059800Y0965300D01*
X1059800Y0955300D02*
X1053800Y0955300D01*
D15*
X1120621Y1081800D03*
X1160779Y1081800D03*
X0798079Y1053000D03*
X0757921Y1053000D03*
D16*
X0828000Y0998157D03*
X1190700Y1031957D03*
D17*
X1190700Y1051643D03*
X0828000Y1017843D03*
D18*
X0685100Y1084400D03*
X0685100Y1151600D03*
X0670900Y1194400D03*
X0670900Y1261600D03*
X0670900Y1344400D03*
X0670900Y1411600D03*
D19*
X0678000Y1392750D03*
X0678000Y1363250D03*
X0678000Y1242750D03*
X0678000Y1213250D03*
X0678000Y1132750D03*
X0678000Y1103250D03*
D20*
X0708000Y1098000D03*
X0716800Y1291900D03*
X0716800Y1301900D03*
X0773000Y1303000D03*
X0773000Y1293000D03*
X0833000Y1383000D03*
X0848000Y1383000D03*
X0883000Y1383000D03*
X0898000Y1383000D03*
X0943000Y1408000D03*
X0943000Y1418000D03*
X1023000Y1408000D03*
X1023000Y1398000D03*
X1138000Y1233000D03*
X1208000Y1168000D03*
X1156200Y1116100D03*
X1146200Y1116100D03*
X1208000Y1088000D03*
X1208000Y1068000D03*
X1118000Y0948000D03*
X0918000Y0963000D03*
D21*
X0998000Y1153000D03*
X0808000Y1158000D03*
X0868000Y1358000D03*
X0978000Y1358000D03*
D22*
X1268000Y1238000D03*
X1323000Y1233000D03*
X1323000Y1250500D03*
X1323000Y1258000D03*
X1323000Y1265500D03*
X1333000Y1265500D03*
X1333000Y1250500D03*
X1323000Y1288000D03*
X1323000Y1305500D03*
X1323000Y1313000D03*
X1323000Y1320500D03*
X1333000Y1320500D03*
X1333000Y1305500D03*
X1323000Y1343000D03*
X1323000Y1360500D03*
X1323000Y1368000D03*
X1323000Y1375500D03*
X1333000Y1375500D03*
X1333000Y1360500D03*
X1323000Y1398000D03*
X1393000Y1403000D03*
X1388000Y1363000D03*
X1388000Y1308000D03*
X1388000Y1253000D03*
X1388000Y1198000D03*
X1388000Y1143000D03*
X1388000Y1088000D03*
X1388000Y1033000D03*
X1333000Y1030500D03*
X1323000Y1030500D03*
X1323000Y1038000D03*
X1323000Y1045500D03*
X1333000Y1045500D03*
X1323006Y1068006D03*
X1323000Y1085500D03*
X1323000Y1093000D03*
X1323000Y1100500D03*
X1333000Y1100500D03*
X1333000Y1085500D03*
X1323000Y1123000D03*
X1323000Y1140500D03*
X1323000Y1148000D03*
X1323000Y1155500D03*
X1333000Y1155500D03*
X1333000Y1140500D03*
X1323000Y1178000D03*
X1323000Y1195500D03*
X1323000Y1203000D03*
X1323000Y1210500D03*
X1333000Y1210500D03*
X1333000Y1195500D03*
X1318000Y1013000D03*
X1323000Y0990500D03*
X1323000Y0983000D03*
X1323000Y0975500D03*
X1333000Y0975500D03*
X1333000Y0990500D03*
D23*
X1263000Y1008000D03*
X1258000Y1348000D03*
X1248000Y1353000D03*
X1233000Y1353000D03*
X0683000Y0983000D03*
X0673000Y1023000D03*
D24*
X1278000Y1133000D03*
D25*
X1053000Y1008000D03*
X1033000Y1038000D03*
D26*
X0828000Y0968000D03*
X1280625Y1098000D03*
D27*
X1323000Y0963000D03*
X1333000Y0963000D03*
M02*
