G75*
%MOIN*%
%OFA0B0*%
%FSLAX25Y25*%
%IPPOS*%
%LPD*%
%AMOC8*
5,1,8,0,0,1.08239X$1,22.5*
%
%ADD10OC8,0.07124*%
%ADD11C,0.14000*%
%ADD12OC8,0.14118*%
%ADD13OC8,0.08250*%
%ADD14C,0.06000*%
%ADD15R,0.05746X0.05746*%
%ADD16R,0.05550X0.05550*%
%ADD17C,0.05550*%
%ADD18C,0.24669*%
%ADD19C,0.06400*%
%ADD20C,0.04559*%
%ADD21C,0.02400*%
%ADD22C,0.04165*%
%ADD23C,0.04362*%
%ADD24C,0.04756*%
%ADD25C,0.03772*%
%ADD26C,0.04953*%
%ADD27OC8,0.04165*%
%ADD28OC8,0.05346*%
%ADD29C,0.01000*%
%ADD30C,0.01200*%
%ADD31OC8,0.03969*%
%ADD32OC8,0.05150*%
%ADD33OC8,0.04362*%
%ADD34C,0.02000*%
%ADD35C,0.05000*%
%ADD36C,0.08000*%
%ADD37C,0.04000*%
%ADD38C,0.01600*%
%ADD39C,0.05937*%
D10*
X0993000Y0963000D03*
X0993000Y0973000D03*
X0993000Y0983000D03*
X0993000Y0993000D03*
X0993000Y1023000D03*
X0993000Y1033000D03*
X1081700Y0956100D03*
X1091700Y0956100D03*
X1156700Y0951100D03*
X1166700Y0951100D03*
X1201700Y0951100D03*
X1211700Y0951100D03*
X1241700Y0951100D03*
X1251700Y0951100D03*
X1281700Y0951100D03*
X1291700Y0951100D03*
X1413000Y0978000D03*
X1413000Y0988000D03*
X1413000Y0998000D03*
X1413000Y1008000D03*
X1413000Y1033000D03*
X1413000Y1043000D03*
X1413000Y1053000D03*
X1413000Y1063000D03*
X1413000Y1088000D03*
X1413000Y1098000D03*
X1413000Y1108000D03*
X1413000Y1118000D03*
X1413000Y1143000D03*
X1413000Y1153000D03*
X1413000Y1163000D03*
X1413000Y1173000D03*
X1413000Y1198000D03*
X1413000Y1208000D03*
X1413000Y1218000D03*
X1413000Y1228000D03*
X1413000Y1253000D03*
X1413000Y1263000D03*
X1413000Y1273000D03*
X1413000Y1283000D03*
X1413000Y1308000D03*
X1413000Y1318000D03*
X1413000Y1328000D03*
X1413000Y1338000D03*
X1413000Y1363000D03*
X1413000Y1373000D03*
X1413000Y1383000D03*
X1413000Y1393000D03*
X1258000Y1393000D03*
X1248000Y1393000D03*
X1233000Y1393000D03*
X1223000Y1393000D03*
X1208000Y1393000D03*
X1198000Y1393000D03*
X1164300Y1234900D03*
X1154300Y1234900D03*
X1191100Y1214300D03*
X1191100Y1204300D03*
X1191100Y1194300D03*
X1191100Y1184300D03*
D11*
X1233000Y1195650D03*
X1233000Y1165650D03*
X1233000Y1270350D03*
X1233000Y1300350D03*
D12*
X1161701Y1308709D03*
X1141701Y1308709D03*
X1118000Y1308709D03*
X1098000Y1308709D03*
X1074299Y1308709D03*
X1074299Y1333000D03*
X1098000Y1333000D03*
X1118000Y1333000D03*
X1141701Y1333000D03*
X1161701Y1333000D03*
X1161701Y1357016D03*
X1141701Y1357016D03*
X1141701Y1396701D03*
X1161701Y1396701D03*
X1074299Y1396701D03*
X1054299Y1396701D03*
X1054299Y1357016D03*
X1054299Y1333000D03*
X1054299Y1308709D03*
X1074299Y1357016D03*
D13*
X1071950Y1066800D03*
X1071950Y1016800D03*
X1109450Y1016800D03*
X1121950Y1016800D03*
X1134450Y1016800D03*
X1159450Y1016800D03*
X1159450Y1066800D03*
X0796750Y1038000D03*
X0796750Y0988000D03*
X0771750Y0988000D03*
X0759250Y0988000D03*
X0746750Y0988000D03*
X0709250Y0988000D03*
X0709250Y1038000D03*
D14*
X0728000Y0966000D02*
X0728000Y0960000D01*
X0738000Y0960000D02*
X0738000Y0966000D01*
X1053800Y0965300D02*
X1059800Y0965300D01*
X1059800Y0955300D02*
X1053800Y0955300D01*
D15*
X1120621Y1081800D03*
X1160779Y1081800D03*
X0798079Y1053000D03*
X0757921Y1053000D03*
D16*
X0828000Y0998157D03*
X1190700Y1031957D03*
D17*
X1190700Y1051643D03*
X0828000Y1017843D03*
D18*
X0678000Y1103250D03*
X0678000Y1132750D03*
X0678000Y1213250D03*
X0678000Y1242750D03*
X0678000Y1363250D03*
X0678000Y1392750D03*
D19*
X0716800Y1301900D03*
X0716800Y1291900D03*
X0773000Y1293000D03*
X0773000Y1303000D03*
X0833000Y1383000D03*
X0848000Y1383000D03*
X0883000Y1383000D03*
X0898000Y1383000D03*
X0943000Y1408000D03*
X0943000Y1418000D03*
X1023000Y1408000D03*
X1023000Y1398000D03*
X1138000Y1233000D03*
X1208000Y1168000D03*
X1156200Y1116100D03*
X1146200Y1116100D03*
X1208000Y1088000D03*
X1208000Y1068000D03*
X1118000Y0948000D03*
X0918000Y0963000D03*
X0708000Y1098000D03*
D20*
X1268000Y1238000D03*
X1323000Y1233000D03*
X1323000Y1250500D03*
X1323000Y1258000D03*
X1323000Y1265500D03*
X1333000Y1265500D03*
X1333000Y1250500D03*
X1323000Y1288000D03*
X1323000Y1305500D03*
X1323000Y1313000D03*
X1323000Y1320500D03*
X1333000Y1320500D03*
X1333000Y1305500D03*
X1323000Y1343000D03*
X1323000Y1360500D03*
X1323000Y1368000D03*
X1323000Y1375500D03*
X1333000Y1375500D03*
X1333000Y1360500D03*
X1323000Y1398000D03*
X1393000Y1403000D03*
X1388000Y1363000D03*
X1388000Y1308000D03*
X1388000Y1253000D03*
X1388000Y1198000D03*
X1388000Y1143000D03*
X1388000Y1088000D03*
X1388000Y1033000D03*
X1333000Y1030500D03*
X1323000Y1030500D03*
X1323000Y1038000D03*
X1323000Y1045500D03*
X1333000Y1045500D03*
X1323006Y1068006D03*
X1323000Y1085500D03*
X1323000Y1093000D03*
X1323000Y1100500D03*
X1333000Y1100500D03*
X1333000Y1085500D03*
X1323000Y1123000D03*
X1323000Y1140500D03*
X1323000Y1148000D03*
X1323000Y1155500D03*
X1333000Y1155500D03*
X1333000Y1140500D03*
X1323000Y1178000D03*
X1323000Y1195500D03*
X1323000Y1203000D03*
X1323000Y1210500D03*
X1333000Y1210500D03*
X1333000Y1195500D03*
X1318000Y1013000D03*
X1323000Y0990500D03*
X1323000Y0983000D03*
X1323000Y0975500D03*
X1333000Y0975500D03*
X1333000Y0990500D03*
D21*
X0645400Y0935400D02*
X0645400Y1270542D01*
X0646074Y1269868D01*
X0665454Y1250488D01*
X0664270Y1248437D01*
X0663265Y1244690D01*
X0663265Y1240810D01*
X0664270Y1237063D01*
X0666209Y1233703D01*
X0668953Y1230959D01*
X0672313Y1229020D01*
X0676060Y1228015D01*
X0679940Y1228015D01*
X0683687Y1229020D01*
X0687047Y1230959D01*
X0689791Y1233703D01*
X0691730Y1237063D01*
X0692735Y1240810D01*
X0692735Y1244690D01*
X0691730Y1248437D01*
X0689791Y1251797D01*
X0687047Y1254541D01*
X0683687Y1256480D01*
X0679940Y1257485D01*
X0678179Y1257485D01*
X0679200Y1259949D01*
X0679200Y1263251D01*
X0677936Y1266302D01*
X0675602Y1268636D01*
X0672551Y1269900D01*
X0669249Y1269900D01*
X0666198Y1268636D01*
X0663864Y1266302D01*
X0662600Y1263251D01*
X0662600Y1262958D01*
X0651400Y1274158D01*
X0651400Y1416592D01*
X0659408Y1424600D01*
X0791592Y1424600D01*
X0799600Y1416592D01*
X0799600Y1387324D01*
X0800118Y1386074D01*
X0816074Y1370118D01*
X0817324Y1369600D01*
X0825061Y1369600D01*
X0826143Y1368517D01*
X0829857Y1368517D01*
X0832483Y1371143D01*
X0832483Y1374857D01*
X0829857Y1377483D01*
X0826143Y1377483D01*
X0825061Y1376400D01*
X0819408Y1376400D01*
X0806400Y1389408D01*
X0806400Y1418676D01*
X0805882Y1419926D01*
X0804926Y1420882D01*
X0795208Y1430600D01*
X1440521Y1430600D01*
X1440521Y0935400D01*
X0645400Y0935400D01*
X0645400Y0937797D02*
X1440521Y0937797D01*
X1440521Y0940196D02*
X0645400Y0940196D01*
X0645400Y0942594D02*
X1116418Y0942594D01*
X1116886Y0942400D02*
X1119114Y0942400D01*
X1121172Y0943253D01*
X1122747Y0944828D01*
X1123600Y0946886D01*
X1123600Y0949114D01*
X1122747Y0951172D01*
X1121172Y0952747D01*
X1119114Y0953600D01*
X1116886Y0953600D01*
X1114828Y0952747D01*
X1113253Y0951172D01*
X1112400Y0949114D01*
X1112400Y0946886D01*
X1113253Y0944828D01*
X1114828Y0943253D01*
X1116886Y0942400D01*
X1119582Y0942594D02*
X1440521Y0942594D01*
X1440521Y0944993D02*
X1122816Y0944993D01*
X1123600Y0947391D02*
X1151977Y0947391D01*
X1150738Y0948630D02*
X1154230Y0945138D01*
X1159170Y0945138D01*
X1161841Y0947810D01*
X1164313Y0945338D01*
X1166700Y0945338D01*
X1169087Y0945338D01*
X1172462Y0948713D01*
X1172462Y0951100D01*
X1172462Y0953487D01*
X1169087Y0956862D01*
X1166700Y0956862D01*
X1166700Y0951100D01*
X1172462Y0951100D01*
X1166700Y0951100D01*
X1166700Y0951100D01*
X1166700Y0951100D01*
X1166700Y0945338D01*
X1166700Y0951100D01*
X1166700Y0951100D01*
X1166700Y0956862D01*
X1164313Y0956862D01*
X1161841Y0954390D01*
X1159170Y0957062D01*
X1154230Y0957062D01*
X1150738Y0953570D01*
X1150738Y0948630D01*
X1150738Y0949790D02*
X1123320Y0949790D01*
X1121731Y0952188D02*
X1150738Y0952188D01*
X1151755Y0954587D02*
X1097662Y0954587D01*
X1097662Y0953630D02*
X1097662Y0958570D01*
X1094170Y0962062D01*
X1089230Y0962062D01*
X1086559Y0959390D01*
X1084087Y0961862D01*
X1081700Y0961862D01*
X1081700Y0956100D01*
X1081700Y0956100D01*
X1081700Y0961862D01*
X1079313Y0961862D01*
X1075938Y0958487D01*
X1075938Y0956100D01*
X1081700Y0956100D01*
X1081700Y0950338D01*
X1084087Y0950338D01*
X1086559Y0952810D01*
X1089230Y0950138D01*
X1094170Y0950138D01*
X1097662Y0953630D01*
X1096220Y0952188D02*
X1114269Y0952188D01*
X1112680Y0949790D02*
X0645400Y0949790D01*
X0645400Y0952188D02*
X1049633Y0952188D01*
X1049834Y0951912D02*
X1050412Y0951334D01*
X1051075Y0950853D01*
X1051804Y0950481D01*
X1052582Y0950228D01*
X1053391Y0950100D01*
X1056800Y0950100D01*
X1060209Y0950100D01*
X1061018Y0950228D01*
X1061796Y0950481D01*
X1062525Y0950853D01*
X1063188Y0951334D01*
X1063766Y0951912D01*
X1064247Y0952575D01*
X1064619Y0953304D01*
X1064872Y0954082D01*
X1065000Y0954891D01*
X1065000Y0955300D01*
X1065000Y0955709D01*
X1064872Y0956518D01*
X1064619Y0957296D01*
X1064247Y0958025D01*
X1063766Y0958688D01*
X1063188Y0959266D01*
X1062525Y0959747D01*
X1061796Y0960119D01*
X1061576Y0960191D01*
X1062859Y0960722D01*
X1064378Y0962241D01*
X1065200Y0964226D01*
X1065200Y0966374D01*
X1064634Y0967741D01*
X1107168Y1010275D01*
X1112153Y1010275D01*
X1115700Y1013822D01*
X1119247Y1010275D01*
X1124653Y1010275D01*
X1128200Y1013822D01*
X1131747Y1010275D01*
X1137153Y1010275D01*
X1140975Y1014097D01*
X1140975Y1019503D01*
X1137153Y1023325D01*
X1131747Y1023325D01*
X1128200Y1019778D01*
X1124653Y1023325D01*
X1119247Y1023325D01*
X1115700Y1019778D01*
X1112153Y1023325D01*
X1106747Y1023325D01*
X1102925Y1019503D01*
X1102925Y1014518D01*
X1059107Y0970700D01*
X1052726Y0970700D01*
X1050741Y0969878D01*
X1049222Y0968359D01*
X1048400Y0966374D01*
X1048400Y0964226D01*
X1049222Y0962241D01*
X1050741Y0960722D01*
X1052024Y0960191D01*
X1051804Y0960119D01*
X1051075Y0959747D01*
X1050412Y0959266D01*
X1049834Y0958688D01*
X1049353Y0958025D01*
X1048981Y0957296D01*
X1048728Y0956518D01*
X1048600Y0955709D01*
X1048600Y0955300D01*
X1056800Y0955300D01*
X1065000Y0955300D01*
X1056800Y0955300D01*
X1056800Y0955300D01*
X1056800Y0950100D01*
X1056800Y0955300D01*
X1056800Y0955300D01*
X1056800Y0955300D01*
X1048600Y0955300D01*
X1048600Y0954891D01*
X1048728Y0954082D01*
X1048981Y0953304D01*
X1049353Y0952575D01*
X1049834Y0951912D01*
X1048648Y0954587D02*
X0645400Y0954587D01*
X0645400Y0956985D02*
X0723763Y0956985D01*
X0723553Y0957275D02*
X0724034Y0956612D01*
X0724612Y0956034D01*
X0725275Y0955553D01*
X0726004Y0955181D01*
X0726782Y0954928D01*
X0727591Y0954800D01*
X0728000Y0954800D01*
X0728409Y0954800D01*
X0729218Y0954928D01*
X0729996Y0955181D01*
X0730725Y0955553D01*
X0731388Y0956034D01*
X0731966Y0956612D01*
X0732447Y0957275D01*
X0732819Y0958004D01*
X0732891Y0958224D01*
X0733422Y0956941D01*
X0734941Y0955422D01*
X0736926Y0954600D01*
X0739074Y0954600D01*
X0741059Y0955422D01*
X0742578Y0956941D01*
X0743400Y0958926D01*
X0743400Y0967074D01*
X0742578Y0969059D01*
X0741059Y0970578D01*
X0739074Y0971400D01*
X0736926Y0971400D01*
X0734941Y0970578D01*
X0733422Y0969059D01*
X0732891Y0967776D01*
X0732819Y0967996D01*
X0732447Y0968725D01*
X0731966Y0969388D01*
X0731388Y0969966D01*
X0730725Y0970447D01*
X0729996Y0970819D01*
X0729218Y0971072D01*
X0728409Y0971200D01*
X0728000Y0971200D01*
X0728000Y0963000D01*
X0728000Y0963000D01*
X0728000Y0963000D01*
X0722800Y0963000D01*
X0722800Y0966409D01*
X0722928Y0967218D01*
X0723181Y0967996D01*
X0723553Y0968725D01*
X0724034Y0969388D01*
X0724612Y0969966D01*
X0725275Y0970447D01*
X0726004Y0970819D01*
X0726782Y0971072D01*
X0727591Y0971200D01*
X0728000Y0971200D01*
X0728000Y0963000D01*
X0728000Y0954800D01*
X0728000Y0963000D01*
X0728000Y0963000D01*
X0722800Y0963000D01*
X0722800Y0959591D01*
X0722928Y0958782D01*
X0723181Y0958004D01*
X0723553Y0957275D01*
X0722833Y0959384D02*
X0645400Y0959384D01*
X0645400Y0961782D02*
X0722800Y0961782D01*
X0722800Y0964181D02*
X0645400Y0964181D01*
X0645400Y0966579D02*
X0722827Y0966579D01*
X0723736Y0968978D02*
X0645400Y0968978D01*
X0645400Y0971376D02*
X0736868Y0971376D01*
X0739132Y0971376D02*
X0987238Y0971376D01*
X0987238Y0970613D02*
X0989851Y0968000D01*
X0987238Y0965387D01*
X0987238Y0963000D01*
X0993000Y0963000D01*
X0998762Y0963000D01*
X0998762Y0965387D01*
X0996149Y0968000D01*
X0998762Y0970613D01*
X0998762Y0973000D01*
X0998762Y0975387D01*
X0996290Y0977859D01*
X0998962Y0980530D01*
X0998962Y0985470D01*
X0996432Y0988000D01*
X0998962Y0990530D01*
X0998962Y0995470D01*
X0995470Y0998962D01*
X0990530Y0998962D01*
X0987038Y0995470D01*
X0987038Y0990530D01*
X0989568Y0988000D01*
X0987038Y0985470D01*
X0987038Y0980530D01*
X0989710Y0977859D01*
X0987238Y0975387D01*
X0987238Y0973000D01*
X0993000Y0973000D01*
X0998762Y0973000D01*
X0993000Y0973000D01*
X0993000Y0973000D01*
X0993000Y0973000D01*
X0993000Y0967238D01*
X0993000Y0963000D01*
X0993000Y0963000D01*
X0993000Y0963000D01*
X0998762Y0963000D01*
X0998762Y0960613D01*
X0995387Y0957238D01*
X0993000Y0957238D01*
X0993000Y0963000D01*
X0993000Y0963000D01*
X0993000Y0963000D01*
X0993000Y0973000D01*
X0993000Y0973000D01*
X0987238Y0973000D01*
X0987238Y0970613D01*
X0988873Y0968978D02*
X0742612Y0968978D01*
X0743400Y0966579D02*
X0913660Y0966579D01*
X0913253Y0966172D02*
X0912400Y0964114D01*
X0912400Y0961886D01*
X0913253Y0959828D01*
X0914828Y0958253D01*
X0916886Y0957400D01*
X0919114Y0957400D01*
X0921172Y0958253D01*
X0922747Y0959828D01*
X0923600Y0961886D01*
X0923600Y0964114D01*
X0922747Y0966172D01*
X0921172Y0967747D01*
X0919114Y0968600D01*
X0916886Y0968600D01*
X0914828Y0967747D01*
X0913253Y0966172D01*
X0912428Y0964181D02*
X0743400Y0964181D01*
X0743400Y0961782D02*
X0912443Y0961782D01*
X0913697Y0959384D02*
X0743400Y0959384D01*
X0742596Y0956985D02*
X1048880Y0956985D01*
X1050574Y0959384D02*
X0997533Y0959384D01*
X0998762Y0961782D02*
X1049681Y0961782D01*
X1048419Y0964181D02*
X0998762Y0964181D01*
X0997570Y0966579D02*
X1048485Y0966579D01*
X1049841Y0968978D02*
X0997127Y0968978D01*
X0998762Y0971376D02*
X1059784Y0971376D01*
X1062182Y0973775D02*
X0998762Y0973775D01*
X0997976Y0976173D02*
X1064581Y0976173D01*
X1066979Y0978572D02*
X0997004Y0978572D01*
X0998962Y0980970D02*
X1069378Y0980970D01*
X1071776Y0983369D02*
X0998962Y0983369D01*
X0998665Y0985767D02*
X1074175Y0985767D01*
X1076573Y0988166D02*
X0996598Y0988166D01*
X0998962Y0990564D02*
X1078972Y0990564D01*
X1081370Y0992963D02*
X0998962Y0992963D01*
X0998962Y0995361D02*
X1083769Y0995361D01*
X1086167Y0997760D02*
X0996672Y0997760D01*
X0989328Y0997760D02*
X0833175Y0997760D01*
X0833175Y1000158D02*
X1088566Y1000158D01*
X1090964Y1002557D02*
X0832544Y1002557D01*
X0832809Y1002292D02*
X0832134Y1002967D01*
X0831252Y1003332D01*
X0824748Y1003332D01*
X0823866Y1002967D01*
X0823191Y1002292D01*
X0822825Y1001410D01*
X0822825Y0994905D01*
X0823191Y0994023D01*
X0823866Y0993348D01*
X0824748Y0992983D01*
X0831252Y0992983D01*
X0832134Y0993348D01*
X0832809Y0994023D01*
X0833175Y0994905D01*
X0833175Y1001410D01*
X0832809Y1002292D01*
X0833175Y0995361D02*
X0987038Y0995361D01*
X0987038Y0992963D02*
X0801015Y0992963D01*
X0799453Y0994525D02*
X0794047Y0994525D01*
X0790225Y0990703D01*
X0790225Y0985297D01*
X0794047Y0981475D01*
X0799453Y0981475D01*
X0803275Y0985297D01*
X0803275Y0990703D01*
X0799453Y0994525D01*
X0803275Y0990564D02*
X0987038Y0990564D01*
X0989402Y0988166D02*
X0803275Y0988166D01*
X0803275Y0985767D02*
X0987335Y0985767D01*
X0987038Y0983369D02*
X0801346Y0983369D01*
X0792154Y0983369D02*
X0776346Y0983369D01*
X0774453Y0981475D02*
X0778275Y0985297D01*
X0778275Y0990703D01*
X0774453Y0994525D01*
X0769047Y0994525D01*
X0765500Y0990978D01*
X0761953Y0994525D01*
X0756547Y0994525D01*
X0753000Y0990978D01*
X0749453Y0994525D01*
X0744047Y0994525D01*
X0740225Y0990703D01*
X0740225Y0985297D01*
X0744047Y0981475D01*
X0749453Y0981475D01*
X0753000Y0985022D01*
X0756547Y0981475D01*
X0761953Y0981475D01*
X0765500Y0985022D01*
X0769047Y0981475D01*
X0774453Y0981475D01*
X0778275Y0985767D02*
X0790225Y0985767D01*
X0790225Y0988166D02*
X0778275Y0988166D01*
X0778275Y0990564D02*
X0790225Y0990564D01*
X0792485Y0992963D02*
X0776015Y0992963D01*
X0767485Y0992963D02*
X0763515Y0992963D01*
X0754985Y0992963D02*
X0751015Y0992963D01*
X0742485Y0992963D02*
X0713515Y0992963D01*
X0711953Y0994525D02*
X0706547Y0994525D01*
X0702725Y0990703D01*
X0702725Y0985297D01*
X0706547Y0981475D01*
X0711953Y0981475D01*
X0715775Y0985297D01*
X0715775Y0990703D01*
X0711953Y0994525D01*
X0715775Y0990564D02*
X0740225Y0990564D01*
X0740225Y0988166D02*
X0715775Y0988166D01*
X0715775Y0985767D02*
X0740225Y0985767D01*
X0742154Y0983369D02*
X0713846Y0983369D01*
X0704654Y0983369D02*
X0645400Y0983369D01*
X0645400Y0985767D02*
X0702725Y0985767D01*
X0702725Y0988166D02*
X0645400Y0988166D01*
X0645400Y0990564D02*
X0702725Y0990564D01*
X0704985Y0992963D02*
X0645400Y0992963D01*
X0645400Y0995361D02*
X0822825Y0995361D01*
X0822825Y0997760D02*
X0645400Y0997760D01*
X0645400Y1000158D02*
X0822825Y1000158D01*
X0823456Y1002557D02*
X0645400Y1002557D01*
X0645400Y1004955D02*
X1093363Y1004955D01*
X1095761Y1007354D02*
X0645400Y1007354D01*
X0645400Y1009752D02*
X1098160Y1009752D01*
X1100558Y1012151D02*
X1076529Y1012151D01*
X1074653Y1010275D02*
X1078475Y1014097D01*
X1078475Y1019503D01*
X1074653Y1023325D01*
X1069247Y1023325D01*
X1065425Y1019503D01*
X1065425Y1014097D01*
X1069247Y1010275D01*
X1074653Y1010275D01*
X1078475Y1014549D02*
X1102925Y1014549D01*
X1102925Y1016948D02*
X1078475Y1016948D01*
X1078475Y1019346D02*
X1102925Y1019346D01*
X1105167Y1021745D02*
X1076233Y1021745D01*
X1067667Y1021745D02*
X1005988Y1021745D01*
X1004699Y1020457D02*
X1057760Y1073517D01*
X1058892Y1073517D01*
X1060539Y1074200D01*
X1061800Y1075461D01*
X1062483Y1077108D01*
X1062483Y1078892D01*
X1061800Y1080539D01*
X1060539Y1081800D01*
X1058892Y1082483D01*
X1057108Y1082483D01*
X1055461Y1081800D01*
X1054200Y1080539D01*
X1053517Y1078892D01*
X1053517Y1077760D01*
X1001757Y1026000D01*
X0998432Y1026000D01*
X0996290Y1028141D01*
X0998762Y1030613D01*
X0998762Y1033000D01*
X0998762Y1035387D01*
X0995387Y1038762D01*
X0993000Y1038762D01*
X0993000Y1033000D01*
X0998762Y1033000D01*
X0993000Y1033000D01*
X0993000Y1033000D01*
X0993000Y1033000D01*
X0993000Y1033000D01*
X0987238Y1033000D01*
X0987238Y1035387D01*
X0990613Y1038762D01*
X0993000Y1038762D01*
X0993000Y1033000D01*
X0987238Y1033000D01*
X0987238Y1030613D01*
X0989710Y1028141D01*
X0987038Y1025470D01*
X0987038Y1020530D01*
X0990530Y1017038D01*
X0995470Y1017038D01*
X0998432Y1020000D01*
X1003597Y1020000D01*
X1004699Y1020457D01*
X1008386Y1024143D02*
X1301600Y1024143D01*
X1301600Y1021745D02*
X1163733Y1021745D01*
X1162153Y1023325D02*
X1156747Y1023325D01*
X1152925Y1019503D01*
X1152925Y1014097D01*
X1156747Y1010275D01*
X1162153Y1010275D01*
X1165975Y1014097D01*
X1165975Y1019503D01*
X1162153Y1023325D01*
X1165975Y1019346D02*
X1301600Y1019346D01*
X1301600Y1016948D02*
X1165975Y1016948D01*
X1165975Y1014549D02*
X1301600Y1014549D01*
X1301600Y1012151D02*
X1164029Y1012151D01*
X1154871Y1012151D02*
X1139029Y1012151D01*
X1140975Y1014549D02*
X1152925Y1014549D01*
X1152925Y1016948D02*
X1140975Y1016948D01*
X1140975Y1019346D02*
X1152925Y1019346D01*
X1155167Y1021745D02*
X1138733Y1021745D01*
X1130167Y1021745D02*
X1126233Y1021745D01*
X1117667Y1021745D02*
X1113733Y1021745D01*
X1114029Y1012151D02*
X1117371Y1012151D01*
X1126529Y1012151D02*
X1129871Y1012151D01*
X1106645Y1009752D02*
X1301600Y1009752D01*
X1301600Y1007354D02*
X1104246Y1007354D01*
X1101848Y1004955D02*
X1301600Y1004955D01*
X1301600Y1002557D02*
X1099449Y1002557D01*
X1097051Y1000158D02*
X1302250Y1000158D01*
X1302574Y0999375D02*
X1304375Y0997574D01*
X1314600Y0987349D01*
X1314600Y0972324D01*
X1315000Y0971358D01*
X1315000Y0954903D01*
X1315457Y0953801D01*
X1316301Y0952957D01*
X1317403Y0952500D01*
X1343597Y0952500D01*
X1344699Y0952957D01*
X1345543Y0953801D01*
X1346000Y0954903D01*
X1346000Y1403597D01*
X1345543Y1404699D01*
X1344699Y1405543D01*
X1343597Y1406000D01*
X1317403Y1406000D01*
X1316301Y1405543D01*
X1315457Y1404699D01*
X1315000Y1403597D01*
X1315000Y1379642D01*
X1314600Y1378676D01*
X1314600Y1363651D01*
X1284375Y1333426D01*
X1282574Y1331625D01*
X1281600Y1329273D01*
X1281600Y1223300D01*
X1262400Y1223300D01*
X1262400Y1346137D01*
X1262778Y1347050D01*
X1262778Y1348950D01*
X1262051Y1350706D01*
X1260706Y1352051D01*
X1258950Y1352778D01*
X1257050Y1352778D01*
X1255294Y1352051D01*
X1255233Y1351990D01*
X1252428Y1354794D01*
X1252051Y1355706D01*
X1250706Y1357051D01*
X1248950Y1357778D01*
X1247050Y1357778D01*
X1245294Y1357051D01*
X1243949Y1355706D01*
X1243222Y1353950D01*
X1243222Y1352050D01*
X1243949Y1350294D01*
X1245294Y1348949D01*
X1246206Y1348571D01*
X1248600Y1346177D01*
X1248600Y1343623D01*
X1237428Y1354794D01*
X1237051Y1355706D01*
X1235706Y1357051D01*
X1233950Y1357778D01*
X1232050Y1357778D01*
X1230294Y1357051D01*
X1228949Y1355706D01*
X1228222Y1353950D01*
X1228222Y1352050D01*
X1228949Y1350294D01*
X1230294Y1348949D01*
X1231206Y1348571D01*
X1243600Y1336177D01*
X1243600Y1223300D01*
X1220900Y1223300D01*
X1220900Y1239561D01*
X1222483Y1241143D01*
X1222483Y1244857D01*
X1219857Y1247483D01*
X1216143Y1247483D01*
X1213517Y1244857D01*
X1213517Y1241143D01*
X1215100Y1239561D01*
X1215100Y1227239D01*
X1214857Y1227483D01*
X1211143Y1227483D01*
X1208517Y1224857D01*
X1208517Y1221143D01*
X1208583Y1221078D01*
X1208507Y1221002D01*
X1207700Y1219054D01*
X1207700Y1173600D01*
X1206886Y1173600D01*
X1204828Y1172747D01*
X1203253Y1171172D01*
X1203181Y1171000D01*
X1139243Y1171000D01*
X1117483Y1192760D01*
X1117483Y1193892D01*
X1116800Y1195539D01*
X1115539Y1196800D01*
X1113892Y1197483D01*
X1112108Y1197483D01*
X1110461Y1196800D01*
X1109200Y1195539D01*
X1108517Y1193892D01*
X1108517Y1192108D01*
X1109200Y1190461D01*
X1110461Y1189200D01*
X1112108Y1188517D01*
X1113240Y1188517D01*
X1135457Y1166301D01*
X1136301Y1165457D01*
X1137403Y1165000D01*
X1203181Y1165000D01*
X1203253Y1164828D01*
X1204828Y1163253D01*
X1206886Y1162400D01*
X1207700Y1162400D01*
X1207700Y1136946D01*
X1208507Y1134998D01*
X1209998Y1133507D01*
X1211946Y1132700D01*
X1281600Y1132700D01*
X1281600Y1076727D01*
X1282574Y1074375D01*
X1301600Y1055349D01*
X1301600Y1001727D01*
X1302574Y0999375D01*
X1304189Y0997760D02*
X1094652Y0997760D01*
X1092254Y0995361D02*
X1306588Y0995361D01*
X1308986Y0992963D02*
X1089855Y0992963D01*
X1087457Y0990564D02*
X1311385Y0990564D01*
X1313783Y0988166D02*
X1085058Y0988166D01*
X1082660Y0985767D02*
X1314600Y0985767D01*
X1314600Y0983369D02*
X1080261Y0983369D01*
X1077863Y0980970D02*
X1314600Y0980970D01*
X1314600Y0978572D02*
X1075464Y0978572D01*
X1073066Y0976173D02*
X1314600Y0976173D01*
X1314600Y0973775D02*
X1070667Y0973775D01*
X1068269Y0971376D02*
X1314992Y0971376D01*
X1315000Y0968978D02*
X1065870Y0968978D01*
X1065115Y0966579D02*
X1315000Y0966579D01*
X1315000Y0964181D02*
X1065181Y0964181D01*
X1063919Y0961782D02*
X1079233Y0961782D01*
X1081700Y0961782D02*
X1081700Y0961782D01*
X1081700Y0959384D02*
X1081700Y0959384D01*
X1081700Y0956985D02*
X1081700Y0956985D01*
X1081700Y0956100D02*
X1081700Y0956100D01*
X1081700Y0956100D01*
X1081700Y0950338D01*
X1079313Y0950338D01*
X1075938Y0953713D01*
X1075938Y0956100D01*
X1081700Y0956100D01*
X1081700Y0954587D02*
X1081700Y0954587D01*
X1081700Y0952188D02*
X1081700Y0952188D01*
X1085937Y0952188D02*
X1087180Y0952188D01*
X1077463Y0952188D02*
X1063967Y0952188D01*
X1064952Y0954587D02*
X1075938Y0954587D01*
X1075938Y0956985D02*
X1064720Y0956985D01*
X1063026Y0959384D02*
X1076835Y0959384D01*
X1084167Y0961782D02*
X1088950Y0961782D01*
X1094450Y0961782D02*
X1315000Y0961782D01*
X1315000Y0959384D02*
X1096848Y0959384D01*
X1097662Y0956985D02*
X1154153Y0956985D01*
X1159247Y0956985D02*
X1199153Y0956985D01*
X1199230Y0957062D02*
X1195738Y0953570D01*
X1195738Y0948630D01*
X1199230Y0945138D01*
X1204170Y0945138D01*
X1206841Y0947810D01*
X1209313Y0945338D01*
X1211700Y0945338D01*
X1214087Y0945338D01*
X1217462Y0948713D01*
X1217462Y0951100D01*
X1217462Y0953487D01*
X1214087Y0956862D01*
X1211700Y0956862D01*
X1211700Y0951100D01*
X1217462Y0951100D01*
X1211700Y0951100D01*
X1211700Y0951100D01*
X1211700Y0951100D01*
X1211700Y0945338D01*
X1211700Y0951100D01*
X1211700Y0951100D01*
X1211700Y0956862D01*
X1209313Y0956862D01*
X1206841Y0954390D01*
X1204170Y0957062D01*
X1199230Y0957062D01*
X1196755Y0954587D02*
X1171362Y0954587D01*
X1172462Y0952188D02*
X1195738Y0952188D01*
X1195738Y0949790D02*
X1172462Y0949790D01*
X1171140Y0947391D02*
X1196977Y0947391D01*
X1206423Y0947391D02*
X1207260Y0947391D01*
X1211700Y0947391D02*
X1211700Y0947391D01*
X1211700Y0949790D02*
X1211700Y0949790D01*
X1211700Y0952188D02*
X1211700Y0952188D01*
X1211700Y0954587D02*
X1211700Y0954587D01*
X1216362Y0954587D02*
X1236755Y0954587D01*
X1235738Y0953570D02*
X1235738Y0948630D01*
X1239230Y0945138D01*
X1244170Y0945138D01*
X1246841Y0947810D01*
X1249313Y0945338D01*
X1251700Y0945338D01*
X1254087Y0945338D01*
X1257462Y0948713D01*
X1257462Y0951100D01*
X1257462Y0953487D01*
X1254087Y0956862D01*
X1251700Y0956862D01*
X1251700Y0951100D01*
X1257462Y0951100D01*
X1251700Y0951100D01*
X1251700Y0951100D01*
X1251700Y0951100D01*
X1251700Y0945338D01*
X1251700Y0951100D01*
X1251700Y0951100D01*
X1251700Y0956862D01*
X1249313Y0956862D01*
X1246841Y0954390D01*
X1244170Y0957062D01*
X1239230Y0957062D01*
X1235738Y0953570D01*
X1235738Y0952188D02*
X1217462Y0952188D01*
X1217462Y0949790D02*
X1235738Y0949790D01*
X1236977Y0947391D02*
X1216140Y0947391D01*
X1207038Y0954587D02*
X1206645Y0954587D01*
X1204247Y0956985D02*
X1239153Y0956985D01*
X1244247Y0956985D02*
X1279153Y0956985D01*
X1279230Y0957062D02*
X1275738Y0953570D01*
X1275738Y0948630D01*
X1279230Y0945138D01*
X1284170Y0945138D01*
X1286841Y0947810D01*
X1289313Y0945338D01*
X1291700Y0945338D01*
X1294087Y0945338D01*
X1297462Y0948713D01*
X1297462Y0951100D01*
X1297462Y0953487D01*
X1294087Y0956862D01*
X1291700Y0956862D01*
X1291700Y0951100D01*
X1297462Y0951100D01*
X1291700Y0951100D01*
X1291700Y0951100D01*
X1291700Y0951100D01*
X1291700Y0945338D01*
X1291700Y0951100D01*
X1291700Y0951100D01*
X1291700Y0956862D01*
X1289313Y0956862D01*
X1286841Y0954390D01*
X1284170Y0957062D01*
X1279230Y0957062D01*
X1276755Y0954587D02*
X1256362Y0954587D01*
X1257462Y0952188D02*
X1275738Y0952188D01*
X1275738Y0949790D02*
X1257462Y0949790D01*
X1256140Y0947391D02*
X1276977Y0947391D01*
X1286423Y0947391D02*
X1287260Y0947391D01*
X1291700Y0947391D02*
X1291700Y0947391D01*
X1291700Y0949790D02*
X1291700Y0949790D01*
X1291700Y0952188D02*
X1291700Y0952188D01*
X1291700Y0954587D02*
X1291700Y0954587D01*
X1296362Y0954587D02*
X1315131Y0954587D01*
X1315000Y0956985D02*
X1284247Y0956985D01*
X1286645Y0954587D02*
X1287038Y0954587D01*
X1297462Y0952188D02*
X1440521Y0952188D01*
X1440521Y0949790D02*
X1297462Y0949790D01*
X1296140Y0947391D02*
X1440521Y0947391D01*
X1440521Y0954587D02*
X1345869Y0954587D01*
X1346000Y0956985D02*
X1440521Y0956985D01*
X1440521Y0959384D02*
X1346000Y0959384D01*
X1346000Y0961782D02*
X1440521Y0961782D01*
X1440521Y0964181D02*
X1346000Y0964181D01*
X1346000Y0966579D02*
X1440521Y0966579D01*
X1440521Y0968978D02*
X1346000Y0968978D01*
X1346000Y0971376D02*
X1440521Y0971376D01*
X1440521Y0973775D02*
X1416924Y0973775D01*
X1415387Y0972238D02*
X1418762Y0975613D01*
X1418762Y0978000D01*
X1418762Y0980387D01*
X1416290Y0982859D01*
X1418962Y0985530D01*
X1418962Y0990470D01*
X1416290Y0993141D01*
X1418762Y0995613D01*
X1418762Y0998000D01*
X1418762Y1000387D01*
X1416290Y1002859D01*
X1418962Y1005530D01*
X1418962Y1010470D01*
X1415470Y1013962D01*
X1410530Y1013962D01*
X1407038Y1010470D01*
X1407038Y1005530D01*
X1409710Y1002859D01*
X1407238Y1000387D01*
X1407238Y0998000D01*
X1413000Y0998000D01*
X1418762Y0998000D01*
X1413000Y0998000D01*
X1413000Y0998000D01*
X1413000Y0998000D01*
X1407238Y0998000D01*
X1407238Y0995613D01*
X1409710Y0993141D01*
X1407038Y0990470D01*
X1407038Y0985530D01*
X1409710Y0982859D01*
X1407238Y0980387D01*
X1407238Y0978000D01*
X1413000Y0978000D01*
X1418762Y0978000D01*
X1413000Y0978000D01*
X1413000Y0978000D01*
X1413000Y0972238D01*
X1415387Y0972238D01*
X1413000Y0972238D02*
X1413000Y0978000D01*
X1413000Y0978000D01*
X1413000Y0978000D01*
X1407238Y0978000D01*
X1407238Y0975613D01*
X1410613Y0972238D01*
X1413000Y0972238D01*
X1413000Y0973775D02*
X1413000Y0973775D01*
X1413000Y0976173D02*
X1413000Y0976173D01*
X1409076Y0973775D02*
X1346000Y0973775D01*
X1346000Y0976173D02*
X1407238Y0976173D01*
X1407238Y0978572D02*
X1346000Y0978572D01*
X1346000Y0980970D02*
X1407821Y0980970D01*
X1409199Y0983369D02*
X1346000Y0983369D01*
X1346000Y0985767D02*
X1407038Y0985767D01*
X1407038Y0988166D02*
X1346000Y0988166D01*
X1346000Y0990564D02*
X1407132Y0990564D01*
X1409531Y0992963D02*
X1346000Y0992963D01*
X1346000Y0995361D02*
X1407490Y0995361D01*
X1407238Y0997760D02*
X1346000Y0997760D01*
X1346000Y1000158D02*
X1407238Y1000158D01*
X1409408Y1002557D02*
X1346000Y1002557D01*
X1346000Y1004955D02*
X1407613Y1004955D01*
X1407038Y1007354D02*
X1346000Y1007354D01*
X1346000Y1009752D02*
X1407038Y1009752D01*
X1408719Y1012151D02*
X1346000Y1012151D01*
X1346000Y1014549D02*
X1440521Y1014549D01*
X1440521Y1012151D02*
X1417281Y1012151D01*
X1418962Y1009752D02*
X1440521Y1009752D01*
X1440521Y1007354D02*
X1418962Y1007354D01*
X1418387Y1004955D02*
X1440521Y1004955D01*
X1440521Y1002557D02*
X1416592Y1002557D01*
X1418762Y1000158D02*
X1440521Y1000158D01*
X1440521Y0997760D02*
X1418762Y0997760D01*
X1418510Y0995361D02*
X1440521Y0995361D01*
X1440521Y0992963D02*
X1416469Y0992963D01*
X1418868Y0990564D02*
X1440521Y0990564D01*
X1440521Y0988166D02*
X1418962Y0988166D01*
X1418962Y0985767D02*
X1440521Y0985767D01*
X1440521Y0983369D02*
X1416801Y0983369D01*
X1418179Y0980970D02*
X1440521Y0980970D01*
X1440521Y0978572D02*
X1418762Y0978572D01*
X1418762Y0976173D02*
X1440521Y0976173D01*
X1440521Y1016948D02*
X1346000Y1016948D01*
X1346000Y1019346D02*
X1440521Y1019346D01*
X1440521Y1021745D02*
X1346000Y1021745D01*
X1346000Y1024143D02*
X1440521Y1024143D01*
X1440521Y1026542D02*
X1346000Y1026542D01*
X1346000Y1028940D02*
X1408911Y1028940D01*
X1407238Y1030613D02*
X1410613Y1027238D01*
X1413000Y1027238D01*
X1415387Y1027238D01*
X1418762Y1030613D01*
X1418762Y1033000D01*
X1418762Y1035387D01*
X1416290Y1037859D01*
X1418962Y1040530D01*
X1418962Y1045470D01*
X1416290Y1048141D01*
X1418762Y1050613D01*
X1418762Y1053000D01*
X1418762Y1055387D01*
X1416290Y1057859D01*
X1418962Y1060530D01*
X1418962Y1065470D01*
X1415470Y1068962D01*
X1410530Y1068962D01*
X1407038Y1065470D01*
X1407038Y1060530D01*
X1409710Y1057859D01*
X1407238Y1055387D01*
X1407238Y1053000D01*
X1413000Y1053000D01*
X1418762Y1053000D01*
X1413000Y1053000D01*
X1413000Y1053000D01*
X1413000Y1053000D01*
X1407238Y1053000D01*
X1407238Y1050613D01*
X1409710Y1048141D01*
X1407038Y1045470D01*
X1407038Y1040530D01*
X1409710Y1037859D01*
X1407238Y1035387D01*
X1407238Y1033000D01*
X1413000Y1033000D01*
X1418762Y1033000D01*
X1413000Y1033000D01*
X1413000Y1033000D01*
X1413000Y1027238D01*
X1413000Y1033000D01*
X1413000Y1033000D01*
X1413000Y1033000D01*
X1407238Y1033000D01*
X1407238Y1030613D01*
X1407238Y1031339D02*
X1346000Y1031339D01*
X1346000Y1033737D02*
X1407238Y1033737D01*
X1407987Y1036136D02*
X1346000Y1036136D01*
X1346000Y1038534D02*
X1409034Y1038534D01*
X1407038Y1040933D02*
X1346000Y1040933D01*
X1346000Y1043332D02*
X1407038Y1043332D01*
X1407298Y1045730D02*
X1346000Y1045730D01*
X1346000Y1048129D02*
X1409697Y1048129D01*
X1407324Y1050527D02*
X1346000Y1050527D01*
X1346000Y1052926D02*
X1407238Y1052926D01*
X1407238Y1055324D02*
X1346000Y1055324D01*
X1346000Y1057723D02*
X1409574Y1057723D01*
X1407447Y1060121D02*
X1346000Y1060121D01*
X1346000Y1062520D02*
X1407038Y1062520D01*
X1407038Y1064918D02*
X1346000Y1064918D01*
X1346000Y1067317D02*
X1408885Y1067317D01*
X1417115Y1067317D02*
X1440521Y1067317D01*
X1440521Y1069715D02*
X1346000Y1069715D01*
X1346000Y1072114D02*
X1440521Y1072114D01*
X1440521Y1074512D02*
X1346000Y1074512D01*
X1346000Y1076911D02*
X1440521Y1076911D01*
X1440521Y1079309D02*
X1346000Y1079309D01*
X1346000Y1081708D02*
X1440521Y1081708D01*
X1440521Y1084106D02*
X1417255Y1084106D01*
X1418762Y1085613D02*
X1418762Y1088000D01*
X1418762Y1090387D01*
X1416290Y1092859D01*
X1418962Y1095530D01*
X1418962Y1100470D01*
X1416290Y1103141D01*
X1418762Y1105613D01*
X1418762Y1108000D01*
X1418762Y1110387D01*
X1416290Y1112859D01*
X1418962Y1115530D01*
X1418962Y1120470D01*
X1415470Y1123962D01*
X1410530Y1123962D01*
X1407038Y1120470D01*
X1407038Y1115530D01*
X1409710Y1112859D01*
X1407238Y1110387D01*
X1407238Y1108000D01*
X1413000Y1108000D01*
X1418762Y1108000D01*
X1413000Y1108000D01*
X1413000Y1108000D01*
X1413000Y1108000D01*
X1407238Y1108000D01*
X1407238Y1105613D01*
X1409710Y1103141D01*
X1407038Y1100470D01*
X1407038Y1095530D01*
X1409710Y1092859D01*
X1407238Y1090387D01*
X1407238Y1088000D01*
X1413000Y1088000D01*
X1418762Y1088000D01*
X1413000Y1088000D01*
X1413000Y1088000D01*
X1413000Y1082238D01*
X1415387Y1082238D01*
X1418762Y1085613D01*
X1418762Y1086505D02*
X1440521Y1086505D01*
X1440521Y1088903D02*
X1418762Y1088903D01*
X1417847Y1091302D02*
X1440521Y1091302D01*
X1440521Y1093700D02*
X1417132Y1093700D01*
X1418962Y1096099D02*
X1440521Y1096099D01*
X1440521Y1098497D02*
X1418962Y1098497D01*
X1418536Y1100896D02*
X1440521Y1100896D01*
X1440521Y1103294D02*
X1416443Y1103294D01*
X1418762Y1105693D02*
X1440521Y1105693D01*
X1440521Y1108091D02*
X1418762Y1108091D01*
X1418659Y1110490D02*
X1440521Y1110490D01*
X1440521Y1112888D02*
X1416320Y1112888D01*
X1418719Y1115287D02*
X1440521Y1115287D01*
X1440521Y1117685D02*
X1418962Y1117685D01*
X1418962Y1120084D02*
X1440521Y1120084D01*
X1440521Y1122482D02*
X1416949Y1122482D01*
X1409051Y1122482D02*
X1346000Y1122482D01*
X1346000Y1120084D02*
X1407038Y1120084D01*
X1407038Y1117685D02*
X1346000Y1117685D01*
X1346000Y1115287D02*
X1407281Y1115287D01*
X1409680Y1112888D02*
X1346000Y1112888D01*
X1346000Y1110490D02*
X1407341Y1110490D01*
X1407238Y1108091D02*
X1346000Y1108091D01*
X1346000Y1105693D02*
X1407238Y1105693D01*
X1409557Y1103294D02*
X1346000Y1103294D01*
X1346000Y1100896D02*
X1407464Y1100896D01*
X1407038Y1098497D02*
X1346000Y1098497D01*
X1346000Y1096099D02*
X1407038Y1096099D01*
X1408868Y1093700D02*
X1346000Y1093700D01*
X1346000Y1091302D02*
X1408153Y1091302D01*
X1407238Y1088903D02*
X1346000Y1088903D01*
X1346000Y1086505D02*
X1407238Y1086505D01*
X1407238Y1085613D02*
X1410613Y1082238D01*
X1413000Y1082238D01*
X1413000Y1088000D01*
X1413000Y1088000D01*
X1413000Y1088000D01*
X1407238Y1088000D01*
X1407238Y1085613D01*
X1408745Y1084106D02*
X1346000Y1084106D01*
X1346000Y1124881D02*
X1440521Y1124881D01*
X1440521Y1127279D02*
X1346000Y1127279D01*
X1346000Y1129678D02*
X1440521Y1129678D01*
X1440521Y1132076D02*
X1346000Y1132076D01*
X1346000Y1134475D02*
X1440521Y1134475D01*
X1440521Y1136873D02*
X1346000Y1136873D01*
X1346000Y1139272D02*
X1408579Y1139272D01*
X1407238Y1140613D02*
X1410613Y1137238D01*
X1413000Y1137238D01*
X1415387Y1137238D01*
X1418762Y1140613D01*
X1418762Y1143000D01*
X1418762Y1145387D01*
X1416290Y1147859D01*
X1418962Y1150530D01*
X1418962Y1155470D01*
X1416290Y1158141D01*
X1418762Y1160613D01*
X1418762Y1163000D01*
X1418762Y1165387D01*
X1416290Y1167859D01*
X1418962Y1170530D01*
X1418962Y1175470D01*
X1415470Y1178962D01*
X1410530Y1178962D01*
X1407038Y1175470D01*
X1407038Y1170530D01*
X1409710Y1167859D01*
X1407238Y1165387D01*
X1407238Y1163000D01*
X1413000Y1163000D01*
X1418762Y1163000D01*
X1413000Y1163000D01*
X1413000Y1163000D01*
X1413000Y1163000D01*
X1407238Y1163000D01*
X1407238Y1160613D01*
X1409710Y1158141D01*
X1407038Y1155470D01*
X1407038Y1150530D01*
X1409710Y1147859D01*
X1407238Y1145387D01*
X1407238Y1143000D01*
X1413000Y1143000D01*
X1418762Y1143000D01*
X1413000Y1143000D01*
X1413000Y1143000D01*
X1413000Y1137238D01*
X1413000Y1143000D01*
X1413000Y1143000D01*
X1413000Y1143000D01*
X1407238Y1143000D01*
X1407238Y1140613D01*
X1407238Y1141670D02*
X1346000Y1141670D01*
X1346000Y1144069D02*
X1407238Y1144069D01*
X1408319Y1146468D02*
X1346000Y1146468D01*
X1346000Y1148866D02*
X1408702Y1148866D01*
X1407038Y1151265D02*
X1346000Y1151265D01*
X1346000Y1153663D02*
X1407038Y1153663D01*
X1407630Y1156062D02*
X1346000Y1156062D01*
X1346000Y1158460D02*
X1409391Y1158460D01*
X1407238Y1160859D02*
X1346000Y1160859D01*
X1346000Y1163257D02*
X1407238Y1163257D01*
X1407507Y1165656D02*
X1346000Y1165656D01*
X1346000Y1168054D02*
X1409514Y1168054D01*
X1407116Y1170453D02*
X1346000Y1170453D01*
X1346000Y1172851D02*
X1407038Y1172851D01*
X1407038Y1175250D02*
X1346000Y1175250D01*
X1346000Y1177648D02*
X1409216Y1177648D01*
X1416784Y1177648D02*
X1440521Y1177648D01*
X1440521Y1175250D02*
X1418962Y1175250D01*
X1418962Y1172851D02*
X1440521Y1172851D01*
X1440521Y1170453D02*
X1418884Y1170453D01*
X1416486Y1168054D02*
X1440521Y1168054D01*
X1440521Y1165656D02*
X1418493Y1165656D01*
X1418762Y1163257D02*
X1440521Y1163257D01*
X1440521Y1160859D02*
X1418762Y1160859D01*
X1416609Y1158460D02*
X1440521Y1158460D01*
X1440521Y1156062D02*
X1418370Y1156062D01*
X1418962Y1153663D02*
X1440521Y1153663D01*
X1440521Y1151265D02*
X1418962Y1151265D01*
X1417298Y1148866D02*
X1440521Y1148866D01*
X1440521Y1146468D02*
X1417681Y1146468D01*
X1418762Y1144069D02*
X1440521Y1144069D01*
X1440521Y1141670D02*
X1418762Y1141670D01*
X1417421Y1139272D02*
X1440521Y1139272D01*
X1440521Y1180047D02*
X1346000Y1180047D01*
X1346000Y1182445D02*
X1440521Y1182445D01*
X1440521Y1184844D02*
X1346000Y1184844D01*
X1346000Y1187242D02*
X1440521Y1187242D01*
X1440521Y1189641D02*
X1346000Y1189641D01*
X1346000Y1192039D02*
X1440521Y1192039D01*
X1440521Y1194438D02*
X1417587Y1194438D01*
X1418762Y1195613D02*
X1418762Y1198000D01*
X1418762Y1200387D01*
X1416290Y1202859D01*
X1418962Y1205530D01*
X1418962Y1210470D01*
X1416290Y1213141D01*
X1418762Y1215613D01*
X1418762Y1218000D01*
X1418762Y1220387D01*
X1416290Y1222859D01*
X1418962Y1225530D01*
X1418962Y1230470D01*
X1415470Y1233962D01*
X1410530Y1233962D01*
X1407038Y1230470D01*
X1407038Y1225530D01*
X1409710Y1222859D01*
X1407238Y1220387D01*
X1407238Y1218000D01*
X1413000Y1218000D01*
X1418762Y1218000D01*
X1413000Y1218000D01*
X1413000Y1218000D01*
X1413000Y1218000D01*
X1407238Y1218000D01*
X1407238Y1215613D01*
X1409710Y1213141D01*
X1407038Y1210470D01*
X1407038Y1205530D01*
X1409710Y1202859D01*
X1407238Y1200387D01*
X1407238Y1198000D01*
X1413000Y1198000D01*
X1418762Y1198000D01*
X1413000Y1198000D01*
X1413000Y1198000D01*
X1413000Y1192238D01*
X1415387Y1192238D01*
X1418762Y1195613D01*
X1418762Y1196836D02*
X1440521Y1196836D01*
X1440521Y1199235D02*
X1418762Y1199235D01*
X1417516Y1201633D02*
X1440521Y1201633D01*
X1440521Y1204032D02*
X1417464Y1204032D01*
X1418962Y1206430D02*
X1440521Y1206430D01*
X1440521Y1208829D02*
X1418962Y1208829D01*
X1418204Y1211227D02*
X1440521Y1211227D01*
X1440521Y1213626D02*
X1416775Y1213626D01*
X1418762Y1216024D02*
X1440521Y1216024D01*
X1440521Y1218423D02*
X1418762Y1218423D01*
X1418328Y1220821D02*
X1440521Y1220821D01*
X1440521Y1223220D02*
X1416652Y1223220D01*
X1418962Y1225618D02*
X1440521Y1225618D01*
X1440521Y1228017D02*
X1418962Y1228017D01*
X1418962Y1230415D02*
X1440521Y1230415D01*
X1440521Y1232814D02*
X1416618Y1232814D01*
X1409382Y1232814D02*
X1346000Y1232814D01*
X1346000Y1235212D02*
X1440521Y1235212D01*
X1440521Y1237611D02*
X1346000Y1237611D01*
X1346000Y1240009D02*
X1440521Y1240009D01*
X1440521Y1242408D02*
X1346000Y1242408D01*
X1346000Y1244806D02*
X1440521Y1244806D01*
X1440521Y1247205D02*
X1346000Y1247205D01*
X1346000Y1249603D02*
X1408248Y1249603D01*
X1407238Y1250613D02*
X1410613Y1247238D01*
X1413000Y1247238D01*
X1415387Y1247238D01*
X1418762Y1250613D01*
X1418762Y1253000D01*
X1418762Y1255387D01*
X1416290Y1257859D01*
X1418962Y1260530D01*
X1418962Y1265470D01*
X1416290Y1268141D01*
X1418762Y1270613D01*
X1418762Y1273000D01*
X1418762Y1275387D01*
X1416290Y1277859D01*
X1418962Y1280530D01*
X1418962Y1285470D01*
X1415470Y1288962D01*
X1410530Y1288962D01*
X1407038Y1285470D01*
X1407038Y1280530D01*
X1409710Y1277859D01*
X1407238Y1275387D01*
X1407238Y1273000D01*
X1413000Y1273000D01*
X1418762Y1273000D01*
X1413000Y1273000D01*
X1413000Y1273000D01*
X1413000Y1273000D01*
X1407238Y1273000D01*
X1407238Y1270613D01*
X1409710Y1268141D01*
X1407038Y1265470D01*
X1407038Y1260530D01*
X1409710Y1257859D01*
X1407238Y1255387D01*
X1407238Y1253000D01*
X1413000Y1253000D01*
X1418762Y1253000D01*
X1413000Y1253000D01*
X1413000Y1253000D01*
X1413000Y1247238D01*
X1413000Y1253000D01*
X1413000Y1253000D01*
X1413000Y1253000D01*
X1407238Y1253000D01*
X1407238Y1250613D01*
X1407238Y1252002D02*
X1346000Y1252002D01*
X1346000Y1254401D02*
X1407238Y1254401D01*
X1408650Y1256799D02*
X1346000Y1256799D01*
X1346000Y1259198D02*
X1408371Y1259198D01*
X1407038Y1261596D02*
X1346000Y1261596D01*
X1346000Y1263995D02*
X1407038Y1263995D01*
X1407961Y1266393D02*
X1346000Y1266393D01*
X1346000Y1268792D02*
X1409059Y1268792D01*
X1407238Y1271190D02*
X1346000Y1271190D01*
X1346000Y1273589D02*
X1407238Y1273589D01*
X1407838Y1275987D02*
X1346000Y1275987D01*
X1346000Y1278386D02*
X1409183Y1278386D01*
X1407038Y1280784D02*
X1346000Y1280784D01*
X1346000Y1283183D02*
X1407038Y1283183D01*
X1407149Y1285581D02*
X1346000Y1285581D01*
X1346000Y1287980D02*
X1409548Y1287980D01*
X1416452Y1287980D02*
X1440521Y1287980D01*
X1440521Y1290378D02*
X1346000Y1290378D01*
X1346000Y1292777D02*
X1440521Y1292777D01*
X1440521Y1295175D02*
X1346000Y1295175D01*
X1346000Y1297574D02*
X1440521Y1297574D01*
X1440521Y1299972D02*
X1346000Y1299972D01*
X1346000Y1302371D02*
X1410480Y1302371D01*
X1410613Y1302238D02*
X1413000Y1302238D01*
X1415387Y1302238D01*
X1418762Y1305613D01*
X1418762Y1308000D01*
X1418762Y1310387D01*
X1416290Y1312859D01*
X1418962Y1315530D01*
X1418962Y1320470D01*
X1416290Y1323141D01*
X1418762Y1325613D01*
X1418762Y1328000D01*
X1418762Y1330387D01*
X1416290Y1332859D01*
X1418962Y1335530D01*
X1418962Y1340470D01*
X1415470Y1343962D01*
X1410530Y1343962D01*
X1407038Y1340470D01*
X1407038Y1335530D01*
X1409710Y1332859D01*
X1407238Y1330387D01*
X1407238Y1328000D01*
X1413000Y1328000D01*
X1418762Y1328000D01*
X1413000Y1328000D01*
X1413000Y1328000D01*
X1413000Y1328000D01*
X1407238Y1328000D01*
X1407238Y1325613D01*
X1409710Y1323141D01*
X1407038Y1320470D01*
X1407038Y1315530D01*
X1409710Y1312859D01*
X1407238Y1310387D01*
X1407238Y1308000D01*
X1413000Y1308000D01*
X1418762Y1308000D01*
X1413000Y1308000D01*
X1413000Y1308000D01*
X1413000Y1302238D01*
X1413000Y1308000D01*
X1413000Y1308000D01*
X1413000Y1308000D01*
X1407238Y1308000D01*
X1407238Y1305613D01*
X1410613Y1302238D01*
X1413000Y1302371D02*
X1413000Y1302371D01*
X1413000Y1304769D02*
X1413000Y1304769D01*
X1413000Y1307168D02*
X1413000Y1307168D01*
X1415520Y1302371D02*
X1440521Y1302371D01*
X1440521Y1304769D02*
X1417918Y1304769D01*
X1418762Y1307168D02*
X1440521Y1307168D01*
X1440521Y1309566D02*
X1418762Y1309566D01*
X1417184Y1311965D02*
X1440521Y1311965D01*
X1440521Y1314363D02*
X1417795Y1314363D01*
X1418962Y1316762D02*
X1440521Y1316762D01*
X1440521Y1319160D02*
X1418962Y1319160D01*
X1417873Y1321559D02*
X1440521Y1321559D01*
X1440521Y1323957D02*
X1417106Y1323957D01*
X1418762Y1326356D02*
X1440521Y1326356D01*
X1440521Y1328754D02*
X1418762Y1328754D01*
X1417996Y1331153D02*
X1440521Y1331153D01*
X1440521Y1333551D02*
X1416983Y1333551D01*
X1418962Y1335950D02*
X1440521Y1335950D01*
X1440521Y1338348D02*
X1418962Y1338348D01*
X1418685Y1340747D02*
X1440521Y1340747D01*
X1440521Y1343145D02*
X1416286Y1343145D01*
X1409714Y1343145D02*
X1346000Y1343145D01*
X1346000Y1340747D02*
X1407315Y1340747D01*
X1407038Y1338348D02*
X1346000Y1338348D01*
X1346000Y1335950D02*
X1407038Y1335950D01*
X1409017Y1333551D02*
X1346000Y1333551D01*
X1346000Y1331153D02*
X1408004Y1331153D01*
X1407238Y1328754D02*
X1346000Y1328754D01*
X1346000Y1326356D02*
X1407238Y1326356D01*
X1408894Y1323957D02*
X1346000Y1323957D01*
X1346000Y1321559D02*
X1408127Y1321559D01*
X1407038Y1319160D02*
X1346000Y1319160D01*
X1346000Y1316762D02*
X1407038Y1316762D01*
X1408205Y1314363D02*
X1346000Y1314363D01*
X1346000Y1311965D02*
X1408816Y1311965D01*
X1407238Y1309566D02*
X1346000Y1309566D01*
X1346000Y1307168D02*
X1407238Y1307168D01*
X1408082Y1304769D02*
X1346000Y1304769D01*
X1346000Y1345544D02*
X1440521Y1345544D01*
X1440521Y1347942D02*
X1346000Y1347942D01*
X1346000Y1350341D02*
X1440521Y1350341D01*
X1440521Y1352739D02*
X1346000Y1352739D01*
X1346000Y1355138D02*
X1440521Y1355138D01*
X1440521Y1357537D02*
X1415685Y1357537D01*
X1415387Y1357238D02*
X1418762Y1360613D01*
X1418762Y1363000D01*
X1418762Y1365387D01*
X1416290Y1367859D01*
X1418962Y1370530D01*
X1418962Y1375470D01*
X1416290Y1378141D01*
X1418762Y1380613D01*
X1418762Y1383000D01*
X1418762Y1385387D01*
X1416290Y1387859D01*
X1418962Y1390530D01*
X1418962Y1395470D01*
X1415470Y1398962D01*
X1410530Y1398962D01*
X1407038Y1395470D01*
X1407038Y1390530D01*
X1409710Y1387859D01*
X1407238Y1385387D01*
X1407238Y1383000D01*
X1413000Y1383000D01*
X1418762Y1383000D01*
X1413000Y1383000D01*
X1413000Y1383000D01*
X1413000Y1383000D01*
X1407238Y1383000D01*
X1407238Y1380613D01*
X1409710Y1378141D01*
X1407038Y1375470D01*
X1407038Y1370530D01*
X1409710Y1367859D01*
X1407238Y1365387D01*
X1407238Y1363000D01*
X1413000Y1363000D01*
X1418762Y1363000D01*
X1413000Y1363000D01*
X1413000Y1363000D01*
X1413000Y1357238D01*
X1415387Y1357238D01*
X1413000Y1357238D02*
X1413000Y1363000D01*
X1413000Y1363000D01*
X1413000Y1363000D01*
X1407238Y1363000D01*
X1407238Y1360613D01*
X1410613Y1357238D01*
X1413000Y1357238D01*
X1413000Y1357537D02*
X1413000Y1357537D01*
X1413000Y1359935D02*
X1413000Y1359935D01*
X1413000Y1362334D02*
X1413000Y1362334D01*
X1410315Y1357537D02*
X1346000Y1357537D01*
X1346000Y1359935D02*
X1407916Y1359935D01*
X1407238Y1362334D02*
X1346000Y1362334D01*
X1346000Y1364732D02*
X1407238Y1364732D01*
X1408982Y1367131D02*
X1346000Y1367131D01*
X1346000Y1369529D02*
X1408039Y1369529D01*
X1407038Y1371928D02*
X1346000Y1371928D01*
X1346000Y1374326D02*
X1407038Y1374326D01*
X1408293Y1376725D02*
X1346000Y1376725D01*
X1346000Y1379123D02*
X1408728Y1379123D01*
X1407238Y1381522D02*
X1346000Y1381522D01*
X1346000Y1383920D02*
X1407238Y1383920D01*
X1408170Y1386319D02*
X1346000Y1386319D01*
X1346000Y1388717D02*
X1408851Y1388717D01*
X1407038Y1391116D02*
X1346000Y1391116D01*
X1346000Y1393514D02*
X1407038Y1393514D01*
X1407481Y1395913D02*
X1346000Y1395913D01*
X1346000Y1398311D02*
X1409879Y1398311D01*
X1416121Y1398311D02*
X1440521Y1398311D01*
X1440521Y1395913D02*
X1418519Y1395913D01*
X1418962Y1393514D02*
X1440521Y1393514D01*
X1440521Y1391116D02*
X1418962Y1391116D01*
X1417149Y1388717D02*
X1440521Y1388717D01*
X1440521Y1386319D02*
X1417830Y1386319D01*
X1418762Y1383920D02*
X1440521Y1383920D01*
X1440521Y1381522D02*
X1418762Y1381522D01*
X1417272Y1379123D02*
X1440521Y1379123D01*
X1440521Y1376725D02*
X1417707Y1376725D01*
X1418962Y1374326D02*
X1440521Y1374326D01*
X1440521Y1371928D02*
X1418962Y1371928D01*
X1417961Y1369529D02*
X1440521Y1369529D01*
X1440521Y1367131D02*
X1417018Y1367131D01*
X1418762Y1364732D02*
X1440521Y1364732D01*
X1440521Y1362334D02*
X1418762Y1362334D01*
X1418084Y1359935D02*
X1440521Y1359935D01*
X1440521Y1400710D02*
X1346000Y1400710D01*
X1346000Y1403108D02*
X1440521Y1403108D01*
X1440521Y1405507D02*
X1344736Y1405507D01*
X1316264Y1405507D02*
X1165989Y1405507D01*
X1165536Y1405960D02*
X1162901Y1405960D01*
X1162901Y1397901D01*
X1170960Y1397901D01*
X1170960Y1400536D01*
X1165536Y1405960D01*
X1162901Y1405507D02*
X1160501Y1405507D01*
X1160501Y1405960D02*
X1157866Y1405960D01*
X1152442Y1400536D01*
X1152442Y1397901D01*
X1160501Y1397901D01*
X1160501Y1405960D01*
X1160501Y1403108D02*
X1162901Y1403108D01*
X1162901Y1400710D02*
X1160501Y1400710D01*
X1160501Y1398311D02*
X1162901Y1398311D01*
X1162901Y1397901D02*
X1160501Y1397901D01*
X1160501Y1395501D01*
X1162901Y1395501D01*
X1162901Y1397901D01*
X1162901Y1395913D02*
X1192764Y1395913D01*
X1192238Y1395387D02*
X1195613Y1398762D01*
X1198000Y1398762D01*
X1198000Y1393000D01*
X1198000Y1393000D01*
X1198000Y1398762D01*
X1200387Y1398762D01*
X1202859Y1396290D01*
X1205530Y1398962D01*
X1210470Y1398962D01*
X1213962Y1395470D01*
X1213962Y1390530D01*
X1210470Y1387038D01*
X1205530Y1387038D01*
X1202859Y1389710D01*
X1200387Y1387238D01*
X1198000Y1387238D01*
X1198000Y1393000D01*
X1198000Y1393000D01*
X1198000Y1393000D01*
X1192238Y1393000D01*
X1192238Y1395387D01*
X1192238Y1393514D02*
X1170960Y1393514D01*
X1170960Y1392866D02*
X1170960Y1395501D01*
X1162901Y1395501D01*
X1162901Y1387442D01*
X1165536Y1387442D01*
X1170960Y1392866D01*
X1169210Y1391116D02*
X1192238Y1391116D01*
X1192238Y1390613D02*
X1195613Y1387238D01*
X1198000Y1387238D01*
X1198000Y1393000D01*
X1192238Y1393000D01*
X1192238Y1390613D01*
X1194134Y1388717D02*
X1166811Y1388717D01*
X1162901Y1388717D02*
X1160501Y1388717D01*
X1160501Y1387442D02*
X1160501Y1395501D01*
X1152442Y1395501D01*
X1152442Y1392866D01*
X1157866Y1387442D01*
X1160501Y1387442D01*
X1160501Y1391116D02*
X1162901Y1391116D01*
X1162901Y1393514D02*
X1160501Y1393514D01*
X1160501Y1395913D02*
X1142901Y1395913D01*
X1142901Y1395501D02*
X1142901Y1397901D01*
X1150960Y1397901D01*
X1150960Y1400536D01*
X1145536Y1405960D01*
X1142901Y1405960D01*
X1142901Y1397901D01*
X1140501Y1397901D01*
X1140501Y1405960D01*
X1137866Y1405960D01*
X1132442Y1400536D01*
X1132442Y1397901D01*
X1140501Y1397901D01*
X1140501Y1395501D01*
X1142901Y1395501D01*
X1150960Y1395501D01*
X1150960Y1392866D01*
X1145536Y1387442D01*
X1142901Y1387442D01*
X1142901Y1395501D01*
X1142901Y1393514D02*
X1140501Y1393514D01*
X1140501Y1395501D02*
X1140501Y1387442D01*
X1137866Y1387442D01*
X1132442Y1392866D01*
X1132442Y1395501D01*
X1140501Y1395501D01*
X1140501Y1395913D02*
X1083758Y1395913D01*
X1083758Y1398311D02*
X1132442Y1398311D01*
X1132615Y1400710D02*
X1083667Y1400710D01*
X1083758Y1400619D02*
X1078217Y1406160D01*
X1070381Y1406160D01*
X1064840Y1400619D01*
X1064840Y1392783D01*
X1070381Y1387242D01*
X1078217Y1387242D01*
X1083758Y1392783D01*
X1083758Y1400619D01*
X1081269Y1403108D02*
X1135014Y1403108D01*
X1137412Y1405507D02*
X1078870Y1405507D01*
X1069728Y1405507D02*
X1058870Y1405507D01*
X1058217Y1406160D02*
X1050381Y1406160D01*
X1044840Y1400619D01*
X1044840Y1392783D01*
X1050381Y1387242D01*
X1058217Y1387242D01*
X1063758Y1392783D01*
X1063758Y1400619D01*
X1058217Y1406160D01*
X1061269Y1403108D02*
X1067330Y1403108D01*
X1064931Y1400710D02*
X1063667Y1400710D01*
X1063758Y1398311D02*
X1064840Y1398311D01*
X1064840Y1395913D02*
X1063758Y1395913D01*
X1063758Y1393514D02*
X1064840Y1393514D01*
X1066507Y1391116D02*
X1062091Y1391116D01*
X1059693Y1388717D02*
X1068906Y1388717D01*
X1079693Y1388717D02*
X1136590Y1388717D01*
X1134192Y1391116D02*
X1082091Y1391116D01*
X1083758Y1393514D02*
X1132442Y1393514D01*
X1140501Y1391116D02*
X1142901Y1391116D01*
X1142901Y1388717D02*
X1140501Y1388717D01*
X1146811Y1388717D02*
X1156590Y1388717D01*
X1154192Y1391116D02*
X1149210Y1391116D01*
X1150960Y1393514D02*
X1152442Y1393514D01*
X1152442Y1398311D02*
X1150960Y1398311D01*
X1150786Y1400710D02*
X1152615Y1400710D01*
X1155014Y1403108D02*
X1148388Y1403108D01*
X1145989Y1405507D02*
X1157412Y1405507D01*
X1168388Y1403108D02*
X1315000Y1403108D01*
X1315000Y1400710D02*
X1170786Y1400710D01*
X1170960Y1398311D02*
X1195162Y1398311D01*
X1198000Y1398311D02*
X1198000Y1398311D01*
X1198000Y1395913D02*
X1198000Y1395913D01*
X1198000Y1393514D02*
X1198000Y1393514D01*
X1198000Y1391116D02*
X1198000Y1391116D01*
X1198000Y1388717D02*
X1198000Y1388717D01*
X1201866Y1388717D02*
X1203851Y1388717D01*
X1212149Y1388717D02*
X1219134Y1388717D01*
X1220613Y1387238D02*
X1223000Y1387238D01*
X1225387Y1387238D01*
X1227859Y1389710D01*
X1230530Y1387038D01*
X1235470Y1387038D01*
X1238962Y1390530D01*
X1238962Y1395470D01*
X1235470Y1398962D01*
X1230530Y1398962D01*
X1227859Y1396290D01*
X1225387Y1398762D01*
X1223000Y1398762D01*
X1223000Y1393000D01*
X1223000Y1393000D01*
X1223000Y1398762D01*
X1220613Y1398762D01*
X1217238Y1395387D01*
X1217238Y1393000D01*
X1223000Y1393000D01*
X1223000Y1387238D01*
X1223000Y1393000D01*
X1223000Y1393000D01*
X1223000Y1393000D01*
X1217238Y1393000D01*
X1217238Y1390613D01*
X1220613Y1387238D01*
X1223000Y1388717D02*
X1223000Y1388717D01*
X1223000Y1391116D02*
X1223000Y1391116D01*
X1223000Y1393514D02*
X1223000Y1393514D01*
X1223000Y1395913D02*
X1223000Y1395913D01*
X1223000Y1398311D02*
X1223000Y1398311D01*
X1225838Y1398311D02*
X1229879Y1398311D01*
X1236121Y1398311D02*
X1245162Y1398311D01*
X1245613Y1398762D02*
X1242238Y1395387D01*
X1242238Y1393000D01*
X1248000Y1393000D01*
X1248000Y1393000D01*
X1248000Y1398762D01*
X1250387Y1398762D01*
X1252859Y1396290D01*
X1255530Y1398962D01*
X1260470Y1398962D01*
X1263962Y1395470D01*
X1263962Y1390530D01*
X1260470Y1387038D01*
X1255530Y1387038D01*
X1252859Y1389710D01*
X1250387Y1387238D01*
X1248000Y1387238D01*
X1248000Y1393000D01*
X1248000Y1398762D01*
X1245613Y1398762D01*
X1248000Y1398311D02*
X1248000Y1398311D01*
X1248000Y1395913D02*
X1248000Y1395913D01*
X1248000Y1393514D02*
X1248000Y1393514D01*
X1248000Y1393000D02*
X1248000Y1393000D01*
X1248000Y1393000D01*
X1248000Y1387238D01*
X1245613Y1387238D01*
X1242238Y1390613D01*
X1242238Y1393000D01*
X1248000Y1393000D01*
X1248000Y1391116D02*
X1248000Y1391116D01*
X1248000Y1388717D02*
X1248000Y1388717D01*
X1251866Y1388717D02*
X1253851Y1388717D01*
X1262149Y1388717D02*
X1315000Y1388717D01*
X1315000Y1386319D02*
X0902601Y1386319D01*
X0902747Y1386172D02*
X0901172Y1387747D01*
X0899114Y1388600D01*
X0896886Y1388600D01*
X0894828Y1387747D01*
X0893253Y1386172D01*
X0892400Y1384114D01*
X0892400Y1381886D01*
X0893253Y1379828D01*
X0894828Y1378253D01*
X0896886Y1377400D01*
X0899114Y1377400D01*
X0901172Y1378253D01*
X0902747Y1379828D01*
X0903600Y1381886D01*
X0903600Y1384114D01*
X0902747Y1386172D01*
X0903600Y1383920D02*
X1315000Y1383920D01*
X1315000Y1381522D02*
X0903449Y1381522D01*
X0902043Y1379123D02*
X1314785Y1379123D01*
X1314600Y1376725D02*
X0830615Y1376725D01*
X0831886Y1377400D02*
X0834114Y1377400D01*
X0836172Y1378253D01*
X0837747Y1379828D01*
X0838600Y1381886D01*
X0838600Y1384114D01*
X0837747Y1386172D01*
X0836172Y1387747D01*
X0834114Y1388600D01*
X0831886Y1388600D01*
X0829828Y1387747D01*
X0828253Y1386172D01*
X0827400Y1384114D01*
X0827400Y1381886D01*
X0828253Y1379828D01*
X0829828Y1378253D01*
X0831886Y1377400D01*
X0832483Y1374326D02*
X1314600Y1374326D01*
X1314600Y1371928D02*
X0832483Y1371928D01*
X0830869Y1369529D02*
X1314600Y1369529D01*
X1314600Y1367131D02*
X0692012Y1367131D01*
X0692116Y1366786D02*
X0691702Y1368152D01*
X0691155Y1369472D01*
X0690482Y1370731D01*
X0689688Y1371919D01*
X0688782Y1373023D01*
X0687773Y1374032D01*
X0686669Y1374938D01*
X0685481Y1375732D01*
X0684222Y1376405D01*
X0682902Y1376952D01*
X0681536Y1377366D01*
X0680135Y1377645D01*
X0679200Y1377737D01*
X0679200Y1364450D01*
X0692487Y1364450D01*
X0692395Y1365385D01*
X0692116Y1366786D01*
X0692459Y1364732D02*
X0862499Y1364732D01*
X0863100Y1365333D02*
X0860667Y1362900D01*
X0859350Y1359721D01*
X0859350Y1356279D01*
X0860667Y1353100D01*
X0863100Y1350667D01*
X0866279Y1349350D01*
X0869721Y1349350D01*
X0872900Y1350667D01*
X0875333Y1353100D01*
X0876650Y1356279D01*
X0876650Y1359721D01*
X0875333Y1362900D01*
X0872900Y1365333D01*
X0869721Y1366650D01*
X0866279Y1366650D01*
X0863100Y1365333D01*
X0860432Y1362334D02*
X0679200Y1362334D01*
X0679200Y1362050D02*
X0679200Y1364450D01*
X0676800Y1364450D01*
X0676800Y1377737D01*
X0675865Y1377645D01*
X0674464Y1377366D01*
X0673098Y1376952D01*
X0671778Y1376405D01*
X0670519Y1375732D01*
X0669331Y1374938D01*
X0668227Y1374032D01*
X0667218Y1373023D01*
X0666312Y1371919D01*
X0665518Y1370731D01*
X0664845Y1369472D01*
X0664298Y1368152D01*
X0663884Y1366786D01*
X0663605Y1365385D01*
X0663513Y1364450D01*
X0676800Y1364450D01*
X0676800Y1362050D01*
X0679200Y1362050D01*
X0692487Y1362050D01*
X0692395Y1361115D01*
X0692116Y1359714D01*
X0691702Y1358348D01*
X0691155Y1357028D01*
X0690482Y1355769D01*
X0689688Y1354581D01*
X0688782Y1353477D01*
X0687773Y1352468D01*
X0686669Y1351562D01*
X0685481Y1350768D01*
X0684222Y1350095D01*
X0682902Y1349548D01*
X0681536Y1349134D01*
X0680135Y1348855D01*
X0679200Y1348763D01*
X0679200Y1362050D01*
X0679200Y1359935D02*
X0676800Y1359935D01*
X0676800Y1362050D02*
X0676800Y1350238D01*
X0677936Y1349102D01*
X0679200Y1346051D01*
X0679200Y1342749D01*
X0677936Y1339698D01*
X0675602Y1337364D01*
X0672551Y1336100D01*
X0669249Y1336100D01*
X0666198Y1337364D01*
X0663864Y1339698D01*
X0662600Y1342749D01*
X0662600Y1346051D01*
X0663864Y1349102D01*
X0666198Y1351436D01*
X0668382Y1352341D01*
X0668227Y1352468D01*
X0667218Y1353477D01*
X0666312Y1354581D01*
X0665518Y1355769D01*
X0664845Y1357028D01*
X0664298Y1358348D01*
X0663884Y1359714D01*
X0663605Y1361115D01*
X0663513Y1362050D01*
X0676800Y1362050D01*
X0676800Y1362334D02*
X0651400Y1362334D01*
X0651400Y1364732D02*
X0663541Y1364732D01*
X0663988Y1367131D02*
X0651400Y1367131D01*
X0651400Y1369529D02*
X0664876Y1369529D01*
X0666319Y1371928D02*
X0651400Y1371928D01*
X0651400Y1374326D02*
X0668585Y1374326D01*
X0672550Y1376725D02*
X0651400Y1376725D01*
X0651400Y1379123D02*
X0672133Y1379123D01*
X0672313Y1379020D02*
X0668953Y1380959D01*
X0666209Y1383703D01*
X0664270Y1387063D01*
X0663265Y1390810D01*
X0663265Y1394690D01*
X0664270Y1398437D01*
X0666209Y1401797D01*
X0668162Y1403750D01*
X0666198Y1404564D01*
X0663864Y1406898D01*
X0662600Y1409949D01*
X0662600Y1413251D01*
X0663864Y1416302D01*
X0666198Y1418636D01*
X0669249Y1419900D01*
X0672551Y1419900D01*
X0675602Y1418636D01*
X0677936Y1416302D01*
X0679200Y1413251D01*
X0679200Y1409949D01*
X0678179Y1407485D01*
X0679940Y1407485D01*
X0683687Y1406480D01*
X0687047Y1404541D01*
X0689791Y1401797D01*
X0691730Y1398437D01*
X0692735Y1394690D01*
X0692735Y1390810D01*
X0691730Y1387063D01*
X0689791Y1383703D01*
X0687047Y1380959D01*
X0683687Y1379020D01*
X0679940Y1378015D01*
X0676060Y1378015D01*
X0672313Y1379020D01*
X0668390Y1381522D02*
X0651400Y1381522D01*
X0651400Y1383920D02*
X0666084Y1383920D01*
X0664699Y1386319D02*
X0651400Y1386319D01*
X0651400Y1388717D02*
X0663826Y1388717D01*
X0663265Y1391116D02*
X0651400Y1391116D01*
X0651400Y1393514D02*
X0663265Y1393514D01*
X0663593Y1395913D02*
X0651400Y1395913D01*
X0651400Y1398311D02*
X0664236Y1398311D01*
X0665581Y1400710D02*
X0651400Y1400710D01*
X0651400Y1403108D02*
X0667520Y1403108D01*
X0665255Y1405507D02*
X0651400Y1405507D01*
X0651400Y1407905D02*
X0663447Y1407905D01*
X0662600Y1410304D02*
X0651400Y1410304D01*
X0651400Y1412702D02*
X0662600Y1412702D01*
X0663366Y1415101D02*
X0651400Y1415101D01*
X0652308Y1417499D02*
X0665061Y1417499D01*
X0669244Y1419898D02*
X0654706Y1419898D01*
X0657105Y1422296D02*
X0793895Y1422296D01*
X0796294Y1419898D02*
X0672556Y1419898D01*
X0676739Y1417499D02*
X0798692Y1417499D01*
X0799600Y1415101D02*
X0678434Y1415101D01*
X0679200Y1412702D02*
X0799600Y1412702D01*
X0799600Y1410304D02*
X0679200Y1410304D01*
X0678353Y1407905D02*
X0799600Y1407905D01*
X0799600Y1405507D02*
X0685374Y1405507D01*
X0688480Y1403108D02*
X0799600Y1403108D01*
X0799600Y1400710D02*
X0690419Y1400710D01*
X0691764Y1398311D02*
X0799600Y1398311D01*
X0799600Y1395913D02*
X0692407Y1395913D01*
X0692735Y1393514D02*
X0799600Y1393514D01*
X0799600Y1391116D02*
X0692735Y1391116D01*
X0692174Y1388717D02*
X0799600Y1388717D01*
X0800016Y1386319D02*
X0691301Y1386319D01*
X0689916Y1383920D02*
X0802272Y1383920D01*
X0804670Y1381522D02*
X0687610Y1381522D01*
X0683867Y1379123D02*
X0807069Y1379123D01*
X0809467Y1376725D02*
X0683450Y1376725D01*
X0679200Y1376725D02*
X0676800Y1376725D01*
X0676800Y1374326D02*
X0679200Y1374326D01*
X0679200Y1371928D02*
X0676800Y1371928D01*
X0676800Y1369529D02*
X0679200Y1369529D01*
X0679200Y1367131D02*
X0676800Y1367131D01*
X0676800Y1364732D02*
X0679200Y1364732D01*
X0679200Y1357537D02*
X0676800Y1357537D01*
X0676800Y1355138D02*
X0679200Y1355138D01*
X0679200Y1352739D02*
X0676800Y1352739D01*
X0676800Y1350341D02*
X0679200Y1350341D01*
X0678417Y1347942D02*
X0735100Y1347942D01*
X0735100Y1349561D02*
X0735100Y1324301D01*
X0718186Y1307387D01*
X0717914Y1307500D01*
X0715686Y1307500D01*
X0713628Y1306647D01*
X0712053Y1305072D01*
X0711200Y1303014D01*
X0711200Y1300786D01*
X0712053Y1298728D01*
X0712466Y1298314D01*
X0710501Y1296349D01*
X0709657Y1295505D01*
X0709200Y1294402D01*
X0709200Y1243203D01*
X0709657Y1242101D01*
X0738517Y1213240D01*
X0738517Y1211143D01*
X0741143Y1208517D01*
X0744857Y1208517D01*
X0747483Y1211143D01*
X0747483Y1214857D01*
X0744857Y1217483D01*
X0742760Y1217483D01*
X0715200Y1245043D01*
X0715200Y1286501D01*
X0715686Y1286300D01*
X0717914Y1286300D01*
X0719972Y1287153D01*
X0721547Y1288728D01*
X0722400Y1290786D01*
X0722400Y1293014D01*
X0721547Y1295072D01*
X0719972Y1296647D01*
X0719415Y1296878D01*
X0719436Y1296931D01*
X0719972Y1297153D01*
X0721547Y1298728D01*
X0722400Y1300786D01*
X0722400Y1303014D01*
X0722287Y1303286D01*
X0740458Y1321457D01*
X0740900Y1322523D01*
X0740900Y1349561D01*
X0742483Y1351143D01*
X0742483Y1354857D01*
X0739857Y1357483D01*
X0736143Y1357483D01*
X0733517Y1354857D01*
X0733517Y1351143D01*
X0735100Y1349561D01*
X0734320Y1350341D02*
X0684682Y1350341D01*
X0688045Y1352739D02*
X0733517Y1352739D01*
X0733799Y1355138D02*
X0690060Y1355138D01*
X0691366Y1357537D02*
X0859350Y1357537D01*
X0859439Y1359935D02*
X0692160Y1359935D01*
X0691124Y1369529D02*
X0825131Y1369529D01*
X0825385Y1376725D02*
X0819084Y1376725D01*
X0816685Y1379123D02*
X0828957Y1379123D01*
X0827551Y1381522D02*
X0814287Y1381522D01*
X0811888Y1383920D02*
X0827400Y1383920D01*
X0828399Y1386319D02*
X0809490Y1386319D01*
X0807091Y1388717D02*
X1048906Y1388717D01*
X1046507Y1391116D02*
X0806400Y1391116D01*
X0806400Y1393514D02*
X1019566Y1393514D01*
X1019828Y1393253D02*
X1021886Y1392400D01*
X1024114Y1392400D01*
X1026172Y1393253D01*
X1027747Y1394828D01*
X1028600Y1396886D01*
X1028600Y1399114D01*
X1027747Y1401172D01*
X1026172Y1402747D01*
X1025562Y1403000D01*
X1026172Y1403253D01*
X1027747Y1404828D01*
X1028600Y1406886D01*
X1028600Y1409114D01*
X1027747Y1411172D01*
X1026172Y1412747D01*
X1024114Y1413600D01*
X1021886Y1413600D01*
X1019828Y1412747D01*
X1018253Y1411172D01*
X1017400Y1409114D01*
X1017400Y1406886D01*
X1018253Y1404828D01*
X1019828Y1403253D01*
X1020438Y1403000D01*
X1019828Y1402747D01*
X1018253Y1401172D01*
X1017400Y1399114D01*
X1017400Y1396886D01*
X1018253Y1394828D01*
X1019828Y1393253D01*
X1017803Y1395913D02*
X0806400Y1395913D01*
X0806400Y1398311D02*
X1017400Y1398311D01*
X1018061Y1400710D02*
X0806400Y1400710D01*
X0806400Y1403108D02*
X0940176Y1403108D01*
X0939828Y1403253D02*
X0941886Y1402400D01*
X0944114Y1402400D01*
X0946172Y1403253D01*
X0947747Y1404828D01*
X0948600Y1406886D01*
X0948600Y1409114D01*
X0947747Y1411172D01*
X0946172Y1412747D01*
X0945562Y1413000D01*
X0946172Y1413253D01*
X0947747Y1414828D01*
X0948600Y1416886D01*
X0948600Y1419114D01*
X0947747Y1421172D01*
X0946172Y1422747D01*
X0944114Y1423600D01*
X0941886Y1423600D01*
X0939828Y1422747D01*
X0938253Y1421172D01*
X0937400Y1419114D01*
X0937400Y1416886D01*
X0938253Y1414828D01*
X0939828Y1413253D01*
X0940438Y1413000D01*
X0939828Y1412747D01*
X0938253Y1411172D01*
X0937400Y1409114D01*
X0937400Y1406886D01*
X0938253Y1404828D01*
X0939828Y1403253D01*
X0937971Y1405507D02*
X0806400Y1405507D01*
X0806400Y1407905D02*
X0937400Y1407905D01*
X0937893Y1410304D02*
X0806400Y1410304D01*
X0806400Y1412702D02*
X0939783Y1412702D01*
X0938139Y1415101D02*
X0806400Y1415101D01*
X0806400Y1417499D02*
X0937400Y1417499D01*
X0937725Y1419898D02*
X0805894Y1419898D01*
X0803512Y1422296D02*
X0939377Y1422296D01*
X0946623Y1422296D02*
X1440521Y1422296D01*
X1440521Y1419898D02*
X0948275Y1419898D01*
X0948600Y1417499D02*
X1440521Y1417499D01*
X1440521Y1415101D02*
X0947860Y1415101D01*
X0946217Y1412702D02*
X1019783Y1412702D01*
X1017893Y1410304D02*
X0948107Y1410304D01*
X0948600Y1407905D02*
X1017400Y1407905D01*
X1017971Y1405507D02*
X0948029Y1405507D01*
X0945824Y1403108D02*
X1020176Y1403108D01*
X1025824Y1403108D02*
X1047330Y1403108D01*
X1049728Y1405507D02*
X1028029Y1405507D01*
X1028600Y1407905D02*
X1440521Y1407905D01*
X1440521Y1410304D02*
X1028107Y1410304D01*
X1026217Y1412702D02*
X1440521Y1412702D01*
X1440521Y1424695D02*
X0801113Y1424695D01*
X0798715Y1427093D02*
X1440521Y1427093D01*
X1440521Y1429492D02*
X0796316Y1429492D01*
X0837601Y1386319D02*
X0843399Y1386319D01*
X0843253Y1386172D02*
X0842400Y1384114D01*
X0842400Y1381886D01*
X0843253Y1379828D01*
X0844828Y1378253D01*
X0846886Y1377400D01*
X0849114Y1377400D01*
X0851172Y1378253D01*
X0852747Y1379828D01*
X0853600Y1381886D01*
X0853600Y1384114D01*
X0852747Y1386172D01*
X0851172Y1387747D01*
X0849114Y1388600D01*
X0846886Y1388600D01*
X0844828Y1387747D01*
X0843253Y1386172D01*
X0842400Y1383920D02*
X0838600Y1383920D01*
X0838449Y1381522D02*
X0842551Y1381522D01*
X0843957Y1379123D02*
X0837043Y1379123D01*
X0852043Y1379123D02*
X0878957Y1379123D01*
X0878253Y1379828D02*
X0879828Y1378253D01*
X0881886Y1377400D01*
X0884114Y1377400D01*
X0886172Y1378253D01*
X0887747Y1379828D01*
X0888600Y1381886D01*
X0888600Y1384114D01*
X0887747Y1386172D01*
X0886172Y1387747D01*
X0884114Y1388600D01*
X0881886Y1388600D01*
X0879828Y1387747D01*
X0878253Y1386172D01*
X0877400Y1384114D01*
X0877400Y1381886D01*
X0878253Y1379828D01*
X0877551Y1381522D02*
X0853449Y1381522D01*
X0853600Y1383920D02*
X0877400Y1383920D01*
X0878399Y1386319D02*
X0852601Y1386319D01*
X0873501Y1364732D02*
X0972499Y1364732D01*
X0973100Y1365333D02*
X0970667Y1362900D01*
X0969350Y1359721D01*
X0969350Y1356279D01*
X0970667Y1353100D01*
X0973100Y1350667D01*
X0976279Y1349350D01*
X0979721Y1349350D01*
X0982900Y1350667D01*
X0985333Y1353100D01*
X0986650Y1356279D01*
X0986650Y1359721D01*
X0985333Y1362900D01*
X0982900Y1365333D01*
X0979721Y1366650D01*
X0976279Y1366650D01*
X0973100Y1365333D01*
X0970432Y1362334D02*
X0875568Y1362334D01*
X0876561Y1359935D02*
X0969439Y1359935D01*
X0969350Y1357537D02*
X0876650Y1357537D01*
X0876177Y1355138D02*
X0969823Y1355138D01*
X0971028Y1352739D02*
X0874972Y1352739D01*
X0872113Y1350341D02*
X0973887Y1350341D01*
X0982113Y1350341D02*
X1047597Y1350341D01*
X1049995Y1347942D02*
X0740900Y1347942D01*
X0740900Y1345544D02*
X1234234Y1345544D01*
X1236632Y1343145D02*
X0740900Y1343145D01*
X0740900Y1340747D02*
X1048669Y1340747D01*
X1050381Y1342459D02*
X1044840Y1336918D01*
X1044840Y1329082D01*
X1050381Y1323541D01*
X1058217Y1323541D01*
X1063758Y1329082D01*
X1063758Y1336918D01*
X1058217Y1342459D01*
X1050381Y1342459D01*
X1050381Y1347557D02*
X1058217Y1347557D01*
X1063758Y1353098D01*
X1063758Y1360934D01*
X1058217Y1366475D01*
X1050381Y1366475D01*
X1044840Y1360934D01*
X1044840Y1353098D01*
X1050381Y1347557D01*
X1045198Y1352739D02*
X0984972Y1352739D01*
X0986177Y1355138D02*
X1044840Y1355138D01*
X1044840Y1357537D02*
X0986650Y1357537D01*
X0986561Y1359935D02*
X1044840Y1359935D01*
X1046240Y1362334D02*
X0985568Y1362334D01*
X0983501Y1364732D02*
X1048638Y1364732D01*
X1059960Y1364732D02*
X1068638Y1364732D01*
X1070381Y1366475D02*
X1064840Y1360934D01*
X1064840Y1353098D01*
X1070381Y1347557D01*
X1078217Y1347557D01*
X1083758Y1353098D01*
X1083758Y1360934D01*
X1078217Y1366475D01*
X1070381Y1366475D01*
X1066240Y1362334D02*
X1062359Y1362334D01*
X1063758Y1359935D02*
X1064840Y1359935D01*
X1064840Y1357537D02*
X1063758Y1357537D01*
X1063758Y1355138D02*
X1064840Y1355138D01*
X1065198Y1352739D02*
X1063400Y1352739D01*
X1061002Y1350341D02*
X1067597Y1350341D01*
X1069995Y1347942D02*
X1058603Y1347942D01*
X1059929Y1340747D02*
X1068669Y1340747D01*
X1070381Y1342459D02*
X1064840Y1336918D01*
X1064840Y1329082D01*
X1070381Y1323541D01*
X1078217Y1323541D01*
X1083758Y1329082D01*
X1083758Y1336918D01*
X1078217Y1342459D01*
X1070381Y1342459D01*
X1066271Y1338348D02*
X1062328Y1338348D01*
X1063758Y1335950D02*
X1064840Y1335950D01*
X1064840Y1333551D02*
X1063758Y1333551D01*
X1063758Y1331153D02*
X1064840Y1331153D01*
X1065168Y1328754D02*
X1063431Y1328754D01*
X1061032Y1326356D02*
X1067566Y1326356D01*
X1069965Y1323957D02*
X1058634Y1323957D01*
X1058217Y1318168D02*
X1050381Y1318168D01*
X1044840Y1312627D01*
X1044840Y1304791D01*
X1050381Y1299250D01*
X1058217Y1299250D01*
X1063758Y1304791D01*
X1063758Y1312627D01*
X1058217Y1318168D01*
X1059623Y1316762D02*
X1068975Y1316762D01*
X1070381Y1318168D02*
X1064840Y1312627D01*
X1064840Y1304791D01*
X1070381Y1299250D01*
X1078217Y1299250D01*
X1083758Y1304791D01*
X1083758Y1312627D01*
X1078217Y1318168D01*
X1070381Y1318168D01*
X1066577Y1314363D02*
X1062022Y1314363D01*
X1063758Y1311965D02*
X1064840Y1311965D01*
X1064840Y1309566D02*
X1063758Y1309566D01*
X1063758Y1307168D02*
X1064840Y1307168D01*
X1064861Y1304769D02*
X1063737Y1304769D01*
X1061338Y1302371D02*
X1067260Y1302371D01*
X1069659Y1299972D02*
X1058940Y1299972D01*
X1049659Y1299972D02*
X0777475Y1299972D01*
X0777618Y1300170D02*
X0778004Y1300927D01*
X0778267Y1301735D01*
X0778400Y1302575D01*
X0778400Y1303000D01*
X0778400Y1303425D01*
X0778267Y1304265D01*
X0778004Y1305073D01*
X0777618Y1305830D01*
X0777119Y1306518D01*
X0776518Y1307119D01*
X0775830Y1307618D01*
X0775073Y1308004D01*
X0774265Y1308267D01*
X0773425Y1308400D01*
X0773000Y1308400D01*
X0773000Y1303000D01*
X0778400Y1303000D01*
X0773000Y1303000D01*
X0773000Y1303000D01*
X0773000Y1303000D01*
X0773000Y1303000D01*
X0767600Y1303000D01*
X0767600Y1303425D01*
X0767733Y1304265D01*
X0767996Y1305073D01*
X0768382Y1305830D01*
X0768881Y1306518D01*
X0769482Y1307119D01*
X0770170Y1307618D01*
X0770927Y1308004D01*
X0771735Y1308267D01*
X0772575Y1308400D01*
X0773000Y1308400D01*
X0773000Y1303000D01*
X0767600Y1303000D01*
X0767600Y1302575D01*
X0767733Y1301735D01*
X0767996Y1300927D01*
X0768382Y1300170D01*
X0768881Y1299482D01*
X0769482Y1298881D01*
X0770170Y1298382D01*
X0770703Y1298110D01*
X0769828Y1297747D01*
X0768253Y1296172D01*
X0767400Y1294114D01*
X0767400Y1291886D01*
X0768253Y1289828D01*
X0769828Y1288253D01*
X0771886Y1287400D01*
X0774114Y1287400D01*
X0776172Y1288253D01*
X0777747Y1289828D01*
X0778600Y1291886D01*
X0778600Y1294114D01*
X0777747Y1296172D01*
X0776172Y1297747D01*
X0775297Y1298110D01*
X0775830Y1298382D01*
X0776518Y1298881D01*
X0777119Y1299482D01*
X0777618Y1300170D01*
X0778368Y1302371D02*
X1047260Y1302371D01*
X1044861Y1304769D02*
X0778103Y1304769D01*
X0776451Y1307168D02*
X1044840Y1307168D01*
X1044840Y1309566D02*
X0728567Y1309566D01*
X0726169Y1307168D02*
X0769549Y1307168D01*
X0767897Y1304769D02*
X0723770Y1304769D01*
X0722400Y1302371D02*
X0767632Y1302371D01*
X0768525Y1299972D02*
X0722063Y1299972D01*
X0720393Y1297574D02*
X0769654Y1297574D01*
X0767840Y1295175D02*
X0721444Y1295175D01*
X0722400Y1292777D02*
X0767400Y1292777D01*
X0768025Y1290378D02*
X0722231Y1290378D01*
X0720799Y1287980D02*
X0770487Y1287980D01*
X0775513Y1287980D02*
X1243600Y1287980D01*
X1243600Y1290378D02*
X0777975Y1290378D01*
X0778600Y1292777D02*
X1227280Y1292777D01*
X1227675Y1292381D02*
X1231130Y1290950D01*
X1234870Y1290950D01*
X1238325Y1292381D01*
X1240969Y1295025D01*
X1242400Y1298480D01*
X1242400Y1302220D01*
X1240969Y1305675D01*
X1238325Y1308319D01*
X1234870Y1309750D01*
X1231130Y1309750D01*
X1227675Y1308319D01*
X1225031Y1305675D01*
X1223600Y1302220D01*
X1223600Y1298480D01*
X1225031Y1295025D01*
X1227675Y1292381D01*
X1224969Y1295175D02*
X0778160Y1295175D01*
X0776346Y1297574D02*
X1223975Y1297574D01*
X1223600Y1299972D02*
X1166341Y1299972D01*
X1165619Y1299250D02*
X1171160Y1304791D01*
X1171160Y1312627D01*
X1165619Y1318168D01*
X1157783Y1318168D01*
X1152242Y1312627D01*
X1152242Y1304791D01*
X1157783Y1299250D01*
X1165619Y1299250D01*
X1168740Y1302371D02*
X1223663Y1302371D01*
X1224656Y1304769D02*
X1171138Y1304769D01*
X1171160Y1307168D02*
X1226524Y1307168D01*
X1230687Y1309566D02*
X1171160Y1309566D01*
X1171160Y1311965D02*
X1243600Y1311965D01*
X1243600Y1314363D02*
X1169423Y1314363D01*
X1167025Y1316762D02*
X1243600Y1316762D01*
X1243600Y1319160D02*
X1190708Y1319160D01*
X1189961Y1318413D02*
X1192587Y1321039D01*
X1192587Y1321409D01*
X1206470Y1321409D01*
X1207753Y1320127D01*
X1211466Y1320127D01*
X1214092Y1322753D01*
X1214092Y1326466D01*
X1211466Y1329092D01*
X1210432Y1329092D01*
X1212483Y1331143D01*
X1212483Y1334857D01*
X1209857Y1337483D01*
X1206143Y1337483D01*
X1203517Y1334857D01*
X1203517Y1333043D01*
X1201675Y1331200D01*
X1191139Y1331200D01*
X1189857Y1332483D01*
X1186143Y1332483D01*
X1183517Y1329857D01*
X1183517Y1326143D01*
X1184265Y1325396D01*
X1183621Y1324753D01*
X1183621Y1321039D01*
X1186247Y1318413D01*
X1189961Y1318413D01*
X1185500Y1319160D02*
X0738162Y1319160D01*
X0740501Y1321559D02*
X1183621Y1321559D01*
X1183621Y1323957D02*
X1166035Y1323957D01*
X1165619Y1323541D02*
X1171160Y1329082D01*
X1171160Y1336918D01*
X1165619Y1342459D01*
X1157783Y1342459D01*
X1152242Y1336918D01*
X1152242Y1329082D01*
X1157783Y1323541D01*
X1165619Y1323541D01*
X1168434Y1326356D02*
X1183517Y1326356D01*
X1183517Y1328754D02*
X1170832Y1328754D01*
X1171160Y1331153D02*
X1184813Y1331153D01*
X1171160Y1333551D02*
X1203517Y1333551D01*
X1204610Y1335950D02*
X1171160Y1335950D01*
X1169729Y1338348D02*
X1241429Y1338348D01*
X1243600Y1335950D02*
X1211390Y1335950D01*
X1212483Y1333551D02*
X1243600Y1333551D01*
X1243600Y1331153D02*
X1212483Y1331153D01*
X1211804Y1328754D02*
X1243600Y1328754D01*
X1243600Y1326356D02*
X1214092Y1326356D01*
X1214092Y1323957D02*
X1243600Y1323957D01*
X1243600Y1321559D02*
X1212898Y1321559D01*
X1235313Y1309566D02*
X1243600Y1309566D01*
X1243600Y1307168D02*
X1239476Y1307168D01*
X1241344Y1304769D02*
X1243600Y1304769D01*
X1243600Y1302371D02*
X1242337Y1302371D01*
X1242400Y1299972D02*
X1243600Y1299972D01*
X1243600Y1297574D02*
X1242024Y1297574D01*
X1241031Y1295175D02*
X1243600Y1295175D01*
X1243600Y1292777D02*
X1238720Y1292777D01*
X1243600Y1285581D02*
X0715200Y1285581D01*
X0715200Y1283183D02*
X1243600Y1283183D01*
X1243600Y1280784D02*
X0715200Y1280784D01*
X0715200Y1278386D02*
X1227836Y1278386D01*
X1227675Y1278319D02*
X1225031Y1275675D01*
X1223600Y1272220D01*
X1223600Y1268480D01*
X1225031Y1265025D01*
X1227675Y1262381D01*
X1231130Y1260950D01*
X1234870Y1260950D01*
X1238325Y1262381D01*
X1240969Y1265025D01*
X1242400Y1268480D01*
X1242400Y1272220D01*
X1240969Y1275675D01*
X1238325Y1278319D01*
X1234870Y1279750D01*
X1231130Y1279750D01*
X1227675Y1278319D01*
X1225344Y1275987D02*
X0715200Y1275987D01*
X0715200Y1273589D02*
X1224167Y1273589D01*
X1223600Y1271190D02*
X0715200Y1271190D01*
X0715200Y1268792D02*
X1223600Y1268792D01*
X1224465Y1266393D02*
X0715200Y1266393D01*
X0715200Y1263995D02*
X1226062Y1263995D01*
X1229571Y1261596D02*
X0715200Y1261596D01*
X0715200Y1259198D02*
X1243600Y1259198D01*
X1243600Y1261596D02*
X1236429Y1261596D01*
X1239938Y1263995D02*
X1243600Y1263995D01*
X1243600Y1266393D02*
X1241535Y1266393D01*
X1242400Y1268792D02*
X1243600Y1268792D01*
X1243600Y1271190D02*
X1242400Y1271190D01*
X1241833Y1273589D02*
X1243600Y1273589D01*
X1243600Y1275987D02*
X1240656Y1275987D01*
X1238164Y1278386D02*
X1243600Y1278386D01*
X1262400Y1278386D02*
X1281600Y1278386D01*
X1281600Y1280784D02*
X1262400Y1280784D01*
X1262400Y1283183D02*
X1281600Y1283183D01*
X1281600Y1285581D02*
X1262400Y1285581D01*
X1262400Y1287980D02*
X1281600Y1287980D01*
X1281600Y1290378D02*
X1262400Y1290378D01*
X1262400Y1292777D02*
X1281600Y1292777D01*
X1281600Y1295175D02*
X1262400Y1295175D01*
X1262400Y1297574D02*
X1281600Y1297574D01*
X1281600Y1299972D02*
X1262400Y1299972D01*
X1262400Y1302371D02*
X1281600Y1302371D01*
X1281600Y1304769D02*
X1262400Y1304769D01*
X1262400Y1307168D02*
X1281600Y1307168D01*
X1281600Y1309566D02*
X1262400Y1309566D01*
X1262400Y1311965D02*
X1281600Y1311965D01*
X1281600Y1314363D02*
X1262400Y1314363D01*
X1262400Y1316762D02*
X1281600Y1316762D01*
X1281600Y1319160D02*
X1262400Y1319160D01*
X1262400Y1321559D02*
X1281600Y1321559D01*
X1281600Y1323957D02*
X1262400Y1323957D01*
X1262400Y1326356D02*
X1281600Y1326356D01*
X1281600Y1328754D02*
X1262400Y1328754D01*
X1262400Y1331153D02*
X1282379Y1331153D01*
X1284500Y1333551D02*
X1262400Y1333551D01*
X1262400Y1335950D02*
X1286899Y1335950D01*
X1289297Y1338348D02*
X1262400Y1338348D01*
X1262400Y1340747D02*
X1291696Y1340747D01*
X1294094Y1343145D02*
X1262400Y1343145D01*
X1262400Y1345544D02*
X1296493Y1345544D01*
X1298891Y1347942D02*
X1262778Y1347942D01*
X1262202Y1350341D02*
X1301290Y1350341D01*
X1303689Y1352739D02*
X1259043Y1352739D01*
X1256957Y1352739D02*
X1254483Y1352739D01*
X1252286Y1355138D02*
X1306087Y1355138D01*
X1308486Y1357537D02*
X1249533Y1357537D01*
X1246467Y1357537D02*
X1234533Y1357537D01*
X1231467Y1357537D02*
X1171160Y1357537D01*
X1171160Y1359935D02*
X1310884Y1359935D01*
X1313283Y1362334D02*
X1169760Y1362334D01*
X1171160Y1360934D02*
X1165619Y1366475D01*
X1157783Y1366475D01*
X1152242Y1360934D01*
X1152242Y1353098D01*
X1157783Y1347557D01*
X1165619Y1347557D01*
X1171160Y1353098D01*
X1171160Y1360934D01*
X1167362Y1364732D02*
X1314600Y1364732D01*
X1315000Y1391116D02*
X1263962Y1391116D01*
X1263962Y1393514D02*
X1315000Y1393514D01*
X1315000Y1395913D02*
X1263519Y1395913D01*
X1261121Y1398311D02*
X1315000Y1398311D01*
X1254879Y1398311D02*
X1250838Y1398311D01*
X1242764Y1395913D02*
X1238519Y1395913D01*
X1238962Y1393514D02*
X1242238Y1393514D01*
X1242238Y1391116D02*
X1238962Y1391116D01*
X1237149Y1388717D02*
X1244134Y1388717D01*
X1228851Y1388717D02*
X1226866Y1388717D01*
X1217238Y1391116D02*
X1213962Y1391116D01*
X1213962Y1393514D02*
X1217238Y1393514D01*
X1217764Y1395913D02*
X1213519Y1395913D01*
X1211121Y1398311D02*
X1220162Y1398311D01*
X1204879Y1398311D02*
X1200838Y1398311D01*
X1228714Y1355138D02*
X1171160Y1355138D01*
X1170802Y1352739D02*
X1228222Y1352739D01*
X1228930Y1350341D02*
X1168403Y1350341D01*
X1166005Y1347942D02*
X1231835Y1347942D01*
X1237286Y1355138D02*
X1243714Y1355138D01*
X1243222Y1352739D02*
X1239483Y1352739D01*
X1241882Y1350341D02*
X1243930Y1350341D01*
X1244280Y1347942D02*
X1246835Y1347942D01*
X1246679Y1345544D02*
X1248600Y1345544D01*
X1239031Y1340747D02*
X1167331Y1340747D01*
X1156071Y1340747D02*
X1147331Y1340747D01*
X1145619Y1342459D02*
X1137783Y1342459D01*
X1132242Y1336918D01*
X1132242Y1329082D01*
X1137783Y1323541D01*
X1145619Y1323541D01*
X1151160Y1329082D01*
X1151160Y1336918D01*
X1145619Y1342459D01*
X1145619Y1347557D02*
X1151160Y1353098D01*
X1151160Y1360934D01*
X1145619Y1366475D01*
X1137783Y1366475D01*
X1132242Y1360934D01*
X1132242Y1353098D01*
X1137783Y1347557D01*
X1145619Y1347557D01*
X1146005Y1347942D02*
X1157397Y1347942D01*
X1154998Y1350341D02*
X1148403Y1350341D01*
X1150802Y1352739D02*
X1152600Y1352739D01*
X1152242Y1355138D02*
X1151160Y1355138D01*
X1151160Y1357537D02*
X1152242Y1357537D01*
X1152242Y1359935D02*
X1151160Y1359935D01*
X1149760Y1362334D02*
X1153641Y1362334D01*
X1156040Y1364732D02*
X1147362Y1364732D01*
X1136040Y1364732D02*
X1079960Y1364732D01*
X1082359Y1362334D02*
X1133641Y1362334D01*
X1132242Y1359935D02*
X1083758Y1359935D01*
X1083758Y1357537D02*
X1132242Y1357537D01*
X1132242Y1355138D02*
X1083758Y1355138D01*
X1083400Y1352739D02*
X1132600Y1352739D01*
X1134998Y1350341D02*
X1081002Y1350341D01*
X1078603Y1347942D02*
X1137397Y1347942D01*
X1136071Y1340747D02*
X1123347Y1340747D01*
X1121835Y1342259D02*
X1119200Y1342259D01*
X1119200Y1334200D01*
X1127259Y1334200D01*
X1127259Y1336835D01*
X1121835Y1342259D01*
X1119200Y1340747D02*
X1116800Y1340747D01*
X1116800Y1342259D02*
X1114165Y1342259D01*
X1108741Y1336835D01*
X1108741Y1334200D01*
X1116800Y1334200D01*
X1116800Y1342259D01*
X1116800Y1338348D02*
X1119200Y1338348D01*
X1119200Y1335950D02*
X1116800Y1335950D01*
X1116800Y1334200D02*
X1119200Y1334200D01*
X1119200Y1331800D01*
X1127259Y1331800D01*
X1127259Y1329165D01*
X1121835Y1323741D01*
X1119200Y1323741D01*
X1119200Y1331800D01*
X1116800Y1331800D01*
X1116800Y1323741D01*
X1114165Y1323741D01*
X1108741Y1329165D01*
X1108741Y1331800D01*
X1116800Y1331800D01*
X1116800Y1334200D01*
X1116800Y1333551D02*
X1099200Y1333551D01*
X1099200Y1334200D02*
X1107259Y1334200D01*
X1107259Y1336835D01*
X1101835Y1342259D01*
X1099200Y1342259D01*
X1099200Y1334200D01*
X1099200Y1331800D01*
X1107259Y1331800D01*
X1107259Y1329165D01*
X1101835Y1323741D01*
X1099200Y1323741D01*
X1099200Y1331800D01*
X1096800Y1331800D01*
X1096800Y1323741D01*
X1094165Y1323741D01*
X1088741Y1329165D01*
X1088741Y1331800D01*
X1096800Y1331800D01*
X1096800Y1334200D01*
X1096800Y1342259D01*
X1094165Y1342259D01*
X1088741Y1336835D01*
X1088741Y1334200D01*
X1096800Y1334200D01*
X1099200Y1334200D01*
X1099200Y1335950D02*
X1096800Y1335950D01*
X1096800Y1338348D02*
X1099200Y1338348D01*
X1099200Y1340747D02*
X1096800Y1340747D01*
X1092653Y1340747D02*
X1079929Y1340747D01*
X1082328Y1338348D02*
X1090254Y1338348D01*
X1088741Y1335950D02*
X1083758Y1335950D01*
X1083758Y1333551D02*
X1096800Y1333551D01*
X1096800Y1331153D02*
X1099200Y1331153D01*
X1099200Y1328754D02*
X1096800Y1328754D01*
X1096800Y1326356D02*
X1099200Y1326356D01*
X1099200Y1323957D02*
X1096800Y1323957D01*
X1093948Y1323957D02*
X1078634Y1323957D01*
X1081032Y1326356D02*
X1091550Y1326356D01*
X1089151Y1328754D02*
X1083431Y1328754D01*
X1083758Y1331153D02*
X1088741Y1331153D01*
X1094082Y1318168D02*
X1088541Y1312627D01*
X1088541Y1304791D01*
X1094082Y1299250D01*
X1101918Y1299250D01*
X1107459Y1304791D01*
X1107459Y1312627D01*
X1101918Y1318168D01*
X1094082Y1318168D01*
X1092676Y1316762D02*
X1079623Y1316762D01*
X1082022Y1314363D02*
X1090278Y1314363D01*
X1088541Y1311965D02*
X1083758Y1311965D01*
X1083758Y1309566D02*
X1088541Y1309566D01*
X1088541Y1307168D02*
X1083758Y1307168D01*
X1083737Y1304769D02*
X1088562Y1304769D01*
X1090961Y1302371D02*
X1081338Y1302371D01*
X1078940Y1299972D02*
X1093359Y1299972D01*
X1102641Y1299972D02*
X1113359Y1299972D01*
X1114082Y1299250D02*
X1121918Y1299250D01*
X1127459Y1304791D01*
X1127459Y1312627D01*
X1121918Y1318168D01*
X1114082Y1318168D01*
X1108541Y1312627D01*
X1108541Y1304791D01*
X1114082Y1299250D01*
X1110961Y1302371D02*
X1105039Y1302371D01*
X1107438Y1304769D02*
X1108562Y1304769D01*
X1108541Y1307168D02*
X1107459Y1307168D01*
X1107459Y1309566D02*
X1108541Y1309566D01*
X1108541Y1311965D02*
X1107459Y1311965D01*
X1105722Y1314363D02*
X1110278Y1314363D01*
X1112676Y1316762D02*
X1103324Y1316762D01*
X1102052Y1323957D02*
X1113948Y1323957D01*
X1116800Y1323957D02*
X1119200Y1323957D01*
X1119200Y1326356D02*
X1116800Y1326356D01*
X1116800Y1328754D02*
X1119200Y1328754D01*
X1119200Y1331153D02*
X1116800Y1331153D01*
X1119200Y1333551D02*
X1132242Y1333551D01*
X1132242Y1331153D02*
X1127259Y1331153D01*
X1126849Y1328754D02*
X1132569Y1328754D01*
X1134968Y1326356D02*
X1124450Y1326356D01*
X1122052Y1323957D02*
X1137366Y1323957D01*
X1137783Y1318168D02*
X1132242Y1312627D01*
X1132242Y1304791D01*
X1137783Y1299250D01*
X1145619Y1299250D01*
X1151160Y1304791D01*
X1151160Y1312627D01*
X1145619Y1318168D01*
X1137783Y1318168D01*
X1136377Y1316762D02*
X1123324Y1316762D01*
X1125722Y1314363D02*
X1133978Y1314363D01*
X1132242Y1311965D02*
X1127459Y1311965D01*
X1127459Y1309566D02*
X1132242Y1309566D01*
X1132242Y1307168D02*
X1127459Y1307168D01*
X1127438Y1304769D02*
X1132263Y1304769D01*
X1134662Y1302371D02*
X1125039Y1302371D01*
X1122641Y1299972D02*
X1137060Y1299972D01*
X1146341Y1299972D02*
X1157060Y1299972D01*
X1154662Y1302371D02*
X1148740Y1302371D01*
X1151138Y1304769D02*
X1152263Y1304769D01*
X1152242Y1307168D02*
X1151160Y1307168D01*
X1151160Y1309566D02*
X1152242Y1309566D01*
X1152242Y1311965D02*
X1151160Y1311965D01*
X1149423Y1314363D02*
X1153978Y1314363D01*
X1156377Y1316762D02*
X1147025Y1316762D01*
X1146035Y1323957D02*
X1157366Y1323957D01*
X1154968Y1326356D02*
X1148434Y1326356D01*
X1150832Y1328754D02*
X1152569Y1328754D01*
X1152242Y1331153D02*
X1151160Y1331153D01*
X1151160Y1333551D02*
X1152242Y1333551D01*
X1152242Y1335950D02*
X1151160Y1335950D01*
X1149729Y1338348D02*
X1153672Y1338348D01*
X1133672Y1338348D02*
X1125746Y1338348D01*
X1127259Y1335950D02*
X1132242Y1335950D01*
X1112653Y1340747D02*
X1103347Y1340747D01*
X1105746Y1338348D02*
X1110254Y1338348D01*
X1108741Y1335950D02*
X1107259Y1335950D01*
X1107259Y1331153D02*
X1108741Y1331153D01*
X1109151Y1328754D02*
X1106849Y1328754D01*
X1104450Y1326356D02*
X1111550Y1326356D01*
X1049965Y1323957D02*
X0740900Y1323957D01*
X0740900Y1326356D02*
X1047566Y1326356D01*
X1045168Y1328754D02*
X0740900Y1328754D01*
X0740900Y1331153D02*
X1044840Y1331153D01*
X1044840Y1333551D02*
X0740900Y1333551D01*
X0740900Y1335950D02*
X1044840Y1335950D01*
X1046271Y1338348D02*
X0740900Y1338348D01*
X0735100Y1338348D02*
X0676586Y1338348D01*
X0678371Y1340747D02*
X0735100Y1340747D01*
X0735100Y1343145D02*
X0679200Y1343145D01*
X0679200Y1345544D02*
X0735100Y1345544D01*
X0741680Y1350341D02*
X0863887Y1350341D01*
X0861028Y1352739D02*
X0742483Y1352739D01*
X0742201Y1355138D02*
X0859823Y1355138D01*
X0887043Y1379123D02*
X0893957Y1379123D01*
X0892551Y1381522D02*
X0888449Y1381522D01*
X0888600Y1383920D02*
X0892400Y1383920D01*
X0893399Y1386319D02*
X0887601Y1386319D01*
X0814264Y1371928D02*
X0689681Y1371928D01*
X0687415Y1374326D02*
X0811866Y1374326D01*
X0773000Y1307168D02*
X0773000Y1307168D01*
X0773000Y1304769D02*
X0773000Y1304769D01*
X0735763Y1316762D02*
X1048975Y1316762D01*
X1046577Y1314363D02*
X0733365Y1314363D01*
X0730966Y1311965D02*
X1044840Y1311965D01*
X1044857Y1252483D02*
X1041143Y1252483D01*
X1038517Y1249857D01*
X1038517Y1246143D01*
X1041143Y1243517D01*
X1042674Y1243517D01*
X1063517Y1222674D01*
X1063517Y1221143D01*
X1066143Y1218517D01*
X1069857Y1218517D01*
X1072483Y1221143D01*
X1072483Y1224857D01*
X1069857Y1227483D01*
X1068326Y1227483D01*
X1047483Y1248326D01*
X1047483Y1249857D01*
X1044857Y1252483D01*
X1045337Y1252002D02*
X1243600Y1252002D01*
X1243600Y1254401D02*
X0715200Y1254401D01*
X0715200Y1256799D02*
X1243600Y1256799D01*
X1243600Y1249603D02*
X1047483Y1249603D01*
X1048603Y1247205D02*
X1215866Y1247205D01*
X1213517Y1244806D02*
X1051002Y1244806D01*
X1053400Y1242408D02*
X1213517Y1242408D01*
X1214651Y1240009D02*
X1167340Y1240009D01*
X1166687Y1240662D02*
X1164300Y1240662D01*
X1164300Y1234900D01*
X1170062Y1234900D01*
X1170062Y1237287D01*
X1166687Y1240662D01*
X1164300Y1240662D02*
X1161913Y1240662D01*
X1159441Y1238190D01*
X1156770Y1240862D01*
X1151830Y1240862D01*
X1148338Y1237370D01*
X1148338Y1232430D01*
X1151830Y1228938D01*
X1156770Y1228938D01*
X1159441Y1231610D01*
X1161913Y1229138D01*
X1164300Y1229138D01*
X1166687Y1229138D01*
X1170062Y1232513D01*
X1170062Y1234900D01*
X1164300Y1234900D01*
X1164300Y1234900D01*
X1164300Y1234900D01*
X1164300Y1229138D01*
X1164300Y1234900D01*
X1164300Y1234900D01*
X1164300Y1240662D01*
X1164300Y1240009D02*
X1164300Y1240009D01*
X1164300Y1237611D02*
X1164300Y1237611D01*
X1164300Y1235212D02*
X1164300Y1235212D01*
X1164300Y1232814D02*
X1164300Y1232814D01*
X1164300Y1230415D02*
X1164300Y1230415D01*
X1167964Y1230415D02*
X1215100Y1230415D01*
X1215100Y1228017D02*
X1140603Y1228017D01*
X1141172Y1228253D02*
X1142747Y1229828D01*
X1143600Y1231886D01*
X1143600Y1234114D01*
X1142747Y1236172D01*
X1141172Y1237747D01*
X1139114Y1238600D01*
X1136886Y1238600D01*
X1134828Y1237747D01*
X1133253Y1236172D01*
X1132400Y1234114D01*
X1132400Y1231886D01*
X1133253Y1229828D01*
X1134828Y1228253D01*
X1136886Y1227400D01*
X1139114Y1227400D01*
X1141172Y1228253D01*
X1142991Y1230415D02*
X1150353Y1230415D01*
X1148338Y1232814D02*
X1143600Y1232814D01*
X1143145Y1235212D02*
X1148338Y1235212D01*
X1148579Y1237611D02*
X1141309Y1237611D01*
X1134691Y1237611D02*
X1058197Y1237611D01*
X1055799Y1240009D02*
X1150978Y1240009D01*
X1157622Y1240009D02*
X1161260Y1240009D01*
X1169738Y1237611D02*
X1215100Y1237611D01*
X1215100Y1235212D02*
X1170062Y1235212D01*
X1170062Y1232814D02*
X1215100Y1232814D01*
X1220900Y1232814D02*
X1243600Y1232814D01*
X1243600Y1235212D02*
X1220900Y1235212D01*
X1220900Y1237611D02*
X1243600Y1237611D01*
X1243600Y1240009D02*
X1221349Y1240009D01*
X1222483Y1242408D02*
X1243600Y1242408D01*
X1243600Y1244806D02*
X1222483Y1244806D01*
X1220134Y1247205D02*
X1243600Y1247205D01*
X1243600Y1230415D02*
X1220900Y1230415D01*
X1220900Y1228017D02*
X1243600Y1228017D01*
X1243600Y1225618D02*
X1220900Y1225618D01*
X1209279Y1225618D02*
X1071721Y1225618D01*
X1072483Y1223220D02*
X1208517Y1223220D01*
X1208432Y1220821D02*
X1072161Y1220821D01*
X1063839Y1220821D02*
X0739421Y1220821D01*
X0741820Y1218423D02*
X1186791Y1218423D01*
X1185138Y1216770D02*
X1185138Y1211830D01*
X1187810Y1209159D01*
X1185338Y1206687D01*
X1185338Y1204300D01*
X1191100Y1204300D01*
X1196862Y1204300D01*
X1196862Y1206687D01*
X1194390Y1209159D01*
X1197062Y1211830D01*
X1197062Y1216770D01*
X1193570Y1220262D01*
X1188630Y1220262D01*
X1185138Y1216770D01*
X1185138Y1216024D02*
X0746315Y1216024D01*
X0747483Y1213626D02*
X1185138Y1213626D01*
X1185741Y1211227D02*
X0747483Y1211227D01*
X0745168Y1208829D02*
X1187480Y1208829D01*
X1185338Y1206430D02*
X0690835Y1206430D01*
X0691155Y1207028D02*
X0691702Y1208348D01*
X0692116Y1209714D01*
X0692395Y1211115D01*
X0692487Y1212050D01*
X0679200Y1212050D01*
X0679200Y1214450D01*
X0692487Y1214450D01*
X0692395Y1215385D01*
X0692116Y1216786D01*
X0691702Y1218152D01*
X0691155Y1219472D01*
X0690482Y1220731D01*
X0689688Y1221919D01*
X0688782Y1223023D01*
X0687773Y1224032D01*
X0686669Y1224938D01*
X0685481Y1225732D01*
X0684222Y1226405D01*
X0682902Y1226952D01*
X0681536Y1227366D01*
X0680135Y1227645D01*
X0679200Y1227737D01*
X0679200Y1214450D01*
X0676800Y1214450D01*
X0676800Y1227737D01*
X0675865Y1227645D01*
X0674464Y1227366D01*
X0673098Y1226952D01*
X0671778Y1226405D01*
X0670519Y1225732D01*
X0669331Y1224938D01*
X0668227Y1224032D01*
X0667218Y1223023D01*
X0666312Y1221919D01*
X0665518Y1220731D01*
X0664845Y1219472D01*
X0664298Y1218152D01*
X0663884Y1216786D01*
X0663605Y1215385D01*
X0663513Y1214450D01*
X0676800Y1214450D01*
X0676800Y1212050D01*
X0679200Y1212050D01*
X0679200Y1198763D01*
X0680135Y1198855D01*
X0681536Y1199134D01*
X0682902Y1199548D01*
X0684222Y1200095D01*
X0685481Y1200768D01*
X0686669Y1201562D01*
X0687773Y1202468D01*
X0688782Y1203477D01*
X0689688Y1204581D01*
X0690482Y1205769D01*
X0691155Y1207028D01*
X0691847Y1208829D02*
X0740832Y1208829D01*
X0738517Y1211227D02*
X0692406Y1211227D01*
X0692268Y1216024D02*
X0735733Y1216024D01*
X0738132Y1213626D02*
X0679200Y1213626D01*
X0679200Y1216024D02*
X0676800Y1216024D01*
X0676800Y1213626D02*
X0645400Y1213626D01*
X0645400Y1216024D02*
X0663732Y1216024D01*
X0664410Y1218423D02*
X0645400Y1218423D01*
X0645400Y1220821D02*
X0665578Y1220821D01*
X0667415Y1223220D02*
X0645400Y1223220D01*
X0645400Y1225618D02*
X0670349Y1225618D01*
X0669895Y1230415D02*
X0645400Y1230415D01*
X0645400Y1228017D02*
X0676054Y1228017D01*
X0676800Y1225618D02*
X0679200Y1225618D01*
X0679200Y1223220D02*
X0676800Y1223220D01*
X0676800Y1220821D02*
X0679200Y1220821D01*
X0679200Y1218423D02*
X0676800Y1218423D01*
X0676800Y1212050D02*
X0663513Y1212050D01*
X0663605Y1211115D01*
X0663884Y1209714D01*
X0664298Y1208348D01*
X0664845Y1207028D01*
X0665518Y1205769D01*
X0666312Y1204581D01*
X0667218Y1203477D01*
X0668227Y1202468D01*
X0668382Y1202341D01*
X0666198Y1201436D01*
X0663864Y1199102D01*
X0662600Y1196051D01*
X0662600Y1192749D01*
X0663864Y1189698D01*
X0666198Y1187364D01*
X0669249Y1186100D01*
X0672551Y1186100D01*
X0675602Y1187364D01*
X0677936Y1189698D01*
X0679200Y1192749D01*
X0679200Y1196051D01*
X0677936Y1199102D01*
X0676800Y1200238D01*
X0676800Y1212050D01*
X0676800Y1211227D02*
X0679200Y1211227D01*
X0679200Y1208829D02*
X0676800Y1208829D01*
X0676800Y1206430D02*
X0679200Y1206430D01*
X0679200Y1204032D02*
X0676800Y1204032D01*
X0676800Y1201633D02*
X0679200Y1201633D01*
X0679200Y1199235D02*
X0677803Y1199235D01*
X0678875Y1196836D02*
X1110548Y1196836D01*
X1108744Y1194438D02*
X0679200Y1194438D01*
X0678906Y1192039D02*
X1108546Y1192039D01*
X1110020Y1189641D02*
X0677879Y1189641D01*
X0675308Y1187242D02*
X1114515Y1187242D01*
X1116914Y1184844D02*
X0645400Y1184844D01*
X0645400Y1187242D02*
X0666491Y1187242D01*
X0663921Y1189641D02*
X0645400Y1189641D01*
X0645400Y1192039D02*
X0662894Y1192039D01*
X0662600Y1194438D02*
X0645400Y1194438D01*
X0645400Y1196836D02*
X0662925Y1196836D01*
X0663997Y1199235D02*
X0645400Y1199235D01*
X0645400Y1201633D02*
X0666674Y1201633D01*
X0666763Y1204032D02*
X0645400Y1204032D01*
X0645400Y1206430D02*
X0665165Y1206430D01*
X0664152Y1208829D02*
X0645400Y1208829D01*
X0645400Y1211227D02*
X0663594Y1211227D01*
X0681868Y1199235D02*
X1187603Y1199235D01*
X1187810Y1199441D02*
X1185138Y1196770D01*
X1185138Y1191830D01*
X1187668Y1189300D01*
X1185138Y1186770D01*
X1185138Y1181830D01*
X1188630Y1178338D01*
X1193570Y1178338D01*
X1197062Y1181830D01*
X1197062Y1186770D01*
X1194532Y1189300D01*
X1197062Y1191830D01*
X1197062Y1196770D01*
X1194390Y1199441D01*
X1196862Y1201913D01*
X1196862Y1204300D01*
X1191100Y1204300D01*
X1191100Y1204300D01*
X1191100Y1204300D01*
X1185338Y1204300D01*
X1185338Y1201913D01*
X1187810Y1199441D01*
X1185618Y1201633D02*
X0686756Y1201633D01*
X0689237Y1204032D02*
X1185338Y1204032D01*
X1185204Y1196836D02*
X1115452Y1196836D01*
X1117256Y1194438D02*
X1185138Y1194438D01*
X1185138Y1192039D02*
X1118203Y1192039D01*
X1120602Y1189641D02*
X1187327Y1189641D01*
X1185610Y1187242D02*
X1123000Y1187242D01*
X1125399Y1184844D02*
X1185138Y1184844D01*
X1185138Y1182445D02*
X1127797Y1182445D01*
X1130196Y1180047D02*
X1186922Y1180047D01*
X1195278Y1180047D02*
X1207700Y1180047D01*
X1207700Y1182445D02*
X1197062Y1182445D01*
X1197062Y1184844D02*
X1207700Y1184844D01*
X1207700Y1187242D02*
X1196590Y1187242D01*
X1194873Y1189641D02*
X1207700Y1189641D01*
X1207700Y1192039D02*
X1197062Y1192039D01*
X1197062Y1194438D02*
X1207700Y1194438D01*
X1207700Y1196836D02*
X1196996Y1196836D01*
X1194597Y1199235D02*
X1207700Y1199235D01*
X1207700Y1201633D02*
X1196582Y1201633D01*
X1196862Y1204032D02*
X1207700Y1204032D01*
X1207700Y1206430D02*
X1196862Y1206430D01*
X1194720Y1208829D02*
X1207700Y1208829D01*
X1207700Y1211227D02*
X1196459Y1211227D01*
X1197062Y1213626D02*
X1207700Y1213626D01*
X1207700Y1216024D02*
X1197062Y1216024D01*
X1195409Y1218423D02*
X1207700Y1218423D01*
X1207700Y1177648D02*
X1132594Y1177648D01*
X1134993Y1175250D02*
X1207700Y1175250D01*
X1205078Y1172851D02*
X1137391Y1172851D01*
X1133703Y1168054D02*
X0645400Y1168054D01*
X0645400Y1165656D02*
X0803879Y1165656D01*
X0803100Y1165333D02*
X0800667Y1162900D01*
X0799350Y1159721D01*
X0799350Y1156279D01*
X0800667Y1153100D01*
X0803100Y1150667D01*
X0806279Y1149350D01*
X0809721Y1149350D01*
X0812900Y1150667D01*
X0815333Y1153100D01*
X0816650Y1156279D01*
X0816650Y1159721D01*
X0815333Y1162900D01*
X0812900Y1165333D01*
X0809721Y1166650D01*
X0806279Y1166650D01*
X0803100Y1165333D01*
X0801024Y1163257D02*
X0645400Y1163257D01*
X0645400Y1160859D02*
X0799821Y1160859D01*
X0799350Y1158460D02*
X0689978Y1158460D01*
X0689802Y1158636D02*
X0686751Y1159900D01*
X0683449Y1159900D01*
X0680398Y1158636D01*
X0678064Y1156302D01*
X0676800Y1153251D01*
X0676800Y1149949D01*
X0678064Y1146898D01*
X0679200Y1145762D01*
X0679200Y1133950D01*
X0676800Y1133950D01*
X0676800Y1147237D01*
X0675865Y1147145D01*
X0674464Y1146866D01*
X0673098Y1146452D01*
X0671778Y1145905D01*
X0670519Y1145232D01*
X0669331Y1144438D01*
X0668227Y1143532D01*
X0667218Y1142523D01*
X0666312Y1141419D01*
X0665518Y1140231D01*
X0664845Y1138972D01*
X0664298Y1137652D01*
X0663884Y1136286D01*
X0663605Y1134885D01*
X0663513Y1133950D01*
X0676800Y1133950D01*
X0676800Y1131550D01*
X0663513Y1131550D01*
X0663605Y1130615D01*
X0663884Y1129214D01*
X0664298Y1127848D01*
X0664845Y1126528D01*
X0665518Y1125269D01*
X0666312Y1124081D01*
X0667218Y1122977D01*
X0668227Y1121968D01*
X0669331Y1121062D01*
X0670519Y1120268D01*
X0671778Y1119595D01*
X0673098Y1119048D01*
X0674464Y1118634D01*
X0675865Y1118355D01*
X0676800Y1118263D01*
X0676800Y1131550D01*
X0679200Y1131550D01*
X0679200Y1133950D01*
X0692487Y1133950D01*
X0692395Y1134885D01*
X0692116Y1136286D01*
X0691702Y1137652D01*
X0691155Y1138972D01*
X0690482Y1140231D01*
X0689688Y1141419D01*
X0688782Y1142523D01*
X0687773Y1143532D01*
X0687618Y1143659D01*
X0689802Y1144564D01*
X0692136Y1146898D01*
X0693400Y1149949D01*
X0693400Y1153251D01*
X0692136Y1156302D01*
X0689802Y1158636D01*
X0692236Y1156062D02*
X0799440Y1156062D01*
X0800434Y1153663D02*
X0693229Y1153663D01*
X0693400Y1151265D02*
X0802503Y1151265D01*
X0813497Y1151265D02*
X0989356Y1151265D01*
X0989350Y1151279D02*
X0990667Y1148100D01*
X0993100Y1145667D01*
X0996279Y1144350D01*
X0999721Y1144350D01*
X1002900Y1145667D01*
X1005333Y1148100D01*
X1006650Y1151279D01*
X1006650Y1154721D01*
X1005333Y1157900D01*
X1002900Y1160333D01*
X0999721Y1161650D01*
X0996279Y1161650D01*
X0993100Y1160333D01*
X0990667Y1157900D01*
X0989350Y1154721D01*
X0989350Y1151279D01*
X0989350Y1153663D02*
X0815566Y1153663D01*
X0816560Y1156062D02*
X0989905Y1156062D01*
X0991227Y1158460D02*
X0816650Y1158460D01*
X0816179Y1160859D02*
X0994369Y1160859D01*
X1001631Y1160859D02*
X1207700Y1160859D01*
X1207700Y1158460D02*
X1004773Y1158460D01*
X1006095Y1156062D02*
X1207700Y1156062D01*
X1207700Y1153663D02*
X1006650Y1153663D01*
X1006644Y1151265D02*
X1207700Y1151265D01*
X1207700Y1148866D02*
X1005650Y1148866D01*
X1003700Y1146468D02*
X1207700Y1146468D01*
X1207700Y1144069D02*
X0688607Y1144069D01*
X0689482Y1141670D02*
X1207700Y1141670D01*
X1207700Y1139272D02*
X0690995Y1139272D01*
X0691938Y1136873D02*
X1207730Y1136873D01*
X1209030Y1134475D02*
X0692435Y1134475D01*
X0692487Y1131550D02*
X0679200Y1131550D01*
X0679200Y1118263D01*
X0680135Y1118355D01*
X0681536Y1118634D01*
X0682902Y1119048D01*
X0684222Y1119595D01*
X0685481Y1120268D01*
X0686669Y1121062D01*
X0687773Y1121968D01*
X0688782Y1122977D01*
X0689688Y1124081D01*
X0690482Y1125269D01*
X0691155Y1126528D01*
X0691702Y1127848D01*
X0692116Y1129214D01*
X0692395Y1130615D01*
X0692487Y1131550D01*
X0692208Y1129678D02*
X1281600Y1129678D01*
X1281600Y1132076D02*
X0679200Y1132076D01*
X0679200Y1129678D02*
X0676800Y1129678D01*
X0676800Y1132076D02*
X0645400Y1132076D01*
X0645400Y1129678D02*
X0663792Y1129678D01*
X0664534Y1127279D02*
X0645400Y1127279D01*
X0645400Y1124881D02*
X0665777Y1124881D01*
X0667713Y1122482D02*
X0645400Y1122482D01*
X0645400Y1120084D02*
X0670863Y1120084D01*
X0672313Y1116980D02*
X0668953Y1115041D01*
X0666209Y1112297D01*
X0664270Y1108937D01*
X0663265Y1105190D01*
X0663265Y1101310D01*
X0664270Y1097563D01*
X0666209Y1094203D01*
X0668953Y1091459D01*
X0672313Y1089520D01*
X0676060Y1088515D01*
X0677821Y1088515D01*
X0676800Y1086051D01*
X0676800Y1082749D01*
X0678064Y1079698D01*
X0680398Y1077364D01*
X0683449Y1076100D01*
X0686751Y1076100D01*
X0689802Y1077364D01*
X0692136Y1079698D01*
X0693400Y1082749D01*
X0693400Y1086051D01*
X0692136Y1089102D01*
X0689802Y1091436D01*
X0687838Y1092250D01*
X0689791Y1094203D01*
X0691730Y1097563D01*
X0692735Y1101310D01*
X0692735Y1105190D01*
X0691730Y1108937D01*
X0689791Y1112297D01*
X0687047Y1115041D01*
X0683687Y1116980D01*
X0679940Y1117985D01*
X0676060Y1117985D01*
X0672313Y1116980D01*
X0674943Y1117685D02*
X0645400Y1117685D01*
X0645400Y1115287D02*
X0669379Y1115287D01*
X0666800Y1112888D02*
X0645400Y1112888D01*
X0645400Y1110490D02*
X0665166Y1110490D01*
X0664043Y1108091D02*
X0645400Y1108091D01*
X0645400Y1105693D02*
X0663400Y1105693D01*
X0663265Y1103294D02*
X0645400Y1103294D01*
X0645400Y1100896D02*
X0663376Y1100896D01*
X0664019Y1098497D02*
X0645400Y1098497D01*
X0645400Y1096099D02*
X0665115Y1096099D01*
X0666712Y1093700D02*
X0645400Y1093700D01*
X0645400Y1091302D02*
X0669226Y1091302D01*
X0674613Y1088903D02*
X0645400Y1088903D01*
X0645400Y1086505D02*
X0676988Y1086505D01*
X0676800Y1084106D02*
X0645400Y1084106D01*
X0645400Y1081708D02*
X0677231Y1081708D01*
X0678453Y1079309D02*
X0645400Y1079309D01*
X0645400Y1076911D02*
X0681492Y1076911D01*
X0688708Y1076911D02*
X1010571Y1076911D01*
X1011143Y1077483D02*
X1008517Y1074857D01*
X1008517Y1071143D01*
X1008761Y1070900D01*
X0946439Y1070900D01*
X0944857Y1072483D01*
X0941143Y1072483D01*
X0938517Y1069857D01*
X0938517Y1066143D01*
X0941143Y1063517D01*
X0944857Y1063517D01*
X0946439Y1065100D01*
X1014561Y1065100D01*
X1016143Y1063517D01*
X1019857Y1063517D01*
X1022483Y1066143D01*
X1022483Y1068381D01*
X1049201Y1095100D01*
X1143577Y1095100D01*
X1144643Y1095541D01*
X1157843Y1108741D01*
X1158658Y1109557D01*
X1159100Y1110623D01*
X1159100Y1111240D01*
X1159372Y1111353D01*
X1160947Y1112928D01*
X1161800Y1114986D01*
X1161800Y1117214D01*
X1160947Y1119272D01*
X1159372Y1120847D01*
X1157314Y1121700D01*
X1155086Y1121700D01*
X1153028Y1120847D01*
X1151453Y1119272D01*
X1151200Y1118662D01*
X1150947Y1119272D01*
X1149372Y1120847D01*
X1147314Y1121700D01*
X1145086Y1121700D01*
X1143028Y1120847D01*
X1141453Y1119272D01*
X1140600Y1117214D01*
X1140600Y1114986D01*
X1140713Y1114714D01*
X1131899Y1105900D01*
X1042423Y1105900D01*
X1041357Y1105458D01*
X1013381Y1077483D01*
X1011143Y1077483D01*
X1008517Y1074512D02*
X0645400Y1074512D01*
X0645400Y1072114D02*
X0940774Y1072114D01*
X0938517Y1069715D02*
X0645400Y1069715D01*
X0645400Y1067317D02*
X0938517Y1067317D01*
X0939742Y1064918D02*
X0645400Y1064918D01*
X0645400Y1062520D02*
X1038277Y1062520D01*
X1040675Y1064918D02*
X1021258Y1064918D01*
X1022483Y1067317D02*
X1043074Y1067317D01*
X1045473Y1069715D02*
X1023816Y1069715D01*
X1026215Y1072114D02*
X1047871Y1072114D01*
X1050270Y1074512D02*
X1028613Y1074512D01*
X1031012Y1076911D02*
X1052668Y1076911D01*
X1053690Y1079309D02*
X1033410Y1079309D01*
X1035809Y1081708D02*
X1055368Y1081708D01*
X1060632Y1081708D02*
X1115348Y1081708D01*
X1115348Y1084106D02*
X1038207Y1084106D01*
X1040606Y1086505D02*
X1116185Y1086505D01*
X1116389Y1086708D02*
X1115713Y1086033D01*
X1115348Y1085151D01*
X1115348Y1078449D01*
X1115713Y1077567D01*
X1116389Y1076892D01*
X1117271Y1076527D01*
X1123972Y1076527D01*
X1124854Y1076892D01*
X1125529Y1077567D01*
X1125894Y1078449D01*
X1125894Y1085151D01*
X1125529Y1086033D01*
X1124854Y1086708D01*
X1123972Y1087073D01*
X1117271Y1087073D01*
X1116389Y1086708D01*
X1115348Y1079309D02*
X1062310Y1079309D01*
X1062401Y1076911D02*
X1116370Y1076911D01*
X1124873Y1076911D02*
X1156997Y1076911D01*
X1157056Y1076877D02*
X1157616Y1076727D01*
X1160779Y1076727D01*
X1163942Y1076727D01*
X1164501Y1076877D01*
X1165003Y1077166D01*
X1165412Y1077576D01*
X1165702Y1078078D01*
X1165852Y1078637D01*
X1165852Y1081800D01*
X1165852Y1084963D01*
X1165702Y1085522D01*
X1165412Y1086024D01*
X1165003Y1086434D01*
X1164501Y1086723D01*
X1163942Y1086873D01*
X1160779Y1086873D01*
X1160779Y1081800D01*
X1165852Y1081800D01*
X1160779Y1081800D01*
X1160779Y1081800D01*
X1160779Y1081800D01*
X1160779Y1076727D01*
X1160779Y1081800D01*
X1160779Y1081800D01*
X1160779Y1086873D01*
X1157616Y1086873D01*
X1157056Y1086723D01*
X1156555Y1086434D01*
X1156145Y1086024D01*
X1155855Y1085522D01*
X1155706Y1084963D01*
X1155706Y1081800D01*
X1155706Y1078637D01*
X1155855Y1078078D01*
X1156145Y1077576D01*
X1156555Y1077166D01*
X1157056Y1076877D01*
X1155706Y1079309D02*
X1125894Y1079309D01*
X1125894Y1081708D02*
X1155706Y1081708D01*
X1155706Y1081800D02*
X1160779Y1081800D01*
X1160779Y1081800D01*
X1155706Y1081800D01*
X1155706Y1084106D02*
X1125894Y1084106D01*
X1125057Y1086505D02*
X1156678Y1086505D01*
X1160779Y1086505D02*
X1160779Y1086505D01*
X1160779Y1084106D02*
X1160779Y1084106D01*
X1160779Y1081708D02*
X1160779Y1081708D01*
X1160779Y1079309D02*
X1160779Y1079309D01*
X1160779Y1076911D02*
X1160779Y1076911D01*
X1164560Y1076911D02*
X1281600Y1076911D01*
X1281600Y1079309D02*
X1190289Y1079309D01*
X1190428Y1079367D02*
X1191633Y1080572D01*
X1192286Y1082147D01*
X1192286Y1083852D01*
X1191633Y1085428D01*
X1190428Y1086633D01*
X1188852Y1087286D01*
X1187815Y1087286D01*
X1185001Y1090100D01*
X1202808Y1090100D01*
X1202400Y1089114D01*
X1202400Y1086886D01*
X1203253Y1084828D01*
X1204828Y1083253D01*
X1206886Y1082400D01*
X1209114Y1082400D01*
X1211172Y1083253D01*
X1212747Y1084828D01*
X1213600Y1086886D01*
X1213600Y1089114D01*
X1213212Y1090051D01*
X1213896Y1089367D01*
X1215472Y1088714D01*
X1217177Y1088714D01*
X1218752Y1089367D01*
X1219957Y1090572D01*
X1220158Y1091057D01*
X1220458Y1091357D01*
X1221319Y1092218D01*
X1222445Y1091091D01*
X1224021Y1090438D01*
X1225726Y1090438D01*
X1227301Y1091091D01*
X1228507Y1092297D01*
X1229159Y1093872D01*
X1229159Y1094950D01*
X1232856Y1098714D01*
X1233852Y1098714D01*
X1235428Y1099367D01*
X1236633Y1100572D01*
X1237286Y1102147D01*
X1237286Y1103852D01*
X1236633Y1105428D01*
X1236561Y1105500D01*
X1236633Y1105572D01*
X1237286Y1107147D01*
X1237286Y1108185D01*
X1240989Y1111888D01*
X1244839Y1111888D01*
X1245572Y1111155D01*
X1247147Y1110502D01*
X1248852Y1110502D01*
X1250428Y1111155D01*
X1251633Y1112360D01*
X1252286Y1113936D01*
X1252286Y1115641D01*
X1251633Y1117216D01*
X1250428Y1118422D01*
X1248852Y1119074D01*
X1247147Y1119074D01*
X1245572Y1118422D01*
X1244839Y1117688D01*
X1239211Y1117688D01*
X1238145Y1117247D01*
X1233185Y1112286D01*
X1232147Y1112286D01*
X1230572Y1111633D01*
X1229367Y1110428D01*
X1228714Y1108852D01*
X1228714Y1107815D01*
X1217889Y1096991D01*
X1217177Y1097286D01*
X1215472Y1097286D01*
X1213896Y1096633D01*
X1213163Y1095900D01*
X1181161Y1095900D01*
X1180428Y1096633D01*
X1178852Y1097286D01*
X1177147Y1097286D01*
X1175572Y1096633D01*
X1174367Y1095428D01*
X1173714Y1093852D01*
X1173714Y1092147D01*
X1174367Y1090572D01*
X1175572Y1089367D01*
X1177147Y1088714D01*
X1178185Y1088714D01*
X1183714Y1083185D01*
X1183714Y1082147D01*
X1184367Y1080572D01*
X1185572Y1079367D01*
X1187147Y1078714D01*
X1188852Y1078714D01*
X1190428Y1079367D01*
X1192104Y1081708D02*
X1281600Y1081708D01*
X1281600Y1084106D02*
X1212026Y1084106D01*
X1213442Y1086505D02*
X1281600Y1086505D01*
X1281600Y1088903D02*
X1217633Y1088903D01*
X1215015Y1088903D02*
X1213600Y1088903D01*
X1213362Y1096099D02*
X1180962Y1096099D01*
X1175038Y1096099D02*
X1145200Y1096099D01*
X1147598Y1098497D02*
X1219396Y1098497D01*
X1221795Y1100896D02*
X1149997Y1100896D01*
X1152396Y1103294D02*
X1224193Y1103294D01*
X1226592Y1105693D02*
X1154794Y1105693D01*
X1157193Y1108091D02*
X1228714Y1108091D01*
X1229429Y1110490D02*
X1159045Y1110490D01*
X1160908Y1112888D02*
X1233787Y1112888D01*
X1236186Y1115287D02*
X1161800Y1115287D01*
X1161605Y1117685D02*
X1239205Y1117685D01*
X1239591Y1110490D02*
X1281600Y1110490D01*
X1281600Y1112888D02*
X1251852Y1112888D01*
X1252286Y1115287D02*
X1281600Y1115287D01*
X1281600Y1117685D02*
X1251164Y1117685D01*
X1237286Y1108091D02*
X1281600Y1108091D01*
X1281600Y1105693D02*
X1236683Y1105693D01*
X1237286Y1103294D02*
X1281600Y1103294D01*
X1281600Y1100896D02*
X1236767Y1100896D01*
X1232643Y1098497D02*
X1281600Y1098497D01*
X1281600Y1096099D02*
X1230287Y1096099D01*
X1229088Y1093700D02*
X1281600Y1093700D01*
X1281600Y1091302D02*
X1227512Y1091302D01*
X1222235Y1091302D02*
X1220403Y1091302D01*
X1203974Y1084106D02*
X1192181Y1084106D01*
X1190556Y1086505D02*
X1202558Y1086505D01*
X1202400Y1088903D02*
X1186198Y1088903D01*
X1182793Y1084106D02*
X1165852Y1084106D01*
X1165852Y1081708D02*
X1183896Y1081708D01*
X1185711Y1079309D02*
X1165852Y1079309D01*
X1162070Y1073125D02*
X1159625Y1073125D01*
X1159625Y1066975D01*
X1165775Y1066975D01*
X1165775Y1069420D01*
X1162070Y1073125D01*
X1163081Y1072114D02*
X1204194Y1072114D01*
X1204828Y1072747D02*
X1203253Y1071172D01*
X1202400Y1069114D01*
X1202400Y1066886D01*
X1203253Y1064828D01*
X1204828Y1063253D01*
X1206886Y1062400D01*
X1209114Y1062400D01*
X1211172Y1063253D01*
X1212747Y1064828D01*
X1213600Y1066886D01*
X1213600Y1069114D01*
X1212747Y1071172D01*
X1211172Y1072747D01*
X1209114Y1073600D01*
X1206886Y1073600D01*
X1204828Y1072747D01*
X1202649Y1069715D02*
X1165480Y1069715D01*
X1165775Y1067317D02*
X1202400Y1067317D01*
X1203215Y1064918D02*
X1165775Y1064918D01*
X1165775Y1064180D02*
X1165775Y1066625D01*
X1159625Y1066625D01*
X1159625Y1066975D01*
X1159275Y1066975D01*
X1159275Y1073125D01*
X1156830Y1073125D01*
X1153125Y1069420D01*
X1153125Y1066975D01*
X1159275Y1066975D01*
X1159275Y1066625D01*
X1159625Y1066625D01*
X1159625Y1060475D01*
X1162070Y1060475D01*
X1165775Y1064180D01*
X1164115Y1062520D02*
X1206597Y1062520D01*
X1209403Y1062520D02*
X1294429Y1062520D01*
X1292031Y1064918D02*
X1212785Y1064918D01*
X1213600Y1067317D02*
X1289632Y1067317D01*
X1287234Y1069715D02*
X1213351Y1069715D01*
X1211806Y1072114D02*
X1284835Y1072114D01*
X1282517Y1074512D02*
X1060852Y1074512D01*
X1056356Y1072114D02*
X1068319Y1072114D01*
X1069330Y1073125D02*
X1065625Y1069420D01*
X1065625Y1066975D01*
X1071775Y1066975D01*
X1071775Y1073125D01*
X1069330Y1073125D01*
X1071775Y1072114D02*
X1072125Y1072114D01*
X1072125Y1073125D02*
X1072125Y1066975D01*
X1078275Y1066975D01*
X1078275Y1069420D01*
X1074570Y1073125D01*
X1072125Y1073125D01*
X1072125Y1069715D02*
X1071775Y1069715D01*
X1071775Y1067317D02*
X1072125Y1067317D01*
X1072125Y1066975D02*
X1071775Y1066975D01*
X1071775Y1066625D01*
X1072125Y1066625D01*
X1072125Y1066975D01*
X1072125Y1066625D02*
X1078275Y1066625D01*
X1078275Y1064180D01*
X1074570Y1060475D01*
X1072125Y1060475D01*
X1072125Y1066625D01*
X1071775Y1066625D02*
X1071775Y1060475D01*
X1069330Y1060475D01*
X1065625Y1064180D01*
X1065625Y1066625D01*
X1071775Y1066625D01*
X1071775Y1064918D02*
X1072125Y1064918D01*
X1072125Y1062520D02*
X1071775Y1062520D01*
X1067285Y1062520D02*
X1046762Y1062520D01*
X1049161Y1064918D02*
X1065625Y1064918D01*
X1065625Y1067317D02*
X1051559Y1067317D01*
X1053958Y1069715D02*
X1065920Y1069715D01*
X1075581Y1072114D02*
X1155819Y1072114D01*
X1153420Y1069715D02*
X1077980Y1069715D01*
X1078275Y1067317D02*
X1153125Y1067317D01*
X1153125Y1066625D02*
X1153125Y1064180D01*
X1156830Y1060475D01*
X1159275Y1060475D01*
X1159275Y1066625D01*
X1153125Y1066625D01*
X1153125Y1064918D02*
X1078275Y1064918D01*
X1076615Y1062520D02*
X1154785Y1062520D01*
X1159275Y1062520D02*
X1159625Y1062520D01*
X1159625Y1064918D02*
X1159275Y1064918D01*
X1159275Y1067317D02*
X1159625Y1067317D01*
X1159625Y1069715D02*
X1159275Y1069715D01*
X1159275Y1072114D02*
X1159625Y1072114D01*
X1164880Y1086505D02*
X1180394Y1086505D01*
X1176691Y1088903D02*
X1043004Y1088903D01*
X1045403Y1091302D02*
X1174064Y1091302D01*
X1173714Y1093700D02*
X1047801Y1093700D01*
X1039193Y1103294D02*
X0709852Y1103294D01*
X0709114Y1103600D02*
X0706886Y1103600D01*
X0704828Y1102747D01*
X0703253Y1101172D01*
X0702400Y1099114D01*
X0702400Y1096886D01*
X0703253Y1094828D01*
X0704828Y1093253D01*
X0706886Y1092400D01*
X0709114Y1092400D01*
X0711172Y1093253D01*
X0712747Y1094828D01*
X0713600Y1096886D01*
X0713600Y1099114D01*
X0712747Y1101172D01*
X0711172Y1102747D01*
X0709114Y1103600D01*
X0706148Y1103294D02*
X0692735Y1103294D01*
X0692624Y1100896D02*
X0703138Y1100896D01*
X0702400Y1098497D02*
X0691981Y1098497D01*
X0690885Y1096099D02*
X0702726Y1096099D01*
X0704380Y1093700D02*
X0689288Y1093700D01*
X0689936Y1091302D02*
X1027201Y1091302D01*
X1029599Y1093700D02*
X0711620Y1093700D01*
X0713274Y1096099D02*
X1031998Y1096099D01*
X1034396Y1098497D02*
X0713600Y1098497D01*
X0712862Y1100896D02*
X1036795Y1100896D01*
X1041923Y1105693D02*
X0692600Y1105693D01*
X0691957Y1108091D02*
X1134090Y1108091D01*
X1136489Y1110490D02*
X0690834Y1110490D01*
X0689200Y1112888D02*
X1138887Y1112888D01*
X1140600Y1115287D02*
X0686621Y1115287D01*
X0685137Y1120084D02*
X1142264Y1120084D01*
X1140795Y1117685D02*
X0681057Y1117685D01*
X0679200Y1120084D02*
X0676800Y1120084D01*
X0676800Y1122482D02*
X0679200Y1122482D01*
X0679200Y1124881D02*
X0676800Y1124881D01*
X0676800Y1127279D02*
X0679200Y1127279D01*
X0679200Y1134475D02*
X0676800Y1134475D01*
X0676800Y1136873D02*
X0679200Y1136873D01*
X0679200Y1139272D02*
X0676800Y1139272D01*
X0676800Y1141670D02*
X0679200Y1141670D01*
X0679200Y1144069D02*
X0676800Y1144069D01*
X0676800Y1146468D02*
X0678495Y1146468D01*
X0677249Y1148866D02*
X0645400Y1148866D01*
X0645400Y1146468D02*
X0673150Y1146468D01*
X0668881Y1144069D02*
X0645400Y1144069D01*
X0645400Y1141670D02*
X0666518Y1141670D01*
X0665005Y1139272D02*
X0645400Y1139272D01*
X0645400Y1136873D02*
X0664062Y1136873D01*
X0663565Y1134475D02*
X0645400Y1134475D01*
X0645400Y1151265D02*
X0676800Y1151265D01*
X0676971Y1153663D02*
X0645400Y1153663D01*
X0645400Y1156062D02*
X0677964Y1156062D01*
X0680222Y1158460D02*
X0645400Y1158460D01*
X0645400Y1170453D02*
X1131305Y1170453D01*
X1128906Y1172851D02*
X0645400Y1172851D01*
X0645400Y1175250D02*
X1126508Y1175250D01*
X1124109Y1177648D02*
X0645400Y1177648D01*
X0645400Y1180047D02*
X1121711Y1180047D01*
X1119312Y1182445D02*
X0645400Y1182445D01*
X0645400Y1232814D02*
X0667098Y1232814D01*
X0665338Y1235212D02*
X0645400Y1235212D01*
X0645400Y1237611D02*
X0664123Y1237611D01*
X0663480Y1240009D02*
X0645400Y1240009D01*
X0645400Y1242408D02*
X0663265Y1242408D01*
X0663297Y1244806D02*
X0645400Y1244806D01*
X0645400Y1247205D02*
X0663939Y1247205D01*
X0664943Y1249603D02*
X0645400Y1249603D01*
X0645400Y1252002D02*
X0663940Y1252002D01*
X0661541Y1254401D02*
X0645400Y1254401D01*
X0645400Y1256799D02*
X0659143Y1256799D01*
X0656744Y1259198D02*
X0645400Y1259198D01*
X0645400Y1261596D02*
X0654346Y1261596D01*
X0651947Y1263995D02*
X0645400Y1263995D01*
X0645400Y1266393D02*
X0649549Y1266393D01*
X0647150Y1268792D02*
X0645400Y1268792D01*
X0651970Y1273589D02*
X0709200Y1273589D01*
X0709200Y1275987D02*
X0651400Y1275987D01*
X0651400Y1278386D02*
X0709200Y1278386D01*
X0709200Y1280784D02*
X0651400Y1280784D01*
X0651400Y1283183D02*
X0709200Y1283183D01*
X0709200Y1285581D02*
X0651400Y1285581D01*
X0651400Y1287980D02*
X0709200Y1287980D01*
X0709200Y1290378D02*
X0651400Y1290378D01*
X0651400Y1292777D02*
X0709200Y1292777D01*
X0709520Y1295175D02*
X0651400Y1295175D01*
X0651400Y1297574D02*
X0711726Y1297574D01*
X0711537Y1299972D02*
X0651400Y1299972D01*
X0651400Y1302371D02*
X0711200Y1302371D01*
X0711927Y1304769D02*
X0651400Y1304769D01*
X0651400Y1307168D02*
X0714884Y1307168D01*
X0720365Y1309566D02*
X0651400Y1309566D01*
X0651400Y1311965D02*
X0722764Y1311965D01*
X0725162Y1314363D02*
X0651400Y1314363D01*
X0651400Y1316762D02*
X0727561Y1316762D01*
X0729959Y1319160D02*
X0651400Y1319160D01*
X0651400Y1321559D02*
X0732358Y1321559D01*
X0734756Y1323957D02*
X0651400Y1323957D01*
X0651400Y1326356D02*
X0735100Y1326356D01*
X0735100Y1328754D02*
X0651400Y1328754D01*
X0651400Y1331153D02*
X0735100Y1331153D01*
X0735100Y1333551D02*
X0651400Y1333551D01*
X0651400Y1335950D02*
X0735100Y1335950D01*
X0709200Y1271190D02*
X0654368Y1271190D01*
X0656767Y1268792D02*
X0666573Y1268792D01*
X0663955Y1266393D02*
X0659165Y1266393D01*
X0661564Y1263995D02*
X0662908Y1263995D01*
X0675227Y1268792D02*
X0709200Y1268792D01*
X0709200Y1266393D02*
X0677845Y1266393D01*
X0678892Y1263995D02*
X0709200Y1263995D01*
X0709200Y1261596D02*
X0679200Y1261596D01*
X0678889Y1259198D02*
X0709200Y1259198D01*
X0709200Y1256799D02*
X0682499Y1256799D01*
X0687187Y1254401D02*
X0709200Y1254401D01*
X0709200Y1252002D02*
X0689586Y1252002D01*
X0691057Y1249603D02*
X0709200Y1249603D01*
X0709200Y1247205D02*
X0692061Y1247205D01*
X0692703Y1244806D02*
X0709200Y1244806D01*
X0709529Y1242408D02*
X0692735Y1242408D01*
X0692520Y1240009D02*
X0711748Y1240009D01*
X0714146Y1237611D02*
X0691877Y1237611D01*
X0690662Y1235212D02*
X0716545Y1235212D01*
X0718943Y1232814D02*
X0688902Y1232814D01*
X0686105Y1230415D02*
X0721342Y1230415D01*
X0723740Y1228017D02*
X0679946Y1228017D01*
X0685651Y1225618D02*
X0726139Y1225618D01*
X0728537Y1223220D02*
X0688585Y1223220D01*
X0690422Y1220821D02*
X0730936Y1220821D01*
X0733334Y1218423D02*
X0691590Y1218423D01*
X0715436Y1244806D02*
X1039854Y1244806D01*
X1038517Y1247205D02*
X0715200Y1247205D01*
X0715200Y1249603D02*
X1038517Y1249603D01*
X1040663Y1252002D02*
X0715200Y1252002D01*
X0717835Y1242408D02*
X1043784Y1242408D01*
X1046182Y1240009D02*
X0720233Y1240009D01*
X0722632Y1237611D02*
X1048581Y1237611D01*
X1050979Y1235212D02*
X0725030Y1235212D01*
X0727429Y1232814D02*
X1053378Y1232814D01*
X1055776Y1230415D02*
X0729827Y1230415D01*
X0732226Y1228017D02*
X1058175Y1228017D01*
X1060573Y1225618D02*
X0734624Y1225618D01*
X0737023Y1223220D02*
X1062972Y1223220D01*
X1067791Y1228017D02*
X1135397Y1228017D01*
X1133009Y1230415D02*
X1065393Y1230415D01*
X1062994Y1232814D02*
X1132400Y1232814D01*
X1132855Y1235212D02*
X1060596Y1235212D01*
X1135457Y1166301D02*
X1135457Y1166301D01*
X1136102Y1165656D02*
X0812121Y1165656D01*
X0814976Y1163257D02*
X1204823Y1163257D01*
X1160136Y1120084D02*
X1281600Y1120084D01*
X1281600Y1122482D02*
X0688287Y1122482D01*
X0690223Y1124881D02*
X1281600Y1124881D01*
X1281600Y1127279D02*
X0691466Y1127279D01*
X0691705Y1146468D02*
X0992300Y1146468D01*
X0990350Y1148866D02*
X0692951Y1148866D01*
X0692219Y1088903D02*
X1024802Y1088903D01*
X1022404Y1086505D02*
X0693212Y1086505D01*
X0693400Y1084106D02*
X1020005Y1084106D01*
X1017606Y1081708D02*
X0692969Y1081708D01*
X0691747Y1079309D02*
X1015208Y1079309D01*
X1008517Y1072114D02*
X0945226Y1072114D01*
X0946258Y1064918D02*
X1014742Y1064918D01*
X1028683Y1052926D02*
X0803152Y1052926D01*
X0803152Y1053000D02*
X0798079Y1053000D01*
X0803152Y1053000D01*
X0803152Y1056163D01*
X0803002Y1056722D01*
X0802712Y1057224D01*
X0802303Y1057634D01*
X0801801Y1057923D01*
X0801242Y1058073D01*
X0798079Y1058073D01*
X0798079Y1053000D01*
X0798079Y1053000D01*
X0798079Y1053000D01*
X0798079Y1047927D01*
X0801242Y1047927D01*
X0801801Y1048077D01*
X0802303Y1048366D01*
X0802712Y1048776D01*
X0803002Y1049278D01*
X0803152Y1049837D01*
X0803152Y1053000D01*
X0803152Y1055324D02*
X1031081Y1055324D01*
X1033480Y1057723D02*
X0802149Y1057723D01*
X0798079Y1057723D02*
X0798079Y1057723D01*
X0798079Y1058073D02*
X0794916Y1058073D01*
X0794356Y1057923D01*
X0793855Y1057634D01*
X0793445Y1057224D01*
X0793155Y1056722D01*
X0793006Y1056163D01*
X0793006Y1053000D01*
X0793006Y1049837D01*
X0793155Y1049278D01*
X0793445Y1048776D01*
X0793855Y1048366D01*
X0794356Y1048077D01*
X0794916Y1047927D01*
X0798079Y1047927D01*
X0798079Y1053000D01*
X0798079Y1053000D01*
X0798079Y1058073D01*
X0798079Y1055324D02*
X0798079Y1055324D01*
X0798079Y1053000D02*
X0798079Y1053000D01*
X0793006Y1053000D01*
X0798079Y1053000D01*
X0798079Y1052926D02*
X0798079Y1052926D01*
X0798079Y1050527D02*
X0798079Y1050527D01*
X0798079Y1048129D02*
X0798079Y1048129D01*
X0801891Y1048129D02*
X1023886Y1048129D01*
X1026284Y1050527D02*
X0803152Y1050527D01*
X0799370Y1044325D02*
X0796925Y1044325D01*
X0796925Y1038175D01*
X0803075Y1038175D01*
X0803075Y1040620D01*
X0799370Y1044325D01*
X0800363Y1043332D02*
X1019089Y1043332D01*
X1021487Y1045730D02*
X0645400Y1045730D01*
X0645400Y1043332D02*
X0705637Y1043332D01*
X0706630Y1044325D02*
X0702925Y1040620D01*
X0702925Y1038175D01*
X0709075Y1038175D01*
X0709075Y1044325D01*
X0706630Y1044325D01*
X0709075Y1043332D02*
X0709425Y1043332D01*
X0709425Y1044325D02*
X0711870Y1044325D01*
X0715575Y1040620D01*
X0715575Y1038175D01*
X0709425Y1038175D01*
X0709425Y1037825D01*
X0715575Y1037825D01*
X0715575Y1035380D01*
X0711870Y1031675D01*
X0709425Y1031675D01*
X0709425Y1037825D01*
X0709075Y1037825D01*
X0709075Y1031675D01*
X0706630Y1031675D01*
X0702925Y1035380D01*
X0702925Y1037825D01*
X0709075Y1037825D01*
X0709075Y1038175D01*
X0709425Y1038175D01*
X0709425Y1044325D01*
X0709425Y1040933D02*
X0709075Y1040933D01*
X0709075Y1038534D02*
X0709425Y1038534D01*
X0709425Y1036136D02*
X0709075Y1036136D01*
X0709075Y1033737D02*
X0709425Y1033737D01*
X0713932Y1033737D02*
X0792068Y1033737D01*
X0790425Y1035380D02*
X0794130Y1031675D01*
X0796575Y1031675D01*
X0796575Y1037825D01*
X0796925Y1037825D01*
X0796925Y1038175D01*
X0796575Y1038175D01*
X0796575Y1044325D01*
X0794130Y1044325D01*
X0790425Y1040620D01*
X0790425Y1038175D01*
X0796575Y1038175D01*
X0796575Y1037825D01*
X0790425Y1037825D01*
X0790425Y1035380D01*
X0790425Y1036136D02*
X0715575Y1036136D01*
X0715575Y1038534D02*
X0790425Y1038534D01*
X0790738Y1040933D02*
X0715262Y1040933D01*
X0712863Y1043332D02*
X0793137Y1043332D01*
X0796575Y1043332D02*
X0796925Y1043332D01*
X0796925Y1040933D02*
X0796575Y1040933D01*
X0796575Y1038534D02*
X0796925Y1038534D01*
X0796925Y1037825D02*
X0803075Y1037825D01*
X0803075Y1035380D01*
X0799370Y1031675D01*
X0796925Y1031675D01*
X0796925Y1037825D01*
X0796925Y1036136D02*
X0796575Y1036136D01*
X0796575Y1033737D02*
X0796925Y1033737D01*
X0801432Y1033737D02*
X0987238Y1033737D01*
X0987238Y1031339D02*
X0645400Y1031339D01*
X0645400Y1033737D02*
X0704568Y1033737D01*
X0702925Y1036136D02*
X0645400Y1036136D01*
X0645400Y1038534D02*
X0702925Y1038534D01*
X0703238Y1040933D02*
X0645400Y1040933D01*
X0645400Y1048129D02*
X0753652Y1048129D01*
X0753689Y1048092D02*
X0754571Y1047727D01*
X0761272Y1047727D01*
X0762154Y1048092D01*
X0762829Y1048767D01*
X0763194Y1049649D01*
X0763194Y1056351D01*
X0762829Y1057233D01*
X0762154Y1057908D01*
X0761272Y1058273D01*
X0754571Y1058273D01*
X0753689Y1057908D01*
X0753013Y1057233D01*
X0752648Y1056351D01*
X0752648Y1049649D01*
X0753013Y1048767D01*
X0753689Y1048092D01*
X0752648Y1050527D02*
X0645400Y1050527D01*
X0645400Y1052926D02*
X0752648Y1052926D01*
X0752648Y1055324D02*
X0645400Y1055324D01*
X0645400Y1057723D02*
X0753503Y1057723D01*
X0762339Y1057723D02*
X0794009Y1057723D01*
X0793006Y1055324D02*
X0763194Y1055324D01*
X0763194Y1052926D02*
X0793006Y1052926D01*
X0793006Y1050527D02*
X0763194Y1050527D01*
X0762190Y1048129D02*
X0794267Y1048129D01*
X0802762Y1040933D02*
X1016690Y1040933D01*
X1014292Y1038534D02*
X0995614Y1038534D01*
X0993000Y1038534D02*
X0993000Y1038534D01*
X0993000Y1036136D02*
X0993000Y1036136D01*
X0993000Y1033737D02*
X0993000Y1033737D01*
X0990386Y1038534D02*
X0803075Y1038534D01*
X0803075Y1036136D02*
X0987987Y1036136D01*
X0988911Y1028940D02*
X0645400Y1028940D01*
X0645400Y1026542D02*
X0988110Y1026542D01*
X0987038Y1024143D02*
X0645400Y1024143D01*
X0645400Y1021745D02*
X0824908Y1021745D01*
X0824759Y1021637D02*
X0824205Y1021083D01*
X0823745Y1020450D01*
X0823390Y1019752D01*
X0823148Y1019007D01*
X0823025Y1018234D01*
X0823025Y1017843D01*
X0828000Y1017843D01*
X0828000Y1022817D01*
X0827608Y1022817D01*
X0826835Y1022695D01*
X0826090Y1022453D01*
X0825393Y1022097D01*
X0824759Y1021637D01*
X0823258Y1019346D02*
X0645400Y1019346D01*
X0645400Y1016948D02*
X0823105Y1016948D01*
X0823148Y1016678D02*
X0823390Y1015933D01*
X0823745Y1015235D01*
X0824205Y1014602D01*
X0824759Y1014048D01*
X0825393Y1013588D01*
X0826090Y1013232D01*
X0826835Y1012990D01*
X0827608Y1012868D01*
X0828000Y1012868D01*
X0828392Y1012868D01*
X0829165Y1012990D01*
X0829910Y1013232D01*
X0830607Y1013588D01*
X0831241Y1014048D01*
X0831795Y1014602D01*
X0832255Y1015235D01*
X0832610Y1015933D01*
X0832852Y1016678D01*
X0832975Y1017451D01*
X0832975Y1017842D01*
X0828000Y1017842D01*
X0828000Y1012868D01*
X0828000Y1017842D01*
X0828000Y1017842D01*
X0823025Y1017842D01*
X0823025Y1017451D01*
X0823148Y1016678D01*
X0824258Y1014549D02*
X0645400Y1014549D01*
X0645400Y1012151D02*
X1067371Y1012151D01*
X1065425Y1014549D02*
X0831742Y1014549D01*
X0832895Y1016948D02*
X1065425Y1016948D01*
X1065425Y1019346D02*
X0997778Y1019346D01*
X0997890Y1026542D02*
X1002299Y1026542D01*
X1004698Y1028940D02*
X0997089Y1028940D01*
X0998762Y1031339D02*
X1007096Y1031339D01*
X1009495Y1033737D02*
X0998762Y1033737D01*
X0998013Y1036136D02*
X1011893Y1036136D01*
X1015582Y1031339D02*
X1185525Y1031339D01*
X1185525Y1033737D02*
X1017980Y1033737D01*
X1020379Y1036136D02*
X1185935Y1036136D01*
X1185891Y1036092D02*
X1185525Y1035210D01*
X1185525Y1028705D01*
X1185891Y1027823D01*
X1186566Y1027148D01*
X1187448Y1026783D01*
X1193952Y1026783D01*
X1194834Y1027148D01*
X1195509Y1027823D01*
X1195875Y1028705D01*
X1195875Y1035210D01*
X1195509Y1036092D01*
X1194834Y1036767D01*
X1193952Y1037132D01*
X1187448Y1037132D01*
X1186566Y1036767D01*
X1185891Y1036092D01*
X1185525Y1028940D02*
X1013183Y1028940D01*
X1010785Y1026542D02*
X1301600Y1026542D01*
X1301600Y1028940D02*
X1195875Y1028940D01*
X1195875Y1031339D02*
X1301600Y1031339D01*
X1301600Y1033737D02*
X1195875Y1033737D01*
X1195465Y1036136D02*
X1301600Y1036136D01*
X1301600Y1038534D02*
X1022777Y1038534D01*
X1025176Y1040933D02*
X1301600Y1040933D01*
X1301600Y1043332D02*
X1027574Y1043332D01*
X1029973Y1045730D02*
X1301600Y1045730D01*
X1301600Y1048129D02*
X1194221Y1048129D01*
X1194495Y1048402D02*
X1194955Y1049035D01*
X1195310Y1049733D01*
X1195552Y1050478D01*
X1195675Y1051251D01*
X1195675Y1051642D01*
X1190700Y1051642D01*
X1190700Y1046668D01*
X1191092Y1046668D01*
X1191865Y1046790D01*
X1192610Y1047032D01*
X1193307Y1047388D01*
X1193941Y1047848D01*
X1194495Y1048402D01*
X1195560Y1050527D02*
X1301600Y1050527D01*
X1301600Y1052926D02*
X1195514Y1052926D01*
X1195552Y1052807D02*
X1195310Y1053552D01*
X1194955Y1054250D01*
X1194495Y1054883D01*
X1193941Y1055437D01*
X1193307Y1055897D01*
X1192610Y1056253D01*
X1191865Y1056495D01*
X1191092Y1056617D01*
X1190700Y1056617D01*
X1190308Y1056617D01*
X1189535Y1056495D01*
X1188790Y1056253D01*
X1188093Y1055897D01*
X1187459Y1055437D01*
X1186905Y1054883D01*
X1186445Y1054250D01*
X1186090Y1053552D01*
X1185848Y1052807D01*
X1185725Y1052034D01*
X1185725Y1051643D01*
X1190700Y1051643D01*
X1190700Y1056617D01*
X1190700Y1051643D01*
X1190700Y1051643D01*
X1190700Y1051642D01*
X1190700Y1051642D01*
X1190700Y1046668D01*
X1190308Y1046668D01*
X1189535Y1046790D01*
X1188790Y1047032D01*
X1188093Y1047388D01*
X1187459Y1047848D01*
X1186905Y1048402D01*
X1186445Y1049035D01*
X1186090Y1049733D01*
X1185848Y1050478D01*
X1185725Y1051251D01*
X1185725Y1051642D01*
X1190700Y1051642D01*
X1190700Y1051643D01*
X1195675Y1051643D01*
X1195675Y1052034D01*
X1195552Y1052807D01*
X1194054Y1055324D02*
X1301600Y1055324D01*
X1299226Y1057723D02*
X1041965Y1057723D01*
X1044364Y1060121D02*
X1296828Y1060121D01*
X1190700Y1055324D02*
X1190700Y1055324D01*
X1190700Y1052926D02*
X1190700Y1052926D01*
X1190700Y1050527D02*
X1190700Y1050527D01*
X1190700Y1048129D02*
X1190700Y1048129D01*
X1187179Y1048129D02*
X1032371Y1048129D01*
X1034770Y1050527D02*
X1185840Y1050527D01*
X1185886Y1052926D02*
X1037168Y1052926D01*
X1039567Y1055324D02*
X1187346Y1055324D01*
X1152264Y1120084D02*
X1150136Y1120084D01*
X1158247Y1230415D02*
X1160636Y1230415D01*
X1262400Y1230415D02*
X1281600Y1230415D01*
X1281600Y1228017D02*
X1262400Y1228017D01*
X1262400Y1225618D02*
X1281600Y1225618D01*
X1281600Y1232814D02*
X1262400Y1232814D01*
X1262400Y1235212D02*
X1281600Y1235212D01*
X1281600Y1237611D02*
X1262400Y1237611D01*
X1262400Y1240009D02*
X1281600Y1240009D01*
X1281600Y1242408D02*
X1262400Y1242408D01*
X1262400Y1244806D02*
X1281600Y1244806D01*
X1281600Y1247205D02*
X1262400Y1247205D01*
X1262400Y1249603D02*
X1281600Y1249603D01*
X1281600Y1252002D02*
X1262400Y1252002D01*
X1262400Y1254401D02*
X1281600Y1254401D01*
X1281600Y1256799D02*
X1262400Y1256799D01*
X1262400Y1259198D02*
X1281600Y1259198D01*
X1281600Y1261596D02*
X1262400Y1261596D01*
X1262400Y1263995D02*
X1281600Y1263995D01*
X1281600Y1266393D02*
X1262400Y1266393D01*
X1262400Y1268792D02*
X1281600Y1268792D01*
X1281600Y1271190D02*
X1262400Y1271190D01*
X1262400Y1273589D02*
X1281600Y1273589D01*
X1281600Y1275987D02*
X1262400Y1275987D01*
X1346000Y1230415D02*
X1407038Y1230415D01*
X1407038Y1228017D02*
X1346000Y1228017D01*
X1346000Y1225618D02*
X1407038Y1225618D01*
X1409348Y1223220D02*
X1346000Y1223220D01*
X1346000Y1220821D02*
X1407672Y1220821D01*
X1407238Y1218423D02*
X1346000Y1218423D01*
X1346000Y1216024D02*
X1407238Y1216024D01*
X1409225Y1213626D02*
X1346000Y1213626D01*
X1346000Y1211227D02*
X1407796Y1211227D01*
X1407038Y1208829D02*
X1346000Y1208829D01*
X1346000Y1206430D02*
X1407038Y1206430D01*
X1408536Y1204032D02*
X1346000Y1204032D01*
X1346000Y1201633D02*
X1408484Y1201633D01*
X1407238Y1199235D02*
X1346000Y1199235D01*
X1346000Y1196836D02*
X1407238Y1196836D01*
X1407238Y1198000D02*
X1407238Y1195613D01*
X1410613Y1192238D01*
X1413000Y1192238D01*
X1413000Y1198000D01*
X1413000Y1198000D01*
X1413000Y1198000D01*
X1407238Y1198000D01*
X1408413Y1194438D02*
X1346000Y1194438D01*
X1413000Y1194438D02*
X1413000Y1194438D01*
X1413000Y1196836D02*
X1413000Y1196836D01*
X1413000Y1141670D02*
X1413000Y1141670D01*
X1413000Y1139272D02*
X1413000Y1139272D01*
X1413000Y1086505D02*
X1413000Y1086505D01*
X1413000Y1084106D02*
X1413000Y1084106D01*
X1418962Y1064918D02*
X1440521Y1064918D01*
X1440521Y1062520D02*
X1418962Y1062520D01*
X1418553Y1060121D02*
X1440521Y1060121D01*
X1440521Y1057723D02*
X1416426Y1057723D01*
X1418762Y1055324D02*
X1440521Y1055324D01*
X1440521Y1052926D02*
X1418762Y1052926D01*
X1418676Y1050527D02*
X1440521Y1050527D01*
X1440521Y1048129D02*
X1416303Y1048129D01*
X1418702Y1045730D02*
X1440521Y1045730D01*
X1440521Y1043332D02*
X1418962Y1043332D01*
X1418962Y1040933D02*
X1440521Y1040933D01*
X1440521Y1038534D02*
X1416966Y1038534D01*
X1418013Y1036136D02*
X1440521Y1036136D01*
X1440521Y1033737D02*
X1418762Y1033737D01*
X1418762Y1031339D02*
X1440521Y1031339D01*
X1440521Y1028940D02*
X1417089Y1028940D01*
X1413000Y1028940D02*
X1413000Y1028940D01*
X1413000Y1031339D02*
X1413000Y1031339D01*
X1251700Y0954587D02*
X1251700Y0954587D01*
X1251700Y0952188D02*
X1251700Y0952188D01*
X1251700Y0949790D02*
X1251700Y0949790D01*
X1251700Y0947391D02*
X1251700Y0947391D01*
X1247260Y0947391D02*
X1246423Y0947391D01*
X1246645Y0954587D02*
X1247038Y0954587D01*
X1166700Y0954587D02*
X1166700Y0954587D01*
X1166700Y0952188D02*
X1166700Y0952188D01*
X1166700Y0949790D02*
X1166700Y0949790D01*
X1166700Y0947391D02*
X1166700Y0947391D01*
X1162260Y0947391D02*
X1161423Y0947391D01*
X1161645Y0954587D02*
X1162038Y0954587D01*
X1113184Y0944993D02*
X0645400Y0944993D01*
X0645400Y0947391D02*
X1112400Y0947391D01*
X1056800Y0952188D02*
X1056800Y0952188D01*
X1056800Y0954587D02*
X1056800Y0954587D01*
X0993000Y0957238D02*
X0993000Y0963000D01*
X0987238Y0963000D01*
X0987238Y0960613D01*
X0990613Y0957238D01*
X0993000Y0957238D01*
X0993000Y0959384D02*
X0993000Y0959384D01*
X0993000Y0961782D02*
X0993000Y0961782D01*
X0993000Y0964181D02*
X0993000Y0964181D01*
X0993000Y0966579D02*
X0993000Y0966579D01*
X0993000Y0968978D02*
X0993000Y0968978D01*
X0993000Y0971376D02*
X0993000Y0971376D01*
X0987238Y0973775D02*
X0645400Y0973775D01*
X0645400Y0976173D02*
X0988024Y0976173D01*
X0988996Y0978572D02*
X0645400Y0978572D01*
X0645400Y0980970D02*
X0987038Y0980970D01*
X0988430Y0966579D02*
X0922340Y0966579D01*
X0923572Y0964181D02*
X0987238Y0964181D01*
X0987238Y0961782D02*
X0923557Y0961782D01*
X0922303Y0959384D02*
X0988467Y0959384D01*
X0988222Y1019346D02*
X0832742Y1019346D01*
X0832852Y1019007D02*
X0832610Y1019752D01*
X0832255Y1020450D01*
X0831795Y1021083D01*
X0831241Y1021637D01*
X0830607Y1022097D01*
X0829910Y1022453D01*
X0829165Y1022695D01*
X0828392Y1022817D01*
X0828000Y1022817D01*
X0828000Y1017843D01*
X0828000Y1017843D01*
X0828000Y1017842D01*
X0828000Y1017843D01*
X0832975Y1017843D01*
X0832975Y1018234D01*
X0832852Y1019007D01*
X0831092Y1021745D02*
X0987038Y1021745D01*
X1035878Y1060121D02*
X0645400Y1060121D01*
X0728000Y0968978D02*
X0728000Y0968978D01*
X0728000Y0966579D02*
X0728000Y0966579D01*
X0728000Y0964181D02*
X0728000Y0964181D01*
X0728000Y0961782D02*
X0728000Y0961782D01*
X0728000Y0959384D02*
X0728000Y0959384D01*
X0728000Y0956985D02*
X0728000Y0956985D01*
X0732237Y0956985D02*
X0733404Y0956985D01*
X0733388Y0968978D02*
X0732264Y0968978D01*
X0751346Y0983369D02*
X0754654Y0983369D01*
X0763846Y0983369D02*
X0767154Y0983369D01*
X0828000Y1014549D02*
X0828000Y1014549D01*
X0828000Y1016948D02*
X0828000Y1016948D01*
X0828000Y1019346D02*
X0828000Y1019346D01*
X0828000Y1021745D02*
X0828000Y1021745D01*
X0665214Y1338348D02*
X0651400Y1338348D01*
X0651400Y1340747D02*
X0663429Y1340747D01*
X0662600Y1343145D02*
X0651400Y1343145D01*
X0651400Y1345544D02*
X0662600Y1345544D01*
X0663383Y1347942D02*
X0651400Y1347942D01*
X0651400Y1350341D02*
X0665103Y1350341D01*
X0667955Y1352739D02*
X0651400Y1352739D01*
X0651400Y1355138D02*
X0665940Y1355138D01*
X0664634Y1357537D02*
X0651400Y1357537D01*
X0651400Y1359935D02*
X0663840Y1359935D01*
X1026434Y1393514D02*
X1044840Y1393514D01*
X1044840Y1395913D02*
X1028197Y1395913D01*
X1028600Y1398311D02*
X1044840Y1398311D01*
X1044931Y1400710D02*
X1027939Y1400710D01*
X1140501Y1400710D02*
X1142901Y1400710D01*
X1142901Y1403108D02*
X1140501Y1403108D01*
X1140501Y1405507D02*
X1142901Y1405507D01*
X1142901Y1398311D02*
X1140501Y1398311D01*
X1413000Y1252002D02*
X1413000Y1252002D01*
X1413000Y1249603D02*
X1413000Y1249603D01*
X1417752Y1249603D02*
X1440521Y1249603D01*
X1440521Y1252002D02*
X1418762Y1252002D01*
X1418762Y1254401D02*
X1440521Y1254401D01*
X1440521Y1256799D02*
X1417350Y1256799D01*
X1417629Y1259198D02*
X1440521Y1259198D01*
X1440521Y1261596D02*
X1418962Y1261596D01*
X1418962Y1263995D02*
X1440521Y1263995D01*
X1440521Y1266393D02*
X1418039Y1266393D01*
X1416941Y1268792D02*
X1440521Y1268792D01*
X1440521Y1271190D02*
X1418762Y1271190D01*
X1418762Y1273589D02*
X1440521Y1273589D01*
X1440521Y1275987D02*
X1418162Y1275987D01*
X1416817Y1278386D02*
X1440521Y1278386D01*
X1440521Y1280784D02*
X1418962Y1280784D01*
X1418962Y1283183D02*
X1440521Y1283183D01*
X1440521Y1285581D02*
X1418851Y1285581D01*
D22*
X1393000Y1313000D03*
X1383000Y1313000D03*
X1353000Y1293000D03*
X1383000Y1258000D03*
X1393000Y1258000D03*
X1353000Y1238000D03*
X1383000Y1203000D03*
X1393000Y1203000D03*
X1353000Y1183000D03*
X1383000Y1148000D03*
X1393000Y1148000D03*
X1353000Y1128000D03*
X1383000Y1093000D03*
X1393000Y1093000D03*
X1353000Y1073000D03*
X1383000Y1038000D03*
X1393000Y1038000D03*
X1353000Y1018000D03*
X1383000Y0983000D03*
X1393000Y0983000D03*
X1278000Y1083000D03*
X1248000Y1068000D03*
X1213000Y1053000D03*
X1253000Y1118000D03*
X1253000Y1123000D03*
X1203000Y1218000D03*
X1113000Y1193000D03*
X1058000Y1078000D03*
X1288000Y1343000D03*
X1353000Y1348000D03*
X1383000Y1368000D03*
X1393000Y1368000D03*
D23*
X1358000Y1403000D03*
D24*
X1258000Y1348000D03*
X1248000Y1353000D03*
X1233000Y1353000D03*
X1263000Y1008000D03*
X0683000Y0983000D03*
X0673000Y1023000D03*
D25*
X1153000Y1173000D03*
X1224873Y1094724D03*
X1216324Y1093000D03*
X1233000Y1103000D03*
X1233000Y1108000D03*
X1248000Y1114788D03*
X1188000Y1083000D03*
X1178000Y1093000D03*
D26*
X1278000Y1133000D03*
D27*
X1245607Y1128000D03*
X1218000Y1208000D03*
X1213000Y1208000D03*
X1213000Y1223000D03*
X1218000Y1243000D03*
X1209609Y1324609D03*
X1208000Y1333000D03*
X1188000Y1328000D03*
X1188104Y1322896D03*
X1238000Y1323000D03*
X1123000Y1233000D03*
X1113000Y1233000D03*
X1103000Y1233000D03*
X1093000Y1233000D03*
X1068000Y1223000D03*
X1043000Y1248000D03*
X1013000Y1378000D03*
X0993000Y1393000D03*
X0973000Y1403000D03*
X0963000Y1403000D03*
X0928000Y1388000D03*
X0883000Y1423000D03*
X0868000Y1428000D03*
X0833000Y1428000D03*
X0823000Y1428000D03*
X0813000Y1428000D03*
X0828000Y1373000D03*
X0783000Y1338000D03*
X0763000Y1333000D03*
X0753000Y1333000D03*
X0738000Y1353000D03*
X0743587Y1363587D03*
X0718000Y1363000D03*
X0728000Y1343036D03*
X0703000Y1303000D03*
X0688000Y1303000D03*
X0683000Y1293000D03*
X0715683Y1283000D03*
X0743000Y1213000D03*
X0723000Y1208000D03*
X0723000Y1198000D03*
X0748000Y1178000D03*
X0758000Y1183000D03*
X0778000Y1188000D03*
X0698000Y1168000D03*
X0650500Y1185500D03*
X0658000Y1338000D03*
X0878000Y1038000D03*
X0918000Y1048000D03*
X0943000Y1068000D03*
X0948000Y1023000D03*
X1013000Y1073000D03*
X1018000Y1068000D03*
X1308000Y0943000D03*
X1033000Y1423000D03*
D28*
X1033000Y1038000D03*
X1053000Y1008000D03*
D29*
X1018000Y1068000D02*
X0943000Y1068000D01*
X1013000Y1073000D02*
X1043000Y1103000D01*
X1133100Y1103000D01*
X1146200Y1116100D01*
X1156200Y1116100D02*
X1156200Y1111200D01*
X1143000Y1098000D01*
X1048000Y1098000D01*
X1018000Y1068000D01*
X1144856Y1206144D02*
X1143000Y1208000D01*
X1213000Y1208000D02*
X1213000Y1223000D01*
X1218000Y1208000D02*
X1218000Y1243000D01*
X1243000Y1128000D02*
X1245607Y1128000D01*
X1248000Y1114788D02*
X1239788Y1114788D01*
X1232755Y1107755D01*
X1218000Y1093000D01*
X1216324Y1093000D01*
X1178000Y1093000D01*
X1188000Y1083000D01*
X1224873Y1094724D02*
X1233000Y1103000D01*
X1232755Y1107755D02*
X1233000Y1108000D01*
X0738000Y1323100D02*
X0716800Y1301900D01*
X0738000Y1323100D02*
X0738000Y1353000D01*
X0743000Y1363000D02*
X0743587Y1363587D01*
X0728000Y1343036D02*
X0728000Y1343000D01*
D30*
X0716800Y1301900D02*
X0716800Y1298405D01*
X0712200Y1293805D01*
X0712200Y1243800D01*
X0743000Y1213000D01*
X0718000Y1283000D02*
X0715683Y1283000D01*
X0714200Y1283000D01*
X0993000Y1023000D02*
X1003000Y1023000D01*
X1058000Y1078000D01*
X1109450Y1016800D02*
X1057950Y0965300D01*
X1056800Y0965300D01*
X1138000Y1168000D02*
X1208000Y1168000D01*
X1280625Y1098000D02*
X1282600Y1098000D01*
X1318000Y1106202D02*
X1318000Y1135200D01*
X1338557Y1135200D01*
X1339586Y1135626D01*
X1340374Y1136414D01*
X1340800Y1137443D01*
X1340800Y1158557D01*
X1340374Y1159586D01*
X1339586Y1160374D01*
X1338557Y1160800D01*
X1318800Y1160800D01*
X1318800Y1169154D01*
X1318000Y1171085D01*
X1318000Y1184915D01*
X1318800Y1186846D01*
X1318800Y1190200D01*
X1338557Y1190200D01*
X1339586Y1190626D01*
X1340374Y1191414D01*
X1340800Y1192443D01*
X1340800Y1213557D01*
X1340374Y1214586D01*
X1339586Y1215374D01*
X1338557Y1215800D01*
X1318000Y1215800D01*
X1318000Y1244798D01*
X1318402Y1245200D01*
X1338557Y1245200D01*
X1339586Y1245626D01*
X1340374Y1246414D01*
X1340800Y1247443D01*
X1340800Y1268557D01*
X1340374Y1269586D01*
X1339586Y1270374D01*
X1338557Y1270800D01*
X1318000Y1270800D01*
X1318000Y1294798D01*
X1323402Y1300200D01*
X1338557Y1300200D01*
X1339586Y1300626D01*
X1340374Y1301414D01*
X1340800Y1302443D01*
X1340800Y1323557D01*
X1340374Y1324586D01*
X1339586Y1325374D01*
X1338557Y1325800D01*
X1318000Y1325800D01*
X1318000Y1349798D01*
X1323402Y1355200D01*
X1338557Y1355200D01*
X1339586Y1355626D01*
X1340374Y1356414D01*
X1340800Y1357443D01*
X1340800Y1378557D01*
X1340374Y1379586D01*
X1339586Y1380374D01*
X1338557Y1380800D01*
X1318000Y1380800D01*
X1318000Y1403000D01*
X1343000Y1403000D01*
X1343000Y0955500D01*
X1318000Y0955500D01*
X1318000Y0970200D01*
X1338557Y0970200D01*
X1339586Y0970626D01*
X1340374Y0971414D01*
X1340800Y0972443D01*
X1340800Y0993557D01*
X1340374Y0994586D01*
X1339586Y0995374D01*
X1338557Y0995800D01*
X1323402Y0995800D01*
X1318000Y1001202D01*
X1318000Y1025200D01*
X1338557Y1025200D01*
X1339586Y1025626D01*
X1340374Y1026414D01*
X1340800Y1027443D01*
X1340800Y1048557D01*
X1340374Y1049586D01*
X1339586Y1050374D01*
X1338557Y1050800D01*
X1328800Y1050800D01*
X1328800Y1059154D01*
X1327917Y1061285D01*
X1318000Y1071202D01*
X1318000Y1080200D01*
X1338557Y1080200D01*
X1339586Y1080626D01*
X1340374Y1081414D01*
X1340800Y1082443D01*
X1340800Y1103557D01*
X1340374Y1104586D01*
X1339586Y1105374D01*
X1338557Y1105800D01*
X1318402Y1105800D01*
X1318000Y1106202D01*
X1318000Y1106784D02*
X1343000Y1106784D01*
X1343000Y1105586D02*
X1339074Y1105586D01*
X1340456Y1104387D02*
X1343000Y1104387D01*
X1343000Y1103189D02*
X1340800Y1103189D01*
X1340800Y1101990D02*
X1343000Y1101990D01*
X1343000Y1100792D02*
X1340800Y1100792D01*
X1340800Y1099593D02*
X1343000Y1099593D01*
X1343000Y1098395D02*
X1340800Y1098395D01*
X1340800Y1097196D02*
X1343000Y1097196D01*
X1343000Y1095998D02*
X1340800Y1095998D01*
X1340800Y1094799D02*
X1343000Y1094799D01*
X1343000Y1093601D02*
X1340800Y1093601D01*
X1340800Y1092402D02*
X1343000Y1092402D01*
X1343000Y1091203D02*
X1340800Y1091203D01*
X1340800Y1090005D02*
X1343000Y1090005D01*
X1343000Y1088806D02*
X1340800Y1088806D01*
X1340800Y1087608D02*
X1343000Y1087608D01*
X1343000Y1086409D02*
X1340800Y1086409D01*
X1340800Y1085211D02*
X1343000Y1085211D01*
X1343000Y1084012D02*
X1340800Y1084012D01*
X1340800Y1082814D02*
X1343000Y1082814D01*
X1343000Y1081615D02*
X1340457Y1081615D01*
X1339081Y1080417D02*
X1343000Y1080417D01*
X1343000Y1079218D02*
X1318000Y1079218D01*
X1318000Y1078020D02*
X1343000Y1078020D01*
X1343000Y1076821D02*
X1318000Y1076821D01*
X1318000Y1075623D02*
X1343000Y1075623D01*
X1343000Y1074424D02*
X1318000Y1074424D01*
X1318000Y1073226D02*
X1343000Y1073226D01*
X1343000Y1072027D02*
X1318000Y1072027D01*
X1318374Y1070829D02*
X1343000Y1070829D01*
X1343000Y1069630D02*
X1319572Y1069630D01*
X1320771Y1068432D02*
X1343000Y1068432D01*
X1343000Y1067233D02*
X1321969Y1067233D01*
X1323168Y1066035D02*
X1343000Y1066035D01*
X1343000Y1064836D02*
X1324366Y1064836D01*
X1325565Y1063638D02*
X1343000Y1063638D01*
X1343000Y1062439D02*
X1326763Y1062439D01*
X1327936Y1061241D02*
X1343000Y1061241D01*
X1343000Y1060042D02*
X1328432Y1060042D01*
X1328800Y1058844D02*
X1343000Y1058844D01*
X1343000Y1057645D02*
X1328800Y1057645D01*
X1328800Y1056447D02*
X1343000Y1056447D01*
X1343000Y1055248D02*
X1328800Y1055248D01*
X1328800Y1054050D02*
X1343000Y1054050D01*
X1343000Y1052851D02*
X1328800Y1052851D01*
X1328800Y1051653D02*
X1343000Y1051653D01*
X1343000Y1050454D02*
X1339392Y1050454D01*
X1340511Y1049256D02*
X1343000Y1049256D01*
X1343000Y1048057D02*
X1340800Y1048057D01*
X1340800Y1046859D02*
X1343000Y1046859D01*
X1343000Y1045660D02*
X1340800Y1045660D01*
X1340800Y1044462D02*
X1343000Y1044462D01*
X1343000Y1043263D02*
X1340800Y1043263D01*
X1340800Y1042065D02*
X1343000Y1042065D01*
X1343000Y1040866D02*
X1340800Y1040866D01*
X1340800Y1039668D02*
X1343000Y1039668D01*
X1343000Y1038469D02*
X1340800Y1038469D01*
X1340800Y1037270D02*
X1343000Y1037270D01*
X1343000Y1036072D02*
X1340800Y1036072D01*
X1340800Y1034873D02*
X1343000Y1034873D01*
X1343000Y1033675D02*
X1340800Y1033675D01*
X1340800Y1032476D02*
X1343000Y1032476D01*
X1343000Y1031278D02*
X1340800Y1031278D01*
X1340800Y1030079D02*
X1343000Y1030079D01*
X1343000Y1028881D02*
X1340800Y1028881D01*
X1340800Y1027682D02*
X1343000Y1027682D01*
X1343000Y1026484D02*
X1340403Y1026484D01*
X1338763Y1025285D02*
X1343000Y1025285D01*
X1343000Y1024087D02*
X1318000Y1024087D01*
X1318000Y1022888D02*
X1343000Y1022888D01*
X1343000Y1021690D02*
X1318000Y1021690D01*
X1318000Y1020491D02*
X1343000Y1020491D01*
X1343000Y1019293D02*
X1318000Y1019293D01*
X1318000Y1018094D02*
X1343000Y1018094D01*
X1343000Y1016896D02*
X1318000Y1016896D01*
X1318000Y1015697D02*
X1343000Y1015697D01*
X1343000Y1014499D02*
X1318000Y1014499D01*
X1318000Y1013300D02*
X1343000Y1013300D01*
X1343000Y1012102D02*
X1318000Y1012102D01*
X1318000Y1010903D02*
X1343000Y1010903D01*
X1343000Y1009705D02*
X1318000Y1009705D01*
X1318000Y1008506D02*
X1343000Y1008506D01*
X1343000Y1007308D02*
X1318000Y1007308D01*
X1318000Y1006109D02*
X1343000Y1006109D01*
X1343000Y1004911D02*
X1318000Y1004911D01*
X1318000Y1003712D02*
X1343000Y1003712D01*
X1343000Y1002514D02*
X1318000Y1002514D01*
X1318000Y1001315D02*
X1343000Y1001315D01*
X1343000Y1000117D02*
X1319086Y1000117D01*
X1320284Y0998918D02*
X1343000Y0998918D01*
X1343000Y0997720D02*
X1321483Y0997720D01*
X1322681Y0996521D02*
X1343000Y0996521D01*
X1343000Y0995323D02*
X1339637Y0995323D01*
X1340565Y0994124D02*
X1343000Y0994124D01*
X1343000Y0992926D02*
X1340800Y0992926D01*
X1340800Y0991727D02*
X1343000Y0991727D01*
X1343000Y0990529D02*
X1340800Y0990529D01*
X1340800Y0989330D02*
X1343000Y0989330D01*
X1343000Y0988132D02*
X1340800Y0988132D01*
X1340800Y0986933D02*
X1343000Y0986933D01*
X1343000Y0985734D02*
X1340800Y0985734D01*
X1340800Y0984536D02*
X1343000Y0984536D01*
X1343000Y0983337D02*
X1340800Y0983337D01*
X1340800Y0982139D02*
X1343000Y0982139D01*
X1343000Y0980940D02*
X1340800Y0980940D01*
X1340800Y0979742D02*
X1343000Y0979742D01*
X1343000Y0978543D02*
X1340800Y0978543D01*
X1340800Y0977345D02*
X1343000Y0977345D01*
X1343000Y0976146D02*
X1340800Y0976146D01*
X1340800Y0974948D02*
X1343000Y0974948D01*
X1343000Y0973749D02*
X1340800Y0973749D01*
X1340800Y0972551D02*
X1343000Y0972551D01*
X1343000Y0971352D02*
X1340312Y0971352D01*
X1343000Y0970154D02*
X1318000Y0970154D01*
X1318000Y0968955D02*
X1343000Y0968955D01*
X1343000Y0967757D02*
X1318000Y0967757D01*
X1318000Y0966558D02*
X1343000Y0966558D01*
X1343000Y0965360D02*
X1318000Y0965360D01*
X1318000Y0964161D02*
X1343000Y0964161D01*
X1343000Y0962963D02*
X1318000Y0962963D01*
X1318000Y0961764D02*
X1343000Y0961764D01*
X1343000Y0960566D02*
X1318000Y0960566D01*
X1318000Y0959367D02*
X1343000Y0959367D01*
X1343000Y0958169D02*
X1318000Y0958169D01*
X1318000Y0956970D02*
X1343000Y0956970D01*
X1343000Y0955772D02*
X1318000Y0955772D01*
X1243000Y1081680D02*
X1243000Y1083000D01*
X1318000Y1107983D02*
X1343000Y1107983D01*
X1343000Y1109181D02*
X1318000Y1109181D01*
X1318000Y1110380D02*
X1343000Y1110380D01*
X1343000Y1111578D02*
X1318000Y1111578D01*
X1318000Y1112777D02*
X1343000Y1112777D01*
X1343000Y1113975D02*
X1318000Y1113975D01*
X1318000Y1115174D02*
X1343000Y1115174D01*
X1343000Y1116372D02*
X1318000Y1116372D01*
X1318000Y1117571D02*
X1343000Y1117571D01*
X1343000Y1118769D02*
X1318000Y1118769D01*
X1318000Y1119968D02*
X1343000Y1119968D01*
X1343000Y1121166D02*
X1318000Y1121166D01*
X1318000Y1122365D02*
X1343000Y1122365D01*
X1343000Y1123563D02*
X1318000Y1123563D01*
X1318000Y1124762D02*
X1343000Y1124762D01*
X1343000Y1125960D02*
X1318000Y1125960D01*
X1318000Y1127159D02*
X1343000Y1127159D01*
X1343000Y1128357D02*
X1318000Y1128357D01*
X1318000Y1129556D02*
X1343000Y1129556D01*
X1343000Y1130754D02*
X1318000Y1130754D01*
X1318000Y1131953D02*
X1343000Y1131953D01*
X1343000Y1133151D02*
X1318000Y1133151D01*
X1318000Y1134350D02*
X1343000Y1134350D01*
X1343000Y1135548D02*
X1339398Y1135548D01*
X1340512Y1136747D02*
X1343000Y1136747D01*
X1343000Y1137945D02*
X1340800Y1137945D01*
X1340800Y1139144D02*
X1343000Y1139144D01*
X1343000Y1140342D02*
X1340800Y1140342D01*
X1340800Y1141541D02*
X1343000Y1141541D01*
X1343000Y1142739D02*
X1340800Y1142739D01*
X1340800Y1143938D02*
X1343000Y1143938D01*
X1343000Y1145137D02*
X1340800Y1145137D01*
X1340800Y1146335D02*
X1343000Y1146335D01*
X1343000Y1147534D02*
X1340800Y1147534D01*
X1340800Y1148732D02*
X1343000Y1148732D01*
X1343000Y1149931D02*
X1340800Y1149931D01*
X1340800Y1151129D02*
X1343000Y1151129D01*
X1343000Y1152328D02*
X1340800Y1152328D01*
X1340800Y1153526D02*
X1343000Y1153526D01*
X1343000Y1154725D02*
X1340800Y1154725D01*
X1340800Y1155923D02*
X1343000Y1155923D01*
X1343000Y1157122D02*
X1340800Y1157122D01*
X1340800Y1158320D02*
X1343000Y1158320D01*
X1343000Y1159519D02*
X1340402Y1159519D01*
X1338757Y1160717D02*
X1343000Y1160717D01*
X1343000Y1161916D02*
X1318800Y1161916D01*
X1318800Y1163114D02*
X1343000Y1163114D01*
X1343000Y1164313D02*
X1318800Y1164313D01*
X1318800Y1165511D02*
X1343000Y1165511D01*
X1343000Y1166710D02*
X1318800Y1166710D01*
X1318800Y1167908D02*
X1343000Y1167908D01*
X1343000Y1169107D02*
X1318800Y1169107D01*
X1318323Y1170305D02*
X1343000Y1170305D01*
X1343000Y1171504D02*
X1318000Y1171504D01*
X1318000Y1172702D02*
X1343000Y1172702D01*
X1343000Y1173901D02*
X1318000Y1173901D01*
X1318000Y1175099D02*
X1343000Y1175099D01*
X1343000Y1176298D02*
X1318000Y1176298D01*
X1318000Y1177496D02*
X1343000Y1177496D01*
X1343000Y1178695D02*
X1318000Y1178695D01*
X1318000Y1179893D02*
X1343000Y1179893D01*
X1343000Y1181092D02*
X1318000Y1181092D01*
X1318000Y1182290D02*
X1343000Y1182290D01*
X1343000Y1183489D02*
X1318000Y1183489D01*
X1318000Y1184687D02*
X1343000Y1184687D01*
X1343000Y1185886D02*
X1318402Y1185886D01*
X1318800Y1187084D02*
X1343000Y1187084D01*
X1343000Y1188283D02*
X1318800Y1188283D01*
X1318800Y1189481D02*
X1343000Y1189481D01*
X1343000Y1190680D02*
X1339640Y1190680D01*
X1340566Y1191878D02*
X1343000Y1191878D01*
X1343000Y1193077D02*
X1340800Y1193077D01*
X1340800Y1194275D02*
X1343000Y1194275D01*
X1343000Y1195474D02*
X1340800Y1195474D01*
X1340800Y1196672D02*
X1343000Y1196672D01*
X1343000Y1197871D02*
X1340800Y1197871D01*
X1340800Y1199070D02*
X1343000Y1199070D01*
X1343000Y1200268D02*
X1340800Y1200268D01*
X1340800Y1201467D02*
X1343000Y1201467D01*
X1343000Y1202665D02*
X1340800Y1202665D01*
X1340800Y1203864D02*
X1343000Y1203864D01*
X1343000Y1205062D02*
X1340800Y1205062D01*
X1340800Y1206261D02*
X1343000Y1206261D01*
X1343000Y1207459D02*
X1340800Y1207459D01*
X1340800Y1208658D02*
X1343000Y1208658D01*
X1343000Y1209856D02*
X1340800Y1209856D01*
X1340800Y1211055D02*
X1343000Y1211055D01*
X1343000Y1212253D02*
X1340800Y1212253D01*
X1340800Y1213452D02*
X1343000Y1213452D01*
X1343000Y1214650D02*
X1340310Y1214650D01*
X1343000Y1215849D02*
X1318000Y1215849D01*
X1318000Y1217047D02*
X1343000Y1217047D01*
X1343000Y1218246D02*
X1318000Y1218246D01*
X1318000Y1219444D02*
X1343000Y1219444D01*
X1343000Y1220643D02*
X1318000Y1220643D01*
X1318000Y1221841D02*
X1343000Y1221841D01*
X1343000Y1223040D02*
X1318000Y1223040D01*
X1318000Y1224238D02*
X1343000Y1224238D01*
X1343000Y1225437D02*
X1318000Y1225437D01*
X1318000Y1226635D02*
X1343000Y1226635D01*
X1343000Y1227834D02*
X1318000Y1227834D01*
X1318000Y1229032D02*
X1343000Y1229032D01*
X1343000Y1230231D02*
X1318000Y1230231D01*
X1318000Y1231429D02*
X1343000Y1231429D01*
X1343000Y1232628D02*
X1318000Y1232628D01*
X1318000Y1233826D02*
X1343000Y1233826D01*
X1343000Y1235025D02*
X1318000Y1235025D01*
X1318000Y1236223D02*
X1343000Y1236223D01*
X1343000Y1237422D02*
X1318000Y1237422D01*
X1318000Y1238620D02*
X1343000Y1238620D01*
X1343000Y1239819D02*
X1318000Y1239819D01*
X1318000Y1241017D02*
X1343000Y1241017D01*
X1343000Y1242216D02*
X1318000Y1242216D01*
X1318000Y1243414D02*
X1343000Y1243414D01*
X1343000Y1244613D02*
X1318000Y1244613D01*
X1339771Y1245811D02*
X1343000Y1245811D01*
X1343000Y1247010D02*
X1340621Y1247010D01*
X1340800Y1248208D02*
X1343000Y1248208D01*
X1343000Y1249407D02*
X1340800Y1249407D01*
X1340800Y1250605D02*
X1343000Y1250605D01*
X1343000Y1251804D02*
X1340800Y1251804D01*
X1340800Y1253003D02*
X1343000Y1253003D01*
X1343000Y1254201D02*
X1340800Y1254201D01*
X1340800Y1255400D02*
X1343000Y1255400D01*
X1343000Y1256598D02*
X1340800Y1256598D01*
X1340800Y1257797D02*
X1343000Y1257797D01*
X1343000Y1258995D02*
X1340800Y1258995D01*
X1340800Y1260194D02*
X1343000Y1260194D01*
X1343000Y1261392D02*
X1340800Y1261392D01*
X1340800Y1262591D02*
X1343000Y1262591D01*
X1343000Y1263789D02*
X1340800Y1263789D01*
X1340800Y1264988D02*
X1343000Y1264988D01*
X1343000Y1266186D02*
X1340800Y1266186D01*
X1340800Y1267385D02*
X1343000Y1267385D01*
X1343000Y1268583D02*
X1340789Y1268583D01*
X1340178Y1269782D02*
X1343000Y1269782D01*
X1343000Y1270980D02*
X1318000Y1270980D01*
X1318000Y1272179D02*
X1343000Y1272179D01*
X1343000Y1273377D02*
X1318000Y1273377D01*
X1318000Y1274576D02*
X1343000Y1274576D01*
X1343000Y1275774D02*
X1318000Y1275774D01*
X1318000Y1276973D02*
X1343000Y1276973D01*
X1343000Y1278171D02*
X1318000Y1278171D01*
X1318000Y1279370D02*
X1343000Y1279370D01*
X1343000Y1280568D02*
X1318000Y1280568D01*
X1318000Y1281767D02*
X1343000Y1281767D01*
X1343000Y1282965D02*
X1318000Y1282965D01*
X1318000Y1284164D02*
X1343000Y1284164D01*
X1343000Y1285362D02*
X1318000Y1285362D01*
X1318000Y1286561D02*
X1343000Y1286561D01*
X1343000Y1287759D02*
X1318000Y1287759D01*
X1318000Y1288958D02*
X1343000Y1288958D01*
X1343000Y1290156D02*
X1318000Y1290156D01*
X1318000Y1291355D02*
X1343000Y1291355D01*
X1343000Y1292553D02*
X1318000Y1292553D01*
X1318000Y1293752D02*
X1343000Y1293752D01*
X1343000Y1294950D02*
X1318153Y1294950D01*
X1319351Y1296149D02*
X1343000Y1296149D01*
X1343000Y1297347D02*
X1320550Y1297347D01*
X1321748Y1298546D02*
X1343000Y1298546D01*
X1343000Y1299744D02*
X1322947Y1299744D01*
X1339903Y1300943D02*
X1343000Y1300943D01*
X1343000Y1302141D02*
X1340675Y1302141D01*
X1340800Y1303340D02*
X1343000Y1303340D01*
X1343000Y1304539D02*
X1340800Y1304539D01*
X1340800Y1305737D02*
X1343000Y1305737D01*
X1343000Y1306936D02*
X1340800Y1306936D01*
X1340800Y1308134D02*
X1343000Y1308134D01*
X1343000Y1309333D02*
X1340800Y1309333D01*
X1340800Y1310531D02*
X1343000Y1310531D01*
X1343000Y1311730D02*
X1340800Y1311730D01*
X1340800Y1312928D02*
X1343000Y1312928D01*
X1343000Y1314127D02*
X1340800Y1314127D01*
X1340800Y1315325D02*
X1343000Y1315325D01*
X1343000Y1316524D02*
X1340800Y1316524D01*
X1340800Y1317722D02*
X1343000Y1317722D01*
X1343000Y1318921D02*
X1340800Y1318921D01*
X1340800Y1320119D02*
X1343000Y1320119D01*
X1343000Y1321318D02*
X1340800Y1321318D01*
X1340800Y1322516D02*
X1343000Y1322516D01*
X1343000Y1323715D02*
X1340735Y1323715D01*
X1340047Y1324913D02*
X1343000Y1324913D01*
X1343000Y1326112D02*
X1318000Y1326112D01*
X1318000Y1327310D02*
X1343000Y1327310D01*
X1343000Y1328509D02*
X1318000Y1328509D01*
X1318000Y1329707D02*
X1343000Y1329707D01*
X1343000Y1330906D02*
X1318000Y1330906D01*
X1318000Y1332104D02*
X1343000Y1332104D01*
X1343000Y1333303D02*
X1318000Y1333303D01*
X1318000Y1334501D02*
X1343000Y1334501D01*
X1343000Y1335700D02*
X1318000Y1335700D01*
X1318000Y1336898D02*
X1343000Y1336898D01*
X1343000Y1338097D02*
X1318000Y1338097D01*
X1318000Y1339295D02*
X1343000Y1339295D01*
X1343000Y1340494D02*
X1318000Y1340494D01*
X1318000Y1341692D02*
X1343000Y1341692D01*
X1343000Y1342891D02*
X1318000Y1342891D01*
X1318000Y1344089D02*
X1343000Y1344089D01*
X1343000Y1345288D02*
X1318000Y1345288D01*
X1318000Y1346486D02*
X1343000Y1346486D01*
X1343000Y1347685D02*
X1318000Y1347685D01*
X1318000Y1348883D02*
X1343000Y1348883D01*
X1343000Y1350082D02*
X1318284Y1350082D01*
X1319483Y1351280D02*
X1343000Y1351280D01*
X1343000Y1352479D02*
X1320681Y1352479D01*
X1321880Y1353677D02*
X1343000Y1353677D01*
X1343000Y1354876D02*
X1323078Y1354876D01*
X1340034Y1356074D02*
X1343000Y1356074D01*
X1343000Y1357273D02*
X1340730Y1357273D01*
X1340800Y1358472D02*
X1343000Y1358472D01*
X1343000Y1359670D02*
X1340800Y1359670D01*
X1340800Y1360869D02*
X1343000Y1360869D01*
X1343000Y1362067D02*
X1340800Y1362067D01*
X1340800Y1363266D02*
X1343000Y1363266D01*
X1343000Y1364464D02*
X1340800Y1364464D01*
X1340800Y1365663D02*
X1343000Y1365663D01*
X1343000Y1366861D02*
X1340800Y1366861D01*
X1340800Y1368060D02*
X1343000Y1368060D01*
X1343000Y1369258D02*
X1340800Y1369258D01*
X1340800Y1370457D02*
X1343000Y1370457D01*
X1343000Y1371655D02*
X1340800Y1371655D01*
X1340800Y1372854D02*
X1343000Y1372854D01*
X1343000Y1374052D02*
X1340800Y1374052D01*
X1340800Y1375251D02*
X1343000Y1375251D01*
X1343000Y1376449D02*
X1340800Y1376449D01*
X1340800Y1377648D02*
X1343000Y1377648D01*
X1343000Y1378846D02*
X1340680Y1378846D01*
X1339915Y1380045D02*
X1343000Y1380045D01*
X1343000Y1381243D02*
X1318000Y1381243D01*
X1318000Y1382442D02*
X1343000Y1382442D01*
X1343000Y1383640D02*
X1318000Y1383640D01*
X1318000Y1384839D02*
X1343000Y1384839D01*
X1343000Y1386037D02*
X1318000Y1386037D01*
X1318000Y1387236D02*
X1343000Y1387236D01*
X1343000Y1388434D02*
X1318000Y1388434D01*
X1318000Y1389633D02*
X1343000Y1389633D01*
X1343000Y1390831D02*
X1318000Y1390831D01*
X1318000Y1392030D02*
X1343000Y1392030D01*
X1343000Y1393228D02*
X1318000Y1393228D01*
X1318000Y1394427D02*
X1343000Y1394427D01*
X1343000Y1395625D02*
X1318000Y1395625D01*
X1318000Y1396824D02*
X1343000Y1396824D01*
X1343000Y1398022D02*
X1318000Y1398022D01*
X1318000Y1399221D02*
X1343000Y1399221D01*
X1343000Y1400419D02*
X1318000Y1400419D01*
X1318000Y1401618D02*
X1343000Y1401618D01*
X1343000Y1402816D02*
X1318000Y1402816D01*
X1113000Y1193000D02*
X1138000Y1168000D01*
D31*
X1144856Y1206144D03*
D32*
X1280625Y1098000D03*
X0828000Y0968000D03*
D33*
X0898000Y1053000D03*
X0753000Y1213000D03*
X0708000Y1363000D03*
X1243000Y1081680D03*
D34*
X1318000Y1083000D02*
X1318000Y1103000D01*
X1338000Y1103000D01*
X1338000Y1083000D01*
X1318000Y1083000D01*
X1318000Y1084887D02*
X1338000Y1084887D01*
X1338000Y1086885D02*
X1318000Y1086885D01*
X1318000Y1088884D02*
X1338000Y1088884D01*
X1338000Y1090882D02*
X1318000Y1090882D01*
X1318000Y1092881D02*
X1338000Y1092881D01*
X1338000Y1094879D02*
X1318000Y1094879D01*
X1318000Y1096878D02*
X1338000Y1096878D01*
X1338000Y1098876D02*
X1318000Y1098876D01*
X1318000Y1100875D02*
X1338000Y1100875D01*
X1338000Y1102873D02*
X1318000Y1102873D01*
X1318000Y1138000D02*
X1318000Y1158000D01*
X1338000Y1158000D01*
X1338000Y1138000D01*
X1318000Y1138000D01*
X1318000Y1138847D02*
X1338000Y1138847D01*
X1338000Y1140845D02*
X1318000Y1140845D01*
X1318000Y1142844D02*
X1338000Y1142844D01*
X1338000Y1144842D02*
X1318000Y1144842D01*
X1318000Y1146841D02*
X1338000Y1146841D01*
X1338000Y1148839D02*
X1318000Y1148839D01*
X1318000Y1150838D02*
X1338000Y1150838D01*
X1338000Y1152836D02*
X1318000Y1152836D01*
X1318000Y1154835D02*
X1338000Y1154835D01*
X1338000Y1156833D02*
X1318000Y1156833D01*
X1318000Y1193000D02*
X1318000Y1213000D01*
X1338000Y1213000D01*
X1338000Y1193000D01*
X1318000Y1193000D01*
X1318000Y1194805D02*
X1338000Y1194805D01*
X1338000Y1196803D02*
X1318000Y1196803D01*
X1318000Y1198802D02*
X1338000Y1198802D01*
X1338000Y1200801D02*
X1318000Y1200801D01*
X1318000Y1202799D02*
X1338000Y1202799D01*
X1338000Y1204798D02*
X1318000Y1204798D01*
X1318000Y1206796D02*
X1338000Y1206796D01*
X1338000Y1208795D02*
X1318000Y1208795D01*
X1318000Y1210793D02*
X1338000Y1210793D01*
X1338000Y1212792D02*
X1318000Y1212792D01*
X1318000Y1248000D02*
X1318000Y1268000D01*
X1338000Y1268000D01*
X1338000Y1248000D01*
X1318000Y1248000D01*
X1318000Y1248765D02*
X1338000Y1248765D01*
X1338000Y1250763D02*
X1318000Y1250763D01*
X1318000Y1252762D02*
X1338000Y1252762D01*
X1338000Y1254760D02*
X1318000Y1254760D01*
X1318000Y1256759D02*
X1338000Y1256759D01*
X1338000Y1258757D02*
X1318000Y1258757D01*
X1318000Y1260756D02*
X1338000Y1260756D01*
X1338000Y1262754D02*
X1318000Y1262754D01*
X1318000Y1264753D02*
X1338000Y1264753D01*
X1338000Y1266751D02*
X1318000Y1266751D01*
X1318000Y1303000D02*
X1318000Y1323000D01*
X1338000Y1323000D01*
X1338000Y1303000D01*
X1318000Y1303000D01*
X1318000Y1304723D02*
X1338000Y1304723D01*
X1338000Y1306722D02*
X1318000Y1306722D01*
X1318000Y1308720D02*
X1338000Y1308720D01*
X1338000Y1310719D02*
X1318000Y1310719D01*
X1318000Y1312717D02*
X1338000Y1312717D01*
X1338000Y1314716D02*
X1318000Y1314716D01*
X1318000Y1316714D02*
X1338000Y1316714D01*
X1338000Y1318713D02*
X1318000Y1318713D01*
X1318000Y1320711D02*
X1338000Y1320711D01*
X1338000Y1322710D02*
X1318000Y1322710D01*
X1318000Y1358000D02*
X1318000Y1378000D01*
X1338000Y1378000D01*
X1338000Y1358000D01*
X1318000Y1358000D01*
X1318000Y1358683D02*
X1338000Y1358683D01*
X1338000Y1360681D02*
X1318000Y1360681D01*
X1318000Y1362680D02*
X1338000Y1362680D01*
X1338000Y1364678D02*
X1318000Y1364678D01*
X1318000Y1366677D02*
X1338000Y1366677D01*
X1338000Y1368675D02*
X1318000Y1368675D01*
X1318000Y1370674D02*
X1338000Y1370674D01*
X1338000Y1372672D02*
X1318000Y1372672D01*
X1318000Y1374671D02*
X1338000Y1374671D01*
X1338000Y1376670D02*
X1318000Y1376670D01*
X1068000Y1223000D02*
X1043000Y1248000D01*
X0828000Y1373000D02*
X0818000Y1373000D01*
X0803000Y1388000D01*
X0803000Y1418000D01*
X0793000Y1428000D01*
X0658000Y1428000D01*
X0648000Y1418000D01*
X0648000Y1272750D01*
X0678000Y1242750D01*
X1318000Y1048000D02*
X1318000Y1028000D01*
X1338000Y1028000D01*
X1338000Y1048000D01*
X1318000Y1048000D01*
X1318000Y1046915D02*
X1338000Y1046915D01*
X1338000Y1044917D02*
X1318000Y1044917D01*
X1318000Y1042918D02*
X1338000Y1042918D01*
X1338000Y1040920D02*
X1318000Y1040920D01*
X1318000Y1038921D02*
X1338000Y1038921D01*
X1338000Y1036923D02*
X1318000Y1036923D01*
X1318000Y1034924D02*
X1338000Y1034924D01*
X1338000Y1032926D02*
X1318000Y1032926D01*
X1318000Y1030927D02*
X1338000Y1030927D01*
X1338000Y1028929D02*
X1318000Y1028929D01*
X1318000Y0993000D02*
X1338000Y0993000D01*
X1338000Y0973000D01*
X1318000Y0973000D01*
X1318000Y0993000D01*
X1318000Y0992955D02*
X1338000Y0992955D01*
X1338000Y0990957D02*
X1318000Y0990957D01*
X1318000Y0988958D02*
X1338000Y0988958D01*
X1338000Y0986960D02*
X1318000Y0986960D01*
X1318000Y0984961D02*
X1338000Y0984961D01*
X1338000Y0982963D02*
X1318000Y0982963D01*
X1318000Y0980964D02*
X1338000Y0980964D01*
X1338000Y0978966D02*
X1318000Y0978966D01*
X1318000Y0976967D02*
X1338000Y0976967D01*
X1338000Y0974969D02*
X1318000Y0974969D01*
D35*
X1283000Y1138000D02*
X1282300Y1138000D01*
X1281725Y1138575D01*
X1279308Y1139576D01*
X1276692Y1139576D01*
X1274275Y1138575D01*
X1273700Y1138000D01*
X1213000Y1138000D01*
X1213000Y1163525D01*
X1213048Y1163573D01*
X1213583Y1164270D01*
X1214022Y1165030D01*
X1214358Y1165842D01*
X1214585Y1166690D01*
X1214700Y1167561D01*
X1214700Y1168000D01*
X1214700Y1168439D01*
X1214585Y1169310D01*
X1214358Y1170158D01*
X1214022Y1170970D01*
X1213583Y1171730D01*
X1213048Y1172427D01*
X1213000Y1172475D01*
X1213000Y1201817D01*
X1220561Y1201817D01*
X1224183Y1205439D01*
X1224183Y1210561D01*
X1222600Y1212144D01*
X1222600Y1218000D01*
X1283000Y1218000D01*
X1283000Y1138000D01*
X1283000Y1142937D02*
X1213000Y1142937D01*
X1213000Y1147936D02*
X1283000Y1147936D01*
X1283000Y1152934D02*
X1213000Y1152934D01*
X1213000Y1157933D02*
X1225868Y1157933D01*
X1225992Y1157808D02*
X1226914Y1157073D01*
X1227913Y1156446D01*
X1228975Y1155934D01*
X1230089Y1155544D01*
X1231238Y1155282D01*
X1232410Y1155150D01*
X1233000Y1155150D01*
X1233590Y1155150D01*
X1234762Y1155282D01*
X1235911Y1155544D01*
X1237025Y1155934D01*
X1238087Y1156446D01*
X1239086Y1157073D01*
X1240008Y1157808D01*
X1240842Y1158642D01*
X1241577Y1159564D01*
X1242204Y1160563D01*
X1242716Y1161625D01*
X1243106Y1162739D01*
X1243368Y1163888D01*
X1243500Y1165060D01*
X1243500Y1165650D01*
X1243500Y1166240D01*
X1243368Y1167412D01*
X1243106Y1168561D01*
X1242716Y1169675D01*
X1242204Y1170737D01*
X1241577Y1171736D01*
X1240842Y1172658D01*
X1240008Y1173492D01*
X1239086Y1174227D01*
X1238087Y1174854D01*
X1237025Y1175366D01*
X1235911Y1175756D01*
X1234762Y1176018D01*
X1233590Y1176150D01*
X1233000Y1176150D01*
X1233000Y1165650D01*
X1233000Y1165650D01*
X1243500Y1165650D01*
X1233000Y1165650D01*
X1233000Y1165650D01*
X1233000Y1165650D01*
X1222500Y1165650D01*
X1222500Y1166240D01*
X1222632Y1167412D01*
X1222894Y1168561D01*
X1223284Y1169675D01*
X1223796Y1170737D01*
X1224423Y1171736D01*
X1225158Y1172658D01*
X1225992Y1173492D01*
X1226914Y1174227D01*
X1227913Y1174854D01*
X1228975Y1175366D01*
X1230089Y1175756D01*
X1231238Y1176018D01*
X1232410Y1176150D01*
X1233000Y1176150D01*
X1233000Y1165650D01*
X1233000Y1155150D01*
X1233000Y1165650D01*
X1233000Y1165650D01*
X1222500Y1165650D01*
X1222500Y1165060D01*
X1222632Y1163888D01*
X1222894Y1162739D01*
X1223284Y1161625D01*
X1223796Y1160563D01*
X1224423Y1159564D01*
X1225158Y1158642D01*
X1225992Y1157808D01*
X1222850Y1162932D02*
X1213000Y1162932D01*
X1213000Y1168000D02*
X1213000Y1168000D01*
X1214700Y1168000D01*
X1213000Y1168000D01*
X1214700Y1167930D02*
X1222750Y1167930D01*
X1225429Y1172929D02*
X1213000Y1172929D01*
X1213000Y1177927D02*
X1283000Y1177927D01*
X1283000Y1172929D02*
X1240571Y1172929D01*
X1243250Y1167930D02*
X1283000Y1167930D01*
X1283000Y1162932D02*
X1243150Y1162932D01*
X1240132Y1157933D02*
X1283000Y1157933D01*
X1283000Y1182926D02*
X1213000Y1182926D01*
X1213000Y1187924D02*
X1225877Y1187924D01*
X1225992Y1187808D02*
X1226914Y1187073D01*
X1227913Y1186446D01*
X1228975Y1185934D01*
X1230089Y1185544D01*
X1231238Y1185282D01*
X1232410Y1185150D01*
X1233000Y1185150D01*
X1233590Y1185150D01*
X1234762Y1185282D01*
X1235911Y1185544D01*
X1237025Y1185934D01*
X1238087Y1186446D01*
X1239086Y1187073D01*
X1240008Y1187808D01*
X1240842Y1188642D01*
X1241577Y1189564D01*
X1242204Y1190563D01*
X1242716Y1191625D01*
X1243106Y1192739D01*
X1243368Y1193888D01*
X1243500Y1195060D01*
X1243500Y1195650D01*
X1243500Y1196240D01*
X1243368Y1197412D01*
X1243106Y1198561D01*
X1242716Y1199675D01*
X1242204Y1200737D01*
X1241577Y1201736D01*
X1240842Y1202658D01*
X1240008Y1203492D01*
X1239086Y1204227D01*
X1238087Y1204854D01*
X1237025Y1205366D01*
X1235911Y1205756D01*
X1234762Y1206018D01*
X1233590Y1206150D01*
X1233000Y1206150D01*
X1233000Y1195650D01*
X1233000Y1195650D01*
X1243500Y1195650D01*
X1233000Y1195650D01*
X1233000Y1195650D01*
X1233000Y1195650D01*
X1222500Y1195650D01*
X1222500Y1196240D01*
X1222632Y1197412D01*
X1222894Y1198561D01*
X1223284Y1199675D01*
X1223796Y1200737D01*
X1224423Y1201736D01*
X1225158Y1202658D01*
X1225992Y1203492D01*
X1226914Y1204227D01*
X1227913Y1204854D01*
X1228975Y1205366D01*
X1230089Y1205756D01*
X1231238Y1206018D01*
X1232410Y1206150D01*
X1233000Y1206150D01*
X1233000Y1195650D01*
X1233000Y1185150D01*
X1233000Y1195650D01*
X1233000Y1195650D01*
X1222500Y1195650D01*
X1222500Y1195060D01*
X1222632Y1193888D01*
X1222894Y1192739D01*
X1223284Y1191625D01*
X1223796Y1190563D01*
X1224423Y1189564D01*
X1225158Y1188642D01*
X1225992Y1187808D01*
X1222852Y1192923D02*
X1213000Y1192923D01*
X1213000Y1197921D02*
X1222748Y1197921D01*
X1221663Y1202920D02*
X1225420Y1202920D01*
X1224183Y1207918D02*
X1283000Y1207918D01*
X1283000Y1202920D02*
X1240580Y1202920D01*
X1243252Y1197921D02*
X1283000Y1197921D01*
X1283000Y1192923D02*
X1243147Y1192923D01*
X1240123Y1187924D02*
X1283000Y1187924D01*
X1283000Y1212917D02*
X1222600Y1212917D01*
X1222600Y1217915D02*
X1283000Y1217915D01*
X1233000Y1202920D02*
X1233000Y1202920D01*
X1233000Y1197921D02*
X1233000Y1197921D01*
X1233000Y1192923D02*
X1233000Y1192923D01*
X1233000Y1187924D02*
X1233000Y1187924D01*
X1233000Y1172929D02*
X1233000Y1172929D01*
X1233000Y1167930D02*
X1233000Y1167930D01*
X1233000Y1162932D02*
X1233000Y1162932D01*
X1233000Y1157933D02*
X1233000Y1157933D01*
D36*
X1223000Y1183000D02*
X1308000Y1183000D01*
X1313000Y1188000D01*
X1313000Y1198000D01*
X1318000Y1203000D01*
X1323000Y1203000D01*
X1308000Y1208000D02*
X1293000Y1193000D01*
X1268000Y1193000D01*
X1268000Y1203000D02*
X1288000Y1203000D01*
X1298000Y1213000D01*
X1298000Y1283000D01*
X1323000Y1308000D01*
X1323000Y1313000D01*
X1288000Y1328000D02*
X1288000Y1218000D01*
X1283000Y1213000D01*
X1253000Y1213000D01*
X1248000Y1213000D01*
X1243000Y1213000D01*
X1238000Y1208000D01*
X1273000Y1173000D02*
X1308000Y1173000D01*
X1313000Y1168000D01*
X1313000Y1158000D01*
X1323000Y1148000D01*
X1308000Y1148000D02*
X1293000Y1163000D01*
X1273000Y1163000D01*
X1278000Y1158000D02*
X1283000Y1153000D01*
X1278000Y1153000D01*
X1283000Y1153000D02*
X1288000Y1153000D01*
X1298000Y1143000D01*
X1298000Y1083000D01*
X1323000Y1058000D01*
X1323000Y1038000D01*
X1308000Y1058000D02*
X1308000Y1003000D01*
X1323000Y0988000D01*
X1323000Y0983000D01*
X1308000Y1058000D02*
X1288000Y1078000D01*
X1288000Y1138000D01*
X1283000Y1143000D01*
X1308000Y1148000D02*
X1308000Y1108000D01*
X1323000Y1093000D01*
X1308000Y1208000D02*
X1308000Y1243000D01*
X1323000Y1258000D01*
X1288000Y1328000D02*
X1323000Y1363000D01*
X1323000Y1368000D01*
D37*
X1258000Y1348000D02*
X1258000Y1218000D01*
X1253000Y1213000D02*
X1253000Y1348000D01*
X1248000Y1353000D01*
X1248000Y1338000D02*
X1248000Y1213000D01*
X1248000Y1338000D02*
X1233000Y1353000D01*
D38*
X1208000Y1333000D02*
X1203000Y1328000D01*
X1188000Y1328000D01*
X1189818Y1324609D02*
X1188104Y1322896D01*
X1189818Y1324609D02*
X1209609Y1324609D01*
X1213000Y1173000D02*
X1218000Y1173000D01*
X1213000Y1173000D02*
X1208000Y1168000D01*
X1323000Y1068000D02*
X1323006Y1068006D01*
D39*
X1323000Y0963000D03*
X1333000Y0963000D03*
M02*
