G75*
%MOIN*%
%OFA0B0*%
%FSLAX25Y25*%
%IPPOS*%
%LPD*%
%AMOC8*
5,1,8,0,0,1.08239X$1,22.5*
%
%ADD10R,0.02400X0.07500*%
%ADD11R,0.05118X0.05906*%
%ADD12R,0.05906X0.05118*%
%ADD13R,0.02362X0.08661*%
%ADD14R,0.08661X0.02362*%
%ADD15R,0.01969X0.01378*%
D10*
X0130000Y0249700D03*
X0135000Y0249700D03*
X0140000Y0249700D03*
X0145000Y0249700D03*
X0145000Y0270300D03*
X0140000Y0270300D03*
X0135000Y0270300D03*
X0130000Y0270300D03*
D11*
X0098740Y0265000D03*
X0091260Y0265000D03*
X0073740Y0280000D03*
X0066260Y0280000D03*
X0043740Y0255000D03*
X0036260Y0255000D03*
X0036260Y0235000D03*
X0043740Y0235000D03*
X0111260Y0170000D03*
X0118740Y0170000D03*
X0118740Y0140000D03*
X0111260Y0140000D03*
X0166260Y0175000D03*
X0173740Y0175000D03*
X0163740Y0205000D03*
X0156260Y0205000D03*
X0156710Y0220900D03*
X0164190Y0220900D03*
X0181260Y0260000D03*
X0188740Y0260000D03*
X0231260Y0265000D03*
X0238740Y0265000D03*
X0228740Y0180000D03*
X0221260Y0180000D03*
X0236260Y0130000D03*
X0243740Y0130000D03*
X0208740Y0080000D03*
X0201260Y0080000D03*
D12*
X0090000Y0171260D03*
X0090000Y0178740D03*
X0090000Y0286260D03*
X0090000Y0293740D03*
X0050000Y0293740D03*
X0050000Y0286260D03*
X0205000Y0263740D03*
X0205000Y0256260D03*
D13*
X0125000Y0220236D03*
X0120000Y0220236D03*
X0115000Y0220236D03*
X0110000Y0220236D03*
X0110000Y0199764D03*
X0115000Y0199764D03*
X0120000Y0199764D03*
X0125000Y0199764D03*
X0075000Y0234764D03*
X0070000Y0234764D03*
X0065000Y0234764D03*
X0060000Y0234764D03*
X0060000Y0255236D03*
X0065000Y0255236D03*
X0070000Y0255236D03*
X0075000Y0255236D03*
D14*
X0092264Y0070000D03*
X0092264Y0075000D03*
X0092264Y0080000D03*
X0092264Y0085000D03*
X0112736Y0085000D03*
X0112736Y0080000D03*
X0112736Y0075000D03*
X0112736Y0070000D03*
X0197264Y0215000D03*
X0197264Y0220000D03*
X0197264Y0225000D03*
X0197264Y0230000D03*
X0217736Y0230000D03*
X0217736Y0225000D03*
X0217736Y0220000D03*
X0217736Y0215000D03*
D15*
X0280965Y0271161D03*
X0280965Y0273720D03*
X0280965Y0276280D03*
X0280965Y0278839D03*
X0289035Y0278839D03*
X0289035Y0276280D03*
X0289035Y0273720D03*
X0289035Y0271161D03*
M02*
