G75*
%MOIN*%
%OFA0B0*%
%FSLAX25Y25*%
%IPPOS*%
%LPD*%
%AMOC8*
5,1,8,0,0,1.08239X$1,22.5*
%
%ADD10R,0.01654X0.05709*%
%ADD11R,0.04724X0.04724*%
%ADD12R,0.02756X0.00984*%
%ADD13R,0.00984X0.02756*%
%ADD14R,0.00866X0.01575*%
%ADD15R,0.00866X0.01402*%
%ADD16R,0.01772X0.04331*%
%ADD17R,0.01969X0.03150*%
%ADD18R,0.05709X0.01654*%
%ADD19R,0.01378X0.01969*%
%ADD20R,0.05906X0.05118*%
%ADD21R,0.05118X0.05906*%
%ADD22R,0.12598X0.03937*%
%ADD23R,0.06299X0.01181*%
%ADD24R,0.07874X0.13780*%
%ADD25R,0.04724X0.01378*%
%ADD26R,0.03268X0.02480*%
%ADD27R,0.02480X0.03268*%
%ADD28R,0.03150X0.02362*%
%ADD29R,0.05512X0.05118*%
%ADD30R,0.02559X0.06890*%
%ADD31R,0.16700X0.15000*%
%ADD32R,0.05118X0.05512*%
%ADD33R,0.15000X0.16700*%
%ADD34R,0.02362X0.01181*%
%ADD35R,0.02362X0.03150*%
%ADD36R,0.03937X0.01181*%
D10*
X0286848Y0747569D03*
X0289407Y0747569D03*
X0291966Y0747569D03*
X0294525Y0747569D03*
X0294525Y0764892D03*
X0291966Y0764892D03*
X0289407Y0764892D03*
X0286848Y0764892D03*
X0129525Y0977569D03*
X0126966Y0977569D03*
X0124407Y0977569D03*
X0121848Y0977569D03*
X0121848Y0994892D03*
X0124407Y0994892D03*
X0126966Y0994892D03*
X0129525Y0994892D03*
D11*
X0330686Y0687097D03*
X0330686Y0695364D03*
X0255686Y0807097D03*
X0255686Y0815364D03*
X0260686Y0982097D03*
X0260686Y0990364D03*
X0054820Y0816230D03*
X0046552Y0816230D03*
X0046552Y0786230D03*
X0054820Y0786230D03*
X0551552Y0841230D03*
X0559820Y0841230D03*
D12*
X0191198Y0746152D03*
X0191198Y0744183D03*
X0191198Y0742215D03*
X0191198Y0740246D03*
X0191198Y0736309D03*
X0180175Y0736309D03*
X0180175Y0740246D03*
X0180175Y0742215D03*
X0180175Y0744183D03*
X0180175Y0746152D03*
X0116198Y0841309D03*
X0116198Y0845246D03*
X0116198Y0847215D03*
X0116198Y0849183D03*
X0116198Y0851152D03*
X0105175Y0851152D03*
X0105175Y0849183D03*
X0105175Y0847215D03*
X0105175Y0845246D03*
X0105175Y0841309D03*
D13*
X0107734Y0838750D03*
X0109702Y0838750D03*
X0111671Y0838750D03*
X0113639Y0838750D03*
X0113639Y0853711D03*
X0111671Y0853711D03*
X0109702Y0853711D03*
X0107734Y0853711D03*
X0182734Y0748711D03*
X0184702Y0748711D03*
X0186671Y0748711D03*
X0188639Y0748711D03*
X0188639Y0733750D03*
X0186671Y0733750D03*
X0184702Y0733750D03*
X0182734Y0733750D03*
D14*
X0185686Y0736998D03*
X0110686Y0841998D03*
D15*
X0110686Y0845030D03*
X0185686Y0740030D03*
D16*
X0251848Y0866112D03*
X0254407Y0866112D03*
X0256966Y0866112D03*
X0259525Y0866112D03*
X0259525Y0876348D03*
X0256966Y0876348D03*
X0254407Y0876348D03*
X0251848Y0876348D03*
X0169525Y0971112D03*
X0166966Y0971112D03*
X0164407Y0971112D03*
X0161848Y0971112D03*
X0161848Y0981348D03*
X0164407Y0981348D03*
X0166966Y0981348D03*
X0169525Y0981348D03*
X0316848Y0761348D03*
X0319407Y0761348D03*
X0321966Y0761348D03*
X0324525Y0761348D03*
X0324525Y0751112D03*
X0321966Y0751112D03*
X0319407Y0751112D03*
X0316848Y0751112D03*
D17*
X0249426Y0841703D03*
X0245686Y0841703D03*
X0241946Y0841703D03*
X0241946Y0850758D03*
X0245686Y0850758D03*
X0249426Y0850758D03*
X0536946Y0740758D03*
X0540686Y0740758D03*
X0544426Y0740758D03*
X0544426Y0731703D03*
X0540686Y0731703D03*
X0536946Y0731703D03*
D18*
X0219348Y0867392D03*
X0219348Y0869951D03*
X0219348Y0872510D03*
X0219348Y0875069D03*
X0202025Y0875069D03*
X0202025Y0872510D03*
X0202025Y0869951D03*
X0202025Y0867392D03*
D19*
X0506848Y0825266D03*
X0509407Y0825266D03*
X0511966Y0825266D03*
X0514525Y0825266D03*
X0514525Y0817195D03*
X0511966Y0817195D03*
X0509407Y0817195D03*
X0506848Y0817195D03*
D20*
X0505686Y0832884D03*
X0505686Y0839577D03*
X0515686Y0839577D03*
X0515686Y0832884D03*
X0525686Y0819577D03*
X0525686Y0812884D03*
X0535686Y0814577D03*
X0535686Y0807884D03*
X0490686Y0832884D03*
X0490686Y0839577D03*
X0465686Y0877884D03*
X0465686Y0884577D03*
X0455686Y0884577D03*
X0455686Y0877884D03*
X0445686Y0877884D03*
X0445686Y0884577D03*
X0430686Y0884577D03*
X0430686Y0877884D03*
X0420686Y0874577D03*
X0420686Y0867884D03*
X0318186Y0744577D03*
X0318186Y0737884D03*
X0305686Y0747884D03*
X0305686Y0754577D03*
X0278186Y0757884D03*
X0278186Y0764577D03*
X0250686Y0777884D03*
X0250686Y0784577D03*
X0255686Y0822884D03*
X0255686Y0829577D03*
X0240686Y0867884D03*
X0240686Y0874577D03*
X0230686Y0874577D03*
X0230686Y0867884D03*
X0185686Y0859577D03*
X0185686Y0852884D03*
X0125686Y0852884D03*
X0125686Y0859577D03*
X0115686Y0867884D03*
X0115686Y0874577D03*
X0105686Y0874577D03*
X0105686Y0867884D03*
X0095686Y0844577D03*
X0095686Y0837884D03*
X0075686Y0837884D03*
X0075686Y0844577D03*
X0125686Y0844577D03*
X0125686Y0837884D03*
X0095686Y0784577D03*
X0095686Y0777884D03*
X0110686Y0739577D03*
X0110686Y0732884D03*
X0150686Y0732884D03*
X0150686Y0739577D03*
X0170686Y0739577D03*
X0170686Y0732884D03*
X0180686Y0762884D03*
X0180686Y0769577D03*
X0190686Y0769577D03*
X0190686Y0762884D03*
X0200686Y0754577D03*
X0200686Y0747884D03*
X0200686Y0739577D03*
X0200686Y0732884D03*
X0330686Y0709577D03*
X0330686Y0702884D03*
X0350686Y0699577D03*
X0350686Y0692884D03*
X0360686Y0692884D03*
X0360686Y0699577D03*
X0370686Y0699577D03*
X0370686Y0692884D03*
X0450686Y0722884D03*
X0450686Y0729577D03*
X0260686Y0962884D03*
X0260686Y0969577D03*
X0180686Y0972884D03*
X0180686Y0979577D03*
X0163186Y0962077D03*
X0163186Y0955384D03*
X0135686Y0997884D03*
X0135686Y1004577D03*
X0115686Y0969577D03*
X0115686Y0962884D03*
X0515686Y1057884D03*
X0515686Y1064577D03*
X0645686Y0979577D03*
X0645686Y0972884D03*
X0720686Y0974577D03*
X0720686Y0967884D03*
X0720686Y0919577D03*
X0720686Y0912884D03*
X0720686Y0864577D03*
X0720686Y0857884D03*
X0720686Y0809577D03*
X0720686Y0802884D03*
X0720686Y0754577D03*
X0720686Y0747884D03*
X0780686Y0744577D03*
X0780686Y0737884D03*
X0780686Y0792884D03*
X0780686Y0799577D03*
X0780686Y0847884D03*
X0780686Y0854577D03*
X0780686Y0902884D03*
X0780686Y0909577D03*
X0780686Y0957884D03*
X0780686Y0964577D03*
X0780686Y1012884D03*
X0780686Y1019577D03*
X0780686Y1067884D03*
X0780686Y1074577D03*
X0780686Y1122884D03*
X0780686Y1129577D03*
X0720686Y1132884D03*
X0720686Y1139577D03*
X0720686Y1084577D03*
X0720686Y1077884D03*
X0720686Y1029577D03*
X0720686Y1022884D03*
D21*
X0737340Y1041230D03*
X0744033Y1041230D03*
X0777340Y1036230D03*
X0784033Y1036230D03*
X0744033Y0986230D03*
X0737340Y0986230D03*
X0777340Y0981230D03*
X0784033Y0981230D03*
X0784033Y0926230D03*
X0777340Y0926230D03*
X0744033Y0931230D03*
X0737340Y0931230D03*
X0737340Y0876230D03*
X0744033Y0876230D03*
X0777340Y0871230D03*
X0784033Y0871230D03*
X0784033Y0816230D03*
X0777340Y0816230D03*
X0744033Y0821230D03*
X0737340Y0821230D03*
X0737340Y0766230D03*
X0744033Y0766230D03*
X0777340Y0761230D03*
X0784033Y0761230D03*
X0674033Y0846230D03*
X0667340Y0846230D03*
X0554033Y0751230D03*
X0547340Y0751230D03*
X0534033Y0751230D03*
X0527340Y0751230D03*
X0527340Y0721230D03*
X0534033Y0721230D03*
X0547340Y0721230D03*
X0554033Y0721230D03*
X0499033Y0808730D03*
X0492340Y0808730D03*
X0474033Y0811230D03*
X0467340Y0811230D03*
X0467340Y0821230D03*
X0474033Y0821230D03*
X0474033Y0836230D03*
X0467340Y0836230D03*
X0467340Y0846230D03*
X0474033Y0846230D03*
X0474033Y0856230D03*
X0467340Y0856230D03*
X0537340Y0841230D03*
X0544033Y0841230D03*
X0737340Y1096230D03*
X0744033Y1096230D03*
X0777340Y1091230D03*
X0784033Y1091230D03*
X0784033Y1146230D03*
X0777340Y1146230D03*
X0744033Y1151230D03*
X0737340Y1151230D03*
X0354033Y1126230D03*
X0347340Y1126230D03*
X0294033Y1126230D03*
X0287340Y1126230D03*
X0239033Y1126230D03*
X0232340Y1126230D03*
X0144033Y0971230D03*
X0137340Y0971230D03*
X0069033Y0881230D03*
X0062340Y0881230D03*
X0087340Y0866230D03*
X0094033Y0866230D03*
X0094033Y0853730D03*
X0087340Y0853730D03*
X0124840Y0868730D03*
X0131533Y0868730D03*
X0147340Y0831230D03*
X0154033Y0831230D03*
X0202340Y0856230D03*
X0209033Y0856230D03*
X0262340Y0853730D03*
X0269033Y0853730D03*
X0277340Y0826230D03*
X0284033Y0826230D03*
X0269033Y0781230D03*
X0262340Y0781230D03*
X0206533Y0763730D03*
X0199840Y0763730D03*
X0169033Y0761230D03*
X0162340Y0761230D03*
X0162340Y0751230D03*
X0169033Y0751230D03*
X0222340Y0726230D03*
X0229033Y0726230D03*
X0106533Y0751230D03*
X0099840Y0751230D03*
X0099840Y0761230D03*
X0106533Y0761230D03*
X0069033Y0786230D03*
X0062340Y0786230D03*
X0062340Y0816230D03*
X0069033Y0816230D03*
D22*
X0145726Y0851230D03*
X0165726Y0851230D03*
X0220726Y0746230D03*
X0240726Y0746230D03*
D23*
X0483993Y0817392D03*
X0483993Y0819892D03*
X0483993Y0822392D03*
X0483993Y0824892D03*
X0497379Y0824892D03*
X0497379Y0822392D03*
X0497379Y0819892D03*
X0497379Y0817392D03*
D24*
X0212301Y0711230D03*
X0189072Y0711230D03*
X0137301Y0811230D03*
X0114072Y0811230D03*
D25*
X0659171Y0857274D03*
X0659171Y0859833D03*
X0659171Y0862392D03*
X0659171Y0864951D03*
X0659171Y0867510D03*
X0659171Y0870069D03*
X0659171Y0872628D03*
X0659171Y0875187D03*
X0682202Y0875187D03*
X0682202Y0872628D03*
X0682202Y0870069D03*
X0682202Y0867510D03*
X0682202Y0864951D03*
X0682202Y0862392D03*
X0682202Y0859833D03*
X0682202Y0857274D03*
D26*
X0380686Y0700620D03*
X0380686Y0691841D03*
X0310686Y0711841D03*
X0310686Y0720620D03*
D27*
X0461297Y0721230D03*
X0470076Y0721230D03*
D28*
X0069623Y0862490D03*
X0069623Y0869971D03*
X0061749Y0866230D03*
D29*
X0105686Y0925522D03*
X0105686Y0936939D03*
X0090686Y0741939D03*
X0090686Y0730522D03*
X0295686Y0895522D03*
X0295686Y0906939D03*
X0790686Y0911939D03*
X0790686Y0900522D03*
X0790686Y0856939D03*
X0790686Y0845522D03*
X0790686Y0801939D03*
X0790686Y0790522D03*
X0790686Y0746939D03*
X0790686Y0735522D03*
X0790686Y0955522D03*
X0790686Y0966939D03*
X0790686Y1010522D03*
X0790686Y1021939D03*
X0790686Y1065522D03*
X0790686Y1076939D03*
X0790686Y1125522D03*
X0790686Y1136939D03*
D30*
X0743186Y1137254D03*
X0738186Y1137254D03*
X0733186Y1137254D03*
X0728186Y1137254D03*
X0728186Y1115207D03*
X0733186Y1115207D03*
X0738186Y1115207D03*
X0743186Y1115207D03*
X0743186Y1082254D03*
X0738186Y1082254D03*
X0733186Y1082254D03*
X0728186Y1082254D03*
X0728186Y1060207D03*
X0733186Y1060207D03*
X0738186Y1060207D03*
X0743186Y1060207D03*
X0743186Y1027254D03*
X0738186Y1027254D03*
X0733186Y1027254D03*
X0728186Y1027254D03*
X0728186Y1005207D03*
X0733186Y1005207D03*
X0738186Y1005207D03*
X0743186Y1005207D03*
X0743186Y0972254D03*
X0738186Y0972254D03*
X0733186Y0972254D03*
X0728186Y0972254D03*
X0728186Y0950207D03*
X0733186Y0950207D03*
X0738186Y0950207D03*
X0743186Y0950207D03*
X0743186Y0917254D03*
X0738186Y0917254D03*
X0733186Y0917254D03*
X0728186Y0917254D03*
X0728186Y0895207D03*
X0733186Y0895207D03*
X0738186Y0895207D03*
X0743186Y0895207D03*
X0743186Y0862254D03*
X0738186Y0862254D03*
X0733186Y0862254D03*
X0728186Y0862254D03*
X0728186Y0840207D03*
X0733186Y0840207D03*
X0738186Y0840207D03*
X0743186Y0840207D03*
X0743186Y0807254D03*
X0738186Y0807254D03*
X0733186Y0807254D03*
X0728186Y0807254D03*
X0728186Y0785207D03*
X0733186Y0785207D03*
X0738186Y0785207D03*
X0743186Y0785207D03*
X0743186Y0752254D03*
X0738186Y0752254D03*
X0733186Y0752254D03*
X0728186Y0752254D03*
X0728186Y0730207D03*
X0733186Y0730207D03*
X0738186Y0730207D03*
X0743186Y0730207D03*
X0268186Y0745207D03*
X0263186Y0745207D03*
X0258186Y0745207D03*
X0253186Y0745207D03*
X0253186Y0767254D03*
X0258186Y0767254D03*
X0263186Y0767254D03*
X0268186Y0767254D03*
X0203186Y0820207D03*
X0198186Y0820207D03*
X0193186Y0820207D03*
X0188186Y0820207D03*
X0188186Y0842254D03*
X0193186Y0842254D03*
X0198186Y0842254D03*
X0203186Y0842254D03*
X0138186Y0940207D03*
X0133186Y0940207D03*
X0128186Y0940207D03*
X0123186Y0940207D03*
X0123186Y0962254D03*
X0128186Y0962254D03*
X0133186Y0962254D03*
X0138186Y0962254D03*
D31*
X0225686Y0843780D03*
X0225686Y0818680D03*
X0760686Y0808780D03*
X0760686Y0783680D03*
X0760686Y0753780D03*
X0760686Y0728680D03*
X0760686Y0838680D03*
X0760686Y0863780D03*
X0760686Y0893680D03*
X0760686Y0918780D03*
X0760686Y0948680D03*
X0760686Y0973780D03*
X0760686Y1003680D03*
X0760686Y1028780D03*
X0760686Y1058680D03*
X0760686Y1083780D03*
X0760686Y1113680D03*
X0760686Y1138780D03*
D32*
X0356395Y1136230D03*
X0344978Y1136230D03*
X0296395Y1136230D03*
X0284978Y1136230D03*
X0241395Y1136230D03*
X0229978Y1136230D03*
D33*
X0268136Y0721230D03*
X0293236Y0721230D03*
D34*
X0125115Y0748671D03*
X0125115Y0753671D03*
X0116257Y0753789D03*
X0116257Y0751230D03*
X0116257Y0748671D03*
D35*
X0080686Y0777293D03*
X0076946Y0785167D03*
X0084426Y0785167D03*
D36*
X0658088Y0969597D03*
X0658088Y0972156D03*
X0658088Y0974715D03*
X0658088Y0977274D03*
X0658088Y0979833D03*
X0658088Y0982392D03*
X0658088Y0984951D03*
X0658088Y0987510D03*
X0658088Y0990069D03*
X0658088Y0992628D03*
X0658088Y0995187D03*
X0658088Y0997746D03*
X0658088Y1000305D03*
X0658088Y1002864D03*
X0683285Y1002864D03*
X0683285Y1000305D03*
X0683285Y0997746D03*
X0683285Y0995187D03*
X0683285Y0992628D03*
X0683285Y0990069D03*
X0683285Y0987510D03*
X0683285Y0984951D03*
X0683285Y0982392D03*
X0683285Y0979833D03*
X0683285Y0977274D03*
X0683285Y0974715D03*
X0683285Y0972156D03*
X0683285Y0969597D03*
M02*
