G75*
%MOIN*%
%OFA0B0*%
%FSLAX25Y25*%
%IPPOS*%
%LPD*%
%AMOC8*
5,1,8,0,0,1.08239X$1,22.5*
%
%ADD10C,0.00000*%
%ADD11C,0.06000*%
%ADD12R,0.06890X0.02559*%
%ADD13C,0.02400*%
%ADD14C,0.01200*%
D10*
X0001000Y0001000D02*
X0001000Y0049701D01*
X0070921Y0049701D01*
X0070921Y0001000D01*
X0001000Y0001000D01*
D11*
X0011000Y0011000D03*
X0011000Y0021000D03*
X0011000Y0031000D03*
X0011000Y0041000D03*
X0061000Y0041000D03*
X0061000Y0031000D03*
X0061000Y0021000D03*
X0061000Y0011000D03*
D12*
X0047024Y0018500D03*
X0047024Y0023500D03*
X0047024Y0028500D03*
X0047024Y0033500D03*
X0024976Y0033500D03*
X0024976Y0028500D03*
X0024976Y0023500D03*
X0024976Y0018500D03*
D13*
X0018500Y0018500D01*
X0011000Y0011000D01*
X0024976Y0018500D02*
X0024976Y0023500D01*
X0024976Y0028500D02*
X0024976Y0033500D01*
X0018500Y0033500D01*
X0011000Y0041000D01*
D14*
X0047024Y0033500D02*
X0053500Y0033500D01*
X0061000Y0041000D01*
X0061000Y0031000D02*
X0058500Y0028500D01*
X0047024Y0028500D01*
X0047024Y0023500D02*
X0058500Y0023500D01*
X0061000Y0021000D01*
X0053500Y0018500D02*
X0061000Y0011000D01*
X0053500Y0018500D02*
X0047024Y0018500D01*
M02*
