G75*
%MOIN*%
%OFA0B0*%
%FSLAX25Y25*%
%IPPOS*%
%LPD*%
%AMOC8*
5,1,8,0,0,1.08239X$1,22.5*
%
%ADD10C,0.00500*%
%ADD11C,0.00600*%
%ADD12C,0.00400*%
%ADD13C,0.00100*%
%ADD14C,0.00200*%
%ADD15C,0.01000*%
%ADD16C,0.00256*%
%ADD17R,0.00591X0.01181*%
%ADD18R,0.01181X0.01181*%
%ADD19C,0.00800*%
%ADD20C,0.00039*%
%ADD21C,0.00295*%
%ADD22C,0.01575*%
%ADD23C,0.02559*%
D10*
X0283591Y0083993D02*
X0283591Y0135174D01*
X0334772Y0135174D01*
X0334772Y0083993D01*
X0283591Y0083993D01*
X0348886Y0139288D02*
X0348886Y0178658D01*
X0374477Y0178658D01*
X0374477Y0139288D01*
X0348886Y0139288D01*
X0378973Y0137934D02*
X0378973Y0145217D01*
X0390390Y0145217D01*
X0390390Y0137934D01*
X0378973Y0137934D01*
X0321642Y0146737D02*
X0316721Y0146737D01*
X0316721Y0154611D01*
X0321642Y0154611D01*
X0321642Y0146737D01*
X0439508Y0149166D02*
X0439508Y0123182D01*
X0467855Y0123182D01*
X0467855Y0149166D01*
X0439508Y0149166D01*
X0473536Y0147351D02*
X0473536Y0131997D01*
X0492827Y0131997D01*
X0492827Y0147351D01*
X0473536Y0147351D01*
X0475739Y0135540D02*
X0475741Y0135618D01*
X0475747Y0135695D01*
X0475757Y0135773D01*
X0475770Y0135849D01*
X0475788Y0135925D01*
X0475809Y0136000D01*
X0475835Y0136074D01*
X0475864Y0136146D01*
X0475896Y0136217D01*
X0475932Y0136286D01*
X0475972Y0136353D01*
X0476014Y0136418D01*
X0476061Y0136481D01*
X0476110Y0136541D01*
X0476162Y0136599D01*
X0476217Y0136654D01*
X0476275Y0136706D01*
X0476335Y0136755D01*
X0476398Y0136802D01*
X0476463Y0136844D01*
X0476530Y0136884D01*
X0476599Y0136920D01*
X0476670Y0136952D01*
X0476742Y0136981D01*
X0476816Y0137007D01*
X0476891Y0137028D01*
X0476967Y0137046D01*
X0477043Y0137059D01*
X0477121Y0137069D01*
X0477198Y0137075D01*
X0477276Y0137077D01*
X0477354Y0137075D01*
X0477431Y0137069D01*
X0477509Y0137059D01*
X0477585Y0137046D01*
X0477661Y0137028D01*
X0477736Y0137007D01*
X0477810Y0136981D01*
X0477882Y0136952D01*
X0477953Y0136920D01*
X0478022Y0136884D01*
X0478089Y0136844D01*
X0478154Y0136802D01*
X0478217Y0136755D01*
X0478277Y0136706D01*
X0478335Y0136654D01*
X0478390Y0136599D01*
X0478442Y0136541D01*
X0478491Y0136481D01*
X0478538Y0136418D01*
X0478580Y0136353D01*
X0478620Y0136286D01*
X0478656Y0136217D01*
X0478688Y0136146D01*
X0478717Y0136074D01*
X0478743Y0136000D01*
X0478764Y0135925D01*
X0478782Y0135849D01*
X0478795Y0135773D01*
X0478805Y0135695D01*
X0478811Y0135618D01*
X0478813Y0135540D01*
X0478811Y0135462D01*
X0478805Y0135385D01*
X0478795Y0135307D01*
X0478782Y0135231D01*
X0478764Y0135155D01*
X0478743Y0135080D01*
X0478717Y0135006D01*
X0478688Y0134934D01*
X0478656Y0134863D01*
X0478620Y0134794D01*
X0478580Y0134727D01*
X0478538Y0134662D01*
X0478491Y0134599D01*
X0478442Y0134539D01*
X0478390Y0134481D01*
X0478335Y0134426D01*
X0478277Y0134374D01*
X0478217Y0134325D01*
X0478154Y0134278D01*
X0478089Y0134236D01*
X0478022Y0134196D01*
X0477953Y0134160D01*
X0477882Y0134128D01*
X0477810Y0134099D01*
X0477736Y0134073D01*
X0477661Y0134052D01*
X0477585Y0134034D01*
X0477509Y0134021D01*
X0477431Y0134011D01*
X0477354Y0134005D01*
X0477276Y0134003D01*
X0477198Y0134005D01*
X0477121Y0134011D01*
X0477043Y0134021D01*
X0476967Y0134034D01*
X0476891Y0134052D01*
X0476816Y0134073D01*
X0476742Y0134099D01*
X0476670Y0134128D01*
X0476599Y0134160D01*
X0476530Y0134196D01*
X0476463Y0134236D01*
X0476398Y0134278D01*
X0476335Y0134325D01*
X0476275Y0134374D01*
X0476217Y0134426D01*
X0476162Y0134481D01*
X0476110Y0134539D01*
X0476061Y0134599D01*
X0476014Y0134662D01*
X0475972Y0134727D01*
X0475932Y0134794D01*
X0475896Y0134863D01*
X0475864Y0134934D01*
X0475835Y0135006D01*
X0475809Y0135080D01*
X0475788Y0135155D01*
X0475770Y0135231D01*
X0475757Y0135307D01*
X0475747Y0135385D01*
X0475741Y0135462D01*
X0475739Y0135540D01*
X0478575Y0119217D02*
X0478575Y0099217D01*
X0528575Y0099217D01*
X0528575Y0119217D01*
X0478575Y0119217D01*
X0526079Y0137572D02*
X0526079Y0149776D01*
X0538284Y0149776D01*
X0538284Y0137572D01*
X0526079Y0137572D01*
X0527703Y0147513D02*
X0527705Y0147563D01*
X0527711Y0147613D01*
X0527721Y0147662D01*
X0527734Y0147711D01*
X0527752Y0147758D01*
X0527773Y0147804D01*
X0527797Y0147847D01*
X0527825Y0147889D01*
X0527856Y0147929D01*
X0527890Y0147966D01*
X0527927Y0148000D01*
X0527967Y0148031D01*
X0528009Y0148059D01*
X0528052Y0148083D01*
X0528098Y0148104D01*
X0528145Y0148122D01*
X0528194Y0148135D01*
X0528243Y0148145D01*
X0528293Y0148151D01*
X0528343Y0148153D01*
X0528393Y0148151D01*
X0528443Y0148145D01*
X0528492Y0148135D01*
X0528541Y0148122D01*
X0528588Y0148104D01*
X0528634Y0148083D01*
X0528677Y0148059D01*
X0528719Y0148031D01*
X0528759Y0148000D01*
X0528796Y0147966D01*
X0528830Y0147929D01*
X0528861Y0147889D01*
X0528889Y0147847D01*
X0528913Y0147804D01*
X0528934Y0147758D01*
X0528952Y0147711D01*
X0528965Y0147662D01*
X0528975Y0147613D01*
X0528981Y0147563D01*
X0528983Y0147513D01*
X0528981Y0147463D01*
X0528975Y0147413D01*
X0528965Y0147364D01*
X0528952Y0147315D01*
X0528934Y0147268D01*
X0528913Y0147222D01*
X0528889Y0147179D01*
X0528861Y0147137D01*
X0528830Y0147097D01*
X0528796Y0147060D01*
X0528759Y0147026D01*
X0528719Y0146995D01*
X0528677Y0146967D01*
X0528634Y0146943D01*
X0528588Y0146922D01*
X0528541Y0146904D01*
X0528492Y0146891D01*
X0528443Y0146881D01*
X0528393Y0146875D01*
X0528343Y0146873D01*
X0528293Y0146875D01*
X0528243Y0146881D01*
X0528194Y0146891D01*
X0528145Y0146904D01*
X0528098Y0146922D01*
X0528052Y0146943D01*
X0528009Y0146967D01*
X0527967Y0146995D01*
X0527927Y0147026D01*
X0527890Y0147060D01*
X0527856Y0147097D01*
X0527825Y0147137D01*
X0527797Y0147179D01*
X0527773Y0147222D01*
X0527752Y0147268D01*
X0527734Y0147315D01*
X0527721Y0147364D01*
X0527711Y0147413D01*
X0527705Y0147463D01*
X0527703Y0147513D01*
X0539871Y0157320D02*
X0513493Y0157320D01*
X0513493Y0188028D01*
X0539871Y0188028D01*
X0539871Y0157320D01*
X0553627Y0151461D02*
X0560516Y0151461D01*
X0560516Y0139650D01*
X0553627Y0139650D01*
X0553627Y0151461D01*
X0508087Y0163300D02*
X0508087Y0179048D01*
X0496276Y0179048D01*
X0496276Y0163300D01*
X0508087Y0163300D01*
X0556242Y0100269D02*
X0558896Y0100269D01*
X0558896Y0096041D01*
X0556242Y0096041D01*
X0556242Y0100269D01*
X0552745Y0092135D02*
X0552745Y0087213D01*
X0560619Y0087213D01*
X0560619Y0092135D01*
X0552745Y0092135D01*
X0477114Y0044232D02*
X0476212Y0045134D01*
X0474409Y0045134D01*
X0473507Y0044232D01*
X0471676Y0044232D02*
X0470774Y0045134D01*
X0468971Y0045134D01*
X0468069Y0044232D01*
X0468069Y0043331D01*
X0468971Y0042429D01*
X0470774Y0042429D01*
X0471676Y0041527D01*
X0471676Y0040626D01*
X0470774Y0039724D01*
X0468971Y0039724D01*
X0468069Y0040626D01*
X0466238Y0040626D02*
X0466238Y0045134D01*
X0462632Y0045134D02*
X0462632Y0040626D01*
X0463533Y0039724D01*
X0465337Y0039724D01*
X0466238Y0040626D01*
X0469873Y0038822D02*
X0469873Y0046036D01*
X0473507Y0039724D02*
X0477114Y0043331D01*
X0477114Y0044232D01*
X0477114Y0039724D02*
X0473507Y0039724D01*
X0662182Y0124174D02*
X0662182Y0144174D01*
X0692182Y0144174D01*
X0692182Y0124174D01*
X0662182Y0124174D01*
X0675567Y0111501D02*
X0675567Y0108847D01*
X0679796Y0108847D01*
X0679796Y0111501D01*
X0675567Y0111501D01*
X0674567Y0148847D02*
X0674567Y0151501D01*
X0678796Y0151501D01*
X0678796Y0148847D01*
X0674567Y0148847D01*
X0662682Y0165174D02*
X0662682Y0185174D01*
X0692682Y0185174D01*
X0692682Y0165174D01*
X0662682Y0165174D01*
X0699682Y0164674D02*
X0699682Y0184674D01*
X0729682Y0184674D01*
X0729682Y0164674D01*
X0699682Y0164674D01*
X0713567Y0152001D02*
X0713567Y0149347D01*
X0717796Y0149347D01*
X0717796Y0152001D01*
X0713567Y0152001D01*
X0736682Y0164674D02*
X0736682Y0184674D01*
X0766682Y0184674D01*
X0766682Y0164674D01*
X0736682Y0164674D01*
X0749567Y0152001D02*
X0749567Y0149347D01*
X0753796Y0149347D01*
X0753796Y0152001D01*
X0749567Y0152001D01*
X0747567Y0105001D02*
X0747567Y0102347D01*
X0751796Y0102347D01*
X0751796Y0105001D01*
X0747567Y0105001D01*
X0844073Y0041436D02*
X0844073Y0034222D01*
X0844974Y0035124D02*
X0845876Y0036026D01*
X0845876Y0036927D01*
X0844974Y0037829D01*
X0843171Y0037829D01*
X0842269Y0038731D01*
X0842269Y0039632D01*
X0843171Y0040534D01*
X0844974Y0040534D01*
X0845876Y0039632D01*
X0847707Y0039632D02*
X0848609Y0040534D01*
X0850412Y0040534D01*
X0851314Y0039632D01*
X0851314Y0038731D01*
X0850412Y0037829D01*
X0851314Y0036927D01*
X0851314Y0036026D01*
X0850412Y0035124D01*
X0848609Y0035124D01*
X0847707Y0036026D01*
X0849510Y0037829D02*
X0850412Y0037829D01*
X0853145Y0038731D02*
X0854046Y0037829D01*
X0856752Y0037829D01*
X0856752Y0036026D02*
X0856752Y0039632D01*
X0855850Y0040534D01*
X0854046Y0040534D01*
X0853145Y0039632D01*
X0853145Y0038731D01*
X0853145Y0036026D02*
X0854046Y0035124D01*
X0855850Y0035124D01*
X0856752Y0036026D01*
X0844974Y0035124D02*
X0843171Y0035124D01*
X0842269Y0036026D01*
X0840438Y0036026D02*
X0840438Y0040534D01*
X0836832Y0040534D02*
X0836832Y0036026D01*
X0837733Y0035124D01*
X0839537Y0035124D01*
X0840438Y0036026D01*
X0802065Y0033132D02*
X0801164Y0034034D01*
X0799360Y0034034D01*
X0798458Y0033132D01*
X0798458Y0029526D01*
X0799360Y0028624D01*
X0801164Y0028624D01*
X0802065Y0029526D01*
X0796637Y0028624D02*
X0794833Y0028624D01*
X0795735Y0028624D02*
X0795735Y0034034D01*
X0794833Y0034034D02*
X0796637Y0034034D01*
X0793002Y0033132D02*
X0792101Y0034034D01*
X0790297Y0034034D01*
X0789396Y0033132D01*
X0789396Y0029526D01*
X0790297Y0028624D01*
X0792101Y0028624D01*
X0793002Y0029526D01*
X0793002Y0033132D01*
X0787565Y0033132D02*
X0786663Y0034034D01*
X0784860Y0034034D01*
X0783958Y0033132D01*
X0783958Y0032231D01*
X0784860Y0031329D01*
X0786663Y0031329D01*
X0787565Y0030427D01*
X0787565Y0029526D01*
X0786663Y0028624D01*
X0784860Y0028624D01*
X0783958Y0029526D01*
X0782127Y0029526D02*
X0781225Y0028624D01*
X0779422Y0028624D01*
X0778520Y0029526D01*
X0776689Y0028624D02*
X0773082Y0028624D01*
X0774886Y0028624D02*
X0774886Y0034034D01*
X0773082Y0032231D01*
X0771252Y0033132D02*
X0767645Y0029526D01*
X0767645Y0028624D01*
X0765814Y0029526D02*
X0764912Y0028624D01*
X0763109Y0028624D01*
X0762207Y0029526D01*
X0760376Y0029526D02*
X0759474Y0028624D01*
X0757671Y0028624D01*
X0756769Y0029526D01*
X0756769Y0033132D01*
X0757671Y0034034D01*
X0759474Y0034034D01*
X0760376Y0033132D01*
X0762207Y0033132D02*
X0762207Y0032231D01*
X0763109Y0031329D01*
X0764912Y0031329D01*
X0765814Y0030427D01*
X0765814Y0029526D01*
X0765814Y0033132D02*
X0764912Y0034034D01*
X0763109Y0034034D01*
X0762207Y0033132D01*
X0767645Y0034034D02*
X0771252Y0034034D01*
X0771252Y0033132D01*
X0778520Y0033132D02*
X0779422Y0034034D01*
X0781225Y0034034D01*
X0782127Y0033132D01*
X0782127Y0032231D01*
X0781225Y0031329D01*
X0782127Y0030427D01*
X0782127Y0029526D01*
X0781225Y0031329D02*
X0780324Y0031329D01*
X0754938Y0031329D02*
X0751332Y0031329D01*
X0751332Y0032231D02*
X0753135Y0034034D01*
X0754938Y0032231D01*
X0754938Y0028624D01*
X0751332Y0028624D02*
X0751332Y0032231D01*
X0886682Y0103174D02*
X0906682Y0103174D01*
X0906682Y0153174D01*
X0886682Y0153174D01*
X0886682Y0103174D01*
X0883827Y0112997D02*
X0864536Y0112997D01*
X0864536Y0128351D01*
X0883827Y0128351D01*
X0883827Y0112997D01*
X0866739Y0116540D02*
X0866741Y0116618D01*
X0866747Y0116695D01*
X0866757Y0116773D01*
X0866770Y0116849D01*
X0866788Y0116925D01*
X0866809Y0117000D01*
X0866835Y0117074D01*
X0866864Y0117146D01*
X0866896Y0117217D01*
X0866932Y0117286D01*
X0866972Y0117353D01*
X0867014Y0117418D01*
X0867061Y0117481D01*
X0867110Y0117541D01*
X0867162Y0117599D01*
X0867217Y0117654D01*
X0867275Y0117706D01*
X0867335Y0117755D01*
X0867398Y0117802D01*
X0867463Y0117844D01*
X0867530Y0117884D01*
X0867599Y0117920D01*
X0867670Y0117952D01*
X0867742Y0117981D01*
X0867816Y0118007D01*
X0867891Y0118028D01*
X0867967Y0118046D01*
X0868043Y0118059D01*
X0868121Y0118069D01*
X0868198Y0118075D01*
X0868276Y0118077D01*
X0868354Y0118075D01*
X0868431Y0118069D01*
X0868509Y0118059D01*
X0868585Y0118046D01*
X0868661Y0118028D01*
X0868736Y0118007D01*
X0868810Y0117981D01*
X0868882Y0117952D01*
X0868953Y0117920D01*
X0869022Y0117884D01*
X0869089Y0117844D01*
X0869154Y0117802D01*
X0869217Y0117755D01*
X0869277Y0117706D01*
X0869335Y0117654D01*
X0869390Y0117599D01*
X0869442Y0117541D01*
X0869491Y0117481D01*
X0869538Y0117418D01*
X0869580Y0117353D01*
X0869620Y0117286D01*
X0869656Y0117217D01*
X0869688Y0117146D01*
X0869717Y0117074D01*
X0869743Y0117000D01*
X0869764Y0116925D01*
X0869782Y0116849D01*
X0869795Y0116773D01*
X0869805Y0116695D01*
X0869811Y0116618D01*
X0869813Y0116540D01*
X0869811Y0116462D01*
X0869805Y0116385D01*
X0869795Y0116307D01*
X0869782Y0116231D01*
X0869764Y0116155D01*
X0869743Y0116080D01*
X0869717Y0116006D01*
X0869688Y0115934D01*
X0869656Y0115863D01*
X0869620Y0115794D01*
X0869580Y0115727D01*
X0869538Y0115662D01*
X0869491Y0115599D01*
X0869442Y0115539D01*
X0869390Y0115481D01*
X0869335Y0115426D01*
X0869277Y0115374D01*
X0869217Y0115325D01*
X0869154Y0115278D01*
X0869089Y0115236D01*
X0869022Y0115196D01*
X0868953Y0115160D01*
X0868882Y0115128D01*
X0868810Y0115099D01*
X0868736Y0115073D01*
X0868661Y0115052D01*
X0868585Y0115034D01*
X0868509Y0115021D01*
X0868431Y0115011D01*
X0868354Y0115005D01*
X0868276Y0115003D01*
X0868198Y0115005D01*
X0868121Y0115011D01*
X0868043Y0115021D01*
X0867967Y0115034D01*
X0867891Y0115052D01*
X0867816Y0115073D01*
X0867742Y0115099D01*
X0867670Y0115128D01*
X0867599Y0115160D01*
X0867530Y0115196D01*
X0867463Y0115236D01*
X0867398Y0115278D01*
X0867335Y0115325D01*
X0867275Y0115374D01*
X0867217Y0115426D01*
X0867162Y0115481D01*
X0867110Y0115539D01*
X0867061Y0115599D01*
X0867014Y0115662D01*
X0866972Y0115727D01*
X0866932Y0115794D01*
X0866896Y0115863D01*
X0866864Y0115934D01*
X0866835Y0116006D01*
X0866809Y0116080D01*
X0866788Y0116155D01*
X0866770Y0116231D01*
X0866757Y0116307D01*
X0866747Y0116385D01*
X0866741Y0116462D01*
X0866739Y0116540D01*
X0908138Y0139965D02*
X0908138Y0151383D01*
X0915422Y0151383D01*
X0915422Y0139965D01*
X0908138Y0139965D01*
X0919182Y0153174D02*
X0919182Y0103174D01*
X0939182Y0103174D01*
X0939182Y0153174D01*
X0919182Y0153174D01*
X0920182Y0175674D02*
X0940182Y0175674D01*
X0940182Y0225674D01*
X0920182Y0225674D01*
X0920182Y0175674D01*
X0907682Y0175674D02*
X0887682Y0175674D01*
X0887682Y0225674D01*
X0907682Y0225674D01*
X0907682Y0175674D01*
X0884827Y0185497D02*
X0865536Y0185497D01*
X0865536Y0200851D01*
X0884827Y0200851D01*
X0884827Y0185497D01*
X0867739Y0189040D02*
X0867741Y0189118D01*
X0867747Y0189195D01*
X0867757Y0189273D01*
X0867770Y0189349D01*
X0867788Y0189425D01*
X0867809Y0189500D01*
X0867835Y0189574D01*
X0867864Y0189646D01*
X0867896Y0189717D01*
X0867932Y0189786D01*
X0867972Y0189853D01*
X0868014Y0189918D01*
X0868061Y0189981D01*
X0868110Y0190041D01*
X0868162Y0190099D01*
X0868217Y0190154D01*
X0868275Y0190206D01*
X0868335Y0190255D01*
X0868398Y0190302D01*
X0868463Y0190344D01*
X0868530Y0190384D01*
X0868599Y0190420D01*
X0868670Y0190452D01*
X0868742Y0190481D01*
X0868816Y0190507D01*
X0868891Y0190528D01*
X0868967Y0190546D01*
X0869043Y0190559D01*
X0869121Y0190569D01*
X0869198Y0190575D01*
X0869276Y0190577D01*
X0869354Y0190575D01*
X0869431Y0190569D01*
X0869509Y0190559D01*
X0869585Y0190546D01*
X0869661Y0190528D01*
X0869736Y0190507D01*
X0869810Y0190481D01*
X0869882Y0190452D01*
X0869953Y0190420D01*
X0870022Y0190384D01*
X0870089Y0190344D01*
X0870154Y0190302D01*
X0870217Y0190255D01*
X0870277Y0190206D01*
X0870335Y0190154D01*
X0870390Y0190099D01*
X0870442Y0190041D01*
X0870491Y0189981D01*
X0870538Y0189918D01*
X0870580Y0189853D01*
X0870620Y0189786D01*
X0870656Y0189717D01*
X0870688Y0189646D01*
X0870717Y0189574D01*
X0870743Y0189500D01*
X0870764Y0189425D01*
X0870782Y0189349D01*
X0870795Y0189273D01*
X0870805Y0189195D01*
X0870811Y0189118D01*
X0870813Y0189040D01*
X0870811Y0188962D01*
X0870805Y0188885D01*
X0870795Y0188807D01*
X0870782Y0188731D01*
X0870764Y0188655D01*
X0870743Y0188580D01*
X0870717Y0188506D01*
X0870688Y0188434D01*
X0870656Y0188363D01*
X0870620Y0188294D01*
X0870580Y0188227D01*
X0870538Y0188162D01*
X0870491Y0188099D01*
X0870442Y0188039D01*
X0870390Y0187981D01*
X0870335Y0187926D01*
X0870277Y0187874D01*
X0870217Y0187825D01*
X0870154Y0187778D01*
X0870089Y0187736D01*
X0870022Y0187696D01*
X0869953Y0187660D01*
X0869882Y0187628D01*
X0869810Y0187599D01*
X0869736Y0187573D01*
X0869661Y0187552D01*
X0869585Y0187534D01*
X0869509Y0187521D01*
X0869431Y0187511D01*
X0869354Y0187505D01*
X0869276Y0187503D01*
X0869198Y0187505D01*
X0869121Y0187511D01*
X0869043Y0187521D01*
X0868967Y0187534D01*
X0868891Y0187552D01*
X0868816Y0187573D01*
X0868742Y0187599D01*
X0868670Y0187628D01*
X0868599Y0187660D01*
X0868530Y0187696D01*
X0868463Y0187736D01*
X0868398Y0187778D01*
X0868335Y0187825D01*
X0868275Y0187874D01*
X0868217Y0187926D01*
X0868162Y0187981D01*
X0868110Y0188039D01*
X0868061Y0188099D01*
X0868014Y0188162D01*
X0867972Y0188227D01*
X0867932Y0188294D01*
X0867896Y0188363D01*
X0867864Y0188434D01*
X0867835Y0188506D01*
X0867809Y0188580D01*
X0867788Y0188655D01*
X0867770Y0188731D01*
X0867757Y0188807D01*
X0867747Y0188885D01*
X0867741Y0188962D01*
X0867739Y0189040D01*
X0909138Y0212465D02*
X0909138Y0223883D01*
X0916422Y0223883D01*
X0916422Y0212465D01*
X0909138Y0212465D01*
X0908682Y0232174D02*
X0888682Y0232174D01*
X0888682Y0282174D01*
X0908682Y0282174D01*
X0908682Y0232174D01*
X0921182Y0232174D02*
X0941182Y0232174D01*
X0941182Y0282174D01*
X0921182Y0282174D01*
X0921182Y0232174D01*
X0885827Y0241997D02*
X0885827Y0257351D01*
X0866536Y0257351D01*
X0866536Y0241997D01*
X0885827Y0241997D01*
X0868739Y0245540D02*
X0868741Y0245618D01*
X0868747Y0245695D01*
X0868757Y0245773D01*
X0868770Y0245849D01*
X0868788Y0245925D01*
X0868809Y0246000D01*
X0868835Y0246074D01*
X0868864Y0246146D01*
X0868896Y0246217D01*
X0868932Y0246286D01*
X0868972Y0246353D01*
X0869014Y0246418D01*
X0869061Y0246481D01*
X0869110Y0246541D01*
X0869162Y0246599D01*
X0869217Y0246654D01*
X0869275Y0246706D01*
X0869335Y0246755D01*
X0869398Y0246802D01*
X0869463Y0246844D01*
X0869530Y0246884D01*
X0869599Y0246920D01*
X0869670Y0246952D01*
X0869742Y0246981D01*
X0869816Y0247007D01*
X0869891Y0247028D01*
X0869967Y0247046D01*
X0870043Y0247059D01*
X0870121Y0247069D01*
X0870198Y0247075D01*
X0870276Y0247077D01*
X0870354Y0247075D01*
X0870431Y0247069D01*
X0870509Y0247059D01*
X0870585Y0247046D01*
X0870661Y0247028D01*
X0870736Y0247007D01*
X0870810Y0246981D01*
X0870882Y0246952D01*
X0870953Y0246920D01*
X0871022Y0246884D01*
X0871089Y0246844D01*
X0871154Y0246802D01*
X0871217Y0246755D01*
X0871277Y0246706D01*
X0871335Y0246654D01*
X0871390Y0246599D01*
X0871442Y0246541D01*
X0871491Y0246481D01*
X0871538Y0246418D01*
X0871580Y0246353D01*
X0871620Y0246286D01*
X0871656Y0246217D01*
X0871688Y0246146D01*
X0871717Y0246074D01*
X0871743Y0246000D01*
X0871764Y0245925D01*
X0871782Y0245849D01*
X0871795Y0245773D01*
X0871805Y0245695D01*
X0871811Y0245618D01*
X0871813Y0245540D01*
X0871811Y0245462D01*
X0871805Y0245385D01*
X0871795Y0245307D01*
X0871782Y0245231D01*
X0871764Y0245155D01*
X0871743Y0245080D01*
X0871717Y0245006D01*
X0871688Y0244934D01*
X0871656Y0244863D01*
X0871620Y0244794D01*
X0871580Y0244727D01*
X0871538Y0244662D01*
X0871491Y0244599D01*
X0871442Y0244539D01*
X0871390Y0244481D01*
X0871335Y0244426D01*
X0871277Y0244374D01*
X0871217Y0244325D01*
X0871154Y0244278D01*
X0871089Y0244236D01*
X0871022Y0244196D01*
X0870953Y0244160D01*
X0870882Y0244128D01*
X0870810Y0244099D01*
X0870736Y0244073D01*
X0870661Y0244052D01*
X0870585Y0244034D01*
X0870509Y0244021D01*
X0870431Y0244011D01*
X0870354Y0244005D01*
X0870276Y0244003D01*
X0870198Y0244005D01*
X0870121Y0244011D01*
X0870043Y0244021D01*
X0869967Y0244034D01*
X0869891Y0244052D01*
X0869816Y0244073D01*
X0869742Y0244099D01*
X0869670Y0244128D01*
X0869599Y0244160D01*
X0869530Y0244196D01*
X0869463Y0244236D01*
X0869398Y0244278D01*
X0869335Y0244325D01*
X0869275Y0244374D01*
X0869217Y0244426D01*
X0869162Y0244481D01*
X0869110Y0244539D01*
X0869061Y0244599D01*
X0869014Y0244662D01*
X0868972Y0244727D01*
X0868932Y0244794D01*
X0868896Y0244863D01*
X0868864Y0244934D01*
X0868835Y0245006D01*
X0868809Y0245080D01*
X0868788Y0245155D01*
X0868770Y0245231D01*
X0868757Y0245307D01*
X0868747Y0245385D01*
X0868741Y0245462D01*
X0868739Y0245540D01*
X0910138Y0268965D02*
X0910138Y0280383D01*
X0917422Y0280383D01*
X0917422Y0268965D01*
X0910138Y0268965D01*
X0908682Y0288674D02*
X0888682Y0288674D01*
X0888682Y0338674D01*
X0908682Y0338674D01*
X0908682Y0288674D01*
X0921182Y0288674D02*
X0941182Y0288674D01*
X0941182Y0338674D01*
X0921182Y0338674D01*
X0921182Y0288674D01*
X0885827Y0300997D02*
X0866536Y0300997D01*
X0866536Y0316351D01*
X0885827Y0316351D01*
X0885827Y0300997D01*
X0868739Y0304540D02*
X0868741Y0304618D01*
X0868747Y0304695D01*
X0868757Y0304773D01*
X0868770Y0304849D01*
X0868788Y0304925D01*
X0868809Y0305000D01*
X0868835Y0305074D01*
X0868864Y0305146D01*
X0868896Y0305217D01*
X0868932Y0305286D01*
X0868972Y0305353D01*
X0869014Y0305418D01*
X0869061Y0305481D01*
X0869110Y0305541D01*
X0869162Y0305599D01*
X0869217Y0305654D01*
X0869275Y0305706D01*
X0869335Y0305755D01*
X0869398Y0305802D01*
X0869463Y0305844D01*
X0869530Y0305884D01*
X0869599Y0305920D01*
X0869670Y0305952D01*
X0869742Y0305981D01*
X0869816Y0306007D01*
X0869891Y0306028D01*
X0869967Y0306046D01*
X0870043Y0306059D01*
X0870121Y0306069D01*
X0870198Y0306075D01*
X0870276Y0306077D01*
X0870354Y0306075D01*
X0870431Y0306069D01*
X0870509Y0306059D01*
X0870585Y0306046D01*
X0870661Y0306028D01*
X0870736Y0306007D01*
X0870810Y0305981D01*
X0870882Y0305952D01*
X0870953Y0305920D01*
X0871022Y0305884D01*
X0871089Y0305844D01*
X0871154Y0305802D01*
X0871217Y0305755D01*
X0871277Y0305706D01*
X0871335Y0305654D01*
X0871390Y0305599D01*
X0871442Y0305541D01*
X0871491Y0305481D01*
X0871538Y0305418D01*
X0871580Y0305353D01*
X0871620Y0305286D01*
X0871656Y0305217D01*
X0871688Y0305146D01*
X0871717Y0305074D01*
X0871743Y0305000D01*
X0871764Y0304925D01*
X0871782Y0304849D01*
X0871795Y0304773D01*
X0871805Y0304695D01*
X0871811Y0304618D01*
X0871813Y0304540D01*
X0871811Y0304462D01*
X0871805Y0304385D01*
X0871795Y0304307D01*
X0871782Y0304231D01*
X0871764Y0304155D01*
X0871743Y0304080D01*
X0871717Y0304006D01*
X0871688Y0303934D01*
X0871656Y0303863D01*
X0871620Y0303794D01*
X0871580Y0303727D01*
X0871538Y0303662D01*
X0871491Y0303599D01*
X0871442Y0303539D01*
X0871390Y0303481D01*
X0871335Y0303426D01*
X0871277Y0303374D01*
X0871217Y0303325D01*
X0871154Y0303278D01*
X0871089Y0303236D01*
X0871022Y0303196D01*
X0870953Y0303160D01*
X0870882Y0303128D01*
X0870810Y0303099D01*
X0870736Y0303073D01*
X0870661Y0303052D01*
X0870585Y0303034D01*
X0870509Y0303021D01*
X0870431Y0303011D01*
X0870354Y0303005D01*
X0870276Y0303003D01*
X0870198Y0303005D01*
X0870121Y0303011D01*
X0870043Y0303021D01*
X0869967Y0303034D01*
X0869891Y0303052D01*
X0869816Y0303073D01*
X0869742Y0303099D01*
X0869670Y0303128D01*
X0869599Y0303160D01*
X0869530Y0303196D01*
X0869463Y0303236D01*
X0869398Y0303278D01*
X0869335Y0303325D01*
X0869275Y0303374D01*
X0869217Y0303426D01*
X0869162Y0303481D01*
X0869110Y0303539D01*
X0869061Y0303599D01*
X0869014Y0303662D01*
X0868972Y0303727D01*
X0868932Y0303794D01*
X0868896Y0303863D01*
X0868864Y0303934D01*
X0868835Y0304006D01*
X0868809Y0304080D01*
X0868788Y0304155D01*
X0868770Y0304231D01*
X0868757Y0304307D01*
X0868747Y0304385D01*
X0868741Y0304462D01*
X0868739Y0304540D01*
X0910138Y0327965D02*
X0910138Y0339383D01*
X0917422Y0339383D01*
X0917422Y0327965D01*
X0910138Y0327965D01*
X0910682Y0344674D02*
X0890682Y0344674D01*
X0890682Y0394674D01*
X0910682Y0394674D01*
X0910682Y0344674D01*
X0923182Y0344674D02*
X0943182Y0344674D01*
X0943182Y0394674D01*
X0923182Y0394674D01*
X0923182Y0344674D01*
X0887827Y0356997D02*
X0868536Y0356997D01*
X0868536Y0372351D01*
X0887827Y0372351D01*
X0887827Y0356997D01*
X0870739Y0360540D02*
X0870741Y0360618D01*
X0870747Y0360695D01*
X0870757Y0360773D01*
X0870770Y0360849D01*
X0870788Y0360925D01*
X0870809Y0361000D01*
X0870835Y0361074D01*
X0870864Y0361146D01*
X0870896Y0361217D01*
X0870932Y0361286D01*
X0870972Y0361353D01*
X0871014Y0361418D01*
X0871061Y0361481D01*
X0871110Y0361541D01*
X0871162Y0361599D01*
X0871217Y0361654D01*
X0871275Y0361706D01*
X0871335Y0361755D01*
X0871398Y0361802D01*
X0871463Y0361844D01*
X0871530Y0361884D01*
X0871599Y0361920D01*
X0871670Y0361952D01*
X0871742Y0361981D01*
X0871816Y0362007D01*
X0871891Y0362028D01*
X0871967Y0362046D01*
X0872043Y0362059D01*
X0872121Y0362069D01*
X0872198Y0362075D01*
X0872276Y0362077D01*
X0872354Y0362075D01*
X0872431Y0362069D01*
X0872509Y0362059D01*
X0872585Y0362046D01*
X0872661Y0362028D01*
X0872736Y0362007D01*
X0872810Y0361981D01*
X0872882Y0361952D01*
X0872953Y0361920D01*
X0873022Y0361884D01*
X0873089Y0361844D01*
X0873154Y0361802D01*
X0873217Y0361755D01*
X0873277Y0361706D01*
X0873335Y0361654D01*
X0873390Y0361599D01*
X0873442Y0361541D01*
X0873491Y0361481D01*
X0873538Y0361418D01*
X0873580Y0361353D01*
X0873620Y0361286D01*
X0873656Y0361217D01*
X0873688Y0361146D01*
X0873717Y0361074D01*
X0873743Y0361000D01*
X0873764Y0360925D01*
X0873782Y0360849D01*
X0873795Y0360773D01*
X0873805Y0360695D01*
X0873811Y0360618D01*
X0873813Y0360540D01*
X0873811Y0360462D01*
X0873805Y0360385D01*
X0873795Y0360307D01*
X0873782Y0360231D01*
X0873764Y0360155D01*
X0873743Y0360080D01*
X0873717Y0360006D01*
X0873688Y0359934D01*
X0873656Y0359863D01*
X0873620Y0359794D01*
X0873580Y0359727D01*
X0873538Y0359662D01*
X0873491Y0359599D01*
X0873442Y0359539D01*
X0873390Y0359481D01*
X0873335Y0359426D01*
X0873277Y0359374D01*
X0873217Y0359325D01*
X0873154Y0359278D01*
X0873089Y0359236D01*
X0873022Y0359196D01*
X0872953Y0359160D01*
X0872882Y0359128D01*
X0872810Y0359099D01*
X0872736Y0359073D01*
X0872661Y0359052D01*
X0872585Y0359034D01*
X0872509Y0359021D01*
X0872431Y0359011D01*
X0872354Y0359005D01*
X0872276Y0359003D01*
X0872198Y0359005D01*
X0872121Y0359011D01*
X0872043Y0359021D01*
X0871967Y0359034D01*
X0871891Y0359052D01*
X0871816Y0359073D01*
X0871742Y0359099D01*
X0871670Y0359128D01*
X0871599Y0359160D01*
X0871530Y0359196D01*
X0871463Y0359236D01*
X0871398Y0359278D01*
X0871335Y0359325D01*
X0871275Y0359374D01*
X0871217Y0359426D01*
X0871162Y0359481D01*
X0871110Y0359539D01*
X0871061Y0359599D01*
X0871014Y0359662D01*
X0870972Y0359727D01*
X0870932Y0359794D01*
X0870896Y0359863D01*
X0870864Y0359934D01*
X0870835Y0360006D01*
X0870809Y0360080D01*
X0870788Y0360155D01*
X0870770Y0360231D01*
X0870757Y0360307D01*
X0870747Y0360385D01*
X0870741Y0360462D01*
X0870739Y0360540D01*
X0912138Y0383965D02*
X0912138Y0395383D01*
X0919422Y0395383D01*
X0919422Y0383965D01*
X0912138Y0383965D01*
X0910682Y0400674D02*
X0890682Y0400674D01*
X0890682Y0450674D01*
X0910682Y0450674D01*
X0910682Y0400674D01*
X0923182Y0400674D02*
X0943182Y0400674D01*
X0943182Y0450674D01*
X0923182Y0450674D01*
X0923182Y0400674D01*
X0887827Y0412997D02*
X0868536Y0412997D01*
X0868536Y0428351D01*
X0887827Y0428351D01*
X0887827Y0412997D01*
X0870739Y0416540D02*
X0870741Y0416618D01*
X0870747Y0416695D01*
X0870757Y0416773D01*
X0870770Y0416849D01*
X0870788Y0416925D01*
X0870809Y0417000D01*
X0870835Y0417074D01*
X0870864Y0417146D01*
X0870896Y0417217D01*
X0870932Y0417286D01*
X0870972Y0417353D01*
X0871014Y0417418D01*
X0871061Y0417481D01*
X0871110Y0417541D01*
X0871162Y0417599D01*
X0871217Y0417654D01*
X0871275Y0417706D01*
X0871335Y0417755D01*
X0871398Y0417802D01*
X0871463Y0417844D01*
X0871530Y0417884D01*
X0871599Y0417920D01*
X0871670Y0417952D01*
X0871742Y0417981D01*
X0871816Y0418007D01*
X0871891Y0418028D01*
X0871967Y0418046D01*
X0872043Y0418059D01*
X0872121Y0418069D01*
X0872198Y0418075D01*
X0872276Y0418077D01*
X0872354Y0418075D01*
X0872431Y0418069D01*
X0872509Y0418059D01*
X0872585Y0418046D01*
X0872661Y0418028D01*
X0872736Y0418007D01*
X0872810Y0417981D01*
X0872882Y0417952D01*
X0872953Y0417920D01*
X0873022Y0417884D01*
X0873089Y0417844D01*
X0873154Y0417802D01*
X0873217Y0417755D01*
X0873277Y0417706D01*
X0873335Y0417654D01*
X0873390Y0417599D01*
X0873442Y0417541D01*
X0873491Y0417481D01*
X0873538Y0417418D01*
X0873580Y0417353D01*
X0873620Y0417286D01*
X0873656Y0417217D01*
X0873688Y0417146D01*
X0873717Y0417074D01*
X0873743Y0417000D01*
X0873764Y0416925D01*
X0873782Y0416849D01*
X0873795Y0416773D01*
X0873805Y0416695D01*
X0873811Y0416618D01*
X0873813Y0416540D01*
X0873811Y0416462D01*
X0873805Y0416385D01*
X0873795Y0416307D01*
X0873782Y0416231D01*
X0873764Y0416155D01*
X0873743Y0416080D01*
X0873717Y0416006D01*
X0873688Y0415934D01*
X0873656Y0415863D01*
X0873620Y0415794D01*
X0873580Y0415727D01*
X0873538Y0415662D01*
X0873491Y0415599D01*
X0873442Y0415539D01*
X0873390Y0415481D01*
X0873335Y0415426D01*
X0873277Y0415374D01*
X0873217Y0415325D01*
X0873154Y0415278D01*
X0873089Y0415236D01*
X0873022Y0415196D01*
X0872953Y0415160D01*
X0872882Y0415128D01*
X0872810Y0415099D01*
X0872736Y0415073D01*
X0872661Y0415052D01*
X0872585Y0415034D01*
X0872509Y0415021D01*
X0872431Y0415011D01*
X0872354Y0415005D01*
X0872276Y0415003D01*
X0872198Y0415005D01*
X0872121Y0415011D01*
X0872043Y0415021D01*
X0871967Y0415034D01*
X0871891Y0415052D01*
X0871816Y0415073D01*
X0871742Y0415099D01*
X0871670Y0415128D01*
X0871599Y0415160D01*
X0871530Y0415196D01*
X0871463Y0415236D01*
X0871398Y0415278D01*
X0871335Y0415325D01*
X0871275Y0415374D01*
X0871217Y0415426D01*
X0871162Y0415481D01*
X0871110Y0415539D01*
X0871061Y0415599D01*
X0871014Y0415662D01*
X0870972Y0415727D01*
X0870932Y0415794D01*
X0870896Y0415863D01*
X0870864Y0415934D01*
X0870835Y0416006D01*
X0870809Y0416080D01*
X0870788Y0416155D01*
X0870770Y0416231D01*
X0870757Y0416307D01*
X0870747Y0416385D01*
X0870741Y0416462D01*
X0870739Y0416540D01*
X0912138Y0439965D02*
X0912138Y0451383D01*
X0919422Y0451383D01*
X0919422Y0439965D01*
X0912138Y0439965D01*
X0911682Y0456674D02*
X0891682Y0456674D01*
X0891682Y0506674D01*
X0911682Y0506674D01*
X0911682Y0456674D01*
X0924182Y0456674D02*
X0944182Y0456674D01*
X0944182Y0506674D01*
X0924182Y0506674D01*
X0924182Y0456674D01*
X0888827Y0468997D02*
X0869536Y0468997D01*
X0869536Y0484351D01*
X0888827Y0484351D01*
X0888827Y0468997D01*
X0871739Y0472540D02*
X0871741Y0472618D01*
X0871747Y0472695D01*
X0871757Y0472773D01*
X0871770Y0472849D01*
X0871788Y0472925D01*
X0871809Y0473000D01*
X0871835Y0473074D01*
X0871864Y0473146D01*
X0871896Y0473217D01*
X0871932Y0473286D01*
X0871972Y0473353D01*
X0872014Y0473418D01*
X0872061Y0473481D01*
X0872110Y0473541D01*
X0872162Y0473599D01*
X0872217Y0473654D01*
X0872275Y0473706D01*
X0872335Y0473755D01*
X0872398Y0473802D01*
X0872463Y0473844D01*
X0872530Y0473884D01*
X0872599Y0473920D01*
X0872670Y0473952D01*
X0872742Y0473981D01*
X0872816Y0474007D01*
X0872891Y0474028D01*
X0872967Y0474046D01*
X0873043Y0474059D01*
X0873121Y0474069D01*
X0873198Y0474075D01*
X0873276Y0474077D01*
X0873354Y0474075D01*
X0873431Y0474069D01*
X0873509Y0474059D01*
X0873585Y0474046D01*
X0873661Y0474028D01*
X0873736Y0474007D01*
X0873810Y0473981D01*
X0873882Y0473952D01*
X0873953Y0473920D01*
X0874022Y0473884D01*
X0874089Y0473844D01*
X0874154Y0473802D01*
X0874217Y0473755D01*
X0874277Y0473706D01*
X0874335Y0473654D01*
X0874390Y0473599D01*
X0874442Y0473541D01*
X0874491Y0473481D01*
X0874538Y0473418D01*
X0874580Y0473353D01*
X0874620Y0473286D01*
X0874656Y0473217D01*
X0874688Y0473146D01*
X0874717Y0473074D01*
X0874743Y0473000D01*
X0874764Y0472925D01*
X0874782Y0472849D01*
X0874795Y0472773D01*
X0874805Y0472695D01*
X0874811Y0472618D01*
X0874813Y0472540D01*
X0874811Y0472462D01*
X0874805Y0472385D01*
X0874795Y0472307D01*
X0874782Y0472231D01*
X0874764Y0472155D01*
X0874743Y0472080D01*
X0874717Y0472006D01*
X0874688Y0471934D01*
X0874656Y0471863D01*
X0874620Y0471794D01*
X0874580Y0471727D01*
X0874538Y0471662D01*
X0874491Y0471599D01*
X0874442Y0471539D01*
X0874390Y0471481D01*
X0874335Y0471426D01*
X0874277Y0471374D01*
X0874217Y0471325D01*
X0874154Y0471278D01*
X0874089Y0471236D01*
X0874022Y0471196D01*
X0873953Y0471160D01*
X0873882Y0471128D01*
X0873810Y0471099D01*
X0873736Y0471073D01*
X0873661Y0471052D01*
X0873585Y0471034D01*
X0873509Y0471021D01*
X0873431Y0471011D01*
X0873354Y0471005D01*
X0873276Y0471003D01*
X0873198Y0471005D01*
X0873121Y0471011D01*
X0873043Y0471021D01*
X0872967Y0471034D01*
X0872891Y0471052D01*
X0872816Y0471073D01*
X0872742Y0471099D01*
X0872670Y0471128D01*
X0872599Y0471160D01*
X0872530Y0471196D01*
X0872463Y0471236D01*
X0872398Y0471278D01*
X0872335Y0471325D01*
X0872275Y0471374D01*
X0872217Y0471426D01*
X0872162Y0471481D01*
X0872110Y0471539D01*
X0872061Y0471599D01*
X0872014Y0471662D01*
X0871972Y0471727D01*
X0871932Y0471794D01*
X0871896Y0471863D01*
X0871864Y0471934D01*
X0871835Y0472006D01*
X0871809Y0472080D01*
X0871788Y0472155D01*
X0871770Y0472231D01*
X0871757Y0472307D01*
X0871747Y0472385D01*
X0871741Y0472462D01*
X0871739Y0472540D01*
X0913138Y0495965D02*
X0913138Y0507383D01*
X0920422Y0507383D01*
X0920422Y0495965D01*
X0913138Y0495965D01*
X0911682Y0515174D02*
X0891682Y0515174D01*
X0891682Y0565174D01*
X0911682Y0565174D01*
X0911682Y0515174D01*
X0924182Y0515174D02*
X0944182Y0515174D01*
X0944182Y0565174D01*
X0924182Y0565174D01*
X0924182Y0515174D01*
X0888827Y0527497D02*
X0869536Y0527497D01*
X0869536Y0542851D01*
X0888827Y0542851D01*
X0888827Y0527497D01*
X0871739Y0531040D02*
X0871741Y0531118D01*
X0871747Y0531195D01*
X0871757Y0531273D01*
X0871770Y0531349D01*
X0871788Y0531425D01*
X0871809Y0531500D01*
X0871835Y0531574D01*
X0871864Y0531646D01*
X0871896Y0531717D01*
X0871932Y0531786D01*
X0871972Y0531853D01*
X0872014Y0531918D01*
X0872061Y0531981D01*
X0872110Y0532041D01*
X0872162Y0532099D01*
X0872217Y0532154D01*
X0872275Y0532206D01*
X0872335Y0532255D01*
X0872398Y0532302D01*
X0872463Y0532344D01*
X0872530Y0532384D01*
X0872599Y0532420D01*
X0872670Y0532452D01*
X0872742Y0532481D01*
X0872816Y0532507D01*
X0872891Y0532528D01*
X0872967Y0532546D01*
X0873043Y0532559D01*
X0873121Y0532569D01*
X0873198Y0532575D01*
X0873276Y0532577D01*
X0873354Y0532575D01*
X0873431Y0532569D01*
X0873509Y0532559D01*
X0873585Y0532546D01*
X0873661Y0532528D01*
X0873736Y0532507D01*
X0873810Y0532481D01*
X0873882Y0532452D01*
X0873953Y0532420D01*
X0874022Y0532384D01*
X0874089Y0532344D01*
X0874154Y0532302D01*
X0874217Y0532255D01*
X0874277Y0532206D01*
X0874335Y0532154D01*
X0874390Y0532099D01*
X0874442Y0532041D01*
X0874491Y0531981D01*
X0874538Y0531918D01*
X0874580Y0531853D01*
X0874620Y0531786D01*
X0874656Y0531717D01*
X0874688Y0531646D01*
X0874717Y0531574D01*
X0874743Y0531500D01*
X0874764Y0531425D01*
X0874782Y0531349D01*
X0874795Y0531273D01*
X0874805Y0531195D01*
X0874811Y0531118D01*
X0874813Y0531040D01*
X0874811Y0530962D01*
X0874805Y0530885D01*
X0874795Y0530807D01*
X0874782Y0530731D01*
X0874764Y0530655D01*
X0874743Y0530580D01*
X0874717Y0530506D01*
X0874688Y0530434D01*
X0874656Y0530363D01*
X0874620Y0530294D01*
X0874580Y0530227D01*
X0874538Y0530162D01*
X0874491Y0530099D01*
X0874442Y0530039D01*
X0874390Y0529981D01*
X0874335Y0529926D01*
X0874277Y0529874D01*
X0874217Y0529825D01*
X0874154Y0529778D01*
X0874089Y0529736D01*
X0874022Y0529696D01*
X0873953Y0529660D01*
X0873882Y0529628D01*
X0873810Y0529599D01*
X0873736Y0529573D01*
X0873661Y0529552D01*
X0873585Y0529534D01*
X0873509Y0529521D01*
X0873431Y0529511D01*
X0873354Y0529505D01*
X0873276Y0529503D01*
X0873198Y0529505D01*
X0873121Y0529511D01*
X0873043Y0529521D01*
X0872967Y0529534D01*
X0872891Y0529552D01*
X0872816Y0529573D01*
X0872742Y0529599D01*
X0872670Y0529628D01*
X0872599Y0529660D01*
X0872530Y0529696D01*
X0872463Y0529736D01*
X0872398Y0529778D01*
X0872335Y0529825D01*
X0872275Y0529874D01*
X0872217Y0529926D01*
X0872162Y0529981D01*
X0872110Y0530039D01*
X0872061Y0530099D01*
X0872014Y0530162D01*
X0871972Y0530227D01*
X0871932Y0530294D01*
X0871896Y0530363D01*
X0871864Y0530434D01*
X0871835Y0530506D01*
X0871809Y0530580D01*
X0871788Y0530655D01*
X0871770Y0530731D01*
X0871757Y0530807D01*
X0871747Y0530885D01*
X0871741Y0530962D01*
X0871739Y0531040D01*
X0825682Y0527674D02*
X0795682Y0527674D01*
X0795682Y0547674D01*
X0825682Y0547674D01*
X0825682Y0527674D01*
X0790682Y0527674D02*
X0790682Y0547674D01*
X0760682Y0547674D01*
X0760682Y0527674D01*
X0790682Y0527674D01*
X0755682Y0527674D02*
X0755682Y0547674D01*
X0725682Y0547674D01*
X0725682Y0527674D01*
X0755682Y0527674D01*
X0745390Y0561131D02*
X0733973Y0561131D01*
X0733973Y0568414D01*
X0745390Y0568414D01*
X0745390Y0561131D01*
X0770973Y0560831D02*
X0770973Y0568114D01*
X0782390Y0568114D01*
X0782390Y0560831D01*
X0770973Y0560831D01*
X0804973Y0561131D02*
X0804973Y0568414D01*
X0816390Y0568414D01*
X0816390Y0561131D01*
X0804973Y0561131D01*
X0913138Y0565883D02*
X0913138Y0554465D01*
X0920422Y0554465D01*
X0920422Y0565883D01*
X0913138Y0565883D01*
X1110932Y0506634D02*
X1110932Y0502126D01*
X1111833Y0501224D01*
X1113637Y0501224D01*
X1114538Y0502126D01*
X1114538Y0506634D01*
X1116369Y0505732D02*
X1117271Y0506634D01*
X1119074Y0506634D01*
X1119976Y0505732D01*
X1119074Y0503929D02*
X1117271Y0503929D01*
X1116369Y0504831D01*
X1116369Y0505732D01*
X1118173Y0507536D02*
X1118173Y0500322D01*
X1119074Y0501224D02*
X1119976Y0502126D01*
X1119976Y0503027D01*
X1119074Y0503929D01*
X1119074Y0501224D02*
X1117271Y0501224D01*
X1116369Y0502126D01*
X1117123Y0498058D02*
X1116222Y0497156D01*
X1116222Y0495353D01*
X1117123Y0494451D01*
X1120730Y0494451D01*
X1121632Y0495353D01*
X1121632Y0497156D01*
X1120730Y0498058D01*
X1124512Y0501224D02*
X1124512Y0506634D01*
X1121807Y0503929D01*
X1125414Y0503929D01*
X1132425Y0516324D02*
X1130622Y0518127D01*
X1132425Y0519931D01*
X1136032Y0519931D01*
X1135130Y0521762D02*
X1136032Y0522663D01*
X1136032Y0524467D01*
X1135130Y0525368D01*
X1135130Y0527199D02*
X1136032Y0528101D01*
X1136032Y0529904D01*
X1135130Y0530806D01*
X1134228Y0530806D01*
X1133327Y0529904D01*
X1133327Y0528101D01*
X1132425Y0527199D01*
X1131523Y0527199D01*
X1130622Y0528101D01*
X1130622Y0529904D01*
X1131523Y0530806D01*
X1130622Y0532637D02*
X1130622Y0536244D01*
X1131523Y0536244D01*
X1135130Y0532637D01*
X1136032Y0532637D01*
X1136032Y0538075D02*
X1136032Y0541682D01*
X1136032Y0539878D02*
X1130622Y0539878D01*
X1132425Y0538075D01*
X1131523Y0543513D02*
X1130622Y0544414D01*
X1130622Y0546218D01*
X1131523Y0547119D01*
X1132425Y0547119D01*
X1133327Y0546218D01*
X1134228Y0547119D01*
X1135130Y0547119D01*
X1136032Y0546218D01*
X1136032Y0544414D01*
X1135130Y0543513D01*
X1133327Y0545316D02*
X1133327Y0546218D01*
X1132425Y0548950D02*
X1133327Y0549852D01*
X1133327Y0551655D01*
X1134228Y0552557D01*
X1135130Y0552557D01*
X1136032Y0551655D01*
X1136032Y0549852D01*
X1135130Y0548950D01*
X1132425Y0548950D02*
X1131523Y0548950D01*
X1130622Y0549852D01*
X1130622Y0551655D01*
X1131523Y0552557D01*
X1131523Y0554388D02*
X1135130Y0554388D01*
X1136032Y0555290D01*
X1136032Y0557093D01*
X1135130Y0557995D01*
X1131523Y0557995D01*
X1130622Y0557093D01*
X1130622Y0555290D01*
X1131523Y0554388D01*
X1130622Y0559826D02*
X1130622Y0561629D01*
X1130622Y0560727D02*
X1136032Y0560727D01*
X1136032Y0559826D02*
X1136032Y0561629D01*
X1135130Y0563451D02*
X1136032Y0564353D01*
X1136032Y0566156D01*
X1135130Y0567058D01*
X1131523Y0567058D02*
X1130622Y0566156D01*
X1130622Y0564353D01*
X1131523Y0563451D01*
X1135130Y0563451D01*
X1131523Y0525368D02*
X1130622Y0524467D01*
X1130622Y0522663D01*
X1131523Y0521762D01*
X1135130Y0521762D01*
X1133327Y0519931D02*
X1133327Y0516324D01*
X1132425Y0516324D02*
X1136032Y0516324D01*
X1121632Y0492629D02*
X1121632Y0490826D01*
X1121632Y0491727D02*
X1116222Y0491727D01*
X1116222Y0490826D02*
X1116222Y0492629D01*
X1117123Y0488995D02*
X1116222Y0488093D01*
X1116222Y0486290D01*
X1117123Y0485388D01*
X1120730Y0485388D01*
X1121632Y0486290D01*
X1121632Y0488093D01*
X1120730Y0488995D01*
X1117123Y0488995D01*
X1117123Y0483557D02*
X1116222Y0482655D01*
X1116222Y0480852D01*
X1117123Y0479950D01*
X1118025Y0479950D01*
X1118927Y0480852D01*
X1118927Y0482655D01*
X1119828Y0483557D01*
X1120730Y0483557D01*
X1121632Y0482655D01*
X1121632Y0480852D01*
X1120730Y0479950D01*
X1120730Y0478119D02*
X1121632Y0477218D01*
X1121632Y0475414D01*
X1120730Y0474513D01*
X1121632Y0472682D02*
X1121632Y0469075D01*
X1121632Y0470878D02*
X1116222Y0470878D01*
X1118025Y0469075D01*
X1117123Y0467244D02*
X1120730Y0463637D01*
X1121632Y0463637D01*
X1120730Y0461806D02*
X1121632Y0460904D01*
X1121632Y0459101D01*
X1120730Y0458199D01*
X1120730Y0456368D02*
X1121632Y0455467D01*
X1121632Y0453663D01*
X1120730Y0452762D01*
X1117123Y0452762D01*
X1116222Y0453663D01*
X1116222Y0455467D01*
X1117123Y0456368D01*
X1117123Y0458199D02*
X1118025Y0458199D01*
X1118927Y0459101D01*
X1118927Y0460904D01*
X1119828Y0461806D01*
X1120730Y0461806D01*
X1117123Y0461806D02*
X1116222Y0460904D01*
X1116222Y0459101D01*
X1117123Y0458199D01*
X1116222Y0463637D02*
X1116222Y0467244D01*
X1117123Y0467244D01*
X1117123Y0474513D02*
X1116222Y0475414D01*
X1116222Y0477218D01*
X1117123Y0478119D01*
X1118025Y0478119D01*
X1118927Y0477218D01*
X1119828Y0478119D01*
X1120730Y0478119D01*
X1118927Y0477218D02*
X1118927Y0476316D01*
X1131332Y0483226D02*
X1132233Y0482324D01*
X1134037Y0482324D01*
X1134938Y0483226D01*
X1134938Y0487734D01*
X1136769Y0486832D02*
X1137671Y0487734D01*
X1139474Y0487734D01*
X1140376Y0486832D01*
X1142207Y0486832D02*
X1142207Y0485931D01*
X1143109Y0485029D01*
X1144912Y0485029D01*
X1145814Y0484127D01*
X1145814Y0483226D01*
X1144912Y0482324D01*
X1143109Y0482324D01*
X1142207Y0483226D01*
X1142207Y0484127D01*
X1143109Y0485029D01*
X1144912Y0485029D02*
X1145814Y0485931D01*
X1145814Y0486832D01*
X1144912Y0487734D01*
X1143109Y0487734D01*
X1142207Y0486832D01*
X1140376Y0484127D02*
X1139474Y0485029D01*
X1137671Y0485029D01*
X1136769Y0485931D01*
X1136769Y0486832D01*
X1138573Y0488636D02*
X1138573Y0481422D01*
X1139474Y0482324D02*
X1140376Y0483226D01*
X1140376Y0484127D01*
X1139474Y0482324D02*
X1137671Y0482324D01*
X1136769Y0483226D01*
X1131332Y0483226D02*
X1131332Y0487734D01*
X1140232Y0464144D02*
X1140232Y0460537D01*
X1140232Y0462341D02*
X1134822Y0462341D01*
X1136625Y0460537D01*
X1140232Y0458706D02*
X1140232Y0455099D01*
X1140232Y0456903D02*
X1134822Y0456903D01*
X1136625Y0455099D01*
X1135723Y0453268D02*
X1134822Y0452367D01*
X1134822Y0450563D01*
X1135723Y0449662D01*
X1136625Y0449662D01*
X1137527Y0450563D01*
X1137527Y0452367D01*
X1138428Y0453268D01*
X1139330Y0453268D01*
X1140232Y0452367D01*
X1140232Y0450563D01*
X1139330Y0449662D01*
X1139330Y0447831D02*
X1134822Y0447831D01*
X1134822Y0444224D02*
X1139330Y0444224D01*
X1140232Y0445126D01*
X1140232Y0446929D01*
X1139330Y0447831D01*
X1141133Y0451465D02*
X1133920Y0451465D01*
X1121632Y0450931D02*
X1118025Y0450931D01*
X1116222Y0449127D01*
X1118025Y0447324D01*
X1121632Y0447324D01*
X1118927Y0447324D02*
X1118927Y0450931D01*
X1129023Y0434958D02*
X1128122Y0434056D01*
X1128122Y0432253D01*
X1129023Y0431351D01*
X1132630Y0431351D01*
X1133532Y0432253D01*
X1133532Y0434056D01*
X1132630Y0434958D01*
X1133532Y0429529D02*
X1133532Y0427726D01*
X1133532Y0428627D02*
X1128122Y0428627D01*
X1128122Y0427726D02*
X1128122Y0429529D01*
X1129023Y0425895D02*
X1128122Y0424993D01*
X1128122Y0423190D01*
X1129023Y0422288D01*
X1132630Y0422288D01*
X1133532Y0423190D01*
X1133532Y0424993D01*
X1132630Y0425895D01*
X1129023Y0425895D01*
X1129023Y0420457D02*
X1128122Y0419555D01*
X1128122Y0417752D01*
X1129023Y0416850D01*
X1129925Y0416850D01*
X1130827Y0417752D01*
X1130827Y0419555D01*
X1131728Y0420457D01*
X1132630Y0420457D01*
X1133532Y0419555D01*
X1133532Y0417752D01*
X1132630Y0416850D01*
X1132630Y0415019D02*
X1133532Y0414118D01*
X1133532Y0412314D01*
X1132630Y0411413D01*
X1133532Y0409582D02*
X1133532Y0405975D01*
X1133532Y0407778D02*
X1128122Y0407778D01*
X1129925Y0405975D01*
X1129023Y0404144D02*
X1132630Y0400537D01*
X1133532Y0400537D01*
X1132630Y0398706D02*
X1133532Y0397804D01*
X1133532Y0396001D01*
X1132630Y0395099D01*
X1132630Y0393268D02*
X1133532Y0392367D01*
X1133532Y0390563D01*
X1132630Y0389662D01*
X1129023Y0389662D01*
X1128122Y0390563D01*
X1128122Y0392367D01*
X1129023Y0393268D01*
X1129023Y0395099D02*
X1129925Y0395099D01*
X1130827Y0396001D01*
X1130827Y0397804D01*
X1131728Y0398706D01*
X1132630Y0398706D01*
X1129023Y0398706D02*
X1128122Y0397804D01*
X1128122Y0396001D01*
X1129023Y0395099D01*
X1128122Y0400537D02*
X1128122Y0404144D01*
X1129023Y0404144D01*
X1129023Y0411413D02*
X1128122Y0412314D01*
X1128122Y0414118D01*
X1129023Y0415019D01*
X1129925Y0415019D01*
X1130827Y0414118D01*
X1131728Y0415019D01*
X1132630Y0415019D01*
X1130827Y0414118D02*
X1130827Y0413216D01*
X1119030Y0391758D02*
X1119932Y0390856D01*
X1119932Y0389053D01*
X1119030Y0388151D01*
X1115423Y0388151D01*
X1114522Y0389053D01*
X1114522Y0390856D01*
X1115423Y0391758D01*
X1114522Y0386329D02*
X1114522Y0384526D01*
X1114522Y0385427D02*
X1119932Y0385427D01*
X1119932Y0384526D02*
X1119932Y0386329D01*
X1119030Y0382695D02*
X1115423Y0382695D01*
X1114522Y0381793D01*
X1114522Y0379990D01*
X1115423Y0379088D01*
X1119030Y0379088D01*
X1119932Y0379990D01*
X1119932Y0381793D01*
X1119030Y0382695D01*
X1119030Y0377257D02*
X1119932Y0376355D01*
X1119932Y0374552D01*
X1119030Y0373650D01*
X1119030Y0371819D02*
X1119932Y0370918D01*
X1119932Y0369114D01*
X1119030Y0368213D01*
X1119932Y0366382D02*
X1119932Y0362775D01*
X1119932Y0364578D02*
X1114522Y0364578D01*
X1116325Y0362775D01*
X1115423Y0360944D02*
X1119030Y0357337D01*
X1119932Y0357337D01*
X1119030Y0355506D02*
X1119932Y0354604D01*
X1119932Y0352801D01*
X1119030Y0351899D01*
X1119030Y0350068D02*
X1119932Y0349167D01*
X1119932Y0347363D01*
X1119030Y0346462D01*
X1115423Y0346462D01*
X1114522Y0347363D01*
X1114522Y0349167D01*
X1115423Y0350068D01*
X1115423Y0351899D02*
X1116325Y0351899D01*
X1117227Y0352801D01*
X1117227Y0354604D01*
X1118128Y0355506D01*
X1119030Y0355506D01*
X1115423Y0355506D02*
X1114522Y0354604D01*
X1114522Y0352801D01*
X1115423Y0351899D01*
X1114522Y0357337D02*
X1114522Y0360944D01*
X1115423Y0360944D01*
X1108332Y0361126D02*
X1108332Y0362929D01*
X1107430Y0363831D01*
X1102922Y0363831D01*
X1103823Y0365662D02*
X1102922Y0366563D01*
X1102922Y0368367D01*
X1103823Y0369268D01*
X1105627Y0368367D02*
X1105627Y0366563D01*
X1104725Y0365662D01*
X1103823Y0365662D01*
X1102020Y0367465D02*
X1109233Y0367465D01*
X1108332Y0366563D02*
X1108332Y0368367D01*
X1107430Y0369268D01*
X1106528Y0369268D01*
X1105627Y0368367D01*
X1104725Y0371099D02*
X1102922Y0372903D01*
X1108332Y0372903D01*
X1108332Y0374706D02*
X1108332Y0371099D01*
X1108332Y0366563D02*
X1107430Y0365662D01*
X1108332Y0361126D02*
X1107430Y0360224D01*
X1102922Y0360224D01*
X1114522Y0369114D02*
X1114522Y0370918D01*
X1115423Y0371819D01*
X1116325Y0371819D01*
X1117227Y0370918D01*
X1118128Y0371819D01*
X1119030Y0371819D01*
X1117227Y0370918D02*
X1117227Y0370016D01*
X1115423Y0368213D02*
X1114522Y0369114D01*
X1115423Y0373650D02*
X1116325Y0373650D01*
X1117227Y0374552D01*
X1117227Y0376355D01*
X1118128Y0377257D01*
X1119030Y0377257D01*
X1115423Y0377257D02*
X1114522Y0376355D01*
X1114522Y0374552D01*
X1115423Y0373650D01*
X1108332Y0379242D02*
X1102922Y0379242D01*
X1105627Y0376537D01*
X1105627Y0380144D01*
X1128122Y0386027D02*
X1129925Y0387831D01*
X1133532Y0387831D01*
X1130827Y0387831D02*
X1130827Y0384224D01*
X1129925Y0384224D02*
X1128122Y0386027D01*
X1129925Y0384224D02*
X1133532Y0384224D01*
X1119932Y0344631D02*
X1116325Y0344631D01*
X1114522Y0342827D01*
X1116325Y0341024D01*
X1119932Y0341024D01*
X1117227Y0341024D02*
X1117227Y0344631D01*
X1128922Y0340044D02*
X1129823Y0340044D01*
X1133430Y0336437D01*
X1134332Y0336437D01*
X1134332Y0334606D02*
X1134332Y0330999D01*
X1134332Y0332803D02*
X1128922Y0332803D01*
X1130725Y0330999D01*
X1129823Y0329168D02*
X1128922Y0328267D01*
X1128922Y0326463D01*
X1129823Y0325562D01*
X1130725Y0325562D01*
X1131627Y0326463D01*
X1131627Y0328267D01*
X1132528Y0329168D01*
X1133430Y0329168D01*
X1134332Y0328267D01*
X1134332Y0326463D01*
X1133430Y0325562D01*
X1133430Y0323731D02*
X1128922Y0323731D01*
X1128922Y0320124D02*
X1133430Y0320124D01*
X1134332Y0321026D01*
X1134332Y0322829D01*
X1133430Y0323731D01*
X1135233Y0327365D02*
X1128020Y0327365D01*
X1128922Y0336437D02*
X1128922Y0340044D01*
X1140822Y0336956D02*
X1140822Y0335153D01*
X1141723Y0334251D01*
X1145330Y0334251D01*
X1146232Y0335153D01*
X1146232Y0336956D01*
X1145330Y0337858D01*
X1141723Y0337858D02*
X1140822Y0336956D01*
X1140822Y0332429D02*
X1140822Y0330626D01*
X1140822Y0331527D02*
X1146232Y0331527D01*
X1146232Y0330626D02*
X1146232Y0332429D01*
X1145330Y0328795D02*
X1141723Y0328795D01*
X1140822Y0327893D01*
X1140822Y0326090D01*
X1141723Y0325188D01*
X1145330Y0325188D01*
X1146232Y0326090D01*
X1146232Y0327893D01*
X1145330Y0328795D01*
X1145330Y0323357D02*
X1146232Y0322455D01*
X1146232Y0320652D01*
X1145330Y0319750D01*
X1145330Y0317919D02*
X1146232Y0317018D01*
X1146232Y0315214D01*
X1145330Y0314313D01*
X1146232Y0312482D02*
X1146232Y0308875D01*
X1146232Y0310678D02*
X1140822Y0310678D01*
X1142625Y0308875D01*
X1141723Y0307044D02*
X1145330Y0303437D01*
X1146232Y0303437D01*
X1145330Y0301606D02*
X1146232Y0300704D01*
X1146232Y0298901D01*
X1145330Y0297999D01*
X1145330Y0296168D02*
X1146232Y0295267D01*
X1146232Y0293463D01*
X1145330Y0292562D01*
X1141723Y0292562D01*
X1140822Y0293463D01*
X1140822Y0295267D01*
X1141723Y0296168D01*
X1141723Y0297999D02*
X1142625Y0297999D01*
X1143527Y0298901D01*
X1143527Y0300704D01*
X1144428Y0301606D01*
X1145330Y0301606D01*
X1141723Y0301606D02*
X1140822Y0300704D01*
X1140822Y0298901D01*
X1141723Y0297999D01*
X1140822Y0303437D02*
X1140822Y0307044D01*
X1141723Y0307044D01*
X1141723Y0314313D02*
X1140822Y0315214D01*
X1140822Y0317018D01*
X1141723Y0317919D01*
X1142625Y0317919D01*
X1143527Y0317018D01*
X1144428Y0317919D01*
X1145330Y0317919D01*
X1143527Y0317018D02*
X1143527Y0316116D01*
X1142625Y0319750D02*
X1143527Y0320652D01*
X1143527Y0322455D01*
X1144428Y0323357D01*
X1145330Y0323357D01*
X1141723Y0323357D02*
X1140822Y0322455D01*
X1140822Y0320652D01*
X1141723Y0319750D01*
X1142625Y0319750D01*
X1142625Y0290731D02*
X1146232Y0290731D01*
X1143527Y0290731D02*
X1143527Y0287124D01*
X1142625Y0287124D02*
X1140822Y0288927D01*
X1142625Y0290731D01*
X1142625Y0287124D02*
X1146232Y0287124D01*
X1137750Y0257734D02*
X1138652Y0256832D01*
X1138652Y0255931D01*
X1137750Y0255029D01*
X1138652Y0254127D01*
X1138652Y0253226D01*
X1137750Y0252324D01*
X1135946Y0252324D01*
X1135045Y0253226D01*
X1133214Y0252324D02*
X1129607Y0252324D01*
X1133214Y0255931D01*
X1133214Y0256832D01*
X1132312Y0257734D01*
X1130509Y0257734D01*
X1129607Y0256832D01*
X1127776Y0256832D02*
X1126874Y0257734D01*
X1125071Y0257734D01*
X1124169Y0256832D01*
X1124169Y0255931D01*
X1125071Y0255029D01*
X1126874Y0255029D01*
X1127776Y0254127D01*
X1127776Y0253226D01*
X1126874Y0252324D01*
X1125071Y0252324D01*
X1124169Y0253226D01*
X1122338Y0253226D02*
X1122338Y0257734D01*
X1118732Y0257734D02*
X1118732Y0253226D01*
X1119633Y0252324D01*
X1121437Y0252324D01*
X1122338Y0253226D01*
X1125973Y0251422D02*
X1125973Y0258636D01*
X1135045Y0256832D02*
X1135946Y0257734D01*
X1137750Y0257734D01*
X1137750Y0255029D02*
X1136848Y0255029D01*
X1135130Y0210858D02*
X1136032Y0209956D01*
X1136032Y0208153D01*
X1135130Y0207251D01*
X1131523Y0207251D01*
X1130622Y0208153D01*
X1130622Y0209956D01*
X1131523Y0210858D01*
X1130622Y0205429D02*
X1130622Y0203626D01*
X1130622Y0204527D02*
X1136032Y0204527D01*
X1136032Y0203626D02*
X1136032Y0205429D01*
X1135045Y0205334D02*
X1138652Y0205334D01*
X1138652Y0204432D01*
X1135045Y0200826D01*
X1135045Y0199924D01*
X1136032Y0199090D02*
X1136032Y0200893D01*
X1135130Y0201795D01*
X1131523Y0201795D01*
X1130622Y0200893D01*
X1130622Y0199090D01*
X1131523Y0198188D01*
X1135130Y0198188D01*
X1136032Y0199090D01*
X1135130Y0196357D02*
X1136032Y0195455D01*
X1136032Y0193652D01*
X1135130Y0192750D01*
X1135130Y0190919D02*
X1136032Y0190018D01*
X1136032Y0188214D01*
X1135130Y0187313D01*
X1136032Y0185482D02*
X1136032Y0181875D01*
X1136032Y0183678D02*
X1130622Y0183678D01*
X1132425Y0181875D01*
X1131523Y0180044D02*
X1135130Y0176437D01*
X1136032Y0176437D01*
X1135130Y0174606D02*
X1136032Y0173704D01*
X1136032Y0171901D01*
X1135130Y0170999D01*
X1135130Y0169168D02*
X1136032Y0168267D01*
X1136032Y0166463D01*
X1135130Y0165562D01*
X1131523Y0165562D01*
X1130622Y0166463D01*
X1130622Y0168267D01*
X1131523Y0169168D01*
X1131523Y0170999D02*
X1132425Y0170999D01*
X1133327Y0171901D01*
X1133327Y0173704D01*
X1134228Y0174606D01*
X1135130Y0174606D01*
X1131523Y0174606D02*
X1130622Y0173704D01*
X1130622Y0171901D01*
X1131523Y0170999D01*
X1130622Y0176437D02*
X1130622Y0180044D01*
X1131523Y0180044D01*
X1131523Y0187313D02*
X1130622Y0188214D01*
X1130622Y0190018D01*
X1131523Y0190919D01*
X1132425Y0190919D01*
X1133327Y0190018D01*
X1134228Y0190919D01*
X1135130Y0190919D01*
X1133327Y0190018D02*
X1133327Y0189116D01*
X1132425Y0192750D02*
X1133327Y0193652D01*
X1133327Y0195455D01*
X1134228Y0196357D01*
X1135130Y0196357D01*
X1131523Y0196357D02*
X1130622Y0195455D01*
X1130622Y0193652D01*
X1131523Y0192750D01*
X1132425Y0192750D01*
X1132312Y0199924D02*
X1130509Y0199924D01*
X1129607Y0200826D01*
X1127776Y0200826D02*
X1126874Y0199924D01*
X1125071Y0199924D01*
X1124169Y0200826D01*
X1124169Y0204432D01*
X1125071Y0205334D01*
X1126874Y0205334D01*
X1127776Y0204432D01*
X1129607Y0204432D02*
X1129607Y0203531D01*
X1130509Y0202629D01*
X1132312Y0202629D01*
X1133214Y0201727D01*
X1133214Y0200826D01*
X1132312Y0199924D01*
X1133214Y0204432D02*
X1132312Y0205334D01*
X1130509Y0205334D01*
X1129607Y0204432D01*
X1122338Y0203531D02*
X1122338Y0199924D01*
X1122338Y0202629D02*
X1118732Y0202629D01*
X1118732Y0203531D02*
X1120535Y0205334D01*
X1122338Y0203531D01*
X1118732Y0203531D02*
X1118732Y0199924D01*
X1140482Y0199924D02*
X1144089Y0199924D01*
X1142286Y0199924D02*
X1142286Y0205334D01*
X1140482Y0203531D01*
X1145920Y0204432D02*
X1146822Y0205334D01*
X1148625Y0205334D01*
X1149527Y0204432D01*
X1149527Y0203531D01*
X1148625Y0202629D01*
X1149527Y0201727D01*
X1149527Y0200826D01*
X1148625Y0199924D01*
X1146822Y0199924D01*
X1145920Y0200826D01*
X1147724Y0202629D02*
X1148625Y0202629D01*
X1151358Y0203531D02*
X1152260Y0202629D01*
X1154063Y0202629D01*
X1154965Y0201727D01*
X1154965Y0200826D01*
X1154063Y0199924D01*
X1152260Y0199924D01*
X1151358Y0200826D01*
X1151358Y0203531D02*
X1151358Y0204432D01*
X1152260Y0205334D01*
X1154063Y0205334D01*
X1154965Y0204432D01*
X1156796Y0204432D02*
X1156796Y0200826D01*
X1157697Y0199924D01*
X1159501Y0199924D01*
X1160402Y0200826D01*
X1160402Y0204432D01*
X1159501Y0205334D01*
X1157697Y0205334D01*
X1156796Y0204432D01*
X1162233Y0205334D02*
X1164037Y0205334D01*
X1163135Y0205334D02*
X1163135Y0199924D01*
X1162233Y0199924D02*
X1164037Y0199924D01*
X1165858Y0200826D02*
X1165858Y0204432D01*
X1166760Y0205334D01*
X1168564Y0205334D01*
X1169465Y0204432D01*
X1169465Y0200826D02*
X1168564Y0199924D01*
X1166760Y0199924D01*
X1165858Y0200826D01*
X1164612Y0179034D02*
X1162809Y0179034D01*
X1161907Y0178132D01*
X1160076Y0178132D02*
X1159174Y0179034D01*
X1157371Y0179034D01*
X1156469Y0178132D01*
X1156469Y0177231D01*
X1157371Y0176329D01*
X1159174Y0176329D01*
X1160076Y0175427D01*
X1160076Y0174526D01*
X1159174Y0173624D01*
X1157371Y0173624D01*
X1156469Y0174526D01*
X1154638Y0174526D02*
X1154638Y0179034D01*
X1151032Y0179034D02*
X1151032Y0174526D01*
X1151933Y0173624D01*
X1153737Y0173624D01*
X1154638Y0174526D01*
X1158273Y0172722D02*
X1158273Y0179936D01*
X1164612Y0179034D02*
X1165514Y0178132D01*
X1165514Y0177231D01*
X1161907Y0173624D01*
X1165514Y0173624D01*
X1167345Y0174526D02*
X1168246Y0173624D01*
X1170050Y0173624D01*
X1170952Y0174526D01*
X1170952Y0178132D01*
X1170050Y0179034D01*
X1168246Y0179034D01*
X1167345Y0178132D01*
X1167345Y0177231D01*
X1168246Y0176329D01*
X1170952Y0176329D01*
X1136032Y0163731D02*
X1132425Y0163731D01*
X1130622Y0161927D01*
X1132425Y0160124D01*
X1136032Y0160124D01*
X1133327Y0160124D02*
X1133327Y0163731D01*
X0980843Y0352580D02*
X0963520Y0352580D01*
X0963520Y0390769D01*
X0980843Y0390769D01*
X0980843Y0352580D01*
X0965002Y0388013D02*
X0965004Y0388072D01*
X0965010Y0388130D01*
X0965020Y0388188D01*
X0965033Y0388245D01*
X0965051Y0388302D01*
X0965072Y0388357D01*
X0965097Y0388410D01*
X0965125Y0388461D01*
X0965156Y0388511D01*
X0965191Y0388558D01*
X0965229Y0388603D01*
X0965270Y0388646D01*
X0965314Y0388685D01*
X0965360Y0388721D01*
X0965408Y0388755D01*
X0965459Y0388785D01*
X0965512Y0388811D01*
X0965566Y0388834D01*
X0965621Y0388853D01*
X0965678Y0388869D01*
X0965736Y0388881D01*
X0965794Y0388889D01*
X0965853Y0388893D01*
X0965911Y0388893D01*
X0965970Y0388889D01*
X0966028Y0388881D01*
X0966086Y0388869D01*
X0966143Y0388853D01*
X0966198Y0388834D01*
X0966252Y0388811D01*
X0966305Y0388785D01*
X0966356Y0388755D01*
X0966404Y0388721D01*
X0966450Y0388685D01*
X0966494Y0388646D01*
X0966535Y0388603D01*
X0966573Y0388558D01*
X0966608Y0388511D01*
X0966639Y0388461D01*
X0966667Y0388410D01*
X0966692Y0388357D01*
X0966713Y0388302D01*
X0966731Y0388245D01*
X0966744Y0388188D01*
X0966754Y0388130D01*
X0966760Y0388072D01*
X0966762Y0388013D01*
X0966760Y0387954D01*
X0966754Y0387896D01*
X0966744Y0387838D01*
X0966731Y0387781D01*
X0966713Y0387724D01*
X0966692Y0387669D01*
X0966667Y0387616D01*
X0966639Y0387565D01*
X0966608Y0387515D01*
X0966573Y0387468D01*
X0966535Y0387423D01*
X0966494Y0387380D01*
X0966450Y0387341D01*
X0966404Y0387305D01*
X0966356Y0387271D01*
X0966305Y0387241D01*
X0966252Y0387215D01*
X0966198Y0387192D01*
X0966143Y0387173D01*
X0966086Y0387157D01*
X0966028Y0387145D01*
X0965970Y0387137D01*
X0965911Y0387133D01*
X0965853Y0387133D01*
X0965794Y0387137D01*
X0965736Y0387145D01*
X0965678Y0387157D01*
X0965621Y0387173D01*
X0965566Y0387192D01*
X0965512Y0387215D01*
X0965459Y0387241D01*
X0965408Y0387271D01*
X0965360Y0387305D01*
X0965314Y0387341D01*
X0965270Y0387380D01*
X0965229Y0387423D01*
X0965191Y0387468D01*
X0965156Y0387515D01*
X0965125Y0387565D01*
X0965097Y0387616D01*
X0965072Y0387669D01*
X0965051Y0387724D01*
X0965033Y0387781D01*
X0965020Y0387838D01*
X0965010Y0387896D01*
X0965004Y0387954D01*
X0965002Y0388013D01*
X0740682Y0443674D02*
X0740682Y0283674D01*
X0708682Y0283674D01*
X0708682Y0443674D01*
X0740682Y0443674D01*
X0704471Y0445671D02*
X0696597Y0445671D01*
X0696597Y0450592D01*
X0704471Y0450592D01*
X0704471Y0445671D01*
X0688682Y0424674D02*
X0428682Y0424674D01*
X0428682Y0224674D01*
X0688682Y0224674D01*
X0688682Y0424674D01*
X0685742Y0420324D02*
X0685742Y0416717D01*
X0685742Y0418521D02*
X0680332Y0418521D01*
X0680332Y0414886D02*
X0680332Y0413083D01*
X0680332Y0413985D02*
X0683938Y0413985D01*
X0683938Y0414886D01*
X0685742Y0413985D02*
X0686643Y0413985D01*
X0683938Y0411261D02*
X0680332Y0409458D01*
X0683938Y0407654D01*
X0683938Y0404922D02*
X0683938Y0403118D01*
X0683037Y0402217D01*
X0680332Y0402217D01*
X0680332Y0404922D01*
X0681233Y0405823D01*
X0682135Y0404922D01*
X0682135Y0402217D01*
X0680332Y0394948D02*
X0680332Y0392243D01*
X0681233Y0391341D01*
X0684840Y0391341D01*
X0685742Y0392243D01*
X0685742Y0394948D01*
X0680332Y0394948D01*
X0681233Y0389510D02*
X0683037Y0389510D01*
X0683938Y0388609D01*
X0683938Y0386805D01*
X0683037Y0385904D01*
X0682135Y0385904D01*
X0682135Y0389510D01*
X0681233Y0389510D02*
X0680332Y0388609D01*
X0680332Y0386805D01*
X0680332Y0384073D02*
X0680332Y0381368D01*
X0681233Y0380466D01*
X0683037Y0380466D01*
X0683938Y0381368D01*
X0683938Y0384073D01*
X0685742Y0384073D02*
X0680332Y0384073D01*
X0681233Y0378635D02*
X0680332Y0377733D01*
X0680332Y0375028D01*
X0683938Y0375028D01*
X0683037Y0373197D02*
X0681233Y0373197D01*
X0680332Y0372296D01*
X0680332Y0369590D01*
X0679430Y0369590D02*
X0683938Y0369590D01*
X0683938Y0372296D01*
X0683037Y0373197D01*
X0678528Y0371394D02*
X0678528Y0370492D01*
X0679430Y0369590D01*
X0681233Y0367759D02*
X0680332Y0366858D01*
X0680332Y0364153D01*
X0679430Y0364153D02*
X0683938Y0364153D01*
X0683938Y0366858D01*
X0683037Y0367759D01*
X0681233Y0367759D01*
X0678528Y0365956D02*
X0678528Y0365054D01*
X0679430Y0364153D01*
X0681233Y0362322D02*
X0683037Y0362322D01*
X0683938Y0361420D01*
X0683938Y0359617D01*
X0683037Y0358715D01*
X0682135Y0358715D01*
X0682135Y0362322D01*
X0681233Y0362322D02*
X0680332Y0361420D01*
X0680332Y0359617D01*
X0680332Y0356884D02*
X0683938Y0356884D01*
X0682135Y0356884D02*
X0683938Y0355081D01*
X0683938Y0354179D01*
X0683938Y0346915D02*
X0683037Y0346013D01*
X0683037Y0344210D01*
X0682135Y0343308D01*
X0681233Y0343308D01*
X0680332Y0344210D01*
X0680332Y0346013D01*
X0681233Y0346915D01*
X0683938Y0346915D02*
X0684840Y0346915D01*
X0685742Y0346013D01*
X0685742Y0344210D01*
X0684840Y0343308D01*
X0683938Y0341477D02*
X0683938Y0340576D01*
X0680332Y0340576D01*
X0680332Y0341477D02*
X0680332Y0339674D01*
X0681233Y0337852D02*
X0683037Y0337852D01*
X0683938Y0336950D01*
X0683938Y0334245D01*
X0685742Y0334245D02*
X0680332Y0334245D01*
X0680332Y0336950D01*
X0681233Y0337852D01*
X0685742Y0340576D02*
X0686643Y0340576D01*
X0683037Y0332414D02*
X0681233Y0332414D01*
X0680332Y0331513D01*
X0680332Y0329709D01*
X0682135Y0328808D02*
X0682135Y0332414D01*
X0683037Y0332414D02*
X0683938Y0331513D01*
X0683938Y0329709D01*
X0683037Y0328808D01*
X0682135Y0328808D01*
X0628879Y0336926D02*
X0621989Y0336926D01*
X0621989Y0348737D01*
X0628879Y0348737D01*
X0628879Y0336926D01*
X0610170Y0337749D02*
X0590879Y0337749D01*
X0590879Y0353103D01*
X0610170Y0353103D01*
X0610170Y0337749D01*
X0593082Y0341292D02*
X0593084Y0341370D01*
X0593090Y0341447D01*
X0593100Y0341525D01*
X0593113Y0341601D01*
X0593131Y0341677D01*
X0593152Y0341752D01*
X0593178Y0341826D01*
X0593207Y0341898D01*
X0593239Y0341969D01*
X0593275Y0342038D01*
X0593315Y0342105D01*
X0593357Y0342170D01*
X0593404Y0342233D01*
X0593453Y0342293D01*
X0593505Y0342351D01*
X0593560Y0342406D01*
X0593618Y0342458D01*
X0593678Y0342507D01*
X0593741Y0342554D01*
X0593806Y0342596D01*
X0593873Y0342636D01*
X0593942Y0342672D01*
X0594013Y0342704D01*
X0594085Y0342733D01*
X0594159Y0342759D01*
X0594234Y0342780D01*
X0594310Y0342798D01*
X0594386Y0342811D01*
X0594464Y0342821D01*
X0594541Y0342827D01*
X0594619Y0342829D01*
X0594697Y0342827D01*
X0594774Y0342821D01*
X0594852Y0342811D01*
X0594928Y0342798D01*
X0595004Y0342780D01*
X0595079Y0342759D01*
X0595153Y0342733D01*
X0595225Y0342704D01*
X0595296Y0342672D01*
X0595365Y0342636D01*
X0595432Y0342596D01*
X0595497Y0342554D01*
X0595560Y0342507D01*
X0595620Y0342458D01*
X0595678Y0342406D01*
X0595733Y0342351D01*
X0595785Y0342293D01*
X0595834Y0342233D01*
X0595881Y0342170D01*
X0595923Y0342105D01*
X0595963Y0342038D01*
X0595999Y0341969D01*
X0596031Y0341898D01*
X0596060Y0341826D01*
X0596086Y0341752D01*
X0596107Y0341677D01*
X0596125Y0341601D01*
X0596138Y0341525D01*
X0596148Y0341447D01*
X0596154Y0341370D01*
X0596156Y0341292D01*
X0596154Y0341214D01*
X0596148Y0341137D01*
X0596138Y0341059D01*
X0596125Y0340983D01*
X0596107Y0340907D01*
X0596086Y0340832D01*
X0596060Y0340758D01*
X0596031Y0340686D01*
X0595999Y0340615D01*
X0595963Y0340546D01*
X0595923Y0340479D01*
X0595881Y0340414D01*
X0595834Y0340351D01*
X0595785Y0340291D01*
X0595733Y0340233D01*
X0595678Y0340178D01*
X0595620Y0340126D01*
X0595560Y0340077D01*
X0595497Y0340030D01*
X0595432Y0339988D01*
X0595365Y0339948D01*
X0595296Y0339912D01*
X0595225Y0339880D01*
X0595153Y0339851D01*
X0595079Y0339825D01*
X0595004Y0339804D01*
X0594928Y0339786D01*
X0594852Y0339773D01*
X0594774Y0339763D01*
X0594697Y0339757D01*
X0594619Y0339755D01*
X0594541Y0339757D01*
X0594464Y0339763D01*
X0594386Y0339773D01*
X0594310Y0339786D01*
X0594234Y0339804D01*
X0594159Y0339825D01*
X0594085Y0339851D01*
X0594013Y0339880D01*
X0593942Y0339912D01*
X0593873Y0339948D01*
X0593806Y0339988D01*
X0593741Y0340030D01*
X0593678Y0340077D01*
X0593618Y0340126D01*
X0593560Y0340178D01*
X0593505Y0340233D01*
X0593453Y0340291D01*
X0593404Y0340351D01*
X0593357Y0340414D01*
X0593315Y0340479D01*
X0593275Y0340546D01*
X0593239Y0340615D01*
X0593207Y0340686D01*
X0593178Y0340758D01*
X0593152Y0340832D01*
X0593131Y0340907D01*
X0593113Y0340983D01*
X0593100Y0341059D01*
X0593090Y0341137D01*
X0593084Y0341214D01*
X0593082Y0341292D01*
X0597638Y0375119D02*
X0585434Y0375119D01*
X0585434Y0387324D01*
X0597638Y0387324D01*
X0597638Y0375119D01*
X0587057Y0377383D02*
X0587059Y0377433D01*
X0587065Y0377483D01*
X0587075Y0377532D01*
X0587088Y0377581D01*
X0587106Y0377628D01*
X0587127Y0377674D01*
X0587151Y0377717D01*
X0587179Y0377759D01*
X0587210Y0377799D01*
X0587244Y0377836D01*
X0587281Y0377870D01*
X0587321Y0377901D01*
X0587363Y0377929D01*
X0587406Y0377953D01*
X0587452Y0377974D01*
X0587499Y0377992D01*
X0587548Y0378005D01*
X0587597Y0378015D01*
X0587647Y0378021D01*
X0587697Y0378023D01*
X0587747Y0378021D01*
X0587797Y0378015D01*
X0587846Y0378005D01*
X0587895Y0377992D01*
X0587942Y0377974D01*
X0587988Y0377953D01*
X0588031Y0377929D01*
X0588073Y0377901D01*
X0588113Y0377870D01*
X0588150Y0377836D01*
X0588184Y0377799D01*
X0588215Y0377759D01*
X0588243Y0377717D01*
X0588267Y0377674D01*
X0588288Y0377628D01*
X0588306Y0377581D01*
X0588319Y0377532D01*
X0588329Y0377483D01*
X0588335Y0377433D01*
X0588337Y0377383D01*
X0588335Y0377333D01*
X0588329Y0377283D01*
X0588319Y0377234D01*
X0588306Y0377185D01*
X0588288Y0377138D01*
X0588267Y0377092D01*
X0588243Y0377049D01*
X0588215Y0377007D01*
X0588184Y0376967D01*
X0588150Y0376930D01*
X0588113Y0376896D01*
X0588073Y0376865D01*
X0588031Y0376837D01*
X0587988Y0376813D01*
X0587942Y0376792D01*
X0587895Y0376774D01*
X0587846Y0376761D01*
X0587797Y0376751D01*
X0587747Y0376745D01*
X0587697Y0376743D01*
X0587647Y0376745D01*
X0587597Y0376751D01*
X0587548Y0376761D01*
X0587499Y0376774D01*
X0587452Y0376792D01*
X0587406Y0376813D01*
X0587363Y0376837D01*
X0587321Y0376865D01*
X0587281Y0376896D01*
X0587244Y0376930D01*
X0587210Y0376967D01*
X0587179Y0377007D01*
X0587151Y0377049D01*
X0587127Y0377092D01*
X0587106Y0377138D01*
X0587088Y0377185D01*
X0587075Y0377234D01*
X0587065Y0377283D01*
X0587059Y0377333D01*
X0587057Y0377383D01*
X0681233Y0378635D02*
X0683938Y0378635D01*
X0660674Y0431123D02*
X0653390Y0431123D01*
X0653390Y0442540D01*
X0660674Y0442540D01*
X0660674Y0431123D01*
X0593130Y0429048D02*
X0593130Y0433969D01*
X0585256Y0433969D01*
X0585256Y0429048D01*
X0593130Y0429048D01*
X0539587Y0431162D02*
X0527776Y0431162D01*
X0527776Y0442186D01*
X0539587Y0442186D01*
X0539587Y0431162D01*
X0507839Y0473745D02*
X0502524Y0473745D01*
X0502524Y0482603D01*
X0507839Y0482603D01*
X0507839Y0473745D01*
X0516138Y0477965D02*
X0516138Y0489383D01*
X0523422Y0489383D01*
X0523422Y0477965D01*
X0516138Y0477965D01*
X0484871Y0495820D02*
X0458493Y0495820D01*
X0458493Y0526528D01*
X0484871Y0526528D01*
X0484871Y0495820D01*
X0487190Y0498501D02*
X0487190Y0526847D01*
X0513174Y0526847D01*
X0513174Y0498501D01*
X0487190Y0498501D01*
X0460182Y0494174D02*
X0460182Y0464174D01*
X0440182Y0464174D01*
X0440182Y0494174D01*
X0460182Y0494174D01*
X0525536Y0506497D02*
X0525536Y0521851D01*
X0544827Y0521851D01*
X0544827Y0506497D01*
X0525536Y0506497D01*
X0527739Y0510040D02*
X0527741Y0510118D01*
X0527747Y0510195D01*
X0527757Y0510273D01*
X0527770Y0510349D01*
X0527788Y0510425D01*
X0527809Y0510500D01*
X0527835Y0510574D01*
X0527864Y0510646D01*
X0527896Y0510717D01*
X0527932Y0510786D01*
X0527972Y0510853D01*
X0528014Y0510918D01*
X0528061Y0510981D01*
X0528110Y0511041D01*
X0528162Y0511099D01*
X0528217Y0511154D01*
X0528275Y0511206D01*
X0528335Y0511255D01*
X0528398Y0511302D01*
X0528463Y0511344D01*
X0528530Y0511384D01*
X0528599Y0511420D01*
X0528670Y0511452D01*
X0528742Y0511481D01*
X0528816Y0511507D01*
X0528891Y0511528D01*
X0528967Y0511546D01*
X0529043Y0511559D01*
X0529121Y0511569D01*
X0529198Y0511575D01*
X0529276Y0511577D01*
X0529354Y0511575D01*
X0529431Y0511569D01*
X0529509Y0511559D01*
X0529585Y0511546D01*
X0529661Y0511528D01*
X0529736Y0511507D01*
X0529810Y0511481D01*
X0529882Y0511452D01*
X0529953Y0511420D01*
X0530022Y0511384D01*
X0530089Y0511344D01*
X0530154Y0511302D01*
X0530217Y0511255D01*
X0530277Y0511206D01*
X0530335Y0511154D01*
X0530390Y0511099D01*
X0530442Y0511041D01*
X0530491Y0510981D01*
X0530538Y0510918D01*
X0530580Y0510853D01*
X0530620Y0510786D01*
X0530656Y0510717D01*
X0530688Y0510646D01*
X0530717Y0510574D01*
X0530743Y0510500D01*
X0530764Y0510425D01*
X0530782Y0510349D01*
X0530795Y0510273D01*
X0530805Y0510195D01*
X0530811Y0510118D01*
X0530813Y0510040D01*
X0530811Y0509962D01*
X0530805Y0509885D01*
X0530795Y0509807D01*
X0530782Y0509731D01*
X0530764Y0509655D01*
X0530743Y0509580D01*
X0530717Y0509506D01*
X0530688Y0509434D01*
X0530656Y0509363D01*
X0530620Y0509294D01*
X0530580Y0509227D01*
X0530538Y0509162D01*
X0530491Y0509099D01*
X0530442Y0509039D01*
X0530390Y0508981D01*
X0530335Y0508926D01*
X0530277Y0508874D01*
X0530217Y0508825D01*
X0530154Y0508778D01*
X0530089Y0508736D01*
X0530022Y0508696D01*
X0529953Y0508660D01*
X0529882Y0508628D01*
X0529810Y0508599D01*
X0529736Y0508573D01*
X0529661Y0508552D01*
X0529585Y0508534D01*
X0529509Y0508521D01*
X0529431Y0508511D01*
X0529354Y0508505D01*
X0529276Y0508503D01*
X0529198Y0508505D01*
X0529121Y0508511D01*
X0529043Y0508521D01*
X0528967Y0508534D01*
X0528891Y0508552D01*
X0528816Y0508573D01*
X0528742Y0508599D01*
X0528670Y0508628D01*
X0528599Y0508660D01*
X0528530Y0508696D01*
X0528463Y0508736D01*
X0528398Y0508778D01*
X0528335Y0508825D01*
X0528275Y0508874D01*
X0528217Y0508926D01*
X0528162Y0508981D01*
X0528110Y0509039D01*
X0528061Y0509099D01*
X0528014Y0509162D01*
X0527972Y0509227D01*
X0527932Y0509294D01*
X0527896Y0509363D01*
X0527864Y0509434D01*
X0527835Y0509506D01*
X0527809Y0509580D01*
X0527788Y0509655D01*
X0527770Y0509731D01*
X0527757Y0509807D01*
X0527747Y0509885D01*
X0527741Y0509962D01*
X0527739Y0510040D01*
X0549682Y0491674D02*
X0569682Y0491674D01*
X0569682Y0541674D01*
X0549682Y0541674D01*
X0549682Y0491674D01*
X0571020Y0517383D02*
X0571020Y0520532D01*
X0573382Y0520532D01*
X0573382Y0517383D01*
X0571020Y0517383D01*
X0539284Y0544072D02*
X0527079Y0544072D01*
X0527079Y0556276D01*
X0539284Y0556276D01*
X0539284Y0544072D01*
X0528703Y0554013D02*
X0528705Y0554063D01*
X0528711Y0554113D01*
X0528721Y0554162D01*
X0528734Y0554211D01*
X0528752Y0554258D01*
X0528773Y0554304D01*
X0528797Y0554347D01*
X0528825Y0554389D01*
X0528856Y0554429D01*
X0528890Y0554466D01*
X0528927Y0554500D01*
X0528967Y0554531D01*
X0529009Y0554559D01*
X0529052Y0554583D01*
X0529098Y0554604D01*
X0529145Y0554622D01*
X0529194Y0554635D01*
X0529243Y0554645D01*
X0529293Y0554651D01*
X0529343Y0554653D01*
X0529393Y0554651D01*
X0529443Y0554645D01*
X0529492Y0554635D01*
X0529541Y0554622D01*
X0529588Y0554604D01*
X0529634Y0554583D01*
X0529677Y0554559D01*
X0529719Y0554531D01*
X0529759Y0554500D01*
X0529796Y0554466D01*
X0529830Y0554429D01*
X0529861Y0554389D01*
X0529889Y0554347D01*
X0529913Y0554304D01*
X0529934Y0554258D01*
X0529952Y0554211D01*
X0529965Y0554162D01*
X0529975Y0554113D01*
X0529981Y0554063D01*
X0529983Y0554013D01*
X0529981Y0553963D01*
X0529975Y0553913D01*
X0529965Y0553864D01*
X0529952Y0553815D01*
X0529934Y0553768D01*
X0529913Y0553722D01*
X0529889Y0553679D01*
X0529861Y0553637D01*
X0529830Y0553597D01*
X0529796Y0553560D01*
X0529759Y0553526D01*
X0529719Y0553495D01*
X0529677Y0553467D01*
X0529634Y0553443D01*
X0529588Y0553422D01*
X0529541Y0553404D01*
X0529492Y0553391D01*
X0529443Y0553381D01*
X0529393Y0553375D01*
X0529343Y0553373D01*
X0529293Y0553375D01*
X0529243Y0553381D01*
X0529194Y0553391D01*
X0529145Y0553404D01*
X0529098Y0553422D01*
X0529052Y0553443D01*
X0529009Y0553467D01*
X0528967Y0553495D01*
X0528927Y0553526D01*
X0528890Y0553560D01*
X0528856Y0553597D01*
X0528825Y0553637D01*
X0528797Y0553679D01*
X0528773Y0553722D01*
X0528752Y0553768D01*
X0528734Y0553815D01*
X0528721Y0553864D01*
X0528711Y0553913D01*
X0528705Y0553963D01*
X0528703Y0554013D01*
X0518627Y0556769D02*
X0511737Y0556769D01*
X0511737Y0568580D01*
X0518627Y0568580D01*
X0518627Y0556769D01*
X0503087Y0548048D02*
X0503087Y0532300D01*
X0491276Y0532300D01*
X0491276Y0548048D01*
X0503087Y0548048D01*
X0552245Y0553713D02*
X0552245Y0558635D01*
X0560119Y0558635D01*
X0560119Y0553713D01*
X0552245Y0553713D01*
X0551273Y0599322D02*
X0551273Y0606536D01*
X0552174Y0605634D02*
X0553076Y0604732D01*
X0552174Y0605634D02*
X0550371Y0605634D01*
X0549469Y0604732D01*
X0549469Y0603831D01*
X0550371Y0602929D01*
X0552174Y0602929D01*
X0553076Y0602027D01*
X0553076Y0601126D01*
X0552174Y0600224D01*
X0550371Y0600224D01*
X0549469Y0601126D01*
X0547638Y0601126D02*
X0547638Y0605634D01*
X0544032Y0605634D02*
X0544032Y0601126D01*
X0544933Y0600224D01*
X0546737Y0600224D01*
X0547638Y0601126D01*
X0554907Y0601126D02*
X0555809Y0600224D01*
X0557612Y0600224D01*
X0558514Y0601126D01*
X0558514Y0602027D01*
X0557612Y0602929D01*
X0556710Y0602929D01*
X0557612Y0602929D02*
X0558514Y0603831D01*
X0558514Y0604732D01*
X0557612Y0605634D01*
X0555809Y0605634D01*
X0554907Y0604732D01*
X0560345Y0605634D02*
X0560345Y0602929D01*
X0562148Y0603831D01*
X0563050Y0603831D01*
X0563952Y0602929D01*
X0563952Y0601126D01*
X0563050Y0600224D01*
X0561246Y0600224D01*
X0560345Y0601126D01*
X0560345Y0605634D02*
X0563952Y0605634D01*
X0563797Y0617424D02*
X0565601Y0617424D01*
X0566502Y0618326D01*
X0566502Y0621932D01*
X0565601Y0622834D01*
X0563797Y0622834D01*
X0562896Y0621932D01*
X0562896Y0618326D01*
X0563797Y0617424D01*
X0561065Y0618326D02*
X0560163Y0617424D01*
X0558360Y0617424D01*
X0557458Y0618326D01*
X0555627Y0618326D02*
X0554725Y0617424D01*
X0552922Y0617424D01*
X0552020Y0618326D01*
X0550189Y0617424D02*
X0546582Y0617424D01*
X0548386Y0617424D02*
X0548386Y0622834D01*
X0546582Y0621031D01*
X0544752Y0621932D02*
X0541145Y0618326D01*
X0541145Y0617424D01*
X0539314Y0618326D02*
X0538412Y0617424D01*
X0536609Y0617424D01*
X0535707Y0618326D01*
X0533876Y0618326D02*
X0532974Y0617424D01*
X0531171Y0617424D01*
X0530269Y0618326D01*
X0530269Y0621932D01*
X0531171Y0622834D01*
X0532974Y0622834D01*
X0533876Y0621932D01*
X0535707Y0621932D02*
X0535707Y0621031D01*
X0536609Y0620129D01*
X0538412Y0620129D01*
X0539314Y0619227D01*
X0539314Y0618326D01*
X0539314Y0621932D02*
X0538412Y0622834D01*
X0536609Y0622834D01*
X0535707Y0621932D01*
X0535387Y0626576D02*
X0535387Y0627478D01*
X0538994Y0631084D01*
X0538994Y0631986D01*
X0535387Y0631986D01*
X0533556Y0631084D02*
X0532655Y0631986D01*
X0530851Y0631986D01*
X0529950Y0631084D01*
X0529950Y0630183D01*
X0530851Y0629281D01*
X0532655Y0629281D01*
X0533556Y0628379D01*
X0533556Y0627478D01*
X0532655Y0626576D01*
X0530851Y0626576D01*
X0529950Y0627478D01*
X0528119Y0627478D02*
X0527217Y0626576D01*
X0525414Y0626576D01*
X0524512Y0627478D01*
X0524512Y0631084D01*
X0525414Y0631986D01*
X0527217Y0631986D01*
X0528119Y0631084D01*
X0522681Y0630183D02*
X0522681Y0626576D01*
X0522681Y0629281D02*
X0519074Y0629281D01*
X0519074Y0630183D02*
X0520878Y0631986D01*
X0522681Y0630183D01*
X0519074Y0630183D02*
X0519074Y0626576D01*
X0524832Y0621031D02*
X0526635Y0622834D01*
X0528438Y0621031D01*
X0528438Y0617424D01*
X0528438Y0620129D02*
X0524832Y0620129D01*
X0524832Y0621031D02*
X0524832Y0617424D01*
X0541145Y0622834D02*
X0544752Y0622834D01*
X0544752Y0621932D01*
X0544432Y0626576D02*
X0540825Y0626576D01*
X0542628Y0626576D02*
X0542628Y0631986D01*
X0540825Y0630183D01*
X0546263Y0631084D02*
X0547164Y0631986D01*
X0548968Y0631986D01*
X0549869Y0631084D01*
X0549869Y0630183D01*
X0548968Y0629281D01*
X0549869Y0628379D01*
X0549869Y0627478D01*
X0548968Y0626576D01*
X0547164Y0626576D01*
X0546263Y0627478D01*
X0548066Y0629281D02*
X0548968Y0629281D01*
X0551700Y0630183D02*
X0552602Y0629281D01*
X0554405Y0629281D01*
X0555307Y0628379D01*
X0555307Y0627478D01*
X0554405Y0626576D01*
X0552602Y0626576D01*
X0551700Y0627478D01*
X0551700Y0630183D02*
X0551700Y0631084D01*
X0552602Y0631986D01*
X0554405Y0631986D01*
X0555307Y0631084D01*
X0557138Y0631084D02*
X0557138Y0627478D01*
X0558040Y0626576D01*
X0559843Y0626576D01*
X0560745Y0627478D01*
X0560745Y0631084D01*
X0559843Y0631986D01*
X0558040Y0631986D01*
X0557138Y0631084D01*
X0562576Y0631986D02*
X0564379Y0631986D01*
X0563478Y0631986D02*
X0563478Y0626576D01*
X0564379Y0626576D02*
X0562576Y0626576D01*
X0566201Y0627478D02*
X0567103Y0626576D01*
X0568906Y0626576D01*
X0569808Y0627478D01*
X0569808Y0631084D02*
X0568906Y0631986D01*
X0567103Y0631986D01*
X0566201Y0631084D01*
X0566201Y0627478D01*
X0568333Y0622834D02*
X0570137Y0622834D01*
X0569235Y0622834D02*
X0569235Y0617424D01*
X0568333Y0617424D02*
X0570137Y0617424D01*
X0571958Y0618326D02*
X0571958Y0621932D01*
X0572860Y0622834D01*
X0574664Y0622834D01*
X0575565Y0621932D01*
X0575565Y0618326D02*
X0574664Y0617424D01*
X0572860Y0617424D01*
X0571958Y0618326D01*
X0561065Y0618326D02*
X0561065Y0619227D01*
X0560163Y0620129D01*
X0558360Y0620129D01*
X0557458Y0621031D01*
X0557458Y0621932D01*
X0558360Y0622834D01*
X0560163Y0622834D01*
X0561065Y0621932D01*
X0555627Y0621932D02*
X0555627Y0621031D01*
X0554725Y0620129D01*
X0555627Y0619227D01*
X0555627Y0618326D01*
X0554725Y0620129D02*
X0553824Y0620129D01*
X0555627Y0621932D02*
X0554725Y0622834D01*
X0552922Y0622834D01*
X0552020Y0621932D01*
X0490694Y0644478D02*
X0490694Y0648084D01*
X0489792Y0648986D01*
X0487989Y0648986D01*
X0487087Y0648084D01*
X0487087Y0647183D01*
X0487989Y0646281D01*
X0490694Y0646281D01*
X0490694Y0644478D02*
X0489792Y0643576D01*
X0487989Y0643576D01*
X0487087Y0644478D01*
X0485256Y0643576D02*
X0481650Y0643576D01*
X0483453Y0643576D02*
X0483453Y0648986D01*
X0481650Y0647183D01*
X0479819Y0648084D02*
X0478917Y0648986D01*
X0477114Y0648986D01*
X0476212Y0648084D01*
X0476212Y0647183D01*
X0477114Y0646281D01*
X0478917Y0646281D01*
X0479819Y0645379D01*
X0479819Y0644478D01*
X0478917Y0643576D01*
X0477114Y0643576D01*
X0476212Y0644478D01*
X0474381Y0644478D02*
X0474381Y0648986D01*
X0470774Y0648986D02*
X0470774Y0644478D01*
X0471676Y0643576D01*
X0473479Y0643576D01*
X0474381Y0644478D01*
X0478015Y0642674D02*
X0478015Y0649888D01*
X0395272Y0573355D02*
X0344091Y0573355D01*
X0344091Y0522174D01*
X0395272Y0522174D01*
X0395272Y0573355D01*
X0327477Y0523060D02*
X0301886Y0523060D01*
X0301886Y0483690D01*
X0327477Y0483690D01*
X0327477Y0523060D01*
X0294890Y0524414D02*
X0294890Y0517131D01*
X0283473Y0517131D01*
X0283473Y0524414D01*
X0294890Y0524414D01*
X0352221Y0492611D02*
X0357142Y0492611D01*
X0357142Y0484737D01*
X0352221Y0484737D01*
X0352221Y0492611D01*
X0415922Y0409162D02*
X0258441Y0409162D01*
X0258441Y0267430D01*
X0415922Y0267430D01*
X0415922Y0409162D01*
X0398433Y0388777D02*
X0398433Y0369092D01*
X0363000Y0369092D01*
X0363000Y0388777D01*
X0398433Y0388777D01*
X0418319Y0365824D02*
X0425603Y0365824D01*
X0425603Y0354406D01*
X0418319Y0354406D01*
X0418319Y0365824D01*
X0398433Y0348667D02*
X0398433Y0328982D01*
X0363000Y0328982D01*
X0363000Y0348667D01*
X0398433Y0348667D01*
X0398433Y0324672D02*
X0363000Y0324672D01*
X0363000Y0304987D01*
X0398433Y0304987D01*
X0398433Y0324672D01*
X0398436Y0300319D02*
X0363003Y0300319D01*
X0363003Y0280634D01*
X0398436Y0280634D01*
X0398436Y0300319D01*
X0354735Y0300319D02*
X0354735Y0280634D01*
X0319302Y0280634D01*
X0319302Y0300319D01*
X0354735Y0300319D01*
X0354735Y0304987D02*
X0354735Y0324672D01*
X0319302Y0324672D01*
X0319302Y0304987D01*
X0354735Y0304987D01*
X0311037Y0304987D02*
X0311037Y0324672D01*
X0275604Y0324672D01*
X0275604Y0304987D01*
X0311037Y0304987D01*
X0311040Y0300319D02*
X0311040Y0280634D01*
X0275607Y0280634D01*
X0275607Y0300319D01*
X0311040Y0300319D01*
X0311395Y0329698D02*
X0275962Y0329698D01*
X0275962Y0349383D01*
X0311395Y0349383D01*
X0311395Y0329698D01*
X0311037Y0369092D02*
X0275604Y0369092D01*
X0275604Y0388777D01*
X0311037Y0388777D01*
X0311037Y0369092D01*
X0227972Y0346624D02*
X0227972Y0340324D01*
X0216791Y0340324D02*
X0216791Y0346624D01*
X0221372Y0375324D02*
X0221372Y0381624D01*
X0210191Y0381624D02*
X0210191Y0375324D01*
X0204972Y0287824D02*
X0204972Y0281524D01*
X0193791Y0281524D02*
X0193791Y0287824D01*
X0375552Y0252359D02*
X0375552Y0244485D01*
X0380473Y0244485D01*
X0380473Y0252359D01*
X0375552Y0252359D01*
X0485157Y0278149D02*
X0485159Y0278173D01*
X0485165Y0278197D01*
X0485174Y0278219D01*
X0485187Y0278239D01*
X0485203Y0278257D01*
X0485222Y0278272D01*
X0485243Y0278285D01*
X0485265Y0278293D01*
X0485289Y0278298D01*
X0485313Y0278299D01*
X0485337Y0278296D01*
X0485360Y0278289D01*
X0485382Y0278279D01*
X0485402Y0278265D01*
X0485419Y0278248D01*
X0485434Y0278229D01*
X0485445Y0278208D01*
X0485453Y0278185D01*
X0485457Y0278161D01*
X0485457Y0278137D01*
X0485453Y0278113D01*
X0485445Y0278090D01*
X0485434Y0278069D01*
X0485419Y0278050D01*
X0485402Y0278033D01*
X0485382Y0278019D01*
X0485360Y0278009D01*
X0485337Y0278002D01*
X0485313Y0277999D01*
X0485289Y0278000D01*
X0485265Y0278005D01*
X0485243Y0278013D01*
X0485222Y0278026D01*
X0485203Y0278041D01*
X0485187Y0278059D01*
X0485174Y0278079D01*
X0485165Y0278101D01*
X0485159Y0278125D01*
X0485157Y0278149D01*
X0484994Y0278149D02*
X0484996Y0278184D01*
X0485002Y0278219D01*
X0485012Y0278252D01*
X0485025Y0278285D01*
X0485042Y0278316D01*
X0485062Y0278344D01*
X0485086Y0278370D01*
X0485112Y0278394D01*
X0485140Y0278414D01*
X0485171Y0278431D01*
X0485204Y0278444D01*
X0485237Y0278454D01*
X0485272Y0278460D01*
X0485307Y0278462D01*
X0485342Y0278460D01*
X0485377Y0278454D01*
X0485410Y0278444D01*
X0485443Y0278431D01*
X0485474Y0278414D01*
X0485502Y0278394D01*
X0485528Y0278370D01*
X0485552Y0278344D01*
X0485572Y0278316D01*
X0485589Y0278285D01*
X0485602Y0278252D01*
X0485612Y0278219D01*
X0485618Y0278184D01*
X0485620Y0278149D01*
X0485618Y0278114D01*
X0485612Y0278079D01*
X0485602Y0278046D01*
X0485589Y0278013D01*
X0485572Y0277982D01*
X0485552Y0277954D01*
X0485528Y0277928D01*
X0485502Y0277904D01*
X0485474Y0277884D01*
X0485443Y0277867D01*
X0485410Y0277854D01*
X0485377Y0277844D01*
X0485342Y0277838D01*
X0485307Y0277836D01*
X0485272Y0277838D01*
X0485237Y0277844D01*
X0485204Y0277854D01*
X0485171Y0277867D01*
X0485140Y0277884D01*
X0485112Y0277904D01*
X0485086Y0277928D01*
X0485062Y0277954D01*
X0485042Y0277982D01*
X0485025Y0278013D01*
X0485012Y0278046D01*
X0485002Y0278079D01*
X0484996Y0278114D01*
X0484994Y0278149D01*
X0484682Y0278149D02*
X0484684Y0278199D01*
X0484690Y0278248D01*
X0484700Y0278297D01*
X0484713Y0278344D01*
X0484731Y0278391D01*
X0484752Y0278436D01*
X0484776Y0278479D01*
X0484804Y0278520D01*
X0484835Y0278559D01*
X0484869Y0278595D01*
X0484906Y0278629D01*
X0484946Y0278659D01*
X0484987Y0278686D01*
X0485031Y0278710D01*
X0485076Y0278730D01*
X0485123Y0278746D01*
X0485171Y0278759D01*
X0485220Y0278768D01*
X0485270Y0278773D01*
X0485319Y0278774D01*
X0485369Y0278771D01*
X0485418Y0278764D01*
X0485467Y0278753D01*
X0485514Y0278739D01*
X0485560Y0278720D01*
X0485605Y0278698D01*
X0485648Y0278673D01*
X0485688Y0278644D01*
X0485726Y0278612D01*
X0485762Y0278578D01*
X0485795Y0278540D01*
X0485824Y0278500D01*
X0485850Y0278458D01*
X0485873Y0278414D01*
X0485892Y0278368D01*
X0485908Y0278321D01*
X0485920Y0278272D01*
X0485928Y0278223D01*
X0485932Y0278174D01*
X0485932Y0278124D01*
X0485928Y0278075D01*
X0485920Y0278026D01*
X0485908Y0277977D01*
X0485892Y0277930D01*
X0485873Y0277884D01*
X0485850Y0277840D01*
X0485824Y0277798D01*
X0485795Y0277758D01*
X0485762Y0277720D01*
X0485726Y0277686D01*
X0485688Y0277654D01*
X0485648Y0277625D01*
X0485605Y0277600D01*
X0485560Y0277578D01*
X0485514Y0277559D01*
X0485467Y0277545D01*
X0485418Y0277534D01*
X0485369Y0277527D01*
X0485319Y0277524D01*
X0485270Y0277525D01*
X0485220Y0277530D01*
X0485171Y0277539D01*
X0485123Y0277552D01*
X0485076Y0277568D01*
X0485031Y0277588D01*
X0484987Y0277612D01*
X0484946Y0277639D01*
X0484906Y0277669D01*
X0484869Y0277703D01*
X0484835Y0277739D01*
X0484804Y0277778D01*
X0484776Y0277819D01*
X0484752Y0277862D01*
X0484731Y0277907D01*
X0484713Y0277954D01*
X0484700Y0278001D01*
X0484690Y0278050D01*
X0484684Y0278099D01*
X0484682Y0278149D01*
X0625586Y0481565D02*
X0675586Y0481565D01*
X0675586Y0501565D01*
X0625586Y0501565D01*
X0625586Y0481565D01*
X0641611Y0519217D02*
X0641611Y0521580D01*
X0644760Y0521580D01*
X0644760Y0519217D01*
X0641611Y0519217D01*
X0650831Y0523674D02*
X0650831Y0526036D01*
X0653981Y0526036D01*
X0653981Y0523674D01*
X0650831Y0523674D01*
X0657941Y0521280D02*
X0657941Y0518918D01*
X0661091Y0518918D01*
X0661091Y0521280D01*
X0657941Y0521280D01*
X0664182Y0528674D02*
X0664182Y0548674D01*
X0634182Y0548674D01*
X0634182Y0528674D01*
X0664182Y0528674D01*
D11*
X0204182Y0101174D02*
X0201682Y0103674D01*
X0201682Y0108674D01*
X0204182Y0111174D01*
X0209182Y0111174D01*
X0211682Y0108674D01*
X0214182Y0111174D01*
X0219182Y0111174D01*
X0221682Y0108674D01*
X0221682Y0103674D01*
X0219182Y0101174D01*
X0214182Y0101174D01*
X0211682Y0103674D01*
X0209182Y0101174D01*
X0204182Y0101174D01*
X0211682Y0103674D02*
X0211682Y0108674D01*
X0247682Y0108674D02*
X0250182Y0111174D01*
X0255182Y0111174D01*
X0257682Y0108674D01*
X0260182Y0111174D01*
X0265182Y0111174D01*
X0267682Y0108674D01*
X0267682Y0103674D01*
X0265182Y0101174D01*
X0260182Y0101174D01*
X0257682Y0103674D01*
X0255182Y0101174D01*
X0250182Y0101174D01*
X0247682Y0103674D01*
X0247682Y0108674D01*
X0257682Y0108674D02*
X0257682Y0103674D01*
X0211682Y0195674D02*
X0206682Y0195674D01*
X0204182Y0198174D01*
X0201682Y0195674D01*
X0196682Y0195674D01*
X0194182Y0198174D01*
X0194182Y0203174D01*
X0196682Y0205674D01*
X0201682Y0205674D01*
X0204182Y0203174D01*
X0206682Y0205674D01*
X0211682Y0205674D01*
X0214182Y0203174D01*
X0214182Y0198174D01*
X0211682Y0195674D01*
X0204182Y0198174D02*
X0204182Y0203174D01*
X0205082Y0216074D02*
X0213082Y0216074D01*
X0214082Y0217074D01*
X0214082Y0225074D01*
X0213082Y0226074D01*
X0205082Y0226074D01*
X0204082Y0225074D01*
X0203082Y0226074D01*
X0195082Y0226074D01*
X0194082Y0225074D01*
X0194082Y0217074D01*
X0195082Y0216074D01*
X0203082Y0216074D01*
X0204082Y0217074D01*
X0205082Y0216074D01*
X0207182Y0237074D02*
X0204682Y0239574D01*
X0202182Y0237074D01*
X0197182Y0237074D01*
X0194682Y0239574D01*
X0194682Y0244574D01*
X0197182Y0247074D01*
X0202182Y0247074D01*
X0204682Y0244574D01*
X0207182Y0247074D01*
X0212182Y0247074D01*
X0214682Y0244574D01*
X0214682Y0239574D01*
X0212182Y0237074D01*
X0207182Y0237074D01*
X0204682Y0239574D02*
X0204682Y0244574D01*
X0205382Y0253374D02*
X0213382Y0253374D01*
X0214382Y0254374D01*
X0214382Y0262374D01*
X0213382Y0263374D01*
X0205382Y0263374D01*
X0204382Y0262374D01*
X0203382Y0263374D01*
X0195382Y0263374D01*
X0194382Y0262374D01*
X0194382Y0254374D01*
X0195382Y0253374D01*
X0203382Y0253374D01*
X0204382Y0254374D01*
X0205382Y0253374D01*
X0234582Y0358574D02*
X0242582Y0358574D01*
X0243582Y0359574D01*
X0244582Y0358574D01*
X0252582Y0358574D01*
X0253582Y0359574D01*
X0253582Y0367574D01*
X0252582Y0368574D01*
X0244582Y0368574D01*
X0243582Y0367574D01*
X0242582Y0368574D01*
X0234582Y0368574D01*
X0233582Y0367574D01*
X0233582Y0359574D01*
X0234582Y0358574D01*
X0234382Y0373174D02*
X0242382Y0373174D01*
X0243382Y0374174D01*
X0244382Y0373174D01*
X0252382Y0373174D01*
X0253382Y0374174D01*
X0253382Y0382174D01*
X0252382Y0383174D01*
X0244382Y0383174D01*
X0243382Y0382174D01*
X0242382Y0383174D01*
X0234382Y0383174D01*
X0233382Y0382174D01*
X0233382Y0374174D01*
X0234382Y0373174D01*
X0236182Y0388274D02*
X0233682Y0390774D01*
X0233682Y0395774D01*
X0236182Y0398274D01*
X0241182Y0398274D01*
X0243682Y0395774D01*
X0246182Y0398274D01*
X0251182Y0398274D01*
X0253682Y0395774D01*
X0253682Y0390774D01*
X0251182Y0388274D01*
X0246182Y0388274D01*
X0243682Y0390774D01*
X0241182Y0388274D01*
X0236182Y0388274D01*
X0243682Y0390774D02*
X0243682Y0395774D01*
X0203682Y0402174D02*
X0201182Y0399674D01*
X0196182Y0399674D01*
X0193682Y0402174D01*
X0193682Y0407174D01*
X0196182Y0409674D01*
X0193682Y0412174D01*
X0193682Y0417174D01*
X0196182Y0419674D01*
X0201182Y0419674D01*
X0203682Y0417174D01*
X0203682Y0412174D01*
X0201182Y0409674D01*
X0203682Y0407174D01*
X0203682Y0402174D01*
X0201182Y0409674D02*
X0196182Y0409674D01*
X0411961Y0259465D02*
X0411961Y0256465D01*
X0410461Y0257965D02*
X0413461Y0257965D01*
X0391461Y0245965D02*
X0391466Y0246358D01*
X0391480Y0246750D01*
X0391504Y0247142D01*
X0391538Y0247533D01*
X0391581Y0247924D01*
X0391634Y0248313D01*
X0391697Y0248700D01*
X0391768Y0249086D01*
X0391850Y0249471D01*
X0391940Y0249853D01*
X0392041Y0250232D01*
X0392150Y0250610D01*
X0392269Y0250984D01*
X0392396Y0251355D01*
X0392533Y0251723D01*
X0392679Y0252088D01*
X0392834Y0252449D01*
X0392997Y0252806D01*
X0393169Y0253159D01*
X0393350Y0253507D01*
X0393540Y0253851D01*
X0393737Y0254191D01*
X0393943Y0254525D01*
X0394157Y0254854D01*
X0394380Y0255178D01*
X0394610Y0255496D01*
X0394847Y0255809D01*
X0395093Y0256115D01*
X0395346Y0256416D01*
X0395606Y0256710D01*
X0395873Y0256998D01*
X0396147Y0257279D01*
X0396428Y0257553D01*
X0396716Y0257820D01*
X0397010Y0258080D01*
X0397311Y0258333D01*
X0397617Y0258579D01*
X0397930Y0258816D01*
X0398248Y0259046D01*
X0398572Y0259269D01*
X0398901Y0259483D01*
X0399235Y0259689D01*
X0399575Y0259886D01*
X0399919Y0260076D01*
X0400267Y0260257D01*
X0400620Y0260429D01*
X0400977Y0260592D01*
X0401338Y0260747D01*
X0401703Y0260893D01*
X0402071Y0261030D01*
X0402442Y0261157D01*
X0402816Y0261276D01*
X0403194Y0261385D01*
X0403573Y0261486D01*
X0403955Y0261576D01*
X0404340Y0261658D01*
X0404726Y0261729D01*
X0405113Y0261792D01*
X0405502Y0261845D01*
X0405893Y0261888D01*
X0406284Y0261922D01*
X0406676Y0261946D01*
X0407068Y0261960D01*
X0407461Y0261965D01*
X0407854Y0261960D01*
X0408246Y0261946D01*
X0408638Y0261922D01*
X0409029Y0261888D01*
X0409420Y0261845D01*
X0409809Y0261792D01*
X0410196Y0261729D01*
X0410582Y0261658D01*
X0410967Y0261576D01*
X0411349Y0261486D01*
X0411728Y0261385D01*
X0412106Y0261276D01*
X0412480Y0261157D01*
X0412851Y0261030D01*
X0413219Y0260893D01*
X0413584Y0260747D01*
X0413945Y0260592D01*
X0414302Y0260429D01*
X0414655Y0260257D01*
X0415003Y0260076D01*
X0415347Y0259886D01*
X0415687Y0259689D01*
X0416021Y0259483D01*
X0416350Y0259269D01*
X0416674Y0259046D01*
X0416992Y0258816D01*
X0417305Y0258579D01*
X0417611Y0258333D01*
X0417912Y0258080D01*
X0418206Y0257820D01*
X0418494Y0257553D01*
X0418775Y0257279D01*
X0419049Y0256998D01*
X0419316Y0256710D01*
X0419576Y0256416D01*
X0419829Y0256115D01*
X0420075Y0255809D01*
X0420312Y0255496D01*
X0420542Y0255178D01*
X0420765Y0254854D01*
X0420979Y0254525D01*
X0421185Y0254191D01*
X0421382Y0253851D01*
X0421572Y0253507D01*
X0421753Y0253159D01*
X0421925Y0252806D01*
X0422088Y0252449D01*
X0422243Y0252088D01*
X0422389Y0251723D01*
X0422526Y0251355D01*
X0422653Y0250984D01*
X0422772Y0250610D01*
X0422881Y0250232D01*
X0422982Y0249853D01*
X0423072Y0249471D01*
X0423154Y0249086D01*
X0423225Y0248700D01*
X0423288Y0248313D01*
X0423341Y0247924D01*
X0423384Y0247533D01*
X0423418Y0247142D01*
X0423442Y0246750D01*
X0423456Y0246358D01*
X0423461Y0245965D01*
X0423456Y0245572D01*
X0423442Y0245180D01*
X0423418Y0244788D01*
X0423384Y0244397D01*
X0423341Y0244006D01*
X0423288Y0243617D01*
X0423225Y0243230D01*
X0423154Y0242844D01*
X0423072Y0242459D01*
X0422982Y0242077D01*
X0422881Y0241698D01*
X0422772Y0241320D01*
X0422653Y0240946D01*
X0422526Y0240575D01*
X0422389Y0240207D01*
X0422243Y0239842D01*
X0422088Y0239481D01*
X0421925Y0239124D01*
X0421753Y0238771D01*
X0421572Y0238423D01*
X0421382Y0238079D01*
X0421185Y0237739D01*
X0420979Y0237405D01*
X0420765Y0237076D01*
X0420542Y0236752D01*
X0420312Y0236434D01*
X0420075Y0236121D01*
X0419829Y0235815D01*
X0419576Y0235514D01*
X0419316Y0235220D01*
X0419049Y0234932D01*
X0418775Y0234651D01*
X0418494Y0234377D01*
X0418206Y0234110D01*
X0417912Y0233850D01*
X0417611Y0233597D01*
X0417305Y0233351D01*
X0416992Y0233114D01*
X0416674Y0232884D01*
X0416350Y0232661D01*
X0416021Y0232447D01*
X0415687Y0232241D01*
X0415347Y0232044D01*
X0415003Y0231854D01*
X0414655Y0231673D01*
X0414302Y0231501D01*
X0413945Y0231338D01*
X0413584Y0231183D01*
X0413219Y0231037D01*
X0412851Y0230900D01*
X0412480Y0230773D01*
X0412106Y0230654D01*
X0411728Y0230545D01*
X0411349Y0230444D01*
X0410967Y0230354D01*
X0410582Y0230272D01*
X0410196Y0230201D01*
X0409809Y0230138D01*
X0409420Y0230085D01*
X0409029Y0230042D01*
X0408638Y0230008D01*
X0408246Y0229984D01*
X0407854Y0229970D01*
X0407461Y0229965D01*
X0407068Y0229970D01*
X0406676Y0229984D01*
X0406284Y0230008D01*
X0405893Y0230042D01*
X0405502Y0230085D01*
X0405113Y0230138D01*
X0404726Y0230201D01*
X0404340Y0230272D01*
X0403955Y0230354D01*
X0403573Y0230444D01*
X0403194Y0230545D01*
X0402816Y0230654D01*
X0402442Y0230773D01*
X0402071Y0230900D01*
X0401703Y0231037D01*
X0401338Y0231183D01*
X0400977Y0231338D01*
X0400620Y0231501D01*
X0400267Y0231673D01*
X0399919Y0231854D01*
X0399575Y0232044D01*
X0399235Y0232241D01*
X0398901Y0232447D01*
X0398572Y0232661D01*
X0398248Y0232884D01*
X0397930Y0233114D01*
X0397617Y0233351D01*
X0397311Y0233597D01*
X0397010Y0233850D01*
X0396716Y0234110D01*
X0396428Y0234377D01*
X0396147Y0234651D01*
X0395873Y0234932D01*
X0395606Y0235220D01*
X0395346Y0235514D01*
X0395093Y0235815D01*
X0394847Y0236121D01*
X0394610Y0236434D01*
X0394380Y0236752D01*
X0394157Y0237076D01*
X0393943Y0237405D01*
X0393737Y0237739D01*
X0393540Y0238079D01*
X0393350Y0238423D01*
X0393169Y0238771D01*
X0392997Y0239124D01*
X0392834Y0239481D01*
X0392679Y0239842D01*
X0392533Y0240207D01*
X0392396Y0240575D01*
X0392269Y0240946D01*
X0392150Y0241320D01*
X0392041Y0241698D01*
X0391940Y0242077D01*
X0391850Y0242459D01*
X0391768Y0242844D01*
X0391697Y0243230D01*
X0391634Y0243617D01*
X0391581Y0244006D01*
X0391538Y0244397D01*
X0391504Y0244788D01*
X0391480Y0245180D01*
X0391466Y0245572D01*
X0391461Y0245965D01*
X0792176Y0296974D02*
X0798582Y0296974D01*
X0798582Y0301244D01*
X0797514Y0303420D02*
X0796447Y0304487D01*
X0796447Y0307690D01*
X0795379Y0307690D02*
X0798582Y0307690D01*
X0798582Y0304487D01*
X0797514Y0303420D01*
X0794311Y0304487D02*
X0794311Y0306622D01*
X0795379Y0307690D01*
X0794311Y0309865D02*
X0797514Y0309865D01*
X0798582Y0310933D01*
X0798582Y0314135D01*
X0799649Y0314135D02*
X0800717Y0313068D01*
X0800717Y0312000D01*
X0799649Y0314135D02*
X0794311Y0314135D01*
X0795379Y0316311D02*
X0797514Y0316311D01*
X0798582Y0317378D01*
X0798582Y0319513D01*
X0797514Y0320581D01*
X0795379Y0320581D01*
X0794311Y0319513D01*
X0794311Y0317378D01*
X0795379Y0316311D01*
X0794311Y0322756D02*
X0797514Y0322756D01*
X0798582Y0323824D01*
X0798582Y0327026D01*
X0794311Y0327026D01*
X0794311Y0329202D02*
X0794311Y0331337D01*
X0793244Y0330269D02*
X0797514Y0330269D01*
X0798582Y0331337D01*
X0798582Y0339944D02*
X0792176Y0339944D01*
X0794311Y0339944D02*
X0794311Y0343147D01*
X0795379Y0344214D01*
X0797514Y0344214D01*
X0798582Y0343147D01*
X0798582Y0339944D01*
X0797514Y0346389D02*
X0798582Y0347457D01*
X0798582Y0350660D01*
X0799649Y0350660D02*
X0800717Y0349592D01*
X0800717Y0348525D01*
X0802676Y0348538D02*
X0802676Y0351741D01*
X0803744Y0352808D01*
X0805879Y0352808D01*
X0806947Y0351741D01*
X0806947Y0348538D01*
X0809082Y0348538D02*
X0802676Y0348538D01*
X0799649Y0350660D02*
X0794311Y0350660D01*
X0794311Y0346389D02*
X0797514Y0346389D01*
X0806947Y0350673D02*
X0809082Y0352808D01*
X0808014Y0354983D02*
X0803744Y0354983D01*
X0802676Y0356051D01*
X0802676Y0358186D01*
X0803744Y0359254D01*
X0805879Y0359254D01*
X0806947Y0358186D01*
X0804811Y0358186D01*
X0804811Y0356051D01*
X0806947Y0356051D01*
X0806947Y0358186D01*
X0808014Y0359254D02*
X0809082Y0358186D01*
X0809082Y0356051D01*
X0808014Y0354983D01*
X0809082Y0361429D02*
X0802676Y0361429D01*
X0804811Y0363564D01*
X0802676Y0365699D01*
X0809082Y0365699D01*
X0809082Y0374320D02*
X0804811Y0378590D01*
X0803744Y0378590D01*
X0802676Y0377523D01*
X0802676Y0375388D01*
X0803744Y0374320D01*
X0798582Y0373226D02*
X0798582Y0371091D01*
X0797514Y0370023D01*
X0795379Y0370023D01*
X0794311Y0371091D01*
X0794311Y0373226D01*
X0795379Y0374293D01*
X0796447Y0374293D01*
X0796447Y0370023D01*
X0798582Y0367861D02*
X0798582Y0365726D01*
X0798582Y0366794D02*
X0792176Y0366794D01*
X0792176Y0365726D01*
X0794311Y0363551D02*
X0792176Y0361416D01*
X0794311Y0359280D01*
X0798582Y0359280D01*
X0795379Y0359280D02*
X0795379Y0363551D01*
X0794311Y0363551D02*
X0798582Y0363551D01*
X0809082Y0374320D02*
X0809082Y0378590D01*
X0808014Y0380765D02*
X0803744Y0385036D01*
X0808014Y0385036D01*
X0809082Y0383968D01*
X0809082Y0381833D01*
X0808014Y0380765D01*
X0803744Y0380765D01*
X0802676Y0381833D01*
X0802676Y0383968D01*
X0803744Y0385036D01*
X0804811Y0387211D02*
X0802676Y0389346D01*
X0809082Y0389346D01*
X0809082Y0387211D02*
X0809082Y0391481D01*
X0809082Y0393656D02*
X0808014Y0393656D01*
X0803744Y0397927D01*
X0802676Y0397927D01*
X0802676Y0393656D01*
X0798582Y0395805D02*
X0798582Y0397940D01*
X0798582Y0396873D02*
X0794311Y0396873D01*
X0794311Y0395805D01*
X0792176Y0396873D02*
X0791109Y0396873D01*
X0792176Y0393630D02*
X0792176Y0391495D01*
X0792176Y0392562D02*
X0797514Y0392562D01*
X0798582Y0391495D01*
X0798582Y0390427D01*
X0797514Y0389359D01*
X0797514Y0400102D02*
X0796447Y0401170D01*
X0796447Y0404372D01*
X0795379Y0404372D02*
X0798582Y0404372D01*
X0798582Y0401170D01*
X0797514Y0400102D01*
X0794311Y0401170D02*
X0794311Y0403305D01*
X0795379Y0404372D01*
X0795379Y0406547D02*
X0797514Y0406547D01*
X0798582Y0407615D01*
X0798582Y0409750D01*
X0797514Y0410818D01*
X0795379Y0410818D01*
X0794311Y0409750D01*
X0794311Y0407615D01*
X0795379Y0406547D01*
X0794311Y0380739D02*
X0798582Y0376468D01*
X0794311Y0376468D02*
X0798582Y0380739D01*
D12*
X0506347Y0502676D02*
X0503278Y0502676D01*
X0504812Y0504211D02*
X0504812Y0501141D01*
X0381336Y0395313D02*
X0381336Y0392244D01*
X0381336Y0394546D02*
X0378267Y0394546D01*
X0378267Y0395313D02*
X0378267Y0392244D01*
X0378267Y0395313D02*
X0379801Y0396848D01*
X0381336Y0395313D01*
X0293224Y0394955D02*
X0292456Y0394188D01*
X0290154Y0394188D01*
X0290154Y0391886D02*
X0292456Y0391886D01*
X0293224Y0392653D01*
X0293224Y0393421D01*
X0292456Y0394188D01*
X0293224Y0394955D02*
X0293224Y0395723D01*
X0292456Y0396490D01*
X0290154Y0396490D01*
X0290154Y0391886D01*
X0269891Y0340980D02*
X0268356Y0340980D01*
X0267589Y0340212D01*
X0267589Y0339445D01*
X0268356Y0338678D01*
X0270658Y0338678D01*
X0270658Y0340212D02*
X0269891Y0340980D01*
X0270658Y0340212D02*
X0270658Y0337143D01*
X0269891Y0336376D01*
X0268356Y0336376D01*
X0267589Y0337143D01*
X0271016Y0316269D02*
X0269482Y0315501D01*
X0267947Y0313967D01*
X0270249Y0313967D01*
X0271016Y0313199D01*
X0271016Y0312432D01*
X0270249Y0311665D01*
X0268714Y0311665D01*
X0267947Y0312432D01*
X0267947Y0313967D01*
X0334569Y0327832D02*
X0335336Y0327064D01*
X0336871Y0327064D01*
X0337638Y0327832D01*
X0337638Y0329366D01*
X0336871Y0330134D01*
X0336103Y0330134D01*
X0334569Y0329366D01*
X0334569Y0331668D01*
X0337638Y0331668D01*
X0400116Y0337092D02*
X0400116Y0337859D01*
X0403185Y0340929D01*
X0403185Y0341696D01*
X0400116Y0341696D01*
X0402418Y0316269D02*
X0400116Y0313967D01*
X0403185Y0313967D01*
X0402418Y0311665D02*
X0402418Y0316269D01*
X0380159Y0276158D02*
X0380159Y0271554D01*
X0378625Y0271554D02*
X0381694Y0271554D01*
X0378625Y0274623D02*
X0380159Y0276158D01*
X0337638Y0275391D02*
X0336871Y0276158D01*
X0335336Y0276158D01*
X0334569Y0275391D01*
X0337638Y0275391D02*
X0337638Y0274623D01*
X0334569Y0271554D01*
X0337638Y0271554D01*
X0293582Y0272321D02*
X0292814Y0271554D01*
X0291280Y0271554D01*
X0290512Y0272321D01*
X0292047Y0273856D02*
X0292814Y0273856D01*
X0293582Y0273089D01*
X0293582Y0272321D01*
X0292814Y0273856D02*
X0293582Y0274623D01*
X0293582Y0275391D01*
X0292814Y0276158D01*
X0291280Y0276158D01*
X0290512Y0275391D01*
X0243525Y0265106D02*
X0238013Y0270617D01*
X0236635Y0269239D02*
X0242147Y0263728D01*
X0235651Y0267074D02*
X0235653Y0267205D01*
X0235659Y0267337D01*
X0235669Y0267468D01*
X0235683Y0267599D01*
X0235701Y0267729D01*
X0235723Y0267858D01*
X0235748Y0267987D01*
X0235778Y0268115D01*
X0235812Y0268242D01*
X0235849Y0268369D01*
X0235890Y0268493D01*
X0235935Y0268617D01*
X0235984Y0268739D01*
X0236036Y0268860D01*
X0236092Y0268978D01*
X0236152Y0269096D01*
X0236215Y0269211D01*
X0236282Y0269324D01*
X0236352Y0269436D01*
X0236425Y0269545D01*
X0236501Y0269651D01*
X0236581Y0269756D01*
X0236664Y0269858D01*
X0236750Y0269957D01*
X0236839Y0270054D01*
X0236931Y0270148D01*
X0237026Y0270239D01*
X0237123Y0270328D01*
X0237223Y0270413D01*
X0237326Y0270495D01*
X0237431Y0270574D01*
X0237538Y0270650D01*
X0237648Y0270722D01*
X0237760Y0270791D01*
X0237874Y0270857D01*
X0237989Y0270919D01*
X0238107Y0270978D01*
X0238226Y0271033D01*
X0238347Y0271085D01*
X0238470Y0271132D01*
X0238594Y0271176D01*
X0238719Y0271217D01*
X0238845Y0271253D01*
X0238973Y0271286D01*
X0239101Y0271314D01*
X0239230Y0271339D01*
X0239360Y0271360D01*
X0239490Y0271377D01*
X0239621Y0271390D01*
X0239752Y0271399D01*
X0239883Y0271404D01*
X0240015Y0271405D01*
X0240146Y0271402D01*
X0240278Y0271395D01*
X0240409Y0271384D01*
X0240539Y0271369D01*
X0240669Y0271350D01*
X0240799Y0271327D01*
X0240927Y0271301D01*
X0241055Y0271270D01*
X0241182Y0271235D01*
X0241308Y0271197D01*
X0241432Y0271155D01*
X0241556Y0271109D01*
X0241677Y0271059D01*
X0241797Y0271006D01*
X0241916Y0270949D01*
X0242033Y0270889D01*
X0242147Y0270825D01*
X0242260Y0270757D01*
X0242371Y0270686D01*
X0242480Y0270612D01*
X0242586Y0270535D01*
X0242690Y0270454D01*
X0242791Y0270371D01*
X0242890Y0270284D01*
X0242986Y0270194D01*
X0243079Y0270101D01*
X0243170Y0270006D01*
X0243257Y0269908D01*
X0243342Y0269807D01*
X0243423Y0269704D01*
X0243501Y0269598D01*
X0243576Y0269490D01*
X0243648Y0269380D01*
X0243716Y0269268D01*
X0243781Y0269154D01*
X0243842Y0269037D01*
X0243900Y0268919D01*
X0243954Y0268799D01*
X0244005Y0268678D01*
X0244052Y0268555D01*
X0244095Y0268431D01*
X0244134Y0268306D01*
X0244170Y0268179D01*
X0244201Y0268051D01*
X0244229Y0267923D01*
X0244253Y0267794D01*
X0244273Y0267664D01*
X0244289Y0267533D01*
X0244301Y0267402D01*
X0244309Y0267271D01*
X0244313Y0267140D01*
X0244313Y0267008D01*
X0244309Y0266877D01*
X0244301Y0266746D01*
X0244289Y0266615D01*
X0244273Y0266484D01*
X0244253Y0266354D01*
X0244229Y0266225D01*
X0244201Y0266097D01*
X0244170Y0265969D01*
X0244134Y0265842D01*
X0244095Y0265717D01*
X0244052Y0265593D01*
X0244005Y0265470D01*
X0243954Y0265349D01*
X0243900Y0265229D01*
X0243842Y0265111D01*
X0243781Y0264994D01*
X0243716Y0264880D01*
X0243648Y0264768D01*
X0243576Y0264658D01*
X0243501Y0264550D01*
X0243423Y0264444D01*
X0243342Y0264341D01*
X0243257Y0264240D01*
X0243170Y0264142D01*
X0243079Y0264047D01*
X0242986Y0263954D01*
X0242890Y0263864D01*
X0242791Y0263777D01*
X0242690Y0263694D01*
X0242586Y0263613D01*
X0242480Y0263536D01*
X0242371Y0263462D01*
X0242260Y0263391D01*
X0242148Y0263323D01*
X0242033Y0263259D01*
X0241916Y0263199D01*
X0241797Y0263142D01*
X0241677Y0263089D01*
X0241556Y0263039D01*
X0241432Y0262993D01*
X0241308Y0262951D01*
X0241182Y0262913D01*
X0241055Y0262878D01*
X0240927Y0262847D01*
X0240799Y0262821D01*
X0240669Y0262798D01*
X0240539Y0262779D01*
X0240409Y0262764D01*
X0240278Y0262753D01*
X0240146Y0262746D01*
X0240015Y0262743D01*
X0239883Y0262744D01*
X0239752Y0262749D01*
X0239621Y0262758D01*
X0239490Y0262771D01*
X0239360Y0262788D01*
X0239230Y0262809D01*
X0239101Y0262834D01*
X0238973Y0262862D01*
X0238845Y0262895D01*
X0238719Y0262931D01*
X0238594Y0262972D01*
X0238470Y0263016D01*
X0238347Y0263063D01*
X0238226Y0263115D01*
X0238107Y0263170D01*
X0237989Y0263229D01*
X0237874Y0263291D01*
X0237760Y0263357D01*
X0237648Y0263426D01*
X0237538Y0263498D01*
X0237431Y0263574D01*
X0237326Y0263653D01*
X0237223Y0263735D01*
X0237123Y0263820D01*
X0237026Y0263909D01*
X0236931Y0264000D01*
X0236839Y0264094D01*
X0236750Y0264191D01*
X0236664Y0264290D01*
X0236581Y0264392D01*
X0236501Y0264497D01*
X0236425Y0264603D01*
X0236352Y0264712D01*
X0236282Y0264824D01*
X0236215Y0264937D01*
X0236152Y0265052D01*
X0236092Y0265170D01*
X0236036Y0265288D01*
X0235984Y0265409D01*
X0235935Y0265531D01*
X0235890Y0265655D01*
X0235849Y0265779D01*
X0235812Y0265906D01*
X0235778Y0266033D01*
X0235748Y0266161D01*
X0235723Y0266290D01*
X0235701Y0266419D01*
X0235683Y0266549D01*
X0235669Y0266680D01*
X0235659Y0266811D01*
X0235653Y0266943D01*
X0235651Y0267074D01*
X0462145Y0140805D02*
X0465214Y0140805D01*
X0463680Y0142339D02*
X0463680Y0139270D01*
D13*
X0497594Y0175161D02*
X0497294Y0175461D01*
X0498195Y0175461D01*
X0498195Y0175161D02*
X0498195Y0175762D01*
X0499413Y0177130D02*
X0499262Y0177280D01*
X0499262Y0177580D01*
X0499413Y0177730D01*
X0499563Y0177730D01*
X0500163Y0177130D01*
X0500163Y0177730D01*
X0500013Y0178050D02*
X0499413Y0178651D01*
X0500013Y0178651D01*
X0500163Y0178501D01*
X0500163Y0178200D01*
X0500013Y0178050D01*
X0499413Y0178050D01*
X0499262Y0178200D01*
X0499262Y0178501D01*
X0499413Y0178651D01*
X0493195Y0544161D02*
X0493195Y0544762D01*
X0493195Y0544461D02*
X0492294Y0544461D01*
X0492594Y0544161D01*
X0494413Y0546130D02*
X0494262Y0546280D01*
X0494262Y0546580D01*
X0494413Y0546730D01*
X0494563Y0546730D01*
X0495163Y0546130D01*
X0495163Y0546730D01*
X0495013Y0547050D02*
X0494413Y0547651D01*
X0495013Y0547651D01*
X0495163Y0547501D01*
X0495163Y0547200D01*
X0495013Y0547050D01*
X0494413Y0547050D01*
X0494262Y0547200D01*
X0494262Y0547501D01*
X0494413Y0547651D01*
D14*
X0494135Y0145076D02*
X0493401Y0145076D01*
X0493034Y0144709D01*
X0493034Y0143241D01*
X0493401Y0142874D01*
X0494135Y0142874D01*
X0494502Y0143241D01*
X0494502Y0144709D02*
X0494135Y0145076D01*
X0492295Y0145076D02*
X0491561Y0145076D01*
X0491928Y0145076D02*
X0491928Y0142874D01*
X0491561Y0142874D02*
X0492295Y0142874D01*
X0490819Y0143241D02*
X0490452Y0142874D01*
X0489718Y0142874D01*
X0489351Y0143241D01*
X0489351Y0144709D01*
X0489718Y0145076D01*
X0490452Y0145076D01*
X0490819Y0144709D01*
X0490819Y0143241D01*
X0488609Y0143241D02*
X0488242Y0142874D01*
X0487508Y0142874D01*
X0487141Y0143241D01*
X0486399Y0143241D02*
X0486032Y0142874D01*
X0485298Y0142874D01*
X0484931Y0143241D01*
X0484189Y0142874D02*
X0482721Y0142874D01*
X0483455Y0142874D02*
X0483455Y0145076D01*
X0482721Y0144342D01*
X0481979Y0144709D02*
X0480511Y0143241D01*
X0480511Y0142874D01*
X0479769Y0143241D02*
X0479402Y0142874D01*
X0478668Y0142874D01*
X0478301Y0143241D01*
X0477559Y0143241D02*
X0477192Y0142874D01*
X0476459Y0142874D01*
X0476092Y0143241D01*
X0476092Y0144709D01*
X0476459Y0145076D01*
X0477192Y0145076D01*
X0477559Y0144709D01*
X0478301Y0144709D02*
X0478301Y0144342D01*
X0478668Y0143975D01*
X0479402Y0143975D01*
X0479769Y0143608D01*
X0479769Y0143241D01*
X0479769Y0144709D02*
X0479402Y0145076D01*
X0478668Y0145076D01*
X0478301Y0144709D01*
X0480511Y0145076D02*
X0481979Y0145076D01*
X0481979Y0144709D01*
X0484931Y0144709D02*
X0485298Y0145076D01*
X0486032Y0145076D01*
X0486399Y0144709D01*
X0486399Y0144342D01*
X0486032Y0143975D01*
X0486399Y0143608D01*
X0486399Y0143241D01*
X0486032Y0143975D02*
X0485665Y0143975D01*
X0487141Y0144342D02*
X0487508Y0143975D01*
X0488242Y0143975D01*
X0488609Y0143608D01*
X0488609Y0143241D01*
X0488609Y0144709D02*
X0488242Y0145076D01*
X0487508Y0145076D01*
X0487141Y0144709D01*
X0487141Y0144342D01*
X0475350Y0144342D02*
X0475350Y0142874D01*
X0475350Y0143975D02*
X0473882Y0143975D01*
X0473882Y0144342D02*
X0474616Y0145076D01*
X0475350Y0144342D01*
X0473882Y0144342D02*
X0473882Y0142874D01*
D15*
X0425182Y0132374D02*
X0425182Y0086974D01*
X0342182Y0086974D01*
X0342182Y0132374D01*
X0425182Y0132374D01*
X0243131Y0258609D02*
X0231517Y0258609D01*
X0231517Y0262350D01*
X0231517Y0271798D02*
X0231517Y0275539D01*
X0243131Y0275539D01*
X0248446Y0270814D02*
X0248446Y0263334D01*
X0486557Y0265649D02*
X0497807Y0265649D01*
X0497807Y0276899D01*
X0486557Y0276899D01*
X0486557Y0265649D01*
X0332682Y0528974D02*
X0249682Y0528974D01*
X0249682Y0574374D01*
X0332682Y0574374D01*
X0332682Y0528974D01*
D16*
X0492713Y0571993D02*
X0492713Y0574355D01*
X0496650Y0574355D01*
X0496650Y0571993D01*
X0492713Y0571993D01*
X0472650Y0207855D02*
X0468713Y0207855D01*
X0468713Y0205493D01*
X0472650Y0205493D01*
X0472650Y0207855D01*
D17*
X0452044Y0205083D03*
X0447319Y0205083D03*
X0202844Y0157283D03*
X0198119Y0157283D03*
X0484819Y0561765D03*
X0489544Y0561765D03*
D18*
X0487182Y0561765D03*
X0449682Y0205083D03*
X0200482Y0157283D03*
D19*
X0207276Y0143379D02*
X0219087Y0143379D01*
X0225386Y0135111D02*
X0225386Y0127237D01*
X0219087Y0118969D02*
X0207276Y0118969D01*
X0200977Y0127237D02*
X0200977Y0135111D01*
X0206292Y0131174D02*
X0206294Y0131343D01*
X0206300Y0131512D01*
X0206311Y0131681D01*
X0206325Y0131849D01*
X0206344Y0132017D01*
X0206367Y0132185D01*
X0206393Y0132352D01*
X0206424Y0132518D01*
X0206459Y0132684D01*
X0206498Y0132848D01*
X0206542Y0133012D01*
X0206589Y0133174D01*
X0206640Y0133335D01*
X0206695Y0133495D01*
X0206754Y0133654D01*
X0206816Y0133811D01*
X0206883Y0133966D01*
X0206954Y0134120D01*
X0207028Y0134272D01*
X0207106Y0134422D01*
X0207187Y0134570D01*
X0207272Y0134716D01*
X0207361Y0134860D01*
X0207453Y0135002D01*
X0207549Y0135141D01*
X0207648Y0135278D01*
X0207750Y0135413D01*
X0207856Y0135545D01*
X0207965Y0135674D01*
X0208077Y0135801D01*
X0208192Y0135925D01*
X0208310Y0136046D01*
X0208431Y0136164D01*
X0208555Y0136279D01*
X0208682Y0136391D01*
X0208811Y0136500D01*
X0208943Y0136606D01*
X0209078Y0136708D01*
X0209215Y0136807D01*
X0209354Y0136903D01*
X0209496Y0136995D01*
X0209640Y0137084D01*
X0209786Y0137169D01*
X0209934Y0137250D01*
X0210084Y0137328D01*
X0210236Y0137402D01*
X0210390Y0137473D01*
X0210545Y0137540D01*
X0210702Y0137602D01*
X0210861Y0137661D01*
X0211021Y0137716D01*
X0211182Y0137767D01*
X0211344Y0137814D01*
X0211508Y0137858D01*
X0211672Y0137897D01*
X0211838Y0137932D01*
X0212004Y0137963D01*
X0212171Y0137989D01*
X0212339Y0138012D01*
X0212507Y0138031D01*
X0212675Y0138045D01*
X0212844Y0138056D01*
X0213013Y0138062D01*
X0213182Y0138064D01*
X0213351Y0138062D01*
X0213520Y0138056D01*
X0213689Y0138045D01*
X0213857Y0138031D01*
X0214025Y0138012D01*
X0214193Y0137989D01*
X0214360Y0137963D01*
X0214526Y0137932D01*
X0214692Y0137897D01*
X0214856Y0137858D01*
X0215020Y0137814D01*
X0215182Y0137767D01*
X0215343Y0137716D01*
X0215503Y0137661D01*
X0215662Y0137602D01*
X0215819Y0137540D01*
X0215974Y0137473D01*
X0216128Y0137402D01*
X0216280Y0137328D01*
X0216430Y0137250D01*
X0216578Y0137169D01*
X0216724Y0137084D01*
X0216868Y0136995D01*
X0217010Y0136903D01*
X0217149Y0136807D01*
X0217286Y0136708D01*
X0217421Y0136606D01*
X0217553Y0136500D01*
X0217682Y0136391D01*
X0217809Y0136279D01*
X0217933Y0136164D01*
X0218054Y0136046D01*
X0218172Y0135925D01*
X0218287Y0135801D01*
X0218399Y0135674D01*
X0218508Y0135545D01*
X0218614Y0135413D01*
X0218716Y0135278D01*
X0218815Y0135141D01*
X0218911Y0135002D01*
X0219003Y0134860D01*
X0219092Y0134716D01*
X0219177Y0134570D01*
X0219258Y0134422D01*
X0219336Y0134272D01*
X0219410Y0134120D01*
X0219481Y0133966D01*
X0219548Y0133811D01*
X0219610Y0133654D01*
X0219669Y0133495D01*
X0219724Y0133335D01*
X0219775Y0133174D01*
X0219822Y0133012D01*
X0219866Y0132848D01*
X0219905Y0132684D01*
X0219940Y0132518D01*
X0219971Y0132352D01*
X0219997Y0132185D01*
X0220020Y0132017D01*
X0220039Y0131849D01*
X0220053Y0131681D01*
X0220064Y0131512D01*
X0220070Y0131343D01*
X0220072Y0131174D01*
X0220070Y0131005D01*
X0220064Y0130836D01*
X0220053Y0130667D01*
X0220039Y0130499D01*
X0220020Y0130331D01*
X0219997Y0130163D01*
X0219971Y0129996D01*
X0219940Y0129830D01*
X0219905Y0129664D01*
X0219866Y0129500D01*
X0219822Y0129336D01*
X0219775Y0129174D01*
X0219724Y0129013D01*
X0219669Y0128853D01*
X0219610Y0128694D01*
X0219548Y0128537D01*
X0219481Y0128382D01*
X0219410Y0128228D01*
X0219336Y0128076D01*
X0219258Y0127926D01*
X0219177Y0127778D01*
X0219092Y0127632D01*
X0219003Y0127488D01*
X0218911Y0127346D01*
X0218815Y0127207D01*
X0218716Y0127070D01*
X0218614Y0126935D01*
X0218508Y0126803D01*
X0218399Y0126674D01*
X0218287Y0126547D01*
X0218172Y0126423D01*
X0218054Y0126302D01*
X0217933Y0126184D01*
X0217809Y0126069D01*
X0217682Y0125957D01*
X0217553Y0125848D01*
X0217421Y0125742D01*
X0217286Y0125640D01*
X0217149Y0125541D01*
X0217010Y0125445D01*
X0216868Y0125353D01*
X0216724Y0125264D01*
X0216578Y0125179D01*
X0216430Y0125098D01*
X0216280Y0125020D01*
X0216128Y0124946D01*
X0215974Y0124875D01*
X0215819Y0124808D01*
X0215662Y0124746D01*
X0215503Y0124687D01*
X0215343Y0124632D01*
X0215182Y0124581D01*
X0215020Y0124534D01*
X0214856Y0124490D01*
X0214692Y0124451D01*
X0214526Y0124416D01*
X0214360Y0124385D01*
X0214193Y0124359D01*
X0214025Y0124336D01*
X0213857Y0124317D01*
X0213689Y0124303D01*
X0213520Y0124292D01*
X0213351Y0124286D01*
X0213182Y0124284D01*
X0213013Y0124286D01*
X0212844Y0124292D01*
X0212675Y0124303D01*
X0212507Y0124317D01*
X0212339Y0124336D01*
X0212171Y0124359D01*
X0212004Y0124385D01*
X0211838Y0124416D01*
X0211672Y0124451D01*
X0211508Y0124490D01*
X0211344Y0124534D01*
X0211182Y0124581D01*
X0211021Y0124632D01*
X0210861Y0124687D01*
X0210702Y0124746D01*
X0210545Y0124808D01*
X0210390Y0124875D01*
X0210236Y0124946D01*
X0210084Y0125020D01*
X0209934Y0125098D01*
X0209786Y0125179D01*
X0209640Y0125264D01*
X0209496Y0125353D01*
X0209354Y0125445D01*
X0209215Y0125541D01*
X0209078Y0125640D01*
X0208943Y0125742D01*
X0208811Y0125848D01*
X0208682Y0125957D01*
X0208555Y0126069D01*
X0208431Y0126184D01*
X0208310Y0126302D01*
X0208192Y0126423D01*
X0208077Y0126547D01*
X0207965Y0126674D01*
X0207856Y0126803D01*
X0207750Y0126935D01*
X0207648Y0127070D01*
X0207549Y0127207D01*
X0207453Y0127346D01*
X0207361Y0127488D01*
X0207272Y0127632D01*
X0207187Y0127778D01*
X0207106Y0127926D01*
X0207028Y0128076D01*
X0206954Y0128228D01*
X0206883Y0128382D01*
X0206816Y0128537D01*
X0206754Y0128694D01*
X0206695Y0128853D01*
X0206640Y0129013D01*
X0206589Y0129174D01*
X0206542Y0129336D01*
X0206498Y0129500D01*
X0206459Y0129664D01*
X0206424Y0129830D01*
X0206393Y0129996D01*
X0206367Y0130163D01*
X0206344Y0130331D01*
X0206325Y0130499D01*
X0206311Y0130667D01*
X0206300Y0130836D01*
X0206294Y0131005D01*
X0206292Y0131174D01*
X0246977Y0134111D02*
X0246977Y0126237D01*
X0253276Y0117969D02*
X0265087Y0117969D01*
X0271386Y0126237D02*
X0271386Y0134111D01*
X0265087Y0142379D02*
X0253276Y0142379D01*
X0252292Y0130174D02*
X0252294Y0130343D01*
X0252300Y0130512D01*
X0252311Y0130681D01*
X0252325Y0130849D01*
X0252344Y0131017D01*
X0252367Y0131185D01*
X0252393Y0131352D01*
X0252424Y0131518D01*
X0252459Y0131684D01*
X0252498Y0131848D01*
X0252542Y0132012D01*
X0252589Y0132174D01*
X0252640Y0132335D01*
X0252695Y0132495D01*
X0252754Y0132654D01*
X0252816Y0132811D01*
X0252883Y0132966D01*
X0252954Y0133120D01*
X0253028Y0133272D01*
X0253106Y0133422D01*
X0253187Y0133570D01*
X0253272Y0133716D01*
X0253361Y0133860D01*
X0253453Y0134002D01*
X0253549Y0134141D01*
X0253648Y0134278D01*
X0253750Y0134413D01*
X0253856Y0134545D01*
X0253965Y0134674D01*
X0254077Y0134801D01*
X0254192Y0134925D01*
X0254310Y0135046D01*
X0254431Y0135164D01*
X0254555Y0135279D01*
X0254682Y0135391D01*
X0254811Y0135500D01*
X0254943Y0135606D01*
X0255078Y0135708D01*
X0255215Y0135807D01*
X0255354Y0135903D01*
X0255496Y0135995D01*
X0255640Y0136084D01*
X0255786Y0136169D01*
X0255934Y0136250D01*
X0256084Y0136328D01*
X0256236Y0136402D01*
X0256390Y0136473D01*
X0256545Y0136540D01*
X0256702Y0136602D01*
X0256861Y0136661D01*
X0257021Y0136716D01*
X0257182Y0136767D01*
X0257344Y0136814D01*
X0257508Y0136858D01*
X0257672Y0136897D01*
X0257838Y0136932D01*
X0258004Y0136963D01*
X0258171Y0136989D01*
X0258339Y0137012D01*
X0258507Y0137031D01*
X0258675Y0137045D01*
X0258844Y0137056D01*
X0259013Y0137062D01*
X0259182Y0137064D01*
X0259351Y0137062D01*
X0259520Y0137056D01*
X0259689Y0137045D01*
X0259857Y0137031D01*
X0260025Y0137012D01*
X0260193Y0136989D01*
X0260360Y0136963D01*
X0260526Y0136932D01*
X0260692Y0136897D01*
X0260856Y0136858D01*
X0261020Y0136814D01*
X0261182Y0136767D01*
X0261343Y0136716D01*
X0261503Y0136661D01*
X0261662Y0136602D01*
X0261819Y0136540D01*
X0261974Y0136473D01*
X0262128Y0136402D01*
X0262280Y0136328D01*
X0262430Y0136250D01*
X0262578Y0136169D01*
X0262724Y0136084D01*
X0262868Y0135995D01*
X0263010Y0135903D01*
X0263149Y0135807D01*
X0263286Y0135708D01*
X0263421Y0135606D01*
X0263553Y0135500D01*
X0263682Y0135391D01*
X0263809Y0135279D01*
X0263933Y0135164D01*
X0264054Y0135046D01*
X0264172Y0134925D01*
X0264287Y0134801D01*
X0264399Y0134674D01*
X0264508Y0134545D01*
X0264614Y0134413D01*
X0264716Y0134278D01*
X0264815Y0134141D01*
X0264911Y0134002D01*
X0265003Y0133860D01*
X0265092Y0133716D01*
X0265177Y0133570D01*
X0265258Y0133422D01*
X0265336Y0133272D01*
X0265410Y0133120D01*
X0265481Y0132966D01*
X0265548Y0132811D01*
X0265610Y0132654D01*
X0265669Y0132495D01*
X0265724Y0132335D01*
X0265775Y0132174D01*
X0265822Y0132012D01*
X0265866Y0131848D01*
X0265905Y0131684D01*
X0265940Y0131518D01*
X0265971Y0131352D01*
X0265997Y0131185D01*
X0266020Y0131017D01*
X0266039Y0130849D01*
X0266053Y0130681D01*
X0266064Y0130512D01*
X0266070Y0130343D01*
X0266072Y0130174D01*
X0266070Y0130005D01*
X0266064Y0129836D01*
X0266053Y0129667D01*
X0266039Y0129499D01*
X0266020Y0129331D01*
X0265997Y0129163D01*
X0265971Y0128996D01*
X0265940Y0128830D01*
X0265905Y0128664D01*
X0265866Y0128500D01*
X0265822Y0128336D01*
X0265775Y0128174D01*
X0265724Y0128013D01*
X0265669Y0127853D01*
X0265610Y0127694D01*
X0265548Y0127537D01*
X0265481Y0127382D01*
X0265410Y0127228D01*
X0265336Y0127076D01*
X0265258Y0126926D01*
X0265177Y0126778D01*
X0265092Y0126632D01*
X0265003Y0126488D01*
X0264911Y0126346D01*
X0264815Y0126207D01*
X0264716Y0126070D01*
X0264614Y0125935D01*
X0264508Y0125803D01*
X0264399Y0125674D01*
X0264287Y0125547D01*
X0264172Y0125423D01*
X0264054Y0125302D01*
X0263933Y0125184D01*
X0263809Y0125069D01*
X0263682Y0124957D01*
X0263553Y0124848D01*
X0263421Y0124742D01*
X0263286Y0124640D01*
X0263149Y0124541D01*
X0263010Y0124445D01*
X0262868Y0124353D01*
X0262724Y0124264D01*
X0262578Y0124179D01*
X0262430Y0124098D01*
X0262280Y0124020D01*
X0262128Y0123946D01*
X0261974Y0123875D01*
X0261819Y0123808D01*
X0261662Y0123746D01*
X0261503Y0123687D01*
X0261343Y0123632D01*
X0261182Y0123581D01*
X0261020Y0123534D01*
X0260856Y0123490D01*
X0260692Y0123451D01*
X0260526Y0123416D01*
X0260360Y0123385D01*
X0260193Y0123359D01*
X0260025Y0123336D01*
X0259857Y0123317D01*
X0259689Y0123303D01*
X0259520Y0123292D01*
X0259351Y0123286D01*
X0259182Y0123284D01*
X0259013Y0123286D01*
X0258844Y0123292D01*
X0258675Y0123303D01*
X0258507Y0123317D01*
X0258339Y0123336D01*
X0258171Y0123359D01*
X0258004Y0123385D01*
X0257838Y0123416D01*
X0257672Y0123451D01*
X0257508Y0123490D01*
X0257344Y0123534D01*
X0257182Y0123581D01*
X0257021Y0123632D01*
X0256861Y0123687D01*
X0256702Y0123746D01*
X0256545Y0123808D01*
X0256390Y0123875D01*
X0256236Y0123946D01*
X0256084Y0124020D01*
X0255934Y0124098D01*
X0255786Y0124179D01*
X0255640Y0124264D01*
X0255496Y0124353D01*
X0255354Y0124445D01*
X0255215Y0124541D01*
X0255078Y0124640D01*
X0254943Y0124742D01*
X0254811Y0124848D01*
X0254682Y0124957D01*
X0254555Y0125069D01*
X0254431Y0125184D01*
X0254310Y0125302D01*
X0254192Y0125423D01*
X0254077Y0125547D01*
X0253965Y0125674D01*
X0253856Y0125803D01*
X0253750Y0125935D01*
X0253648Y0126070D01*
X0253549Y0126207D01*
X0253453Y0126346D01*
X0253361Y0126488D01*
X0253272Y0126632D01*
X0253187Y0126778D01*
X0253106Y0126926D01*
X0253028Y0127076D01*
X0252954Y0127228D01*
X0252883Y0127382D01*
X0252816Y0127537D01*
X0252754Y0127694D01*
X0252695Y0127853D01*
X0252640Y0128013D01*
X0252589Y0128174D01*
X0252542Y0128336D01*
X0252498Y0128500D01*
X0252459Y0128664D01*
X0252424Y0128830D01*
X0252393Y0128996D01*
X0252367Y0129163D01*
X0252344Y0129331D01*
X0252325Y0129499D01*
X0252311Y0129667D01*
X0252300Y0129836D01*
X0252294Y0130005D01*
X0252292Y0130174D01*
X0248646Y0237962D02*
X0231717Y0237962D01*
X0231717Y0248986D01*
X0248646Y0248986D01*
X0248646Y0237962D01*
X0249887Y0416969D02*
X0238076Y0416969D01*
X0238076Y0428780D02*
X0249887Y0428780D01*
X0225623Y0419232D02*
X0223340Y0419232D01*
X0225623Y0419232D02*
X0225623Y0447476D01*
X0223340Y0447476D01*
X0210623Y0447476D02*
X0208340Y0447476D01*
X0208340Y0419232D01*
X0210623Y0419232D01*
X0247040Y0464732D02*
X0249323Y0464732D01*
X0247040Y0464732D02*
X0247040Y0492976D01*
X0249323Y0492976D01*
X0262040Y0492976D02*
X0264323Y0492976D01*
X0264323Y0464732D01*
X0262040Y0464732D01*
X0239187Y0470069D02*
X0227376Y0470069D01*
X0227376Y0481880D02*
X0239187Y0481880D01*
D20*
X0215782Y0383592D02*
X0215782Y0383553D01*
X0222382Y0348592D02*
X0222382Y0348553D01*
X0199382Y0279595D02*
X0199382Y0279556D01*
D21*
X0194382Y0282076D02*
X0204421Y0282076D01*
X0204421Y0287233D01*
X0194382Y0287233D01*
X0194382Y0282076D01*
X0217342Y0340915D02*
X0217342Y0346072D01*
X0227382Y0346072D01*
X0227382Y0340915D01*
X0217342Y0340915D01*
X0220782Y0375915D02*
X0220782Y0381072D01*
X0210742Y0381072D01*
X0210742Y0375915D01*
X0220782Y0375915D01*
D22*
X0248509Y0418346D03*
X0228754Y0480502D03*
D23*
X0233784Y0246033D03*
M02*
