G75*
%MOIN*%
%OFA0B0*%
%FSLAX25Y25*%
%IPPOS*%
%LPD*%
%AMOC8*
5,1,8,0,0,1.08239X$1,22.5*
%
%ADD10C,0.13300*%
%ADD11OC8,0.07887*%
%ADD12R,0.06706X0.05918*%
%ADD13R,0.05918X0.06706*%
%ADD14R,0.04737X0.13398*%
%ADD15OC8,0.07100*%
%ADD16C,0.07100*%
%ADD17R,0.13398X0.04737*%
%ADD18R,0.14580X0.08674*%
%ADD19R,0.05524X0.05524*%
%ADD20R,0.06312X0.05918*%
%ADD21R,0.03359X0.07690*%
%ADD22R,0.17500X0.15800*%
%ADD23R,0.15800X0.17500*%
%ADD24R,0.01981X0.07099*%
%ADD25OC8,0.14918*%
%ADD26R,0.06800X0.06800*%
%ADD27C,0.06800*%
%ADD28R,0.05918X0.06312*%
%ADD29R,0.03162X0.01981*%
%ADD30R,0.02217X0.01784*%
%ADD31R,0.01784X0.02217*%
%ADD32C,0.14800*%
%ADD33R,0.02375X0.03556*%
%ADD34R,0.03556X0.02375*%
%ADD35R,0.23635X0.25997*%
%ADD36R,0.05524X0.09461*%
%ADD37R,0.07887X0.07887*%
%ADD38R,0.04737X0.01981*%
%ADD39R,0.02178X0.02769*%
%ADD40C,0.12600*%
%ADD41C,0.25469*%
%ADD42R,0.02375X0.01784*%
%ADD43C,0.06737*%
%ADD44R,0.04737X0.06312*%
%ADD45R,0.06312X0.04737*%
%ADD46R,0.06312X0.06312*%
%ADD47R,0.10249X0.11036*%
%ADD48C,0.06400*%
%ADD49R,0.03517X0.04698*%
%ADD50R,0.05524X0.02375*%
%ADD51R,0.05524X0.02178*%
%ADD52R,0.08674X0.05918*%
%ADD53R,0.08674X0.08674*%
%ADD54C,0.04762*%
%ADD55C,0.04369*%
%ADD56OC8,0.04762*%
D10*
X0233282Y0099674D03*
X0965682Y0099674D03*
X0965682Y0559674D03*
X0233282Y0559674D03*
D11*
X0380115Y0522174D03*
X0450182Y0484174D03*
X0450182Y0474174D03*
X0635586Y0491565D03*
X0645586Y0491565D03*
X0655586Y0491565D03*
X0665586Y0491565D03*
X0735682Y0537674D03*
X0745682Y0537674D03*
X0770682Y0537674D03*
X0780682Y0537674D03*
X0805682Y0537674D03*
X0815682Y0537674D03*
X0934182Y0535174D03*
X0934182Y0525174D03*
X0934182Y0545174D03*
X0934182Y0555174D03*
X0934182Y0496674D03*
X0934182Y0486674D03*
X0934182Y0476674D03*
X0934182Y0466674D03*
X0933182Y0440674D03*
X0933182Y0430674D03*
X0933182Y0420674D03*
X0933182Y0410674D03*
X0933182Y0384674D03*
X0933182Y0374674D03*
X0933182Y0364674D03*
X0933182Y0354674D03*
X0931182Y0328674D03*
X0931182Y0318674D03*
X0931182Y0308674D03*
X0931182Y0298674D03*
X0931182Y0272174D03*
X0931182Y0262174D03*
X0931182Y0252174D03*
X0931182Y0242174D03*
X0930182Y0215674D03*
X0930182Y0205674D03*
X0930182Y0195674D03*
X0930182Y0185674D03*
X0929182Y0143174D03*
X0929182Y0133174D03*
X0929182Y0123174D03*
X0929182Y0113174D03*
X0756682Y0174674D03*
X0746682Y0174674D03*
X0719682Y0174674D03*
X0709682Y0174674D03*
X0682682Y0175174D03*
X0672682Y0175174D03*
X0672182Y0134174D03*
X0682182Y0134174D03*
X0721682Y0129174D03*
X0731682Y0129174D03*
X0741682Y0129174D03*
X0751682Y0129174D03*
X0298749Y0135174D03*
X0644182Y0538674D03*
X0654182Y0538674D03*
D12*
X0519182Y0519020D03*
X0519182Y0512328D03*
X0473182Y0540828D03*
X0473182Y0547520D03*
X0463747Y0546835D03*
X0463747Y0540142D03*
X0453182Y0540328D03*
X0453182Y0547020D03*
X0444182Y0547020D03*
X0444182Y0540328D03*
X0444182Y0530020D03*
X0444182Y0523328D03*
X0448182Y0559328D03*
X0448182Y0566020D03*
X0457813Y0566020D03*
X0457813Y0559328D03*
X0468182Y0559328D03*
X0468182Y0566020D03*
X0478682Y0566020D03*
X0478682Y0559328D03*
X0545682Y0438020D03*
X0545682Y0431328D03*
X0555682Y0431328D03*
X0555682Y0438020D03*
X0605430Y0383863D03*
X0605430Y0377170D03*
X0582934Y0360178D03*
X0582934Y0353485D03*
X0647024Y0433080D03*
X0647024Y0439772D03*
X0668934Y0440178D03*
X0668934Y0433485D03*
X0870682Y0442328D03*
X0870682Y0449020D03*
X0885682Y0449020D03*
X0885682Y0442328D03*
X0915682Y0431520D03*
X0915682Y0424828D03*
X0885682Y0393020D03*
X0885682Y0386328D03*
X0870682Y0386328D03*
X0870682Y0393020D03*
X0915682Y0375520D03*
X0915682Y0368828D03*
X0883682Y0337020D03*
X0883682Y0330328D03*
X0868682Y0330328D03*
X0868682Y0337020D03*
X0913682Y0319520D03*
X0913682Y0312828D03*
X0883682Y0278020D03*
X0883682Y0271328D03*
X0868682Y0271328D03*
X0868682Y0278020D03*
X0913682Y0260520D03*
X0913682Y0253828D03*
X0882682Y0221520D03*
X0882682Y0214828D03*
X0867682Y0214828D03*
X0867682Y0221520D03*
X0912682Y0204020D03*
X0912682Y0197328D03*
X0881682Y0149020D03*
X0881682Y0142328D03*
X0866682Y0142328D03*
X0866682Y0149020D03*
X0911682Y0131520D03*
X0911682Y0124828D03*
X0575977Y0142394D03*
X0575977Y0149087D03*
X0543682Y0099020D03*
X0543682Y0092328D03*
X0483682Y0163465D03*
X0483682Y0170158D03*
X0473044Y0170292D03*
X0473044Y0163599D03*
X0462571Y0163599D03*
X0462571Y0170292D03*
X0452705Y0170292D03*
X0452705Y0163599D03*
X0482182Y0183828D03*
X0482182Y0190520D03*
X0470682Y0191020D03*
X0470682Y0184328D03*
X0459682Y0184328D03*
X0459682Y0191020D03*
X0459682Y0202328D03*
X0459682Y0209020D03*
X0480682Y0209020D03*
X0480682Y0202328D03*
X0422957Y0306898D03*
X0422957Y0313591D03*
X0423182Y0378328D03*
X0423182Y0385020D03*
X0251082Y0340720D03*
X0251082Y0334028D03*
X0240982Y0334428D03*
X0240982Y0341120D03*
X0209482Y0339828D03*
X0209482Y0346520D03*
X0214782Y0286120D03*
X0214782Y0279428D03*
X0277882Y0258220D03*
X0277882Y0251528D03*
X0277682Y0240120D03*
X0277682Y0233428D03*
X0278082Y0221920D03*
X0278082Y0215228D03*
X0250482Y0438528D03*
X0250482Y0445220D03*
X0212682Y0466228D03*
X0212682Y0472920D03*
X0871682Y0498328D03*
X0871682Y0505020D03*
X0886682Y0505020D03*
X0886682Y0498328D03*
X0916682Y0487520D03*
X0916682Y0480828D03*
X0916682Y0539328D03*
X0916682Y0546020D03*
X0886682Y0556828D03*
X0886682Y0563520D03*
X0871682Y0563520D03*
X0871682Y0556828D03*
D13*
X0814028Y0555674D03*
X0807335Y0555674D03*
X0780028Y0554374D03*
X0773335Y0554374D03*
X0743028Y0554674D03*
X0736335Y0554674D03*
X0651241Y0555312D03*
X0644548Y0555312D03*
X0560028Y0548174D03*
X0553335Y0548174D03*
X0542948Y0535043D03*
X0536255Y0535043D03*
X0519028Y0532674D03*
X0512335Y0532674D03*
X0509335Y0547674D03*
X0516028Y0547674D03*
X0501528Y0556174D03*
X0494835Y0556174D03*
X0529835Y0563174D03*
X0536528Y0563174D03*
X0492028Y0487174D03*
X0485335Y0487174D03*
X0475028Y0487174D03*
X0468335Y0487174D03*
X0468335Y0477674D03*
X0475028Y0477674D03*
X0516742Y0457501D03*
X0523435Y0457501D03*
X0534025Y0457732D03*
X0540718Y0457732D03*
X0505591Y0429945D03*
X0498898Y0429945D03*
X0487591Y0429945D03*
X0480898Y0429945D03*
X0585634Y0423501D03*
X0592327Y0423501D03*
X0592422Y0414312D03*
X0585729Y0414312D03*
X0586067Y0402154D03*
X0592760Y0402154D03*
X0637045Y0472354D03*
X0643738Y0472354D03*
X0654496Y0472172D03*
X0661189Y0472172D03*
X0345028Y0484174D03*
X0338335Y0484174D03*
X0338335Y0493674D03*
X0345028Y0493674D03*
X0345028Y0502674D03*
X0338335Y0502674D03*
X0338335Y0511674D03*
X0345028Y0511674D03*
X0238528Y0491474D03*
X0231835Y0491474D03*
X0218728Y0486074D03*
X0212035Y0486074D03*
X0229935Y0462174D03*
X0236628Y0462174D03*
X0239828Y0446874D03*
X0233135Y0446874D03*
X0233635Y0435374D03*
X0240328Y0435374D03*
X0243135Y0407874D03*
X0249828Y0407874D03*
X0218828Y0404674D03*
X0212135Y0404674D03*
X0213035Y0394674D03*
X0219728Y0394674D03*
X0244035Y0351374D03*
X0250728Y0351374D03*
X0232228Y0324874D03*
X0225535Y0324874D03*
X0230035Y0313774D03*
X0236728Y0313774D03*
X0244535Y0295474D03*
X0251228Y0295474D03*
X0253035Y0231874D03*
X0259728Y0231874D03*
X0259928Y0221174D03*
X0253235Y0221174D03*
X0255235Y0209674D03*
X0261928Y0209674D03*
X0313835Y0176174D03*
X0320528Y0176174D03*
X0333335Y0163174D03*
X0340028Y0163174D03*
X0340028Y0153174D03*
X0333335Y0153174D03*
X0333335Y0143174D03*
X0340028Y0143174D03*
X0223628Y0155174D03*
X0216935Y0155174D03*
X0216635Y0168274D03*
X0223328Y0168274D03*
X0470635Y0279774D03*
X0477328Y0279774D03*
X0504135Y0276874D03*
X0510828Y0276874D03*
X0511228Y0267174D03*
X0504535Y0267174D03*
X0541216Y0254216D03*
X0547909Y0254216D03*
X0524028Y0209674D03*
X0517335Y0209674D03*
X0517335Y0198674D03*
X0524028Y0198674D03*
X0503028Y0198674D03*
X0496335Y0198674D03*
X0496335Y0210174D03*
X0503028Y0210174D03*
X0501548Y0151068D03*
X0508241Y0151068D03*
X0673835Y0158174D03*
X0680528Y0158174D03*
X0712335Y0157674D03*
X0719028Y0157674D03*
X0748335Y0157674D03*
X0755028Y0157674D03*
X0681028Y0117174D03*
X0674335Y0117174D03*
X0745335Y0111674D03*
X0752028Y0111674D03*
D14*
X0500182Y0502635D03*
X0500182Y0522635D03*
D15*
X0407461Y0238965D03*
D16*
X0407461Y0252965D03*
D17*
X0443721Y0136174D03*
X0463721Y0136174D03*
D18*
X0526682Y0161060D03*
X0526682Y0184288D03*
X0471682Y0499560D03*
X0471682Y0522788D03*
D19*
X0487182Y0557040D03*
X0487182Y0565308D03*
X0552048Y0556174D03*
X0560316Y0556174D03*
X0696400Y0448131D03*
X0704667Y0448131D03*
X0593327Y0431509D03*
X0585060Y0431509D03*
X0354682Y0484540D03*
X0354682Y0492808D03*
X0378012Y0252556D03*
X0378012Y0244288D03*
X0449682Y0209808D03*
X0449682Y0201540D03*
X0319182Y0154808D03*
X0319182Y0146540D03*
X0200482Y0153740D03*
X0200482Y0162008D03*
X0552548Y0089674D03*
X0560816Y0089674D03*
D20*
X0911682Y0139965D03*
X0911682Y0151383D03*
X0912682Y0212465D03*
X0912682Y0223883D03*
X0913682Y0268965D03*
X0913682Y0280383D03*
X0913682Y0327965D03*
X0913682Y0339383D03*
X0915682Y0383965D03*
X0915682Y0395383D03*
X0915682Y0439965D03*
X0915682Y0451383D03*
X0916682Y0495965D03*
X0916682Y0507383D03*
X0916682Y0554465D03*
X0916682Y0565883D03*
X0656934Y0442540D03*
X0656934Y0431123D03*
X0519682Y0477965D03*
X0519682Y0489383D03*
X0421863Y0365824D03*
X0421863Y0354406D03*
D21*
X0593024Y0356450D03*
X0598024Y0356450D03*
X0603024Y0356450D03*
X0608024Y0356450D03*
X0608024Y0334402D03*
X0603024Y0334402D03*
X0598024Y0334402D03*
X0593024Y0334402D03*
X0868682Y0319698D03*
X0873682Y0319698D03*
X0878682Y0319698D03*
X0883682Y0319698D03*
X0883682Y0297650D03*
X0878682Y0297650D03*
X0873682Y0297650D03*
X0868682Y0297650D03*
X0868682Y0260698D03*
X0873682Y0260698D03*
X0878682Y0260698D03*
X0883682Y0260698D03*
X0883682Y0238650D03*
X0878682Y0238650D03*
X0873682Y0238650D03*
X0868682Y0238650D03*
X0867682Y0204198D03*
X0872682Y0204198D03*
X0877682Y0204198D03*
X0882682Y0204198D03*
X0882682Y0182150D03*
X0877682Y0182150D03*
X0872682Y0182150D03*
X0867682Y0182150D03*
X0866682Y0131698D03*
X0871682Y0131698D03*
X0876682Y0131698D03*
X0881682Y0131698D03*
X0881682Y0109650D03*
X0876682Y0109650D03*
X0871682Y0109650D03*
X0866682Y0109650D03*
X0490682Y0128650D03*
X0485682Y0128650D03*
X0480682Y0128650D03*
X0475682Y0128650D03*
X0475682Y0150698D03*
X0480682Y0150698D03*
X0485682Y0150698D03*
X0490682Y0150698D03*
X0870682Y0353650D03*
X0875682Y0353650D03*
X0880682Y0353650D03*
X0885682Y0353650D03*
X0885682Y0375698D03*
X0880682Y0375698D03*
X0875682Y0375698D03*
X0870682Y0375698D03*
X0870682Y0409650D03*
X0875682Y0409650D03*
X0880682Y0409650D03*
X0885682Y0409650D03*
X0885682Y0431698D03*
X0880682Y0431698D03*
X0875682Y0431698D03*
X0870682Y0431698D03*
X0871682Y0465650D03*
X0876682Y0465650D03*
X0881682Y0465650D03*
X0886682Y0465650D03*
X0886682Y0487698D03*
X0881682Y0487698D03*
X0876682Y0487698D03*
X0871682Y0487698D03*
X0871682Y0524150D03*
X0876682Y0524150D03*
X0881682Y0524150D03*
X0886682Y0524150D03*
X0886682Y0546198D03*
X0881682Y0546198D03*
X0876682Y0546198D03*
X0871682Y0546198D03*
X0542682Y0525198D03*
X0537682Y0525198D03*
X0532682Y0525198D03*
X0527682Y0525198D03*
X0527682Y0503150D03*
X0532682Y0503150D03*
X0537682Y0503150D03*
X0542682Y0503150D03*
D22*
X0559682Y0504124D03*
X0559682Y0529224D03*
X0901682Y0527624D03*
X0901682Y0552724D03*
X0901682Y0494224D03*
X0901682Y0469124D03*
X0900682Y0438224D03*
X0900682Y0413124D03*
X0900682Y0382224D03*
X0900682Y0357124D03*
X0898682Y0326224D03*
X0898682Y0301124D03*
X0898682Y0269724D03*
X0898682Y0244624D03*
X0897682Y0213224D03*
X0897682Y0188124D03*
X0896682Y0140724D03*
X0896682Y0115624D03*
D23*
X0516125Y0109217D03*
X0491025Y0109217D03*
D24*
X0530020Y0429981D03*
X0532520Y0429981D03*
X0535020Y0429981D03*
X0537520Y0429981D03*
X0537520Y0443367D03*
X0535020Y0443367D03*
X0532520Y0443367D03*
X0530020Y0443367D03*
D25*
X0390882Y0378375D03*
X0370882Y0378375D03*
X0303481Y0378375D03*
X0283481Y0378375D03*
X0283481Y0338690D03*
X0303481Y0338690D03*
X0303481Y0314674D03*
X0283481Y0314674D03*
X0283481Y0290383D03*
X0303481Y0290383D03*
X0327182Y0290383D03*
X0347182Y0290383D03*
X0370882Y0290383D03*
X0390882Y0290383D03*
X0390882Y0314674D03*
X0370882Y0314674D03*
X0347182Y0314674D03*
X0327182Y0314674D03*
X0370882Y0338690D03*
X0390882Y0338690D03*
D26*
X0573682Y0404674D03*
X0573682Y0414674D03*
X0573682Y0244674D03*
X0573682Y0234674D03*
D27*
X0206682Y0106174D03*
X0216682Y0106174D03*
X0252682Y0106174D03*
X0262682Y0106174D03*
X0209182Y0200674D03*
X0199182Y0200674D03*
X0199682Y0242074D03*
X0209682Y0242074D03*
X0238682Y0393274D03*
X0248682Y0393274D03*
X0198682Y0404674D03*
X0198682Y0414674D03*
X0483682Y0414674D03*
X0493682Y0414674D03*
X0503682Y0414674D03*
X0513682Y0414674D03*
X0523682Y0414674D03*
X0533682Y0414674D03*
X0543682Y0414674D03*
X0553682Y0414674D03*
X0563682Y0414674D03*
X0563682Y0404674D03*
X0553682Y0404674D03*
X0543682Y0404674D03*
X0533682Y0404674D03*
X0523682Y0404674D03*
X0513682Y0404674D03*
X0503682Y0404674D03*
X0493682Y0404674D03*
X0483682Y0404674D03*
X0483682Y0244674D03*
X0493682Y0244674D03*
X0503682Y0244674D03*
X0513682Y0244674D03*
X0523682Y0244674D03*
X0533682Y0244674D03*
X0543682Y0244674D03*
X0553682Y0244674D03*
X0563682Y0244674D03*
X0563682Y0234674D03*
X0553682Y0234674D03*
X0543682Y0234674D03*
X0533682Y0234674D03*
X0523682Y0234674D03*
X0513682Y0234674D03*
X0503682Y0234674D03*
X0493682Y0234674D03*
X0483682Y0234674D03*
D28*
X0390390Y0141674D03*
X0378973Y0141674D03*
X0294890Y0520674D03*
X0283473Y0520674D03*
X0733973Y0564674D03*
X0745390Y0564674D03*
X0770973Y0564374D03*
X0782390Y0564374D03*
X0804973Y0564674D03*
X0816390Y0564674D03*
D29*
X0509611Y0480733D03*
X0509611Y0478174D03*
X0509611Y0475615D03*
X0500753Y0475733D03*
X0500753Y0480733D03*
D30*
X0640115Y0520398D03*
X0646256Y0520398D03*
X0649335Y0524855D03*
X0655477Y0524855D03*
X0656445Y0520099D03*
X0662587Y0520099D03*
D31*
X0572201Y0522028D03*
X0572201Y0515887D03*
D32*
X0724682Y0431024D03*
X0724682Y0401024D03*
X0724682Y0326324D03*
X0724682Y0296324D03*
D33*
X0717060Y0150674D03*
X0714304Y0150674D03*
X0750304Y0150674D03*
X0753060Y0150674D03*
X0678060Y0150174D03*
X0675304Y0150174D03*
X0676304Y0110174D03*
X0679060Y0110174D03*
X0748304Y0103674D03*
X0751060Y0103674D03*
X0469304Y0206674D03*
X0493304Y0573174D03*
D34*
X0557569Y0099533D03*
X0557569Y0096777D03*
D35*
X0361682Y0152674D03*
X0314682Y0509674D03*
D36*
X0323658Y0484871D03*
X0305705Y0484871D03*
X0352705Y0177477D03*
X0370658Y0177477D03*
D37*
X0319615Y0135174D03*
X0359249Y0522174D03*
D38*
X0959583Y0388308D03*
X0959583Y0385749D03*
X0959583Y0383190D03*
X0959583Y0380631D03*
X0959583Y0378072D03*
X0959583Y0375513D03*
X0959583Y0372954D03*
X0959583Y0370394D03*
X0959583Y0367835D03*
X0959583Y0365276D03*
X0959583Y0362717D03*
X0959583Y0360158D03*
X0959583Y0357599D03*
X0959583Y0355040D03*
X0984780Y0355040D03*
X0984780Y0357599D03*
X0984780Y0360158D03*
X0984780Y0362717D03*
X0984780Y0365276D03*
X0984780Y0367835D03*
X0984780Y0370394D03*
X0984780Y0372954D03*
X0984780Y0375513D03*
X0984780Y0378072D03*
X0984780Y0380631D03*
X0984780Y0383190D03*
X0984780Y0385749D03*
X0984780Y0388308D03*
D39*
X0496020Y0275309D03*
X0493461Y0275309D03*
X0490902Y0275309D03*
X0488343Y0275309D03*
X0488343Y0267239D03*
X0490902Y0267239D03*
X0493461Y0267239D03*
X0496020Y0267239D03*
D40*
X0417282Y0102574D03*
X0350082Y0102574D03*
X0324782Y0558774D03*
X0257582Y0558774D03*
D41*
X0276432Y0551674D03*
X0305932Y0551674D03*
X0368932Y0109674D03*
X0398432Y0109674D03*
D42*
X0472060Y0205788D03*
X0472060Y0207560D03*
X0496060Y0572288D03*
X0496060Y0574060D03*
D43*
X0274945Y0139032D02*
X0269008Y0139032D01*
X0249355Y0139032D02*
X0243418Y0139032D01*
X0228945Y0140032D02*
X0223008Y0140032D01*
X0203355Y0140032D02*
X0197418Y0140032D01*
X0197418Y0122316D02*
X0203355Y0122316D01*
X0223008Y0122316D02*
X0228945Y0122316D01*
X0243418Y0121316D02*
X0249355Y0121316D01*
X0269008Y0121316D02*
X0274945Y0121316D01*
D44*
X0252722Y0311143D03*
X0245241Y0311143D03*
X0248982Y0319805D03*
D45*
X0218112Y0313574D03*
X0209451Y0309834D03*
X0209451Y0317314D03*
D46*
X0217701Y0300374D03*
X0232662Y0300374D03*
D47*
X0216982Y0420776D03*
X0216982Y0445972D03*
X0255682Y0466276D03*
X0255682Y0491472D03*
D48*
X0248382Y0380974D02*
X0248382Y0375374D01*
X0238382Y0375374D02*
X0238382Y0380974D01*
X0238582Y0366374D02*
X0238582Y0360774D01*
X0248582Y0360774D02*
X0248582Y0366374D01*
X0209382Y0261174D02*
X0209382Y0255574D01*
X0199382Y0255574D02*
X0199382Y0261174D01*
X0199082Y0223874D02*
X0199082Y0218274D01*
X0209082Y0218274D02*
X0209082Y0223874D01*
D49*
X0203122Y0279595D03*
X0199382Y0279595D03*
X0195641Y0279595D03*
X0195641Y0289792D03*
X0203122Y0289792D03*
X0218641Y0338356D03*
X0226122Y0338356D03*
X0226122Y0348553D03*
X0222382Y0348553D03*
X0218641Y0348553D03*
X0219522Y0373356D03*
X0212041Y0373356D03*
X0212041Y0383553D03*
X0215782Y0383553D03*
X0219522Y0383553D03*
D50*
X0235911Y0419035D03*
X0235911Y0421594D03*
X0235911Y0424154D03*
X0235911Y0426713D03*
X0252053Y0426713D03*
X0252053Y0424154D03*
X0252053Y0421594D03*
X0252053Y0419035D03*
X0241353Y0472135D03*
X0241353Y0474694D03*
X0241353Y0477254D03*
X0241353Y0479813D03*
X0225211Y0479813D03*
X0225211Y0477254D03*
X0225211Y0474694D03*
X0225211Y0472135D03*
D51*
X0228666Y0247313D03*
X0228666Y0244754D03*
X0228666Y0242194D03*
X0228666Y0239635D03*
X0251697Y0239635D03*
X0251697Y0242194D03*
X0251697Y0244754D03*
X0251697Y0247313D03*
D52*
X0247856Y0259987D03*
X0247856Y0274161D03*
D53*
X0232108Y0267074D03*
D54*
X0491082Y0302074D03*
X0496782Y0302374D03*
X0518982Y0277174D03*
X0560982Y0301774D03*
X0647232Y0340924D03*
X0584082Y0368374D03*
X0537882Y0465574D03*
X0544182Y0558574D03*
X0544182Y0569074D03*
X0864182Y0489174D03*
X0879182Y0501674D03*
X0879182Y0506674D03*
X0886682Y0481674D03*
X0878182Y0445674D03*
X0863182Y0433174D03*
X0885682Y0425674D03*
X0878182Y0394674D03*
X0863182Y0377174D03*
X0885682Y0369674D03*
X0876182Y0338674D03*
X0876182Y0333674D03*
X0883682Y0313674D03*
X0861182Y0259674D03*
X0883682Y0254674D03*
X0875182Y0223174D03*
X0873416Y0218174D03*
X0882682Y0198174D03*
X0874182Y0150674D03*
X0872416Y0145674D03*
X0859182Y0130674D03*
X0881682Y0125674D03*
X0886682Y0540174D03*
X0879182Y0560174D03*
X0879182Y0565174D03*
D55*
X0878682Y0553674D03*
X0866982Y0550474D03*
X0834882Y0553474D03*
X0906282Y0568774D03*
X0878682Y0496174D03*
X0827982Y0495574D03*
X0790182Y0491674D03*
X0776682Y0481774D03*
X0769782Y0472174D03*
X0778182Y0464074D03*
X0795582Y0469474D03*
X0877182Y0439674D03*
X0878182Y0389674D03*
X0877182Y0382674D03*
X0963582Y0396274D03*
X0974682Y0382774D03*
X0978182Y0374174D03*
X0960682Y0350174D03*
X0984897Y0396874D03*
X0875182Y0328174D03*
X0865182Y0323374D03*
X0876182Y0279674D03*
X0874416Y0274674D03*
X0875182Y0269174D03*
X0874682Y0212674D03*
X0862782Y0207574D03*
X0849882Y0169774D03*
X0844782Y0161374D03*
X0873182Y0139674D03*
X0772782Y0151174D03*
X0593982Y0197674D03*
X0588882Y0191674D03*
X0550482Y0201574D03*
X0529934Y0198572D03*
X0529934Y0209595D03*
X0506705Y0215894D03*
X0491745Y0204477D03*
X0497682Y0192874D03*
X0492282Y0187174D03*
X0493319Y0179674D03*
X0484280Y0176509D03*
X0479682Y0177274D03*
X0476382Y0180574D03*
X0464973Y0180068D03*
X0456312Y0177312D03*
X0454024Y0196678D03*
X0470485Y0197784D03*
X0505182Y0184174D03*
X0492532Y0169044D03*
X0496182Y0162874D03*
X0507582Y0160174D03*
X0511823Y0163532D03*
X0533682Y0142674D03*
X0568682Y0145674D03*
X0575982Y0157474D03*
X0565482Y0089674D03*
X0443682Y0128674D03*
X0396282Y0144874D03*
X0323682Y0161174D03*
X0246282Y0206974D03*
X0227382Y0229474D03*
X0245982Y0232174D03*
X0234582Y0238474D03*
X0223482Y0242674D03*
X0223782Y0252274D03*
X0264282Y0260074D03*
X0236382Y0280474D03*
X0227682Y0292474D03*
X0214482Y0293074D03*
X0208482Y0302074D03*
X0203682Y0312274D03*
X0195582Y0301174D03*
X0226122Y0332074D03*
X0240582Y0326374D03*
X0255882Y0321274D03*
X0263082Y0351574D03*
X0234582Y0354574D03*
X0222582Y0358174D03*
X0223482Y0365974D03*
X0211482Y0355174D03*
X0204282Y0383374D03*
X0204282Y0394774D03*
X0244482Y0414274D03*
X0228882Y0419374D03*
X0259182Y0438274D03*
X0251982Y0453874D03*
X0237282Y0455674D03*
X0216582Y0456574D03*
X0243882Y0491374D03*
X0353182Y0498174D03*
X0443682Y0516674D03*
X0451682Y0529174D03*
X0473182Y0533674D03*
X0479682Y0544243D03*
X0487682Y0533174D03*
X0498282Y0544174D03*
X0502911Y0550403D03*
X0509682Y0539674D03*
X0518432Y0539924D03*
X0531282Y0544774D03*
X0543282Y0542974D03*
X0547182Y0549674D03*
X0564682Y0556174D03*
X0527382Y0570574D03*
X0520182Y0569674D03*
X0509082Y0570274D03*
X0504282Y0566974D03*
X0502375Y0562351D03*
X0495288Y0567469D03*
X0491682Y0563674D03*
X0468682Y0572674D03*
X0452758Y0554751D03*
X0441682Y0553674D03*
X0493182Y0523674D03*
X0505682Y0523674D03*
X0505182Y0530674D03*
X0509682Y0513174D03*
X0506682Y0504174D03*
X0519682Y0505174D03*
X0527682Y0497674D03*
X0500682Y0484174D03*
X0487782Y0475733D03*
X0502482Y0466474D03*
X0537536Y0449801D03*
X0555670Y0444680D03*
X0579682Y0430674D03*
X0598682Y0422674D03*
X0599682Y0403674D03*
X0587682Y0395674D03*
X0589182Y0381274D03*
X0575682Y0357674D03*
X0604808Y0350547D03*
X0613682Y0346674D03*
X0648132Y0348124D03*
X0706482Y0400174D03*
X0707082Y0407074D03*
X0656982Y0447874D03*
X0704082Y0454174D03*
X0575603Y0514320D03*
X0546182Y0528174D03*
X0523482Y0525874D03*
X0514182Y0433174D03*
X0521682Y0429674D03*
X0549882Y0389883D03*
X0500682Y0383674D03*
X0422847Y0393060D03*
X0465282Y0301174D03*
X0476682Y0268774D03*
X0494682Y0271474D03*
X0499782Y0259174D03*
X0521382Y0265774D03*
X0556182Y0257674D03*
X0267282Y0231874D03*
X0204282Y0185674D03*
D56*
X0527382Y0464974D03*
M02*
