G75*
%MOIN*%
%OFA0B0*%
%FSLAX25Y25*%
%IPPOS*%
%LPD*%
%AMOC8*
5,1,8,0,0,1.08239X$1,22.5*
%
%ADD10C,0.13300*%
%ADD11OC8,0.07887*%
%ADD12OC8,0.07100*%
%ADD13C,0.07100*%
%ADD14R,0.05918X0.06706*%
%ADD15OC8,0.14918*%
%ADD16R,0.06800X0.06800*%
%ADD17C,0.06800*%
%ADD18C,0.14800*%
%ADD19R,0.07887X0.07887*%
%ADD20R,0.05315X0.01772*%
%ADD21C,0.12600*%
%ADD22C,0.25469*%
%ADD23C,0.06737*%
%ADD24C,0.06400*%
%ADD25C,0.04762*%
%ADD26C,0.04369*%
%ADD27OC8,0.04762*%
D10*
X0233282Y0099674D03*
X0965682Y0099674D03*
X0965682Y0559674D03*
X0233282Y0559674D03*
D11*
X0380115Y0522174D03*
X0450182Y0484174D03*
X0450182Y0474174D03*
X0635586Y0491565D03*
X0645586Y0491565D03*
X0655586Y0491565D03*
X0665586Y0491565D03*
X0735682Y0537674D03*
X0745682Y0537674D03*
X0770682Y0537674D03*
X0780682Y0537674D03*
X0805682Y0537674D03*
X0815682Y0537674D03*
X0934182Y0535174D03*
X0934182Y0525174D03*
X0934182Y0545174D03*
X0934182Y0555174D03*
X0934182Y0496674D03*
X0934182Y0486674D03*
X0934182Y0476674D03*
X0934182Y0466674D03*
X0933182Y0440674D03*
X0933182Y0430674D03*
X0933182Y0420674D03*
X0933182Y0410674D03*
X0933182Y0384674D03*
X0933182Y0374674D03*
X0933182Y0364674D03*
X0933182Y0354674D03*
X0931182Y0328674D03*
X0931182Y0318674D03*
X0931182Y0308674D03*
X0931182Y0298674D03*
X0931182Y0272174D03*
X0931182Y0262174D03*
X0931182Y0252174D03*
X0931182Y0242174D03*
X0930182Y0215674D03*
X0930182Y0205674D03*
X0930182Y0195674D03*
X0930182Y0185674D03*
X0929182Y0143174D03*
X0929182Y0133174D03*
X0929182Y0123174D03*
X0929182Y0113174D03*
X0756682Y0174674D03*
X0746682Y0174674D03*
X0719682Y0174674D03*
X0709682Y0174674D03*
X0682682Y0175174D03*
X0672682Y0175174D03*
X0672182Y0134174D03*
X0682182Y0134174D03*
X0721682Y0129174D03*
X0731682Y0129174D03*
X0741682Y0129174D03*
X0751682Y0129174D03*
X0298749Y0135174D03*
X0644182Y0538674D03*
X0654182Y0538674D03*
D12*
X0407461Y0238965D03*
D13*
X0407461Y0252965D03*
D14*
X0809335Y0458674D03*
X0816028Y0458674D03*
X0815228Y0491774D03*
X0808535Y0491774D03*
D15*
X0390882Y0378375D03*
X0370882Y0378375D03*
X0303481Y0378375D03*
X0283481Y0378375D03*
X0283481Y0338690D03*
X0303481Y0338690D03*
X0303481Y0314674D03*
X0283481Y0314674D03*
X0283481Y0290383D03*
X0303481Y0290383D03*
X0327182Y0290383D03*
X0347182Y0290383D03*
X0370882Y0290383D03*
X0390882Y0290383D03*
X0390882Y0314674D03*
X0370882Y0314674D03*
X0347182Y0314674D03*
X0327182Y0314674D03*
X0370882Y0338690D03*
X0390882Y0338690D03*
D16*
X0573682Y0404674D03*
X0573682Y0414674D03*
X0573682Y0244674D03*
X0573682Y0234674D03*
D17*
X0206682Y0106174D03*
X0216682Y0106174D03*
X0252682Y0106174D03*
X0262682Y0106174D03*
X0209182Y0200674D03*
X0199182Y0200674D03*
X0199682Y0242074D03*
X0209682Y0242074D03*
X0238682Y0393274D03*
X0248682Y0393274D03*
X0198682Y0404674D03*
X0198682Y0414674D03*
X0483682Y0414674D03*
X0493682Y0414674D03*
X0503682Y0414674D03*
X0513682Y0414674D03*
X0523682Y0414674D03*
X0533682Y0414674D03*
X0543682Y0414674D03*
X0553682Y0414674D03*
X0563682Y0414674D03*
X0563682Y0404674D03*
X0553682Y0404674D03*
X0543682Y0404674D03*
X0533682Y0404674D03*
X0523682Y0404674D03*
X0513682Y0404674D03*
X0503682Y0404674D03*
X0493682Y0404674D03*
X0483682Y0404674D03*
X0483682Y0244674D03*
X0493682Y0244674D03*
X0503682Y0244674D03*
X0513682Y0244674D03*
X0523682Y0244674D03*
X0533682Y0244674D03*
X0543682Y0244674D03*
X0553682Y0244674D03*
X0563682Y0244674D03*
X0563682Y0234674D03*
X0553682Y0234674D03*
X0543682Y0234674D03*
X0533682Y0234674D03*
X0523682Y0234674D03*
X0513682Y0234674D03*
X0503682Y0234674D03*
X0493682Y0234674D03*
X0483682Y0234674D03*
D18*
X0724682Y0296324D03*
X0724682Y0326324D03*
X0724682Y0401024D03*
X0724682Y0431024D03*
D19*
X0359249Y0522174D03*
X0319615Y0135174D03*
D20*
X0801166Y0465717D03*
X0801166Y0468276D03*
X0801166Y0470835D03*
X0801166Y0473394D03*
X0801166Y0475954D03*
X0801166Y0478513D03*
X0801166Y0481072D03*
X0801166Y0483631D03*
X0824197Y0483631D03*
X0824197Y0481072D03*
X0824197Y0478513D03*
X0824197Y0475954D03*
X0824197Y0473394D03*
X0824197Y0470835D03*
X0824197Y0468276D03*
X0824197Y0465717D03*
D21*
X0324782Y0558774D03*
X0257582Y0558774D03*
X0350082Y0102574D03*
X0417282Y0102574D03*
D22*
X0398432Y0109674D03*
X0368932Y0109674D03*
X0305932Y0551674D03*
X0276432Y0551674D03*
D23*
X0274945Y0139032D02*
X0269008Y0139032D01*
X0249355Y0139032D02*
X0243418Y0139032D01*
X0228945Y0140032D02*
X0223008Y0140032D01*
X0203355Y0140032D02*
X0197418Y0140032D01*
X0197418Y0122316D02*
X0203355Y0122316D01*
X0223008Y0122316D02*
X0228945Y0122316D01*
X0243418Y0121316D02*
X0249355Y0121316D01*
X0269008Y0121316D02*
X0274945Y0121316D01*
D24*
X0209082Y0218274D02*
X0209082Y0223874D01*
X0199082Y0223874D02*
X0199082Y0218274D01*
X0199382Y0255574D02*
X0199382Y0261174D01*
X0209382Y0261174D02*
X0209382Y0255574D01*
X0238582Y0360774D02*
X0238582Y0366374D01*
X0248582Y0366374D02*
X0248582Y0360774D01*
X0248382Y0375374D02*
X0248382Y0380974D01*
X0238382Y0380974D02*
X0238382Y0375374D01*
D25*
X0491082Y0302074D03*
X0496782Y0302374D03*
X0518982Y0277174D03*
X0560982Y0301774D03*
X0647232Y0340924D03*
X0584082Y0368374D03*
X0537882Y0465574D03*
X0544182Y0558574D03*
X0544182Y0569074D03*
X0864182Y0489174D03*
X0879182Y0501674D03*
X0879182Y0506674D03*
X0886682Y0481674D03*
X0878182Y0445674D03*
X0863182Y0433174D03*
X0885682Y0425674D03*
X0878182Y0394674D03*
X0863182Y0377174D03*
X0885682Y0369674D03*
X0876182Y0338674D03*
X0876182Y0333674D03*
X0883682Y0313674D03*
X0861182Y0259674D03*
X0883682Y0254674D03*
X0875182Y0223174D03*
X0873416Y0218174D03*
X0882682Y0198174D03*
X0874182Y0150674D03*
X0872416Y0145674D03*
X0859182Y0130674D03*
X0881682Y0125674D03*
X0886682Y0540174D03*
X0879182Y0560174D03*
X0879182Y0565174D03*
D26*
X0878682Y0553674D03*
X0866982Y0550474D03*
X0834882Y0553474D03*
X0906282Y0568774D03*
X0878682Y0496174D03*
X0827982Y0495574D03*
X0790182Y0491674D03*
X0776682Y0481774D03*
X0769782Y0472174D03*
X0778182Y0464074D03*
X0795582Y0469474D03*
X0877182Y0439674D03*
X0878182Y0389674D03*
X0877182Y0382674D03*
X0963582Y0396274D03*
X0974682Y0382774D03*
X0978182Y0374174D03*
X0960682Y0350174D03*
X0984897Y0396874D03*
X0875182Y0328174D03*
X0865182Y0323374D03*
X0876182Y0279674D03*
X0874416Y0274674D03*
X0875182Y0269174D03*
X0874682Y0212674D03*
X0862782Y0207574D03*
X0849882Y0169774D03*
X0844782Y0161374D03*
X0873182Y0139674D03*
X0772782Y0151174D03*
X0593982Y0197674D03*
X0588882Y0191674D03*
X0550482Y0201574D03*
X0529934Y0198572D03*
X0529934Y0209595D03*
X0506705Y0215894D03*
X0491745Y0204477D03*
X0497682Y0192874D03*
X0492282Y0187174D03*
X0493319Y0179674D03*
X0484280Y0176509D03*
X0479682Y0177274D03*
X0476382Y0180574D03*
X0464973Y0180068D03*
X0456312Y0177312D03*
X0454024Y0196678D03*
X0470485Y0197784D03*
X0505182Y0184174D03*
X0492532Y0169044D03*
X0496182Y0162874D03*
X0507582Y0160174D03*
X0511823Y0163532D03*
X0533682Y0142674D03*
X0568682Y0145674D03*
X0575982Y0157474D03*
X0565482Y0089674D03*
X0443682Y0128674D03*
X0396282Y0144874D03*
X0323682Y0161174D03*
X0246282Y0206974D03*
X0227382Y0229474D03*
X0245982Y0232174D03*
X0234582Y0238474D03*
X0223482Y0242674D03*
X0223782Y0252274D03*
X0264282Y0260074D03*
X0236382Y0280474D03*
X0227682Y0292474D03*
X0214482Y0293074D03*
X0208482Y0302074D03*
X0203682Y0312274D03*
X0195582Y0301174D03*
X0226122Y0332074D03*
X0240582Y0326374D03*
X0255882Y0321274D03*
X0263082Y0351574D03*
X0234582Y0354574D03*
X0222582Y0358174D03*
X0223482Y0365974D03*
X0211482Y0355174D03*
X0204282Y0383374D03*
X0204282Y0394774D03*
X0244482Y0414274D03*
X0228882Y0419374D03*
X0259182Y0438274D03*
X0251982Y0453874D03*
X0237282Y0455674D03*
X0216582Y0456574D03*
X0243882Y0491374D03*
X0353182Y0498174D03*
X0443682Y0516674D03*
X0451682Y0529174D03*
X0473182Y0533674D03*
X0479682Y0544243D03*
X0487682Y0533174D03*
X0498282Y0544174D03*
X0502911Y0550403D03*
X0509682Y0539674D03*
X0518432Y0539924D03*
X0531282Y0544774D03*
X0543282Y0542974D03*
X0547182Y0549674D03*
X0564682Y0556174D03*
X0527382Y0570574D03*
X0520182Y0569674D03*
X0509082Y0570274D03*
X0504282Y0566974D03*
X0502375Y0562351D03*
X0495288Y0567469D03*
X0491682Y0563674D03*
X0468682Y0572674D03*
X0452758Y0554751D03*
X0441682Y0553674D03*
X0493182Y0523674D03*
X0505682Y0523674D03*
X0505182Y0530674D03*
X0509682Y0513174D03*
X0506682Y0504174D03*
X0519682Y0505174D03*
X0527682Y0497674D03*
X0500682Y0484174D03*
X0487782Y0475733D03*
X0502482Y0466474D03*
X0537536Y0449801D03*
X0555670Y0444680D03*
X0579682Y0430674D03*
X0598682Y0422674D03*
X0599682Y0403674D03*
X0587682Y0395674D03*
X0589182Y0381274D03*
X0575682Y0357674D03*
X0604808Y0350547D03*
X0613682Y0346674D03*
X0648132Y0348124D03*
X0706482Y0400174D03*
X0707082Y0407074D03*
X0656982Y0447874D03*
X0704082Y0454174D03*
X0575603Y0514320D03*
X0546182Y0528174D03*
X0523482Y0525874D03*
X0514182Y0433174D03*
X0521682Y0429674D03*
X0549882Y0389883D03*
X0500682Y0383674D03*
X0422847Y0393060D03*
X0465282Y0301174D03*
X0476682Y0268774D03*
X0494682Y0271474D03*
X0499782Y0259174D03*
X0521382Y0265774D03*
X0556182Y0257674D03*
X0267282Y0231874D03*
X0204282Y0185674D03*
D27*
X0527382Y0464974D03*
M02*
