G75*
%MOIN*%
%OFA0B0*%
%FSLAX25Y25*%
%IPPOS*%
%LPD*%
%AMOC8*
5,1,8,0,0,1.08239X$1,22.5*
%
%ADD10C,0.00500*%
%ADD11C,0.00800*%
%ADD12C,0.02559*%
D10*
X0711682Y0119174D02*
X0711682Y0139174D01*
X0761682Y0139174D01*
X0761682Y0119174D01*
X0711682Y0119174D01*
X0811263Y0449019D02*
X0814869Y0449019D01*
X0811263Y0452625D01*
X0811263Y0453527D01*
X0812164Y0454429D01*
X0813968Y0454429D01*
X0814869Y0453527D01*
X0816700Y0453527D02*
X0817602Y0454429D01*
X0819405Y0454429D01*
X0820307Y0453527D01*
X0822138Y0453527D02*
X0822138Y0451724D01*
X0823040Y0450822D01*
X0825745Y0450822D01*
X0825745Y0449019D02*
X0825745Y0454429D01*
X0823040Y0454429D01*
X0822138Y0453527D01*
X0823941Y0450822D02*
X0822138Y0449019D01*
X0820307Y0449019D02*
X0816700Y0452625D01*
X0816700Y0453527D01*
X0816700Y0449019D02*
X0820307Y0449019D01*
X0818105Y0482119D02*
X0816302Y0482119D01*
X0815400Y0483020D01*
X0813569Y0483020D02*
X0813569Y0482119D01*
X0813569Y0483020D02*
X0809963Y0486627D01*
X0809963Y0487529D01*
X0813569Y0487529D01*
X0813072Y0488243D02*
X0810367Y0488243D01*
X0809465Y0489145D01*
X0809465Y0490948D01*
X0810367Y0491850D01*
X0813072Y0491850D01*
X0813072Y0486440D01*
X0814903Y0486440D02*
X0814903Y0491850D01*
X0814903Y0489145D02*
X0818510Y0489145D01*
X0818105Y0487529D02*
X0819007Y0486627D01*
X0819007Y0483020D01*
X0818105Y0482119D01*
X0818510Y0486440D02*
X0818510Y0491850D01*
X0820341Y0491850D02*
X0823947Y0491850D01*
X0822144Y0491850D02*
X0822144Y0486440D01*
X0818105Y0487529D02*
X0816302Y0487529D01*
X0815400Y0486627D01*
X0811269Y0488243D02*
X0809465Y0486440D01*
X0807634Y0487341D02*
X0806733Y0486440D01*
X0804929Y0486440D01*
X0804028Y0487341D01*
X0804028Y0491850D01*
X0802197Y0490948D02*
X0802197Y0490047D01*
X0801295Y0489145D01*
X0799492Y0489145D01*
X0798590Y0488243D01*
X0798590Y0487341D01*
X0799492Y0486440D01*
X0801295Y0486440D01*
X0802197Y0487341D01*
X0802197Y0490948D02*
X0801295Y0491850D01*
X0799492Y0491850D01*
X0798590Y0490948D01*
X0796759Y0491850D02*
X0793152Y0491850D01*
X0794955Y0491850D02*
X0794955Y0486440D01*
X0791321Y0486440D02*
X0791321Y0491850D01*
X0787714Y0491850D01*
X0785883Y0491850D02*
X0783178Y0491850D01*
X0782277Y0490948D01*
X0782277Y0489145D01*
X0783178Y0488243D01*
X0785883Y0488243D01*
X0784080Y0488243D02*
X0782277Y0486440D01*
X0780446Y0485538D02*
X0776839Y0485538D01*
X0775008Y0487341D02*
X0774106Y0486440D01*
X0772303Y0486440D01*
X0771401Y0487341D01*
X0769570Y0487341D02*
X0768669Y0486440D01*
X0766865Y0486440D01*
X0765964Y0487341D01*
X0765964Y0491850D01*
X0764133Y0491850D02*
X0761428Y0491850D01*
X0760526Y0490948D01*
X0760526Y0489145D01*
X0761428Y0488243D01*
X0764133Y0488243D01*
X0764133Y0486440D02*
X0764133Y0491850D01*
X0762329Y0488243D02*
X0760526Y0486440D01*
X0758695Y0486440D02*
X0758695Y0491850D01*
X0755990Y0491850D01*
X0755088Y0490948D01*
X0755088Y0489145D01*
X0755990Y0488243D01*
X0758695Y0488243D01*
X0756892Y0488243D02*
X0755088Y0486440D01*
X0753257Y0485538D02*
X0749650Y0485538D01*
X0747819Y0486440D02*
X0747819Y0490047D01*
X0746016Y0491850D01*
X0744213Y0490047D01*
X0744213Y0486440D01*
X0742382Y0486440D02*
X0742382Y0491850D01*
X0739677Y0491850D01*
X0738775Y0490948D01*
X0738775Y0487341D01*
X0739677Y0486440D01*
X0742382Y0486440D01*
X0744213Y0489145D02*
X0747819Y0489145D01*
X0736944Y0490948D02*
X0736944Y0487341D01*
X0736042Y0486440D01*
X0734239Y0486440D01*
X0733337Y0487341D01*
X0733337Y0490948D02*
X0734239Y0491850D01*
X0736042Y0491850D01*
X0736944Y0490948D01*
X0769570Y0491850D02*
X0769570Y0487341D01*
X0771401Y0490948D02*
X0772303Y0491850D01*
X0774106Y0491850D01*
X0775008Y0490948D01*
X0775008Y0487341D01*
X0785883Y0486440D02*
X0785883Y0491850D01*
X0789518Y0489145D02*
X0791321Y0489145D01*
X0791321Y0486440D02*
X0787714Y0486440D01*
X0807634Y0487341D02*
X0807634Y0491850D01*
D11*
X0804217Y0485304D02*
X0821146Y0485304D01*
X0821146Y0464044D01*
X0804217Y0464044D01*
X0804217Y0485304D01*
D12*
X0819079Y0482351D03*
M02*
