G75*
%MOIN*%
%OFA0B0*%
%FSLAX25Y25*%
%IPPOS*%
%LPD*%
%AMOC8*
5,1,8,0,0,1.08239X$1,22.5*
%
%ADD10R,0.06890X0.02559*%
%ADD11OC8,0.07087*%
%ADD12OC8,0.08250*%
%ADD13C,0.14000*%
%ADD14R,0.02559X0.06890*%
%ADD15R,0.05118X0.05906*%
%ADD16R,0.05906X0.05118*%
%ADD17R,0.08661X0.02362*%
%ADD18OC8,0.04559*%
%ADD19C,0.24669*%
%ADD20OC8,0.14118*%
%ADD21R,0.04724X0.01378*%
%ADD22C,0.15200*%
%ADD23R,0.04559X0.04559*%
%ADD24C,0.01600*%
%ADD25C,0.02000*%
%ADD26C,0.03175*%
%ADD27C,0.01000*%
%ADD28C,0.00600*%
%ADD29C,0.10000*%
%ADD30C,0.05000*%
D10*
X0211976Y0280421D03*
X0211976Y0285421D03*
X0211976Y0290421D03*
X0211976Y0295421D03*
X0234024Y0295421D03*
X0234024Y0290421D03*
X0234024Y0285421D03*
X0234024Y0280421D03*
X0438976Y0243421D03*
X0438976Y0238421D03*
X0438976Y0233421D03*
X0438976Y0228421D03*
X0461024Y0228421D03*
X0461024Y0233421D03*
X0461024Y0238421D03*
X0461024Y0243421D03*
D11*
X0477000Y0286921D03*
X0477000Y0296921D03*
X0477000Y0339921D03*
X0477000Y0349921D03*
X0037000Y0054921D03*
X0037000Y0044921D03*
X0026000Y0246921D03*
X0026000Y0256921D03*
X0026000Y0306921D03*
X0026000Y0316921D03*
D12*
X0347250Y0269421D03*
X0347250Y0194421D03*
X0397250Y0194421D03*
X0409750Y0194421D03*
X0422250Y0194421D03*
X0484750Y0194421D03*
X0484750Y0269421D03*
D13*
X0228350Y0171921D03*
X0198350Y0171921D03*
X0123650Y0171921D03*
X0093650Y0171921D03*
D14*
X0258500Y0170898D03*
X0263500Y0170898D03*
X0268500Y0170898D03*
X0273500Y0170898D03*
X0273500Y0192945D03*
X0268500Y0192945D03*
X0263500Y0192945D03*
X0258500Y0192945D03*
X0368500Y0339898D03*
X0373500Y0339898D03*
X0378500Y0339898D03*
X0383500Y0339898D03*
X0383500Y0361945D03*
X0378500Y0361945D03*
X0373500Y0361945D03*
X0368500Y0361945D03*
D15*
X0409654Y0368921D03*
X0416346Y0368921D03*
X0299346Y0313921D03*
X0292654Y0313921D03*
X0260346Y0293921D03*
X0253654Y0293921D03*
X0255346Y0280921D03*
X0248654Y0280921D03*
X0247654Y0206921D03*
X0254346Y0206921D03*
X0407654Y0176921D03*
X0414346Y0176921D03*
X0412654Y0226921D03*
X0419346Y0226921D03*
X0421346Y0238921D03*
X0414654Y0238921D03*
D16*
X0450000Y0158268D03*
X0450000Y0151575D03*
X0281000Y0228575D03*
X0281000Y0235268D03*
X0281000Y0248575D03*
X0281000Y0255268D03*
X0238000Y0252575D03*
X0238000Y0259268D03*
X0238000Y0241268D03*
X0238000Y0234575D03*
X0271000Y0215268D03*
X0271000Y0208575D03*
X0190000Y0294575D03*
X0190000Y0301268D03*
X0346000Y0319575D03*
X0346000Y0326268D03*
D17*
X0373890Y0319421D03*
X0373890Y0314421D03*
X0373890Y0309421D03*
X0373890Y0304421D03*
X0373890Y0299421D03*
X0373890Y0294421D03*
X0373890Y0289421D03*
X0373890Y0284421D03*
X0410110Y0284421D03*
X0410110Y0289421D03*
X0410110Y0294421D03*
X0410110Y0299421D03*
X0410110Y0304421D03*
X0410110Y0309421D03*
X0410110Y0314421D03*
X0410110Y0319421D03*
D18*
X0473000Y0070984D03*
X0473000Y0048484D03*
D19*
X0046000Y0142171D03*
X0046000Y0171671D03*
D20*
X0288299Y0137213D03*
X0308299Y0137213D03*
X0332000Y0137213D03*
X0352000Y0137213D03*
X0375701Y0137213D03*
X0395701Y0137213D03*
X0395701Y0112921D03*
X0375701Y0112921D03*
X0352000Y0112921D03*
X0332000Y0112921D03*
X0308299Y0112921D03*
X0288299Y0112921D03*
X0288299Y0088906D03*
X0308299Y0088906D03*
X0308299Y0049221D03*
X0288299Y0049221D03*
X0375701Y0049221D03*
X0395701Y0049221D03*
X0395701Y0088906D03*
X0375701Y0088906D03*
D21*
X0222516Y0237965D03*
X0222516Y0240524D03*
X0222516Y0243083D03*
X0222516Y0245642D03*
X0222516Y0248201D03*
X0222516Y0250760D03*
X0222516Y0253319D03*
X0222516Y0255878D03*
X0199484Y0255878D03*
X0199484Y0253319D03*
X0199484Y0250760D03*
X0199484Y0248201D03*
X0199484Y0245642D03*
X0199484Y0243083D03*
X0199484Y0240524D03*
X0199484Y0237965D03*
D22*
X0161000Y0261921D03*
X0161000Y0291921D03*
X0161000Y0311921D03*
X0081000Y0301921D03*
X0081000Y0341921D03*
X0081000Y0261921D03*
D23*
X0281000Y0343921D03*
X0291000Y0343921D03*
X0301000Y0343921D03*
D24*
X0301000Y0315575D01*
X0299346Y0313921D01*
X0297000Y0313456D02*
X0311535Y0313456D01*
X0309937Y0311858D02*
X0297000Y0311858D01*
X0297000Y0310259D02*
X0308338Y0310259D01*
X0306739Y0308661D02*
X0297000Y0308661D01*
X0297000Y0307921D02*
X0297000Y0349921D01*
X0293000Y0353921D01*
X0293000Y0368921D01*
X0294000Y0369921D01*
X0369000Y0369921D01*
X0372000Y0366921D01*
X0372000Y0366790D01*
X0371641Y0366790D01*
X0370820Y0365970D01*
X0370820Y0357920D01*
X0371641Y0357100D01*
X0372000Y0357100D01*
X0372000Y0350921D01*
X0373800Y0349121D01*
X0373800Y0332010D01*
X0375089Y0330721D01*
X0376000Y0330721D01*
X0376000Y0324921D01*
X0375000Y0323921D01*
X0322000Y0323921D01*
X0305000Y0306921D01*
X0298000Y0306921D01*
X0297000Y0307921D01*
X0297859Y0307062D02*
X0305141Y0307062D01*
X0313134Y0315055D02*
X0297000Y0315055D01*
X0297000Y0316654D02*
X0314732Y0316654D01*
X0316331Y0318252D02*
X0297000Y0318252D01*
X0297000Y0319851D02*
X0317929Y0319851D01*
X0319528Y0321449D02*
X0297000Y0321449D01*
X0297000Y0323048D02*
X0321126Y0323048D01*
X0297000Y0324646D02*
X0375725Y0324646D01*
X0376000Y0326245D02*
X0297000Y0326245D01*
X0297000Y0327843D02*
X0376000Y0327843D01*
X0376000Y0329442D02*
X0297000Y0329442D01*
X0297000Y0331040D02*
X0374770Y0331040D01*
X0373800Y0332639D02*
X0297000Y0332639D01*
X0297000Y0334237D02*
X0373800Y0334237D01*
X0373800Y0335836D02*
X0297000Y0335836D01*
X0297000Y0337434D02*
X0373800Y0337434D01*
X0373800Y0339033D02*
X0297000Y0339033D01*
X0297000Y0340631D02*
X0373800Y0340631D01*
X0373800Y0342230D02*
X0297000Y0342230D01*
X0297000Y0343828D02*
X0340882Y0343828D01*
X0341638Y0343392D02*
X0339062Y0344879D01*
X0336958Y0346983D01*
X0335470Y0349560D01*
X0334700Y0352434D01*
X0334700Y0355409D01*
X0335470Y0358283D01*
X0336958Y0360860D01*
X0339062Y0362964D01*
X0341638Y0364451D01*
X0344512Y0365221D01*
X0347488Y0365221D01*
X0350362Y0364451D01*
X0352938Y0362964D01*
X0355042Y0360860D01*
X0356530Y0358283D01*
X0357300Y0355409D01*
X0357300Y0352434D01*
X0356530Y0349560D01*
X0355042Y0346983D01*
X0352938Y0344879D01*
X0350362Y0343392D01*
X0347488Y0342621D01*
X0344512Y0342621D01*
X0341638Y0343392D01*
X0338514Y0345427D02*
X0297000Y0345427D01*
X0297000Y0347025D02*
X0336933Y0347025D01*
X0336011Y0348624D02*
X0297000Y0348624D01*
X0296699Y0350222D02*
X0335293Y0350222D01*
X0334864Y0351821D02*
X0295101Y0351821D01*
X0293502Y0353419D02*
X0334700Y0353419D01*
X0334700Y0355018D02*
X0293000Y0355018D01*
X0293000Y0356616D02*
X0335023Y0356616D01*
X0335452Y0358215D02*
X0293000Y0358215D01*
X0293000Y0359813D02*
X0336354Y0359813D01*
X0337510Y0361412D02*
X0293000Y0361412D01*
X0293000Y0363010D02*
X0339142Y0363010D01*
X0342226Y0364609D02*
X0293000Y0364609D01*
X0293000Y0366207D02*
X0371058Y0366207D01*
X0371116Y0367806D02*
X0293000Y0367806D01*
X0293483Y0369404D02*
X0369517Y0369404D01*
X0370820Y0364609D02*
X0349774Y0364609D01*
X0352858Y0363010D02*
X0370820Y0363010D01*
X0370820Y0361412D02*
X0354490Y0361412D01*
X0355646Y0359813D02*
X0370820Y0359813D01*
X0370820Y0358215D02*
X0356548Y0358215D01*
X0356977Y0356616D02*
X0372000Y0356616D01*
X0372000Y0355018D02*
X0357300Y0355018D01*
X0357300Y0353419D02*
X0372000Y0353419D01*
X0372000Y0351821D02*
X0357136Y0351821D01*
X0356707Y0350222D02*
X0372699Y0350222D01*
X0373800Y0348624D02*
X0355989Y0348624D01*
X0355067Y0347025D02*
X0373800Y0347025D01*
X0373800Y0345427D02*
X0353486Y0345427D01*
X0351118Y0343828D02*
X0373800Y0343828D01*
X0376000Y0344102D02*
X0376000Y0348921D01*
X0384000Y0356921D01*
X0485000Y0356921D01*
X0486000Y0355921D01*
X0486000Y0344921D01*
X0393000Y0344921D01*
X0388000Y0339921D01*
X0388000Y0333921D01*
X0377000Y0333921D01*
X0376000Y0332921D01*
X0376000Y0335694D01*
X0376180Y0335873D01*
X0376180Y0343923D01*
X0376000Y0344102D01*
X0376180Y0343828D02*
X0391907Y0343828D01*
X0390308Y0342230D02*
X0376180Y0342230D01*
X0376180Y0340631D02*
X0388710Y0340631D01*
X0388000Y0339033D02*
X0376180Y0339033D01*
X0376180Y0337434D02*
X0388000Y0337434D01*
X0388000Y0335836D02*
X0376142Y0335836D01*
X0376000Y0334237D02*
X0388000Y0334237D01*
X0376000Y0345427D02*
X0486000Y0345427D01*
X0486000Y0347025D02*
X0376000Y0347025D01*
X0376000Y0348624D02*
X0486000Y0348624D01*
X0486000Y0350222D02*
X0377301Y0350222D01*
X0378899Y0351821D02*
X0486000Y0351821D01*
X0486000Y0353419D02*
X0380498Y0353419D01*
X0382096Y0355018D02*
X0486000Y0355018D01*
X0485305Y0356616D02*
X0383695Y0356616D01*
X0397250Y0309421D02*
X0397250Y0194421D01*
X0407654Y0194421D02*
X0407654Y0176921D01*
X0421200Y0182721D02*
X0421200Y0190769D01*
X0419911Y0192058D01*
X0419000Y0192969D01*
X0419000Y0198630D01*
X0431292Y0210921D01*
X0445000Y0210921D01*
X0448000Y0213921D01*
X0448000Y0233921D01*
X0450000Y0235921D01*
X0456819Y0235921D01*
X0456999Y0235742D01*
X0465048Y0235742D01*
X0465228Y0235921D01*
X0486000Y0235921D01*
X0494000Y0227921D01*
X0494000Y0155921D01*
X0484111Y0155921D01*
X0485124Y0156934D01*
X0485594Y0156934D01*
X0486692Y0157389D01*
X0487533Y0158229D01*
X0487987Y0159327D01*
X0487987Y0160516D01*
X0487533Y0161614D01*
X0486692Y0162454D01*
X0485594Y0162909D01*
X0484406Y0162909D01*
X0483308Y0162454D01*
X0482467Y0161614D01*
X0482013Y0160516D01*
X0482013Y0160045D01*
X0477889Y0155921D01*
X0425000Y0155921D01*
X0425000Y0178921D01*
X0421200Y0182721D01*
X0421543Y0182379D02*
X0494000Y0182379D01*
X0494000Y0183977D02*
X0421200Y0183977D01*
X0421200Y0185576D02*
X0494000Y0185576D01*
X0494000Y0187174D02*
X0421200Y0187174D01*
X0421200Y0188773D02*
X0494000Y0188773D01*
X0494000Y0190371D02*
X0421200Y0190371D01*
X0420000Y0191970D02*
X0494000Y0191970D01*
X0494000Y0193568D02*
X0419000Y0193568D01*
X0419000Y0195167D02*
X0494000Y0195167D01*
X0494000Y0196765D02*
X0419000Y0196765D01*
X0419000Y0198364D02*
X0494000Y0198364D01*
X0494000Y0199962D02*
X0420333Y0199962D01*
X0421931Y0201561D02*
X0494000Y0201561D01*
X0494000Y0203159D02*
X0423530Y0203159D01*
X0425128Y0204758D02*
X0494000Y0204758D01*
X0494000Y0206356D02*
X0426727Y0206356D01*
X0428325Y0207955D02*
X0494000Y0207955D01*
X0494000Y0209553D02*
X0429924Y0209553D01*
X0445230Y0211152D02*
X0494000Y0211152D01*
X0494000Y0212750D02*
X0446829Y0212750D01*
X0448000Y0214349D02*
X0494000Y0214349D01*
X0494000Y0215947D02*
X0448000Y0215947D01*
X0448000Y0217546D02*
X0494000Y0217546D01*
X0494000Y0219144D02*
X0448000Y0219144D01*
X0448000Y0220743D02*
X0494000Y0220743D01*
X0494000Y0222341D02*
X0448000Y0222341D01*
X0448000Y0223940D02*
X0494000Y0223940D01*
X0494000Y0225538D02*
X0448000Y0225538D01*
X0448000Y0227137D02*
X0494000Y0227137D01*
X0493186Y0228735D02*
X0448000Y0228735D01*
X0448000Y0230334D02*
X0491588Y0230334D01*
X0489989Y0231932D02*
X0448000Y0231932D01*
X0448000Y0233531D02*
X0488391Y0233531D01*
X0486792Y0235129D02*
X0449208Y0235129D01*
X0452595Y0238326D02*
X0491405Y0238326D01*
X0489806Y0236728D02*
X0488305Y0236728D01*
X0489056Y0235977D02*
X0486911Y0238121D01*
X0452800Y0238121D01*
X0450000Y0240921D01*
X0450000Y0285921D01*
X0454000Y0289921D01*
X0491000Y0289921D01*
X0494000Y0286921D01*
X0494000Y0240921D01*
X0489056Y0235977D01*
X0493003Y0239925D02*
X0450997Y0239925D01*
X0450000Y0241523D02*
X0494000Y0241523D01*
X0494000Y0243122D02*
X0450000Y0243122D01*
X0450000Y0244720D02*
X0494000Y0244720D01*
X0494000Y0246319D02*
X0450000Y0246319D01*
X0450000Y0247918D02*
X0494000Y0247918D01*
X0494000Y0249516D02*
X0450000Y0249516D01*
X0450000Y0251115D02*
X0494000Y0251115D01*
X0494000Y0252713D02*
X0450000Y0252713D01*
X0450000Y0254312D02*
X0494000Y0254312D01*
X0494000Y0255910D02*
X0450000Y0255910D01*
X0450000Y0257509D02*
X0494000Y0257509D01*
X0494000Y0259107D02*
X0450000Y0259107D01*
X0450000Y0260706D02*
X0494000Y0260706D01*
X0494000Y0262304D02*
X0450000Y0262304D01*
X0450000Y0263903D02*
X0482455Y0263903D01*
X0482461Y0263896D02*
X0487039Y0263896D01*
X0490275Y0267133D01*
X0490275Y0271710D01*
X0487039Y0274946D01*
X0482461Y0274946D01*
X0479225Y0271710D01*
X0479225Y0267133D01*
X0482461Y0263896D01*
X0480857Y0265501D02*
X0450000Y0265501D01*
X0450000Y0267100D02*
X0479258Y0267100D01*
X0479225Y0268698D02*
X0450000Y0268698D01*
X0450000Y0270297D02*
X0479225Y0270297D01*
X0479410Y0271895D02*
X0450000Y0271895D01*
X0450000Y0273494D02*
X0481009Y0273494D01*
X0488491Y0273494D02*
X0494000Y0273494D01*
X0494000Y0275092D02*
X0450000Y0275092D01*
X0450000Y0276691D02*
X0494000Y0276691D01*
X0494000Y0278289D02*
X0450000Y0278289D01*
X0450000Y0279888D02*
X0494000Y0279888D01*
X0494000Y0281486D02*
X0450000Y0281486D01*
X0450000Y0283085D02*
X0494000Y0283085D01*
X0494000Y0284683D02*
X0450000Y0284683D01*
X0450360Y0286282D02*
X0494000Y0286282D01*
X0493041Y0287880D02*
X0451959Y0287880D01*
X0453557Y0289479D02*
X0491443Y0289479D01*
X0490090Y0271895D02*
X0494000Y0271895D01*
X0494000Y0270297D02*
X0490275Y0270297D01*
X0490275Y0268698D02*
X0494000Y0268698D01*
X0494000Y0267100D02*
X0490242Y0267100D01*
X0488643Y0265501D02*
X0494000Y0265501D01*
X0494000Y0263903D02*
X0487045Y0263903D01*
X0443821Y0230281D02*
X0443821Y0226562D01*
X0416725Y0199466D01*
X0416725Y0192133D01*
X0419000Y0189858D01*
X0419000Y0084921D01*
X0404000Y0069921D01*
X0346000Y0069921D01*
X0321000Y0094921D01*
X0321000Y0112184D01*
X0309262Y0123921D01*
X0149000Y0123921D01*
X0149000Y0180921D01*
X0193000Y0224921D01*
X0189000Y0233921D02*
X0195602Y0240524D01*
X0199484Y0240524D01*
X0215602Y0240524D01*
X0217000Y0241921D01*
X0218280Y0245642D02*
X0216000Y0247921D01*
X0209000Y0247921D01*
X0204000Y0246921D02*
X0200764Y0246921D01*
X0199484Y0248201D01*
X0199484Y0245642D01*
X0199484Y0243083D02*
X0191161Y0243083D01*
X0190000Y0241921D01*
X0190000Y0258921D01*
X0192000Y0260921D01*
X0214000Y0260921D01*
X0217000Y0267921D02*
X0217000Y0253319D01*
X0199484Y0253319D01*
X0199014Y0252849D01*
X0196542Y0252849D01*
X0195722Y0252029D01*
X0195722Y0248644D01*
X0194000Y0246921D01*
X0190000Y0241921D02*
X0188000Y0239921D01*
X0064000Y0239921D01*
X0047000Y0256921D01*
X0026000Y0256921D01*
X0026000Y0246921D02*
X0048000Y0246921D01*
X0061000Y0233921D01*
X0189000Y0233921D01*
X0195000Y0234921D02*
X0199484Y0234921D01*
X0199484Y0237965D01*
X0199484Y0216921D01*
X0218000Y0216921D01*
X0222516Y0214406D02*
X0222516Y0237965D01*
X0222516Y0243083D02*
X0228839Y0243083D01*
X0229000Y0242921D01*
X0229000Y0237921D01*
X0230000Y0236921D01*
X0222516Y0245642D02*
X0218280Y0245642D01*
X0222516Y0248201D02*
X0232412Y0248201D01*
X0232412Y0261172D01*
X0237467Y0266227D01*
X0252533Y0266227D01*
X0254353Y0264407D01*
X0259353Y0258569D01*
X0250000Y0249921D01*
X0262000Y0248921D02*
X0262000Y0248575D01*
X0281000Y0248575D01*
X0287000Y0248575D01*
X0287000Y0228575D01*
X0281000Y0228575D01*
X0254346Y0216921D02*
X0254346Y0206921D01*
X0254346Y0192945D01*
X0258500Y0192945D01*
X0263000Y0192945D02*
X0263500Y0192945D01*
X0263500Y0185421D01*
X0263000Y0184921D01*
X0252000Y0184921D01*
X0222516Y0214406D01*
X0228000Y0216921D02*
X0254346Y0216921D01*
X0271000Y0208575D02*
X0271000Y0201921D01*
X0268500Y0201921D01*
X0268500Y0192945D01*
X0280056Y0183977D02*
X0363000Y0183977D01*
X0363000Y0182379D02*
X0278457Y0182379D01*
X0276859Y0180780D02*
X0363000Y0180780D01*
X0363000Y0179182D02*
X0275260Y0179182D01*
X0275000Y0178921D02*
X0267700Y0178921D01*
X0267700Y0159859D01*
X0290399Y0145672D01*
X0291803Y0145672D01*
X0294142Y0143332D01*
X0299840Y0139771D01*
X0299840Y0140717D01*
X0304795Y0145672D01*
X0311803Y0145672D01*
X0316758Y0140717D01*
X0316758Y0133709D01*
X0313982Y0130933D01*
X0322000Y0125921D01*
X0363000Y0124921D01*
X0363000Y0208921D01*
X0309000Y0208921D01*
X0282000Y0185921D01*
X0275000Y0178921D01*
X0267700Y0177583D02*
X0363000Y0177583D01*
X0363000Y0175985D02*
X0267700Y0175985D01*
X0267700Y0174386D02*
X0363000Y0174386D01*
X0363000Y0172787D02*
X0267700Y0172787D01*
X0267700Y0171189D02*
X0363000Y0171189D01*
X0363000Y0169590D02*
X0267700Y0169590D01*
X0267700Y0167992D02*
X0363000Y0167992D01*
X0363000Y0166393D02*
X0267700Y0166393D01*
X0267700Y0164795D02*
X0363000Y0164795D01*
X0363000Y0163196D02*
X0267700Y0163196D01*
X0267700Y0161598D02*
X0363000Y0161598D01*
X0363000Y0159999D02*
X0267700Y0159999D01*
X0270033Y0158401D02*
X0363000Y0158401D01*
X0363000Y0156802D02*
X0272591Y0156802D01*
X0275148Y0155204D02*
X0363000Y0155204D01*
X0363000Y0153605D02*
X0277706Y0153605D01*
X0280263Y0152007D02*
X0363000Y0152007D01*
X0363000Y0150408D02*
X0282821Y0150408D01*
X0285379Y0148810D02*
X0363000Y0148810D01*
X0363000Y0147211D02*
X0287936Y0147211D01*
X0291862Y0145613D02*
X0304736Y0145613D01*
X0303138Y0144014D02*
X0293461Y0144014D01*
X0295609Y0142416D02*
X0301539Y0142416D01*
X0299941Y0140817D02*
X0298167Y0140817D01*
X0311862Y0145613D02*
X0363000Y0145613D01*
X0363000Y0144014D02*
X0313461Y0144014D01*
X0315059Y0142416D02*
X0363000Y0142416D01*
X0363000Y0140817D02*
X0316658Y0140817D01*
X0316758Y0139219D02*
X0363000Y0139219D01*
X0363000Y0137620D02*
X0316758Y0137620D01*
X0316758Y0136022D02*
X0363000Y0136022D01*
X0363000Y0134423D02*
X0316758Y0134423D01*
X0315874Y0132825D02*
X0363000Y0132825D01*
X0363000Y0131226D02*
X0314275Y0131226D01*
X0316070Y0129628D02*
X0363000Y0129628D01*
X0363000Y0128029D02*
X0318628Y0128029D01*
X0321185Y0126431D02*
X0363000Y0126431D01*
X0425000Y0156802D02*
X0478770Y0156802D01*
X0480368Y0158401D02*
X0425000Y0158401D01*
X0425000Y0159999D02*
X0481967Y0159999D01*
X0482461Y0161598D02*
X0425000Y0161598D01*
X0425000Y0163196D02*
X0494000Y0163196D01*
X0494000Y0161598D02*
X0487539Y0161598D01*
X0487987Y0159999D02*
X0494000Y0159999D01*
X0494000Y0158401D02*
X0487604Y0158401D01*
X0485000Y0159921D02*
X0473000Y0147921D01*
X0473000Y0070984D01*
X0484992Y0156802D02*
X0494000Y0156802D01*
X0494000Y0164795D02*
X0425000Y0164795D01*
X0425000Y0166393D02*
X0494000Y0166393D01*
X0494000Y0167992D02*
X0425000Y0167992D01*
X0425000Y0169590D02*
X0494000Y0169590D01*
X0494000Y0171189D02*
X0425000Y0171189D01*
X0425000Y0172787D02*
X0494000Y0172787D01*
X0494000Y0174386D02*
X0425000Y0174386D01*
X0425000Y0175985D02*
X0494000Y0175985D01*
X0494000Y0177583D02*
X0425000Y0177583D01*
X0424740Y0179182D02*
X0494000Y0179182D01*
X0494000Y0180780D02*
X0423141Y0180780D01*
X0419911Y0192058D02*
X0419911Y0192058D01*
X0422250Y0194421D02*
X0450000Y0166671D01*
X0450000Y0158268D01*
X0409750Y0194421D02*
X0407654Y0194421D01*
X0419346Y0226921D02*
X0437476Y0226921D01*
X0438976Y0228421D01*
X0441297Y0231101D02*
X0443001Y0231101D01*
X0443821Y0230281D01*
X0441297Y0231101D02*
X0438976Y0233421D01*
X0438976Y0238421D02*
X0421846Y0238421D01*
X0421346Y0238921D01*
X0402000Y0277921D02*
X0402000Y0299421D01*
X0410110Y0299421D01*
X0410110Y0309421D02*
X0397250Y0309421D01*
X0373890Y0294421D02*
X0305000Y0294421D01*
X0305000Y0276921D01*
X0309000Y0272921D02*
X0316914Y0272921D01*
X0317803Y0273810D01*
X0317889Y0273810D01*
X0333500Y0289421D01*
X0373890Y0289421D01*
X0392000Y0277921D02*
X0338000Y0277921D01*
X0338000Y0268921D01*
X0321000Y0269921D01*
X0276000Y0279921D02*
X0268000Y0271921D01*
X0246000Y0271921D01*
X0248654Y0280921D02*
X0248654Y0285421D01*
X0234024Y0285421D01*
X0234024Y0290421D02*
X0243500Y0290421D01*
X0244000Y0289921D01*
X0253654Y0293921D02*
X0253654Y0295421D01*
X0234024Y0295421D01*
X0227000Y0295421D01*
X0227000Y0267921D01*
X0217000Y0267921D01*
X0223000Y0270921D02*
X0161000Y0271921D01*
X0161000Y0261921D01*
X0141000Y0274921D02*
X0141000Y0303921D01*
X0156796Y0303921D01*
X0159210Y0302921D01*
X0162790Y0302921D01*
X0165204Y0303921D01*
X0173000Y0303921D01*
X0184000Y0292921D01*
X0185647Y0292921D01*
X0185647Y0291436D01*
X0186467Y0290616D01*
X0193533Y0290616D01*
X0194353Y0291436D01*
X0194353Y0292175D01*
X0205197Y0292175D01*
X0205704Y0290950D01*
X0207131Y0289522D01*
X0207131Y0288562D01*
X0207506Y0288187D01*
X0207426Y0288141D01*
X0207091Y0287806D01*
X0206854Y0287396D01*
X0206731Y0286938D01*
X0206731Y0285422D01*
X0211976Y0285422D01*
X0211976Y0285421D01*
X0211976Y0285421D01*
X0211976Y0283501D01*
X0211976Y0280422D01*
X0211976Y0280422D01*
X0211976Y0280421D01*
X0211976Y0280421D01*
X0211976Y0277342D01*
X0208295Y0277342D01*
X0207837Y0277465D01*
X0207426Y0277702D01*
X0207091Y0278037D01*
X0206854Y0278447D01*
X0206731Y0278905D01*
X0206731Y0280421D01*
X0211976Y0280421D01*
X0211976Y0277342D01*
X0215658Y0277342D01*
X0216116Y0277465D01*
X0216526Y0277702D01*
X0216862Y0278037D01*
X0217099Y0278447D01*
X0217221Y0278905D01*
X0217221Y0280421D01*
X0211977Y0280421D01*
X0211977Y0280422D01*
X0217221Y0280422D01*
X0217221Y0281938D01*
X0217099Y0282396D01*
X0216862Y0282806D01*
X0216746Y0282921D01*
X0216862Y0283037D01*
X0217099Y0283447D01*
X0217221Y0283905D01*
X0217221Y0285421D01*
X0211977Y0285421D01*
X0211977Y0285422D01*
X0217221Y0285422D01*
X0217221Y0286938D01*
X0217099Y0287396D01*
X0216862Y0287806D01*
X0216526Y0288141D01*
X0216447Y0288187D01*
X0216821Y0288562D01*
X0216821Y0291215D01*
X0217402Y0291796D01*
X0218264Y0292658D01*
X0223000Y0287921D01*
X0223000Y0276921D01*
X0221000Y0274921D01*
X0141000Y0274921D01*
X0141000Y0275092D02*
X0221171Y0275092D01*
X0222769Y0276691D02*
X0141000Y0276691D01*
X0141000Y0278289D02*
X0206945Y0278289D01*
X0206731Y0279888D02*
X0141000Y0279888D01*
X0141000Y0281486D02*
X0206731Y0281486D01*
X0206731Y0281938D02*
X0206731Y0280422D01*
X0211976Y0280422D01*
X0211976Y0285421D01*
X0206731Y0285421D01*
X0206731Y0283905D01*
X0206854Y0283447D01*
X0207091Y0283037D01*
X0207206Y0282921D01*
X0207091Y0282806D01*
X0206854Y0282396D01*
X0206731Y0281938D01*
X0207063Y0283085D02*
X0164207Y0283085D01*
X0164603Y0283223D02*
X0165554Y0283681D01*
X0166448Y0284243D01*
X0167274Y0284901D01*
X0168020Y0285648D01*
X0168678Y0286473D01*
X0169240Y0287367D01*
X0169698Y0288319D01*
X0170047Y0289315D01*
X0170282Y0290344D01*
X0170369Y0291121D01*
X0161800Y0291121D01*
X0161800Y0282552D01*
X0162577Y0282640D01*
X0163606Y0282875D01*
X0164603Y0283223D01*
X0161800Y0283085D02*
X0160200Y0283085D01*
X0160200Y0282552D02*
X0160200Y0291121D01*
X0161800Y0291121D01*
X0161800Y0292721D01*
X0170369Y0292721D01*
X0170282Y0293499D01*
X0170047Y0294528D01*
X0169698Y0295524D01*
X0169240Y0296476D01*
X0168678Y0297370D01*
X0168020Y0298195D01*
X0167274Y0298942D01*
X0166448Y0299600D01*
X0165554Y0300162D01*
X0164603Y0300620D01*
X0163606Y0300968D01*
X0162577Y0301203D01*
X0161800Y0301291D01*
X0161800Y0292722D01*
X0160200Y0292722D01*
X0160200Y0301291D01*
X0159423Y0301203D01*
X0158394Y0300968D01*
X0157397Y0300620D01*
X0156446Y0300162D01*
X0155552Y0299600D01*
X0154726Y0298942D01*
X0153980Y0298195D01*
X0153322Y0297370D01*
X0152760Y0296476D01*
X0152302Y0295524D01*
X0151953Y0294528D01*
X0151718Y0293499D01*
X0151631Y0292721D01*
X0160200Y0292721D01*
X0160200Y0291121D01*
X0151631Y0291121D01*
X0151718Y0290344D01*
X0151953Y0289315D01*
X0152302Y0288319D01*
X0152760Y0287367D01*
X0153322Y0286473D01*
X0153980Y0285648D01*
X0154726Y0284901D01*
X0155552Y0284243D01*
X0156446Y0283681D01*
X0157397Y0283223D01*
X0158394Y0282875D01*
X0159423Y0282640D01*
X0160200Y0282552D01*
X0160200Y0284683D02*
X0161800Y0284683D01*
X0161800Y0286282D02*
X0160200Y0286282D01*
X0160200Y0287880D02*
X0161800Y0287880D01*
X0161800Y0289479D02*
X0160200Y0289479D01*
X0160200Y0291077D02*
X0161800Y0291077D01*
X0161800Y0292676D02*
X0185647Y0292676D01*
X0186006Y0291077D02*
X0170364Y0291077D01*
X0170084Y0289479D02*
X0207131Y0289479D01*
X0207165Y0287880D02*
X0169487Y0287880D01*
X0168526Y0286282D02*
X0206731Y0286282D01*
X0206731Y0284683D02*
X0167000Y0284683D01*
X0157793Y0283085D02*
X0141000Y0283085D01*
X0141000Y0284683D02*
X0155000Y0284683D01*
X0153474Y0286282D02*
X0141000Y0286282D01*
X0141000Y0287880D02*
X0152513Y0287880D01*
X0151916Y0289479D02*
X0141000Y0289479D01*
X0141000Y0291077D02*
X0151636Y0291077D01*
X0151895Y0294274D02*
X0141000Y0294274D01*
X0141000Y0292676D02*
X0160200Y0292676D01*
X0160200Y0294274D02*
X0161800Y0294274D01*
X0161800Y0295873D02*
X0160200Y0295873D01*
X0160200Y0297471D02*
X0161800Y0297471D01*
X0161800Y0299070D02*
X0160200Y0299070D01*
X0160200Y0300668D02*
X0161800Y0300668D01*
X0164463Y0300668D02*
X0176253Y0300668D01*
X0177852Y0299070D02*
X0167113Y0299070D01*
X0168597Y0297471D02*
X0179450Y0297471D01*
X0181049Y0295873D02*
X0169530Y0295873D01*
X0170105Y0294274D02*
X0182647Y0294274D01*
X0174655Y0302267D02*
X0141000Y0302267D01*
X0141000Y0303865D02*
X0156931Y0303865D01*
X0157537Y0300668D02*
X0141000Y0300668D01*
X0141000Y0299070D02*
X0154887Y0299070D01*
X0153403Y0297471D02*
X0141000Y0297471D01*
X0141000Y0295873D02*
X0152470Y0295873D01*
X0165069Y0303865D02*
X0173056Y0303865D01*
X0193994Y0291077D02*
X0205651Y0291077D01*
X0211976Y0284683D02*
X0211976Y0284683D01*
X0211976Y0283085D02*
X0211976Y0283085D01*
X0211976Y0281486D02*
X0211976Y0281486D01*
X0211976Y0279888D02*
X0211976Y0279888D01*
X0211976Y0278289D02*
X0211976Y0278289D01*
X0217007Y0278289D02*
X0223000Y0278289D01*
X0223000Y0279888D02*
X0217221Y0279888D01*
X0217221Y0281486D02*
X0223000Y0281486D01*
X0223000Y0283085D02*
X0216889Y0283085D01*
X0217221Y0284683D02*
X0223000Y0284683D01*
X0223000Y0286282D02*
X0217221Y0286282D01*
X0216788Y0287880D02*
X0223000Y0287880D01*
X0221443Y0289479D02*
X0216821Y0289479D01*
X0216821Y0291077D02*
X0219844Y0291077D01*
X0142000Y0207921D02*
X0142000Y0155921D01*
X0069000Y0156921D01*
X0018000Y0156921D01*
X0018000Y0208921D01*
X0142000Y0207921D01*
X0142000Y0206356D02*
X0018000Y0206356D01*
X0018000Y0204758D02*
X0142000Y0204758D01*
X0142000Y0203159D02*
X0018000Y0203159D01*
X0018000Y0201561D02*
X0142000Y0201561D01*
X0142000Y0199962D02*
X0058148Y0199962D01*
X0057230Y0200492D02*
X0054509Y0201221D01*
X0051691Y0201221D01*
X0048970Y0200492D01*
X0046530Y0199084D01*
X0044538Y0197091D01*
X0043129Y0194652D01*
X0042400Y0191930D01*
X0042400Y0189113D01*
X0043129Y0186391D01*
X0044538Y0183952D01*
X0046530Y0181959D01*
X0048970Y0180551D01*
X0051691Y0179821D01*
X0054509Y0179821D01*
X0057230Y0180551D01*
X0059670Y0181959D01*
X0061662Y0183952D01*
X0063071Y0186391D01*
X0063800Y0189113D01*
X0063800Y0191930D01*
X0063071Y0194652D01*
X0061662Y0197091D01*
X0059670Y0199084D01*
X0057230Y0200492D01*
X0060390Y0198364D02*
X0142000Y0198364D01*
X0142000Y0196765D02*
X0061850Y0196765D01*
X0062773Y0195167D02*
X0142000Y0195167D01*
X0142000Y0193568D02*
X0063361Y0193568D01*
X0063789Y0191970D02*
X0142000Y0191970D01*
X0142000Y0190371D02*
X0063800Y0190371D01*
X0063709Y0188773D02*
X0142000Y0188773D01*
X0142000Y0187174D02*
X0063281Y0187174D01*
X0062600Y0185576D02*
X0142000Y0185576D01*
X0142000Y0183977D02*
X0061677Y0183977D01*
X0060089Y0182379D02*
X0142000Y0182379D01*
X0142000Y0180780D02*
X0057627Y0180780D01*
X0048573Y0180780D02*
X0018000Y0180780D01*
X0018000Y0179182D02*
X0142000Y0179182D01*
X0142000Y0177583D02*
X0018000Y0177583D01*
X0018000Y0175985D02*
X0142000Y0175985D01*
X0142000Y0174386D02*
X0018000Y0174386D01*
X0018000Y0172787D02*
X0142000Y0172787D01*
X0142000Y0171189D02*
X0018000Y0171189D01*
X0018000Y0169590D02*
X0142000Y0169590D01*
X0142000Y0167992D02*
X0018000Y0167992D01*
X0018000Y0166393D02*
X0142000Y0166393D01*
X0142000Y0164795D02*
X0018000Y0164795D01*
X0018000Y0163196D02*
X0142000Y0163196D01*
X0142000Y0161598D02*
X0018000Y0161598D01*
X0018000Y0159999D02*
X0142000Y0159999D01*
X0142000Y0158401D02*
X0018000Y0158401D01*
X0018000Y0182379D02*
X0046111Y0182379D01*
X0044523Y0183977D02*
X0018000Y0183977D01*
X0018000Y0185576D02*
X0043600Y0185576D01*
X0042919Y0187174D02*
X0018000Y0187174D01*
X0018000Y0188773D02*
X0042491Y0188773D01*
X0042400Y0190371D02*
X0018000Y0190371D01*
X0018000Y0191970D02*
X0042411Y0191970D01*
X0042839Y0193568D02*
X0018000Y0193568D01*
X0018000Y0195167D02*
X0043427Y0195167D01*
X0044350Y0196765D02*
X0018000Y0196765D01*
X0018000Y0198364D02*
X0045810Y0198364D01*
X0048052Y0199962D02*
X0018000Y0199962D01*
X0018000Y0207955D02*
X0137875Y0207955D01*
X0100000Y0246921D02*
X0067000Y0246921D01*
X0033000Y0280921D01*
X0021000Y0280921D01*
X0011000Y0290921D01*
X0011000Y0311921D01*
X0073000Y0311921D01*
X0075636Y0309285D01*
X0073370Y0307020D01*
X0072000Y0303712D01*
X0072000Y0300131D01*
X0073370Y0296823D01*
X0075902Y0294292D01*
X0079210Y0292921D01*
X0082790Y0292921D01*
X0086098Y0294292D01*
X0088364Y0296558D01*
X0100000Y0284921D01*
X0100000Y0246921D01*
X0100000Y0247918D02*
X0066004Y0247918D01*
X0064405Y0249516D02*
X0100000Y0249516D01*
X0100000Y0251115D02*
X0062807Y0251115D01*
X0061208Y0252713D02*
X0100000Y0252713D01*
X0100000Y0254312D02*
X0059610Y0254312D01*
X0058011Y0255910D02*
X0100000Y0255910D01*
X0100000Y0257509D02*
X0056413Y0257509D01*
X0054814Y0259107D02*
X0100000Y0259107D01*
X0100000Y0260706D02*
X0053216Y0260706D01*
X0051617Y0262304D02*
X0100000Y0262304D01*
X0100000Y0263903D02*
X0050019Y0263903D01*
X0048420Y0265501D02*
X0100000Y0265501D01*
X0100000Y0267100D02*
X0046822Y0267100D01*
X0045223Y0268698D02*
X0100000Y0268698D01*
X0100000Y0270297D02*
X0043625Y0270297D01*
X0042026Y0271895D02*
X0100000Y0271895D01*
X0100000Y0273494D02*
X0040428Y0273494D01*
X0038829Y0275092D02*
X0100000Y0275092D01*
X0100000Y0276691D02*
X0037231Y0276691D01*
X0035632Y0278289D02*
X0100000Y0278289D01*
X0100000Y0279888D02*
X0034034Y0279888D01*
X0020435Y0281486D02*
X0100000Y0281486D01*
X0100000Y0283085D02*
X0018837Y0283085D01*
X0017238Y0284683D02*
X0100000Y0284683D01*
X0098640Y0286282D02*
X0015640Y0286282D01*
X0014041Y0287880D02*
X0097041Y0287880D01*
X0095443Y0289479D02*
X0012443Y0289479D01*
X0011000Y0291077D02*
X0093844Y0291077D01*
X0092246Y0292676D02*
X0011000Y0292676D01*
X0011000Y0294274D02*
X0075944Y0294274D01*
X0074321Y0295873D02*
X0011000Y0295873D01*
X0011000Y0297471D02*
X0073102Y0297471D01*
X0072440Y0299070D02*
X0011000Y0299070D01*
X0011000Y0300668D02*
X0072000Y0300668D01*
X0072000Y0302267D02*
X0011000Y0302267D01*
X0011000Y0303865D02*
X0072064Y0303865D01*
X0072726Y0305464D02*
X0011000Y0305464D01*
X0011000Y0307062D02*
X0073413Y0307062D01*
X0075012Y0308661D02*
X0011000Y0308661D01*
X0011000Y0310259D02*
X0074662Y0310259D01*
X0073063Y0311858D02*
X0011000Y0311858D01*
X0010000Y0314033D02*
X0010000Y0346921D01*
X0024000Y0360921D01*
X0102000Y0360921D01*
X0104000Y0358921D01*
X0104000Y0331921D01*
X0085000Y0312921D01*
X0075111Y0312921D01*
X0073911Y0314121D01*
X0010089Y0314121D01*
X0010000Y0314033D01*
X0010000Y0315055D02*
X0087134Y0315055D01*
X0088732Y0316654D02*
X0010000Y0316654D01*
X0010000Y0318252D02*
X0090331Y0318252D01*
X0091929Y0319851D02*
X0010000Y0319851D01*
X0010000Y0321449D02*
X0093528Y0321449D01*
X0095126Y0323048D02*
X0010000Y0323048D01*
X0010000Y0324646D02*
X0096725Y0324646D01*
X0098323Y0326245D02*
X0010000Y0326245D01*
X0010000Y0327843D02*
X0099922Y0327843D01*
X0101520Y0329442D02*
X0010000Y0329442D01*
X0010000Y0331040D02*
X0103119Y0331040D01*
X0104000Y0332639D02*
X0010000Y0332639D01*
X0010000Y0334237D02*
X0104000Y0334237D01*
X0104000Y0335836D02*
X0010000Y0335836D01*
X0010000Y0337434D02*
X0104000Y0337434D01*
X0104000Y0339033D02*
X0010000Y0339033D01*
X0010000Y0340631D02*
X0104000Y0340631D01*
X0104000Y0342230D02*
X0010000Y0342230D01*
X0010000Y0343828D02*
X0104000Y0343828D01*
X0104000Y0345427D02*
X0010000Y0345427D01*
X0010104Y0347025D02*
X0104000Y0347025D01*
X0104000Y0348624D02*
X0011702Y0348624D01*
X0013301Y0350222D02*
X0104000Y0350222D01*
X0104000Y0351821D02*
X0014899Y0351821D01*
X0016498Y0353419D02*
X0104000Y0353419D01*
X0104000Y0355018D02*
X0018096Y0355018D01*
X0019695Y0356616D02*
X0104000Y0356616D01*
X0104000Y0358215D02*
X0021293Y0358215D01*
X0022892Y0359813D02*
X0103108Y0359813D01*
X0085535Y0313456D02*
X0074576Y0313456D01*
X0087679Y0295873D02*
X0089049Y0295873D01*
X0090647Y0294274D02*
X0086056Y0294274D01*
X0077694Y0156802D02*
X0142000Y0156802D01*
X0281654Y0185576D02*
X0363000Y0185576D01*
X0363000Y0187174D02*
X0283470Y0187174D01*
X0285347Y0188773D02*
X0363000Y0188773D01*
X0363000Y0190371D02*
X0287223Y0190371D01*
X0289100Y0191970D02*
X0363000Y0191970D01*
X0363000Y0193568D02*
X0290977Y0193568D01*
X0292853Y0195167D02*
X0363000Y0195167D01*
X0363000Y0196765D02*
X0294730Y0196765D01*
X0296606Y0198364D02*
X0363000Y0198364D01*
X0363000Y0199962D02*
X0298483Y0199962D01*
X0300359Y0201561D02*
X0363000Y0201561D01*
X0363000Y0203159D02*
X0302236Y0203159D01*
X0304112Y0204758D02*
X0363000Y0204758D01*
X0363000Y0206356D02*
X0305989Y0206356D01*
X0307865Y0207955D02*
X0363000Y0207955D01*
D25*
X0406000Y0219921D02*
X0406000Y0270921D01*
X0411000Y0275921D01*
X0411000Y0278921D01*
X0416000Y0278921D01*
X0426000Y0283921D01*
X0426000Y0322921D01*
X0417000Y0325921D01*
X0404000Y0325921D01*
X0397476Y0325921D01*
X0383500Y0339898D01*
X0404000Y0325921D02*
X0393000Y0314921D01*
X0393000Y0287921D01*
X0389000Y0283921D01*
X0374390Y0283921D01*
X0373890Y0284421D01*
X0373390Y0283921D01*
X0335000Y0283921D01*
X0296500Y0274421D02*
X0280500Y0274421D01*
X0255000Y0247921D01*
X0255000Y0233921D01*
X0240000Y0233921D01*
X0247000Y0239921D02*
X0244000Y0242921D01*
X0244000Y0250921D01*
X0248000Y0254921D01*
X0243654Y0259268D01*
X0238000Y0259268D01*
X0230012Y0262166D02*
X0230012Y0255502D01*
X0225541Y0251030D01*
X0222786Y0251030D01*
X0222516Y0250760D01*
X0230012Y0262166D02*
X0242857Y0276010D01*
X0248280Y0276010D01*
X0249368Y0274921D01*
X0267000Y0274921D01*
X0267000Y0278921D01*
X0272000Y0283921D01*
X0267000Y0288921D01*
X0267000Y0295921D01*
X0271000Y0298921D01*
X0260346Y0293921D02*
X0260346Y0286575D01*
X0260346Y0285921D01*
X0255346Y0280921D01*
X0260346Y0286575D02*
X0264000Y0283921D01*
X0253654Y0293921D02*
X0252000Y0293921D01*
X0247000Y0298921D01*
X0234024Y0280421D02*
X0237000Y0277445D01*
X0237000Y0275921D01*
X0211130Y0294575D02*
X0190000Y0294575D01*
X0190000Y0301268D02*
X0183654Y0301268D01*
X0173000Y0311921D01*
X0161000Y0311921D01*
X0200528Y0256921D02*
X0206000Y0256921D01*
X0200528Y0256921D02*
X0199484Y0255878D01*
X0247000Y0239921D02*
X0249000Y0239921D01*
X0271000Y0229921D02*
X0276346Y0235268D01*
X0281000Y0235268D01*
X0281346Y0254921D02*
X0298000Y0254921D01*
X0281346Y0254921D02*
X0281000Y0255268D01*
X0281000Y0214921D02*
X0271346Y0214921D01*
X0271000Y0215268D01*
X0281000Y0214921D02*
X0281000Y0204921D01*
X0284000Y0201921D01*
X0282476Y0201921D01*
X0273500Y0192945D01*
X0247654Y0206921D02*
X0243654Y0210921D01*
X0239000Y0210921D01*
X0335000Y0246921D02*
X0391000Y0246921D01*
X0412654Y0236921D02*
X0412654Y0226921D01*
X0419346Y0226921D02*
X0419346Y0221268D01*
X0417000Y0218921D01*
X0407000Y0218921D01*
X0406000Y0219921D01*
X0412654Y0236921D02*
X0414654Y0238921D01*
X0414654Y0242575D01*
X0417000Y0244921D01*
X0435000Y0244921D01*
X0440000Y0249921D01*
X0438476Y0243921D02*
X0436000Y0243921D01*
X0435000Y0244921D01*
X0438476Y0243921D02*
X0438976Y0243421D01*
X0411000Y0278921D02*
X0411000Y0283532D01*
X0410110Y0284421D01*
X0410110Y0289421D02*
X0410110Y0294421D01*
X0417500Y0294421D01*
X0420000Y0291921D01*
X0401000Y0315921D02*
X0404500Y0319421D01*
X0410110Y0319421D01*
X0412024Y0361945D02*
X0383500Y0361945D01*
X0378500Y0361945D02*
X0378500Y0368421D01*
X0379000Y0368921D01*
X0409654Y0368921D01*
X0416346Y0368921D02*
X0419000Y0368921D01*
X0412024Y0361945D01*
X0419000Y0368921D02*
X0431000Y0368921D01*
X0375000Y0367921D02*
X0375000Y0363445D01*
X0373500Y0361945D01*
X0375000Y0367921D02*
X0370000Y0372921D01*
X0288000Y0372921D01*
X0281000Y0365921D01*
X0291000Y0343921D02*
X0291000Y0323921D01*
X0292654Y0322268D01*
X0292654Y0313921D01*
X0414346Y0176921D02*
X0414346Y0171268D01*
X0410000Y0166921D01*
X0450000Y0151575D02*
X0450000Y0142921D01*
D26*
X0450000Y0142921D03*
X0485000Y0159921D03*
X0410000Y0166921D03*
X0391000Y0246921D03*
X0392000Y0277921D03*
X0402000Y0277921D03*
X0420000Y0291921D03*
X0401000Y0315921D03*
X0346000Y0311921D03*
X0335000Y0283921D03*
X0321000Y0269921D03*
X0309000Y0272921D03*
X0305000Y0276921D03*
X0298000Y0254921D03*
X0271000Y0229921D03*
X0249000Y0239921D03*
X0250000Y0249921D03*
X0262000Y0248921D03*
X0246000Y0271921D03*
X0237000Y0275921D03*
X0223000Y0270921D03*
X0214000Y0260921D03*
X0206000Y0256921D03*
X0209000Y0247921D03*
X0204000Y0246921D03*
X0194000Y0246921D03*
X0195000Y0234921D03*
X0193000Y0224921D03*
X0218000Y0216921D03*
X0228000Y0216921D03*
X0239000Y0210921D03*
X0230000Y0236921D03*
X0217000Y0241921D03*
X0264000Y0283921D03*
X0276000Y0279921D03*
X0271000Y0298921D03*
X0247000Y0298921D03*
X0244000Y0289921D03*
X0291000Y0323921D03*
X0281000Y0365921D03*
X0431000Y0368921D03*
X0440000Y0249921D03*
X0335000Y0246921D03*
X0284000Y0201921D03*
D27*
X0033500Y0033421D02*
X0028000Y0038921D01*
X0028000Y0048921D01*
X0029000Y0049921D01*
X0059000Y0049921D01*
X0110000Y0100921D01*
X0319100Y0100921D01*
X0319100Y0094134D01*
X0324000Y0089234D01*
X0324000Y0063921D01*
X0323000Y0062921D01*
X0281000Y0062921D01*
X0251500Y0033421D01*
X0033500Y0033421D01*
X0033007Y0033914D02*
X0251993Y0033914D01*
X0252991Y0034913D02*
X0032009Y0034913D01*
X0031010Y0035911D02*
X0253990Y0035911D01*
X0254988Y0036910D02*
X0030012Y0036910D01*
X0029013Y0037908D02*
X0255987Y0037908D01*
X0256985Y0038907D02*
X0028015Y0038907D01*
X0028000Y0039905D02*
X0257984Y0039905D01*
X0258982Y0040904D02*
X0028000Y0040904D01*
X0028000Y0041902D02*
X0259981Y0041902D01*
X0260979Y0042901D02*
X0028000Y0042901D01*
X0028000Y0043899D02*
X0151359Y0043899D01*
X0151754Y0043671D02*
X0154552Y0042921D01*
X0157448Y0042921D01*
X0160246Y0043671D01*
X0162754Y0045119D01*
X0164802Y0047167D01*
X0166250Y0049676D01*
X0167000Y0052473D01*
X0167000Y0055370D01*
X0166250Y0058167D01*
X0164802Y0060676D01*
X0162754Y0062724D01*
X0160246Y0064172D01*
X0157448Y0064921D01*
X0154552Y0064921D01*
X0151754Y0064172D01*
X0149246Y0062724D01*
X0147198Y0060676D01*
X0145750Y0058167D01*
X0145000Y0055370D01*
X0145000Y0052473D01*
X0145750Y0049676D01*
X0147198Y0047167D01*
X0149246Y0045119D01*
X0151754Y0043671D01*
X0149630Y0044898D02*
X0028000Y0044898D01*
X0028000Y0045896D02*
X0148469Y0045896D01*
X0147470Y0046895D02*
X0028000Y0046895D01*
X0028000Y0047893D02*
X0146779Y0047893D01*
X0146202Y0048892D02*
X0028000Y0048892D01*
X0028969Y0049890D02*
X0145692Y0049890D01*
X0145425Y0050889D02*
X0059967Y0050889D01*
X0060966Y0051887D02*
X0145157Y0051887D01*
X0145000Y0052886D02*
X0061964Y0052886D01*
X0062963Y0053884D02*
X0145000Y0053884D01*
X0145000Y0054883D02*
X0063961Y0054883D01*
X0064960Y0055881D02*
X0145137Y0055881D01*
X0145405Y0056880D02*
X0065958Y0056880D01*
X0066957Y0057878D02*
X0145672Y0057878D01*
X0146159Y0058877D02*
X0067955Y0058877D01*
X0068954Y0059875D02*
X0146736Y0059875D01*
X0147396Y0060874D02*
X0069952Y0060874D01*
X0070951Y0061872D02*
X0148395Y0061872D01*
X0149501Y0062871D02*
X0071949Y0062871D01*
X0072948Y0063869D02*
X0151230Y0063869D01*
X0154352Y0064868D02*
X0073946Y0064868D01*
X0074945Y0065866D02*
X0324000Y0065866D01*
X0324000Y0064868D02*
X0157648Y0064868D01*
X0160770Y0063869D02*
X0323948Y0063869D01*
X0324000Y0066865D02*
X0075943Y0066865D01*
X0076942Y0067863D02*
X0324000Y0067863D01*
X0324000Y0068862D02*
X0077940Y0068862D01*
X0078939Y0069860D02*
X0324000Y0069860D01*
X0324000Y0070859D02*
X0079937Y0070859D01*
X0080936Y0071857D02*
X0324000Y0071857D01*
X0324000Y0072856D02*
X0081934Y0072856D01*
X0082933Y0073854D02*
X0324000Y0073854D01*
X0324000Y0074853D02*
X0083932Y0074853D01*
X0084930Y0075852D02*
X0324000Y0075852D01*
X0324000Y0076850D02*
X0085929Y0076850D01*
X0086927Y0077849D02*
X0324000Y0077849D01*
X0324000Y0078847D02*
X0087926Y0078847D01*
X0088924Y0079846D02*
X0324000Y0079846D01*
X0324000Y0080844D02*
X0089923Y0080844D01*
X0090921Y0081843D02*
X0324000Y0081843D01*
X0324000Y0082841D02*
X0091920Y0082841D01*
X0092918Y0083840D02*
X0324000Y0083840D01*
X0324000Y0084838D02*
X0093917Y0084838D01*
X0094915Y0085837D02*
X0324000Y0085837D01*
X0324000Y0086835D02*
X0095914Y0086835D01*
X0096912Y0087834D02*
X0324000Y0087834D01*
X0324000Y0088832D02*
X0097911Y0088832D01*
X0098909Y0089831D02*
X0323404Y0089831D01*
X0322405Y0090829D02*
X0099908Y0090829D01*
X0100906Y0091828D02*
X0321407Y0091828D01*
X0320408Y0092826D02*
X0101905Y0092826D01*
X0102903Y0093825D02*
X0319410Y0093825D01*
X0319100Y0094823D02*
X0103902Y0094823D01*
X0104900Y0095822D02*
X0319100Y0095822D01*
X0319100Y0096820D02*
X0105899Y0096820D01*
X0106897Y0097819D02*
X0319100Y0097819D01*
X0319100Y0098817D02*
X0107896Y0098817D01*
X0108894Y0099816D02*
X0319100Y0099816D01*
X0319100Y0100814D02*
X0109893Y0100814D01*
X0162499Y0062871D02*
X0280949Y0062871D01*
X0279951Y0061872D02*
X0163605Y0061872D01*
X0164604Y0060874D02*
X0278952Y0060874D01*
X0277954Y0059875D02*
X0165264Y0059875D01*
X0165841Y0058877D02*
X0276955Y0058877D01*
X0275957Y0057878D02*
X0166328Y0057878D01*
X0166595Y0056880D02*
X0274958Y0056880D01*
X0273960Y0055881D02*
X0166863Y0055881D01*
X0167000Y0054883D02*
X0272961Y0054883D01*
X0271963Y0053884D02*
X0167000Y0053884D01*
X0167000Y0052886D02*
X0270964Y0052886D01*
X0269966Y0051887D02*
X0166843Y0051887D01*
X0166575Y0050889D02*
X0268967Y0050889D01*
X0267969Y0049890D02*
X0166308Y0049890D01*
X0165798Y0048892D02*
X0266970Y0048892D01*
X0265972Y0047893D02*
X0165221Y0047893D01*
X0164530Y0046895D02*
X0264973Y0046895D01*
X0263975Y0045896D02*
X0163531Y0045896D01*
X0162370Y0044898D02*
X0262976Y0044898D01*
X0261978Y0043899D02*
X0160641Y0043899D01*
X0228000Y0229921D02*
X0227000Y0230921D01*
X0227000Y0239921D01*
X0226398Y0240524D01*
X0222516Y0240524D01*
X0233000Y0236642D02*
X0233000Y0229921D01*
X0228000Y0229921D01*
X0233000Y0236642D02*
X0234592Y0238234D01*
X0234966Y0238234D01*
X0238000Y0241268D01*
X0238000Y0252575D01*
X0346000Y0311921D02*
X0346000Y0319575D01*
D28*
X0226841Y0206081D02*
X0180000Y0206081D01*
X0180000Y0206679D02*
X0226242Y0206679D01*
X0226000Y0206921D02*
X0251000Y0181921D01*
X0266000Y0181921D01*
X0266000Y0141921D01*
X0180000Y0141921D01*
X0180000Y0206921D01*
X0226000Y0206921D01*
X0227439Y0205482D02*
X0180000Y0205482D01*
X0180000Y0204884D02*
X0228038Y0204884D01*
X0228636Y0204285D02*
X0180000Y0204285D01*
X0180000Y0203687D02*
X0229235Y0203687D01*
X0229833Y0203088D02*
X0180000Y0203088D01*
X0180000Y0202490D02*
X0230432Y0202490D01*
X0231030Y0201891D02*
X0180000Y0201891D01*
X0180000Y0201293D02*
X0231629Y0201293D01*
X0232227Y0200694D02*
X0180000Y0200694D01*
X0180000Y0200096D02*
X0232826Y0200096D01*
X0233424Y0199497D02*
X0180000Y0199497D01*
X0180000Y0198899D02*
X0234023Y0198899D01*
X0234621Y0198300D02*
X0180000Y0198300D01*
X0180000Y0197702D02*
X0235220Y0197702D01*
X0235818Y0197103D02*
X0180000Y0197103D01*
X0180000Y0196505D02*
X0236417Y0196505D01*
X0237015Y0195906D02*
X0180000Y0195906D01*
X0180000Y0195308D02*
X0237614Y0195308D01*
X0238212Y0194709D02*
X0180000Y0194709D01*
X0180000Y0194111D02*
X0238811Y0194111D01*
X0239409Y0193512D02*
X0180000Y0193512D01*
X0180000Y0192914D02*
X0240008Y0192914D01*
X0240606Y0192315D02*
X0180000Y0192315D01*
X0180000Y0191717D02*
X0241205Y0191717D01*
X0241803Y0191118D02*
X0180000Y0191118D01*
X0180000Y0190520D02*
X0242402Y0190520D01*
X0243000Y0189921D02*
X0180000Y0189921D01*
X0180000Y0189323D02*
X0243599Y0189323D01*
X0244197Y0188724D02*
X0180000Y0188724D01*
X0180000Y0188125D02*
X0244796Y0188125D01*
X0245395Y0187527D02*
X0180000Y0187527D01*
X0180000Y0186928D02*
X0245993Y0186928D01*
X0246592Y0186330D02*
X0180000Y0186330D01*
X0180000Y0185731D02*
X0247190Y0185731D01*
X0247789Y0185133D02*
X0180000Y0185133D01*
X0180000Y0184534D02*
X0248387Y0184534D01*
X0248986Y0183936D02*
X0180000Y0183936D01*
X0180000Y0183337D02*
X0249584Y0183337D01*
X0250183Y0182739D02*
X0180000Y0182739D01*
X0180000Y0182140D02*
X0250781Y0182140D01*
X0266000Y0181542D02*
X0180000Y0181542D01*
X0180000Y0180943D02*
X0266000Y0180943D01*
X0266000Y0180345D02*
X0180000Y0180345D01*
X0180000Y0179746D02*
X0266000Y0179746D01*
X0266000Y0179148D02*
X0180000Y0179148D01*
X0180000Y0178549D02*
X0266000Y0178549D01*
X0266000Y0177951D02*
X0180000Y0177951D01*
X0180000Y0177352D02*
X0266000Y0177352D01*
X0266000Y0176754D02*
X0180000Y0176754D01*
X0180000Y0176155D02*
X0266000Y0176155D01*
X0266000Y0175557D02*
X0180000Y0175557D01*
X0180000Y0174958D02*
X0266000Y0174958D01*
X0266000Y0174360D02*
X0180000Y0174360D01*
X0180000Y0173761D02*
X0266000Y0173761D01*
X0266000Y0173163D02*
X0180000Y0173163D01*
X0180000Y0172564D02*
X0266000Y0172564D01*
X0266000Y0171966D02*
X0180000Y0171966D01*
X0180000Y0171367D02*
X0266000Y0171367D01*
X0266000Y0170769D02*
X0180000Y0170769D01*
X0180000Y0170170D02*
X0266000Y0170170D01*
X0266000Y0169572D02*
X0180000Y0169572D01*
X0180000Y0168973D02*
X0266000Y0168973D01*
X0266000Y0168375D02*
X0180000Y0168375D01*
X0180000Y0167776D02*
X0266000Y0167776D01*
X0266000Y0167178D02*
X0180000Y0167178D01*
X0180000Y0166579D02*
X0266000Y0166579D01*
X0266000Y0165981D02*
X0180000Y0165981D01*
X0180000Y0165382D02*
X0266000Y0165382D01*
X0266000Y0164784D02*
X0180000Y0164784D01*
X0180000Y0164185D02*
X0266000Y0164185D01*
X0266000Y0163587D02*
X0180000Y0163587D01*
X0180000Y0162988D02*
X0266000Y0162988D01*
X0266000Y0162389D02*
X0180000Y0162389D01*
X0180000Y0161791D02*
X0266000Y0161791D01*
X0266000Y0161192D02*
X0180000Y0161192D01*
X0180000Y0160594D02*
X0266000Y0160594D01*
X0266000Y0159995D02*
X0180000Y0159995D01*
X0180000Y0159397D02*
X0266000Y0159397D01*
X0266000Y0158798D02*
X0180000Y0158798D01*
X0180000Y0158200D02*
X0266000Y0158200D01*
X0266000Y0157601D02*
X0180000Y0157601D01*
X0180000Y0157003D02*
X0266000Y0157003D01*
X0266000Y0156404D02*
X0180000Y0156404D01*
X0180000Y0155806D02*
X0266000Y0155806D01*
X0266000Y0155207D02*
X0180000Y0155207D01*
X0180000Y0154609D02*
X0266000Y0154609D01*
X0266000Y0154010D02*
X0180000Y0154010D01*
X0180000Y0153412D02*
X0266000Y0153412D01*
X0266000Y0152813D02*
X0180000Y0152813D01*
X0180000Y0152215D02*
X0266000Y0152215D01*
X0266000Y0151616D02*
X0180000Y0151616D01*
X0180000Y0151018D02*
X0266000Y0151018D01*
X0266000Y0150419D02*
X0180000Y0150419D01*
X0180000Y0149821D02*
X0266000Y0149821D01*
X0266000Y0149222D02*
X0180000Y0149222D01*
X0180000Y0148624D02*
X0266000Y0148624D01*
X0266000Y0148025D02*
X0180000Y0148025D01*
X0180000Y0147427D02*
X0266000Y0147427D01*
X0266000Y0146828D02*
X0180000Y0146828D01*
X0180000Y0146230D02*
X0266000Y0146230D01*
X0266000Y0145631D02*
X0180000Y0145631D01*
X0180000Y0145033D02*
X0266000Y0145033D01*
X0266000Y0144434D02*
X0180000Y0144434D01*
X0180000Y0143836D02*
X0266000Y0143836D01*
X0266000Y0143237D02*
X0180000Y0143237D01*
X0180000Y0142639D02*
X0266000Y0142639D01*
X0266000Y0142040D02*
X0180000Y0142040D01*
D29*
X0318000Y0182921D02*
X0319000Y0183921D01*
X0329500Y0194421D01*
X0347250Y0194421D01*
X0319000Y0183921D02*
X0319000Y0251921D01*
X0296500Y0274421D01*
X0281000Y0289921D01*
X0281000Y0308921D01*
X0225476Y0308921D01*
X0211976Y0295421D01*
X0211130Y0294575D01*
X0281000Y0308921D02*
X0281000Y0343921D01*
D30*
X0375701Y0049221D02*
X0395701Y0049221D01*
X0396437Y0048484D01*
X0473000Y0048484D01*
M02*
