%
M48
M72
T01C0.01575
T02C0.02362
T03C0.02559
T04C0.04724
T05C0.05500
T06C0.10000
T07C0.10118
T08C0.11200
T09C0.11800
T10C0.13000
T11C0.20669
%
T01
X239000Y210921
X228000Y216921
X218000Y216921
X193000Y224921
X195000Y234921
X194000Y246921
X204000Y246921
X209000Y247921
X206000Y256921
X214000Y260921
X223000Y270921
X237000Y275921
X246000Y271921
X264000Y283921
X276000Y279921
X271000Y298921
X247000Y298921
X244000Y289921
X291000Y323921
X281000Y365921
X346000Y311921
X335000Y283921
X321000Y269921
X309000Y272921
X305000Y276921
X298000Y254921
X271000Y229921
X249000Y239921
X250000Y249921
X262000Y248921
X230000Y236921
X217000Y241921
X284000Y201921
X335000Y246921
X391000Y246921
X392000Y277921
X402000Y277921
X420000Y291921
X401000Y315921
X431000Y368921
X440000Y249921
X410000Y166921
X485000Y159921
T02
X446000Y132764
X446000Y113079
X247843Y131921
X228157Y131921
T03
X473000Y70984
X473000Y48484
X301000Y343921
X291000Y343921
X281000Y343921
T04
X37000Y44921
X37000Y54921
X26000Y246921
X26000Y256921
X26000Y306921
X26000Y316921
X477000Y296921
X477000Y286921
X477000Y339921
X477000Y349921
T05
X484750Y269421
X484750Y194421
X422250Y194421
X409750Y194421
X397250Y194421
X347250Y194421
X347250Y269421
T06
X228350Y171921
X198350Y171921
X123650Y171921
X93650Y171921
T07
X288299Y137213
X308299Y137213
X332000Y137213
X352000Y137213
X375701Y137213
X395701Y137213
X395701Y112921
X375701Y112921
X352000Y112921
X332000Y112921
X308299Y112921
X288299Y112921
X288299Y88906
X308299Y88906
X308299Y49221
X288299Y49221
X375701Y49221
X395701Y49221
X395701Y88906
X375701Y88906
T08
X161000Y261921
X161000Y291921
X161000Y311921
X81000Y301921
X81000Y341921
X81000Y261921
T09
X53100Y190521
X53100Y123321
T10
X156000Y53921
X346000Y53921
X346000Y353921
X156000Y353921
T11
X46000Y171671
X46000Y142171
M30
