M48
;GenerationSoftware,Autodesk,EAGLE,8.6.0*%
;CreationDate,2019-04-25T23:08:05Z*%
FMAT,2
ICI,OFF
METRIC,TZ,000.000
T12C0.350
T11C0.400
T10C0.600
T9C0.650
T8C1.200
T7C1.397
T6C2.540
T5C2.570
T4C2.845
T3C2.997
T2C3.302
T1C5.250
%
G90
M71
T1
X11430Y28765
X11430Y36259
T2
X87630Y6350
X39370Y6350
X87630Y82550
X39370Y82550
T3
X13233Y23978
X13233Y41046
T4
X20320Y59182
X20320Y69342
X20320Y79502
X40640Y59182
X40640Y66802
X40640Y71882
T5
X100254Y5156
X95174Y5156
X78054Y5156
X72974Y5156
X100254Y15236
X95174Y15236
X78054Y15236
X100254Y21336
X95174Y21336
X89154Y21336
X84074Y21336
X78054Y21336
X72974Y21336
X100254Y27506
X95174Y27506
X89154Y27506
X84074Y27506
X78054Y27506
X72974Y27506
X72974Y15236
T6
X57747Y36322
X23533Y36322
X31153Y36322
X50127Y36322
T7
X87947Y61087
X87947Y42037
X100647Y42037
X106997Y42037
X122872Y42037
X122872Y61087
X103822Y42037
T8
X6350Y55372
X6350Y73152
X6350Y70612
X9144Y4064
X9144Y6604
X120904Y81534
X6350Y57912
X120904Y68072
X120904Y65532
X120904Y78994
T9
X119888Y10684
X119888Y4969
X73660Y80010
X71120Y80010
X76200Y80010
T10
X113030Y21376
X113030Y26376
X57698Y26162
X62698Y26162
T11
X63246Y56134
X54102Y58928
X77216Y62992
X78232Y61976
X54864Y54102
X52832Y55626
X48768Y49784
X58166Y52832
X61722Y66294
X109220Y86360
X122936Y33274
X101854Y63246
X99314Y63246
X81280Y61214
X69850Y63754
X62230Y61722
X56388Y61468
X84836Y64770
X62484Y68580
X49022Y55372
X49276Y52324
X57658Y47752
X55118Y47752
X87630Y71882
X51562Y55372
X71882Y43942
X68580Y51054
X60452Y46228
X52070Y57912
X62992Y53594
X59944Y62738
X66802Y64770
X73660Y74930
X103886Y35052
X111506Y56134
X106426Y66802
X101600Y72898
X66294Y55880
X68580Y68580
X71120Y85598
T12
X75692Y57404
M30