G75*
%MOIN*%
%OFA0B0*%
%FSLAX25Y25*%
%IPPOS*%
%LPD*%
%AMOC8*
5,1,8,0,0,1.08239X$1,22.5*
%
%ADD10C,0.06800*%
%ADD11R,0.01981X0.07099*%
D10*
X0016300Y0011000D02*
X0016300Y0017000D01*
X0026300Y0017000D02*
X0026300Y0011000D01*
X0036300Y0011000D02*
X0036300Y0017000D01*
X0046300Y0017000D02*
X0046300Y0011000D01*
X0056300Y0011000D02*
X0056300Y0017000D01*
X0066300Y0017000D02*
X0066300Y0011000D01*
X0076300Y0011000D02*
X0076300Y0017000D01*
X0086300Y0017000D02*
X0086300Y0011000D01*
X0096300Y0011000D02*
X0096300Y0017000D01*
X0106300Y0017000D02*
X0106300Y0011000D01*
X0116300Y0011000D02*
X0116300Y0017000D01*
X0126300Y0017000D02*
X0126300Y0011000D01*
X0126300Y0081000D02*
X0126300Y0087000D01*
X0116300Y0087000D02*
X0116300Y0081000D01*
X0106300Y0081000D02*
X0106300Y0087000D01*
X0096300Y0087000D02*
X0096300Y0081000D01*
X0086300Y0081000D02*
X0086300Y0087000D01*
X0076300Y0087000D02*
X0076300Y0081000D01*
X0066300Y0081000D02*
X0066300Y0087000D01*
X0056300Y0087000D02*
X0056300Y0081000D01*
X0046300Y0081000D02*
X0046300Y0087000D01*
X0036300Y0087000D02*
X0036300Y0081000D01*
X0026300Y0081000D02*
X0026300Y0087000D01*
X0016300Y0087000D02*
X0016300Y0081000D01*
D11*
X0057225Y0061024D03*
X0059784Y0061024D03*
X0062343Y0061024D03*
X0064902Y0061024D03*
X0067461Y0061024D03*
X0070020Y0061024D03*
X0072580Y0061024D03*
X0075139Y0061024D03*
X0077698Y0061024D03*
X0080257Y0061024D03*
X0082816Y0061024D03*
X0085375Y0061024D03*
X0085375Y0038976D03*
X0082816Y0038976D03*
X0080257Y0038976D03*
X0077698Y0038976D03*
X0075139Y0038976D03*
X0072580Y0038976D03*
X0070020Y0038976D03*
X0067461Y0038976D03*
X0064902Y0038976D03*
X0062343Y0038976D03*
X0059784Y0038976D03*
X0057225Y0038976D03*
M02*
