G75*
%MOIN*%
%OFA0B0*%
%FSLAX25Y25*%
%IPPOS*%
%LPD*%
%AMOC8*
5,1,8,0,0,1.08239X$1,22.5*
%
%ADD10C,0.06000*%
%ADD11R,0.01181X0.06299*%
%ADD12C,0.01000*%
%ADD13C,0.02000*%
%ADD14C,0.01600*%
D10*
X0016300Y0011000D02*
X0016300Y0017000D01*
X0026300Y0017000D02*
X0026300Y0011000D01*
X0036300Y0011000D02*
X0036300Y0017000D01*
X0046300Y0017000D02*
X0046300Y0011000D01*
X0056300Y0011000D02*
X0056300Y0017000D01*
X0066300Y0017000D02*
X0066300Y0011000D01*
X0076300Y0011000D02*
X0076300Y0017000D01*
X0086300Y0017000D02*
X0086300Y0011000D01*
X0096300Y0011000D02*
X0096300Y0017000D01*
X0106300Y0017000D02*
X0106300Y0011000D01*
X0116300Y0011000D02*
X0116300Y0017000D01*
X0126300Y0017000D02*
X0126300Y0011000D01*
X0126300Y0081000D02*
X0126300Y0087000D01*
X0116300Y0087000D02*
X0116300Y0081000D01*
X0106300Y0081000D02*
X0106300Y0087000D01*
X0096300Y0087000D02*
X0096300Y0081000D01*
X0086300Y0081000D02*
X0086300Y0087000D01*
X0076300Y0087000D02*
X0076300Y0081000D01*
X0066300Y0081000D02*
X0066300Y0087000D01*
X0056300Y0087000D02*
X0056300Y0081000D01*
X0046300Y0081000D02*
X0046300Y0087000D01*
X0036300Y0087000D02*
X0036300Y0081000D01*
X0026300Y0081000D02*
X0026300Y0087000D01*
X0016300Y0087000D02*
X0016300Y0081000D01*
D11*
X0057225Y0061024D03*
X0059784Y0061024D03*
X0062343Y0061024D03*
X0064902Y0061024D03*
X0067461Y0061024D03*
X0070020Y0061024D03*
X0072580Y0061024D03*
X0075139Y0061024D03*
X0077698Y0061024D03*
X0080257Y0061024D03*
X0082816Y0061024D03*
X0085375Y0061024D03*
X0085375Y0038976D03*
X0082816Y0038976D03*
X0080257Y0038976D03*
X0077698Y0038976D03*
X0075139Y0038976D03*
X0072580Y0038976D03*
X0070020Y0038976D03*
X0067461Y0038976D03*
X0064902Y0038976D03*
X0062343Y0038976D03*
X0059784Y0038976D03*
X0057225Y0038976D03*
D12*
X0057225Y0061024D02*
X0057100Y0061600D01*
X0059800Y0061600D02*
X0059800Y0064300D01*
X0059800Y0061600D02*
X0059784Y0061024D01*
X0062343Y0061024D02*
X0062500Y0061600D01*
X0075100Y0061600D02*
X0075139Y0061024D01*
X0077698Y0061024D02*
X0077800Y0061600D01*
X0085900Y0083200D02*
X0086300Y0084000D01*
X0095800Y0083200D02*
X0096300Y0084000D01*
X0036400Y0083200D02*
X0036300Y0084000D01*
X0026500Y0083200D02*
X0026300Y0084000D01*
X0016600Y0083200D02*
X0016300Y0084000D01*
D13*
X0004800Y0047500D02*
X0004800Y0003000D01*
X0056300Y0003000D01*
X0056300Y0014000D01*
X0046300Y0014000D02*
X0046300Y0030000D01*
X0064800Y0030000D01*
X0064800Y0038976D01*
X0064902Y0038976D01*
X0062343Y0038976D02*
X0062300Y0038976D01*
X0062300Y0044000D01*
X0009300Y0044000D01*
X0009300Y0006000D01*
X0036300Y0006000D01*
X0036300Y0014000D01*
X0026300Y0014000D02*
X0026300Y0034000D01*
X0059800Y0034000D01*
X0059800Y0038976D01*
X0059784Y0038976D01*
X0057225Y0038976D02*
X0057225Y0039500D01*
X0016300Y0039500D01*
X0016300Y0014000D01*
X0004800Y0047500D02*
X0067461Y0047500D01*
X0067461Y0038976D01*
X0069800Y0038976D02*
X0069800Y0030500D01*
X0067800Y0030500D01*
X0067800Y0030000D01*
X0067300Y0030000D01*
X0067300Y0017500D01*
X0066300Y0017500D01*
X0066300Y0014000D01*
X0075800Y0016000D02*
X0075800Y0016500D01*
X0076300Y0016500D01*
X0076300Y0014000D01*
X0075800Y0016500D02*
X0075800Y0030500D01*
X0072800Y0030500D01*
X0072800Y0038976D01*
X0072580Y0038976D01*
X0074800Y0038976D02*
X0074800Y0047000D01*
X0138800Y0047000D01*
X0138800Y0002500D01*
X0086300Y0002500D01*
X0086300Y0014000D01*
X0096300Y0014000D02*
X0096300Y0025500D01*
X0080300Y0025500D01*
X0080300Y0033000D01*
X0077800Y0033000D01*
X0077800Y0038976D01*
X0077698Y0038976D01*
X0080257Y0038976D02*
X0080300Y0038976D01*
X0080300Y0043500D01*
X0133800Y0043500D01*
X0133800Y0005000D01*
X0106300Y0005000D01*
X0106300Y0014000D01*
X0116300Y0014000D02*
X0116300Y0033500D01*
X0082800Y0033500D01*
X0082800Y0038976D01*
X0082816Y0038976D01*
X0085375Y0038976D02*
X0126300Y0038976D01*
X0126300Y0014000D01*
X0075139Y0038976D02*
X0074800Y0038976D01*
X0070020Y0038976D02*
X0069800Y0038976D01*
X0067300Y0052500D02*
X0004300Y0052500D01*
X0004300Y0097500D01*
X0056300Y0097500D01*
X0056300Y0084000D01*
X0046300Y0084000D02*
X0046300Y0069500D01*
X0064902Y0069500D01*
X0064902Y0061024D01*
X0067300Y0061024D02*
X0067300Y0052500D01*
X0062300Y0055500D02*
X0007800Y0055500D01*
X0007800Y0093500D01*
X0036300Y0093500D01*
X0036300Y0084000D01*
X0026500Y0083200D02*
X0025800Y0083200D01*
X0025800Y0065500D01*
X0059800Y0065500D01*
X0059800Y0064300D01*
X0062300Y0061600D02*
X0062300Y0055500D01*
X0067300Y0061024D02*
X0067461Y0061024D01*
X0070020Y0061024D02*
X0070020Y0084000D01*
X0066300Y0084000D01*
X0076300Y0084000D02*
X0076300Y0079500D01*
X0076300Y0079000D01*
X0076300Y0073500D01*
X0072800Y0073500D01*
X0072800Y0061024D01*
X0072580Y0061024D01*
X0075100Y0061600D02*
X0075300Y0061600D01*
X0075300Y0052500D01*
X0139300Y0052500D01*
X0139300Y0097500D01*
X0086300Y0097500D01*
X0086300Y0084000D01*
X0096300Y0084000D02*
X0096300Y0069000D01*
X0077800Y0069000D01*
X0077800Y0061600D01*
X0080257Y0061024D02*
X0080300Y0061024D01*
X0080300Y0056000D01*
X0135300Y0056000D01*
X0135300Y0092500D01*
X0106300Y0092500D01*
X0106300Y0084000D01*
X0116300Y0084000D02*
X0116300Y0065500D01*
X0082816Y0065500D01*
X0082816Y0061024D01*
X0085375Y0061024D02*
X0085375Y0060500D01*
X0126300Y0060500D01*
X0126300Y0084000D01*
X0062500Y0061600D02*
X0062300Y0061600D01*
X0057225Y0061024D02*
X0057225Y0061000D01*
X0016300Y0061000D01*
X0016300Y0083200D01*
X0016600Y0083200D01*
D14*
X0020900Y0083926D02*
X0021700Y0083926D01*
X0021700Y0085524D02*
X0020900Y0085524D01*
X0020900Y0087123D02*
X0021700Y0087123D01*
X0021700Y0087915D02*
X0021700Y0080085D01*
X0022400Y0078394D01*
X0023200Y0077595D01*
X0023200Y0064983D01*
X0023596Y0064027D01*
X0024023Y0063600D01*
X0018900Y0063600D01*
X0018900Y0077098D01*
X0018906Y0077100D01*
X0020200Y0078394D01*
X0020900Y0080085D01*
X0020900Y0087915D01*
X0020200Y0089606D01*
X0018906Y0090900D01*
X0018905Y0090900D01*
X0023695Y0090900D01*
X0023694Y0090900D01*
X0022400Y0089606D01*
X0021700Y0087915D01*
X0022034Y0088721D02*
X0020566Y0088721D01*
X0019486Y0090320D02*
X0023114Y0090320D01*
X0028905Y0090900D02*
X0033695Y0090900D01*
X0033694Y0090900D01*
X0032400Y0089606D01*
X0031700Y0087915D01*
X0031700Y0080085D01*
X0032400Y0078394D01*
X0033694Y0077100D01*
X0035385Y0076400D01*
X0037215Y0076400D01*
X0038906Y0077100D01*
X0040200Y0078394D01*
X0040900Y0080085D01*
X0040900Y0087915D01*
X0040200Y0089606D01*
X0038906Y0090900D01*
X0038900Y0090902D01*
X0038900Y0094017D01*
X0038534Y0094900D01*
X0053700Y0094900D01*
X0053700Y0090902D01*
X0053694Y0090900D01*
X0052400Y0089606D01*
X0051700Y0087915D01*
X0051700Y0080085D01*
X0052400Y0078394D01*
X0053694Y0077100D01*
X0055385Y0076400D01*
X0057215Y0076400D01*
X0058906Y0077100D01*
X0060200Y0078394D01*
X0060900Y0080085D01*
X0060900Y0087915D01*
X0060200Y0089606D01*
X0058906Y0090900D01*
X0058900Y0090902D01*
X0058900Y0095572D01*
X0083700Y0095749D01*
X0083700Y0090902D01*
X0083694Y0090900D01*
X0082400Y0089606D01*
X0081700Y0087915D01*
X0081700Y0080085D01*
X0082400Y0078394D01*
X0083694Y0077100D01*
X0085385Y0076400D01*
X0087215Y0076400D01*
X0088906Y0077100D01*
X0090200Y0078394D01*
X0090900Y0080085D01*
X0090900Y0087915D01*
X0090200Y0089606D01*
X0088906Y0090900D01*
X0088900Y0090902D01*
X0088900Y0094900D01*
X0105300Y0094900D01*
X0104827Y0094704D01*
X0104096Y0093973D01*
X0103700Y0093017D01*
X0103700Y0090902D01*
X0103694Y0090900D01*
X0102400Y0089606D01*
X0101700Y0087915D01*
X0101700Y0080085D01*
X0102400Y0078394D01*
X0103694Y0077100D01*
X0105385Y0076400D01*
X0107215Y0076400D01*
X0108906Y0077100D01*
X0110200Y0078394D01*
X0110900Y0080085D01*
X0110900Y0087915D01*
X0110200Y0089606D01*
X0109905Y0089900D01*
X0112695Y0089900D01*
X0112400Y0089606D01*
X0111700Y0087915D01*
X0111700Y0080085D01*
X0112400Y0078394D01*
X0113694Y0077100D01*
X0113700Y0077098D01*
X0113700Y0068100D01*
X0098741Y0068100D01*
X0098900Y0068483D01*
X0098900Y0077098D01*
X0098906Y0077100D01*
X0100200Y0078394D01*
X0100900Y0080085D01*
X0100900Y0087915D01*
X0100200Y0089606D01*
X0098906Y0090900D01*
X0097215Y0091600D01*
X0095385Y0091600D01*
X0093694Y0090900D01*
X0092400Y0089606D01*
X0091700Y0087915D01*
X0091700Y0080085D01*
X0092400Y0078394D01*
X0093694Y0077100D01*
X0093700Y0077098D01*
X0093700Y0071600D01*
X0078077Y0071600D01*
X0078504Y0072027D01*
X0078900Y0072983D01*
X0078900Y0077098D01*
X0078906Y0077100D01*
X0080200Y0078394D01*
X0080900Y0080085D01*
X0080900Y0087915D01*
X0080200Y0089606D01*
X0078906Y0090900D01*
X0077215Y0091600D01*
X0075385Y0091600D01*
X0073694Y0090900D01*
X0072400Y0089606D01*
X0071700Y0087915D01*
X0071700Y0085997D01*
X0071493Y0086204D01*
X0070900Y0086450D01*
X0070900Y0087915D01*
X0070200Y0089606D01*
X0068906Y0090900D01*
X0067215Y0091600D01*
X0065385Y0091600D01*
X0063694Y0090900D01*
X0062400Y0089606D01*
X0061700Y0087915D01*
X0061700Y0080085D01*
X0062400Y0078394D01*
X0063694Y0077100D01*
X0065385Y0076400D01*
X0067215Y0076400D01*
X0067420Y0076485D01*
X0067420Y0070215D01*
X0067107Y0070973D01*
X0066375Y0071704D01*
X0065420Y0072100D01*
X0048900Y0072100D01*
X0048900Y0077098D01*
X0048906Y0077100D01*
X0050200Y0078394D01*
X0050900Y0080085D01*
X0050900Y0087915D01*
X0050200Y0089606D01*
X0048906Y0090900D01*
X0047215Y0091600D01*
X0045385Y0091600D01*
X0043694Y0090900D01*
X0042400Y0089606D01*
X0041700Y0087915D01*
X0041700Y0080085D01*
X0042400Y0078394D01*
X0043694Y0077100D01*
X0043700Y0077098D01*
X0043700Y0068983D01*
X0044066Y0068100D01*
X0028400Y0068100D01*
X0028400Y0076891D01*
X0028906Y0077100D01*
X0030200Y0078394D01*
X0030900Y0080085D01*
X0030900Y0087915D01*
X0030200Y0089606D01*
X0028906Y0090900D01*
X0028905Y0090900D01*
X0029486Y0090320D02*
X0033114Y0090320D01*
X0032034Y0088721D02*
X0030566Y0088721D01*
X0030900Y0087123D02*
X0031700Y0087123D01*
X0031700Y0085524D02*
X0030900Y0085524D01*
X0030900Y0083926D02*
X0031700Y0083926D01*
X0031700Y0082327D02*
X0030900Y0082327D01*
X0030900Y0080729D02*
X0031700Y0080729D01*
X0032096Y0079130D02*
X0030504Y0079130D01*
X0029337Y0077532D02*
X0033263Y0077532D01*
X0028400Y0075933D02*
X0043700Y0075933D01*
X0043263Y0077532D02*
X0039337Y0077532D01*
X0040504Y0079130D02*
X0042096Y0079130D01*
X0041700Y0080729D02*
X0040900Y0080729D01*
X0040900Y0082327D02*
X0041700Y0082327D01*
X0041700Y0083926D02*
X0040900Y0083926D01*
X0040900Y0085524D02*
X0041700Y0085524D01*
X0041700Y0087123D02*
X0040900Y0087123D01*
X0040566Y0088721D02*
X0042034Y0088721D01*
X0043114Y0090320D02*
X0039486Y0090320D01*
X0038900Y0091918D02*
X0053700Y0091918D01*
X0053114Y0090320D02*
X0049486Y0090320D01*
X0050566Y0088721D02*
X0052034Y0088721D01*
X0051700Y0087123D02*
X0050900Y0087123D01*
X0050900Y0085524D02*
X0051700Y0085524D01*
X0051700Y0083926D02*
X0050900Y0083926D01*
X0050900Y0082327D02*
X0051700Y0082327D01*
X0051700Y0080729D02*
X0050900Y0080729D01*
X0050504Y0079130D02*
X0052096Y0079130D01*
X0053263Y0077532D02*
X0049337Y0077532D01*
X0048900Y0075933D02*
X0067420Y0075933D01*
X0067420Y0074334D02*
X0048900Y0074334D01*
X0048900Y0072736D02*
X0067420Y0072736D01*
X0067420Y0071137D02*
X0066942Y0071137D01*
X0062302Y0066900D02*
X0062302Y0066253D01*
X0062034Y0066900D01*
X0062302Y0066900D01*
X0062302Y0066342D02*
X0062265Y0066342D01*
X0055035Y0058400D02*
X0055035Y0058100D01*
X0010400Y0058100D01*
X0010400Y0090900D01*
X0013695Y0090900D01*
X0013694Y0090900D01*
X0012400Y0089606D01*
X0011700Y0087915D01*
X0011700Y0080085D01*
X0012400Y0078394D01*
X0013694Y0077100D01*
X0013700Y0077098D01*
X0013700Y0060483D01*
X0014096Y0059527D01*
X0014827Y0058796D01*
X0015783Y0058400D01*
X0055035Y0058400D01*
X0055035Y0058349D02*
X0010400Y0058349D01*
X0010400Y0059948D02*
X0013922Y0059948D01*
X0013700Y0061546D02*
X0010400Y0061546D01*
X0010400Y0063145D02*
X0013700Y0063145D01*
X0013700Y0064743D02*
X0010400Y0064743D01*
X0010400Y0066342D02*
X0013700Y0066342D01*
X0013700Y0067940D02*
X0010400Y0067940D01*
X0010400Y0069539D02*
X0013700Y0069539D01*
X0013700Y0071137D02*
X0010400Y0071137D01*
X0010400Y0072736D02*
X0013700Y0072736D01*
X0013700Y0074334D02*
X0010400Y0074334D01*
X0010400Y0075933D02*
X0013700Y0075933D01*
X0013263Y0077532D02*
X0010400Y0077532D01*
X0010400Y0079130D02*
X0012096Y0079130D01*
X0011700Y0080729D02*
X0010400Y0080729D01*
X0010400Y0082327D02*
X0011700Y0082327D01*
X0011700Y0083926D02*
X0010400Y0083926D01*
X0010400Y0085524D02*
X0011700Y0085524D01*
X0011700Y0087123D02*
X0010400Y0087123D01*
X0010400Y0088721D02*
X0012034Y0088721D01*
X0013114Y0090320D02*
X0010400Y0090320D01*
X0020900Y0082327D02*
X0021700Y0082327D01*
X0021700Y0080729D02*
X0020900Y0080729D01*
X0020504Y0079130D02*
X0022096Y0079130D01*
X0023200Y0077532D02*
X0019337Y0077532D01*
X0018900Y0075933D02*
X0023200Y0075933D01*
X0023200Y0074334D02*
X0018900Y0074334D01*
X0018900Y0072736D02*
X0023200Y0072736D01*
X0023200Y0071137D02*
X0018900Y0071137D01*
X0018900Y0069539D02*
X0023200Y0069539D01*
X0023200Y0067940D02*
X0018900Y0067940D01*
X0018900Y0066342D02*
X0023200Y0066342D01*
X0023299Y0064743D02*
X0018900Y0064743D01*
X0028400Y0069539D02*
X0043700Y0069539D01*
X0043700Y0071137D02*
X0028400Y0071137D01*
X0028400Y0072736D02*
X0043700Y0072736D01*
X0043700Y0074334D02*
X0028400Y0074334D01*
X0038900Y0093517D02*
X0053700Y0093517D01*
X0058900Y0093517D02*
X0083700Y0093517D01*
X0083700Y0095115D02*
X0058900Y0095115D01*
X0058900Y0091918D02*
X0083700Y0091918D01*
X0083114Y0090320D02*
X0079486Y0090320D01*
X0080566Y0088721D02*
X0082034Y0088721D01*
X0081700Y0087123D02*
X0080900Y0087123D01*
X0080900Y0085524D02*
X0081700Y0085524D01*
X0081700Y0083926D02*
X0080900Y0083926D01*
X0080900Y0082327D02*
X0081700Y0082327D01*
X0081700Y0080729D02*
X0080900Y0080729D01*
X0080504Y0079130D02*
X0082096Y0079130D01*
X0083263Y0077532D02*
X0079337Y0077532D01*
X0078900Y0075933D02*
X0093700Y0075933D01*
X0093263Y0077532D02*
X0089337Y0077532D01*
X0090504Y0079130D02*
X0092096Y0079130D01*
X0091700Y0080729D02*
X0090900Y0080729D01*
X0090900Y0082327D02*
X0091700Y0082327D01*
X0091700Y0083926D02*
X0090900Y0083926D01*
X0090900Y0085524D02*
X0091700Y0085524D01*
X0091700Y0087123D02*
X0090900Y0087123D01*
X0090566Y0088721D02*
X0092034Y0088721D01*
X0093114Y0090320D02*
X0089486Y0090320D01*
X0088900Y0091918D02*
X0103700Y0091918D01*
X0103114Y0090320D02*
X0099486Y0090320D01*
X0100566Y0088721D02*
X0102034Y0088721D01*
X0101700Y0087123D02*
X0100900Y0087123D01*
X0100900Y0085524D02*
X0101700Y0085524D01*
X0101700Y0083926D02*
X0100900Y0083926D01*
X0100900Y0082327D02*
X0101700Y0082327D01*
X0101700Y0080729D02*
X0100900Y0080729D01*
X0100504Y0079130D02*
X0102096Y0079130D01*
X0103263Y0077532D02*
X0099337Y0077532D01*
X0098900Y0075933D02*
X0113700Y0075933D01*
X0113263Y0077532D02*
X0109337Y0077532D01*
X0110504Y0079130D02*
X0112096Y0079130D01*
X0111700Y0080729D02*
X0110900Y0080729D01*
X0110900Y0082327D02*
X0111700Y0082327D01*
X0111700Y0083926D02*
X0110900Y0083926D01*
X0110900Y0085524D02*
X0111700Y0085524D01*
X0111700Y0087123D02*
X0110900Y0087123D01*
X0110566Y0088721D02*
X0112034Y0088721D01*
X0103907Y0093517D02*
X0088900Y0093517D01*
X0073114Y0090320D02*
X0069486Y0090320D01*
X0070566Y0088721D02*
X0072034Y0088721D01*
X0071700Y0087123D02*
X0070900Y0087123D01*
X0063114Y0090320D02*
X0059486Y0090320D01*
X0060566Y0088721D02*
X0062034Y0088721D01*
X0061700Y0087123D02*
X0060900Y0087123D01*
X0060900Y0085524D02*
X0061700Y0085524D01*
X0061700Y0083926D02*
X0060900Y0083926D01*
X0060900Y0082327D02*
X0061700Y0082327D01*
X0061700Y0080729D02*
X0060900Y0080729D01*
X0060504Y0079130D02*
X0062096Y0079130D01*
X0063263Y0077532D02*
X0059337Y0077532D01*
X0072620Y0077532D02*
X0073263Y0077532D01*
X0073694Y0077100D02*
X0072620Y0078174D01*
X0072620Y0076100D01*
X0073700Y0076100D01*
X0073700Y0077098D01*
X0073694Y0077100D01*
X0078900Y0074334D02*
X0093700Y0074334D01*
X0093700Y0072736D02*
X0078798Y0072736D01*
X0076023Y0070900D02*
X0075596Y0070473D01*
X0075400Y0070000D01*
X0075400Y0070900D01*
X0076023Y0070900D01*
X0072700Y0056274D02*
X0071326Y0056274D01*
X0071300Y0056300D01*
X0071274Y0056274D01*
X0069900Y0056274D01*
X0069900Y0051983D01*
X0069504Y0051027D01*
X0068773Y0050296D01*
X0068139Y0050033D01*
X0068934Y0049704D01*
X0069666Y0048973D01*
X0070061Y0048017D01*
X0070061Y0043726D01*
X0071274Y0043726D01*
X0071300Y0043700D01*
X0071326Y0043726D01*
X0072200Y0043726D01*
X0072200Y0047517D01*
X0072596Y0048473D01*
X0073327Y0049204D01*
X0074283Y0049600D01*
X0134300Y0049600D01*
X0134300Y0049900D01*
X0074783Y0049900D01*
X0073827Y0050296D01*
X0073096Y0051027D01*
X0072700Y0051983D01*
X0072700Y0056274D01*
X0072700Y0055152D02*
X0069900Y0055152D01*
X0069900Y0053554D02*
X0072700Y0053554D01*
X0072711Y0051955D02*
X0069889Y0051955D01*
X0068834Y0050357D02*
X0073766Y0050357D01*
X0072881Y0048758D02*
X0069754Y0048758D01*
X0070061Y0047160D02*
X0072200Y0047160D01*
X0072200Y0045561D02*
X0070061Y0045561D01*
X0070061Y0043963D02*
X0072200Y0043963D01*
X0077400Y0043963D02*
X0077700Y0043963D01*
X0077700Y0044017D02*
X0077700Y0043726D01*
X0077400Y0043726D01*
X0077400Y0044400D01*
X0077859Y0044400D01*
X0077700Y0044017D01*
X0087565Y0036376D02*
X0123700Y0036376D01*
X0123700Y0020902D01*
X0123694Y0020900D01*
X0122400Y0019606D01*
X0121700Y0017915D01*
X0121700Y0010085D01*
X0122400Y0008394D01*
X0123195Y0007600D01*
X0119405Y0007600D01*
X0120200Y0008394D01*
X0120900Y0010085D01*
X0120900Y0017915D01*
X0120200Y0019606D01*
X0118906Y0020900D01*
X0118900Y0020902D01*
X0118900Y0034017D01*
X0118504Y0034973D01*
X0117773Y0035704D01*
X0116817Y0036100D01*
X0115783Y0036100D01*
X0087565Y0036100D01*
X0087565Y0036376D01*
X0082900Y0030900D02*
X0113700Y0030900D01*
X0113700Y0020902D01*
X0113694Y0020900D01*
X0112400Y0019606D01*
X0111700Y0017915D01*
X0111700Y0010085D01*
X0112400Y0008394D01*
X0113195Y0007600D01*
X0109405Y0007600D01*
X0110200Y0008394D01*
X0110900Y0010085D01*
X0110900Y0017915D01*
X0110200Y0019606D01*
X0108906Y0020900D01*
X0107215Y0021600D01*
X0105385Y0021600D01*
X0103694Y0020900D01*
X0102400Y0019606D01*
X0101700Y0017915D01*
X0101700Y0010085D01*
X0102400Y0008394D01*
X0103694Y0007100D01*
X0103700Y0007098D01*
X0103700Y0005800D01*
X0088900Y0005800D01*
X0088900Y0007098D01*
X0088906Y0007100D01*
X0090200Y0008394D01*
X0090900Y0010085D01*
X0090900Y0017915D01*
X0090200Y0019606D01*
X0088906Y0020900D01*
X0087215Y0021600D01*
X0085385Y0021600D01*
X0083694Y0020900D01*
X0082400Y0019606D01*
X0081700Y0017915D01*
X0081700Y0010085D01*
X0082400Y0008394D01*
X0083694Y0007100D01*
X0083700Y0007098D01*
X0083700Y0005800D01*
X0058900Y0005800D01*
X0058900Y0007098D01*
X0058906Y0007100D01*
X0060200Y0008394D01*
X0060900Y0010085D01*
X0060900Y0017915D01*
X0060200Y0019606D01*
X0058906Y0020900D01*
X0057215Y0021600D01*
X0055385Y0021600D01*
X0053694Y0020900D01*
X0052400Y0019606D01*
X0051700Y0017915D01*
X0051700Y0010085D01*
X0052400Y0008394D01*
X0053694Y0007100D01*
X0053700Y0007098D01*
X0053700Y0005800D01*
X0038900Y0005800D01*
X0038900Y0007098D01*
X0038906Y0007100D01*
X0040200Y0008394D01*
X0040900Y0010085D01*
X0040900Y0017915D01*
X0040200Y0019606D01*
X0038906Y0020900D01*
X0037215Y0021600D01*
X0035385Y0021600D01*
X0033694Y0020900D01*
X0032400Y0019606D01*
X0031700Y0017915D01*
X0031700Y0010085D01*
X0032315Y0008600D01*
X0030285Y0008600D01*
X0030900Y0010085D01*
X0030900Y0017915D01*
X0030200Y0019606D01*
X0028906Y0020900D01*
X0028900Y0020902D01*
X0028900Y0031400D01*
X0044066Y0031400D01*
X0043700Y0030517D01*
X0043700Y0020902D01*
X0043694Y0020900D01*
X0042400Y0019606D01*
X0041700Y0017915D01*
X0041700Y0010085D01*
X0042400Y0008394D01*
X0043694Y0007100D01*
X0045385Y0006400D01*
X0047215Y0006400D01*
X0048906Y0007100D01*
X0050200Y0008394D01*
X0050900Y0010085D01*
X0050900Y0017915D01*
X0050200Y0019606D01*
X0048906Y0020900D01*
X0048900Y0020902D01*
X0048900Y0027400D01*
X0064700Y0027400D01*
X0064700Y0021316D01*
X0063694Y0020900D01*
X0062400Y0019606D01*
X0061700Y0017915D01*
X0061700Y0010085D01*
X0062400Y0008394D01*
X0063694Y0007100D01*
X0065385Y0006400D01*
X0067215Y0006400D01*
X0068906Y0007100D01*
X0070200Y0008394D01*
X0070900Y0010085D01*
X0070900Y0017915D01*
X0070200Y0019606D01*
X0069900Y0019905D01*
X0069900Y0027900D01*
X0070317Y0027900D01*
X0071273Y0028296D01*
X0071300Y0028323D01*
X0071327Y0028296D01*
X0072283Y0027900D01*
X0073200Y0027900D01*
X0073200Y0020405D01*
X0072400Y0019606D01*
X0071700Y0017915D01*
X0071700Y0010085D01*
X0072400Y0008394D01*
X0073694Y0007100D01*
X0075385Y0006400D01*
X0077215Y0006400D01*
X0078906Y0007100D01*
X0080200Y0008394D01*
X0080900Y0010085D01*
X0080900Y0017915D01*
X0080200Y0019606D01*
X0078906Y0020900D01*
X0078400Y0021109D01*
X0078400Y0023723D01*
X0078827Y0023296D01*
X0079783Y0022900D01*
X0093700Y0022900D01*
X0093700Y0020902D01*
X0093694Y0020900D01*
X0092400Y0019606D01*
X0091700Y0017915D01*
X0091700Y0010085D01*
X0092400Y0008394D01*
X0093694Y0007100D01*
X0095385Y0006400D01*
X0097215Y0006400D01*
X0098906Y0007100D01*
X0100200Y0008394D01*
X0100900Y0010085D01*
X0100900Y0017915D01*
X0100200Y0019606D01*
X0098906Y0020900D01*
X0098900Y0020902D01*
X0098900Y0026017D01*
X0098504Y0026973D01*
X0097773Y0027704D01*
X0096817Y0028100D01*
X0082900Y0028100D01*
X0082900Y0030900D01*
X0082900Y0029576D02*
X0113700Y0029576D01*
X0113700Y0027978D02*
X0097112Y0027978D01*
X0098750Y0026379D02*
X0113700Y0026379D01*
X0113700Y0024781D02*
X0098900Y0024781D01*
X0098900Y0023182D02*
X0113700Y0023182D01*
X0113700Y0021584D02*
X0107255Y0021584D01*
X0105345Y0021584D02*
X0098900Y0021584D01*
X0099820Y0019985D02*
X0102780Y0019985D01*
X0101895Y0018387D02*
X0100705Y0018387D01*
X0100900Y0016788D02*
X0101700Y0016788D01*
X0101700Y0015190D02*
X0100900Y0015190D01*
X0100900Y0013591D02*
X0101700Y0013591D01*
X0101700Y0011993D02*
X0100900Y0011993D01*
X0100900Y0010394D02*
X0101700Y0010394D01*
X0102234Y0008796D02*
X0100366Y0008796D01*
X0099002Y0007197D02*
X0103598Y0007197D01*
X0110366Y0008796D02*
X0112234Y0008796D01*
X0111700Y0010394D02*
X0110900Y0010394D01*
X0110900Y0011993D02*
X0111700Y0011993D01*
X0111700Y0013591D02*
X0110900Y0013591D01*
X0110900Y0015190D02*
X0111700Y0015190D01*
X0111700Y0016788D02*
X0110900Y0016788D01*
X0110705Y0018387D02*
X0111895Y0018387D01*
X0112780Y0019985D02*
X0109820Y0019985D01*
X0118900Y0021584D02*
X0123700Y0021584D01*
X0123700Y0023182D02*
X0118900Y0023182D01*
X0118900Y0024781D02*
X0123700Y0024781D01*
X0123700Y0026379D02*
X0118900Y0026379D01*
X0118900Y0027978D02*
X0123700Y0027978D01*
X0123700Y0029576D02*
X0118900Y0029576D01*
X0118900Y0031175D02*
X0123700Y0031175D01*
X0123700Y0032773D02*
X0118900Y0032773D01*
X0118753Y0034372D02*
X0123700Y0034372D01*
X0123700Y0035970D02*
X0117130Y0035970D01*
X0128053Y0040900D02*
X0131200Y0040900D01*
X0131200Y0007600D01*
X0129405Y0007600D01*
X0130200Y0008394D01*
X0130900Y0010085D01*
X0130900Y0017915D01*
X0130200Y0019606D01*
X0128906Y0020900D01*
X0128900Y0020902D01*
X0128900Y0039494D01*
X0128504Y0040449D01*
X0128053Y0040900D01*
X0128188Y0040766D02*
X0131200Y0040766D01*
X0131200Y0039167D02*
X0128900Y0039167D01*
X0128900Y0037569D02*
X0131200Y0037569D01*
X0131200Y0035970D02*
X0128900Y0035970D01*
X0128900Y0034372D02*
X0131200Y0034372D01*
X0131200Y0032773D02*
X0128900Y0032773D01*
X0128900Y0031175D02*
X0131200Y0031175D01*
X0131200Y0029576D02*
X0128900Y0029576D01*
X0128900Y0027978D02*
X0131200Y0027978D01*
X0131200Y0026379D02*
X0128900Y0026379D01*
X0128900Y0024781D02*
X0131200Y0024781D01*
X0131200Y0023182D02*
X0128900Y0023182D01*
X0128900Y0021584D02*
X0131200Y0021584D01*
X0131200Y0019985D02*
X0129820Y0019985D01*
X0130705Y0018387D02*
X0131200Y0018387D01*
X0131200Y0016788D02*
X0130900Y0016788D01*
X0130900Y0015190D02*
X0131200Y0015190D01*
X0131200Y0013591D02*
X0130900Y0013591D01*
X0130900Y0011993D02*
X0131200Y0011993D01*
X0131200Y0010394D02*
X0130900Y0010394D01*
X0131200Y0008796D02*
X0130366Y0008796D01*
X0122234Y0008796D02*
X0120366Y0008796D01*
X0120900Y0010394D02*
X0121700Y0010394D01*
X0121700Y0011993D02*
X0120900Y0011993D01*
X0120900Y0013591D02*
X0121700Y0013591D01*
X0121700Y0015190D02*
X0120900Y0015190D01*
X0120900Y0016788D02*
X0121700Y0016788D01*
X0121895Y0018387D02*
X0120705Y0018387D01*
X0119820Y0019985D02*
X0122780Y0019985D01*
X0093700Y0021584D02*
X0087255Y0021584D01*
X0085345Y0021584D02*
X0078400Y0021584D01*
X0078400Y0023182D02*
X0079102Y0023182D01*
X0079820Y0019985D02*
X0082780Y0019985D01*
X0081895Y0018387D02*
X0080705Y0018387D01*
X0080900Y0016788D02*
X0081700Y0016788D01*
X0081700Y0015190D02*
X0080900Y0015190D01*
X0080900Y0013591D02*
X0081700Y0013591D01*
X0081700Y0011993D02*
X0080900Y0011993D01*
X0080900Y0010394D02*
X0081700Y0010394D01*
X0082234Y0008796D02*
X0080366Y0008796D01*
X0079002Y0007197D02*
X0083598Y0007197D01*
X0089002Y0007197D02*
X0093598Y0007197D01*
X0092234Y0008796D02*
X0090366Y0008796D01*
X0090900Y0010394D02*
X0091700Y0010394D01*
X0091700Y0011993D02*
X0090900Y0011993D01*
X0090900Y0013591D02*
X0091700Y0013591D01*
X0091700Y0015190D02*
X0090900Y0015190D01*
X0090900Y0016788D02*
X0091700Y0016788D01*
X0091895Y0018387D02*
X0090705Y0018387D01*
X0089820Y0019985D02*
X0092780Y0019985D01*
X0073200Y0021584D02*
X0069900Y0021584D01*
X0069900Y0023182D02*
X0073200Y0023182D01*
X0073200Y0024781D02*
X0069900Y0024781D01*
X0069900Y0026379D02*
X0073200Y0026379D01*
X0072095Y0027978D02*
X0070505Y0027978D01*
X0064700Y0026379D02*
X0048900Y0026379D01*
X0048900Y0024781D02*
X0064700Y0024781D01*
X0064700Y0023182D02*
X0048900Y0023182D01*
X0048900Y0021584D02*
X0055345Y0021584D01*
X0057255Y0021584D02*
X0064700Y0021584D01*
X0062780Y0019985D02*
X0059820Y0019985D01*
X0060705Y0018387D02*
X0061895Y0018387D01*
X0061700Y0016788D02*
X0060900Y0016788D01*
X0060900Y0015190D02*
X0061700Y0015190D01*
X0061700Y0013591D02*
X0060900Y0013591D01*
X0060900Y0011993D02*
X0061700Y0011993D01*
X0061700Y0010394D02*
X0060900Y0010394D01*
X0060366Y0008796D02*
X0062234Y0008796D01*
X0063598Y0007197D02*
X0059002Y0007197D01*
X0053598Y0007197D02*
X0049002Y0007197D01*
X0050366Y0008796D02*
X0052234Y0008796D01*
X0051700Y0010394D02*
X0050900Y0010394D01*
X0050900Y0011993D02*
X0051700Y0011993D01*
X0051700Y0013591D02*
X0050900Y0013591D01*
X0050900Y0015190D02*
X0051700Y0015190D01*
X0051700Y0016788D02*
X0050900Y0016788D01*
X0050705Y0018387D02*
X0051895Y0018387D01*
X0052780Y0019985D02*
X0049820Y0019985D01*
X0043700Y0021584D02*
X0037255Y0021584D01*
X0035345Y0021584D02*
X0028900Y0021584D01*
X0028900Y0023182D02*
X0043700Y0023182D01*
X0043700Y0024781D02*
X0028900Y0024781D01*
X0028900Y0026379D02*
X0043700Y0026379D01*
X0043700Y0027978D02*
X0028900Y0027978D01*
X0028900Y0029576D02*
X0043700Y0029576D01*
X0043972Y0031175D02*
X0028900Y0031175D01*
X0023700Y0031175D02*
X0018900Y0031175D01*
X0018900Y0032773D02*
X0023700Y0032773D01*
X0023700Y0034372D02*
X0018900Y0034372D01*
X0018900Y0035970D02*
X0024593Y0035970D01*
X0024827Y0036204D02*
X0024096Y0035473D01*
X0023700Y0034517D01*
X0023700Y0020902D01*
X0023694Y0020900D01*
X0022400Y0019606D01*
X0021700Y0017915D01*
X0021700Y0010085D01*
X0022315Y0008600D01*
X0020285Y0008600D01*
X0020900Y0010085D01*
X0020900Y0017915D01*
X0020200Y0019606D01*
X0018906Y0020900D01*
X0018900Y0020902D01*
X0018900Y0036900D01*
X0055035Y0036900D01*
X0055035Y0036600D01*
X0025783Y0036600D01*
X0024827Y0036204D01*
X0023700Y0029576D02*
X0018900Y0029576D01*
X0018900Y0027978D02*
X0023700Y0027978D01*
X0023700Y0026379D02*
X0018900Y0026379D01*
X0018900Y0024781D02*
X0023700Y0024781D01*
X0023700Y0023182D02*
X0018900Y0023182D01*
X0018900Y0021584D02*
X0023700Y0021584D01*
X0022780Y0019985D02*
X0019820Y0019985D01*
X0020705Y0018387D02*
X0021895Y0018387D01*
X0021700Y0016788D02*
X0020900Y0016788D01*
X0020900Y0015190D02*
X0021700Y0015190D01*
X0021700Y0013591D02*
X0020900Y0013591D01*
X0020900Y0011993D02*
X0021700Y0011993D01*
X0021700Y0010394D02*
X0020900Y0010394D01*
X0020366Y0008796D02*
X0022234Y0008796D01*
X0030366Y0008796D02*
X0032234Y0008796D01*
X0031700Y0010394D02*
X0030900Y0010394D01*
X0030900Y0011993D02*
X0031700Y0011993D01*
X0031700Y0013591D02*
X0030900Y0013591D01*
X0030900Y0015190D02*
X0031700Y0015190D01*
X0031700Y0016788D02*
X0030900Y0016788D01*
X0030705Y0018387D02*
X0031895Y0018387D01*
X0032780Y0019985D02*
X0029820Y0019985D01*
X0039820Y0019985D02*
X0042780Y0019985D01*
X0041895Y0018387D02*
X0040705Y0018387D01*
X0040900Y0016788D02*
X0041700Y0016788D01*
X0041700Y0015190D02*
X0040900Y0015190D01*
X0040900Y0013591D02*
X0041700Y0013591D01*
X0041700Y0011993D02*
X0040900Y0011993D01*
X0040900Y0010394D02*
X0041700Y0010394D01*
X0042234Y0008796D02*
X0040366Y0008796D01*
X0039002Y0007197D02*
X0043598Y0007197D01*
X0069002Y0007197D02*
X0073598Y0007197D01*
X0072234Y0008796D02*
X0070366Y0008796D01*
X0070900Y0010394D02*
X0071700Y0010394D01*
X0071700Y0011993D02*
X0070900Y0011993D01*
X0070900Y0013591D02*
X0071700Y0013591D01*
X0071700Y0015190D02*
X0070900Y0015190D01*
X0070900Y0016788D02*
X0071700Y0016788D01*
X0071895Y0018387D02*
X0070705Y0018387D01*
X0069900Y0019985D02*
X0072780Y0019985D01*
X0062200Y0032600D02*
X0062034Y0032600D01*
X0062200Y0033000D01*
X0062200Y0032600D01*
X0062200Y0032773D02*
X0062106Y0032773D01*
X0064861Y0044610D02*
X0064741Y0044900D01*
X0064861Y0044900D01*
X0064861Y0044610D01*
X0098900Y0069539D02*
X0113700Y0069539D01*
X0113700Y0071137D02*
X0098900Y0071137D01*
X0098900Y0072736D02*
X0113700Y0072736D01*
X0113700Y0074334D02*
X0098900Y0074334D01*
X0117300Y0063100D02*
X0117773Y0063296D01*
X0118504Y0064027D01*
X0118900Y0064983D01*
X0118900Y0077098D01*
X0118906Y0077100D01*
X0120200Y0078394D01*
X0120900Y0080085D01*
X0120900Y0087915D01*
X0120200Y0089606D01*
X0119905Y0089900D01*
X0122695Y0089900D01*
X0122400Y0089606D01*
X0121700Y0087915D01*
X0121700Y0080085D01*
X0122400Y0078394D01*
X0123694Y0077100D01*
X0123700Y0077098D01*
X0123700Y0063100D01*
X0117300Y0063100D01*
X0117408Y0063145D02*
X0123700Y0063145D01*
X0123700Y0064743D02*
X0118801Y0064743D01*
X0118900Y0066342D02*
X0123700Y0066342D01*
X0123700Y0067940D02*
X0118900Y0067940D01*
X0118900Y0069539D02*
X0123700Y0069539D01*
X0123700Y0071137D02*
X0118900Y0071137D01*
X0118900Y0072736D02*
X0123700Y0072736D01*
X0123700Y0074334D02*
X0118900Y0074334D01*
X0118900Y0075933D02*
X0123700Y0075933D01*
X0123263Y0077532D02*
X0119337Y0077532D01*
X0120504Y0079130D02*
X0122096Y0079130D01*
X0121700Y0080729D02*
X0120900Y0080729D01*
X0120900Y0082327D02*
X0121700Y0082327D01*
X0121700Y0083926D02*
X0120900Y0083926D01*
X0120900Y0085524D02*
X0121700Y0085524D01*
X0121700Y0087123D02*
X0120900Y0087123D01*
X0120566Y0088721D02*
X0122034Y0088721D01*
X0129905Y0089900D02*
X0132700Y0089900D01*
X0132700Y0058600D01*
X0128077Y0058600D01*
X0128504Y0059027D01*
X0128900Y0059983D01*
X0128900Y0077098D01*
X0128906Y0077100D01*
X0130200Y0078394D01*
X0130900Y0080085D01*
X0130900Y0087915D01*
X0130200Y0089606D01*
X0129905Y0089900D01*
X0130566Y0088721D02*
X0132700Y0088721D01*
X0132700Y0087123D02*
X0130900Y0087123D01*
X0130900Y0085524D02*
X0132700Y0085524D01*
X0132700Y0083926D02*
X0130900Y0083926D01*
X0130900Y0082327D02*
X0132700Y0082327D01*
X0132700Y0080729D02*
X0130900Y0080729D01*
X0130504Y0079130D02*
X0132700Y0079130D01*
X0132700Y0077532D02*
X0129337Y0077532D01*
X0128900Y0075933D02*
X0132700Y0075933D01*
X0132700Y0074334D02*
X0128900Y0074334D01*
X0128900Y0072736D02*
X0132700Y0072736D01*
X0132700Y0071137D02*
X0128900Y0071137D01*
X0128900Y0069539D02*
X0132700Y0069539D01*
X0132700Y0067940D02*
X0128900Y0067940D01*
X0128900Y0066342D02*
X0132700Y0066342D01*
X0132700Y0064743D02*
X0128900Y0064743D01*
X0128900Y0063145D02*
X0132700Y0063145D01*
X0132700Y0061546D02*
X0128900Y0061546D01*
X0128886Y0059948D02*
X0132700Y0059948D01*
X0014523Y0041400D02*
X0011900Y0041400D01*
X0011900Y0018398D01*
X0012400Y0019606D01*
X0013694Y0020900D01*
X0013700Y0020902D01*
X0013700Y0040017D01*
X0014096Y0040973D01*
X0014523Y0041400D01*
X0014010Y0040766D02*
X0011900Y0040766D01*
X0011900Y0039167D02*
X0013700Y0039167D01*
X0013700Y0037569D02*
X0011900Y0037569D01*
X0011900Y0035970D02*
X0013700Y0035970D01*
X0013700Y0034372D02*
X0011900Y0034372D01*
X0011900Y0032773D02*
X0013700Y0032773D01*
X0013700Y0031175D02*
X0011900Y0031175D01*
X0011900Y0029576D02*
X0013700Y0029576D01*
X0013700Y0027978D02*
X0011900Y0027978D01*
X0011900Y0026379D02*
X0013700Y0026379D01*
X0013700Y0024781D02*
X0011900Y0024781D01*
X0011900Y0023182D02*
X0013700Y0023182D01*
X0013700Y0021584D02*
X0011900Y0021584D01*
X0011900Y0019985D02*
X0012780Y0019985D01*
X0011900Y0009602D02*
X0011900Y0008600D01*
X0012315Y0008600D01*
X0011900Y0009602D01*
X0011900Y0008796D02*
X0012234Y0008796D01*
M02*
