%
M48
M72
T01C0.04000
%
T01
X16300Y14000
X26300Y14000
X36300Y14000
X46300Y14000
X56300Y14000
X66300Y14000
X76300Y14000
X86300Y14000
X96300Y14000
X106300Y14000
X116300Y14000
X126300Y14000
X126300Y84000
X116300Y84000
X106300Y84000
X96300Y84000
X86300Y84000
X76300Y84000
X66300Y84000
X56300Y84000
X46300Y84000
X36300Y84000
X26300Y84000
X16300Y84000
M30
