G75*
%MOIN*%
%OFA0B0*%
%FSLAX25Y25*%
%IPPOS*%
%LPD*%
%AMOC8*
5,1,8,0,0,1.08239X$1,22.5*
%
%ADD10R,0.06706X0.05918*%
%ADD11C,0.07200*%
%ADD12R,0.05918X0.06706*%
%ADD13R,0.07690X0.03359*%
%ADD14R,0.06509X0.02454*%
%ADD15R,0.05315X0.01772*%
%ADD16R,0.05131X0.02572*%
%ADD17R,0.04737X0.01981*%
%ADD18C,0.06343*%
D10*
X0053181Y0005154D03*
X0053181Y0011846D03*
D11*
X0011931Y0011000D03*
X0011931Y0021000D03*
X0011931Y0068500D03*
X0011931Y0078500D03*
X0011931Y0088500D03*
X0011931Y0098500D03*
X0011931Y0108500D03*
X0011931Y0118500D03*
X0011931Y0128500D03*
X0011931Y0138500D03*
X0016931Y0158500D03*
X0016931Y0168500D03*
X0029431Y0181000D03*
X0039431Y0181000D03*
X0074431Y0182250D03*
X0074431Y0172250D03*
X0074431Y0161000D03*
X0074431Y0151000D03*
X0074431Y0141000D03*
X0074431Y0131000D03*
X0074431Y0121000D03*
X0074431Y0111000D03*
X0074431Y0101000D03*
X0074431Y0091000D03*
X0074431Y0079750D03*
X0074431Y0069750D03*
X0074431Y0059750D03*
X0074431Y0049750D03*
X0074431Y0039750D03*
X0074431Y0029750D03*
X0074431Y0019750D03*
X0074431Y0009750D03*
D12*
X0035277Y0028500D03*
X0028584Y0028500D03*
X0027777Y0048500D03*
X0021084Y0048500D03*
X0028584Y0079750D03*
X0035277Y0079750D03*
X0032777Y0129750D03*
X0026084Y0129750D03*
X0033584Y0163500D03*
X0031084Y0171000D03*
X0037777Y0171000D03*
X0040277Y0163500D03*
X0047087Y0153963D03*
X0047072Y0145413D03*
X0053765Y0145413D03*
X0053780Y0153963D03*
D13*
X0045454Y0021000D03*
X0045454Y0016000D03*
X0045454Y0011000D03*
X0045454Y0006000D03*
X0023407Y0006000D03*
X0023407Y0011000D03*
X0023407Y0016000D03*
X0023407Y0021000D03*
D14*
X0028269Y0034661D03*
X0028269Y0037220D03*
X0028269Y0039780D03*
X0028269Y0042339D03*
X0045592Y0042339D03*
X0045592Y0039780D03*
X0045592Y0037220D03*
X0045592Y0034661D03*
D15*
X0050946Y0054543D03*
X0050946Y0057102D03*
X0050946Y0059661D03*
X0050946Y0062220D03*
X0050946Y0064780D03*
X0050946Y0067339D03*
X0050946Y0069898D03*
X0050946Y0072457D03*
X0027915Y0072457D03*
X0027915Y0069898D03*
X0027915Y0067339D03*
X0027915Y0064780D03*
X0027915Y0062220D03*
X0027915Y0059661D03*
X0027915Y0057102D03*
X0027915Y0054543D03*
D16*
X0029313Y0147161D03*
X0029313Y0149720D03*
X0029313Y0152280D03*
X0029313Y0154839D03*
X0039549Y0154839D03*
X0039549Y0152280D03*
X0039549Y0149720D03*
X0039549Y0147161D03*
D17*
X0052029Y0122634D03*
X0052029Y0120075D03*
X0052029Y0117516D03*
X0052029Y0114957D03*
X0052029Y0112398D03*
X0052029Y0109839D03*
X0052029Y0107280D03*
X0052029Y0104720D03*
X0052029Y0102161D03*
X0052029Y0099602D03*
X0052029Y0097043D03*
X0052029Y0094484D03*
X0052029Y0091925D03*
X0052029Y0089366D03*
X0026832Y0089366D03*
X0026832Y0091925D03*
X0026832Y0094484D03*
X0026832Y0097043D03*
X0026832Y0099602D03*
X0026832Y0102161D03*
X0026832Y0104720D03*
X0026832Y0107280D03*
X0026832Y0109839D03*
X0026832Y0112398D03*
X0026832Y0114957D03*
X0026832Y0117516D03*
X0026832Y0120075D03*
X0026832Y0122634D03*
D18*
X0019431Y0031000D03*
M02*
