G75*
%MOIN*%
%OFA0B0*%
%FSLAX25Y25*%
%IPPOS*%
%LPD*%
%AMOC8*
5,1,8,0,0,1.08239X$1,22.5*
%
%ADD10C,0.06000*%
%ADD11R,0.05906X0.05118*%
%ADD12R,0.06496X0.06496*%
%ADD13C,0.06496*%
%ADD14R,0.06000X0.06000*%
%ADD15R,0.05000X0.05000*%
%ADD16R,0.01969X0.01378*%
%ADD17C,0.24669*%
%ADD18C,0.02978*%
%ADD19C,0.01000*%
%ADD20C,0.06118*%
%ADD21C,0.06000*%
%ADD22C,0.00600*%
D10*
X0116000Y0068000D03*
X0126000Y0068000D03*
X0126000Y0078000D03*
X0126000Y0088000D03*
X0116000Y0088000D03*
X0116000Y0078000D03*
X0116000Y0098000D03*
X0126000Y0098000D03*
X0126000Y0108000D03*
X0116000Y0108000D03*
X0116000Y0118000D03*
X0116000Y0128000D03*
X0126000Y0128000D03*
X0126000Y0118000D03*
X0126000Y0138000D03*
X0116000Y0138000D03*
X0116000Y0148000D03*
X0126000Y0148000D03*
X0286000Y0148000D03*
X0286000Y0138000D03*
X0286000Y0128000D03*
X0286000Y0118000D03*
X0286000Y0108000D03*
X0286000Y0098000D03*
X0286000Y0088000D03*
X0286000Y0078000D03*
X0286000Y0068000D03*
X0296000Y0068000D03*
X0296000Y0078000D03*
X0296000Y0088000D03*
X0296000Y0098000D03*
X0296000Y0108000D03*
X0296000Y0118000D03*
X0296000Y0128000D03*
X0296000Y0138000D03*
X0296000Y0148000D03*
X0321000Y0023000D03*
X0331000Y0023000D03*
D11*
X0061000Y0304260D03*
X0061000Y0311740D03*
X0061000Y0324260D03*
X0061000Y0331740D03*
X0031000Y0306740D03*
X0031000Y0299260D03*
X0021000Y0309260D03*
X0021000Y0316740D03*
D12*
X0106000Y0353000D03*
X0161000Y0303000D03*
X0251000Y0318000D03*
X0251000Y0355500D03*
D13*
X0241000Y0355500D03*
X0231000Y0355500D03*
X0221000Y0355500D03*
X0211000Y0355500D03*
X0201000Y0355500D03*
X0191000Y0355500D03*
X0181000Y0355500D03*
X0171000Y0355500D03*
X0161000Y0355500D03*
X0161000Y0318000D03*
X0171000Y0318000D03*
X0181000Y0318000D03*
X0191000Y0318000D03*
X0201000Y0318000D03*
X0211000Y0318000D03*
X0221000Y0318000D03*
X0231000Y0318000D03*
X0241000Y0318000D03*
X0241000Y0303000D03*
X0231000Y0303000D03*
X0221000Y0303000D03*
X0211000Y0303000D03*
X0201000Y0303000D03*
X0191000Y0303000D03*
X0181000Y0303000D03*
X0171000Y0303000D03*
X0096000Y0353000D03*
X0086000Y0353000D03*
X0076000Y0353000D03*
X0066000Y0353000D03*
X0056000Y0353000D03*
X0046000Y0353000D03*
X0036000Y0353000D03*
X0026000Y0353000D03*
X0016000Y0353000D03*
X0251000Y0303000D03*
D14*
X0286000Y0158000D03*
X0296000Y0158000D03*
X0126000Y0158000D03*
X0116000Y0158000D03*
D15*
X0126000Y0278000D03*
X0136000Y0278000D03*
X0136000Y0308000D03*
X0136000Y0318000D03*
X0126000Y0318000D03*
X0126000Y0308000D03*
X0126000Y0348000D03*
X0136000Y0348000D03*
X0266000Y0348000D03*
X0276000Y0348000D03*
X0276000Y0318000D03*
X0276000Y0308000D03*
X0266000Y0308000D03*
X0266000Y0318000D03*
X0266000Y0278000D03*
X0276000Y0278000D03*
D16*
X0210035Y0156839D03*
X0210035Y0154280D03*
X0210035Y0151720D03*
X0210035Y0149161D03*
X0201965Y0149161D03*
X0201965Y0151720D03*
X0201965Y0154280D03*
X0201965Y0156839D03*
D17*
X0031250Y0038000D03*
X0060750Y0038000D03*
D18*
X0096000Y0093000D03*
X0076000Y0113000D03*
X0076000Y0128000D03*
X0081000Y0138000D03*
X0071000Y0188000D03*
X0036000Y0223000D03*
X0051000Y0238000D03*
X0086000Y0243000D03*
X0091000Y0253000D03*
X0101000Y0258000D03*
X0016000Y0323000D03*
X0011000Y0238000D03*
X0161000Y0088000D03*
D19*
X0186000Y0063000D01*
X0311000Y0063000D01*
X0326000Y0078000D01*
X0326000Y0328000D01*
X0306000Y0348000D01*
X0286000Y0348000D01*
X0281000Y0353000D01*
X0261000Y0353000D01*
X0256000Y0348000D01*
X0238500Y0348000D01*
X0231000Y0355500D01*
X0191000Y0355500D02*
X0191000Y0333000D01*
X0296000Y0333000D01*
X0311000Y0318000D01*
X0311000Y0118000D01*
X0306000Y0113000D01*
X0291000Y0113000D01*
X0286000Y0118000D01*
X0281000Y0123000D02*
X0191000Y0213000D01*
X0191000Y0303000D01*
X0192801Y0307348D02*
X0179199Y0307348D01*
X0176652Y0304801D01*
X0176652Y0278652D01*
X0106000Y0208000D01*
X0106000Y0123000D01*
X0111000Y0118000D01*
X0116000Y0118000D01*
X0106000Y0118000D02*
X0116000Y0108000D01*
X0106000Y0118000D02*
X0096000Y0118000D01*
X0096000Y0213000D01*
X0166000Y0283000D01*
X0166000Y0306000D01*
X0170000Y0310000D01*
X0204000Y0310000D01*
X0211000Y0303000D01*
X0221000Y0303000D02*
X0221000Y0193000D01*
X0281000Y0133000D01*
X0296000Y0133000D01*
X0296000Y0128000D01*
X0301000Y0123000D02*
X0291000Y0123000D01*
X0286000Y0128000D01*
X0281000Y0123000D02*
X0281000Y0113000D01*
X0281900Y0112100D01*
X0287698Y0112100D01*
X0291798Y0108000D01*
X0296000Y0108000D01*
X0291000Y0103000D02*
X0281000Y0103000D01*
X0276000Y0108000D01*
X0276000Y0118000D01*
X0181000Y0213000D01*
X0181000Y0303000D01*
X0192801Y0307348D02*
X0197149Y0303000D01*
X0201000Y0303000D01*
X0221000Y0313000D02*
X0161000Y0313000D01*
X0156000Y0308000D01*
X0156000Y0283000D01*
X0086000Y0213000D01*
X0086000Y0088000D01*
X0101000Y0073000D01*
X0121000Y0073000D01*
X0126000Y0068000D01*
X0121000Y0063000D02*
X0116000Y0068000D01*
X0085444Y0068000D01*
X0015000Y0138444D01*
X0015000Y0217000D01*
X0021000Y0223000D01*
X0021000Y0309260D01*
X0016000Y0314260D01*
X0016000Y0323000D01*
X0021000Y0322444D02*
X0015000Y0328444D01*
X0015000Y0337556D01*
X0021000Y0343556D01*
X0021000Y0348000D01*
X0026000Y0353000D01*
X0026000Y0356000D01*
X0028500Y0358500D01*
X0049500Y0358500D01*
X0051500Y0356500D01*
X0051500Y0352000D01*
X0044000Y0344500D01*
X0044000Y0316000D01*
X0051000Y0309000D01*
X0051000Y0238000D01*
X0076000Y0228000D02*
X0096000Y0248000D01*
X0101000Y0248000D01*
X0116000Y0263000D01*
X0116000Y0353000D01*
X0121000Y0358000D01*
X0158500Y0358000D01*
X0161000Y0355500D01*
X0171000Y0355500D02*
X0151000Y0335500D01*
X0151000Y0282500D01*
X0141000Y0272500D01*
X0135500Y0272500D01*
X0081000Y0218000D01*
X0081000Y0138000D01*
X0076000Y0128000D02*
X0076000Y0228000D01*
X0086000Y0243000D02*
X0096000Y0253000D01*
X0096000Y0263000D01*
X0071000Y0288000D01*
X0071000Y0308000D01*
X0067260Y0311740D01*
X0061000Y0311740D01*
X0061000Y0313000D01*
X0053500Y0320500D01*
X0053500Y0328500D01*
X0056740Y0331740D01*
X0061000Y0331740D01*
X0066000Y0329260D02*
X0061000Y0324260D01*
X0069740Y0324260D01*
X0076000Y0318000D01*
X0076000Y0293000D01*
X0101000Y0268000D01*
X0101000Y0258000D01*
X0091000Y0253000D02*
X0061000Y0283000D01*
X0061000Y0304260D01*
X0049000Y0316260D01*
X0049000Y0346000D01*
X0056000Y0353000D01*
X0046000Y0353000D02*
X0037600Y0344600D01*
X0037600Y0306273D01*
X0031000Y0299673D01*
X0031000Y0299260D01*
X0031000Y0158000D01*
X0076000Y0113000D01*
X0096000Y0093000D02*
X0101000Y0093000D01*
X0116000Y0078000D01*
X0120202Y0078000D01*
X0124302Y0073900D01*
X0134774Y0073900D01*
X0210035Y0149161D01*
X0210806Y0150950D02*
X0210035Y0151720D01*
X0210806Y0150950D02*
X0211475Y0150950D01*
X0212120Y0150306D01*
X0212120Y0148017D01*
X0151000Y0086897D01*
X0151000Y0078000D01*
X0136000Y0063000D01*
X0121000Y0063000D01*
X0131000Y0143000D02*
X0199032Y0143000D01*
X0204049Y0148017D01*
X0204049Y0151522D01*
X0205764Y0153236D01*
X0204720Y0154280D01*
X0201965Y0154280D01*
X0201965Y0156839D02*
X0196000Y0156839D01*
X0196000Y0153000D01*
X0197280Y0151720D01*
X0201965Y0151720D01*
X0201965Y0149161D01*
X0199839Y0149161D01*
X0197280Y0151720D01*
X0196000Y0156839D02*
X0136000Y0156839D01*
X0132161Y0153000D01*
X0121000Y0153000D01*
X0116000Y0158000D01*
X0126000Y0148000D02*
X0131000Y0143000D01*
X0201965Y0156839D02*
X0206807Y0156839D01*
X0208596Y0158628D01*
X0211475Y0158628D01*
X0212120Y0157983D01*
X0212120Y0155694D01*
X0211475Y0155050D01*
X0210806Y0155050D01*
X0210035Y0154280D01*
X0209265Y0156069D02*
X0208596Y0156069D01*
X0205764Y0153236D01*
X0209265Y0156069D02*
X0210035Y0156839D01*
X0256000Y0198000D02*
X0286000Y0168000D01*
X0291000Y0168000D01*
X0291000Y0153000D01*
X0286000Y0148000D01*
X0286000Y0158000D02*
X0241000Y0203000D01*
X0241000Y0303000D01*
X0231000Y0303000D02*
X0221000Y0313000D01*
X0251000Y0303000D02*
X0256000Y0298000D01*
X0256000Y0198000D01*
X0301000Y0123000D02*
X0301000Y0318000D01*
X0291000Y0328000D01*
X0181000Y0328000D01*
X0181000Y0355500D01*
X0066000Y0353000D02*
X0066000Y0329260D01*
X0031000Y0313000D02*
X0031000Y0306740D01*
X0031000Y0313000D02*
X0027260Y0316740D01*
X0021000Y0316740D01*
X0021000Y0322444D01*
X0291000Y0103000D02*
X0296000Y0098000D01*
D20*
X0211000Y0168000D03*
D21*
X0136000Y0168000D01*
X0126000Y0158000D01*
D22*
X0071000Y0188000D02*
X0036000Y0223000D01*
X0011000Y0238000D02*
X0011000Y0338000D01*
X0016000Y0343000D01*
X0016000Y0353000D01*
X0201000Y0355500D02*
X0201000Y0343000D01*
X0206000Y0338000D01*
X0301000Y0338000D01*
X0316000Y0323000D01*
X0316000Y0108000D01*
X0301000Y0093000D01*
X0291000Y0093000D01*
X0286000Y0088000D01*
X0291000Y0083000D02*
X0311000Y0083000D01*
X0321000Y0093000D01*
X0321000Y0328000D01*
X0306000Y0343000D01*
X0216000Y0343000D01*
X0211000Y0348000D01*
X0211000Y0355500D01*
X0291000Y0083000D02*
X0286000Y0078000D01*
M02*
