%
M48
M72
T01C0.0236
T02C0.0339
T03C0.0394
T04C0.0400
T05C0.0433
T06C0.0472
T07C0.0906
%
T01
X6500Y8500
X8000Y7500
X8000Y6000
X8500Y10000
X7500Y11500
X8000Y12000
X8638Y12033
X10000Y13000
X10000Y13500
X9000Y14500
X8525Y14575
X7500Y14500
X7000Y14500
X6180Y15000
X7500Y17500
X8500Y16500
X8525Y15925
X10100Y15475
X11900Y15925
X13318Y15363
X14000Y15500
X14500Y16500
X15050Y14350
X16625Y14575
X17525Y15925
X18000Y15500
X17300Y16600
X16388Y18275
X16490Y18850
X17775Y19500
X18425Y19525
X18650Y20200
X19010Y20785
X19595Y20695
X19775Y19975
X20000Y19525
X20675Y19525
X20968Y19143
X20675Y18625
X19595Y17275
X18245Y18760
X16828Y21393
X17345Y21933
X17345Y22765
X16850Y23463
X17018Y23978
X17323Y24363
X17278Y25105
X16580Y24970
X15905Y24813
X16378Y23935
X16468Y22720
X14735Y23395
X15005Y23935
X14398Y24250
X13745Y24295
X13250Y24318
X13025Y23125
X12553Y22765
X11248Y22698
X10500Y23500
X11090Y23935
X11315Y24408
X11843Y24495
X11225Y25308
X10528Y26613
X9313Y25758
X8500Y25500
X8000Y26500
X7963Y27243
X8500Y28000
X7175Y28975
X6500Y27000
X6500Y26500
X5000Y27000
X4500Y26500
X6500Y22500
X7500Y22500
X7000Y21500
X7500Y20500
X8000Y21000
X9000Y21500
X9500Y22500
X10500Y21500
X12000Y18500
X12800Y18850
X13408Y19210
X13475Y19750
X13925Y19975
X14713Y21798
X14285Y22203
X14375Y22675
X16153Y25983
X16113Y26928
X16468Y27535
X17300Y27648
X18500Y28000
X18988Y27198
X19303Y28773
X19753Y28885
X18763Y30168
X19235Y31000
X19775Y31000
X20338Y31000
X20540Y32080
X20473Y32575
X21148Y31990
X21508Y32350
X21500Y31500
X22700Y31765
X23623Y30415
X23465Y28390
X23150Y27490
X24163Y27288
X25220Y28255
X25738Y27445
X26975Y27243
X27605Y28075
X28438Y29290
X27073Y31568
X27178Y32508
X28033Y32215
X25940Y28975
X25500Y25500
X24545Y25510
X23645Y24273
X24050Y23125
X24365Y22495
X22475Y20875
X22768Y20380
X23128Y19525
X23150Y18625
X24118Y17748
X24410Y18603
X25288Y18175
X25873Y18738
X25933Y19315
X25000Y20000
X24050Y19750
X21910Y19045
X21643Y20335
X19010Y22000
X18650Y22450
X18425Y24025
X18133Y25263
X20788Y27130
X21733Y27490
X21935Y26658
X21890Y25600
X21350Y24925
X21350Y24025
X20878Y29110
X19123Y32350
X18223Y32373
X17728Y32463
X16760Y32665
X18200Y31540
X16978Y30478
X16153Y30303
X15040Y28865
X14533Y28593
X13003Y28998
X12193Y28615
X10888Y28525
X11000Y28000
X12035Y26658
X10910Y30528
X11000Y31225
X10100Y31675
X10325Y32125
X9358Y30843
X8908Y30483
X8953Y31675
X8300Y31900
X8908Y34308
X12418Y32373
X13408Y31968
X14240Y31990
X15073Y32395
X13903Y30258
X13385Y30618
X12478Y30955
X19145Y34330
X19145Y35095
X21508Y35095
X23083Y34330
X26480Y25038
X29000Y24475
X22475Y16600
X22250Y16150
X21800Y15475
X21148Y16510
X20500Y15500
X20500Y14000
X19000Y12000
X18875Y12775
X17525Y12550
X15000Y12000
X13500Y12000
X13000Y13500
X12000Y11000
X12500Y10500
X14000Y10500
X12500Y8500
X12500Y8000
X13500Y7000
X15000Y7500
X17000Y9000
X18500Y7500
X17500Y7000
X20225Y9175
X20225Y11650
X23375Y15700
X24950Y13675
X25400Y12775
X25275Y12000
X24000Y11000
X24500Y10500
X24000Y8000
X10000Y10000
X6500Y10500
X6158Y18000
X6500Y19000
X7500Y19500
X5500Y21000
X5000Y20500
T02
X8520Y33130
X9307Y33130
X10094Y33130
X10094Y33917
X9307Y33917
X9307Y34705
X9307Y35492
X10094Y35492
X10094Y34705
X10882Y34705
X10882Y35492
X11669Y35492
X11669Y34705
X11669Y33917
X10882Y33917
X10882Y33130
X11669Y33130
X12457Y33130
X13244Y33130
X14031Y33130
X14031Y33917
X13244Y33917
X13244Y34705
X13244Y35492
X14031Y35492
X14031Y34705
X14819Y34705
X14819Y35492
X15606Y35492
X15606Y34705
X15606Y33917
X14819Y33917
X14819Y33130
X15606Y33130
X16394Y33130
X17181Y33130
X17181Y33917
X16394Y33917
X16394Y34705
X17181Y34705
X17181Y35492
X16394Y35492
X17969Y35492
X18756Y35492
X18756Y34705
X17969Y34705
X17969Y33917
X18756Y33917
X18756Y33130
X17969Y33130
X19543Y33130
X20331Y33130
X21118Y33130
X21118Y33917
X20331Y33917
X19543Y33917
X19543Y34705
X19543Y35492
X20331Y35492
X21118Y35492
X21118Y34705
X20331Y34705
X21906Y34705
X22693Y34705
X22693Y35492
X21906Y35492
X21906Y33917
X22693Y33917
X22693Y33130
X21906Y33130
X23480Y33130
X23480Y33917
X23480Y34705
X23480Y35492
X12457Y35492
X12457Y34705
X12457Y33917
X8520Y33917
X8520Y34705
X8520Y35492
T03
X14622Y5614
X15606Y5614
X16394Y5614
X17378Y5614
T04
X26500Y9000
X26500Y10000
X26500Y11000
X26500Y12000
X26500Y13000
X26500Y14000
X26500Y15000
X26500Y16000
X26500Y17000
X26500Y18000
X27500Y18000
X27500Y17000
X27500Y16000
X27500Y15000
X27500Y14000
X27500Y13000
X27500Y12000
X27500Y11000
X27500Y10000
X27500Y9000
X5500Y9500
X5500Y10500
X5500Y11500
X5500Y12500
X5500Y13500
X5500Y14500
X5500Y15500
X5500Y16500
X5500Y17500
X5500Y18500
X4500Y18500
X4500Y17500
X4500Y16500
X4500Y15500
X4500Y14500
X4500Y13500
X4500Y12500
X4500Y11500
X4500Y10500
X4500Y9500
T05
X6400Y33311
X7140Y33311
X7140Y34311
X7140Y35311
X6400Y35311
X6400Y34311
X24860Y34311
X24860Y35311
X25600Y35311
X25600Y34311
X25600Y33311
X24860Y33311
T06
X26687Y34299
X5313Y34299
T07
X13413Y4547
X18587Y4547
M30
