G75*
%MOIN*%
%OFA0B0*%
%FSLAX25Y25*%
%IPPOS*%
%LPD*%
%AMOC8*
5,1,8,0,0,1.08239X$1,22.5*
%
%ADD10C,0.06800*%
%ADD11C,0.05524*%
%ADD12OC8,0.07296*%
%ADD13R,0.06186X0.06186*%
%ADD14OC8,0.06186*%
%ADD15C,0.06737*%
%ADD16C,0.09855*%
%ADD17C,0.04762*%
D10*
X0042000Y0090950D02*
X0048000Y0090950D01*
X0052000Y0090950D02*
X0058000Y0090950D01*
X0058000Y0100950D02*
X0052000Y0100950D01*
X0048000Y0100950D02*
X0042000Y0100950D01*
X0042000Y0110950D02*
X0048000Y0110950D01*
X0052000Y0110950D02*
X0058000Y0110950D01*
X0058000Y0120950D02*
X0052000Y0120950D01*
X0048000Y0120950D02*
X0042000Y0120950D01*
X0042000Y0130950D02*
X0048000Y0130950D01*
X0052000Y0130950D02*
X0058000Y0130950D01*
X0058000Y0140950D02*
X0052000Y0140950D01*
X0048000Y0140950D02*
X0042000Y0140950D01*
X0042000Y0150950D02*
X0048000Y0150950D01*
X0052000Y0150950D02*
X0058000Y0150950D01*
X0058000Y0160950D02*
X0052000Y0160950D01*
X0048000Y0160950D02*
X0042000Y0160950D01*
X0042000Y0170950D02*
X0048000Y0170950D01*
X0052000Y0170950D02*
X0058000Y0170950D01*
X0058000Y0180950D02*
X0052000Y0180950D01*
X0048000Y0180950D02*
X0042000Y0180950D01*
X0262000Y0175950D02*
X0268000Y0175950D01*
X0272000Y0175950D02*
X0278000Y0175950D01*
X0278000Y0165950D02*
X0272000Y0165950D01*
X0268000Y0165950D02*
X0262000Y0165950D01*
X0262000Y0155950D02*
X0268000Y0155950D01*
X0272000Y0155950D02*
X0278000Y0155950D01*
X0278000Y0145950D02*
X0272000Y0145950D01*
X0268000Y0145950D02*
X0262000Y0145950D01*
X0262000Y0135950D02*
X0268000Y0135950D01*
X0272000Y0135950D02*
X0278000Y0135950D01*
X0278000Y0125950D02*
X0272000Y0125950D01*
X0268000Y0125950D02*
X0262000Y0125950D01*
X0262000Y0115950D02*
X0268000Y0115950D01*
X0272000Y0115950D02*
X0278000Y0115950D01*
X0278000Y0105950D02*
X0272000Y0105950D01*
X0268000Y0105950D02*
X0262000Y0105950D01*
X0262000Y0095950D02*
X0268000Y0095950D01*
X0272000Y0095950D02*
X0278000Y0095950D01*
X0278000Y0085950D02*
X0272000Y0085950D01*
X0268000Y0085950D02*
X0262000Y0085950D01*
D11*
X0266870Y0338942D03*
X0053130Y0338942D03*
D12*
X0063996Y0339060D03*
X0063996Y0329060D03*
X0071398Y0329060D03*
X0071398Y0339060D03*
X0071398Y0349060D03*
X0063996Y0349060D03*
X0248602Y0349056D03*
X0256004Y0349056D03*
X0256004Y0339056D03*
X0256004Y0329056D03*
X0248602Y0329056D03*
X0248602Y0339056D03*
D13*
X0234803Y0327249D03*
D14*
X0234803Y0335123D03*
X0226929Y0335123D03*
X0226929Y0327249D03*
X0219055Y0327249D03*
X0219055Y0335123D03*
X0211181Y0335123D03*
X0211181Y0327249D03*
X0203307Y0327249D03*
X0195433Y0327249D03*
X0195433Y0335123D03*
X0203307Y0335123D03*
X0203307Y0342997D03*
X0195433Y0342997D03*
X0195433Y0350871D03*
X0203307Y0350871D03*
X0211181Y0350871D03*
X0211181Y0342997D03*
X0219055Y0342997D03*
X0226929Y0342997D03*
X0226929Y0350871D03*
X0219055Y0350871D03*
X0234803Y0350871D03*
X0234803Y0342997D03*
X0187559Y0342997D03*
X0179685Y0342997D03*
X0179685Y0350871D03*
X0187559Y0350871D03*
X0187559Y0335123D03*
X0187559Y0327249D03*
X0179685Y0327249D03*
X0179685Y0335123D03*
X0171811Y0335123D03*
X0171811Y0327249D03*
X0163937Y0327249D03*
X0163937Y0335123D03*
X0156063Y0335123D03*
X0156063Y0327249D03*
X0148189Y0327249D03*
X0148189Y0335123D03*
X0140315Y0335123D03*
X0140315Y0327249D03*
X0132441Y0327249D03*
X0132441Y0335123D03*
X0124567Y0335123D03*
X0124567Y0327249D03*
X0116693Y0327249D03*
X0108819Y0327249D03*
X0108819Y0335123D03*
X0116693Y0335123D03*
X0116693Y0342997D03*
X0124567Y0342997D03*
X0124567Y0350871D03*
X0116693Y0350871D03*
X0108819Y0350871D03*
X0108819Y0342997D03*
X0100945Y0342997D03*
X0093071Y0342997D03*
X0093071Y0350871D03*
X0100945Y0350871D03*
X0100945Y0335123D03*
X0100945Y0327249D03*
X0093071Y0327249D03*
X0093071Y0335123D03*
X0085197Y0335123D03*
X0085197Y0327249D03*
X0085197Y0342997D03*
X0085197Y0350871D03*
X0132441Y0350871D03*
X0132441Y0342997D03*
X0140315Y0342997D03*
X0140315Y0350871D03*
X0148189Y0350871D03*
X0148189Y0342997D03*
X0156063Y0342997D03*
X0156063Y0350871D03*
X0163937Y0350871D03*
X0163937Y0342997D03*
X0171811Y0342997D03*
X0171811Y0350871D03*
D15*
X0174230Y0056142D03*
X0164387Y0056142D03*
X0156513Y0056142D03*
X0146670Y0056142D03*
D16*
X0134584Y0045472D03*
X0186316Y0045472D03*
D17*
X0065000Y0080950D03*
X0080000Y0070950D03*
X0080000Y0055950D03*
X0085000Y0095950D03*
X0075000Y0110950D03*
X0080000Y0115950D03*
X0086375Y0116275D03*
X0100000Y0125950D03*
X0100000Y0130950D03*
X0090000Y0140950D03*
X0085250Y0141700D03*
X0075000Y0140950D03*
X0070000Y0140950D03*
X0061800Y0145950D03*
X0085250Y0155200D03*
X0085000Y0160950D03*
X0075000Y0170950D03*
X0061575Y0175950D03*
X0065000Y0185950D03*
X0075000Y0190950D03*
X0075000Y0200950D03*
X0080000Y0205950D03*
X0090000Y0210950D03*
X0095000Y0220950D03*
X0105000Y0230950D03*
X0110900Y0235300D03*
X0113150Y0240025D03*
X0118425Y0240900D03*
X0112250Y0249025D03*
X0105275Y0262075D03*
X0110000Y0275950D03*
X0108875Y0281200D03*
X0121925Y0282100D03*
X0130025Y0285925D03*
X0139025Y0298525D03*
X0133850Y0302125D03*
X0124775Y0305500D03*
X0134075Y0315625D03*
X0142400Y0315850D03*
X0150725Y0319900D03*
X0167600Y0322600D03*
X0177275Y0320575D03*
X0182225Y0319675D03*
X0182000Y0311350D03*
X0191225Y0319450D03*
X0192350Y0305950D03*
X0197750Y0305950D03*
X0203375Y0305950D03*
X0205400Y0316750D03*
X0204725Y0321700D03*
X0211475Y0315850D03*
X0215075Y0319450D03*
X0215000Y0310950D03*
X0227000Y0313600D03*
X0236225Y0300100D03*
X0234650Y0279850D03*
X0231500Y0270850D03*
X0241625Y0268825D03*
X0252200Y0278500D03*
X0257375Y0270400D03*
X0269750Y0268375D03*
X0276050Y0276700D03*
X0284375Y0288850D03*
X0270725Y0311625D03*
X0271775Y0321025D03*
X0280325Y0318100D03*
X0259400Y0285700D03*
X0255000Y0250950D03*
X0245450Y0251050D03*
X0236450Y0238675D03*
X0240500Y0227200D03*
X0243650Y0220900D03*
X0227675Y0199750D03*
X0224750Y0204700D03*
X0216425Y0199300D03*
X0206750Y0191200D03*
X0209675Y0187375D03*
X0206750Y0182200D03*
X0200000Y0191200D03*
X0197750Y0195700D03*
X0195950Y0202900D03*
X0190100Y0203800D03*
X0186500Y0197950D03*
X0184250Y0191200D03*
X0177750Y0190950D03*
X0182450Y0183550D03*
X0195950Y0168700D03*
X0211475Y0161050D03*
X0222500Y0157450D03*
X0224750Y0161950D03*
X0233750Y0152950D03*
X0218000Y0150700D03*
X0205000Y0150950D03*
X0205000Y0135950D03*
X0190000Y0115950D03*
X0188750Y0123700D03*
X0175250Y0121450D03*
X0166250Y0141700D03*
X0150500Y0139450D03*
X0140000Y0150950D03*
X0133175Y0149575D03*
X0119000Y0155200D03*
X0101000Y0150700D03*
X0130000Y0130950D03*
X0135000Y0115950D03*
X0150000Y0115950D03*
X0140000Y0100950D03*
X0125000Y0100950D03*
X0120000Y0105950D03*
X0100000Y0095950D03*
X0125000Y0080950D03*
X0125000Y0075950D03*
X0135000Y0065950D03*
X0150000Y0070950D03*
X0170000Y0085950D03*
X0185000Y0070950D03*
X0175000Y0065950D03*
X0202250Y0087700D03*
X0202250Y0112450D03*
X0180000Y0150950D03*
X0175250Y0155200D03*
X0173000Y0161950D03*
X0163875Y0178700D03*
X0164900Y0184450D03*
X0168275Y0209875D03*
X0173450Y0215275D03*
X0173450Y0223600D03*
X0168500Y0230575D03*
X0170175Y0235725D03*
X0173225Y0239575D03*
X0172775Y0247000D03*
X0165800Y0245650D03*
X0159050Y0244075D03*
X0163775Y0235300D03*
X0164675Y0223150D03*
X0147350Y0229900D03*
X0150050Y0235300D03*
X0143975Y0238450D03*
X0137450Y0238900D03*
X0132500Y0239125D03*
X0130250Y0227200D03*
X0125525Y0223600D03*
X0112475Y0222925D03*
X0105000Y0210950D03*
X0120000Y0180950D03*
X0128000Y0184450D03*
X0134075Y0188050D03*
X0134750Y0193450D03*
X0139250Y0195700D03*
X0147125Y0213925D03*
X0142850Y0217975D03*
X0143750Y0222700D03*
X0161525Y0255775D03*
X0161125Y0265225D03*
X0164675Y0271300D03*
X0173000Y0272425D03*
X0185000Y0275950D03*
X0189875Y0267925D03*
X0193025Y0283675D03*
X0197525Y0284800D03*
X0187625Y0297625D03*
X0169775Y0300725D03*
X0161525Y0298975D03*
X0150400Y0284600D03*
X0145325Y0281875D03*
X0120350Y0262525D03*
X0093125Y0253525D03*
X0085000Y0250950D03*
X0080000Y0260950D03*
X0079625Y0268375D03*
X0085000Y0275950D03*
X0071750Y0285700D03*
X0065000Y0265950D03*
X0065000Y0260950D03*
X0050000Y0265950D03*
X0045000Y0260950D03*
X0065000Y0220950D03*
X0070000Y0210950D03*
X0075000Y0220950D03*
X0055000Y0205950D03*
X0050000Y0200950D03*
X0065000Y0100950D03*
X0145000Y0160950D03*
X0190100Y0215950D03*
X0186500Y0220450D03*
X0184250Y0236200D03*
X0181325Y0248575D03*
X0207875Y0267250D03*
X0217325Y0270850D03*
X0219350Y0262525D03*
X0218900Y0251950D03*
X0213500Y0245200D03*
X0213500Y0236200D03*
X0240500Y0193450D03*
X0231275Y0191200D03*
X0231500Y0182200D03*
X0241175Y0173425D03*
X0244100Y0181975D03*
X0252875Y0177700D03*
X0258725Y0183325D03*
X0259325Y0189100D03*
X0250000Y0195950D03*
X0219100Y0186400D03*
X0249500Y0132700D03*
X0254000Y0123700D03*
X0252750Y0115950D03*
X0240000Y0105950D03*
X0245000Y0100950D03*
X0240000Y0075950D03*
X0290000Y0240700D03*
X0264800Y0246325D03*
X0208775Y0287050D03*
X0191450Y0339250D03*
X0191450Y0346900D03*
X0215075Y0346900D03*
X0230825Y0339250D03*
X0124175Y0319675D03*
X0110000Y0308200D03*
X0109100Y0301225D03*
X0101000Y0312700D03*
X0103250Y0317200D03*
X0093575Y0304375D03*
X0089075Y0300775D03*
X0089525Y0312700D03*
X0083000Y0314950D03*
X0089075Y0339025D03*
M02*
