G75*
%MOIN*%
%OFA0B0*%
%FSLAX25Y25*%
%IPPOS*%
%LPD*%
%AMOC8*
5,1,8,0,0,1.08239X$1,22.5*
%
%ADD10OC8,0.07124*%
%ADD11C,0.06400*%
%ADD12C,0.24669*%
%ADD13R,0.06400X0.06400*%
%ADD14C,0.14000*%
%ADD15C,0.04559*%
%ADD16C,0.02400*%
%ADD17C,0.03772*%
%ADD18C,0.04953*%
%ADD19C,0.04165*%
%ADD20C,0.05150*%
%ADD21C,0.04362*%
%ADD22C,0.05543*%
%ADD23C,0.01000*%
%ADD24C,0.04100*%
%ADD25C,0.08000*%
%ADD26C,0.16000*%
%ADD27C,0.03969*%
%ADD28C,0.05000*%
%ADD29C,0.02000*%
%ADD30C,0.50000*%
%ADD31C,0.01600*%
%ADD32C,0.01200*%
D10*
X0390686Y0706230D03*
X0400686Y0706230D03*
X0410686Y0706230D03*
X0420686Y0706230D03*
X0460686Y0701230D03*
X0470686Y0701230D03*
X0515686Y0701230D03*
X0525686Y0701230D03*
X0555686Y0701230D03*
X0565686Y0701230D03*
X0565686Y0771230D03*
X0555686Y0771230D03*
X0530686Y0771230D03*
X0520686Y0771230D03*
X0510686Y0771230D03*
X0500686Y0771230D03*
X0285686Y0806230D03*
X0275686Y0806230D03*
X0070686Y0741230D03*
X0070686Y0731230D03*
X0230686Y1156230D03*
X0240686Y1156230D03*
X0285686Y1156230D03*
X0295686Y1156230D03*
X0345686Y1156230D03*
X0355686Y1156230D03*
X0810686Y1141230D03*
X0810686Y1131230D03*
X0810686Y1121230D03*
X0810686Y1111230D03*
X0810686Y1086230D03*
X0810686Y1076230D03*
X0810686Y1066230D03*
X0810686Y1056230D03*
X0810686Y1031230D03*
X0810686Y1021230D03*
X0810686Y1011230D03*
X0810686Y1001230D03*
X0810686Y0976230D03*
X0810686Y0966230D03*
X0810686Y0956230D03*
X0810686Y0946230D03*
X0810686Y0921230D03*
X0810686Y0911230D03*
X0810686Y0901230D03*
X0810686Y0891230D03*
X0810686Y0866230D03*
X0810686Y0856230D03*
X0810686Y0846230D03*
X0810686Y0836230D03*
X0810686Y0811230D03*
X0810686Y0801230D03*
X0810686Y0791230D03*
X0810686Y0781230D03*
X0810686Y0756230D03*
X0810686Y0746230D03*
X0810686Y0736230D03*
X0810686Y0726230D03*
D11*
X0565686Y0866230D03*
X0555686Y0866230D03*
X0545686Y0866230D03*
X0535686Y0866230D03*
X0525686Y0866230D03*
X0515686Y0866230D03*
X0505686Y0866230D03*
X0495686Y0866230D03*
X0485686Y0866230D03*
X0485686Y0876230D03*
X0495686Y0876230D03*
X0505686Y0876230D03*
X0515686Y0876230D03*
X0525686Y0876230D03*
X0535686Y0876230D03*
X0545686Y0876230D03*
X0555686Y0876230D03*
X0565686Y0876230D03*
X0565686Y1036230D03*
X0555686Y1036230D03*
X0545686Y1036230D03*
X0535686Y1036230D03*
X0525686Y1036230D03*
X0515686Y1036230D03*
X0505686Y1036230D03*
X0495686Y1036230D03*
X0485686Y1036230D03*
X0485686Y1046230D03*
X0495686Y1046230D03*
X0505686Y1046230D03*
X0515686Y1046230D03*
X0525686Y1046230D03*
X0535686Y1046230D03*
X0545686Y1046230D03*
X0555686Y1046230D03*
X0565686Y1046230D03*
X0135686Y0746230D03*
X0135686Y0736230D03*
D12*
X0075686Y0916480D03*
X0075686Y0945980D03*
D13*
X0475686Y0876230D03*
X0475686Y0866230D03*
X0475686Y1036230D03*
X0475686Y1046230D03*
D14*
X0293036Y0931230D03*
X0263036Y0931230D03*
X0188336Y0931230D03*
X0158336Y0931230D03*
D15*
X0215686Y0861230D03*
X0230686Y0881230D03*
X0240686Y0881230D03*
X0155686Y0761230D03*
X0120686Y0761230D03*
X0110686Y0771230D03*
X0080686Y0761230D03*
X0075686Y0766230D03*
X0050686Y0776230D03*
X0045686Y0826230D03*
X0075686Y0861230D03*
X0080686Y0866230D03*
X0054552Y0866230D03*
X0054552Y0881230D03*
X0110686Y0726230D03*
X0305686Y0741230D03*
X0625686Y0976230D03*
X0640686Y0986230D03*
X0625686Y1001230D03*
X0665686Y0986230D03*
X0720686Y0981230D03*
X0720686Y0998730D03*
X0720686Y1006230D03*
X0720686Y1013730D03*
X0730686Y1013730D03*
X0730686Y0998730D03*
X0748186Y1016230D03*
X0720686Y1036230D03*
X0720686Y1053730D03*
X0720686Y1061230D03*
X0720686Y1068730D03*
X0730686Y1068730D03*
X0745686Y1071230D03*
X0730686Y1053730D03*
X0720686Y1091230D03*
X0720686Y1108730D03*
X0720686Y1116230D03*
X0720686Y1123730D03*
X0730686Y1123730D03*
X0730686Y1108730D03*
X0745686Y1126230D03*
X0720686Y1146230D03*
X0783186Y1098730D03*
X0790686Y1096230D03*
X0783186Y1046230D03*
X0790686Y1041230D03*
X0795686Y0986230D03*
X0748186Y0961230D03*
X0730686Y0958730D03*
X0720686Y0958730D03*
X0720686Y0951230D03*
X0720686Y0943730D03*
X0730686Y0943730D03*
X0720686Y0926230D03*
X0720686Y0903730D03*
X0720686Y0896230D03*
X0720686Y0888730D03*
X0730686Y0888730D03*
X0730686Y0903730D03*
X0748186Y0906230D03*
X0720686Y0871230D03*
X0720686Y0848730D03*
X0720686Y0841230D03*
X0720686Y0833730D03*
X0730686Y0833730D03*
X0730686Y0848730D03*
X0748186Y0851230D03*
X0720686Y0816230D03*
X0720686Y0793730D03*
X0720686Y0786230D03*
X0720686Y0778730D03*
X0730686Y0778730D03*
X0720686Y0761230D03*
X0720686Y0738730D03*
X0720686Y0731230D03*
X0720686Y0723730D03*
X0730686Y0723730D03*
X0730686Y0708730D03*
X0720686Y0708730D03*
X0740686Y0708730D03*
X0730686Y0738730D03*
X0748186Y0741230D03*
X0790686Y0766230D03*
X0748186Y0796230D03*
X0730686Y0793730D03*
X0790686Y0821230D03*
X0790686Y0876230D03*
X0790686Y1151230D03*
D16*
X0043086Y1178830D02*
X0043086Y0683630D01*
X0838208Y0683630D01*
X0838208Y1178830D01*
X0043086Y1178830D01*
X0043086Y1177722D02*
X0838208Y1177722D01*
X0838208Y1175324D02*
X0043086Y1175324D01*
X0043086Y1172925D02*
X0838208Y1172925D01*
X0838208Y1170527D02*
X0043086Y1170527D01*
X0043086Y1168128D02*
X0838208Y1168128D01*
X0838208Y1165730D02*
X0043086Y1165730D01*
X0043086Y1163331D02*
X0838208Y1163331D01*
X0838208Y1160933D02*
X0359416Y1160933D01*
X0358156Y1162193D02*
X0353217Y1162193D01*
X0350545Y1159521D01*
X0348073Y1161993D01*
X0345686Y1161993D01*
X0343300Y1161993D01*
X0339924Y1158617D01*
X0339924Y1156230D01*
X0339924Y1153844D01*
X0343300Y1150468D01*
X0345686Y1150468D01*
X0345686Y1156230D01*
X0345686Y1156230D01*
X0339924Y1156230D01*
X0345686Y1156230D01*
X0345686Y1156230D01*
X0345686Y1150468D01*
X0348073Y1150468D01*
X0350545Y1152940D01*
X0353217Y1150268D01*
X0358156Y1150268D01*
X0361649Y1153761D01*
X0361649Y1158700D01*
X0358156Y1162193D01*
X0361649Y1158534D02*
X0838208Y1158534D01*
X0838208Y1156136D02*
X0361649Y1156136D01*
X0361625Y1153737D02*
X0713950Y1153737D01*
X0713987Y1153774D02*
X0713143Y1152930D01*
X0712686Y1151827D01*
X0712686Y1127872D01*
X0712286Y1126907D01*
X0712286Y1111881D01*
X0682061Y1081656D01*
X0680261Y1079856D01*
X0679286Y1077503D01*
X0679286Y0971530D01*
X0579632Y0971530D01*
X0577684Y0970723D01*
X0576193Y0969233D01*
X0575386Y0967285D01*
X0575386Y0958630D01*
X0260338Y0958630D01*
X0255044Y0957577D01*
X0250058Y0955512D01*
X0245570Y0952513D01*
X0244749Y0951693D01*
X0237499Y0958943D01*
X0236323Y0959430D01*
X0183965Y0959430D01*
X0183281Y0960114D01*
X0181598Y0960811D01*
X0179775Y0960811D01*
X0178091Y0960114D01*
X0176803Y0958825D01*
X0176105Y0957142D01*
X0176105Y0955319D01*
X0176803Y0953635D01*
X0178091Y0952347D01*
X0179775Y0951649D01*
X0181598Y0951649D01*
X0183281Y0952347D01*
X0183965Y0953030D01*
X0234361Y0953030D01*
X0240528Y0946863D01*
X0238755Y0944209D01*
X0236689Y0939223D01*
X0235636Y0933929D01*
X0235636Y0928532D01*
X0236689Y0923238D01*
X0238755Y0918252D01*
X0241753Y0913764D01*
X0245570Y0909947D01*
X0250058Y0906949D01*
X0255044Y0904883D01*
X0260338Y0903830D01*
X0574286Y0903830D01*
X0574286Y0899957D01*
X0574795Y0898730D01*
X0574286Y0897503D01*
X0574286Y0894957D01*
X0575261Y0892605D01*
X0575386Y0892479D01*
X0575386Y0885176D01*
X0576193Y0883228D01*
X0577684Y0881737D01*
X0579632Y0880930D01*
X0679286Y0880930D01*
X0679286Y0824957D01*
X0680261Y0822605D01*
X0699286Y0803579D01*
X0699286Y0749957D01*
X0700261Y0747605D01*
X0702061Y0745805D01*
X0712286Y0735579D01*
X0712286Y0720554D01*
X0712686Y0719588D01*
X0712686Y0703134D01*
X0713143Y0702031D01*
X0713987Y0701187D01*
X0715090Y0700730D01*
X0741283Y0700730D01*
X0742386Y0701187D01*
X0743230Y0702031D01*
X0743686Y0703134D01*
X0743686Y0705113D01*
X0744653Y0706080D01*
X0745366Y0707800D01*
X0745366Y0709661D01*
X0744653Y0711381D01*
X0743686Y0712348D01*
X0743686Y1151827D01*
X0743230Y1152930D01*
X0742386Y1153774D01*
X0741283Y1154230D01*
X0715090Y1154230D01*
X0713987Y1153774D01*
X0712686Y1151339D02*
X0359226Y1151339D01*
X0352146Y1151339D02*
X0348944Y1151339D01*
X0345686Y1151339D02*
X0345686Y1151339D01*
X0345686Y1153737D02*
X0345686Y1153737D01*
X0345686Y1156136D02*
X0345686Y1156136D01*
X0345686Y1156230D02*
X0345686Y1161993D01*
X0345686Y1156230D01*
X0345686Y1156230D01*
X0345686Y1158534D02*
X0345686Y1158534D01*
X0345686Y1160933D02*
X0345686Y1160933D01*
X0342240Y1160933D02*
X0299416Y1160933D01*
X0298156Y1162193D02*
X0293217Y1162193D01*
X0290545Y1159521D01*
X0288073Y1161993D01*
X0285686Y1161993D01*
X0283300Y1161993D01*
X0279924Y1158617D01*
X0279924Y1156230D01*
X0279924Y1153844D01*
X0283300Y1150468D01*
X0285686Y1150468D01*
X0285686Y1156230D01*
X0285686Y1156230D01*
X0279924Y1156230D01*
X0285686Y1156230D01*
X0285686Y1156230D01*
X0285686Y1150468D01*
X0288073Y1150468D01*
X0290545Y1152940D01*
X0293217Y1150268D01*
X0298156Y1150268D01*
X0301649Y1153761D01*
X0301649Y1158700D01*
X0298156Y1162193D01*
X0301649Y1158534D02*
X0339924Y1158534D01*
X0339924Y1156136D02*
X0301649Y1156136D01*
X0301625Y1153737D02*
X0340031Y1153737D01*
X0342429Y1151339D02*
X0299226Y1151339D01*
X0292146Y1151339D02*
X0288944Y1151339D01*
X0285686Y1151339D02*
X0285686Y1151339D01*
X0285686Y1153737D02*
X0285686Y1153737D01*
X0285686Y1156136D02*
X0285686Y1156136D01*
X0285686Y1156230D02*
X0285686Y1161993D01*
X0285686Y1156230D01*
X0285686Y1156230D01*
X0285686Y1158534D02*
X0285686Y1158534D01*
X0285686Y1160933D02*
X0285686Y1160933D01*
X0282240Y1160933D02*
X0244416Y1160933D01*
X0243156Y1162193D02*
X0238217Y1162193D01*
X0235545Y1159521D01*
X0233073Y1161993D01*
X0230686Y1161993D01*
X0228300Y1161993D01*
X0224924Y1158617D01*
X0224924Y1156230D01*
X0224924Y1153844D01*
X0228300Y1150468D01*
X0230686Y1150468D01*
X0230686Y1156230D01*
X0230686Y1156230D01*
X0224924Y1156230D01*
X0230686Y1156230D01*
X0230686Y1156230D01*
X0230686Y1150468D01*
X0233073Y1150468D01*
X0235545Y1152940D01*
X0238217Y1150268D01*
X0243156Y1150268D01*
X0246649Y1153761D01*
X0246649Y1158700D01*
X0243156Y1162193D01*
X0246649Y1158534D02*
X0279924Y1158534D01*
X0279924Y1156136D02*
X0246649Y1156136D01*
X0246625Y1153737D02*
X0280031Y1153737D01*
X0282429Y1151339D02*
X0244226Y1151339D01*
X0237146Y1151339D02*
X0233944Y1151339D01*
X0230686Y1151339D02*
X0230686Y1151339D01*
X0230686Y1153737D02*
X0230686Y1153737D01*
X0230686Y1156136D02*
X0230686Y1156136D01*
X0230686Y1156230D02*
X0230686Y1161993D01*
X0230686Y1156230D01*
X0230686Y1156230D01*
X0230686Y1158534D02*
X0230686Y1158534D01*
X0230686Y1160933D02*
X0230686Y1160933D01*
X0227240Y1160933D02*
X0043086Y1160933D01*
X0043086Y1158534D02*
X0224924Y1158534D01*
X0224924Y1156136D02*
X0043086Y1156136D01*
X0043086Y1153737D02*
X0225031Y1153737D01*
X0227429Y1151339D02*
X0043086Y1151339D01*
X0043086Y1148940D02*
X0712686Y1148940D01*
X0712686Y1146542D02*
X0043086Y1146542D01*
X0043086Y1144143D02*
X0712686Y1144143D01*
X0712686Y1141745D02*
X0043086Y1141745D01*
X0043086Y1139346D02*
X0712686Y1139346D01*
X0712686Y1136948D02*
X0043086Y1136948D01*
X0043086Y1134549D02*
X0712686Y1134549D01*
X0712686Y1132151D02*
X0043086Y1132151D01*
X0043086Y1129752D02*
X0712686Y1129752D01*
X0712471Y1127353D02*
X0043086Y1127353D01*
X0043086Y1124955D02*
X0712286Y1124955D01*
X0712286Y1122556D02*
X0043086Y1122556D01*
X0043086Y1120158D02*
X0712286Y1120158D01*
X0712286Y1117759D02*
X0043086Y1117759D01*
X0043086Y1115361D02*
X0712286Y1115361D01*
X0712286Y1112962D02*
X0043086Y1112962D01*
X0043086Y1110564D02*
X0710969Y1110564D01*
X0708570Y1108165D02*
X0043086Y1108165D01*
X0043086Y1105767D02*
X0706172Y1105767D01*
X0703773Y1103368D02*
X0043086Y1103368D01*
X0043086Y1100970D02*
X0701375Y1100970D01*
X0698976Y1098571D02*
X0043086Y1098571D01*
X0043086Y1096173D02*
X0696578Y1096173D01*
X0694179Y1093774D02*
X0043086Y1093774D01*
X0043086Y1091376D02*
X0691781Y1091376D01*
X0689382Y1088977D02*
X0043086Y1088977D01*
X0043086Y1086579D02*
X0686984Y1086579D01*
X0684585Y1084180D02*
X0043086Y1084180D01*
X0043086Y1081782D02*
X0682187Y1081782D01*
X0680065Y1079383D02*
X0043086Y1079383D01*
X0043086Y1076985D02*
X0679286Y1076985D01*
X0679286Y1074586D02*
X0043086Y1074586D01*
X0043086Y1072188D02*
X0679286Y1072188D01*
X0679286Y1069789D02*
X0043086Y1069789D01*
X0043086Y1067391D02*
X0679286Y1067391D01*
X0679286Y1064992D02*
X0043086Y1064992D01*
X0043086Y1062594D02*
X0679286Y1062594D01*
X0679286Y1060195D02*
X0043086Y1060195D01*
X0043086Y1057797D02*
X0679286Y1057797D01*
X0679286Y1055398D02*
X0043086Y1055398D01*
X0043086Y1053000D02*
X0679286Y1053000D01*
X0679286Y1050601D02*
X0569235Y1050601D01*
X0568858Y1050978D02*
X0566800Y1051830D01*
X0564572Y1051830D01*
X0562514Y1050978D01*
X0560939Y1049403D01*
X0560686Y1048793D01*
X0560434Y1049403D01*
X0558858Y1050978D01*
X0556800Y1051830D01*
X0554572Y1051830D01*
X0552514Y1050978D01*
X0550939Y1049403D01*
X0550686Y1048793D01*
X0550434Y1049403D01*
X0548858Y1050978D01*
X0546800Y1051830D01*
X0544572Y1051830D01*
X0542514Y1050978D01*
X0540939Y1049403D01*
X0540686Y1048793D01*
X0540434Y1049403D01*
X0538858Y1050978D01*
X0536800Y1051830D01*
X0534572Y1051830D01*
X0532514Y1050978D01*
X0530939Y1049403D01*
X0530686Y1048793D01*
X0530434Y1049403D01*
X0528858Y1050978D01*
X0526800Y1051830D01*
X0524572Y1051830D01*
X0522514Y1050978D01*
X0520939Y1049403D01*
X0520686Y1048793D01*
X0520434Y1049403D01*
X0518858Y1050978D01*
X0516800Y1051830D01*
X0514572Y1051830D01*
X0512514Y1050978D01*
X0510939Y1049403D01*
X0510686Y1048793D01*
X0510434Y1049403D01*
X0508858Y1050978D01*
X0506800Y1051830D01*
X0504572Y1051830D01*
X0502514Y1050978D01*
X0500939Y1049403D01*
X0500686Y1048793D01*
X0500434Y1049403D01*
X0498858Y1050978D01*
X0496800Y1051830D01*
X0494572Y1051830D01*
X0492514Y1050978D01*
X0490939Y1049403D01*
X0490686Y1048793D01*
X0490434Y1049403D01*
X0488858Y1050978D01*
X0486800Y1051830D01*
X0484572Y1051830D01*
X0482514Y1050978D01*
X0481086Y1049550D01*
X0481086Y1049720D01*
X0480936Y1050280D01*
X0480647Y1050781D01*
X0480237Y1051191D01*
X0479735Y1051480D01*
X0479176Y1051630D01*
X0475686Y1051630D01*
X0472197Y1051630D01*
X0471637Y1051480D01*
X0471135Y1051191D01*
X0470726Y1050781D01*
X0470436Y1050280D01*
X0470286Y1049720D01*
X0470286Y1046230D01*
X0470286Y1042741D01*
X0470436Y1042181D01*
X0470726Y1041680D01*
X0471034Y1041372D01*
X0470452Y1040790D01*
X0470086Y1039908D01*
X0470086Y1032553D01*
X0470452Y1031671D01*
X0471127Y1030996D01*
X0472009Y1030630D01*
X0479364Y1030630D01*
X0480246Y1030996D01*
X0480921Y1031671D01*
X0481286Y1032553D01*
X0481286Y1032711D01*
X0482514Y1031483D01*
X0484572Y1030630D01*
X0486800Y1030630D01*
X0488858Y1031483D01*
X0490434Y1033058D01*
X0490686Y1033668D01*
X0490939Y1033058D01*
X0492514Y1031483D01*
X0494572Y1030630D01*
X0496800Y1030630D01*
X0498858Y1031483D01*
X0500434Y1033058D01*
X0500686Y1033668D01*
X0500939Y1033058D01*
X0502514Y1031483D01*
X0504572Y1030630D01*
X0506800Y1030630D01*
X0508858Y1031483D01*
X0510434Y1033058D01*
X0510686Y1033668D01*
X0510939Y1033058D01*
X0512514Y1031483D01*
X0514572Y1030630D01*
X0516800Y1030630D01*
X0518858Y1031483D01*
X0520434Y1033058D01*
X0520686Y1033668D01*
X0520939Y1033058D01*
X0522514Y1031483D01*
X0524572Y1030630D01*
X0526800Y1030630D01*
X0528858Y1031483D01*
X0530434Y1033058D01*
X0530686Y1033668D01*
X0530939Y1033058D01*
X0532514Y1031483D01*
X0534572Y1030630D01*
X0536800Y1030630D01*
X0538858Y1031483D01*
X0540434Y1033058D01*
X0540686Y1033668D01*
X0540939Y1033058D01*
X0542514Y1031483D01*
X0544572Y1030630D01*
X0546800Y1030630D01*
X0548858Y1031483D01*
X0550434Y1033058D01*
X0550686Y1033668D01*
X0550939Y1033058D01*
X0552514Y1031483D01*
X0554572Y1030630D01*
X0556800Y1030630D01*
X0558858Y1031483D01*
X0560434Y1033058D01*
X0560686Y1033668D01*
X0560939Y1033058D01*
X0562514Y1031483D01*
X0564572Y1030630D01*
X0566800Y1030630D01*
X0568858Y1031483D01*
X0570434Y1033058D01*
X0571286Y1035116D01*
X0571286Y1037344D01*
X0570434Y1039403D01*
X0568858Y1040978D01*
X0568249Y1041230D01*
X0568858Y1041483D01*
X0570434Y1043058D01*
X0571286Y1045116D01*
X0571286Y1047344D01*
X0570434Y1049403D01*
X0568858Y1050978D01*
X0570931Y1048203D02*
X0679286Y1048203D01*
X0679286Y1045804D02*
X0571286Y1045804D01*
X0570578Y1043406D02*
X0679286Y1043406D01*
X0679286Y1041007D02*
X0568788Y1041007D01*
X0570763Y1038609D02*
X0679286Y1038609D01*
X0679286Y1036210D02*
X0571286Y1036210D01*
X0570746Y1033812D02*
X0679286Y1033812D01*
X0679286Y1031413D02*
X0568690Y1031413D01*
X0562683Y1031413D02*
X0558690Y1031413D01*
X0552683Y1031413D02*
X0548690Y1031413D01*
X0542683Y1031413D02*
X0538690Y1031413D01*
X0532683Y1031413D02*
X0528690Y1031413D01*
X0522683Y1031413D02*
X0518690Y1031413D01*
X0512683Y1031413D02*
X0508690Y1031413D01*
X0502683Y1031413D02*
X0498690Y1031413D01*
X0492683Y1031413D02*
X0488690Y1031413D01*
X0482683Y1031413D02*
X0480663Y1031413D01*
X0470710Y1031413D02*
X0043086Y1031413D01*
X0043086Y1029015D02*
X0679286Y1029015D01*
X0679286Y1026616D02*
X0043086Y1026616D01*
X0043086Y1024217D02*
X0679286Y1024217D01*
X0679286Y1021819D02*
X0043086Y1021819D01*
X0043086Y1019420D02*
X0679286Y1019420D01*
X0679286Y1017022D02*
X0043086Y1017022D01*
X0043086Y1014623D02*
X0679286Y1014623D01*
X0679286Y1012225D02*
X0043086Y1012225D01*
X0043086Y1009826D02*
X0123221Y1009826D01*
X0123259Y1009864D02*
X0122053Y1008658D01*
X0121401Y1007083D01*
X0121401Y1005378D01*
X0122053Y1003803D01*
X0123259Y1002597D01*
X0124834Y1001945D01*
X0126539Y1001945D01*
X0128114Y1002597D01*
X0128847Y1003330D01*
X0139701Y1003330D01*
X0141827Y1001205D01*
X0142642Y1000389D01*
X0143708Y0999948D01*
X0157868Y0999948D01*
X0166401Y0991415D01*
X0166401Y0990378D01*
X0166917Y0989130D01*
X0126347Y0989130D01*
X0125614Y0989864D01*
X0124039Y0990516D01*
X0122334Y0990516D01*
X0120759Y0989864D01*
X0119553Y0988658D01*
X0118901Y0987083D01*
X0118901Y0985378D01*
X0119553Y0983803D01*
X0120759Y0982597D01*
X0122334Y0981945D01*
X0124039Y0981945D01*
X0125614Y0982597D01*
X0126347Y0983330D01*
X0167525Y0983330D01*
X0168259Y0982597D01*
X0169834Y0981945D01*
X0171539Y0981945D01*
X0173114Y0982597D01*
X0173847Y0983330D01*
X0184485Y0983330D01*
X0196302Y0971513D01*
X0196302Y0970358D01*
X0196970Y0968747D01*
X0198203Y0967514D01*
X0199814Y0966846D01*
X0201558Y0966846D01*
X0203170Y0967514D01*
X0204403Y0968747D01*
X0205071Y0970358D01*
X0205071Y0972102D01*
X0204403Y0973714D01*
X0204387Y0973730D01*
X0204403Y0973747D01*
X0205071Y0975358D01*
X0205071Y0977102D01*
X0204403Y0978714D01*
X0203170Y0979947D01*
X0201558Y0980615D01*
X0200403Y0980615D01*
X0187329Y0993689D01*
X0186263Y0994130D01*
X0173847Y0994130D01*
X0173114Y0994864D01*
X0171539Y0995516D01*
X0170502Y0995516D01*
X0161527Y1004490D01*
X0160712Y1005306D01*
X0159646Y1005748D01*
X0145486Y1005748D01*
X0142545Y1008689D01*
X0141479Y1009130D01*
X0128847Y1009130D01*
X0128114Y1009864D01*
X0126539Y1010516D01*
X0124834Y1010516D01*
X0123259Y1009864D01*
X0121543Y1007428D02*
X0043086Y1007428D01*
X0043086Y1005029D02*
X0121545Y1005029D01*
X0123225Y1002631D02*
X0043086Y1002631D01*
X0043086Y1000232D02*
X0143021Y1000232D01*
X0140401Y1002631D02*
X0128148Y1002631D01*
X0128151Y1009826D02*
X0679286Y1009826D01*
X0679286Y1007428D02*
X0143806Y1007428D01*
X0160989Y1005029D02*
X0622868Y1005029D01*
X0623036Y1005197D02*
X0621719Y1003881D01*
X0621007Y1002161D01*
X0621007Y1000300D01*
X0621719Y0998580D01*
X0622486Y0997813D01*
X0622486Y0979648D01*
X0621719Y0978881D01*
X0621007Y0977161D01*
X0621007Y0975300D01*
X0621719Y0973580D01*
X0623036Y0972263D01*
X0624755Y0971551D01*
X0626617Y0971551D01*
X0628337Y0972263D01*
X0629653Y0973580D01*
X0630366Y0975300D01*
X0630366Y0977161D01*
X0629653Y0978881D01*
X0628886Y0979648D01*
X0628886Y0997813D01*
X0629653Y0998580D01*
X0630366Y1000300D01*
X0630366Y1002161D01*
X0629653Y1003881D01*
X0628337Y1005197D01*
X0626617Y1005910D01*
X0624755Y1005910D01*
X0623036Y1005197D01*
X0621201Y1002631D02*
X0163387Y1002631D01*
X0165786Y1000232D02*
X0621035Y1000232D01*
X0622465Y0997834D02*
X0168184Y0997834D01*
X0171734Y0995435D02*
X0622486Y0995435D01*
X0622486Y0993037D02*
X0187981Y0993037D01*
X0190380Y0990638D02*
X0622486Y0990638D01*
X0622486Y0988240D02*
X0192778Y0988240D01*
X0195177Y0985841D02*
X0622486Y0985841D01*
X0622486Y0983443D02*
X0197575Y0983443D01*
X0199974Y0981044D02*
X0622486Y0981044D01*
X0621622Y0978646D02*
X0204431Y0978646D01*
X0205071Y0976247D02*
X0621007Y0976247D01*
X0621608Y0973849D02*
X0204445Y0973849D01*
X0205071Y0971450D02*
X0579439Y0971450D01*
X0576118Y0969052D02*
X0204529Y0969052D01*
X0196843Y0969052D02*
X0090022Y0969052D01*
X0089823Y0969532D02*
X0087488Y0971867D01*
X0084437Y0973130D01*
X0081135Y0973130D01*
X0078085Y0971867D01*
X0075750Y0969532D01*
X0074486Y0966481D01*
X0074486Y0963179D01*
X0075507Y0960715D01*
X0073746Y0960715D01*
X0069999Y0959711D01*
X0066639Y0957771D01*
X0063896Y0955028D01*
X0061956Y0951668D01*
X0060952Y0947920D01*
X0060952Y0946171D01*
X0060546Y0945937D01*
X0058610Y0944001D01*
X0048166Y0933557D01*
X0046230Y0931620D01*
X0044860Y0929249D01*
X0044152Y0926604D01*
X0044152Y0850996D01*
X0044860Y0848351D01*
X0046230Y0845979D01*
X0048152Y0844057D01*
X0048152Y0786092D01*
X0049126Y0783740D01*
X0070261Y0762605D01*
X0075261Y0757605D01*
X0100261Y0732605D01*
X0102061Y0730805D01*
X0104413Y0729830D01*
X0153035Y0729830D01*
X0154561Y0728305D01*
X0156913Y0727330D01*
X0172504Y0727330D01*
X0174856Y0728305D01*
X0178068Y0731516D01*
X0193305Y0731516D01*
X0196516Y0728305D01*
X0198868Y0727330D01*
X0201415Y0727330D01*
X0214459Y0727330D01*
X0216812Y0728305D01*
X0218612Y0730105D01*
X0219586Y0732457D01*
X0219586Y0735003D01*
X0219078Y0736230D01*
X0219586Y0737457D01*
X0219586Y0740003D01*
X0218612Y0742356D01*
X0216812Y0744156D01*
X0214459Y0745130D01*
X0212370Y0745130D01*
X0212472Y0745378D01*
X0212472Y0747083D01*
X0211820Y0748658D01*
X0210614Y0749864D01*
X0209039Y0750516D01*
X0207334Y0750516D01*
X0205759Y0749864D01*
X0205025Y0749130D01*
X0142047Y0749130D01*
X0141323Y0749430D01*
X0140406Y0749430D01*
X0138858Y0750978D01*
X0136800Y0751830D01*
X0134572Y0751830D01*
X0132514Y0750978D01*
X0130939Y0749403D01*
X0130086Y0747344D01*
X0130086Y0745116D01*
X0130939Y0743058D01*
X0131367Y0742630D01*
X0108337Y0742630D01*
X0084312Y0766656D01*
X0079312Y0771656D01*
X0060952Y0790016D01*
X0060952Y0837729D01*
X0061913Y0837330D01*
X0076839Y0837330D01*
X0077761Y0835105D01*
X0079561Y0833305D01*
X0081913Y0832330D01*
X0084459Y0832330D01*
X0085686Y0832839D01*
X0086913Y0832330D01*
X0089459Y0832330D01*
X0091812Y0833305D01*
X0093612Y0835105D01*
X0094534Y0837330D01*
X0103580Y0837330D01*
X0104292Y0836619D01*
X0106644Y0835645D01*
X0114729Y0835645D01*
X0117081Y0836619D01*
X0117792Y0837330D01*
X0126839Y0837330D01*
X0127761Y0835105D01*
X0129561Y0833305D01*
X0131913Y0832330D01*
X0134459Y0832330D01*
X0135686Y0832839D01*
X0136913Y0832330D01*
X0139459Y0832330D01*
X0141812Y0833305D01*
X0143612Y0835105D01*
X0144586Y0837457D01*
X0144586Y0845003D01*
X0143612Y0847356D01*
X0141812Y0849156D01*
X0139459Y0850130D01*
X0113868Y0850130D01*
X0111516Y0849156D01*
X0110805Y0848445D01*
X0110568Y0848445D01*
X0109856Y0849156D01*
X0107504Y0850130D01*
X0066086Y0850130D01*
X0066086Y0852600D01*
X0065378Y0855245D01*
X0064952Y0855982D01*
X0064952Y0906660D01*
X0065914Y0905698D01*
X0067018Y0904792D01*
X0068205Y0903999D01*
X0069464Y0903325D01*
X0070784Y0902779D01*
X0072150Y0902364D01*
X0073551Y0902086D01*
X0074486Y0901994D01*
X0074486Y0915280D01*
X0076886Y0915280D01*
X0076886Y0903468D01*
X0075750Y0902332D01*
X0074486Y0899281D01*
X0074486Y0895979D01*
X0075750Y0892929D01*
X0078085Y0890594D01*
X0081135Y0889330D01*
X0084437Y0889330D01*
X0087488Y0890594D01*
X0089823Y0892929D01*
X0091086Y0895979D01*
X0091086Y0899281D01*
X0089823Y0902332D01*
X0087488Y0904667D01*
X0085304Y0905571D01*
X0085459Y0905698D01*
X0086469Y0906708D01*
X0087375Y0907812D01*
X0088168Y0908999D01*
X0088841Y0910259D01*
X0089388Y0911578D01*
X0089802Y0912944D01*
X0090081Y0914345D01*
X0090173Y0915280D01*
X0076886Y0915280D01*
X0076886Y0917680D01*
X0090173Y0917680D01*
X0090081Y0918616D01*
X0089802Y0920016D01*
X0089388Y0921383D01*
X0088841Y0922702D01*
X0088168Y0923962D01*
X0087375Y0925149D01*
X0086469Y0926253D01*
X0085459Y0927263D01*
X0084355Y0928169D01*
X0083168Y0928962D01*
X0081908Y0929635D01*
X0080589Y0930182D01*
X0079222Y0930596D01*
X0077822Y0930875D01*
X0076886Y0930967D01*
X0076886Y0917680D01*
X0074486Y0917680D01*
X0074486Y0930073D01*
X0075643Y0931229D01*
X0075659Y0931246D01*
X0077626Y0931246D01*
X0081374Y0932250D01*
X0084734Y0934190D01*
X0087477Y0936933D01*
X0089417Y0940293D01*
X0090421Y0944041D01*
X0090421Y0947920D01*
X0089417Y0951668D01*
X0087477Y0955028D01*
X0085524Y0956981D01*
X0087488Y0957794D01*
X0089823Y0960129D01*
X0091086Y0963179D01*
X0091086Y0966481D01*
X0089823Y0969532D01*
X0087904Y0971450D02*
X0196302Y0971450D01*
X0193967Y0973849D02*
X0043086Y0973849D01*
X0043086Y0976247D02*
X0191568Y0976247D01*
X0189170Y0978646D02*
X0043086Y0978646D01*
X0043086Y0981044D02*
X0186771Y0981044D01*
X0183938Y0959458D02*
X0575386Y0959458D01*
X0575386Y0961856D02*
X0090538Y0961856D01*
X0091086Y0964255D02*
X0575386Y0964255D01*
X0575386Y0966653D02*
X0091015Y0966653D01*
X0089152Y0959458D02*
X0177435Y0959458D01*
X0176105Y0957059D02*
X0085714Y0957059D01*
X0087689Y0954661D02*
X0176378Y0954661D01*
X0178295Y0952262D02*
X0089074Y0952262D01*
X0089900Y0949864D02*
X0237528Y0949864D01*
X0239926Y0947465D02*
X0090421Y0947465D01*
X0090421Y0945067D02*
X0239328Y0945067D01*
X0238116Y0942668D02*
X0090053Y0942668D01*
X0089403Y0940270D02*
X0155596Y0940270D01*
X0156467Y0940630D02*
X0153012Y0939199D01*
X0150367Y0936555D01*
X0148936Y0933100D01*
X0148936Y0929361D01*
X0150367Y0925906D01*
X0153012Y0923261D01*
X0156467Y0921830D01*
X0160206Y0921830D01*
X0163661Y0923261D01*
X0166305Y0925906D01*
X0167736Y0929361D01*
X0167736Y0933100D01*
X0166305Y0936555D01*
X0163661Y0939199D01*
X0160206Y0940630D01*
X0156467Y0940630D01*
X0161077Y0940270D02*
X0185596Y0940270D01*
X0186467Y0940630D02*
X0183012Y0939199D01*
X0180367Y0936555D01*
X0178936Y0933100D01*
X0178936Y0929361D01*
X0180367Y0925906D01*
X0183012Y0923261D01*
X0186467Y0921830D01*
X0190206Y0921830D01*
X0193661Y0923261D01*
X0196305Y0925906D01*
X0197736Y0929361D01*
X0197736Y0933100D01*
X0196305Y0936555D01*
X0193661Y0939199D01*
X0190206Y0940630D01*
X0186467Y0940630D01*
X0191077Y0940270D02*
X0237123Y0940270D01*
X0236420Y0937871D02*
X0194989Y0937871D01*
X0196754Y0935473D02*
X0235943Y0935473D01*
X0235636Y0933074D02*
X0197736Y0933074D01*
X0197736Y0930676D02*
X0235636Y0930676D01*
X0235687Y0928277D02*
X0197287Y0928277D01*
X0196278Y0925879D02*
X0236164Y0925879D01*
X0236641Y0923480D02*
X0193880Y0923480D01*
X0182793Y0923480D02*
X0163880Y0923480D01*
X0166278Y0925879D02*
X0180395Y0925879D01*
X0179385Y0928277D02*
X0167287Y0928277D01*
X0167736Y0930676D02*
X0178936Y0930676D01*
X0178936Y0933074D02*
X0167736Y0933074D01*
X0166754Y0935473D02*
X0179919Y0935473D01*
X0181683Y0937871D02*
X0164989Y0937871D01*
X0151683Y0937871D02*
X0088019Y0937871D01*
X0086016Y0935473D02*
X0149919Y0935473D01*
X0148936Y0933074D02*
X0082801Y0933074D01*
X0078824Y0930676D02*
X0148936Y0930676D01*
X0149385Y0928277D02*
X0084193Y0928277D01*
X0086776Y0925879D02*
X0150395Y0925879D01*
X0152793Y0923480D02*
X0088426Y0923480D01*
X0089479Y0921082D02*
X0237583Y0921082D01*
X0238576Y0918683D02*
X0090068Y0918683D01*
X0089990Y0913886D02*
X0241672Y0913886D01*
X0240069Y0916284D02*
X0076886Y0916284D01*
X0076886Y0913886D02*
X0074486Y0913886D01*
X0074486Y0911487D02*
X0076886Y0911487D01*
X0076886Y0909089D02*
X0074486Y0909089D01*
X0074486Y0906690D02*
X0076886Y0906690D01*
X0076886Y0904292D02*
X0074486Y0904292D01*
X0075568Y0901893D02*
X0064952Y0901893D01*
X0064952Y0899495D02*
X0074575Y0899495D01*
X0074486Y0897096D02*
X0064952Y0897096D01*
X0064952Y0894698D02*
X0075017Y0894698D01*
X0076379Y0892299D02*
X0064952Y0892299D01*
X0064952Y0889901D02*
X0079758Y0889901D01*
X0085815Y0889901D02*
X0257878Y0889901D01*
X0258091Y0890114D02*
X0256803Y0888825D01*
X0256105Y0887142D01*
X0256105Y0885319D01*
X0256803Y0883635D01*
X0258091Y0882347D01*
X0259775Y0881649D01*
X0261598Y0881649D01*
X0263281Y0882347D01*
X0264265Y0883330D01*
X0282108Y0883330D01*
X0283091Y0882347D01*
X0284775Y0881649D01*
X0286598Y0881649D01*
X0288281Y0882347D01*
X0288996Y0883061D01*
X0292357Y0879700D01*
X0293423Y0879259D01*
X0297950Y0879259D01*
X0299016Y0879700D01*
X0302646Y0883330D01*
X0307108Y0883330D01*
X0308091Y0882347D01*
X0309775Y0881649D01*
X0311598Y0881649D01*
X0313281Y0882347D01*
X0314570Y0883635D01*
X0315267Y0885319D01*
X0315267Y0887142D01*
X0314570Y0888825D01*
X0313281Y0890114D01*
X0311598Y0890811D01*
X0309775Y0890811D01*
X0308091Y0890114D01*
X0307108Y0889130D01*
X0300868Y0889130D01*
X0299802Y0888689D01*
X0296172Y0885059D01*
X0295201Y0885059D01*
X0291571Y0888689D01*
X0290505Y0889130D01*
X0289265Y0889130D01*
X0288281Y0890114D01*
X0286598Y0890811D01*
X0284775Y0890811D01*
X0283091Y0890114D01*
X0282108Y0889130D01*
X0264265Y0889130D01*
X0263281Y0890114D01*
X0261598Y0890811D01*
X0259775Y0890811D01*
X0258091Y0890114D01*
X0256255Y0887502D02*
X0064952Y0887502D01*
X0064952Y0885104D02*
X0256194Y0885104D01*
X0257733Y0882705D02*
X0064952Y0882705D01*
X0064952Y0880307D02*
X0291750Y0880307D01*
X0289352Y0882705D02*
X0288640Y0882705D01*
X0282733Y0882705D02*
X0263640Y0882705D01*
X0263494Y0889901D02*
X0282878Y0889901D01*
X0288494Y0889901D02*
X0307878Y0889901D01*
X0313494Y0889901D02*
X0547786Y0889901D01*
X0547786Y0892299D02*
X0089193Y0892299D01*
X0090555Y0894698D02*
X0546469Y0894698D01*
X0546204Y0895339D02*
X0546886Y0893691D01*
X0547786Y0892791D01*
X0547786Y0881422D01*
X0546800Y0881830D01*
X0544572Y0881830D01*
X0542514Y0880978D01*
X0540939Y0879403D01*
X0540686Y0878793D01*
X0540434Y0879403D01*
X0538858Y0880978D01*
X0536800Y0881830D01*
X0534572Y0881830D01*
X0532514Y0880978D01*
X0530939Y0879403D01*
X0530686Y0878793D01*
X0530434Y0879403D01*
X0528858Y0880978D01*
X0526800Y0881830D01*
X0524572Y0881830D01*
X0522514Y0880978D01*
X0520939Y0879403D01*
X0520686Y0878793D01*
X0520434Y0879403D01*
X0518858Y0880978D01*
X0516800Y0881830D01*
X0514572Y0881830D01*
X0512514Y0880978D01*
X0510939Y0879403D01*
X0510686Y0878793D01*
X0510434Y0879403D01*
X0508858Y0880978D01*
X0506800Y0881830D01*
X0504572Y0881830D01*
X0502514Y0880978D01*
X0500939Y0879403D01*
X0500686Y0878793D01*
X0500434Y0879403D01*
X0498858Y0880978D01*
X0496800Y0881830D01*
X0494572Y0881830D01*
X0492514Y0880978D01*
X0490939Y0879403D01*
X0490576Y0878527D01*
X0490305Y0879061D01*
X0489805Y0879748D01*
X0489204Y0880349D01*
X0488517Y0880849D01*
X0487759Y0881235D01*
X0486951Y0881497D01*
X0486111Y0881630D01*
X0485686Y0881630D01*
X0485261Y0881630D01*
X0484422Y0881497D01*
X0483613Y0881235D01*
X0482856Y0880849D01*
X0482168Y0880349D01*
X0481567Y0879748D01*
X0481286Y0879361D01*
X0481286Y0879908D01*
X0480921Y0880790D01*
X0480246Y0881465D01*
X0479364Y0881830D01*
X0472009Y0881830D01*
X0471127Y0881465D01*
X0470452Y0880790D01*
X0470086Y0879908D01*
X0470086Y0872553D01*
X0470452Y0871671D01*
X0470892Y0871230D01*
X0470452Y0870790D01*
X0470086Y0869908D01*
X0470086Y0862553D01*
X0470452Y0861671D01*
X0471127Y0860996D01*
X0472009Y0860630D01*
X0479364Y0860630D01*
X0480246Y0860996D01*
X0480921Y0861671D01*
X0481286Y0862553D01*
X0481286Y0862711D01*
X0482514Y0861483D01*
X0484572Y0860630D01*
X0486800Y0860630D01*
X0488858Y0861483D01*
X0490434Y0863058D01*
X0490686Y0863668D01*
X0490939Y0863058D01*
X0492514Y0861483D01*
X0494572Y0860630D01*
X0496800Y0860630D01*
X0498858Y0861483D01*
X0500434Y0863058D01*
X0500686Y0863668D01*
X0500939Y0863058D01*
X0502514Y0861483D01*
X0504572Y0860630D01*
X0506800Y0860630D01*
X0508858Y0861483D01*
X0510434Y0863058D01*
X0510686Y0863668D01*
X0510939Y0863058D01*
X0512514Y0861483D01*
X0514572Y0860630D01*
X0516800Y0860630D01*
X0518858Y0861483D01*
X0520434Y0863058D01*
X0520686Y0863668D01*
X0520939Y0863058D01*
X0522514Y0861483D01*
X0524572Y0860630D01*
X0526800Y0860630D01*
X0528858Y0861483D01*
X0530434Y0863058D01*
X0530686Y0863668D01*
X0530939Y0863058D01*
X0532514Y0861483D01*
X0534572Y0860630D01*
X0536800Y0860630D01*
X0538858Y0861483D01*
X0540434Y0863058D01*
X0540686Y0863668D01*
X0540939Y0863058D01*
X0542514Y0861483D01*
X0544572Y0860630D01*
X0546800Y0860630D01*
X0548858Y0861483D01*
X0550434Y0863058D01*
X0550686Y0863668D01*
X0550939Y0863058D01*
X0552514Y0861483D01*
X0554572Y0860630D01*
X0556800Y0860630D01*
X0558858Y0861483D01*
X0560434Y0863058D01*
X0560686Y0863668D01*
X0560939Y0863058D01*
X0562514Y0861483D01*
X0564572Y0860630D01*
X0566800Y0860630D01*
X0568858Y0861483D01*
X0570434Y0863058D01*
X0571286Y0865116D01*
X0571286Y0867344D01*
X0570434Y0869403D01*
X0568858Y0870978D01*
X0568249Y0871230D01*
X0568858Y0871483D01*
X0570434Y0873058D01*
X0571286Y0875116D01*
X0571286Y0877344D01*
X0570434Y0879403D01*
X0568858Y0880978D01*
X0566800Y0881830D01*
X0564572Y0881830D01*
X0562514Y0880978D01*
X0560939Y0879403D01*
X0560686Y0878793D01*
X0560434Y0879403D01*
X0558858Y0880978D01*
X0556800Y0881830D01*
X0554572Y0881830D01*
X0553586Y0881422D01*
X0553586Y0892791D01*
X0554487Y0893691D01*
X0555169Y0895339D01*
X0555169Y0897122D01*
X0554487Y0898770D01*
X0553226Y0900031D01*
X0551578Y0900713D01*
X0549795Y0900713D01*
X0548147Y0900031D01*
X0546886Y0898770D01*
X0546204Y0897122D01*
X0546204Y0895339D01*
X0546204Y0897096D02*
X0091086Y0897096D01*
X0090998Y0899495D02*
X0547611Y0899495D01*
X0553761Y0899495D02*
X0574478Y0899495D01*
X0574286Y0901893D02*
X0090004Y0901893D01*
X0087863Y0904292D02*
X0258017Y0904292D01*
X0250681Y0906690D02*
X0086451Y0906690D01*
X0088216Y0909089D02*
X0246855Y0909089D01*
X0244030Y0911487D02*
X0089350Y0911487D01*
X0076886Y0918683D02*
X0074486Y0918683D01*
X0074486Y0921082D02*
X0076886Y0921082D01*
X0076886Y0923480D02*
X0074486Y0923480D01*
X0074486Y0925879D02*
X0076886Y0925879D01*
X0076886Y0928277D02*
X0074486Y0928277D01*
X0075089Y0930676D02*
X0076886Y0930676D01*
X0059676Y0945067D02*
X0043086Y0945067D01*
X0043086Y0947465D02*
X0060952Y0947465D01*
X0061472Y0949864D02*
X0043086Y0949864D01*
X0043086Y0952262D02*
X0062299Y0952262D01*
X0063684Y0954661D02*
X0043086Y0954661D01*
X0043086Y0957059D02*
X0065927Y0957059D01*
X0069560Y0959458D02*
X0043086Y0959458D01*
X0043086Y0961856D02*
X0075034Y0961856D01*
X0074486Y0964255D02*
X0043086Y0964255D01*
X0043086Y0966653D02*
X0074558Y0966653D01*
X0075551Y0969052D02*
X0043086Y0969052D01*
X0043086Y0971450D02*
X0077668Y0971450D01*
X0057277Y0942668D02*
X0043086Y0942668D01*
X0043086Y0940270D02*
X0054879Y0940270D01*
X0052480Y0937871D02*
X0043086Y0937871D01*
X0043086Y0935473D02*
X0050082Y0935473D01*
X0048166Y0933557D02*
X0048166Y0933557D01*
X0047683Y0933074D02*
X0043086Y0933074D01*
X0043086Y0930676D02*
X0045684Y0930676D01*
X0044600Y0928277D02*
X0043086Y0928277D01*
X0043086Y0925879D02*
X0044152Y0925879D01*
X0044152Y0923480D02*
X0043086Y0923480D01*
X0043086Y0921082D02*
X0044152Y0921082D01*
X0044152Y0918683D02*
X0043086Y0918683D01*
X0043086Y0916284D02*
X0044152Y0916284D01*
X0044152Y0913886D02*
X0043086Y0913886D01*
X0043086Y0911487D02*
X0044152Y0911487D01*
X0044152Y0909089D02*
X0043086Y0909089D01*
X0043086Y0906690D02*
X0044152Y0906690D01*
X0044152Y0904292D02*
X0043086Y0904292D01*
X0043086Y0901893D02*
X0044152Y0901893D01*
X0044152Y0899495D02*
X0043086Y0899495D01*
X0043086Y0897096D02*
X0044152Y0897096D01*
X0044152Y0894698D02*
X0043086Y0894698D01*
X0043086Y0892299D02*
X0044152Y0892299D01*
X0044152Y0889901D02*
X0043086Y0889901D01*
X0043086Y0887502D02*
X0044152Y0887502D01*
X0044152Y0885104D02*
X0043086Y0885104D01*
X0043086Y0882705D02*
X0044152Y0882705D01*
X0044152Y0880307D02*
X0043086Y0880307D01*
X0043086Y0877908D02*
X0044152Y0877908D01*
X0044152Y0875510D02*
X0043086Y0875510D01*
X0043086Y0873111D02*
X0044152Y0873111D01*
X0044152Y0870713D02*
X0043086Y0870713D01*
X0043086Y0868314D02*
X0044152Y0868314D01*
X0044152Y0865916D02*
X0043086Y0865916D01*
X0043086Y0863517D02*
X0044152Y0863517D01*
X0044152Y0861119D02*
X0043086Y0861119D01*
X0043086Y0858720D02*
X0044152Y0858720D01*
X0044152Y0856322D02*
X0043086Y0856322D01*
X0043086Y0853923D02*
X0044152Y0853923D01*
X0044152Y0851525D02*
X0043086Y0851525D01*
X0043086Y0849126D02*
X0044653Y0849126D01*
X0045798Y0846728D02*
X0043086Y0846728D01*
X0043086Y0844329D02*
X0047880Y0844329D01*
X0048152Y0841931D02*
X0043086Y0841931D01*
X0043086Y0839532D02*
X0048152Y0839532D01*
X0048152Y0837134D02*
X0043086Y0837134D01*
X0043086Y0834735D02*
X0048152Y0834735D01*
X0048152Y0832337D02*
X0043086Y0832337D01*
X0043086Y0829938D02*
X0048152Y0829938D01*
X0048152Y0827540D02*
X0043086Y0827540D01*
X0043086Y0825141D02*
X0048152Y0825141D01*
X0048152Y0822743D02*
X0043086Y0822743D01*
X0043086Y0820344D02*
X0048152Y0820344D01*
X0048152Y0817946D02*
X0043086Y0817946D01*
X0043086Y0815547D02*
X0048152Y0815547D01*
X0048152Y0813148D02*
X0043086Y0813148D01*
X0043086Y0810750D02*
X0048152Y0810750D01*
X0048152Y0808351D02*
X0043086Y0808351D01*
X0043086Y0805953D02*
X0048152Y0805953D01*
X0048152Y0803554D02*
X0043086Y0803554D01*
X0043086Y0801156D02*
X0048152Y0801156D01*
X0048152Y0798757D02*
X0043086Y0798757D01*
X0043086Y0796359D02*
X0048152Y0796359D01*
X0048152Y0793960D02*
X0043086Y0793960D01*
X0043086Y0791562D02*
X0048152Y0791562D01*
X0048152Y0789163D02*
X0043086Y0789163D01*
X0043086Y0786765D02*
X0048152Y0786765D01*
X0048866Y0784366D02*
X0043086Y0784366D01*
X0043086Y0781968D02*
X0050898Y0781968D01*
X0053296Y0779569D02*
X0043086Y0779569D01*
X0043086Y0777171D02*
X0055695Y0777171D01*
X0058093Y0774772D02*
X0043086Y0774772D01*
X0043086Y0772374D02*
X0060492Y0772374D01*
X0062890Y0769975D02*
X0043086Y0769975D01*
X0043086Y0767577D02*
X0065289Y0767577D01*
X0067687Y0765178D02*
X0043086Y0765178D01*
X0043086Y0762780D02*
X0070086Y0762780D01*
X0072484Y0760381D02*
X0043086Y0760381D01*
X0043086Y0757983D02*
X0074883Y0757983D01*
X0077281Y0755584D02*
X0043086Y0755584D01*
X0043086Y0753186D02*
X0079680Y0753186D01*
X0082079Y0750787D02*
X0043086Y0750787D01*
X0043086Y0748389D02*
X0084477Y0748389D01*
X0086876Y0745990D02*
X0074358Y0745990D01*
X0073156Y0747193D02*
X0068217Y0747193D01*
X0064724Y0743700D01*
X0064724Y0738761D01*
X0067396Y0736089D01*
X0064924Y0733617D01*
X0064924Y0731230D01*
X0064924Y0728844D01*
X0068300Y0725468D01*
X0070686Y0725468D01*
X0070686Y0731230D01*
X0064924Y0731230D01*
X0070686Y0731230D01*
X0070686Y0731230D01*
X0070686Y0731230D01*
X0070686Y0725468D01*
X0073073Y0725468D01*
X0076449Y0728844D01*
X0076449Y0731230D01*
X0070686Y0731230D01*
X0070686Y0731230D01*
X0076449Y0731230D01*
X0076449Y0733617D01*
X0073977Y0736089D01*
X0076649Y0738761D01*
X0076649Y0743700D01*
X0073156Y0747193D01*
X0076649Y0743592D02*
X0089274Y0743592D01*
X0091673Y0741193D02*
X0076649Y0741193D01*
X0076649Y0738795D02*
X0094071Y0738795D01*
X0096470Y0736396D02*
X0074284Y0736396D01*
X0076068Y0733998D02*
X0098868Y0733998D01*
X0101267Y0731599D02*
X0076449Y0731599D01*
X0076449Y0729201D02*
X0153665Y0729201D01*
X0175752Y0729201D02*
X0195620Y0729201D01*
X0217708Y0729201D02*
X0712286Y0729201D01*
X0712286Y0731599D02*
X0219231Y0731599D01*
X0219586Y0733998D02*
X0712286Y0733998D01*
X0711470Y0736396D02*
X0219147Y0736396D01*
X0219586Y0738795D02*
X0709071Y0738795D01*
X0706673Y0741193D02*
X0219094Y0741193D01*
X0217376Y0743592D02*
X0704274Y0743592D01*
X0701876Y0745990D02*
X0212472Y0745990D01*
X0211931Y0748389D02*
X0699936Y0748389D01*
X0699286Y0750787D02*
X0139049Y0750787D01*
X0132324Y0750787D02*
X0100180Y0750787D01*
X0097782Y0753186D02*
X0180170Y0753186D01*
X0180125Y0753230D02*
X0180759Y0752597D01*
X0182334Y0751945D01*
X0184039Y0751945D01*
X0185614Y0752597D01*
X0186820Y0753803D01*
X0187472Y0755378D01*
X0187472Y0757083D01*
X0186820Y0758658D01*
X0185614Y0759864D01*
X0184039Y0760516D01*
X0182334Y0760516D01*
X0180759Y0759864D01*
X0180125Y0759230D01*
X0116929Y0759230D01*
X0113686Y0762473D01*
X0113686Y0767613D01*
X0114653Y0768580D01*
X0115366Y0770300D01*
X0115366Y0772161D01*
X0114653Y0773881D01*
X0113337Y0775197D01*
X0111617Y0775910D01*
X0109755Y0775910D01*
X0108036Y0775197D01*
X0106719Y0773881D01*
X0106007Y0772161D01*
X0106007Y0770300D01*
X0106719Y0768580D01*
X0107686Y0767613D01*
X0107686Y0760634D01*
X0108143Y0759531D01*
X0108987Y0758687D01*
X0113987Y0753687D01*
X0115090Y0753230D01*
X0180125Y0753230D01*
X0186203Y0753186D02*
X0699286Y0753186D01*
X0699286Y0755584D02*
X0187472Y0755584D01*
X0187099Y0757983D02*
X0699286Y0757983D01*
X0699286Y0760381D02*
X0184365Y0760381D01*
X0182008Y0760381D02*
X0115778Y0760381D01*
X0113686Y0762780D02*
X0699286Y0762780D01*
X0699286Y0765178D02*
X0113686Y0765178D01*
X0113686Y0767577D02*
X0495908Y0767577D01*
X0494724Y0768761D02*
X0498217Y0765268D01*
X0503156Y0765268D01*
X0505686Y0767799D01*
X0508217Y0765268D01*
X0513156Y0765268D01*
X0515828Y0767940D01*
X0518300Y0765468D01*
X0520686Y0765468D01*
X0520686Y0771230D01*
X0520686Y0771230D01*
X0520686Y0765468D01*
X0523073Y0765468D01*
X0525545Y0767940D01*
X0528217Y0765268D01*
X0533156Y0765268D01*
X0536649Y0768761D01*
X0536649Y0773700D01*
X0533156Y0777193D01*
X0528217Y0777193D01*
X0525545Y0774521D01*
X0523073Y0776993D01*
X0520686Y0776993D01*
X0518300Y0776993D01*
X0515828Y0774521D01*
X0513156Y0777193D01*
X0508217Y0777193D01*
X0505686Y0774662D01*
X0503156Y0777193D01*
X0498217Y0777193D01*
X0494724Y0773700D01*
X0494724Y0768761D01*
X0494724Y0769975D02*
X0115232Y0769975D01*
X0115278Y0772374D02*
X0494724Y0772374D01*
X0495796Y0774772D02*
X0113762Y0774772D01*
X0107610Y0774772D02*
X0076195Y0774772D01*
X0073797Y0777171D02*
X0498195Y0777171D01*
X0503178Y0777171D02*
X0508195Y0777171D01*
X0505796Y0774772D02*
X0505576Y0774772D01*
X0505465Y0767577D02*
X0505908Y0767577D01*
X0515465Y0767577D02*
X0516191Y0767577D01*
X0520686Y0767577D02*
X0520686Y0767577D01*
X0520686Y0769975D02*
X0520686Y0769975D01*
X0520686Y0771230D02*
X0520686Y0776993D01*
X0520686Y0771230D01*
X0520686Y0771230D01*
X0520686Y0772374D02*
X0520686Y0772374D01*
X0520686Y0774772D02*
X0520686Y0774772D01*
X0516079Y0774772D02*
X0515576Y0774772D01*
X0513178Y0777171D02*
X0528195Y0777171D01*
X0525796Y0774772D02*
X0525293Y0774772D01*
X0525182Y0767577D02*
X0525908Y0767577D01*
X0535465Y0767577D02*
X0551191Y0767577D01*
X0549924Y0768844D02*
X0553300Y0765468D01*
X0555686Y0765468D01*
X0555686Y0771230D01*
X0555686Y0771230D01*
X0549924Y0771230D01*
X0549924Y0768844D01*
X0549924Y0769975D02*
X0536649Y0769975D01*
X0536649Y0772374D02*
X0549924Y0772374D01*
X0549924Y0771230D02*
X0555686Y0771230D01*
X0555686Y0771230D01*
X0555686Y0765468D01*
X0558073Y0765468D01*
X0560545Y0767940D01*
X0563217Y0765268D01*
X0568156Y0765268D01*
X0571649Y0768761D01*
X0571649Y0773700D01*
X0568156Y0777193D01*
X0563217Y0777193D01*
X0560545Y0774521D01*
X0558073Y0776993D01*
X0555686Y0776993D01*
X0553300Y0776993D01*
X0549924Y0773617D01*
X0549924Y0771230D01*
X0551079Y0774772D02*
X0535576Y0774772D01*
X0533178Y0777171D02*
X0563195Y0777171D01*
X0560796Y0774772D02*
X0560293Y0774772D01*
X0555686Y0774772D02*
X0555686Y0774772D01*
X0555686Y0776993D02*
X0555686Y0771230D01*
X0555686Y0771230D01*
X0555686Y0776993D01*
X0555686Y0772374D02*
X0555686Y0772374D01*
X0555686Y0769975D02*
X0555686Y0769975D01*
X0555686Y0767577D02*
X0555686Y0767577D01*
X0560182Y0767577D02*
X0560908Y0767577D01*
X0570465Y0767577D02*
X0699286Y0767577D01*
X0699286Y0769975D02*
X0571649Y0769975D01*
X0571649Y0772374D02*
X0699286Y0772374D01*
X0699286Y0774772D02*
X0570576Y0774772D01*
X0568178Y0777171D02*
X0699286Y0777171D01*
X0699286Y0779569D02*
X0071398Y0779569D01*
X0069000Y0781968D02*
X0699286Y0781968D01*
X0699286Y0784366D02*
X0066601Y0784366D01*
X0064203Y0786765D02*
X0699286Y0786765D01*
X0699286Y0789163D02*
X0061804Y0789163D01*
X0060952Y0791562D02*
X0699286Y0791562D01*
X0699286Y0793960D02*
X0354705Y0793960D01*
X0354570Y0793635D02*
X0355267Y0795319D01*
X0355267Y0796710D01*
X0365206Y0806649D01*
X0366598Y0806649D01*
X0368281Y0807347D01*
X0369570Y0808635D01*
X0370267Y0810319D01*
X0370267Y0812142D01*
X0369570Y0813825D01*
X0368281Y0815114D01*
X0366598Y0815811D01*
X0364775Y0815811D01*
X0364081Y0815524D01*
X0397329Y0848772D01*
X0398145Y0849588D01*
X0398586Y0850654D01*
X0398586Y0877652D01*
X0399570Y0878635D01*
X0400267Y0880319D01*
X0400267Y0882142D01*
X0399570Y0883825D01*
X0398281Y0885114D01*
X0396598Y0885811D01*
X0394775Y0885811D01*
X0393091Y0885114D01*
X0391803Y0883825D01*
X0391105Y0882142D01*
X0391105Y0880319D01*
X0391803Y0878635D01*
X0392786Y0877652D01*
X0392786Y0852432D01*
X0346166Y0805811D01*
X0344775Y0805811D01*
X0343091Y0805114D01*
X0341803Y0803825D01*
X0341105Y0802142D01*
X0341105Y0800319D01*
X0341803Y0798635D01*
X0343091Y0797347D01*
X0344775Y0796649D01*
X0346105Y0796649D01*
X0346105Y0795319D01*
X0346803Y0793635D01*
X0348091Y0792347D01*
X0349775Y0791649D01*
X0351598Y0791649D01*
X0353281Y0792347D01*
X0354570Y0793635D01*
X0355267Y0796359D02*
X0699286Y0796359D01*
X0699286Y0798757D02*
X0357315Y0798757D01*
X0359713Y0801156D02*
X0699286Y0801156D01*
X0699286Y0803554D02*
X0362112Y0803554D01*
X0364510Y0805953D02*
X0696913Y0805953D01*
X0694514Y0808351D02*
X0369286Y0808351D01*
X0370267Y0810750D02*
X0692116Y0810750D01*
X0689717Y0813148D02*
X0369850Y0813148D01*
X0367236Y0815547D02*
X0687319Y0815547D01*
X0684920Y0817946D02*
X0366503Y0817946D01*
X0364137Y0815547D02*
X0364104Y0815547D01*
X0360699Y0820344D02*
X0353901Y0820344D01*
X0351503Y0817946D02*
X0358300Y0817946D01*
X0355902Y0815547D02*
X0349104Y0815547D01*
X0346706Y0813148D02*
X0353503Y0813148D01*
X0351105Y0810750D02*
X0344307Y0810750D01*
X0342767Y0809210D02*
X0387329Y0853772D01*
X0388145Y0854588D01*
X0388586Y0855654D01*
X0388586Y0877652D01*
X0389570Y0878635D01*
X0390267Y0880319D01*
X0390267Y0882142D01*
X0389570Y0883825D01*
X0388281Y0885114D01*
X0386598Y0885811D01*
X0384775Y0885811D01*
X0383091Y0885114D01*
X0381803Y0883825D01*
X0381105Y0882142D01*
X0381105Y0880319D01*
X0381803Y0878635D01*
X0382786Y0877652D01*
X0382786Y0857432D01*
X0338666Y0813311D01*
X0337275Y0813311D01*
X0335591Y0812614D01*
X0334303Y0811325D01*
X0333605Y0809642D01*
X0333605Y0807819D01*
X0334303Y0806135D01*
X0335591Y0804847D01*
X0337275Y0804149D01*
X0339098Y0804149D01*
X0340781Y0804847D01*
X0342070Y0806135D01*
X0342767Y0807819D01*
X0342767Y0809210D01*
X0342767Y0808351D02*
X0348706Y0808351D01*
X0346308Y0805953D02*
X0341888Y0805953D01*
X0341690Y0803554D02*
X0291442Y0803554D01*
X0291649Y0803761D02*
X0291649Y0808700D01*
X0288156Y0812193D01*
X0283217Y0812193D01*
X0280545Y0809521D01*
X0278073Y0811993D01*
X0275686Y0811993D01*
X0273300Y0811993D01*
X0269924Y0808617D01*
X0269924Y0806230D01*
X0269924Y0803844D01*
X0273300Y0800468D01*
X0275686Y0800468D01*
X0275686Y0806230D01*
X0275686Y0806230D01*
X0269924Y0806230D01*
X0275686Y0806230D01*
X0275686Y0806230D01*
X0275686Y0800468D01*
X0278073Y0800468D01*
X0280545Y0802940D01*
X0283217Y0800268D01*
X0288156Y0800268D01*
X0291649Y0803761D01*
X0291649Y0805953D02*
X0334485Y0805953D01*
X0333605Y0808351D02*
X0291649Y0808351D01*
X0289599Y0810750D02*
X0334064Y0810750D01*
X0333281Y0812347D02*
X0334570Y0813635D01*
X0335267Y0815319D01*
X0335267Y0816710D01*
X0345206Y0826649D01*
X0346598Y0826649D01*
X0348281Y0827347D01*
X0349570Y0828635D01*
X0350267Y0830319D01*
X0350267Y0832142D01*
X0349570Y0833825D01*
X0348281Y0835114D01*
X0346598Y0835811D01*
X0344775Y0835811D01*
X0343091Y0835114D01*
X0341803Y0833825D01*
X0341105Y0832142D01*
X0341105Y0830750D01*
X0331166Y0820811D01*
X0329775Y0820811D01*
X0328091Y0820114D01*
X0326803Y0818825D01*
X0326105Y0817142D01*
X0326105Y0815319D01*
X0326803Y0813635D01*
X0328091Y0812347D01*
X0329775Y0811649D01*
X0331598Y0811649D01*
X0333281Y0812347D01*
X0334083Y0813148D02*
X0336882Y0813148D01*
X0335267Y0815547D02*
X0340902Y0815547D01*
X0343300Y0817946D02*
X0336503Y0817946D01*
X0338901Y0820344D02*
X0345699Y0820344D01*
X0348097Y0822743D02*
X0341300Y0822743D01*
X0343698Y0825141D02*
X0350496Y0825141D01*
X0348474Y0827540D02*
X0352894Y0827540D01*
X0355293Y0829938D02*
X0350110Y0829938D01*
X0350187Y0832337D02*
X0357691Y0832337D01*
X0360090Y0834735D02*
X0348660Y0834735D01*
X0342712Y0834735D02*
X0143242Y0834735D01*
X0144452Y0837134D02*
X0362488Y0837134D01*
X0364887Y0839532D02*
X0144586Y0839532D01*
X0144586Y0841931D02*
X0367285Y0841931D01*
X0369684Y0844329D02*
X0144586Y0844329D01*
X0143872Y0846728D02*
X0372082Y0846728D01*
X0374481Y0849126D02*
X0141841Y0849126D01*
X0139474Y0832337D02*
X0341186Y0832337D01*
X0340293Y0829938D02*
X0060952Y0829938D01*
X0060952Y0827540D02*
X0337894Y0827540D01*
X0335496Y0825141D02*
X0060952Y0825141D01*
X0060952Y0822743D02*
X0333097Y0822743D01*
X0328647Y0820344D02*
X0060952Y0820344D01*
X0060952Y0817946D02*
X0326438Y0817946D01*
X0326105Y0815547D02*
X0060952Y0815547D01*
X0060952Y0813148D02*
X0327290Y0813148D01*
X0341105Y0801156D02*
X0289044Y0801156D01*
X0282329Y0801156D02*
X0278761Y0801156D01*
X0275686Y0801156D02*
X0275686Y0801156D01*
X0275686Y0803554D02*
X0275686Y0803554D01*
X0275686Y0805953D02*
X0275686Y0805953D01*
X0275686Y0806230D02*
X0275686Y0811993D01*
X0275686Y0806230D01*
X0275686Y0806230D01*
X0275686Y0808351D02*
X0275686Y0808351D01*
X0275686Y0810750D02*
X0275686Y0810750D01*
X0272057Y0810750D02*
X0060952Y0810750D01*
X0060952Y0808351D02*
X0269924Y0808351D01*
X0269924Y0805953D02*
X0060952Y0805953D01*
X0060952Y0803554D02*
X0270213Y0803554D01*
X0272612Y0801156D02*
X0060952Y0801156D01*
X0060952Y0798757D02*
X0341752Y0798757D01*
X0346105Y0796359D02*
X0060952Y0796359D01*
X0060952Y0793960D02*
X0346668Y0793960D01*
X0356300Y0822743D02*
X0363097Y0822743D01*
X0365496Y0825141D02*
X0358698Y0825141D01*
X0361097Y0827540D02*
X0367894Y0827540D01*
X0370293Y0829938D02*
X0363495Y0829938D01*
X0365894Y0832337D02*
X0372691Y0832337D01*
X0375090Y0834735D02*
X0368292Y0834735D01*
X0370691Y0837134D02*
X0377488Y0837134D01*
X0379887Y0839532D02*
X0373089Y0839532D01*
X0375488Y0841931D02*
X0382285Y0841931D01*
X0384684Y0844329D02*
X0377886Y0844329D01*
X0380285Y0846728D02*
X0387082Y0846728D01*
X0389481Y0849126D02*
X0382683Y0849126D01*
X0385082Y0851525D02*
X0391879Y0851525D01*
X0392786Y0853923D02*
X0387480Y0853923D01*
X0387329Y0853772D02*
X0387329Y0853772D01*
X0388586Y0856322D02*
X0392786Y0856322D01*
X0392786Y0858720D02*
X0388586Y0858720D01*
X0388586Y0861119D02*
X0392786Y0861119D01*
X0392786Y0863517D02*
X0388586Y0863517D01*
X0388586Y0865916D02*
X0392786Y0865916D01*
X0392786Y0868314D02*
X0388586Y0868314D01*
X0388586Y0870713D02*
X0392786Y0870713D01*
X0392786Y0873111D02*
X0388586Y0873111D01*
X0388586Y0875510D02*
X0392786Y0875510D01*
X0392530Y0877908D02*
X0388843Y0877908D01*
X0390262Y0880307D02*
X0391110Y0880307D01*
X0391339Y0882705D02*
X0390034Y0882705D01*
X0388292Y0885104D02*
X0393081Y0885104D01*
X0398292Y0885104D02*
X0433903Y0885104D01*
X0433704Y0884622D02*
X0433704Y0882839D01*
X0434386Y0881191D01*
X0435286Y0880291D01*
X0435286Y0873154D01*
X0435728Y0872088D01*
X0446204Y0861612D01*
X0446204Y0860339D01*
X0446886Y0858691D01*
X0448147Y0857430D01*
X0449795Y0856748D01*
X0451578Y0856748D01*
X0453226Y0857430D01*
X0454487Y0858691D01*
X0455169Y0860339D01*
X0455169Y0862122D01*
X0454487Y0863770D01*
X0453226Y0865031D01*
X0451578Y0865713D01*
X0450305Y0865713D01*
X0441086Y0874932D01*
X0441086Y0880291D01*
X0441987Y0881191D01*
X0442669Y0882839D01*
X0442669Y0884622D01*
X0441987Y0886270D01*
X0440726Y0887531D01*
X0439078Y0888213D01*
X0437295Y0888213D01*
X0435647Y0887531D01*
X0434386Y0886270D01*
X0433704Y0884622D01*
X0433759Y0882705D02*
X0400034Y0882705D01*
X0400262Y0880307D02*
X0435270Y0880307D01*
X0435286Y0877908D02*
X0398843Y0877908D01*
X0398586Y0875510D02*
X0435286Y0875510D01*
X0435304Y0873111D02*
X0398586Y0873111D01*
X0398586Y0870713D02*
X0437103Y0870713D01*
X0439501Y0868314D02*
X0398586Y0868314D01*
X0398586Y0865916D02*
X0441900Y0865916D01*
X0444298Y0863517D02*
X0398586Y0863517D01*
X0398586Y0861119D02*
X0446204Y0861119D01*
X0446874Y0858720D02*
X0398586Y0858720D01*
X0398586Y0856322D02*
X0601676Y0856322D01*
X0601068Y0855713D02*
X0599795Y0855713D01*
X0598147Y0855031D01*
X0596886Y0853770D01*
X0596204Y0852122D01*
X0596204Y0850339D01*
X0596886Y0848691D01*
X0598147Y0847430D01*
X0599795Y0846748D01*
X0601578Y0846748D01*
X0603226Y0847430D01*
X0604487Y0848691D01*
X0605169Y0850339D01*
X0605169Y0851612D01*
X0611575Y0858017D01*
X0611204Y0857122D01*
X0611204Y0855339D01*
X0611886Y0853691D01*
X0613147Y0852430D01*
X0614795Y0851748D01*
X0616578Y0851748D01*
X0618226Y0852430D01*
X0619126Y0853330D01*
X0622247Y0853330D01*
X0623147Y0852430D01*
X0624795Y0851748D01*
X0626578Y0851748D01*
X0628226Y0852430D01*
X0629487Y0853691D01*
X0630169Y0855339D01*
X0630169Y0857122D01*
X0629487Y0858770D01*
X0628226Y0860031D01*
X0626578Y0860713D01*
X0624795Y0860713D01*
X0623147Y0860031D01*
X0622247Y0859130D01*
X0619126Y0859130D01*
X0618226Y0860031D01*
X0616578Y0860713D01*
X0614795Y0860713D01*
X0613899Y0860342D01*
X0616888Y0863330D01*
X0622247Y0863330D01*
X0623147Y0862430D01*
X0624795Y0861748D01*
X0626578Y0861748D01*
X0628226Y0862430D01*
X0629487Y0863691D01*
X0630169Y0865339D01*
X0630169Y0867122D01*
X0629487Y0868770D01*
X0628226Y0870031D01*
X0626578Y0870713D01*
X0624795Y0870713D01*
X0623147Y0870031D01*
X0622247Y0869130D01*
X0615109Y0869130D01*
X0614044Y0868689D01*
X0601068Y0855713D01*
X0604075Y0858720D02*
X0454499Y0858720D01*
X0455169Y0861119D02*
X0471004Y0861119D01*
X0470086Y0863517D02*
X0454591Y0863517D01*
X0450102Y0865916D02*
X0470086Y0865916D01*
X0470086Y0868314D02*
X0447704Y0868314D01*
X0445305Y0870713D02*
X0470420Y0870713D01*
X0470086Y0873111D02*
X0442907Y0873111D01*
X0441086Y0875510D02*
X0470086Y0875510D01*
X0470086Y0877908D02*
X0441086Y0877908D01*
X0441102Y0880307D02*
X0470252Y0880307D01*
X0481121Y0880307D02*
X0482126Y0880307D01*
X0485686Y0880307D02*
X0485686Y0880307D01*
X0485686Y0881630D02*
X0485686Y0876230D01*
X0485686Y0876230D01*
X0485686Y0881630D01*
X0485686Y0877908D02*
X0485686Y0877908D01*
X0489247Y0880307D02*
X0491843Y0880307D01*
X0499529Y0880307D02*
X0501843Y0880307D01*
X0509529Y0880307D02*
X0511843Y0880307D01*
X0519529Y0880307D02*
X0521843Y0880307D01*
X0529529Y0880307D02*
X0531843Y0880307D01*
X0539529Y0880307D02*
X0541843Y0880307D01*
X0547786Y0882705D02*
X0442614Y0882705D01*
X0442469Y0885104D02*
X0547786Y0885104D01*
X0547786Y0887502D02*
X0440754Y0887502D01*
X0435619Y0887502D02*
X0315118Y0887502D01*
X0315178Y0885104D02*
X0383081Y0885104D01*
X0381339Y0882705D02*
X0313640Y0882705D01*
X0307733Y0882705D02*
X0302021Y0882705D01*
X0299622Y0880307D02*
X0381110Y0880307D01*
X0382530Y0877908D02*
X0064952Y0877908D01*
X0064952Y0875510D02*
X0189047Y0875510D01*
X0189775Y0875811D02*
X0188091Y0875114D01*
X0186803Y0873825D01*
X0186105Y0872142D01*
X0186105Y0870319D01*
X0186803Y0868635D01*
X0188091Y0867347D01*
X0189775Y0866649D01*
X0191166Y0866649D01*
X0193228Y0864588D01*
X0194044Y0863772D01*
X0195109Y0863330D01*
X0262108Y0863330D01*
X0263091Y0862347D01*
X0264775Y0861649D01*
X0266598Y0861649D01*
X0268281Y0862347D01*
X0269265Y0863330D01*
X0277108Y0863330D01*
X0278091Y0862347D01*
X0279775Y0861649D01*
X0281598Y0861649D01*
X0283281Y0862347D01*
X0284265Y0863330D01*
X0288727Y0863330D01*
X0292357Y0859700D01*
X0293423Y0859259D01*
X0297950Y0859259D01*
X0299016Y0859700D01*
X0302646Y0863330D01*
X0357108Y0863330D01*
X0358091Y0862347D01*
X0359775Y0861649D01*
X0361598Y0861649D01*
X0363281Y0862347D01*
X0364570Y0863635D01*
X0365267Y0865319D01*
X0365267Y0867142D01*
X0364570Y0868825D01*
X0363281Y0870114D01*
X0361598Y0870811D01*
X0359775Y0870811D01*
X0358091Y0870114D01*
X0357108Y0869130D01*
X0300868Y0869130D01*
X0299802Y0868689D01*
X0296172Y0865059D01*
X0295201Y0865059D01*
X0291571Y0868689D01*
X0290505Y0869130D01*
X0284265Y0869130D01*
X0283281Y0870114D01*
X0281598Y0870811D01*
X0279775Y0870811D01*
X0278091Y0870114D01*
X0277108Y0869130D01*
X0269265Y0869130D01*
X0268281Y0870114D01*
X0266598Y0870811D01*
X0264775Y0870811D01*
X0263091Y0870114D01*
X0262108Y0869130D01*
X0196888Y0869130D01*
X0195267Y0870750D01*
X0195267Y0872142D01*
X0194570Y0873825D01*
X0193281Y0875114D01*
X0191598Y0875811D01*
X0189775Y0875811D01*
X0192326Y0875510D02*
X0382786Y0875510D01*
X0382786Y0873111D02*
X0194866Y0873111D01*
X0195305Y0870713D02*
X0264537Y0870713D01*
X0266836Y0870713D02*
X0279537Y0870713D01*
X0281836Y0870713D02*
X0359537Y0870713D01*
X0361836Y0870713D02*
X0382786Y0870713D01*
X0382786Y0868314D02*
X0364782Y0868314D01*
X0365267Y0865916D02*
X0382786Y0865916D01*
X0382786Y0863517D02*
X0364452Y0863517D01*
X0376879Y0851525D02*
X0066086Y0851525D01*
X0065732Y0853923D02*
X0379278Y0853923D01*
X0381676Y0856322D02*
X0064952Y0856322D01*
X0064952Y0858720D02*
X0071661Y0858720D01*
X0071719Y0858580D02*
X0073036Y0857263D01*
X0074755Y0856551D01*
X0076617Y0856551D01*
X0078337Y0857263D01*
X0079304Y0858230D01*
X0105125Y0858230D01*
X0105759Y0857597D01*
X0107334Y0856945D01*
X0109039Y0856945D01*
X0110614Y0857597D01*
X0111820Y0858803D01*
X0112472Y0860378D01*
X0112472Y0862083D01*
X0111820Y0863658D01*
X0110614Y0864864D01*
X0109039Y0865516D01*
X0107334Y0865516D01*
X0105759Y0864864D01*
X0105125Y0864230D01*
X0079304Y0864230D01*
X0078337Y0865197D01*
X0076617Y0865910D01*
X0074755Y0865910D01*
X0073036Y0865197D01*
X0071719Y0863881D01*
X0071007Y0862161D01*
X0071007Y0860300D01*
X0071719Y0858580D01*
X0071007Y0861119D02*
X0064952Y0861119D01*
X0064952Y0863517D02*
X0071569Y0863517D01*
X0064952Y0865916D02*
X0191900Y0865916D01*
X0194658Y0863517D02*
X0111878Y0863517D01*
X0112472Y0861119D02*
X0290939Y0861119D01*
X0294344Y0865916D02*
X0297029Y0865916D01*
X0299427Y0868314D02*
X0291945Y0868314D01*
X0300434Y0861119D02*
X0382786Y0861119D01*
X0382786Y0858720D02*
X0111737Y0858720D01*
X0111486Y0849126D02*
X0109886Y0849126D01*
X0103777Y0837134D02*
X0094452Y0837134D01*
X0093242Y0834735D02*
X0128131Y0834735D01*
X0126920Y0837134D02*
X0117596Y0837134D01*
X0131898Y0832337D02*
X0089474Y0832337D01*
X0086898Y0832337D02*
X0084474Y0832337D01*
X0081898Y0832337D02*
X0060952Y0832337D01*
X0060952Y0834735D02*
X0078131Y0834735D01*
X0076920Y0837134D02*
X0060952Y0837134D01*
X0064952Y0868314D02*
X0187124Y0868314D01*
X0186105Y0870713D02*
X0064952Y0870713D01*
X0064952Y0873111D02*
X0186507Y0873111D01*
X0136898Y0832337D02*
X0134474Y0832337D01*
X0106095Y0772374D02*
X0078594Y0772374D01*
X0080992Y0769975D02*
X0106141Y0769975D01*
X0107686Y0767577D02*
X0083391Y0767577D01*
X0085789Y0765178D02*
X0107686Y0765178D01*
X0107686Y0762780D02*
X0088188Y0762780D01*
X0090586Y0760381D02*
X0107791Y0760381D01*
X0109691Y0757983D02*
X0092985Y0757983D01*
X0095383Y0755584D02*
X0112090Y0755584D01*
X0102579Y0748389D02*
X0130519Y0748389D01*
X0130086Y0745990D02*
X0104977Y0745990D01*
X0107376Y0743592D02*
X0130718Y0743592D01*
X0074407Y0726802D02*
X0712286Y0726802D01*
X0712286Y0724404D02*
X0043086Y0724404D01*
X0043086Y0726802D02*
X0066966Y0726802D01*
X0064924Y0729201D02*
X0043086Y0729201D01*
X0043086Y0731599D02*
X0064924Y0731599D01*
X0065305Y0733998D02*
X0043086Y0733998D01*
X0043086Y0736396D02*
X0067089Y0736396D01*
X0064724Y0738795D02*
X0043086Y0738795D01*
X0043086Y0741193D02*
X0064724Y0741193D01*
X0064724Y0743592D02*
X0043086Y0743592D01*
X0043086Y0745990D02*
X0067014Y0745990D01*
X0070686Y0729201D02*
X0070686Y0729201D01*
X0070686Y0726802D02*
X0070686Y0726802D01*
X0043086Y0722005D02*
X0712286Y0722005D01*
X0712679Y0719607D02*
X0043086Y0719607D01*
X0043086Y0717208D02*
X0712686Y0717208D01*
X0712686Y0714810D02*
X0043086Y0714810D01*
X0043086Y0712411D02*
X0712686Y0712411D01*
X0712686Y0710013D02*
X0425053Y0710013D01*
X0426449Y0708617D02*
X0423073Y0711993D01*
X0420686Y0711993D01*
X0418300Y0711993D01*
X0415686Y0709379D01*
X0413073Y0711993D01*
X0410686Y0711993D01*
X0408300Y0711993D01*
X0405828Y0709521D01*
X0403156Y0712193D01*
X0398217Y0712193D01*
X0395686Y0709662D01*
X0393156Y0712193D01*
X0388217Y0712193D01*
X0384724Y0708700D01*
X0384724Y0703761D01*
X0388217Y0700268D01*
X0393156Y0700268D01*
X0395686Y0702799D01*
X0398217Y0700268D01*
X0403156Y0700268D01*
X0405828Y0702940D01*
X0408300Y0700468D01*
X0410686Y0700468D01*
X0410686Y0706230D01*
X0410686Y0706230D01*
X0410686Y0700468D01*
X0413073Y0700468D01*
X0415686Y0703081D01*
X0418300Y0700468D01*
X0420686Y0700468D01*
X0420686Y0706230D01*
X0420686Y0706230D01*
X0410686Y0706230D01*
X0410686Y0706230D01*
X0410686Y0711993D01*
X0410686Y0706230D01*
X0410686Y0706230D01*
X0414924Y0706230D01*
X0420686Y0706230D01*
X0420686Y0706230D01*
X0420686Y0700468D01*
X0423073Y0700468D01*
X0426449Y0703844D01*
X0426449Y0706230D01*
X0420686Y0706230D01*
X0420686Y0706230D01*
X0420686Y0711993D01*
X0420686Y0706230D01*
X0420686Y0706230D01*
X0426449Y0706230D01*
X0426449Y0708617D01*
X0426449Y0707614D02*
X0712686Y0707614D01*
X0712686Y0705215D02*
X0570133Y0705215D01*
X0571649Y0703700D02*
X0568156Y0707193D01*
X0563217Y0707193D01*
X0560545Y0704521D01*
X0558073Y0706993D01*
X0555686Y0706993D01*
X0553300Y0706993D01*
X0549924Y0703617D01*
X0549924Y0701230D01*
X0549924Y0698844D01*
X0553300Y0695468D01*
X0555686Y0695468D01*
X0555686Y0701230D01*
X0555686Y0701230D01*
X0549924Y0701230D01*
X0555686Y0701230D01*
X0555686Y0701230D01*
X0555686Y0695468D01*
X0558073Y0695468D01*
X0560545Y0697940D01*
X0563217Y0695268D01*
X0568156Y0695268D01*
X0571649Y0698761D01*
X0571649Y0703700D01*
X0571649Y0702817D02*
X0712817Y0702817D01*
X0743555Y0702817D02*
X0838208Y0702817D01*
X0838208Y0705215D02*
X0743789Y0705215D01*
X0745289Y0707614D02*
X0838208Y0707614D01*
X0838208Y0710013D02*
X0745220Y0710013D01*
X0743686Y0712411D02*
X0838208Y0712411D01*
X0838208Y0714810D02*
X0743686Y0714810D01*
X0743686Y0717208D02*
X0838208Y0717208D01*
X0838208Y0719607D02*
X0743686Y0719607D01*
X0743686Y0722005D02*
X0806763Y0722005D01*
X0808300Y0720468D02*
X0810686Y0720468D01*
X0810686Y0726230D01*
X0810686Y0726230D01*
X0804924Y0726230D01*
X0804924Y0723844D01*
X0808300Y0720468D01*
X0810686Y0720468D02*
X0813073Y0720468D01*
X0816449Y0723844D01*
X0816449Y0726230D01*
X0810686Y0726230D01*
X0810686Y0726230D01*
X0810686Y0720468D01*
X0810686Y0722005D02*
X0810686Y0722005D01*
X0810686Y0724404D02*
X0810686Y0724404D01*
X0810686Y0726230D02*
X0810686Y0726230D01*
X0804924Y0726230D01*
X0804924Y0728617D01*
X0807396Y0731089D01*
X0804724Y0733761D01*
X0804724Y0738700D01*
X0807396Y0741372D01*
X0804924Y0743844D01*
X0804924Y0746230D01*
X0810686Y0746230D01*
X0810686Y0746230D01*
X0804924Y0746230D01*
X0804924Y0748617D01*
X0807396Y0751089D01*
X0804724Y0753761D01*
X0804724Y0758700D01*
X0808217Y0762193D01*
X0813156Y0762193D01*
X0816649Y0758700D01*
X0816649Y0753761D01*
X0813977Y0751089D01*
X0816449Y0748617D01*
X0816449Y0746230D01*
X0810686Y0746230D01*
X0810686Y0746230D01*
X0816449Y0746230D01*
X0816449Y0743844D01*
X0813977Y0741372D01*
X0816649Y0738700D01*
X0816649Y0733761D01*
X0813977Y0731089D01*
X0816449Y0728617D01*
X0816449Y0726230D01*
X0810686Y0726230D01*
X0814610Y0722005D02*
X0838208Y0722005D01*
X0838208Y0724404D02*
X0816449Y0724404D01*
X0816449Y0726802D02*
X0838208Y0726802D01*
X0838208Y0729201D02*
X0815865Y0729201D01*
X0814487Y0731599D02*
X0838208Y0731599D01*
X0838208Y0733998D02*
X0816649Y0733998D01*
X0816649Y0736396D02*
X0838208Y0736396D01*
X0838208Y0738795D02*
X0816554Y0738795D01*
X0814155Y0741193D02*
X0838208Y0741193D01*
X0838208Y0743592D02*
X0816197Y0743592D01*
X0816449Y0745990D02*
X0838208Y0745990D01*
X0838208Y0748389D02*
X0816449Y0748389D01*
X0814278Y0750787D02*
X0838208Y0750787D01*
X0838208Y0753186D02*
X0816073Y0753186D01*
X0816649Y0755584D02*
X0838208Y0755584D01*
X0838208Y0757983D02*
X0816649Y0757983D01*
X0814967Y0760381D02*
X0838208Y0760381D01*
X0838208Y0762780D02*
X0743686Y0762780D01*
X0743686Y0765178D02*
X0838208Y0765178D01*
X0838208Y0767577D02*
X0743686Y0767577D01*
X0743686Y0769975D02*
X0838208Y0769975D01*
X0838208Y0772374D02*
X0743686Y0772374D01*
X0743686Y0774772D02*
X0838208Y0774772D01*
X0838208Y0777171D02*
X0814776Y0777171D01*
X0816449Y0778844D02*
X0816449Y0781230D01*
X0810686Y0781230D01*
X0810686Y0781230D01*
X0810686Y0775468D01*
X0808300Y0775468D01*
X0804924Y0778844D01*
X0804924Y0781230D01*
X0810686Y0781230D01*
X0810686Y0781230D01*
X0810686Y0775468D01*
X0813073Y0775468D01*
X0816449Y0778844D01*
X0816449Y0779569D02*
X0838208Y0779569D01*
X0838208Y0781968D02*
X0816449Y0781968D01*
X0816449Y0781230D02*
X0816449Y0783617D01*
X0813977Y0786089D01*
X0816649Y0788761D01*
X0816649Y0793700D01*
X0813977Y0796372D01*
X0816449Y0798844D01*
X0816449Y0801230D01*
X0810686Y0801230D01*
X0804924Y0801230D01*
X0804924Y0798844D01*
X0807396Y0796372D01*
X0804724Y0793700D01*
X0804724Y0788761D01*
X0807396Y0786089D01*
X0804924Y0783617D01*
X0804924Y0781230D01*
X0810686Y0781230D01*
X0810686Y0781230D01*
X0816449Y0781230D01*
X0815699Y0784366D02*
X0838208Y0784366D01*
X0838208Y0786765D02*
X0814653Y0786765D01*
X0816649Y0789163D02*
X0838208Y0789163D01*
X0838208Y0791562D02*
X0816649Y0791562D01*
X0816388Y0793960D02*
X0838208Y0793960D01*
X0838208Y0796359D02*
X0813990Y0796359D01*
X0816362Y0798757D02*
X0838208Y0798757D01*
X0838208Y0801156D02*
X0816449Y0801156D01*
X0816449Y0801230D02*
X0816449Y0803617D01*
X0813977Y0806089D01*
X0816649Y0808761D01*
X0816649Y0813700D01*
X0813156Y0817193D01*
X0808217Y0817193D01*
X0804724Y0813700D01*
X0804724Y0808761D01*
X0807396Y0806089D01*
X0804924Y0803617D01*
X0804924Y0801230D01*
X0810686Y0801230D01*
X0810686Y0801230D01*
X0810686Y0801230D01*
X0816449Y0801230D01*
X0816449Y0803554D02*
X0838208Y0803554D01*
X0838208Y0805953D02*
X0814113Y0805953D01*
X0816239Y0808351D02*
X0838208Y0808351D01*
X0838208Y0810750D02*
X0816649Y0810750D01*
X0816649Y0813148D02*
X0838208Y0813148D01*
X0838208Y0815547D02*
X0814802Y0815547D01*
X0806571Y0815547D02*
X0743686Y0815547D01*
X0743686Y0813148D02*
X0804724Y0813148D01*
X0804724Y0810750D02*
X0743686Y0810750D01*
X0743686Y0808351D02*
X0805133Y0808351D01*
X0807260Y0805953D02*
X0743686Y0805953D01*
X0743686Y0803554D02*
X0804924Y0803554D01*
X0804924Y0801156D02*
X0743686Y0801156D01*
X0743686Y0798757D02*
X0805010Y0798757D01*
X0807383Y0796359D02*
X0743686Y0796359D01*
X0743686Y0793960D02*
X0804985Y0793960D01*
X0804724Y0791562D02*
X0743686Y0791562D01*
X0743686Y0789163D02*
X0804724Y0789163D01*
X0806720Y0786765D02*
X0743686Y0786765D01*
X0743686Y0784366D02*
X0805673Y0784366D01*
X0804924Y0781968D02*
X0743686Y0781968D01*
X0743686Y0779569D02*
X0804924Y0779569D01*
X0806597Y0777171D02*
X0743686Y0777171D01*
X0743686Y0760381D02*
X0806405Y0760381D01*
X0804724Y0757983D02*
X0743686Y0757983D01*
X0743686Y0755584D02*
X0804724Y0755584D01*
X0805299Y0753186D02*
X0743686Y0753186D01*
X0743686Y0750787D02*
X0807094Y0750787D01*
X0804924Y0748389D02*
X0743686Y0748389D01*
X0743686Y0745990D02*
X0804924Y0745990D01*
X0805176Y0743592D02*
X0743686Y0743592D01*
X0743686Y0741193D02*
X0807217Y0741193D01*
X0804819Y0738795D02*
X0743686Y0738795D01*
X0743686Y0736396D02*
X0804724Y0736396D01*
X0804724Y0733998D02*
X0743686Y0733998D01*
X0743686Y0731599D02*
X0806886Y0731599D01*
X0805508Y0729201D02*
X0743686Y0729201D01*
X0743686Y0726802D02*
X0804924Y0726802D01*
X0804924Y0724404D02*
X0743686Y0724404D01*
X0810686Y0777171D02*
X0810686Y0777171D01*
X0810686Y0779569D02*
X0810686Y0779569D01*
X0838208Y0817946D02*
X0743686Y0817946D01*
X0743686Y0820344D02*
X0838208Y0820344D01*
X0838208Y0822743D02*
X0743686Y0822743D01*
X0743686Y0825141D02*
X0838208Y0825141D01*
X0838208Y0827540D02*
X0743686Y0827540D01*
X0743686Y0829938D02*
X0838208Y0829938D01*
X0838208Y0832337D02*
X0814942Y0832337D01*
X0816449Y0833844D02*
X0816449Y0836230D01*
X0810686Y0836230D01*
X0810686Y0836230D01*
X0810686Y0830468D01*
X0808300Y0830468D01*
X0804924Y0833844D01*
X0804924Y0836230D01*
X0810686Y0836230D01*
X0810686Y0836230D01*
X0810686Y0830468D01*
X0813073Y0830468D01*
X0816449Y0833844D01*
X0816449Y0834735D02*
X0838208Y0834735D01*
X0838208Y0837134D02*
X0816449Y0837134D01*
X0816449Y0836230D02*
X0816449Y0838617D01*
X0813977Y0841089D01*
X0816649Y0843761D01*
X0816649Y0848700D01*
X0813977Y0851372D01*
X0816449Y0853844D01*
X0816449Y0856230D01*
X0810686Y0856230D01*
X0804924Y0856230D01*
X0804924Y0853844D01*
X0807396Y0851372D01*
X0804724Y0848700D01*
X0804724Y0843761D01*
X0807396Y0841089D01*
X0804924Y0838617D01*
X0804924Y0836230D01*
X0810686Y0836230D01*
X0810686Y0836230D01*
X0816449Y0836230D01*
X0815534Y0839532D02*
X0838208Y0839532D01*
X0838208Y0841931D02*
X0814818Y0841931D01*
X0816649Y0844329D02*
X0838208Y0844329D01*
X0838208Y0846728D02*
X0816649Y0846728D01*
X0816222Y0849126D02*
X0838208Y0849126D01*
X0838208Y0851525D02*
X0814130Y0851525D01*
X0816449Y0853923D02*
X0838208Y0853923D01*
X0838208Y0856322D02*
X0816449Y0856322D01*
X0816449Y0856230D02*
X0816449Y0858617D01*
X0813977Y0861089D01*
X0816649Y0863761D01*
X0816649Y0868700D01*
X0813156Y0872193D01*
X0808217Y0872193D01*
X0804724Y0868700D01*
X0804724Y0863761D01*
X0807396Y0861089D01*
X0804924Y0858617D01*
X0804924Y0856230D01*
X0810686Y0856230D01*
X0810686Y0856230D01*
X0810686Y0856230D01*
X0816449Y0856230D01*
X0816345Y0858720D02*
X0838208Y0858720D01*
X0838208Y0861119D02*
X0814006Y0861119D01*
X0816405Y0863517D02*
X0838208Y0863517D01*
X0838208Y0865916D02*
X0816649Y0865916D01*
X0816649Y0868314D02*
X0838208Y0868314D01*
X0838208Y0870713D02*
X0814636Y0870713D01*
X0806737Y0870713D02*
X0743686Y0870713D01*
X0743686Y0873111D02*
X0838208Y0873111D01*
X0838208Y0875510D02*
X0743686Y0875510D01*
X0743686Y0877908D02*
X0838208Y0877908D01*
X0838208Y0880307D02*
X0743686Y0880307D01*
X0743686Y0882705D02*
X0838208Y0882705D01*
X0838208Y0885104D02*
X0743686Y0885104D01*
X0743686Y0887502D02*
X0806265Y0887502D01*
X0804924Y0888844D02*
X0808300Y0885468D01*
X0810686Y0885468D01*
X0810686Y0891230D01*
X0810686Y0891230D01*
X0804924Y0891230D01*
X0804924Y0888844D01*
X0804924Y0889901D02*
X0743686Y0889901D01*
X0743686Y0892299D02*
X0804924Y0892299D01*
X0804924Y0891230D02*
X0810686Y0891230D01*
X0810686Y0891230D01*
X0810686Y0885468D01*
X0813073Y0885468D01*
X0816449Y0888844D01*
X0816449Y0891230D01*
X0810686Y0891230D01*
X0810686Y0891230D01*
X0816449Y0891230D01*
X0816449Y0893617D01*
X0813977Y0896089D01*
X0816649Y0898761D01*
X0816649Y0903700D01*
X0813977Y0906372D01*
X0816449Y0908844D01*
X0816449Y0911230D01*
X0810686Y0911230D01*
X0804924Y0911230D01*
X0804924Y0908844D01*
X0807396Y0906372D01*
X0804724Y0903700D01*
X0804724Y0898761D01*
X0807396Y0896089D01*
X0804924Y0893617D01*
X0804924Y0891230D01*
X0806005Y0894698D02*
X0743686Y0894698D01*
X0743686Y0897096D02*
X0806388Y0897096D01*
X0804724Y0899495D02*
X0743686Y0899495D01*
X0743686Y0901893D02*
X0804724Y0901893D01*
X0805316Y0904292D02*
X0743686Y0904292D01*
X0743686Y0906690D02*
X0807077Y0906690D01*
X0804924Y0909089D02*
X0743686Y0909089D01*
X0743686Y0911487D02*
X0804924Y0911487D01*
X0804924Y0911230D02*
X0810686Y0911230D01*
X0810686Y0911230D01*
X0810686Y0911230D01*
X0816449Y0911230D01*
X0816449Y0913617D01*
X0813977Y0916089D01*
X0816649Y0918761D01*
X0816649Y0923700D01*
X0813156Y0927193D01*
X0808217Y0927193D01*
X0804724Y0923700D01*
X0804724Y0918761D01*
X0807396Y0916089D01*
X0804924Y0913617D01*
X0804924Y0911230D01*
X0805193Y0913886D02*
X0743686Y0913886D01*
X0743686Y0916284D02*
X0807200Y0916284D01*
X0804802Y0918683D02*
X0743686Y0918683D01*
X0743686Y0921082D02*
X0804724Y0921082D01*
X0804724Y0923480D02*
X0743686Y0923480D01*
X0743686Y0925879D02*
X0806903Y0925879D01*
X0814470Y0925879D02*
X0838208Y0925879D01*
X0838208Y0928277D02*
X0743686Y0928277D01*
X0743686Y0930676D02*
X0838208Y0930676D01*
X0838208Y0933074D02*
X0743686Y0933074D01*
X0743686Y0935473D02*
X0838208Y0935473D01*
X0838208Y0937871D02*
X0743686Y0937871D01*
X0743686Y0940270D02*
X0838208Y0940270D01*
X0838208Y0942668D02*
X0815273Y0942668D01*
X0816449Y0943844D02*
X0816449Y0946230D01*
X0810686Y0946230D01*
X0810686Y0946230D01*
X0810686Y0940468D01*
X0808300Y0940468D01*
X0804924Y0943844D01*
X0804924Y0946230D01*
X0810686Y0946230D01*
X0810686Y0946230D01*
X0810686Y0940468D01*
X0813073Y0940468D01*
X0816449Y0943844D01*
X0816449Y0945067D02*
X0838208Y0945067D01*
X0838208Y0947465D02*
X0816449Y0947465D01*
X0816449Y0948617D02*
X0813977Y0951089D01*
X0816649Y0953761D01*
X0816649Y0958700D01*
X0813977Y0961372D01*
X0816449Y0963844D01*
X0816449Y0966230D01*
X0810686Y0966230D01*
X0804924Y0966230D01*
X0804924Y0963844D01*
X0807396Y0961372D01*
X0804724Y0958700D01*
X0804724Y0953761D01*
X0807396Y0951089D01*
X0804924Y0948617D01*
X0804924Y0946230D01*
X0810686Y0946230D01*
X0810686Y0946230D01*
X0816449Y0946230D01*
X0816449Y0948617D01*
X0815202Y0949864D02*
X0838208Y0949864D01*
X0838208Y0952262D02*
X0815150Y0952262D01*
X0816649Y0954661D02*
X0838208Y0954661D01*
X0838208Y0957059D02*
X0816649Y0957059D01*
X0815891Y0959458D02*
X0838208Y0959458D01*
X0838208Y0961856D02*
X0814461Y0961856D01*
X0816449Y0964255D02*
X0838208Y0964255D01*
X0838208Y0966653D02*
X0816449Y0966653D01*
X0816449Y0966230D02*
X0816449Y0968617D01*
X0813977Y0971089D01*
X0816649Y0973761D01*
X0816649Y0978700D01*
X0813156Y0982193D01*
X0808217Y0982193D01*
X0804724Y0978700D01*
X0804724Y0973761D01*
X0807396Y0971089D01*
X0804924Y0968617D01*
X0804924Y0966230D01*
X0810686Y0966230D01*
X0810686Y0966230D01*
X0810686Y0966230D01*
X0816449Y0966230D01*
X0816014Y0969052D02*
X0838208Y0969052D01*
X0838208Y0971450D02*
X0814338Y0971450D01*
X0816649Y0973849D02*
X0838208Y0973849D01*
X0838208Y0976247D02*
X0816649Y0976247D01*
X0816649Y0978646D02*
X0838208Y0978646D01*
X0838208Y0981044D02*
X0814304Y0981044D01*
X0807068Y0981044D02*
X0743686Y0981044D01*
X0743686Y0978646D02*
X0804724Y0978646D01*
X0804724Y0976247D02*
X0743686Y0976247D01*
X0743686Y0973849D02*
X0804724Y0973849D01*
X0807035Y0971450D02*
X0743686Y0971450D01*
X0743686Y0969052D02*
X0805359Y0969052D01*
X0804924Y0966653D02*
X0743686Y0966653D01*
X0743686Y0964255D02*
X0804924Y0964255D01*
X0806912Y0961856D02*
X0743686Y0961856D01*
X0743686Y0959458D02*
X0805482Y0959458D01*
X0804724Y0957059D02*
X0743686Y0957059D01*
X0743686Y0954661D02*
X0804724Y0954661D01*
X0806223Y0952262D02*
X0743686Y0952262D01*
X0743686Y0949864D02*
X0806171Y0949864D01*
X0804924Y0947465D02*
X0743686Y0947465D01*
X0743686Y0945067D02*
X0804924Y0945067D01*
X0806100Y0942668D02*
X0743686Y0942668D01*
X0743686Y0983443D02*
X0838208Y0983443D01*
X0838208Y0985841D02*
X0743686Y0985841D01*
X0743686Y0988240D02*
X0838208Y0988240D01*
X0838208Y0990638D02*
X0743686Y0990638D01*
X0743686Y0993037D02*
X0838208Y0993037D01*
X0838208Y0995435D02*
X0743686Y0995435D01*
X0743686Y0997834D02*
X0805934Y0997834D01*
X0804924Y0998844D02*
X0808300Y0995468D01*
X0810686Y0995468D01*
X0810686Y1001230D01*
X0810686Y1001230D01*
X0804924Y1001230D01*
X0804924Y0998844D01*
X0804924Y1000232D02*
X0743686Y1000232D01*
X0743686Y1002631D02*
X0804924Y1002631D01*
X0804924Y1003617D02*
X0804924Y1001230D01*
X0810686Y1001230D01*
X0810686Y1001230D01*
X0810686Y0995468D01*
X0813073Y0995468D01*
X0816449Y0998844D01*
X0816449Y1001230D01*
X0810686Y1001230D01*
X0810686Y1001230D01*
X0816449Y1001230D01*
X0816449Y1003617D01*
X0813977Y1006089D01*
X0816649Y1008761D01*
X0816649Y1013700D01*
X0813977Y1016372D01*
X0816449Y1018844D01*
X0816449Y1021230D01*
X0810686Y1021230D01*
X0804924Y1021230D01*
X0804924Y1018844D01*
X0807396Y1016372D01*
X0804724Y1013700D01*
X0804724Y1008761D01*
X0807396Y1006089D01*
X0804924Y1003617D01*
X0806336Y1005029D02*
X0743686Y1005029D01*
X0743686Y1007428D02*
X0806057Y1007428D01*
X0804724Y1009826D02*
X0743686Y1009826D01*
X0743686Y1012225D02*
X0804724Y1012225D01*
X0805648Y1014623D02*
X0743686Y1014623D01*
X0743686Y1017022D02*
X0806746Y1017022D01*
X0804924Y1019420D02*
X0743686Y1019420D01*
X0743686Y1021819D02*
X0804924Y1021819D01*
X0804924Y1021230D02*
X0810686Y1021230D01*
X0810686Y1021230D01*
X0810686Y1021230D01*
X0816449Y1021230D01*
X0816449Y1023617D01*
X0813977Y1026089D01*
X0816649Y1028761D01*
X0816649Y1033700D01*
X0813156Y1037193D01*
X0808217Y1037193D01*
X0804724Y1033700D01*
X0804724Y1028761D01*
X0807396Y1026089D01*
X0804924Y1023617D01*
X0804924Y1021230D01*
X0805524Y1024217D02*
X0743686Y1024217D01*
X0743686Y1026616D02*
X0806869Y1026616D01*
X0804724Y1029015D02*
X0743686Y1029015D01*
X0743686Y1031413D02*
X0804724Y1031413D01*
X0804836Y1033812D02*
X0743686Y1033812D01*
X0743686Y1036210D02*
X0807234Y1036210D01*
X0814138Y1036210D02*
X0838208Y1036210D01*
X0838208Y1033812D02*
X0816537Y1033812D01*
X0816649Y1031413D02*
X0838208Y1031413D01*
X0838208Y1029015D02*
X0816649Y1029015D01*
X0814504Y1026616D02*
X0838208Y1026616D01*
X0838208Y1024217D02*
X0815848Y1024217D01*
X0816449Y1021819D02*
X0838208Y1021819D01*
X0838208Y1019420D02*
X0816449Y1019420D01*
X0814627Y1017022D02*
X0838208Y1017022D01*
X0838208Y1014623D02*
X0815725Y1014623D01*
X0816649Y1012225D02*
X0838208Y1012225D01*
X0838208Y1009826D02*
X0816649Y1009826D01*
X0815316Y1007428D02*
X0838208Y1007428D01*
X0838208Y1005029D02*
X0815036Y1005029D01*
X0816449Y1002631D02*
X0838208Y1002631D01*
X0838208Y1000232D02*
X0816449Y1000232D01*
X0815439Y0997834D02*
X0838208Y0997834D01*
X0810686Y0997834D02*
X0810686Y0997834D01*
X0810686Y1000232D02*
X0810686Y1000232D01*
X0838208Y1038609D02*
X0743686Y1038609D01*
X0743686Y1041007D02*
X0838208Y1041007D01*
X0838208Y1043406D02*
X0743686Y1043406D01*
X0743686Y1045804D02*
X0838208Y1045804D01*
X0838208Y1048203D02*
X0743686Y1048203D01*
X0743686Y1050601D02*
X0808167Y1050601D01*
X0808300Y1050468D02*
X0810686Y1050468D01*
X0810686Y1056230D01*
X0810686Y1056230D01*
X0804924Y1056230D01*
X0804924Y1053844D01*
X0808300Y1050468D01*
X0810686Y1050468D02*
X0813073Y1050468D01*
X0816449Y1053844D01*
X0816449Y1056230D01*
X0810686Y1056230D01*
X0810686Y1056230D01*
X0810686Y1050468D01*
X0810686Y1050601D02*
X0810686Y1050601D01*
X0810686Y1053000D02*
X0810686Y1053000D01*
X0810686Y1055398D02*
X0810686Y1055398D01*
X0810686Y1056230D02*
X0810686Y1056230D01*
X0804924Y1056230D01*
X0804924Y1058617D01*
X0807396Y1061089D01*
X0804724Y1063761D01*
X0804724Y1068700D01*
X0807396Y1071372D01*
X0804924Y1073844D01*
X0804924Y1076230D01*
X0810686Y1076230D01*
X0810686Y1076230D01*
X0804924Y1076230D01*
X0804924Y1078617D01*
X0807396Y1081089D01*
X0804724Y1083761D01*
X0804724Y1088700D01*
X0808217Y1092193D01*
X0813156Y1092193D01*
X0816649Y1088700D01*
X0816649Y1083761D01*
X0813977Y1081089D01*
X0816449Y1078617D01*
X0816449Y1076230D01*
X0810686Y1076230D01*
X0810686Y1076230D01*
X0816449Y1076230D01*
X0816449Y1073844D01*
X0813977Y1071372D01*
X0816649Y1068700D01*
X0816649Y1063761D01*
X0813977Y1061089D01*
X0816449Y1058617D01*
X0816449Y1056230D01*
X0810686Y1056230D01*
X0806502Y1060195D02*
X0743686Y1060195D01*
X0743686Y1057797D02*
X0804924Y1057797D01*
X0804924Y1055398D02*
X0743686Y1055398D01*
X0743686Y1053000D02*
X0805768Y1053000D01*
X0813206Y1050601D02*
X0838208Y1050601D01*
X0838208Y1053000D02*
X0815605Y1053000D01*
X0816449Y1055398D02*
X0838208Y1055398D01*
X0838208Y1057797D02*
X0816449Y1057797D01*
X0814871Y1060195D02*
X0838208Y1060195D01*
X0838208Y1062594D02*
X0815481Y1062594D01*
X0816649Y1064992D02*
X0838208Y1064992D01*
X0838208Y1067391D02*
X0816649Y1067391D01*
X0815559Y1069789D02*
X0838208Y1069789D01*
X0838208Y1072188D02*
X0814793Y1072188D01*
X0816449Y1074586D02*
X0838208Y1074586D01*
X0838208Y1076985D02*
X0816449Y1076985D01*
X0815682Y1079383D02*
X0838208Y1079383D01*
X0838208Y1081782D02*
X0814670Y1081782D01*
X0816649Y1084180D02*
X0838208Y1084180D01*
X0838208Y1086579D02*
X0816649Y1086579D01*
X0816371Y1088977D02*
X0838208Y1088977D01*
X0838208Y1091376D02*
X0813973Y1091376D01*
X0807400Y1091376D02*
X0743686Y1091376D01*
X0743686Y1093774D02*
X0838208Y1093774D01*
X0838208Y1096173D02*
X0743686Y1096173D01*
X0743686Y1098571D02*
X0838208Y1098571D01*
X0838208Y1100970D02*
X0743686Y1100970D01*
X0743686Y1103368D02*
X0838208Y1103368D01*
X0838208Y1105767D02*
X0813372Y1105767D01*
X0813073Y1105468D02*
X0816449Y1108844D01*
X0816449Y1111230D01*
X0810686Y1111230D01*
X0810686Y1111230D01*
X0810686Y1105468D01*
X0808300Y1105468D01*
X0804924Y1108844D01*
X0804924Y1111230D01*
X0810686Y1111230D01*
X0810686Y1111230D01*
X0810686Y1105468D01*
X0813073Y1105468D01*
X0810686Y1105767D02*
X0810686Y1105767D01*
X0810686Y1108165D02*
X0810686Y1108165D01*
X0810686Y1110564D02*
X0810686Y1110564D01*
X0810686Y1111230D02*
X0810686Y1111230D01*
X0804924Y1111230D01*
X0804924Y1113617D01*
X0807396Y1116089D01*
X0804724Y1118761D01*
X0804724Y1123700D01*
X0807396Y1126372D01*
X0804924Y1128844D01*
X0804924Y1131230D01*
X0810686Y1131230D01*
X0810686Y1131230D01*
X0804924Y1131230D01*
X0804924Y1133617D01*
X0807396Y1136089D01*
X0804724Y1138761D01*
X0804724Y1143700D01*
X0808217Y1147193D01*
X0813156Y1147193D01*
X0816649Y1143700D01*
X0816649Y1138761D01*
X0813977Y1136089D01*
X0816449Y1133617D01*
X0816449Y1131230D01*
X0810686Y1131230D01*
X0810686Y1131230D01*
X0816449Y1131230D01*
X0816449Y1128844D01*
X0813977Y1126372D01*
X0816649Y1123700D01*
X0816649Y1118761D01*
X0813977Y1116089D01*
X0816449Y1113617D01*
X0816449Y1111230D01*
X0810686Y1111230D01*
X0806668Y1115361D02*
X0743686Y1115361D01*
X0743686Y1117759D02*
X0805725Y1117759D01*
X0804724Y1120158D02*
X0743686Y1120158D01*
X0743686Y1122556D02*
X0804724Y1122556D01*
X0805979Y1124955D02*
X0743686Y1124955D01*
X0743686Y1127353D02*
X0806414Y1127353D01*
X0804924Y1129752D02*
X0743686Y1129752D01*
X0743686Y1132151D02*
X0804924Y1132151D01*
X0805856Y1134549D02*
X0743686Y1134549D01*
X0743686Y1136948D02*
X0806537Y1136948D01*
X0804724Y1139346D02*
X0743686Y1139346D01*
X0743686Y1141745D02*
X0804724Y1141745D01*
X0805167Y1144143D02*
X0743686Y1144143D01*
X0743686Y1146542D02*
X0807566Y1146542D01*
X0813807Y1146542D02*
X0838208Y1146542D01*
X0838208Y1148940D02*
X0743686Y1148940D01*
X0743686Y1151339D02*
X0838208Y1151339D01*
X0838208Y1153737D02*
X0742422Y1153737D01*
X0743686Y1112962D02*
X0804924Y1112962D01*
X0804924Y1110564D02*
X0743686Y1110564D01*
X0743686Y1108165D02*
X0805602Y1108165D01*
X0808001Y1105767D02*
X0743686Y1105767D01*
X0743686Y1088977D02*
X0805001Y1088977D01*
X0804724Y1086579D02*
X0743686Y1086579D01*
X0743686Y1084180D02*
X0804724Y1084180D01*
X0806703Y1081782D02*
X0743686Y1081782D01*
X0743686Y1079383D02*
X0805690Y1079383D01*
X0804924Y1076985D02*
X0743686Y1076985D01*
X0743686Y1074586D02*
X0804924Y1074586D01*
X0806580Y1072188D02*
X0743686Y1072188D01*
X0743686Y1069789D02*
X0805813Y1069789D01*
X0804724Y1067391D02*
X0743686Y1067391D01*
X0743686Y1064992D02*
X0804724Y1064992D01*
X0805891Y1062594D02*
X0743686Y1062594D01*
X0679286Y1005029D02*
X0628505Y1005029D01*
X0630171Y1002631D02*
X0679286Y1002631D01*
X0679286Y1000232D02*
X0630338Y1000232D01*
X0628908Y0997834D02*
X0679286Y0997834D01*
X0679286Y0995435D02*
X0628886Y0995435D01*
X0628886Y0993037D02*
X0679286Y0993037D01*
X0679286Y0990638D02*
X0628886Y0990638D01*
X0628886Y0988240D02*
X0679286Y0988240D01*
X0679286Y0985841D02*
X0628886Y0985841D01*
X0628886Y0983443D02*
X0679286Y0983443D01*
X0679286Y0981044D02*
X0628886Y0981044D01*
X0629751Y0978646D02*
X0679286Y0978646D01*
X0679286Y0976247D02*
X0630366Y0976247D01*
X0629765Y0973849D02*
X0679286Y0973849D01*
X0679286Y0880307D02*
X0569529Y0880307D01*
X0571053Y0877908D02*
X0679286Y0877908D01*
X0679286Y0875510D02*
X0571286Y0875510D01*
X0570456Y0873111D02*
X0679286Y0873111D01*
X0679286Y0870713D02*
X0626579Y0870713D01*
X0624794Y0870713D02*
X0569124Y0870713D01*
X0570885Y0868314D02*
X0613669Y0868314D01*
X0611270Y0865916D02*
X0571286Y0865916D01*
X0570624Y0863517D02*
X0608872Y0863517D01*
X0606473Y0861119D02*
X0567979Y0861119D01*
X0563393Y0861119D02*
X0557979Y0861119D01*
X0560624Y0863517D02*
X0560749Y0863517D01*
X0553393Y0861119D02*
X0547979Y0861119D01*
X0550624Y0863517D02*
X0550749Y0863517D01*
X0543393Y0861119D02*
X0537979Y0861119D01*
X0540624Y0863517D02*
X0540749Y0863517D01*
X0533393Y0861119D02*
X0527979Y0861119D01*
X0530624Y0863517D02*
X0530749Y0863517D01*
X0523393Y0861119D02*
X0517979Y0861119D01*
X0520624Y0863517D02*
X0520749Y0863517D01*
X0513393Y0861119D02*
X0507979Y0861119D01*
X0510624Y0863517D02*
X0510749Y0863517D01*
X0503393Y0861119D02*
X0497979Y0861119D01*
X0500624Y0863517D02*
X0500749Y0863517D01*
X0493393Y0861119D02*
X0487979Y0861119D01*
X0490624Y0863517D02*
X0490749Y0863517D01*
X0483393Y0861119D02*
X0480369Y0861119D01*
X0553586Y0882705D02*
X0576716Y0882705D01*
X0575416Y0885104D02*
X0553586Y0885104D01*
X0553586Y0887502D02*
X0575386Y0887502D01*
X0575386Y0889901D02*
X0553586Y0889901D01*
X0553586Y0892299D02*
X0575386Y0892299D01*
X0574394Y0894698D02*
X0554904Y0894698D01*
X0555169Y0897096D02*
X0574286Y0897096D01*
X0561843Y0880307D02*
X0559529Y0880307D01*
X0597040Y0853923D02*
X0398586Y0853923D01*
X0398586Y0851525D02*
X0596204Y0851525D01*
X0596706Y0849126D02*
X0397683Y0849126D01*
X0395285Y0846728D02*
X0679286Y0846728D01*
X0679286Y0849126D02*
X0604667Y0849126D01*
X0605169Y0851525D02*
X0679286Y0851525D01*
X0679286Y0853923D02*
X0629583Y0853923D01*
X0630169Y0856322D02*
X0679286Y0856322D01*
X0679286Y0858720D02*
X0629507Y0858720D01*
X0629313Y0863517D02*
X0679286Y0863517D01*
X0679286Y0861119D02*
X0614676Y0861119D01*
X0611204Y0856322D02*
X0609879Y0856322D01*
X0611790Y0853923D02*
X0607480Y0853923D01*
X0630169Y0865916D02*
X0679286Y0865916D01*
X0679286Y0868314D02*
X0629675Y0868314D01*
X0679286Y0844329D02*
X0392886Y0844329D01*
X0390488Y0841931D02*
X0679286Y0841931D01*
X0679286Y0839532D02*
X0388089Y0839532D01*
X0385691Y0837134D02*
X0679286Y0837134D01*
X0679286Y0834735D02*
X0383292Y0834735D01*
X0380894Y0832337D02*
X0679286Y0832337D01*
X0679286Y0829938D02*
X0378495Y0829938D01*
X0376097Y0827540D02*
X0679286Y0827540D01*
X0679286Y0825141D02*
X0373698Y0825141D01*
X0371300Y0822743D02*
X0680204Y0822743D01*
X0682522Y0820344D02*
X0368901Y0820344D01*
X0298615Y0887502D02*
X0292757Y0887502D01*
X0295156Y0885104D02*
X0296217Y0885104D01*
X0281774Y0810750D02*
X0279316Y0810750D01*
X0386037Y0710013D02*
X0043086Y0710013D01*
X0043086Y0707614D02*
X0384724Y0707614D01*
X0384724Y0705215D02*
X0043086Y0705215D01*
X0043086Y0702817D02*
X0385668Y0702817D01*
X0388066Y0700418D02*
X0043086Y0700418D01*
X0043086Y0698020D02*
X0455465Y0698020D01*
X0454724Y0698761D02*
X0458217Y0695268D01*
X0463156Y0695268D01*
X0465828Y0697940D01*
X0468300Y0695468D01*
X0470686Y0695468D01*
X0470686Y0701230D01*
X0470686Y0701230D01*
X0470686Y0695468D01*
X0473073Y0695468D01*
X0476449Y0698844D01*
X0476449Y0701230D01*
X0470686Y0701230D01*
X0470686Y0701230D01*
X0470686Y0706993D01*
X0468300Y0706993D01*
X0465828Y0704521D01*
X0463156Y0707193D01*
X0458217Y0707193D01*
X0454724Y0703700D01*
X0454724Y0698761D01*
X0454724Y0700418D02*
X0403306Y0700418D01*
X0405705Y0702817D02*
X0405951Y0702817D01*
X0410686Y0702817D02*
X0410686Y0702817D01*
X0410686Y0705215D02*
X0410686Y0705215D01*
X0410686Y0707614D02*
X0410686Y0707614D01*
X0410686Y0710013D02*
X0410686Y0710013D01*
X0406320Y0710013D02*
X0405336Y0710013D01*
X0396037Y0710013D02*
X0395336Y0710013D01*
X0393306Y0700418D02*
X0398066Y0700418D01*
X0415422Y0702817D02*
X0415951Y0702817D01*
X0420686Y0702817D02*
X0420686Y0702817D01*
X0420686Y0705215D02*
X0420686Y0705215D01*
X0420686Y0707614D02*
X0420686Y0707614D01*
X0420686Y0710013D02*
X0420686Y0710013D01*
X0416319Y0710013D02*
X0415053Y0710013D01*
X0426449Y0705215D02*
X0456240Y0705215D01*
X0454724Y0702817D02*
X0425422Y0702817D01*
X0457863Y0695621D02*
X0043086Y0695621D01*
X0043086Y0693223D02*
X0838208Y0693223D01*
X0838208Y0695621D02*
X0568509Y0695621D01*
X0570908Y0698020D02*
X0838208Y0698020D01*
X0838208Y0700418D02*
X0571649Y0700418D01*
X0562863Y0695621D02*
X0558226Y0695621D01*
X0555686Y0695621D02*
X0555686Y0695621D01*
X0555686Y0698020D02*
X0555686Y0698020D01*
X0555686Y0700418D02*
X0555686Y0700418D01*
X0555686Y0701230D02*
X0555686Y0706993D01*
X0555686Y0701230D01*
X0555686Y0701230D01*
X0555686Y0702817D02*
X0555686Y0702817D01*
X0555686Y0705215D02*
X0555686Y0705215D01*
X0551522Y0705215D02*
X0529850Y0705215D01*
X0531449Y0703617D02*
X0528073Y0706993D01*
X0525686Y0706993D01*
X0523300Y0706993D01*
X0520828Y0704521D01*
X0518156Y0707193D01*
X0513217Y0707193D01*
X0509724Y0703700D01*
X0509724Y0698761D01*
X0513217Y0695268D01*
X0518156Y0695268D01*
X0520828Y0697940D01*
X0523300Y0695468D01*
X0525686Y0695468D01*
X0525686Y0701230D01*
X0525686Y0701230D01*
X0525686Y0695468D01*
X0528073Y0695468D01*
X0531449Y0698844D01*
X0531449Y0701230D01*
X0525686Y0701230D01*
X0525686Y0701230D01*
X0525686Y0706993D01*
X0525686Y0701230D01*
X0525686Y0701230D01*
X0531449Y0701230D01*
X0531449Y0703617D01*
X0531449Y0702817D02*
X0549924Y0702817D01*
X0549924Y0700418D02*
X0531449Y0700418D01*
X0530625Y0698020D02*
X0550748Y0698020D01*
X0553146Y0695621D02*
X0528226Y0695621D01*
X0525686Y0695621D02*
X0525686Y0695621D01*
X0525686Y0698020D02*
X0525686Y0698020D01*
X0525686Y0700418D02*
X0525686Y0700418D01*
X0525686Y0702817D02*
X0525686Y0702817D01*
X0525686Y0705215D02*
X0525686Y0705215D01*
X0521522Y0705215D02*
X0520133Y0705215D01*
X0511240Y0705215D02*
X0474850Y0705215D01*
X0476449Y0703617D02*
X0473073Y0706993D01*
X0470686Y0706993D01*
X0470686Y0701230D01*
X0470686Y0701230D01*
X0476449Y0701230D01*
X0476449Y0703617D01*
X0476449Y0702817D02*
X0509724Y0702817D01*
X0509724Y0700418D02*
X0476449Y0700418D01*
X0475625Y0698020D02*
X0510465Y0698020D01*
X0512863Y0695621D02*
X0473226Y0695621D01*
X0470686Y0695621D02*
X0470686Y0695621D01*
X0470686Y0698020D02*
X0470686Y0698020D01*
X0470686Y0700418D02*
X0470686Y0700418D01*
X0470686Y0702817D02*
X0470686Y0702817D01*
X0470686Y0705215D02*
X0470686Y0705215D01*
X0466522Y0705215D02*
X0465133Y0705215D01*
X0463509Y0695621D02*
X0468146Y0695621D01*
X0518509Y0695621D02*
X0523146Y0695621D01*
X0559850Y0705215D02*
X0561240Y0705215D01*
X0743686Y0832337D02*
X0806431Y0832337D01*
X0804924Y0834735D02*
X0743686Y0834735D01*
X0743686Y0837134D02*
X0804924Y0837134D01*
X0805839Y0839532D02*
X0743686Y0839532D01*
X0743686Y0841931D02*
X0806554Y0841931D01*
X0804724Y0844329D02*
X0743686Y0844329D01*
X0743686Y0846728D02*
X0804724Y0846728D01*
X0805150Y0849126D02*
X0743686Y0849126D01*
X0743686Y0851525D02*
X0807243Y0851525D01*
X0804924Y0853923D02*
X0743686Y0853923D01*
X0743686Y0856322D02*
X0804924Y0856322D01*
X0805027Y0858720D02*
X0743686Y0858720D01*
X0743686Y0861119D02*
X0807366Y0861119D01*
X0804968Y0863517D02*
X0743686Y0863517D01*
X0743686Y0865916D02*
X0804724Y0865916D01*
X0804724Y0868314D02*
X0743686Y0868314D01*
X0810686Y0887502D02*
X0810686Y0887502D01*
X0810686Y0889901D02*
X0810686Y0889901D01*
X0815107Y0887502D02*
X0838208Y0887502D01*
X0838208Y0889901D02*
X0816449Y0889901D01*
X0816449Y0892299D02*
X0838208Y0892299D01*
X0838208Y0894698D02*
X0815368Y0894698D01*
X0814984Y0897096D02*
X0838208Y0897096D01*
X0838208Y0899495D02*
X0816649Y0899495D01*
X0816649Y0901893D02*
X0838208Y0901893D01*
X0838208Y0904292D02*
X0816057Y0904292D01*
X0814295Y0906690D02*
X0838208Y0906690D01*
X0838208Y0909089D02*
X0816449Y0909089D01*
X0816449Y0911487D02*
X0838208Y0911487D01*
X0838208Y0913886D02*
X0816180Y0913886D01*
X0814172Y0916284D02*
X0838208Y0916284D01*
X0838208Y0918683D02*
X0816571Y0918683D01*
X0816649Y0921082D02*
X0838208Y0921082D01*
X0838208Y0923480D02*
X0816649Y0923480D01*
X0810686Y0942668D02*
X0810686Y0942668D01*
X0810686Y0945067D02*
X0810686Y0945067D01*
X0810686Y0834735D02*
X0810686Y0834735D01*
X0810686Y0832337D02*
X0810686Y0832337D01*
X0838208Y0690824D02*
X0043086Y0690824D01*
X0043086Y0688426D02*
X0838208Y0688426D01*
X0838208Y0686027D02*
X0043086Y0686027D01*
X0064952Y0904292D02*
X0067766Y0904292D01*
X0043086Y0983443D02*
X0119913Y0983443D01*
X0118901Y0985841D02*
X0043086Y0985841D01*
X0043086Y0988240D02*
X0119380Y0988240D01*
X0159982Y0997834D02*
X0043086Y0997834D01*
X0043086Y0995435D02*
X0162380Y0995435D01*
X0164779Y0993037D02*
X0043086Y0993037D01*
X0043086Y0990638D02*
X0166401Y0990638D01*
X0183077Y0952262D02*
X0235129Y0952262D01*
X0239383Y0957059D02*
X0253793Y0957059D01*
X0248784Y0954661D02*
X0241782Y0954661D01*
X0244180Y0952262D02*
X0245319Y0952262D01*
X0236957Y1160933D02*
X0234133Y1160933D01*
X0289133Y1160933D02*
X0291957Y1160933D01*
X0349133Y1160933D02*
X0351957Y1160933D01*
X0470622Y1050601D02*
X0043086Y1050601D01*
X0043086Y1048203D02*
X0470286Y1048203D01*
X0470286Y1046230D02*
X0475686Y1046230D01*
X0470286Y1046230D01*
X0470286Y1045804D02*
X0043086Y1045804D01*
X0043086Y1043406D02*
X0470286Y1043406D01*
X0470669Y1041007D02*
X0043086Y1041007D01*
X0043086Y1038609D02*
X0470086Y1038609D01*
X0470086Y1036210D02*
X0043086Y1036210D01*
X0043086Y1033812D02*
X0470086Y1033812D01*
X0475686Y1046230D02*
X0475686Y1046230D01*
X0475686Y1051630D01*
X0475686Y1046230D01*
X0475686Y1046230D01*
X0475686Y1048203D02*
X0475686Y1048203D01*
X0475686Y1050601D02*
X0475686Y1050601D01*
X0480751Y1050601D02*
X0482137Y1050601D01*
X0489235Y1050601D02*
X0492137Y1050601D01*
X0499235Y1050601D02*
X0502137Y1050601D01*
X0509235Y1050601D02*
X0512137Y1050601D01*
X0519235Y1050601D02*
X0522137Y1050601D01*
X0529235Y1050601D02*
X0532137Y1050601D01*
X0539235Y1050601D02*
X0542137Y1050601D01*
X0549235Y1050601D02*
X0552137Y1050601D01*
X0559235Y1050601D02*
X0562137Y1050601D01*
X0815770Y1108165D02*
X0838208Y1108165D01*
X0838208Y1110564D02*
X0816449Y1110564D01*
X0816449Y1112962D02*
X0838208Y1112962D01*
X0838208Y1115361D02*
X0814705Y1115361D01*
X0815647Y1117759D02*
X0838208Y1117759D01*
X0838208Y1120158D02*
X0816649Y1120158D01*
X0816649Y1122556D02*
X0838208Y1122556D01*
X0838208Y1124955D02*
X0815394Y1124955D01*
X0814958Y1127353D02*
X0838208Y1127353D01*
X0838208Y1129752D02*
X0816449Y1129752D01*
X0816449Y1132151D02*
X0838208Y1132151D01*
X0838208Y1134549D02*
X0815517Y1134549D01*
X0814835Y1136948D02*
X0838208Y1136948D01*
X0838208Y1139346D02*
X0816649Y1139346D01*
X0816649Y1141745D02*
X0838208Y1141745D01*
X0838208Y1144143D02*
X0816205Y1144143D01*
D17*
X0565686Y0841230D03*
X0520686Y0826230D03*
X0515686Y0811230D03*
X0525686Y0806230D03*
X0503186Y0813730D03*
X0480686Y0836230D03*
X0460686Y0836230D03*
X0460686Y0846230D03*
X0460686Y0856230D03*
X0460686Y0821230D03*
X0500686Y0846230D03*
X0515686Y0846230D03*
X0245686Y0856230D03*
X0213186Y0766230D03*
X0213186Y0761230D03*
X0213186Y0756230D03*
X0213186Y0751230D03*
X0208186Y0751230D03*
X0208186Y0746230D03*
X0208186Y0756230D03*
X0193186Y0756230D03*
X0193186Y0751230D03*
X0188186Y0756230D03*
X0183186Y0756230D03*
X0178186Y0731230D03*
X0178186Y0726230D03*
X0173186Y0726230D03*
X0193186Y0726230D03*
X0198186Y0726230D03*
X0203186Y0726230D03*
X0208186Y0726230D03*
X0213186Y0726230D03*
X0193186Y0731230D03*
X0138186Y0831230D03*
X0133186Y0831230D03*
X0128186Y0831230D03*
X0123186Y0831230D03*
X0118186Y0831230D03*
X0118186Y0836230D03*
X0110686Y0848730D03*
X0118186Y0856230D03*
X0118186Y0861230D03*
X0113186Y0861230D03*
X0108186Y0861230D03*
X0103186Y0836230D03*
X0103186Y0831230D03*
X0098186Y0831230D03*
X0133186Y0851230D03*
X0133186Y0856230D03*
X0138186Y0856230D03*
X0138186Y0861230D03*
X0133186Y0861230D03*
X0138186Y0866230D03*
X0143186Y0866230D03*
X0123186Y0986230D03*
X0125686Y1006230D03*
X0170686Y0991230D03*
X0170686Y0986230D03*
D18*
X0245686Y0836230D03*
D19*
X0255686Y0801230D03*
X0250686Y0791230D03*
X0275686Y0776230D03*
X0280686Y0771230D03*
X0315686Y0771230D03*
X0320686Y0686230D03*
X0213186Y0733730D03*
X0208186Y0733730D03*
X0208186Y0738730D03*
X0213186Y0738730D03*
X0163186Y0738730D03*
X0163186Y0733730D03*
X0158186Y0733730D03*
X0158186Y0738730D03*
X0133186Y0838730D03*
X0088186Y0838730D03*
X0083186Y0838730D03*
X0083186Y0843730D03*
X0088186Y0843730D03*
X0180686Y0966230D03*
X0150686Y0971230D03*
X0145686Y1006230D03*
X0265686Y0876230D03*
X0438186Y0883730D03*
X0450686Y0861230D03*
X0550686Y0896230D03*
X0600686Y0851230D03*
X0615686Y0856230D03*
X0625686Y0856230D03*
X0625686Y0866230D03*
X0650686Y0866230D03*
X0650686Y0871230D03*
X0650686Y0876230D03*
X0675686Y0836230D03*
X0790686Y0926230D03*
X0685686Y1091230D03*
D20*
X0470686Y0731230D03*
X0340686Y0686230D03*
X0300686Y0706230D03*
X0290686Y0706230D03*
D21*
X0285686Y0776230D03*
X0330686Y0816230D03*
X0338186Y0808730D03*
X0345686Y0801230D03*
X0350686Y0796230D03*
X0365686Y0811230D03*
X0345686Y0831230D03*
X0360686Y0866230D03*
X0385686Y0881230D03*
X0395686Y0881230D03*
X0310686Y0886230D03*
X0285686Y0886230D03*
X0280686Y0866230D03*
X0265686Y0866230D03*
X0260686Y0886230D03*
X0190686Y0871230D03*
X0185686Y0866230D03*
X0180686Y0956230D03*
X0260686Y0996230D03*
D22*
X0295686Y0886230D03*
X0295686Y0876230D03*
X0295686Y0866230D03*
D23*
X0294000Y0862159D02*
X0289928Y0866230D01*
X0280686Y0866230D01*
X0265686Y0866230D01*
X0195686Y0866230D01*
X0190686Y0871230D01*
X0260686Y0886230D02*
X0285686Y0886230D01*
X0289928Y0886230D01*
X0294000Y0882159D01*
X0297373Y0882159D01*
X0301445Y0886230D01*
X0310686Y0886230D01*
X0301445Y0866230D02*
X0297373Y0862159D01*
X0294000Y0862159D01*
X0301445Y0866230D02*
X0360686Y0866230D01*
X0385686Y0856230D02*
X0385686Y0881230D01*
X0395686Y0881230D02*
X0395686Y0851230D01*
X0345686Y0801230D01*
X0350686Y0796230D02*
X0365686Y0811230D01*
X0338186Y0808730D02*
X0385686Y0856230D01*
X0345686Y0831230D02*
X0330686Y0816230D01*
X0438186Y0873730D02*
X0450686Y0861230D01*
X0438186Y0873730D02*
X0438186Y0883730D01*
X0550686Y0871230D02*
X0555686Y0866230D01*
X0550686Y0871230D02*
X0550686Y0896230D01*
X0600686Y0851230D02*
X0615686Y0866230D01*
X0625686Y0866230D01*
X0625686Y0856230D02*
X0615686Y0856230D01*
X0805686Y0746230D02*
X0810686Y0746230D01*
X0815686Y0746230D01*
X0208186Y0746230D02*
X0140686Y0746230D01*
X0200686Y0971230D02*
X0185686Y0986230D01*
X0170686Y0986230D01*
X0123186Y0986230D01*
X0125686Y1006230D02*
X0140902Y1006230D01*
X0144285Y1002848D01*
X0159069Y1002848D01*
X0170686Y0991230D01*
X0185686Y0991230D01*
X0200686Y0976230D01*
D24*
X0138186Y0843730D03*
X0138186Y0838730D03*
D25*
X0138186Y0843730D01*
X0133186Y0838730D01*
X0138186Y0843730D02*
X0115142Y0843730D01*
X0113456Y0842045D01*
X0107917Y0842045D01*
X0106231Y0843730D01*
X0088186Y0843730D01*
X0063186Y0843730D01*
X0055686Y0851230D01*
X0054552Y0852365D02*
X0054552Y0787365D01*
X0075686Y0766230D01*
X0080686Y0761230D01*
X0105686Y0736230D01*
X0135686Y0736230D01*
X0160686Y0736230D01*
X0158186Y0738730D01*
X0213186Y0738730D01*
X0213186Y0733730D02*
X0200142Y0733730D01*
X0195956Y0737916D01*
X0175417Y0737916D01*
X0171231Y0733730D01*
X0158186Y0733730D01*
X0160686Y0736230D02*
X0165686Y0736230D01*
X0088186Y0838730D02*
X0083186Y0843730D01*
X0088186Y0843730D02*
X0083186Y0838730D01*
X0580686Y0896230D02*
X0585686Y0891230D01*
X0680686Y0891230D01*
X0685686Y0886230D01*
X0685686Y0826230D01*
X0705686Y0806230D01*
X0705686Y0751230D01*
X0720686Y0736230D01*
X0720686Y0731230D01*
X0720686Y0786230D02*
X0720686Y0806230D01*
X0695686Y0831230D01*
X0695686Y0891230D01*
X0685686Y0901230D01*
X0580686Y0901230D01*
X0580686Y0918880D01*
X0583036Y0921230D02*
X0593036Y0911230D01*
X0690686Y0911230D01*
X0705686Y0896230D01*
X0705686Y0856230D01*
X0720686Y0841230D01*
X0720686Y0896230D02*
X0710686Y0906230D01*
X0710686Y0916230D01*
X0705686Y0921230D01*
X0583036Y0921230D01*
X0580686Y0933580D02*
X0635686Y0956230D01*
X0640686Y0961230D01*
X0680686Y0961230D01*
X0685686Y0966230D01*
X0685686Y1076230D01*
X0720686Y1111230D01*
X0720686Y1116230D01*
X0720686Y1061230D02*
X0720686Y1056230D01*
X0695686Y1031230D01*
X0695686Y0961230D01*
X0685686Y0951230D01*
X0590686Y0951230D01*
X0585686Y0946230D01*
X0640686Y0951230D01*
X0620686Y0931230D02*
X0705686Y0931230D01*
X0710686Y0936230D01*
X0710686Y0946230D01*
X0715686Y0951230D01*
X0720686Y0951230D01*
X0705686Y0956230D02*
X0690686Y0941230D01*
X0585686Y0941230D01*
X0705686Y0956230D02*
X0705686Y0991230D01*
X0720686Y1006230D01*
D26*
X0075686Y0945980D02*
X0067321Y0937615D01*
X0066932Y0937615D01*
X0054552Y0925235D01*
X0054552Y0881230D01*
X0054552Y0866230D01*
X0054552Y0852365D01*
X0055686Y0851230D01*
D27*
X0200686Y0971230D03*
X0200686Y0976230D03*
D28*
X0580686Y0966230D02*
X0580686Y0886230D01*
X0680686Y0886230D01*
X0680686Y0966230D01*
X0580686Y0966230D01*
X0580686Y0966146D02*
X0680686Y0966146D01*
X0680686Y0961147D02*
X0580686Y0961147D01*
X0580686Y0956148D02*
X0680686Y0956148D01*
X0680686Y0951150D02*
X0580686Y0951150D01*
X0580686Y0946151D02*
X0680686Y0946151D01*
X0680686Y0941153D02*
X0580686Y0941153D01*
X0580686Y0936154D02*
X0680686Y0936154D01*
X0680686Y0931156D02*
X0580686Y0931156D01*
X0580686Y0926157D02*
X0680686Y0926157D01*
X0680686Y0921159D02*
X0580686Y0921159D01*
X0580686Y0916160D02*
X0680686Y0916160D01*
X0680686Y0911162D02*
X0580686Y0911162D01*
X0580686Y0906163D02*
X0680686Y0906163D01*
X0680686Y0901165D02*
X0580686Y0901165D01*
X0580686Y0896166D02*
X0680686Y0896166D01*
X0680686Y0891168D02*
X0580686Y0891168D01*
D29*
X0715686Y0891074D02*
X0735686Y0891074D01*
X0735686Y0889076D02*
X0715686Y0889076D01*
X0715686Y0887077D02*
X0735686Y0887077D01*
X0735686Y0886230D02*
X0715686Y0886230D01*
X0715686Y0906230D01*
X0735686Y0906230D01*
X0735686Y0886230D01*
X0735686Y0893073D02*
X0715686Y0893073D01*
X0715686Y0895071D02*
X0735686Y0895071D01*
X0735686Y0897070D02*
X0715686Y0897070D01*
X0715686Y0899068D02*
X0735686Y0899068D01*
X0735686Y0901067D02*
X0715686Y0901067D01*
X0715686Y0903065D02*
X0735686Y0903065D01*
X0735686Y0905064D02*
X0715686Y0905064D01*
X0715686Y0941230D02*
X0715686Y0961230D01*
X0735686Y0961230D01*
X0735686Y0941230D01*
X0715686Y0941230D01*
X0715686Y0943035D02*
X0735686Y0943035D01*
X0735686Y0945034D02*
X0715686Y0945034D01*
X0715686Y0947032D02*
X0735686Y0947032D01*
X0735686Y0949031D02*
X0715686Y0949031D01*
X0715686Y0951029D02*
X0735686Y0951029D01*
X0735686Y0953028D02*
X0715686Y0953028D01*
X0715686Y0955026D02*
X0735686Y0955026D01*
X0735686Y0957025D02*
X0715686Y0957025D01*
X0715686Y0959023D02*
X0735686Y0959023D01*
X0735686Y0961022D02*
X0715686Y0961022D01*
X0715686Y0996230D02*
X0715686Y1016230D01*
X0735686Y1016230D01*
X0735686Y0996230D01*
X0715686Y0996230D01*
X0715686Y0996995D02*
X0735686Y0996995D01*
X0735686Y0998994D02*
X0715686Y0998994D01*
X0715686Y1000992D02*
X0735686Y1000992D01*
X0735686Y1002991D02*
X0715686Y1002991D01*
X0715686Y1004989D02*
X0735686Y1004989D01*
X0735686Y1006988D02*
X0715686Y1006988D01*
X0715686Y1008986D02*
X0735686Y1008986D01*
X0735686Y1010985D02*
X0715686Y1010985D01*
X0715686Y1012983D02*
X0735686Y1012983D01*
X0735686Y1014982D02*
X0715686Y1014982D01*
X0715686Y1051230D02*
X0715686Y1071230D01*
X0735686Y1071230D01*
X0735686Y1051230D01*
X0715686Y1051230D01*
X0715686Y1052953D02*
X0735686Y1052953D01*
X0735686Y1054952D02*
X0715686Y1054952D01*
X0715686Y1056951D02*
X0735686Y1056951D01*
X0735686Y1058949D02*
X0715686Y1058949D01*
X0715686Y1060948D02*
X0735686Y1060948D01*
X0735686Y1062946D02*
X0715686Y1062946D01*
X0715686Y1064945D02*
X0735686Y1064945D01*
X0735686Y1066943D02*
X0715686Y1066943D01*
X0715686Y1068942D02*
X0735686Y1068942D01*
X0735686Y1070940D02*
X0715686Y1070940D01*
X0715686Y1106230D02*
X0715686Y1126230D01*
X0735686Y1126230D01*
X0735686Y1106230D01*
X0715686Y1106230D01*
X0715686Y1106913D02*
X0735686Y1106913D01*
X0735686Y1108912D02*
X0715686Y1108912D01*
X0715686Y1110910D02*
X0735686Y1110910D01*
X0735686Y1112909D02*
X0715686Y1112909D01*
X0715686Y1114907D02*
X0735686Y1114907D01*
X0735686Y1116906D02*
X0715686Y1116906D01*
X0715686Y1118904D02*
X0735686Y1118904D01*
X0735686Y1120903D02*
X0715686Y1120903D01*
X0715686Y1122901D02*
X0735686Y1122901D01*
X0735686Y1124900D02*
X0715686Y1124900D01*
X0715686Y0851230D02*
X0735686Y0851230D01*
X0735686Y0831230D01*
X0715686Y0831230D01*
X0715686Y0851230D01*
X0715686Y0851104D02*
X0735686Y0851104D01*
X0735686Y0849105D02*
X0715686Y0849105D01*
X0715686Y0847107D02*
X0735686Y0847107D01*
X0735686Y0845108D02*
X0715686Y0845108D01*
X0715686Y0843110D02*
X0735686Y0843110D01*
X0735686Y0841111D02*
X0715686Y0841111D01*
X0715686Y0839113D02*
X0735686Y0839113D01*
X0735686Y0837114D02*
X0715686Y0837114D01*
X0715686Y0835116D02*
X0735686Y0835116D01*
X0735686Y0833117D02*
X0715686Y0833117D01*
X0715686Y0796230D02*
X0735686Y0796230D01*
X0735686Y0776230D01*
X0715686Y0776230D01*
X0715686Y0796230D01*
X0715686Y0795146D02*
X0735686Y0795146D01*
X0735686Y0793147D02*
X0715686Y0793147D01*
X0715686Y0791148D02*
X0735686Y0791148D01*
X0735686Y0789150D02*
X0715686Y0789150D01*
X0715686Y0787151D02*
X0735686Y0787151D01*
X0735686Y0785153D02*
X0715686Y0785153D01*
X0715686Y0783154D02*
X0735686Y0783154D01*
X0735686Y0781156D02*
X0715686Y0781156D01*
X0715686Y0779157D02*
X0735686Y0779157D01*
X0735686Y0777159D02*
X0715686Y0777159D01*
X0715686Y0741230D02*
X0735686Y0741230D01*
X0735686Y0721230D01*
X0715686Y0721230D01*
X0715686Y0741230D01*
X0715686Y0741186D02*
X0735686Y0741186D01*
X0735686Y0739187D02*
X0715686Y0739187D01*
X0715686Y0737189D02*
X0735686Y0737189D01*
X0735686Y0735190D02*
X0715686Y0735190D01*
X0715686Y0733192D02*
X0735686Y0733192D01*
X0735686Y0731193D02*
X0715686Y0731193D01*
X0715686Y0729195D02*
X0735686Y0729195D01*
X0735686Y0727196D02*
X0715686Y0727196D01*
X0715686Y0725198D02*
X0735686Y0725198D01*
X0735686Y0723199D02*
X0715686Y0723199D01*
D30*
X0580686Y0931230D02*
X0263036Y0931230D01*
D31*
X0248036Y0946230D01*
X0245686Y0946230D01*
X0235686Y0956230D01*
X0180686Y0956230D01*
X0140686Y0746230D02*
X0135686Y0746230D01*
X0625686Y0976230D02*
X0625686Y1001230D01*
D32*
X0715686Y0993028D02*
X0715686Y0964030D01*
X0736243Y0964030D01*
X0737272Y0963604D01*
X0738060Y0962816D01*
X0738486Y0961787D01*
X0738486Y0940673D01*
X0738060Y0939644D01*
X0737272Y0938857D01*
X0736243Y0938430D01*
X0716486Y0938430D01*
X0716486Y0935077D01*
X0715686Y0933145D01*
X0715686Y0919315D01*
X0716486Y0917384D01*
X0716486Y0909030D01*
X0736243Y0909030D01*
X0737272Y0908604D01*
X0738060Y0907816D01*
X0738486Y0906787D01*
X0738486Y0885673D01*
X0738060Y0884644D01*
X0737272Y0883857D01*
X0736243Y0883430D01*
X0715686Y0883430D01*
X0715686Y0854433D01*
X0716089Y0854030D01*
X0736243Y0854030D01*
X0737272Y0853604D01*
X0738060Y0852816D01*
X0738486Y0851787D01*
X0738486Y0830673D01*
X0738060Y0829644D01*
X0737272Y0828857D01*
X0736243Y0828430D01*
X0715686Y0828430D01*
X0715686Y0819433D01*
X0725603Y0809516D01*
X0726486Y0807384D01*
X0726486Y0799030D01*
X0736243Y0799030D01*
X0737272Y0798604D01*
X0738060Y0797816D01*
X0738486Y0796787D01*
X0738486Y0775673D01*
X0738060Y0774644D01*
X0737272Y0773857D01*
X0736243Y0773430D01*
X0715686Y0773430D01*
X0715686Y0749433D01*
X0721089Y0744030D01*
X0736243Y0744030D01*
X0737272Y0743604D01*
X0738060Y0742816D01*
X0738486Y0741787D01*
X0738486Y0720673D01*
X0738060Y0719644D01*
X0737272Y0718857D01*
X0736243Y0718430D01*
X0715686Y0718430D01*
X0715686Y0703730D01*
X0740686Y0703730D01*
X0740686Y1151230D01*
X0715686Y1151230D01*
X0715686Y1129030D01*
X0736243Y1129030D01*
X0737272Y1128604D01*
X0738060Y1127816D01*
X0738486Y1126787D01*
X0738486Y1105673D01*
X0738060Y1104644D01*
X0737272Y1103857D01*
X0736243Y1103430D01*
X0721089Y1103430D01*
X0715686Y1098028D01*
X0715686Y1074030D01*
X0736243Y1074030D01*
X0737272Y1073604D01*
X0738060Y1072816D01*
X0738486Y1071787D01*
X0738486Y1050673D01*
X0738060Y1049644D01*
X0737272Y1048857D01*
X0736243Y1048430D01*
X0721089Y1048430D01*
X0715686Y1043028D01*
X0715686Y1019030D01*
X0736243Y1019030D01*
X0737272Y1018604D01*
X0738060Y1017816D01*
X0738486Y1016787D01*
X0738486Y0995673D01*
X0738060Y0994644D01*
X0737272Y0993857D01*
X0736243Y0993430D01*
X0716089Y0993430D01*
X0715686Y0993028D01*
X0715686Y0992843D02*
X0740686Y0992843D01*
X0740686Y0991645D02*
X0715686Y0991645D01*
X0715686Y0990446D02*
X0740686Y0990446D01*
X0740686Y0989248D02*
X0715686Y0989248D01*
X0715686Y0988049D02*
X0740686Y0988049D01*
X0740686Y0986851D02*
X0715686Y0986851D01*
X0715686Y0985652D02*
X0740686Y0985652D01*
X0740686Y0984454D02*
X0715686Y0984454D01*
X0715686Y0983255D02*
X0740686Y0983255D01*
X0740686Y0982057D02*
X0715686Y0982057D01*
X0715686Y0980858D02*
X0740686Y0980858D01*
X0740686Y0979660D02*
X0715686Y0979660D01*
X0715686Y0978461D02*
X0740686Y0978461D01*
X0740686Y0977263D02*
X0715686Y0977263D01*
X0715686Y0976064D02*
X0740686Y0976064D01*
X0740686Y0974866D02*
X0715686Y0974866D01*
X0715686Y0973667D02*
X0740686Y0973667D01*
X0740686Y0972469D02*
X0715686Y0972469D01*
X0715686Y0971270D02*
X0740686Y0971270D01*
X0740686Y0970072D02*
X0715686Y0970072D01*
X0715686Y0968873D02*
X0740686Y0968873D01*
X0740686Y0967675D02*
X0715686Y0967675D01*
X0715686Y0966476D02*
X0740686Y0966476D01*
X0740686Y0965278D02*
X0715686Y0965278D01*
X0715686Y0964079D02*
X0740686Y0964079D01*
X0740686Y0962881D02*
X0737996Y0962881D01*
X0738486Y0961682D02*
X0740686Y0961682D01*
X0740686Y0960484D02*
X0738486Y0960484D01*
X0738486Y0959285D02*
X0740686Y0959285D01*
X0740686Y0958086D02*
X0738486Y0958086D01*
X0738486Y0956888D02*
X0740686Y0956888D01*
X0740686Y0955689D02*
X0738486Y0955689D01*
X0738486Y0954491D02*
X0740686Y0954491D01*
X0740686Y0953292D02*
X0738486Y0953292D01*
X0738486Y0952094D02*
X0740686Y0952094D01*
X0740686Y0950895D02*
X0738486Y0950895D01*
X0738486Y0949697D02*
X0740686Y0949697D01*
X0740686Y0948498D02*
X0738486Y0948498D01*
X0738486Y0947300D02*
X0740686Y0947300D01*
X0740686Y0946101D02*
X0738486Y0946101D01*
X0738486Y0944903D02*
X0740686Y0944903D01*
X0740686Y0943704D02*
X0738486Y0943704D01*
X0738486Y0942506D02*
X0740686Y0942506D01*
X0740686Y0941307D02*
X0738486Y0941307D01*
X0738252Y0940109D02*
X0740686Y0940109D01*
X0740686Y0938910D02*
X0737326Y0938910D01*
X0740686Y0937712D02*
X0716486Y0937712D01*
X0716486Y0936513D02*
X0740686Y0936513D01*
X0740686Y0935315D02*
X0716486Y0935315D01*
X0716088Y0934116D02*
X0740686Y0934116D01*
X0740686Y0932918D02*
X0715686Y0932918D01*
X0715686Y0931719D02*
X0740686Y0931719D01*
X0740686Y0930521D02*
X0715686Y0930521D01*
X0715686Y0929322D02*
X0740686Y0929322D01*
X0740686Y0928124D02*
X0715686Y0928124D01*
X0715686Y0926925D02*
X0740686Y0926925D01*
X0740686Y0925727D02*
X0715686Y0925727D01*
X0715686Y0924528D02*
X0740686Y0924528D01*
X0740686Y0923330D02*
X0715686Y0923330D01*
X0715686Y0922131D02*
X0740686Y0922131D01*
X0740686Y0920933D02*
X0715686Y0920933D01*
X0715686Y0919734D02*
X0740686Y0919734D01*
X0740686Y0918536D02*
X0716009Y0918536D01*
X0716486Y0917337D02*
X0740686Y0917337D01*
X0740686Y0916139D02*
X0716486Y0916139D01*
X0716486Y0914940D02*
X0740686Y0914940D01*
X0740686Y0913742D02*
X0716486Y0913742D01*
X0716486Y0912543D02*
X0740686Y0912543D01*
X0740686Y0911345D02*
X0716486Y0911345D01*
X0716486Y0910146D02*
X0740686Y0910146D01*
X0740686Y0908948D02*
X0736443Y0908948D01*
X0738088Y0907749D02*
X0740686Y0907749D01*
X0740686Y0906551D02*
X0738486Y0906551D01*
X0738486Y0905352D02*
X0740686Y0905352D01*
X0740686Y0904153D02*
X0738486Y0904153D01*
X0738486Y0902955D02*
X0740686Y0902955D01*
X0740686Y0901756D02*
X0738486Y0901756D01*
X0738486Y0900558D02*
X0740686Y0900558D01*
X0740686Y0899359D02*
X0738486Y0899359D01*
X0738486Y0898161D02*
X0740686Y0898161D01*
X0740686Y0896962D02*
X0738486Y0896962D01*
X0738486Y0895764D02*
X0740686Y0895764D01*
X0740686Y0894565D02*
X0738486Y0894565D01*
X0738486Y0893367D02*
X0740686Y0893367D01*
X0740686Y0892168D02*
X0738486Y0892168D01*
X0738486Y0890970D02*
X0740686Y0890970D01*
X0740686Y0889771D02*
X0738486Y0889771D01*
X0738486Y0888573D02*
X0740686Y0888573D01*
X0740686Y0887374D02*
X0738486Y0887374D01*
X0738486Y0886176D02*
X0740686Y0886176D01*
X0740686Y0884977D02*
X0738198Y0884977D01*
X0737084Y0883779D02*
X0740686Y0883779D01*
X0740686Y0882580D02*
X0715686Y0882580D01*
X0715686Y0881382D02*
X0740686Y0881382D01*
X0740686Y0880183D02*
X0715686Y0880183D01*
X0715686Y0878985D02*
X0740686Y0878985D01*
X0740686Y0877786D02*
X0715686Y0877786D01*
X0715686Y0876588D02*
X0740686Y0876588D01*
X0740686Y0875389D02*
X0715686Y0875389D01*
X0715686Y0874191D02*
X0740686Y0874191D01*
X0740686Y0872992D02*
X0715686Y0872992D01*
X0715686Y0871794D02*
X0740686Y0871794D01*
X0740686Y0870595D02*
X0715686Y0870595D01*
X0715686Y0869397D02*
X0740686Y0869397D01*
X0740686Y0868198D02*
X0715686Y0868198D01*
X0715686Y0867000D02*
X0740686Y0867000D01*
X0740686Y0865801D02*
X0715686Y0865801D01*
X0715686Y0864603D02*
X0740686Y0864603D01*
X0740686Y0863404D02*
X0715686Y0863404D01*
X0715686Y0862206D02*
X0740686Y0862206D01*
X0740686Y0861007D02*
X0715686Y0861007D01*
X0715686Y0859809D02*
X0740686Y0859809D01*
X0740686Y0858610D02*
X0715686Y0858610D01*
X0715686Y0857412D02*
X0740686Y0857412D01*
X0740686Y0856213D02*
X0715686Y0856213D01*
X0715686Y0855015D02*
X0740686Y0855015D01*
X0740686Y0853816D02*
X0736761Y0853816D01*
X0738142Y0852617D02*
X0740686Y0852617D01*
X0740686Y0851419D02*
X0738486Y0851419D01*
X0738486Y0850220D02*
X0740686Y0850220D01*
X0740686Y0849022D02*
X0738486Y0849022D01*
X0738486Y0847823D02*
X0740686Y0847823D01*
X0740686Y0846625D02*
X0738486Y0846625D01*
X0738486Y0845426D02*
X0740686Y0845426D01*
X0740686Y0844228D02*
X0738486Y0844228D01*
X0738486Y0843029D02*
X0740686Y0843029D01*
X0740686Y0841831D02*
X0738486Y0841831D01*
X0738486Y0840632D02*
X0740686Y0840632D01*
X0740686Y0839434D02*
X0738486Y0839434D01*
X0738486Y0838235D02*
X0740686Y0838235D01*
X0740686Y0837037D02*
X0738486Y0837037D01*
X0738486Y0835838D02*
X0740686Y0835838D01*
X0740686Y0834640D02*
X0738486Y0834640D01*
X0738486Y0833441D02*
X0740686Y0833441D01*
X0740686Y0832243D02*
X0738486Y0832243D01*
X0738486Y0831044D02*
X0740686Y0831044D01*
X0740686Y0829846D02*
X0738144Y0829846D01*
X0736767Y0828647D02*
X0740686Y0828647D01*
X0740686Y0827449D02*
X0715686Y0827449D01*
X0715686Y0826250D02*
X0740686Y0826250D01*
X0740686Y0825052D02*
X0715686Y0825052D01*
X0715686Y0823853D02*
X0740686Y0823853D01*
X0740686Y0822655D02*
X0715686Y0822655D01*
X0715686Y0821456D02*
X0740686Y0821456D01*
X0740686Y0820258D02*
X0715686Y0820258D01*
X0716060Y0819059D02*
X0740686Y0819059D01*
X0740686Y0817861D02*
X0717258Y0817861D01*
X0718457Y0816662D02*
X0740686Y0816662D01*
X0740686Y0815464D02*
X0719655Y0815464D01*
X0720854Y0814265D02*
X0740686Y0814265D01*
X0740686Y0813067D02*
X0722053Y0813067D01*
X0723251Y0811868D02*
X0740686Y0811868D01*
X0740686Y0810670D02*
X0724450Y0810670D01*
X0725622Y0809471D02*
X0740686Y0809471D01*
X0740686Y0808273D02*
X0726118Y0808273D01*
X0726486Y0807074D02*
X0740686Y0807074D01*
X0740686Y0805876D02*
X0726486Y0805876D01*
X0726486Y0804677D02*
X0740686Y0804677D01*
X0740686Y0803479D02*
X0726486Y0803479D01*
X0726486Y0802280D02*
X0740686Y0802280D01*
X0740686Y0801082D02*
X0726486Y0801082D01*
X0726486Y0799883D02*
X0740686Y0799883D01*
X0740686Y0798684D02*
X0737078Y0798684D01*
X0738197Y0797486D02*
X0740686Y0797486D01*
X0740686Y0796287D02*
X0738486Y0796287D01*
X0738486Y0795089D02*
X0740686Y0795089D01*
X0740686Y0793890D02*
X0738486Y0793890D01*
X0738486Y0792692D02*
X0740686Y0792692D01*
X0740686Y0791493D02*
X0738486Y0791493D01*
X0738486Y0790295D02*
X0740686Y0790295D01*
X0740686Y0789096D02*
X0738486Y0789096D01*
X0738486Y0787898D02*
X0740686Y0787898D01*
X0740686Y0786699D02*
X0738486Y0786699D01*
X0738486Y0785501D02*
X0740686Y0785501D01*
X0740686Y0784302D02*
X0738486Y0784302D01*
X0738486Y0783104D02*
X0740686Y0783104D01*
X0740686Y0781905D02*
X0738486Y0781905D01*
X0738486Y0780707D02*
X0740686Y0780707D01*
X0740686Y0779508D02*
X0738486Y0779508D01*
X0738486Y0778310D02*
X0740686Y0778310D01*
X0740686Y0777111D02*
X0738486Y0777111D01*
X0738486Y0775913D02*
X0740686Y0775913D01*
X0740686Y0774714D02*
X0738089Y0774714D01*
X0736449Y0773516D02*
X0740686Y0773516D01*
X0740686Y0772317D02*
X0715686Y0772317D01*
X0715686Y0771119D02*
X0740686Y0771119D01*
X0740686Y0769920D02*
X0715686Y0769920D01*
X0715686Y0768722D02*
X0740686Y0768722D01*
X0740686Y0767523D02*
X0715686Y0767523D01*
X0715686Y0766325D02*
X0740686Y0766325D01*
X0740686Y0765126D02*
X0715686Y0765126D01*
X0715686Y0763928D02*
X0740686Y0763928D01*
X0740686Y0762729D02*
X0715686Y0762729D01*
X0715686Y0761531D02*
X0740686Y0761531D01*
X0740686Y0760332D02*
X0715686Y0760332D01*
X0715686Y0759134D02*
X0740686Y0759134D01*
X0740686Y0757935D02*
X0715686Y0757935D01*
X0715686Y0756737D02*
X0740686Y0756737D01*
X0740686Y0755538D02*
X0715686Y0755538D01*
X0715686Y0754340D02*
X0740686Y0754340D01*
X0740686Y0753141D02*
X0715686Y0753141D01*
X0715686Y0751943D02*
X0740686Y0751943D01*
X0740686Y0750744D02*
X0715686Y0750744D01*
X0715686Y0749546D02*
X0740686Y0749546D01*
X0740686Y0748347D02*
X0716772Y0748347D01*
X0717971Y0747148D02*
X0740686Y0747148D01*
X0740686Y0745950D02*
X0719169Y0745950D01*
X0720368Y0744751D02*
X0740686Y0744751D01*
X0740686Y0743553D02*
X0737324Y0743553D01*
X0738251Y0742354D02*
X0740686Y0742354D01*
X0740686Y0741156D02*
X0738486Y0741156D01*
X0738486Y0739957D02*
X0740686Y0739957D01*
X0740686Y0738759D02*
X0738486Y0738759D01*
X0738486Y0737560D02*
X0740686Y0737560D01*
X0740686Y0736362D02*
X0738486Y0736362D01*
X0738486Y0735163D02*
X0740686Y0735163D01*
X0740686Y0733965D02*
X0738486Y0733965D01*
X0738486Y0732766D02*
X0740686Y0732766D01*
X0740686Y0731568D02*
X0738486Y0731568D01*
X0738486Y0730369D02*
X0740686Y0730369D01*
X0740686Y0729171D02*
X0738486Y0729171D01*
X0738486Y0727972D02*
X0740686Y0727972D01*
X0740686Y0726774D02*
X0738486Y0726774D01*
X0738486Y0725575D02*
X0740686Y0725575D01*
X0740686Y0724377D02*
X0738486Y0724377D01*
X0738486Y0723178D02*
X0740686Y0723178D01*
X0740686Y0721980D02*
X0738486Y0721980D01*
X0738486Y0720781D02*
X0740686Y0720781D01*
X0740686Y0719583D02*
X0737998Y0719583D01*
X0740686Y0718384D02*
X0715686Y0718384D01*
X0715686Y0717186D02*
X0740686Y0717186D01*
X0740686Y0715987D02*
X0715686Y0715987D01*
X0715686Y0714789D02*
X0740686Y0714789D01*
X0740686Y0713590D02*
X0715686Y0713590D01*
X0715686Y0712392D02*
X0740686Y0712392D01*
X0740686Y0711193D02*
X0715686Y0711193D01*
X0715686Y0709995D02*
X0740686Y0709995D01*
X0740686Y0708796D02*
X0715686Y0708796D01*
X0715686Y0707598D02*
X0740686Y0707598D01*
X0740686Y0706399D02*
X0715686Y0706399D01*
X0715686Y0705201D02*
X0740686Y0705201D01*
X0740686Y0704002D02*
X0715686Y0704002D01*
X0737458Y0994042D02*
X0740686Y0994042D01*
X0740686Y0995240D02*
X0738307Y0995240D01*
X0738486Y0996439D02*
X0740686Y0996439D01*
X0740686Y0997637D02*
X0738486Y0997637D01*
X0738486Y0998836D02*
X0740686Y0998836D01*
X0740686Y1000034D02*
X0738486Y1000034D01*
X0738486Y1001233D02*
X0740686Y1001233D01*
X0740686Y1002431D02*
X0738486Y1002431D01*
X0738486Y1003630D02*
X0740686Y1003630D01*
X0740686Y1004828D02*
X0738486Y1004828D01*
X0738486Y1006027D02*
X0740686Y1006027D01*
X0740686Y1007225D02*
X0738486Y1007225D01*
X0738486Y1008424D02*
X0740686Y1008424D01*
X0740686Y1009622D02*
X0738486Y1009622D01*
X0738486Y1010821D02*
X0740686Y1010821D01*
X0740686Y1012020D02*
X0738486Y1012020D01*
X0738486Y1013218D02*
X0740686Y1013218D01*
X0740686Y1014417D02*
X0738486Y1014417D01*
X0738486Y1015615D02*
X0740686Y1015615D01*
X0740686Y1016814D02*
X0738475Y1016814D01*
X0737864Y1018012D02*
X0740686Y1018012D01*
X0740686Y1019211D02*
X0715686Y1019211D01*
X0715686Y1020409D02*
X0740686Y1020409D01*
X0740686Y1021608D02*
X0715686Y1021608D01*
X0715686Y1022806D02*
X0740686Y1022806D01*
X0740686Y1024005D02*
X0715686Y1024005D01*
X0715686Y1025203D02*
X0740686Y1025203D01*
X0740686Y1026402D02*
X0715686Y1026402D01*
X0715686Y1027600D02*
X0740686Y1027600D01*
X0740686Y1028799D02*
X0715686Y1028799D01*
X0715686Y1029997D02*
X0740686Y1029997D01*
X0740686Y1031196D02*
X0715686Y1031196D01*
X0715686Y1032394D02*
X0740686Y1032394D01*
X0740686Y1033593D02*
X0715686Y1033593D01*
X0715686Y1034791D02*
X0740686Y1034791D01*
X0740686Y1035990D02*
X0715686Y1035990D01*
X0715686Y1037188D02*
X0740686Y1037188D01*
X0740686Y1038387D02*
X0715686Y1038387D01*
X0715686Y1039585D02*
X0740686Y1039585D01*
X0740686Y1040784D02*
X0715686Y1040784D01*
X0715686Y1041982D02*
X0740686Y1041982D01*
X0740686Y1043181D02*
X0715839Y1043181D01*
X0717038Y1044379D02*
X0740686Y1044379D01*
X0740686Y1045578D02*
X0718236Y1045578D01*
X0719435Y1046776D02*
X0740686Y1046776D01*
X0740686Y1047975D02*
X0720633Y1047975D01*
X0737589Y1049173D02*
X0740686Y1049173D01*
X0740686Y1050372D02*
X0738361Y1050372D01*
X0738486Y1051570D02*
X0740686Y1051570D01*
X0740686Y1052769D02*
X0738486Y1052769D01*
X0738486Y1053967D02*
X0740686Y1053967D01*
X0740686Y1055166D02*
X0738486Y1055166D01*
X0738486Y1056364D02*
X0740686Y1056364D01*
X0740686Y1057563D02*
X0738486Y1057563D01*
X0738486Y1058761D02*
X0740686Y1058761D01*
X0740686Y1059960D02*
X0738486Y1059960D01*
X0738486Y1061158D02*
X0740686Y1061158D01*
X0740686Y1062357D02*
X0738486Y1062357D01*
X0738486Y1063555D02*
X0740686Y1063555D01*
X0740686Y1064754D02*
X0738486Y1064754D01*
X0738486Y1065953D02*
X0740686Y1065953D01*
X0740686Y1067151D02*
X0738486Y1067151D01*
X0738486Y1068350D02*
X0740686Y1068350D01*
X0740686Y1069548D02*
X0738486Y1069548D01*
X0738486Y1070747D02*
X0740686Y1070747D01*
X0740686Y1071945D02*
X0738421Y1071945D01*
X0737733Y1073144D02*
X0740686Y1073144D01*
X0740686Y1074342D02*
X0715686Y1074342D01*
X0715686Y1075541D02*
X0740686Y1075541D01*
X0740686Y1076739D02*
X0715686Y1076739D01*
X0715686Y1077938D02*
X0740686Y1077938D01*
X0740686Y1079136D02*
X0715686Y1079136D01*
X0715686Y1080335D02*
X0740686Y1080335D01*
X0740686Y1081533D02*
X0715686Y1081533D01*
X0715686Y1082732D02*
X0740686Y1082732D01*
X0740686Y1083930D02*
X0715686Y1083930D01*
X0715686Y1085129D02*
X0740686Y1085129D01*
X0740686Y1086327D02*
X0715686Y1086327D01*
X0715686Y1087526D02*
X0740686Y1087526D01*
X0740686Y1088724D02*
X0715686Y1088724D01*
X0715686Y1089923D02*
X0740686Y1089923D01*
X0740686Y1091121D02*
X0715686Y1091121D01*
X0715686Y1092320D02*
X0740686Y1092320D01*
X0740686Y1093518D02*
X0715686Y1093518D01*
X0715686Y1094717D02*
X0740686Y1094717D01*
X0740686Y1095915D02*
X0715686Y1095915D01*
X0715686Y1097114D02*
X0740686Y1097114D01*
X0740686Y1098312D02*
X0715971Y1098312D01*
X0717169Y1099511D02*
X0740686Y1099511D01*
X0740686Y1100709D02*
X0718368Y1100709D01*
X0719566Y1101908D02*
X0740686Y1101908D01*
X0740686Y1103106D02*
X0720765Y1103106D01*
X0737721Y1104305D02*
X0740686Y1104305D01*
X0740686Y1105503D02*
X0738416Y1105503D01*
X0738486Y1106702D02*
X0740686Y1106702D01*
X0740686Y1107900D02*
X0738486Y1107900D01*
X0738486Y1109099D02*
X0740686Y1109099D01*
X0740686Y1110297D02*
X0738486Y1110297D01*
X0738486Y1111496D02*
X0740686Y1111496D01*
X0740686Y1112694D02*
X0738486Y1112694D01*
X0738486Y1113893D02*
X0740686Y1113893D01*
X0740686Y1115091D02*
X0738486Y1115091D01*
X0738486Y1116290D02*
X0740686Y1116290D01*
X0740686Y1117488D02*
X0738486Y1117488D01*
X0738486Y1118687D02*
X0740686Y1118687D01*
X0740686Y1119886D02*
X0738486Y1119886D01*
X0738486Y1121084D02*
X0740686Y1121084D01*
X0740686Y1122283D02*
X0738486Y1122283D01*
X0738486Y1123481D02*
X0740686Y1123481D01*
X0740686Y1124680D02*
X0738486Y1124680D01*
X0738486Y1125878D02*
X0740686Y1125878D01*
X0740686Y1127077D02*
X0738367Y1127077D01*
X0737601Y1128275D02*
X0740686Y1128275D01*
X0740686Y1129474D02*
X0715686Y1129474D01*
X0715686Y1130672D02*
X0740686Y1130672D01*
X0740686Y1131871D02*
X0715686Y1131871D01*
X0715686Y1133069D02*
X0740686Y1133069D01*
X0740686Y1134268D02*
X0715686Y1134268D01*
X0715686Y1135466D02*
X0740686Y1135466D01*
X0740686Y1136665D02*
X0715686Y1136665D01*
X0715686Y1137863D02*
X0740686Y1137863D01*
X0740686Y1139062D02*
X0715686Y1139062D01*
X0715686Y1140260D02*
X0740686Y1140260D01*
X0740686Y1141459D02*
X0715686Y1141459D01*
X0715686Y1142657D02*
X0740686Y1142657D01*
X0740686Y1143856D02*
X0715686Y1143856D01*
X0715686Y1145054D02*
X0740686Y1145054D01*
X0740686Y1146253D02*
X0715686Y1146253D01*
X0715686Y1147451D02*
X0740686Y1147451D01*
X0740686Y1148650D02*
X0715686Y1148650D01*
X0715686Y1149848D02*
X0740686Y1149848D01*
X0740686Y1151047D02*
X0715686Y1151047D01*
X0183186Y0756230D02*
X0115686Y0756230D01*
X0110686Y0761230D01*
X0110686Y0771230D01*
X0108186Y0861230D02*
X0075686Y0861230D01*
M02*
