%
M48
M72
T01C0.01772
T02C0.01969
T03C0.02100
T04C0.02165
T05C0.02362
T06C0.02559
T07C0.02953
T08C0.03150
T09C0.03543
T10C0.04000
T11C0.04724
T12C0.10000
T13C0.11800
T14C0.20669
%
T01
X173186Y726230
X178186Y726230
X178186Y731230
X193186Y731230
X193186Y726230
X198186Y726230
X203186Y726230
X208186Y726230
X213186Y726230
X208186Y746230
X208186Y751230
X213186Y751230
X213186Y756230
X208186Y756230
X213186Y761230
X213186Y766230
X193186Y756230
X193186Y751230
X188186Y756230
X183186Y756230
X138186Y831230
X133186Y831230
X128186Y831230
X123186Y831230
X118186Y831230
X118186Y836230
X110686Y848730
X118186Y856230
X118186Y861230
X113186Y861230
X108186Y861230
X103186Y836230
X103186Y831230
X98186Y831230
X133186Y851230
X133186Y856230
X138186Y856230
X138186Y861230
X133186Y861230
X138186Y866230
X143186Y866230
X245686Y856230
X170686Y986230
X170686Y991230
X125686Y1006230
X123186Y986230
X460686Y856230
X460686Y846230
X460686Y836230
X460686Y821230
X480686Y836230
X500686Y846230
X515686Y846230
X520686Y826230
X515686Y811230
X525686Y806230
X503186Y813730
X565686Y841230
T02
X200686Y971230
X200686Y976230
T03
X138186Y843730
X138186Y838730
T04
X320686Y686230
X315686Y771230
X280686Y771230
X275686Y776230
X250686Y791230
X255686Y801230
X213186Y738730
X213186Y733730
X208186Y733730
X208186Y738730
X163186Y738730
X163186Y733730
X158186Y733730
X158186Y738730
X133186Y838730
X88186Y838730
X83186Y838730
X83186Y843730
X88186Y843730
X180686Y966230
X150686Y971230
X145686Y1006230
X265686Y876230
X438186Y883730
X450686Y861230
X550686Y896230
X600686Y851230
X615686Y856230
X625686Y856230
X625686Y866230
X650686Y866230
X650686Y871230
X650686Y876230
X675686Y836230
X790686Y926230
X685686Y1091230
T05
X395686Y881230
X385686Y881230
X360686Y866230
X345686Y831230
X330686Y816230
X338186Y808730
X345686Y801230
X350686Y796230
X365686Y811230
X310686Y886230
X285686Y886230
X280686Y866230
X265686Y866230
X260686Y886230
X190686Y871230
X185686Y866230
X180686Y956230
X260686Y996230
X285686Y776230
T06
X305686Y741230
X215686Y861230
X230686Y881230
X240686Y881230
X155686Y761230
X120686Y761230
X110686Y771230
X80686Y761230
X75686Y766230
X50686Y776230
X45686Y826230
X75686Y861230
X80686Y866230
X54552Y866230
X54552Y881230
X110686Y726230
X625686Y976230
X640686Y986230
X625686Y1001230
X665686Y986230
X720686Y981230
X720686Y998730
X720686Y1006230
X720686Y1013730
X730686Y1013730
X730686Y998730
X748186Y1016230
X720686Y1036230
X720686Y1053730
X720686Y1061230
X720686Y1068730
X730686Y1068730
X745686Y1071230
X730686Y1053730
X720686Y1091230
X720686Y1108730
X720686Y1116230
X720686Y1123730
X730686Y1123730
X730686Y1108730
X745686Y1126230
X720686Y1146230
X783186Y1098730
X790686Y1096230
X783186Y1046230
X790686Y1041230
X795686Y986230
X748186Y961230
X730686Y958730
X720686Y958730
X720686Y951230
X720686Y943730
X730686Y943730
X720686Y926230
X720686Y903730
X720686Y896230
X720686Y888730
X730686Y888730
X730686Y903730
X748186Y906230
X720686Y871230
X720686Y848730
X720686Y841230
X720686Y833730
X730686Y833730
X730686Y848730
X748186Y851230
X720686Y816230
X720686Y793730
X720686Y786230
X720686Y778730
X730686Y778730
X720686Y761230
X720686Y738730
X720686Y731230
X720686Y723730
X730686Y723730
X730686Y708730
X720686Y708730
X740686Y708730
X730686Y738730
X748186Y741230
X790686Y766230
X748186Y796230
X730686Y793730
X790686Y821230
X790686Y876230
X790686Y1151230
T07
X245686Y836230
T08
X290686Y706230
X300686Y706230
X340686Y686230
X470686Y731230
T09
X295686Y866230
X295686Y876230
X295686Y886230
T10
X135686Y746230
X135686Y736230
X475686Y866230
X485686Y866230
X495686Y866230
X505686Y866230
X515686Y866230
X525686Y866230
X535686Y866230
X545686Y866230
X555686Y866230
X565686Y866230
X565686Y876230
X555686Y876230
X545686Y876230
X535686Y876230
X525686Y876230
X515686Y876230
X505686Y876230
X495686Y876230
X485686Y876230
X475686Y876230
X475686Y1036230
X485686Y1036230
X495686Y1036230
X505686Y1036230
X515686Y1036230
X525686Y1036230
X535686Y1036230
X545686Y1036230
X555686Y1036230
X565686Y1036230
X565686Y1046230
X555686Y1046230
X545686Y1046230
X535686Y1046230
X525686Y1046230
X515686Y1046230
X505686Y1046230
X495686Y1046230
X485686Y1046230
X475686Y1046230
T11
X355686Y1156230
X345686Y1156230
X295686Y1156230
X285686Y1156230
X240686Y1156230
X230686Y1156230
X275686Y806230
X285686Y806230
X390686Y706230
X400686Y706230
X410686Y706230
X420686Y706230
X460686Y701230
X470686Y701230
X515686Y701230
X525686Y701230
X555686Y701230
X565686Y701230
X565686Y771230
X555686Y771230
X530686Y771230
X520686Y771230
X510686Y771230
X500686Y771230
X810686Y781230
X810686Y791230
X810686Y801230
X810686Y811230
X810686Y836230
X810686Y846230
X810686Y856230
X810686Y866230
X810686Y891230
X810686Y901230
X810686Y911230
X810686Y921230
X810686Y946230
X810686Y956230
X810686Y966230
X810686Y976230
X810686Y1001230
X810686Y1011230
X810686Y1021230
X810686Y1031230
X810686Y1056230
X810686Y1066230
X810686Y1076230
X810686Y1086230
X810686Y1111230
X810686Y1121230
X810686Y1131230
X810686Y1141230
X810686Y756230
X810686Y746230
X810686Y736230
X810686Y726230
X70686Y731230
X70686Y741230
T12
X158336Y931230
X188336Y931230
X263036Y931230
X293036Y931230
T13
X82786Y897630
X82786Y964830
T14
X75686Y945980
X75686Y916480
M30
