G75*
%MOIN*%
%OFA0B0*%
%FSLAX25Y25*%
%IPPOS*%
%LPD*%
%AMOC8*
5,1,8,0,0,1.08239X$1,22.5*
%
%ADD10C,0.00600*%
%ADD11C,0.00500*%
%ADD12C,0.03000*%
%ADD13R,0.02000X0.03000*%
%ADD14R,0.04000X0.03000*%
%ADD15C,0.01000*%
%ADD16C,0.00800*%
%ADD17C,0.00300*%
D10*
X0027500Y0090000D02*
X0037500Y0090000D01*
X0047500Y0090000D01*
X0047500Y0100000D01*
X0047500Y0110000D01*
X0047500Y0120000D01*
X0047500Y0130000D01*
X0047500Y0140000D01*
X0047500Y0150000D01*
X0047500Y0160000D01*
X0047500Y0170000D01*
X0047500Y0180000D01*
X0047500Y0190000D01*
X0037500Y0190000D01*
X0037500Y0180000D01*
X0037500Y0170000D01*
X0037500Y0160000D01*
X0037500Y0150000D01*
X0037500Y0140000D01*
X0037500Y0130000D01*
X0037500Y0120000D01*
X0037500Y0110000D01*
X0037500Y0100000D01*
X0037500Y0090000D01*
X0037500Y0100000D01*
X0047500Y0100000D01*
X0047500Y0110000D02*
X0037500Y0110000D01*
X0037500Y0120000D01*
X0047500Y0120000D01*
X0047500Y0130000D02*
X0037500Y0130000D01*
X0037500Y0140000D01*
X0047500Y0140000D01*
X0047500Y0150000D02*
X0037500Y0150000D01*
X0037500Y0160000D01*
X0047500Y0160000D01*
X0047500Y0170000D02*
X0037500Y0170000D01*
X0037500Y0180000D01*
X0047500Y0180000D01*
X0037500Y0180000D02*
X0037500Y0190000D01*
X0027500Y0190000D01*
X0027500Y0180000D01*
X0027500Y0170000D01*
X0027500Y0160000D01*
X0027500Y0150000D01*
X0027500Y0140000D01*
X0027500Y0130000D01*
X0027500Y0120000D01*
X0027500Y0110000D01*
X0027500Y0100000D01*
X0027500Y0090000D01*
X0027500Y0100000D02*
X0037500Y0100000D01*
X0037500Y0110000D01*
X0027500Y0110000D01*
X0027500Y0120000D02*
X0037500Y0120000D01*
X0037500Y0130000D01*
X0027500Y0130000D01*
X0027500Y0140000D02*
X0037500Y0140000D01*
X0037500Y0150000D01*
X0027500Y0150000D01*
X0027500Y0160000D02*
X0037500Y0160000D01*
X0037500Y0170000D01*
X0027500Y0170000D01*
X0027500Y0180000D02*
X0037500Y0180000D01*
X0128201Y0252902D02*
X0128201Y0267098D01*
X0146799Y0267098D02*
X0146799Y0252902D01*
X0272500Y0185000D02*
X0272500Y0175000D01*
X0272500Y0165000D01*
X0272500Y0155000D01*
X0272500Y0145000D01*
X0272500Y0135000D01*
X0272500Y0125000D01*
X0272500Y0115000D01*
X0272500Y0105000D01*
X0272500Y0095000D01*
X0272500Y0085000D01*
X0282500Y0085000D01*
X0292500Y0085000D01*
X0292500Y0095000D01*
X0292500Y0105000D01*
X0292500Y0115000D01*
X0292500Y0125000D01*
X0292500Y0135000D01*
X0292500Y0145000D01*
X0292500Y0155000D01*
X0292500Y0165000D01*
X0292500Y0175000D01*
X0292500Y0185000D01*
X0282500Y0185000D01*
X0282500Y0175000D01*
X0282500Y0165000D01*
X0282500Y0155000D01*
X0282500Y0145000D01*
X0282500Y0135000D01*
X0282500Y0125000D01*
X0282500Y0115000D01*
X0282500Y0105000D01*
X0282500Y0095000D01*
X0282500Y0085000D01*
X0282500Y0095000D01*
X0292500Y0095000D01*
X0292500Y0105000D02*
X0282500Y0105000D01*
X0282500Y0095000D01*
X0272500Y0095000D01*
X0272500Y0105000D02*
X0282500Y0105000D01*
X0282500Y0115000D01*
X0292500Y0115000D01*
X0292500Y0125000D02*
X0282500Y0125000D01*
X0282500Y0115000D01*
X0272500Y0115000D01*
X0272500Y0125000D02*
X0282500Y0125000D01*
X0282500Y0135000D01*
X0292500Y0135000D01*
X0292500Y0145000D02*
X0282500Y0145000D01*
X0282500Y0135000D01*
X0272500Y0135000D01*
X0272500Y0145000D02*
X0282500Y0145000D01*
X0282500Y0155000D01*
X0292500Y0155000D01*
X0292500Y0165000D02*
X0282500Y0165000D01*
X0282500Y0155000D01*
X0272500Y0155000D01*
X0272500Y0165000D02*
X0282500Y0165000D01*
X0282500Y0175000D01*
X0292500Y0175000D01*
X0282500Y0175000D02*
X0282500Y0185000D01*
X0272500Y0185000D01*
X0272500Y0175000D02*
X0282500Y0175000D01*
D11*
X0291725Y0281875D02*
X0291727Y0281899D01*
X0291733Y0281923D01*
X0291742Y0281945D01*
X0291755Y0281965D01*
X0291771Y0281983D01*
X0291790Y0281998D01*
X0291811Y0282011D01*
X0291833Y0282019D01*
X0291857Y0282024D01*
X0291881Y0282025D01*
X0291905Y0282022D01*
X0291928Y0282015D01*
X0291950Y0282005D01*
X0291970Y0281991D01*
X0291987Y0281974D01*
X0292002Y0281955D01*
X0292013Y0281934D01*
X0292021Y0281911D01*
X0292025Y0281887D01*
X0292025Y0281863D01*
X0292021Y0281839D01*
X0292013Y0281816D01*
X0292002Y0281795D01*
X0291987Y0281776D01*
X0291970Y0281759D01*
X0291950Y0281745D01*
X0291928Y0281735D01*
X0291905Y0281728D01*
X0291881Y0281725D01*
X0291857Y0281726D01*
X0291833Y0281731D01*
X0291811Y0281739D01*
X0291790Y0281752D01*
X0291771Y0281767D01*
X0291755Y0281785D01*
X0291742Y0281805D01*
X0291733Y0281827D01*
X0291727Y0281851D01*
X0291725Y0281875D01*
X0291562Y0281875D02*
X0291564Y0281910D01*
X0291570Y0281945D01*
X0291580Y0281978D01*
X0291593Y0282011D01*
X0291610Y0282042D01*
X0291630Y0282070D01*
X0291654Y0282096D01*
X0291680Y0282120D01*
X0291708Y0282140D01*
X0291739Y0282157D01*
X0291772Y0282170D01*
X0291805Y0282180D01*
X0291840Y0282186D01*
X0291875Y0282188D01*
X0291910Y0282186D01*
X0291945Y0282180D01*
X0291978Y0282170D01*
X0292011Y0282157D01*
X0292042Y0282140D01*
X0292070Y0282120D01*
X0292096Y0282096D01*
X0292120Y0282070D01*
X0292140Y0282042D01*
X0292157Y0282011D01*
X0292170Y0281978D01*
X0292180Y0281945D01*
X0292186Y0281910D01*
X0292188Y0281875D01*
X0292186Y0281840D01*
X0292180Y0281805D01*
X0292170Y0281772D01*
X0292157Y0281739D01*
X0292140Y0281708D01*
X0292120Y0281680D01*
X0292096Y0281654D01*
X0292070Y0281630D01*
X0292042Y0281610D01*
X0292011Y0281593D01*
X0291978Y0281580D01*
X0291945Y0281570D01*
X0291910Y0281564D01*
X0291875Y0281562D01*
X0291840Y0281564D01*
X0291805Y0281570D01*
X0291772Y0281580D01*
X0291739Y0281593D01*
X0291708Y0281610D01*
X0291680Y0281630D01*
X0291654Y0281654D01*
X0291630Y0281680D01*
X0291610Y0281708D01*
X0291593Y0281739D01*
X0291580Y0281772D01*
X0291570Y0281805D01*
X0291564Y0281840D01*
X0291562Y0281875D01*
X0291250Y0281875D02*
X0291252Y0281925D01*
X0291258Y0281974D01*
X0291268Y0282023D01*
X0291281Y0282070D01*
X0291299Y0282117D01*
X0291320Y0282162D01*
X0291344Y0282205D01*
X0291372Y0282246D01*
X0291403Y0282285D01*
X0291437Y0282321D01*
X0291474Y0282355D01*
X0291514Y0282385D01*
X0291555Y0282412D01*
X0291599Y0282436D01*
X0291644Y0282456D01*
X0291691Y0282472D01*
X0291739Y0282485D01*
X0291788Y0282494D01*
X0291838Y0282499D01*
X0291887Y0282500D01*
X0291937Y0282497D01*
X0291986Y0282490D01*
X0292035Y0282479D01*
X0292082Y0282465D01*
X0292128Y0282446D01*
X0292173Y0282424D01*
X0292216Y0282399D01*
X0292256Y0282370D01*
X0292294Y0282338D01*
X0292330Y0282304D01*
X0292363Y0282266D01*
X0292392Y0282226D01*
X0292418Y0282184D01*
X0292441Y0282140D01*
X0292460Y0282094D01*
X0292476Y0282047D01*
X0292488Y0281998D01*
X0292496Y0281949D01*
X0292500Y0281900D01*
X0292500Y0281850D01*
X0292496Y0281801D01*
X0292488Y0281752D01*
X0292476Y0281703D01*
X0292460Y0281656D01*
X0292441Y0281610D01*
X0292418Y0281566D01*
X0292392Y0281524D01*
X0292363Y0281484D01*
X0292330Y0281446D01*
X0292294Y0281412D01*
X0292256Y0281380D01*
X0292216Y0281351D01*
X0292173Y0281326D01*
X0292128Y0281304D01*
X0292082Y0281285D01*
X0292035Y0281271D01*
X0291986Y0281260D01*
X0291937Y0281253D01*
X0291887Y0281250D01*
X0291838Y0281251D01*
X0291788Y0281256D01*
X0291739Y0281265D01*
X0291691Y0281278D01*
X0291644Y0281294D01*
X0291599Y0281314D01*
X0291555Y0281338D01*
X0291514Y0281365D01*
X0291474Y0281395D01*
X0291437Y0281429D01*
X0291403Y0281465D01*
X0291372Y0281504D01*
X0291344Y0281545D01*
X0291320Y0281588D01*
X0291299Y0281633D01*
X0291281Y0281680D01*
X0291268Y0281727D01*
X0291258Y0281776D01*
X0291252Y0281825D01*
X0291250Y0281875D01*
X0266870Y0325315D02*
X0053130Y0325315D01*
X0053130Y0359646D01*
X0266870Y0359646D01*
X0266870Y0325315D01*
X0262500Y0327500D02*
X0262500Y0357500D01*
X0242500Y0357500D01*
X0242500Y0327500D01*
X0262500Y0327500D01*
X0129000Y0256100D02*
X0129002Y0256175D01*
X0129008Y0256249D01*
X0129018Y0256323D01*
X0129032Y0256396D01*
X0129049Y0256468D01*
X0129071Y0256540D01*
X0129096Y0256610D01*
X0129125Y0256678D01*
X0129158Y0256746D01*
X0129194Y0256811D01*
X0129233Y0256874D01*
X0129276Y0256935D01*
X0129322Y0256994D01*
X0129371Y0257050D01*
X0129423Y0257103D01*
X0129478Y0257154D01*
X0129535Y0257201D01*
X0129595Y0257246D01*
X0129657Y0257287D01*
X0129722Y0257325D01*
X0129788Y0257359D01*
X0129856Y0257390D01*
X0129925Y0257417D01*
X0129996Y0257440D01*
X0130068Y0257460D01*
X0130141Y0257476D01*
X0130214Y0257488D01*
X0130288Y0257496D01*
X0130363Y0257500D01*
X0130437Y0257500D01*
X0130512Y0257496D01*
X0130586Y0257488D01*
X0130659Y0257476D01*
X0130732Y0257460D01*
X0130804Y0257440D01*
X0130875Y0257417D01*
X0130944Y0257390D01*
X0131012Y0257359D01*
X0131078Y0257325D01*
X0131143Y0257287D01*
X0131205Y0257246D01*
X0131265Y0257201D01*
X0131322Y0257154D01*
X0131377Y0257103D01*
X0131429Y0257050D01*
X0131478Y0256994D01*
X0131524Y0256935D01*
X0131567Y0256874D01*
X0131606Y0256811D01*
X0131642Y0256746D01*
X0131675Y0256678D01*
X0131704Y0256610D01*
X0131729Y0256540D01*
X0131751Y0256468D01*
X0131768Y0256396D01*
X0131782Y0256323D01*
X0131792Y0256249D01*
X0131798Y0256175D01*
X0131800Y0256100D01*
X0131798Y0256025D01*
X0131792Y0255951D01*
X0131782Y0255877D01*
X0131768Y0255804D01*
X0131751Y0255732D01*
X0131729Y0255660D01*
X0131704Y0255590D01*
X0131675Y0255522D01*
X0131642Y0255454D01*
X0131606Y0255389D01*
X0131567Y0255326D01*
X0131524Y0255265D01*
X0131478Y0255206D01*
X0131429Y0255150D01*
X0131377Y0255097D01*
X0131322Y0255046D01*
X0131265Y0254999D01*
X0131205Y0254954D01*
X0131143Y0254913D01*
X0131078Y0254875D01*
X0131012Y0254841D01*
X0130944Y0254810D01*
X0130875Y0254783D01*
X0130804Y0254760D01*
X0130732Y0254740D01*
X0130659Y0254724D01*
X0130586Y0254712D01*
X0130512Y0254704D01*
X0130437Y0254700D01*
X0130363Y0254700D01*
X0130288Y0254704D01*
X0130214Y0254712D01*
X0130141Y0254724D01*
X0130068Y0254740D01*
X0129996Y0254760D01*
X0129925Y0254783D01*
X0129856Y0254810D01*
X0129788Y0254841D01*
X0129722Y0254875D01*
X0129657Y0254913D01*
X0129595Y0254954D01*
X0129535Y0254999D01*
X0129478Y0255046D01*
X0129423Y0255097D01*
X0129371Y0255150D01*
X0129322Y0255206D01*
X0129276Y0255265D01*
X0129233Y0255326D01*
X0129194Y0255389D01*
X0129158Y0255454D01*
X0129125Y0255522D01*
X0129096Y0255590D01*
X0129071Y0255660D01*
X0129049Y0255732D01*
X0129032Y0255804D01*
X0129018Y0255877D01*
X0129008Y0255951D01*
X0129002Y0256025D01*
X0129000Y0256100D01*
X0077500Y0327500D02*
X0077500Y0357500D01*
X0057500Y0357500D01*
X0057500Y0327500D01*
X0077500Y0327500D01*
D12*
X0035000Y0185000D02*
X0012500Y0185000D01*
X0012500Y0175000D02*
X0035000Y0175000D01*
X0035000Y0165000D02*
X0012500Y0165000D01*
X0012500Y0155000D02*
X0035000Y0155000D01*
X0035000Y0145000D02*
X0012500Y0145000D01*
X0012500Y0135000D02*
X0035000Y0135000D01*
X0035000Y0125000D02*
X0012500Y0125000D01*
X0012500Y0115000D02*
X0035000Y0115000D01*
X0035000Y0105000D02*
X0012500Y0105000D01*
X0012500Y0095000D02*
X0035000Y0095000D01*
X0025000Y0095000D02*
X0002500Y0095000D01*
X0002500Y0105000D02*
X0025000Y0105000D01*
X0025000Y0115000D02*
X0002500Y0115000D01*
X0002500Y0125000D02*
X0025000Y0125000D01*
X0025000Y0135000D02*
X0002500Y0135000D01*
X0002500Y0145000D02*
X0025000Y0145000D01*
X0025000Y0155000D02*
X0002500Y0155000D01*
X0002500Y0165000D02*
X0025000Y0165000D01*
X0025000Y0175000D02*
X0002500Y0175000D01*
X0002500Y0185000D02*
X0025000Y0185000D01*
X0285000Y0180000D02*
X0307500Y0180000D01*
X0307500Y0170000D02*
X0285000Y0170000D01*
X0285000Y0160000D02*
X0307500Y0160000D01*
X0307500Y0150000D02*
X0285000Y0150000D01*
X0285000Y0140000D02*
X0307500Y0140000D01*
X0307500Y0130000D02*
X0285000Y0130000D01*
X0285000Y0120000D02*
X0307500Y0120000D01*
X0307500Y0110000D02*
X0285000Y0110000D01*
X0285000Y0100000D02*
X0307500Y0100000D01*
X0307500Y0090000D02*
X0285000Y0090000D01*
X0295000Y0090000D02*
X0317500Y0090000D01*
X0317500Y0100000D02*
X0295000Y0100000D01*
X0295000Y0110000D02*
X0317500Y0110000D01*
X0317500Y0120000D02*
X0295000Y0120000D01*
X0295000Y0130000D02*
X0317500Y0130000D01*
X0317500Y0140000D02*
X0295000Y0140000D01*
X0295000Y0150000D02*
X0317500Y0150000D01*
X0317500Y0160000D02*
X0295000Y0160000D01*
X0295000Y0170000D02*
X0317500Y0170000D01*
X0317500Y0180000D02*
X0295000Y0180000D01*
D13*
X0293500Y0180000D03*
X0293500Y0170000D03*
X0293500Y0160000D03*
X0293500Y0150000D03*
X0293500Y0140000D03*
X0293500Y0130000D03*
X0293500Y0120000D03*
X0293500Y0110000D03*
X0293500Y0100000D03*
X0293500Y0090000D03*
X0283500Y0090000D03*
X0283500Y0100000D03*
X0283500Y0110000D03*
X0283500Y0120000D03*
X0283500Y0130000D03*
X0283500Y0140000D03*
X0283500Y0150000D03*
X0283500Y0160000D03*
X0283500Y0170000D03*
X0283500Y0180000D03*
X0036500Y0175000D03*
X0036500Y0165000D03*
X0036500Y0155000D03*
X0036500Y0145000D03*
X0036500Y0135000D03*
X0036500Y0125000D03*
X0036500Y0115000D03*
X0036500Y0105000D03*
X0036500Y0095000D03*
X0026500Y0095000D03*
X0026500Y0105000D03*
X0026500Y0115000D03*
X0026500Y0125000D03*
X0026500Y0135000D03*
X0026500Y0145000D03*
X0026500Y0155000D03*
X0026500Y0165000D03*
X0026500Y0175000D03*
X0026500Y0185000D03*
X0036500Y0185000D03*
D14*
X0039500Y0185000D03*
X0039500Y0175000D03*
X0039500Y0165000D03*
X0039500Y0155000D03*
X0039500Y0145000D03*
X0039500Y0135000D03*
X0039500Y0125000D03*
X0039500Y0115000D03*
X0039500Y0105000D03*
X0039500Y0095000D03*
X0049500Y0095000D03*
X0049500Y0105000D03*
X0049500Y0115000D03*
X0049500Y0125000D03*
X0049500Y0135000D03*
X0049500Y0145000D03*
X0049500Y0155000D03*
X0049500Y0165000D03*
X0049500Y0175000D03*
X0049500Y0185000D03*
X0270500Y0180000D03*
X0270500Y0170000D03*
X0270500Y0160000D03*
X0270500Y0150000D03*
X0270500Y0140000D03*
X0270500Y0130000D03*
X0270500Y0120000D03*
X0270500Y0110000D03*
X0270500Y0100000D03*
X0270500Y0090000D03*
X0280500Y0090000D03*
X0280500Y0100000D03*
X0280500Y0110000D03*
X0280500Y0120000D03*
X0280500Y0130000D03*
X0280500Y0140000D03*
X0280500Y0150000D03*
X0280500Y0160000D03*
X0280500Y0170000D03*
X0280500Y0180000D03*
D15*
X0279375Y0269375D02*
X0279375Y0280625D01*
X0290625Y0280625D01*
X0290625Y0269375D01*
X0279375Y0269375D01*
D16*
X0185591Y0059724D02*
X0134409Y0059724D01*
X0134409Y0050276D01*
X0128504Y0048307D01*
X0128504Y0042402D01*
X0134409Y0040433D01*
X0134409Y0006181D01*
X0134410Y0006181D01*
X0135591Y0006181D01*
X0135657Y0006179D01*
X0135723Y0006174D01*
X0135789Y0006164D01*
X0135854Y0006151D01*
X0135918Y0006135D01*
X0135981Y0006115D01*
X0136043Y0006091D01*
X0136103Y0006064D01*
X0136162Y0006034D01*
X0136219Y0006000D01*
X0136274Y0005963D01*
X0136327Y0005923D01*
X0136378Y0005881D01*
X0136426Y0005835D01*
X0136472Y0005787D01*
X0136514Y0005736D01*
X0136554Y0005683D01*
X0136591Y0005628D01*
X0136625Y0005571D01*
X0136655Y0005512D01*
X0136682Y0005452D01*
X0136706Y0005390D01*
X0136726Y0005327D01*
X0136742Y0005263D01*
X0136755Y0005198D01*
X0136765Y0005132D01*
X0136770Y0005066D01*
X0136772Y0005000D01*
X0183228Y0005000D01*
X0183229Y0005000D02*
X0183231Y0005069D01*
X0183237Y0005137D01*
X0183247Y0005205D01*
X0183261Y0005272D01*
X0183279Y0005339D01*
X0183300Y0005404D01*
X0183326Y0005468D01*
X0183355Y0005530D01*
X0183387Y0005590D01*
X0183423Y0005649D01*
X0183463Y0005705D01*
X0183505Y0005759D01*
X0183551Y0005810D01*
X0183599Y0005859D01*
X0183651Y0005905D01*
X0183705Y0005947D01*
X0183761Y0005987D01*
X0183819Y0006023D01*
X0183880Y0006055D01*
X0183942Y0006084D01*
X0184006Y0006110D01*
X0184071Y0006131D01*
X0184137Y0006149D01*
X0184205Y0006163D01*
X0184273Y0006173D01*
X0184341Y0006179D01*
X0184410Y0006181D01*
X0184409Y0006181D02*
X0185591Y0006181D01*
X0185591Y0040433D01*
X0191496Y0042402D01*
X0191496Y0048307D01*
X0185591Y0050276D01*
X0185591Y0059724D01*
X0185591Y0050276D02*
X0185591Y0040433D01*
X0179685Y0036496D02*
X0175748Y0012874D01*
X0171811Y0012874D01*
X0167874Y0036496D01*
X0152126Y0036496D02*
X0148189Y0012874D01*
X0144252Y0012874D01*
X0140315Y0036496D01*
X0134409Y0040433D02*
X0134409Y0050276D01*
X0134410Y0006181D02*
X0134408Y0006115D01*
X0134403Y0006049D01*
X0134393Y0005983D01*
X0134380Y0005918D01*
X0134364Y0005854D01*
X0134344Y0005791D01*
X0134320Y0005729D01*
X0134293Y0005669D01*
X0134263Y0005610D01*
X0134229Y0005553D01*
X0134192Y0005498D01*
X0134152Y0005445D01*
X0134110Y0005394D01*
X0134064Y0005346D01*
X0134016Y0005300D01*
X0133965Y0005258D01*
X0133912Y0005218D01*
X0133857Y0005181D01*
X0133800Y0005147D01*
X0133741Y0005117D01*
X0133681Y0005090D01*
X0133619Y0005066D01*
X0133556Y0005046D01*
X0133492Y0005030D01*
X0133427Y0005017D01*
X0133361Y0005007D01*
X0133295Y0005002D01*
X0133229Y0005000D01*
X0133228Y0005000D02*
X0132441Y0005000D01*
X0186772Y0005000D02*
X0187559Y0005000D01*
X0186772Y0005000D02*
X0186706Y0005002D01*
X0186640Y0005007D01*
X0186574Y0005017D01*
X0186509Y0005030D01*
X0186445Y0005046D01*
X0186382Y0005066D01*
X0186320Y0005090D01*
X0186260Y0005117D01*
X0186201Y0005147D01*
X0186144Y0005181D01*
X0186089Y0005218D01*
X0186036Y0005258D01*
X0185985Y0005300D01*
X0185937Y0005346D01*
X0185891Y0005394D01*
X0185849Y0005445D01*
X0185809Y0005498D01*
X0185772Y0005553D01*
X0185738Y0005610D01*
X0185708Y0005669D01*
X0185681Y0005729D01*
X0185657Y0005791D01*
X0185637Y0005854D01*
X0185621Y0005918D01*
X0185608Y0005983D01*
X0185598Y0006049D01*
X0185593Y0006115D01*
X0185591Y0006181D01*
D17*
X0183133Y0007650D02*
X0180665Y0007650D01*
X0181899Y0007650D02*
X0181899Y0011353D01*
X0180665Y0010119D01*
X0179450Y0009502D02*
X0176981Y0009502D01*
X0175767Y0008884D02*
X0175150Y0009502D01*
X0173298Y0009502D01*
X0173298Y0008267D01*
X0173915Y0007650D01*
X0175150Y0007650D01*
X0175767Y0008267D01*
X0175767Y0008884D01*
X0174533Y0010736D02*
X0173298Y0009502D01*
X0174533Y0010736D02*
X0175767Y0011353D01*
X0170850Y0011353D02*
X0170850Y0007650D01*
X0172084Y0007650D02*
X0169615Y0007650D01*
X0168401Y0008267D02*
X0168401Y0008884D01*
X0167784Y0009502D01*
X0165932Y0009502D01*
X0165932Y0008267D01*
X0166549Y0007650D01*
X0167784Y0007650D01*
X0168401Y0008267D01*
X0169615Y0010119D02*
X0170850Y0011353D01*
X0168401Y0011353D02*
X0167166Y0010736D01*
X0165932Y0009502D01*
X0164718Y0010736D02*
X0162249Y0008267D01*
X0162249Y0007650D01*
X0161034Y0008267D02*
X0160417Y0007650D01*
X0159183Y0007650D01*
X0158566Y0008267D01*
X0158566Y0008884D01*
X0159183Y0009502D01*
X0160417Y0009502D01*
X0161034Y0008884D01*
X0161034Y0008267D01*
X0160417Y0009502D02*
X0161034Y0010119D01*
X0161034Y0010736D01*
X0160417Y0011353D01*
X0159183Y0011353D01*
X0158566Y0010736D01*
X0158566Y0010119D01*
X0159183Y0009502D01*
X0157351Y0010736D02*
X0154883Y0008267D01*
X0154883Y0007650D01*
X0154883Y0011353D02*
X0157351Y0011353D01*
X0157351Y0010736D01*
X0162249Y0011353D02*
X0164718Y0011353D01*
X0164718Y0010736D01*
X0149985Y0010736D02*
X0149985Y0009502D01*
X0149368Y0008884D01*
X0147516Y0008884D01*
X0147516Y0007650D02*
X0147516Y0011353D01*
X0149368Y0011353D01*
X0149985Y0010736D01*
X0146302Y0011353D02*
X0146302Y0007650D01*
X0143833Y0007650D02*
X0143833Y0011353D01*
X0145068Y0010119D01*
X0146302Y0011353D01*
X0142619Y0010119D02*
X0142619Y0007650D01*
X0142619Y0009502D02*
X0140150Y0009502D01*
X0140150Y0010119D02*
X0141384Y0011353D01*
X0142619Y0010119D01*
X0140150Y0010119D02*
X0140150Y0007650D01*
M02*
