G75*
%MOIN*%
%OFA0B0*%
%FSLAX25Y25*%
%IPPOS*%
%LPD*%
%AMOC8*
5,1,8,0,0,1.08239X$1,22.5*
%
%ADD10R,0.06496X0.06496*%
%ADD11C,0.06496*%
%ADD12R,0.01969X0.01378*%
%ADD13R,0.05906X0.05118*%
%ADD14C,0.01000*%
%ADD15C,0.01600*%
%ADD16C,0.02978*%
%ADD17R,0.05906X0.05906*%
%ADD18C,0.05906*%
D10*
X0078300Y0031300D03*
X0078240Y0064091D03*
X0071058Y0304445D03*
X0061058Y0304445D03*
X0175758Y0304445D03*
X0185533Y0304445D03*
D11*
X0185533Y0294445D03*
X0185533Y0284445D03*
X0185533Y0274445D03*
X0185533Y0264445D03*
X0185533Y0254445D03*
X0185533Y0244445D03*
X0185533Y0234445D03*
X0185533Y0224445D03*
X0185533Y0214445D03*
X0175758Y0214445D03*
X0175758Y0224445D03*
X0175758Y0234445D03*
X0175758Y0244445D03*
X0175758Y0254445D03*
X0175758Y0264445D03*
X0175758Y0274445D03*
X0175758Y0284445D03*
X0175758Y0294445D03*
X0071058Y0294445D03*
X0071058Y0284445D03*
X0071058Y0274445D03*
X0071058Y0264445D03*
X0071058Y0254445D03*
X0071058Y0244445D03*
X0071058Y0234445D03*
X0071058Y0224445D03*
X0071058Y0214445D03*
X0061058Y0214445D03*
X0061058Y0224445D03*
X0061058Y0234445D03*
X0061058Y0244445D03*
X0061058Y0254445D03*
X0061058Y0264445D03*
X0061058Y0274445D03*
X0061058Y0284445D03*
X0061058Y0294445D03*
X0088240Y0064091D03*
X0098240Y0064091D03*
X0108240Y0064091D03*
X0118240Y0064091D03*
X0128240Y0064091D03*
X0138240Y0064091D03*
X0148240Y0064091D03*
X0158240Y0064091D03*
X0168240Y0064091D03*
X0168300Y0031300D03*
X0158300Y0031300D03*
X0148300Y0031300D03*
X0138300Y0031300D03*
X0128300Y0031300D03*
X0118300Y0031300D03*
X0108300Y0031300D03*
X0098300Y0031300D03*
X0088300Y0031300D03*
D12*
X0116586Y0336566D03*
X0116586Y0339125D03*
X0116586Y0341684D03*
X0116586Y0344243D03*
X0124657Y0344243D03*
X0124657Y0341684D03*
X0124657Y0339125D03*
X0124657Y0336566D03*
D13*
X0125608Y0125266D03*
X0125608Y0117786D03*
X0141006Y0117286D03*
X0141006Y0124766D03*
X0156754Y0124766D03*
X0156754Y0117286D03*
X0109800Y0117560D03*
X0109800Y0125040D03*
X0094384Y0125266D03*
X0094384Y0117786D03*
X0079894Y0117783D03*
X0079894Y0125263D03*
X0062300Y0125040D03*
X0062300Y0117560D03*
X0044800Y0117560D03*
X0044800Y0125040D03*
D14*
X0044800Y0133800D01*
X0044800Y0141300D02*
X0044800Y0238800D01*
X0060445Y0254445D01*
X0061058Y0254445D01*
X0065800Y0249187D02*
X0071058Y0254445D01*
X0065800Y0249187D02*
X0065800Y0242300D01*
X0061058Y0237558D01*
X0061058Y0234445D01*
X0061058Y0224445D02*
X0052913Y0216300D01*
X0052300Y0216300D01*
X0052300Y0153800D01*
X0072300Y0133800D01*
X0072300Y0118800D01*
X0074800Y0116300D01*
X0078411Y0116300D01*
X0079894Y0117783D01*
X0079894Y0125263D02*
X0079800Y0125357D01*
X0079800Y0133800D01*
X0087300Y0133800D02*
X0087300Y0118800D01*
X0088314Y0117786D01*
X0094384Y0117786D01*
X0094384Y0125266D02*
X0094384Y0133384D01*
X0094800Y0133800D01*
X0087300Y0133800D02*
X0061058Y0160042D01*
X0061058Y0214445D01*
X0037300Y0240687D02*
X0061058Y0264445D01*
X0060193Y0280097D02*
X0058595Y0280759D01*
X0057372Y0281982D01*
X0056710Y0283580D01*
X0056710Y0285310D01*
X0057372Y0286908D01*
X0058595Y0288131D01*
X0060193Y0288793D01*
X0061923Y0288793D01*
X0063521Y0288131D01*
X0064744Y0286908D01*
X0065406Y0285310D01*
X0065406Y0283580D01*
X0064744Y0281982D01*
X0063521Y0280759D01*
X0061923Y0280097D01*
X0060193Y0280097D01*
X0060023Y0280168D02*
X0009800Y0280168D01*
X0009800Y0281166D02*
X0058188Y0281166D01*
X0057297Y0282165D02*
X0009800Y0282165D01*
X0009800Y0283163D02*
X0056883Y0283163D01*
X0056710Y0284162D02*
X0009800Y0284162D01*
X0009800Y0285160D02*
X0056710Y0285160D01*
X0057062Y0286159D02*
X0009800Y0286159D01*
X0009800Y0287157D02*
X0057621Y0287157D01*
X0058655Y0288156D02*
X0009800Y0288156D01*
X0009800Y0289154D02*
X0202300Y0289154D01*
X0202300Y0288156D02*
X0187937Y0288156D01*
X0187996Y0288131D02*
X0186398Y0288793D01*
X0184668Y0288793D01*
X0183070Y0288131D01*
X0181847Y0286908D01*
X0181185Y0285310D01*
X0181185Y0283580D01*
X0181847Y0281982D01*
X0183070Y0280759D01*
X0184668Y0280097D01*
X0186398Y0280097D01*
X0187996Y0280759D01*
X0189219Y0281982D01*
X0189881Y0283580D01*
X0189881Y0285310D01*
X0189219Y0286908D01*
X0187996Y0288131D01*
X0188970Y0287157D02*
X0202300Y0287157D01*
X0202300Y0286159D02*
X0189530Y0286159D01*
X0189881Y0285160D02*
X0202300Y0285160D01*
X0202300Y0284162D02*
X0189881Y0284162D01*
X0189709Y0283163D02*
X0202300Y0283163D01*
X0202300Y0282165D02*
X0189295Y0282165D01*
X0188403Y0281166D02*
X0202300Y0281166D01*
X0202300Y0280168D02*
X0186569Y0280168D01*
X0184498Y0280168D02*
X0176794Y0280168D01*
X0176623Y0280097D02*
X0178221Y0280759D01*
X0179444Y0281982D01*
X0180106Y0283580D01*
X0180106Y0285310D01*
X0179444Y0286908D01*
X0178221Y0288131D01*
X0176623Y0288793D01*
X0174893Y0288793D01*
X0173295Y0288131D01*
X0172072Y0286908D01*
X0171410Y0285310D01*
X0171410Y0283580D01*
X0171768Y0282717D01*
X0167851Y0278800D01*
X0009800Y0278800D01*
X0009800Y0318800D01*
X0047300Y0318800D01*
X0047300Y0357000D01*
X0202300Y0357000D01*
X0202300Y0278800D01*
X0172376Y0278800D01*
X0174030Y0280454D01*
X0174893Y0280097D01*
X0176623Y0280097D01*
X0174723Y0280168D02*
X0173744Y0280168D01*
X0172745Y0279169D02*
X0202300Y0279169D01*
X0202300Y0290153D02*
X0186533Y0290153D01*
X0186398Y0290097D02*
X0187996Y0290759D01*
X0189219Y0291982D01*
X0189881Y0293580D01*
X0189881Y0295310D01*
X0189219Y0296908D01*
X0187996Y0298131D01*
X0186398Y0298793D01*
X0184668Y0298793D01*
X0183070Y0298131D01*
X0181847Y0296908D01*
X0181185Y0295310D01*
X0181185Y0293580D01*
X0181847Y0291982D01*
X0183070Y0290759D01*
X0184668Y0290097D01*
X0186398Y0290097D01*
X0184534Y0290153D02*
X0176758Y0290153D01*
X0176623Y0290097D02*
X0178221Y0290759D01*
X0179444Y0291982D01*
X0180106Y0293580D01*
X0180106Y0295310D01*
X0179444Y0296908D01*
X0178221Y0298131D01*
X0176623Y0298793D01*
X0174893Y0298793D01*
X0173295Y0298131D01*
X0172072Y0296908D01*
X0171410Y0295310D01*
X0171410Y0293580D01*
X0172072Y0291982D01*
X0173295Y0290759D01*
X0174893Y0290097D01*
X0176623Y0290097D01*
X0174759Y0290153D02*
X0073093Y0290153D01*
X0072881Y0290045D02*
X0073547Y0290384D01*
X0074151Y0290823D01*
X0074680Y0291352D01*
X0075119Y0291956D01*
X0075458Y0292622D01*
X0075689Y0293333D01*
X0075786Y0293945D01*
X0071558Y0293945D01*
X0071558Y0289717D01*
X0072170Y0289814D01*
X0072881Y0290045D01*
X0071558Y0290153D02*
X0070558Y0290153D01*
X0070558Y0289717D02*
X0070558Y0293945D01*
X0066330Y0293945D01*
X0066427Y0293333D01*
X0066658Y0292622D01*
X0066997Y0291956D01*
X0067437Y0291352D01*
X0067965Y0290823D01*
X0068570Y0290384D01*
X0069236Y0290045D01*
X0069946Y0289814D01*
X0070558Y0289717D01*
X0070193Y0288793D02*
X0068595Y0288131D01*
X0067372Y0286908D01*
X0066710Y0285310D01*
X0066710Y0283580D01*
X0067372Y0281982D01*
X0068595Y0280759D01*
X0070193Y0280097D01*
X0071923Y0280097D01*
X0073521Y0280759D01*
X0074744Y0281982D01*
X0075406Y0283580D01*
X0075406Y0285310D01*
X0074744Y0286908D01*
X0073521Y0288131D01*
X0071923Y0288793D01*
X0070193Y0288793D01*
X0068655Y0288156D02*
X0063462Y0288156D01*
X0064495Y0287157D02*
X0067621Y0287157D01*
X0067062Y0286159D02*
X0065055Y0286159D01*
X0065406Y0285160D02*
X0066710Y0285160D01*
X0066710Y0284162D02*
X0065406Y0284162D01*
X0065234Y0283163D02*
X0066883Y0283163D01*
X0067297Y0282165D02*
X0064820Y0282165D01*
X0063928Y0281166D02*
X0068188Y0281166D01*
X0070023Y0280168D02*
X0062094Y0280168D01*
X0061923Y0290097D02*
X0060193Y0290097D01*
X0058595Y0290759D01*
X0057372Y0291982D01*
X0056710Y0293580D01*
X0056710Y0295310D01*
X0057372Y0296908D01*
X0058595Y0298131D01*
X0060193Y0298793D01*
X0061923Y0298793D01*
X0063521Y0298131D01*
X0064744Y0296908D01*
X0065406Y0295310D01*
X0065406Y0293580D01*
X0064744Y0291982D01*
X0063521Y0290759D01*
X0061923Y0290097D01*
X0062058Y0290153D02*
X0069024Y0290153D01*
X0067637Y0291151D02*
X0063914Y0291151D01*
X0064814Y0292150D02*
X0066899Y0292150D01*
X0066487Y0293148D02*
X0065227Y0293148D01*
X0065406Y0294147D02*
X0070558Y0294147D01*
X0070558Y0293945D02*
X0070558Y0294945D01*
X0066330Y0294945D01*
X0066427Y0295557D01*
X0066658Y0296267D01*
X0066997Y0296933D01*
X0067437Y0297538D01*
X0067965Y0298066D01*
X0068570Y0298506D01*
X0069236Y0298845D01*
X0069946Y0299076D01*
X0070558Y0299173D01*
X0070558Y0294945D01*
X0071558Y0294945D01*
X0071558Y0299173D01*
X0072170Y0299076D01*
X0072881Y0298845D01*
X0073547Y0298506D01*
X0074151Y0298066D01*
X0074680Y0297538D01*
X0075119Y0296933D01*
X0075458Y0296267D01*
X0075689Y0295557D01*
X0075786Y0294945D01*
X0071558Y0294945D01*
X0071558Y0293945D01*
X0070558Y0293945D01*
X0071058Y0294445D02*
X0065406Y0300097D01*
X0057355Y0300097D01*
X0051151Y0306300D01*
X0017300Y0306300D01*
X0009800Y0306129D02*
X0056710Y0306129D01*
X0056710Y0307127D02*
X0009800Y0307127D01*
X0009800Y0308126D02*
X0056710Y0308126D01*
X0056710Y0308149D02*
X0056710Y0300741D01*
X0057355Y0300097D01*
X0064762Y0300097D01*
X0065406Y0300741D01*
X0065406Y0308149D01*
X0064762Y0308793D01*
X0062658Y0308793D01*
X0062658Y0331896D01*
X0073406Y0342643D01*
X0108200Y0342643D01*
X0108200Y0340637D01*
X0109137Y0339700D01*
X0111637Y0337200D01*
X0114102Y0337200D01*
X0114102Y0336566D01*
X0114102Y0335680D01*
X0114204Y0335298D01*
X0114401Y0334956D01*
X0114681Y0334677D01*
X0115023Y0334479D01*
X0115404Y0334377D01*
X0116586Y0334377D01*
X0117768Y0334377D01*
X0118149Y0334479D01*
X0118491Y0334677D01*
X0118770Y0334956D01*
X0118968Y0335298D01*
X0119070Y0335680D01*
X0119070Y0336566D01*
X0116586Y0336566D01*
X0116586Y0336566D01*
X0116586Y0334377D01*
X0116586Y0336566D01*
X0116586Y0336566D01*
X0119070Y0336566D01*
X0119070Y0337453D01*
X0118968Y0337834D01*
X0118770Y0338176D01*
X0118670Y0338276D01*
X0118670Y0339974D01*
X0118770Y0340074D01*
X0118968Y0340416D01*
X0119070Y0340798D01*
X0119070Y0341684D01*
X0116586Y0341684D01*
X0116586Y0341684D01*
X0119070Y0341684D01*
X0119070Y0342571D01*
X0118968Y0342952D01*
X0118770Y0343294D01*
X0118670Y0343395D01*
X0118670Y0345388D01*
X0118026Y0346032D01*
X0115146Y0346032D01*
X0114957Y0345843D01*
X0072081Y0345843D01*
X0059458Y0333221D01*
X0059458Y0308793D01*
X0057355Y0308793D01*
X0056710Y0308149D01*
X0059458Y0309124D02*
X0009800Y0309124D01*
X0009800Y0310123D02*
X0059458Y0310123D01*
X0059458Y0311121D02*
X0009800Y0311121D01*
X0009800Y0312120D02*
X0059458Y0312120D01*
X0059458Y0313118D02*
X0009800Y0313118D01*
X0009800Y0314117D02*
X0059458Y0314117D01*
X0059458Y0315115D02*
X0009800Y0315115D01*
X0009800Y0316114D02*
X0059458Y0316114D01*
X0059458Y0317112D02*
X0009800Y0317112D01*
X0009800Y0318111D02*
X0059458Y0318111D01*
X0059458Y0319109D02*
X0047300Y0319109D01*
X0047300Y0320108D02*
X0059458Y0320108D01*
X0059458Y0321106D02*
X0047300Y0321106D01*
X0047300Y0322105D02*
X0059458Y0322105D01*
X0059458Y0323103D02*
X0047300Y0323103D01*
X0047300Y0324102D02*
X0059458Y0324102D01*
X0059458Y0325101D02*
X0047300Y0325101D01*
X0047300Y0326099D02*
X0059458Y0326099D01*
X0059458Y0327098D02*
X0047300Y0327098D01*
X0047300Y0328096D02*
X0059458Y0328096D01*
X0059458Y0329095D02*
X0047300Y0329095D01*
X0047300Y0330093D02*
X0059458Y0330093D01*
X0059458Y0331092D02*
X0047300Y0331092D01*
X0047300Y0332090D02*
X0059458Y0332090D01*
X0059458Y0333089D02*
X0047300Y0333089D01*
X0047300Y0334087D02*
X0060324Y0334087D01*
X0061323Y0335086D02*
X0047300Y0335086D01*
X0047300Y0336084D02*
X0062321Y0336084D01*
X0063320Y0337083D02*
X0047300Y0337083D01*
X0047300Y0338081D02*
X0064318Y0338081D01*
X0065317Y0339080D02*
X0047300Y0339080D01*
X0047300Y0340078D02*
X0066315Y0340078D01*
X0067314Y0341077D02*
X0047300Y0341077D01*
X0047300Y0342075D02*
X0068312Y0342075D01*
X0069311Y0343074D02*
X0047300Y0343074D01*
X0047300Y0344072D02*
X0070309Y0344072D01*
X0071308Y0345071D02*
X0047300Y0345071D01*
X0047300Y0346069D02*
X0122688Y0346069D01*
X0122751Y0346133D02*
X0122472Y0345853D01*
X0122275Y0345511D01*
X0122172Y0345130D01*
X0122172Y0344243D01*
X0122172Y0343357D01*
X0122275Y0342975D01*
X0122472Y0342633D01*
X0122572Y0342533D01*
X0122572Y0340540D01*
X0122707Y0340405D01*
X0122572Y0340270D01*
X0122572Y0337981D01*
X0122707Y0337846D01*
X0122572Y0337711D01*
X0122572Y0335422D01*
X0123217Y0334777D01*
X0126097Y0334777D01*
X0126286Y0334966D01*
X0162550Y0334966D01*
X0162605Y0334833D01*
X0163333Y0334105D01*
X0164285Y0333711D01*
X0165315Y0333711D01*
X0166267Y0334105D01*
X0166995Y0334833D01*
X0167389Y0335785D01*
X0167389Y0336815D01*
X0166995Y0337767D01*
X0166267Y0338495D01*
X0165315Y0338889D01*
X0164285Y0338889D01*
X0163333Y0338495D01*
X0163005Y0338166D01*
X0158929Y0338166D01*
X0159225Y0338462D01*
X0159474Y0338711D01*
X0160315Y0338711D01*
X0161267Y0339105D01*
X0161995Y0339833D01*
X0162389Y0340785D01*
X0162389Y0341815D01*
X0161995Y0342767D01*
X0161267Y0343495D01*
X0160315Y0343889D01*
X0159285Y0343889D01*
X0158333Y0343495D01*
X0157605Y0342767D01*
X0157211Y0341815D01*
X0157211Y0340974D01*
X0156962Y0340725D01*
X0138988Y0340725D01*
X0139474Y0341211D01*
X0140315Y0341211D01*
X0141267Y0341605D01*
X0141995Y0342333D01*
X0142389Y0343285D01*
X0142389Y0344315D01*
X0141995Y0345267D01*
X0141267Y0345995D01*
X0140315Y0346389D01*
X0139285Y0346389D01*
X0138333Y0345995D01*
X0137605Y0345267D01*
X0137211Y0344315D01*
X0137211Y0343474D01*
X0137022Y0343284D01*
X0127121Y0343284D01*
X0127141Y0343357D01*
X0127141Y0344243D01*
X0124657Y0344243D01*
X0124657Y0344243D01*
X0127141Y0344243D01*
X0127141Y0345130D01*
X0127039Y0345511D01*
X0126841Y0345853D01*
X0126562Y0346133D01*
X0126220Y0346330D01*
X0125838Y0346432D01*
X0124657Y0346432D01*
X0124657Y0344243D01*
X0124213Y0343800D01*
X0119800Y0343800D01*
X0118550Y0342550D01*
X0119800Y0341300D01*
X0119800Y0338800D01*
X0117566Y0336566D01*
X0116586Y0336566D01*
X0116586Y0300586D01*
X0109800Y0293800D01*
X0117300Y0271300D02*
X0147300Y0271300D01*
X0147300Y0261300D02*
X0162300Y0276300D01*
X0167613Y0276300D01*
X0175758Y0284445D01*
X0173903Y0286300D01*
X0172321Y0287157D02*
X0074495Y0287157D01*
X0075055Y0286159D02*
X0171762Y0286159D01*
X0171410Y0285160D02*
X0075406Y0285160D01*
X0075406Y0284162D02*
X0171410Y0284162D01*
X0171583Y0283163D02*
X0075234Y0283163D01*
X0074820Y0282165D02*
X0171215Y0282165D01*
X0170217Y0281166D02*
X0073928Y0281166D01*
X0072094Y0280168D02*
X0169218Y0280168D01*
X0168220Y0279169D02*
X0009800Y0279169D01*
X0009800Y0290153D02*
X0060059Y0290153D01*
X0058203Y0291151D02*
X0009800Y0291151D01*
X0009800Y0292150D02*
X0057303Y0292150D01*
X0056889Y0293148D02*
X0009800Y0293148D01*
X0009800Y0294147D02*
X0056710Y0294147D01*
X0056710Y0295145D02*
X0009800Y0295145D01*
X0009800Y0296144D02*
X0057056Y0296144D01*
X0057607Y0297142D02*
X0009800Y0297142D01*
X0009800Y0298141D02*
X0058619Y0298141D01*
X0057314Y0300138D02*
X0009800Y0300138D01*
X0009800Y0301136D02*
X0056710Y0301136D01*
X0056710Y0302135D02*
X0009800Y0302135D01*
X0009800Y0303133D02*
X0056710Y0303133D01*
X0056710Y0304132D02*
X0009800Y0304132D01*
X0009800Y0305130D02*
X0056710Y0305130D01*
X0061058Y0304445D02*
X0061058Y0332558D01*
X0072743Y0344243D01*
X0109800Y0344243D01*
X0109800Y0341300D01*
X0112300Y0338800D01*
X0116261Y0338800D01*
X0116586Y0339125D01*
X0116911Y0338800D01*
X0118670Y0339080D02*
X0122572Y0339080D01*
X0122572Y0340078D02*
X0118773Y0340078D01*
X0119070Y0341077D02*
X0122572Y0341077D01*
X0122572Y0342075D02*
X0119070Y0342075D01*
X0118550Y0342550D02*
X0117684Y0341684D01*
X0116586Y0341684D01*
X0114102Y0341684D01*
X0114102Y0340798D01*
X0114204Y0340416D01*
X0114213Y0340400D01*
X0112963Y0340400D01*
X0111400Y0341963D01*
X0111400Y0342643D01*
X0114121Y0342643D01*
X0114102Y0342571D01*
X0114102Y0341684D01*
X0116586Y0341684D01*
X0116586Y0341684D01*
X0114102Y0342075D02*
X0111400Y0342075D01*
X0112286Y0341077D02*
X0114102Y0341077D01*
X0114102Y0337083D02*
X0067845Y0337083D01*
X0066847Y0336084D02*
X0114102Y0336084D01*
X0114102Y0336566D02*
X0116586Y0336566D01*
X0116586Y0336566D01*
X0114102Y0336566D01*
X0114327Y0335086D02*
X0065848Y0335086D01*
X0064850Y0334087D02*
X0163377Y0334087D01*
X0164800Y0336300D02*
X0164534Y0336566D01*
X0124657Y0336566D01*
X0122572Y0336084D02*
X0119070Y0336084D01*
X0119070Y0337083D02*
X0122572Y0337083D01*
X0122572Y0338081D02*
X0118825Y0338081D01*
X0118845Y0335086D02*
X0122908Y0335086D01*
X0124657Y0339125D02*
X0157625Y0339125D01*
X0159800Y0341300D01*
X0157912Y0343074D02*
X0142301Y0343074D01*
X0142389Y0344072D02*
X0202300Y0344072D01*
X0202300Y0343074D02*
X0161688Y0343074D01*
X0162281Y0342075D02*
X0202300Y0342075D01*
X0202300Y0341077D02*
X0162389Y0341077D01*
X0162096Y0340078D02*
X0202300Y0340078D01*
X0202300Y0339080D02*
X0161205Y0339080D01*
X0157211Y0341077D02*
X0139339Y0341077D01*
X0137684Y0341684D02*
X0139800Y0343800D01*
X0141737Y0342075D02*
X0157319Y0342075D01*
X0166680Y0338081D02*
X0202300Y0338081D01*
X0202300Y0337083D02*
X0167278Y0337083D01*
X0167389Y0336084D02*
X0202300Y0336084D01*
X0202300Y0335086D02*
X0167099Y0335086D01*
X0166223Y0334087D02*
X0202300Y0334087D01*
X0202300Y0333089D02*
X0063851Y0333089D01*
X0062853Y0332090D02*
X0202300Y0332090D01*
X0202300Y0331092D02*
X0062658Y0331092D01*
X0062658Y0330093D02*
X0202300Y0330093D01*
X0202300Y0329095D02*
X0062658Y0329095D01*
X0062658Y0328096D02*
X0202300Y0328096D01*
X0202300Y0327098D02*
X0062658Y0327098D01*
X0062658Y0326099D02*
X0202300Y0326099D01*
X0202300Y0325101D02*
X0062658Y0325101D01*
X0062658Y0324102D02*
X0202300Y0324102D01*
X0202300Y0323103D02*
X0062658Y0323103D01*
X0062658Y0322105D02*
X0202300Y0322105D01*
X0202300Y0321106D02*
X0062658Y0321106D01*
X0062658Y0320108D02*
X0202300Y0320108D01*
X0202300Y0319109D02*
X0062658Y0319109D01*
X0062658Y0318111D02*
X0202300Y0318111D01*
X0202300Y0317112D02*
X0062658Y0317112D01*
X0062658Y0316114D02*
X0202300Y0316114D01*
X0202300Y0315115D02*
X0062658Y0315115D01*
X0062658Y0314117D02*
X0202300Y0314117D01*
X0202300Y0313118D02*
X0062658Y0313118D01*
X0062658Y0312120D02*
X0202300Y0312120D01*
X0202300Y0311121D02*
X0165961Y0311121D01*
X0166267Y0310995D02*
X0165315Y0311389D01*
X0164285Y0311389D01*
X0163333Y0310995D01*
X0162739Y0310400D01*
X0156861Y0310400D01*
X0156267Y0310995D01*
X0155315Y0311389D01*
X0154285Y0311389D01*
X0153333Y0310995D01*
X0152605Y0310267D01*
X0152211Y0309315D01*
X0152211Y0308285D01*
X0152605Y0307333D01*
X0153333Y0306605D01*
X0154285Y0306211D01*
X0155315Y0306211D01*
X0156267Y0306605D01*
X0156861Y0307200D01*
X0162739Y0307200D01*
X0163333Y0306605D01*
X0164285Y0306211D01*
X0165315Y0306211D01*
X0166267Y0306605D01*
X0166995Y0307333D01*
X0167389Y0308285D01*
X0167389Y0309315D01*
X0166995Y0310267D01*
X0166267Y0310995D01*
X0167054Y0310123D02*
X0202300Y0310123D01*
X0202300Y0309124D02*
X0189235Y0309124D01*
X0189360Y0309091D02*
X0188979Y0309193D01*
X0186033Y0309193D01*
X0186033Y0304945D01*
X0185033Y0304945D01*
X0185033Y0303945D01*
X0180785Y0303945D01*
X0180785Y0300999D01*
X0180887Y0300618D01*
X0181085Y0300276D01*
X0181364Y0299997D01*
X0181706Y0299799D01*
X0182088Y0299697D01*
X0185033Y0299697D01*
X0185033Y0303945D01*
X0186033Y0303945D01*
X0186033Y0299697D01*
X0188979Y0299697D01*
X0189360Y0299799D01*
X0189702Y0299997D01*
X0189982Y0300276D01*
X0190179Y0300618D01*
X0190281Y0300999D01*
X0190281Y0303945D01*
X0186033Y0303945D01*
X0186033Y0304945D01*
X0190281Y0304945D01*
X0190281Y0307890D01*
X0190179Y0308272D01*
X0189982Y0308614D01*
X0189702Y0308893D01*
X0189360Y0309091D01*
X0190218Y0308126D02*
X0202300Y0308126D01*
X0202300Y0307127D02*
X0190281Y0307127D01*
X0190281Y0306129D02*
X0202300Y0306129D01*
X0202300Y0305130D02*
X0190281Y0305130D01*
X0190281Y0303133D02*
X0202300Y0303133D01*
X0202300Y0302135D02*
X0190281Y0302135D01*
X0190281Y0301136D02*
X0202300Y0301136D01*
X0202300Y0300138D02*
X0189843Y0300138D01*
X0187973Y0298141D02*
X0202300Y0298141D01*
X0202300Y0299139D02*
X0071771Y0299139D01*
X0071558Y0299139D02*
X0070558Y0299139D01*
X0070346Y0299139D02*
X0009800Y0299139D01*
X0047300Y0347068D02*
X0202300Y0347068D01*
X0202300Y0348066D02*
X0047300Y0348066D01*
X0047300Y0349065D02*
X0202300Y0349065D01*
X0202300Y0350063D02*
X0047300Y0350063D01*
X0047300Y0351062D02*
X0202300Y0351062D01*
X0202300Y0352060D02*
X0047300Y0352060D01*
X0047300Y0353059D02*
X0202300Y0353059D01*
X0202300Y0354057D02*
X0047300Y0354057D01*
X0047300Y0355056D02*
X0202300Y0355056D01*
X0202300Y0356054D02*
X0047300Y0356054D01*
X0068844Y0338081D02*
X0110756Y0338081D01*
X0109758Y0339080D02*
X0069842Y0339080D01*
X0070841Y0340078D02*
X0108759Y0340078D01*
X0108200Y0341077D02*
X0071839Y0341077D01*
X0072838Y0342075D02*
X0108200Y0342075D01*
X0109800Y0344243D02*
X0116586Y0344243D01*
X0116857Y0344243D01*
X0118670Y0344072D02*
X0122172Y0344072D01*
X0122172Y0344243D02*
X0124657Y0344243D01*
X0127743Y0344243D01*
X0132300Y0348800D01*
X0182300Y0348800D01*
X0184800Y0346300D01*
X0184800Y0305178D01*
X0185533Y0304445D01*
X0185033Y0304132D02*
X0180106Y0304132D01*
X0180106Y0305130D02*
X0180785Y0305130D01*
X0180785Y0304945D02*
X0180785Y0307890D01*
X0180887Y0308272D01*
X0181085Y0308614D01*
X0181364Y0308893D01*
X0181706Y0309091D01*
X0182088Y0309193D01*
X0185033Y0309193D01*
X0185033Y0304945D01*
X0180785Y0304945D01*
X0180785Y0306129D02*
X0180106Y0306129D01*
X0180106Y0307127D02*
X0180785Y0307127D01*
X0180848Y0308126D02*
X0180106Y0308126D01*
X0180106Y0308149D02*
X0179462Y0308793D01*
X0172055Y0308793D01*
X0171410Y0308149D01*
X0171410Y0300741D01*
X0172055Y0300097D01*
X0179462Y0300097D01*
X0180106Y0300741D01*
X0180106Y0308149D01*
X0181832Y0309124D02*
X0167389Y0309124D01*
X0167323Y0308126D02*
X0171410Y0308126D01*
X0171410Y0307127D02*
X0166789Y0307127D01*
X0164800Y0308800D02*
X0154800Y0308800D01*
X0153639Y0311121D02*
X0062658Y0311121D01*
X0062658Y0310123D02*
X0152546Y0310123D01*
X0152211Y0309124D02*
X0062658Y0309124D01*
X0065406Y0308126D02*
X0066710Y0308126D01*
X0066710Y0308149D02*
X0066710Y0300741D01*
X0067355Y0300097D01*
X0074762Y0300097D01*
X0075406Y0300741D01*
X0075406Y0308149D01*
X0074762Y0308793D01*
X0067355Y0308793D01*
X0066710Y0308149D01*
X0066710Y0307127D02*
X0065406Y0307127D01*
X0065406Y0306129D02*
X0066710Y0306129D01*
X0066710Y0305130D02*
X0065406Y0305130D01*
X0065406Y0304132D02*
X0066710Y0304132D01*
X0066710Y0303133D02*
X0065406Y0303133D01*
X0065406Y0302135D02*
X0066710Y0302135D01*
X0066710Y0301136D02*
X0065406Y0301136D01*
X0064803Y0300138D02*
X0067314Y0300138D01*
X0068067Y0298141D02*
X0063498Y0298141D01*
X0064510Y0297142D02*
X0067149Y0297142D01*
X0066618Y0296144D02*
X0065061Y0296144D01*
X0065406Y0295145D02*
X0066362Y0295145D01*
X0070558Y0295145D02*
X0071558Y0295145D01*
X0071558Y0294147D02*
X0171410Y0294147D01*
X0171410Y0295145D02*
X0075755Y0295145D01*
X0075499Y0296144D02*
X0171756Y0296144D01*
X0172307Y0297142D02*
X0074967Y0297142D01*
X0074049Y0298141D02*
X0173319Y0298141D01*
X0172014Y0300138D02*
X0074803Y0300138D01*
X0075406Y0301136D02*
X0171410Y0301136D01*
X0171410Y0302135D02*
X0075406Y0302135D01*
X0075406Y0303133D02*
X0171410Y0303133D01*
X0171410Y0304132D02*
X0075406Y0304132D01*
X0075406Y0305130D02*
X0171410Y0305130D01*
X0171410Y0306129D02*
X0075406Y0306129D01*
X0075406Y0307127D02*
X0152811Y0307127D01*
X0152277Y0308126D02*
X0075406Y0308126D01*
X0071558Y0298141D02*
X0070558Y0298141D01*
X0070558Y0297142D02*
X0071558Y0297142D01*
X0071558Y0296144D02*
X0070558Y0296144D01*
X0070558Y0293148D02*
X0071558Y0293148D01*
X0071558Y0292150D02*
X0070558Y0292150D01*
X0070558Y0291151D02*
X0071558Y0291151D01*
X0073462Y0288156D02*
X0173355Y0288156D01*
X0172903Y0291151D02*
X0074479Y0291151D01*
X0075218Y0292150D02*
X0172003Y0292150D01*
X0171589Y0293148D02*
X0075629Y0293148D01*
X0037300Y0240687D02*
X0037300Y0118800D01*
X0038540Y0117560D01*
X0044800Y0117560D01*
X0052300Y0121300D02*
X0052300Y0133800D01*
X0044800Y0141300D01*
X0052300Y0121300D02*
X0054800Y0118800D01*
X0061060Y0118800D01*
X0062300Y0117560D01*
X0062300Y0125040D02*
X0062300Y0133800D01*
X0078240Y0064091D02*
X0078240Y0029740D01*
X0077300Y0028800D01*
X0077300Y0030300D01*
X0098240Y0031360D02*
X0098240Y0064091D01*
X0088300Y0064031D02*
X0088240Y0064091D01*
X0108240Y0064091D02*
X0108240Y0031360D01*
X0118240Y0031360D02*
X0118240Y0064091D01*
X0109254Y0065105D02*
X0108624Y0064476D01*
X0108240Y0064091D01*
X0128240Y0064091D02*
X0128240Y0029740D01*
X0127300Y0028800D01*
X0127300Y0030300D01*
X0138240Y0030360D02*
X0139800Y0028800D01*
X0139800Y0029800D01*
X0138240Y0030360D02*
X0138240Y0064091D01*
X0148240Y0064091D02*
X0148300Y0064031D01*
X0158240Y0064091D02*
X0158240Y0031360D01*
X0158300Y0031300D01*
X0168240Y0031360D02*
X0168300Y0031300D01*
X0168240Y0031360D02*
X0168240Y0064091D01*
X0163286Y0117286D02*
X0157300Y0117286D01*
X0156754Y0117286D01*
X0163286Y0117286D02*
X0164800Y0118800D01*
X0164800Y0193800D01*
X0154800Y0203800D01*
X0154800Y0246300D01*
X0147300Y0256300D02*
X0147300Y0118800D01*
X0142520Y0118800D01*
X0141006Y0117286D01*
X0134800Y0121300D02*
X0134800Y0261300D01*
X0147300Y0261300D01*
X0178162Y0288156D02*
X0183130Y0288156D01*
X0182096Y0287157D02*
X0179195Y0287157D01*
X0179755Y0286159D02*
X0181537Y0286159D01*
X0181185Y0285160D02*
X0180106Y0285160D01*
X0180106Y0284162D02*
X0181185Y0284162D01*
X0181358Y0283163D02*
X0179934Y0283163D01*
X0179520Y0282165D02*
X0181772Y0282165D01*
X0182663Y0281166D02*
X0178628Y0281166D01*
X0178614Y0291151D02*
X0182678Y0291151D01*
X0181778Y0292150D02*
X0179514Y0292150D01*
X0179927Y0293148D02*
X0181364Y0293148D01*
X0181185Y0294147D02*
X0180106Y0294147D01*
X0180106Y0295145D02*
X0181185Y0295145D01*
X0181531Y0296144D02*
X0179761Y0296144D01*
X0179210Y0297142D02*
X0182082Y0297142D01*
X0183094Y0298141D02*
X0178198Y0298141D01*
X0179503Y0300138D02*
X0181223Y0300138D01*
X0180785Y0301136D02*
X0180106Y0301136D01*
X0180106Y0302135D02*
X0180785Y0302135D01*
X0180785Y0303133D02*
X0180106Y0303133D01*
X0185033Y0303133D02*
X0186033Y0303133D01*
X0186033Y0302135D02*
X0185033Y0302135D01*
X0185033Y0301136D02*
X0186033Y0301136D01*
X0186033Y0300138D02*
X0185033Y0300138D01*
X0186033Y0304132D02*
X0202300Y0304132D01*
X0202300Y0297142D02*
X0188985Y0297142D01*
X0189536Y0296144D02*
X0202300Y0296144D01*
X0202300Y0295145D02*
X0189881Y0295145D01*
X0189881Y0294147D02*
X0202300Y0294147D01*
X0202300Y0293148D02*
X0189702Y0293148D01*
X0189289Y0292150D02*
X0202300Y0292150D01*
X0202300Y0291151D02*
X0188389Y0291151D01*
X0186033Y0305130D02*
X0185033Y0305130D01*
X0185033Y0306129D02*
X0186033Y0306129D01*
X0186033Y0307127D02*
X0185033Y0307127D01*
X0185033Y0308126D02*
X0186033Y0308126D01*
X0186033Y0309124D02*
X0185033Y0309124D01*
X0163639Y0311121D02*
X0155961Y0311121D01*
X0156789Y0307127D02*
X0162811Y0307127D01*
X0137684Y0341684D02*
X0124657Y0341684D01*
X0124657Y0344243D02*
X0124657Y0344243D01*
X0124657Y0344243D01*
X0122172Y0344243D01*
X0122172Y0345071D02*
X0118670Y0345071D01*
X0118898Y0343074D02*
X0122248Y0343074D01*
X0124657Y0344243D02*
X0124657Y0346432D01*
X0123475Y0346432D01*
X0123093Y0346330D01*
X0122751Y0346133D01*
X0124657Y0346069D02*
X0124657Y0346069D01*
X0124657Y0345071D02*
X0124657Y0345071D01*
X0126625Y0346069D02*
X0138513Y0346069D01*
X0137524Y0345071D02*
X0127141Y0345071D01*
X0127141Y0344072D02*
X0137211Y0344072D01*
X0141087Y0346069D02*
X0202300Y0346069D01*
X0202300Y0345071D02*
X0142076Y0345071D01*
X0116586Y0336084D02*
X0116586Y0336084D01*
X0116586Y0335086D02*
X0116586Y0335086D01*
X0117300Y0271300D02*
X0117300Y0118800D01*
X0116060Y0117560D01*
X0109800Y0117560D01*
X0125608Y0117786D02*
X0131286Y0117786D01*
X0134800Y0121300D01*
D15*
X0078240Y0064091D02*
X0044800Y0097531D01*
X0044800Y0117560D01*
X0062300Y0117560D02*
X0062300Y0098800D01*
X0088240Y0072860D01*
X0088240Y0064091D01*
X0088300Y0064031D02*
X0088300Y0031300D01*
X0098240Y0064091D02*
X0097300Y0065031D01*
X0097300Y0086300D01*
X0079894Y0103706D01*
X0079894Y0117783D01*
X0094384Y0117786D02*
X0094384Y0102716D01*
X0108300Y0088800D01*
X0108300Y0064800D01*
X0108624Y0064476D01*
X0118240Y0064091D02*
X0118240Y0109120D01*
X0109800Y0117560D01*
X0109800Y0125040D02*
X0094610Y0125040D01*
X0094384Y0125266D01*
X0125608Y0125266D02*
X0125608Y0132992D01*
X0124800Y0133800D01*
X0125608Y0117786D02*
X0128240Y0115155D01*
X0128240Y0064091D01*
X0138240Y0064091D02*
X0138240Y0114520D01*
X0141006Y0117286D01*
X0141006Y0124766D02*
X0141006Y0132506D01*
X0142300Y0133800D01*
X0156754Y0133254D02*
X0156754Y0124766D01*
X0157300Y0117286D02*
X0157300Y0108800D01*
X0148240Y0099740D01*
X0148240Y0064091D01*
X0148240Y0031360D01*
X0148300Y0031300D01*
X0156754Y0133254D02*
X0157300Y0133800D01*
D16*
X0157300Y0133800D03*
X0142300Y0133800D03*
X0124800Y0133800D03*
X0094800Y0133800D03*
X0079800Y0133800D03*
X0062300Y0133800D03*
X0044800Y0133800D03*
X0109800Y0293800D03*
X0139800Y0343800D03*
X0159800Y0341300D03*
X0164800Y0336300D03*
X0164800Y0308800D03*
X0154800Y0308800D03*
X0147300Y0271300D03*
X0147300Y0256300D03*
X0154800Y0246300D03*
D17*
X0017300Y0326300D03*
D18*
X0017300Y0306300D03*
M02*
