G75*
%MOIN*%
%OFA0B0*%
%FSLAX25Y25*%
%IPPOS*%
%LPD*%
%AMOC8*
5,1,8,0,0,1.08239X$1,22.5*
%
%ADD10OC8,0.07124*%
%ADD11C,0.24669*%
%ADD12OC8,0.06300*%
%ADD13C,0.06300*%
%ADD14R,0.05118X0.05906*%
%ADD15R,0.25197X0.22835*%
%ADD16R,0.08661X0.04724*%
%ADD17R,0.09331X0.08465*%
%ADD18R,0.01654X0.02756*%
%ADD19R,0.07124X0.07124*%
%ADD20R,0.08465X0.09331*%
%ADD21R,0.02756X0.01654*%
%ADD22R,0.06299X0.08268*%
%ADD23C,0.03778*%
%ADD24R,0.08268X0.06299*%
%ADD25R,0.06337X0.06337*%
%ADD26OC8,0.06337*%
%ADD27C,0.01000*%
%ADD28C,0.04362*%
%ADD29C,0.04000*%
%ADD30C,0.02700*%
%ADD31C,0.04000*%
%ADD32C,0.01600*%
%ADD33C,0.05000*%
%ADD34C,0.10000*%
%ADD35C,0.15000*%
%ADD36C,0.01200*%
%ADD37C,0.07677*%
%ADD38C,0.07000*%
%ADD39C,0.25400*%
D10*
X0056000Y0041433D03*
X0141000Y0056000D03*
X0151000Y0056000D03*
X0285567Y0053500D03*
X0308491Y0069153D03*
X0318491Y0069153D03*
X0163500Y0248067D03*
X0033500Y0271000D03*
X0023500Y0271000D03*
D11*
X0086250Y0266000D03*
X0115750Y0266000D03*
X0251250Y0266000D03*
X0280750Y0266000D03*
X0033500Y0125750D03*
X0033500Y0096250D03*
X0208750Y0028500D03*
X0238250Y0028500D03*
D12*
X0248380Y0125934D03*
X0081500Y0133500D03*
D13*
X0095500Y0133500D03*
X0248380Y0111934D03*
D14*
X0151846Y0253500D03*
X0145154Y0253500D03*
X0145154Y0261687D03*
X0151846Y0261687D03*
X0151952Y0269874D03*
X0145259Y0269874D03*
D15*
X0118500Y0236000D03*
D16*
X0143303Y0227024D03*
X0143303Y0244976D03*
D17*
X0113500Y0198657D03*
X0263500Y0171157D03*
D18*
X0262220Y0162988D03*
X0259661Y0162988D03*
X0264780Y0162988D03*
X0267339Y0162988D03*
X0117339Y0190488D03*
X0114780Y0190488D03*
X0112220Y0190488D03*
X0109661Y0190488D03*
D19*
X0056000Y0020567D03*
X0306433Y0053500D03*
X0163500Y0268933D03*
D20*
X0098343Y0198500D03*
X0266157Y0153500D03*
D21*
X0257988Y0152220D03*
X0257988Y0149661D03*
X0257988Y0154780D03*
X0257988Y0157339D03*
X0106512Y0194661D03*
X0106512Y0197220D03*
X0106512Y0199780D03*
X0106512Y0202339D03*
D22*
X0099642Y0213500D03*
X0117358Y0213500D03*
D23*
X0013500Y0168500D03*
X0013500Y0158500D03*
X0244880Y0076735D03*
X0244880Y0066735D03*
D24*
X0251000Y0174642D03*
X0251000Y0192358D03*
D25*
X0278500Y0160311D03*
X0146000Y0177811D03*
D26*
X0146000Y0154189D03*
X0278500Y0136689D03*
D27*
X0257988Y0157339D02*
X0256827Y0158500D01*
X0221000Y0158500D01*
X0218500Y0148500D02*
X0218500Y0146330D01*
X0218385Y0146215D01*
X0218385Y0143615D01*
X0231000Y0131000D01*
X0231000Y0121000D01*
X0228500Y0123500D02*
X0228500Y0101000D01*
X0244880Y0089620D01*
X0244880Y0076735D01*
X0243500Y0096000D02*
X0241000Y0096000D01*
X0235100Y0101900D01*
X0235100Y0130365D01*
X0226192Y0139273D01*
X0227206Y0141723D02*
X0224312Y0141723D01*
X0220835Y0145200D01*
X0227206Y0141723D02*
X0237131Y0131798D01*
X0237131Y0102131D01*
X0239963Y0099300D01*
X0243500Y0099300D01*
X0243500Y0103500D02*
X0241000Y0103500D01*
X0238731Y0105769D01*
X0238731Y0132461D01*
X0231550Y0139642D01*
X0231550Y0141000D01*
X0228500Y0123500D02*
X0211000Y0151000D01*
X0211000Y0166000D01*
X0199927Y0174855D02*
X0199927Y0146000D01*
X0211000Y0146000D01*
X0255171Y0163416D02*
X0258500Y0163416D01*
X0259234Y0163416D01*
X0262220Y0162988D02*
X0264780Y0162988D01*
X0306000Y0098500D02*
X0298500Y0091000D01*
X0161000Y0126000D02*
X0156000Y0131000D01*
X0113500Y0131000D01*
X0088500Y0161000D01*
X0083500Y0161000D01*
X0081000Y0163500D01*
X0081000Y0166000D01*
X0078500Y0167065D02*
X0079985Y0168550D01*
X0082015Y0168550D01*
X0083450Y0169985D01*
X0083450Y0218313D01*
X0079163Y0222600D01*
X0056900Y0222600D01*
X0048500Y0231000D01*
X0048500Y0243500D01*
X0048737Y0228500D02*
X0046000Y0228500D01*
X0048737Y0228500D02*
X0056237Y0221000D01*
X0078500Y0221000D01*
X0081000Y0218500D01*
X0081000Y0171000D01*
X0078500Y0167065D02*
X0078500Y0158500D01*
X0072900Y0158500D02*
X0071000Y0156600D01*
X0071000Y0153500D01*
X0081000Y0143500D01*
X0098500Y0143500D01*
X0101000Y0168500D02*
X0123500Y0148500D01*
X0098500Y0173500D02*
X0113500Y0188500D01*
X0113500Y0189209D01*
X0112220Y0190488D01*
X0117339Y0190488D01*
X0115350Y0188500D01*
X0113500Y0188500D01*
X0114780Y0189780D01*
X0114780Y0190488D01*
X0112220Y0190488D01*
X0109661Y0190488D02*
X0109661Y0189045D01*
X0098808Y0178192D01*
X0092200Y0191000D02*
X0093990Y0192330D01*
X0103086Y0192330D01*
X0104957Y0194661D01*
X0106512Y0194661D01*
X0105043Y0197188D02*
X0105043Y0206000D01*
X0111957Y0206000D01*
X0112923Y0205600D01*
X0121000Y0205600D01*
X0121000Y0191000D01*
X0119865Y0191000D01*
X0119865Y0192570D01*
X0118870Y0193566D01*
X0109590Y0193566D01*
X0109590Y0196192D01*
X0108594Y0197188D01*
X0105043Y0197188D01*
X0105043Y0198083D02*
X0121000Y0198083D01*
X0121000Y0197085D02*
X0108697Y0197085D01*
X0109590Y0196086D02*
X0121000Y0196086D01*
X0121000Y0195088D02*
X0109590Y0195088D01*
X0109590Y0194089D02*
X0121000Y0194089D01*
X0121000Y0193091D02*
X0119345Y0193091D01*
X0119865Y0192092D02*
X0121000Y0192092D01*
X0121000Y0191094D02*
X0119865Y0191094D01*
X0121000Y0199082D02*
X0105043Y0199082D01*
X0105043Y0200080D02*
X0121000Y0200080D01*
X0121000Y0201079D02*
X0105043Y0201079D01*
X0105043Y0202077D02*
X0121000Y0202077D01*
X0121000Y0203076D02*
X0105043Y0203076D01*
X0105043Y0204074D02*
X0121000Y0204074D01*
X0121000Y0205073D02*
X0105043Y0205073D01*
X0077636Y0191248D02*
X0074784Y0194100D01*
X0062900Y0194100D01*
X0046000Y0211000D01*
X0073500Y0191000D02*
X0076000Y0188500D01*
X0076000Y0185892D01*
X0076036Y0185856D01*
X0076036Y0169152D01*
X0071300Y0164416D01*
X0071300Y0163900D01*
X0078500Y0176000D02*
X0077636Y0176864D01*
X0077636Y0191248D01*
X0058500Y0186000D02*
X0038500Y0171000D01*
X0013500Y0168500D01*
X0115750Y0266000D02*
X0130528Y0266000D01*
X0131328Y0265200D01*
X0137872Y0265200D01*
X0138672Y0266000D01*
X0145259Y0269874D01*
X0151952Y0269874D02*
X0151846Y0261687D01*
X0162280Y0248067D01*
X0163500Y0248067D01*
X0153500Y0243500D02*
X0151846Y0245154D01*
X0151846Y0253500D01*
X0145154Y0253500D02*
X0145154Y0261687D01*
X0145154Y0253500D02*
X0143303Y0249150D01*
X0143303Y0244976D01*
D28*
X0153500Y0243500D03*
X0061000Y0228500D03*
X0220045Y0153347D03*
X0133500Y0068500D03*
D29*
X0098500Y0143500D03*
X0072900Y0158500D03*
X0071300Y0163900D03*
X0058500Y0186000D03*
X0073500Y0191000D03*
X0092200Y0191000D03*
X0098808Y0178192D03*
X0098500Y0173500D03*
D30*
X0101000Y0168500D03*
X0081000Y0166000D03*
X0081000Y0171000D03*
X0078500Y0176000D03*
X0078500Y0158500D03*
X0123500Y0148500D03*
X0161000Y0126000D03*
X0211000Y0146000D03*
X0218500Y0148500D03*
X0220835Y0145200D03*
X0226192Y0139273D03*
X0231550Y0141000D03*
X0221000Y0158500D03*
X0211000Y0166000D03*
X0199927Y0174855D03*
X0255171Y0163416D03*
X0231000Y0121000D03*
X0243500Y0103500D03*
X0243500Y0099300D03*
X0243500Y0096000D03*
X0263500Y0091000D03*
X0281000Y0091000D03*
X0298500Y0091000D03*
X0048500Y0243500D03*
X0046000Y0228500D03*
X0046000Y0211000D03*
D31*
X0133500Y0068500D02*
X0240296Y0068500D01*
X0243020Y0071224D01*
X0278724Y0071224D01*
X0306000Y0098500D01*
X0306000Y0116000D01*
X0281000Y0091000D01*
X0263500Y0091000D02*
X0306000Y0133500D01*
X0306000Y0188500D01*
X0254858Y0188500D01*
X0251000Y0192358D01*
X0257988Y0153912D02*
X0257576Y0153500D01*
X0220045Y0153347D01*
X0257988Y0152220D02*
X0257988Y0149661D01*
X0306000Y0133500D02*
X0306000Y0116000D01*
D32*
X0266000Y0183500D02*
X0156000Y0183500D01*
X0131000Y0208500D01*
X0113500Y0208500D01*
X0113500Y0218500D01*
X0133500Y0218500D01*
X0133500Y0233500D01*
X0171000Y0233500D01*
X0171000Y0288500D01*
X0266000Y0288500D01*
X0266000Y0183500D01*
X0266000Y0183853D02*
X0155647Y0183853D01*
X0154049Y0185451D02*
X0266000Y0185451D01*
X0266000Y0187050D02*
X0152450Y0187050D01*
X0150852Y0188648D02*
X0266000Y0188648D01*
X0266000Y0190247D02*
X0149253Y0190247D01*
X0147655Y0191845D02*
X0266000Y0191845D01*
X0266000Y0193444D02*
X0146056Y0193444D01*
X0144458Y0195042D02*
X0266000Y0195042D01*
X0266000Y0196641D02*
X0142859Y0196641D01*
X0141261Y0198239D02*
X0266000Y0198239D01*
X0266000Y0199838D02*
X0139662Y0199838D01*
X0138063Y0201437D02*
X0266000Y0201437D01*
X0266000Y0203035D02*
X0136465Y0203035D01*
X0134866Y0204634D02*
X0266000Y0204634D01*
X0266000Y0206232D02*
X0133268Y0206232D01*
X0131669Y0207831D02*
X0266000Y0207831D01*
X0266000Y0209429D02*
X0113500Y0209429D01*
X0113500Y0211028D02*
X0266000Y0211028D01*
X0266000Y0212626D02*
X0113500Y0212626D01*
X0113500Y0214225D02*
X0266000Y0214225D01*
X0266000Y0215823D02*
X0113500Y0215823D01*
X0113500Y0217422D02*
X0266000Y0217422D01*
X0266000Y0219020D02*
X0133500Y0219020D01*
X0133500Y0220619D02*
X0266000Y0220619D01*
X0266000Y0222217D02*
X0133500Y0222217D01*
X0133500Y0223816D02*
X0266000Y0223816D01*
X0266000Y0225414D02*
X0133500Y0225414D01*
X0133500Y0227013D02*
X0266000Y0227013D01*
X0266000Y0228611D02*
X0133500Y0228611D01*
X0133500Y0230210D02*
X0266000Y0230210D01*
X0266000Y0231808D02*
X0133500Y0231808D01*
X0133500Y0233407D02*
X0266000Y0233407D01*
X0266000Y0235005D02*
X0171000Y0235005D01*
X0171000Y0236604D02*
X0266000Y0236604D01*
X0266000Y0238202D02*
X0171000Y0238202D01*
X0171000Y0239801D02*
X0266000Y0239801D01*
X0266000Y0241399D02*
X0171000Y0241399D01*
X0171000Y0242998D02*
X0266000Y0242998D01*
X0266000Y0244596D02*
X0171000Y0244596D01*
X0171000Y0246195D02*
X0266000Y0246195D01*
X0266000Y0247793D02*
X0171000Y0247793D01*
X0171000Y0249392D02*
X0266000Y0249392D01*
X0266000Y0250990D02*
X0234993Y0250990D01*
X0234051Y0250600D02*
X0230749Y0250600D01*
X0227698Y0251864D01*
X0225364Y0254198D01*
X0224100Y0257249D01*
X0224100Y0260551D01*
X0225364Y0263602D01*
X0227698Y0265936D01*
X0230749Y0267200D01*
X0234051Y0267200D01*
X0237102Y0265936D01*
X0239436Y0263602D01*
X0240700Y0260551D01*
X0240700Y0257249D01*
X0239436Y0254198D01*
X0237102Y0251864D01*
X0234051Y0250600D01*
X0229807Y0250990D02*
X0171000Y0250990D01*
X0171000Y0252589D02*
X0226973Y0252589D01*
X0225375Y0254187D02*
X0171000Y0254187D01*
X0171000Y0255786D02*
X0224706Y0255786D01*
X0224100Y0257384D02*
X0171000Y0257384D01*
X0171000Y0258983D02*
X0224100Y0258983D01*
X0224113Y0260581D02*
X0171000Y0260581D01*
X0171000Y0262180D02*
X0224775Y0262180D01*
X0225540Y0263778D02*
X0171000Y0263778D01*
X0171000Y0265377D02*
X0227139Y0265377D01*
X0230207Y0266975D02*
X0171000Y0266975D01*
X0171000Y0268574D02*
X0266000Y0268574D01*
X0266000Y0270172D02*
X0171000Y0270172D01*
X0171000Y0271771D02*
X0266000Y0271771D01*
X0266000Y0273370D02*
X0171000Y0273370D01*
X0171000Y0274968D02*
X0266000Y0274968D01*
X0266000Y0276567D02*
X0171000Y0276567D01*
X0171000Y0278165D02*
X0266000Y0278165D01*
X0266000Y0279764D02*
X0171000Y0279764D01*
X0171000Y0281362D02*
X0266000Y0281362D01*
X0266000Y0282961D02*
X0171000Y0282961D01*
X0171000Y0284559D02*
X0266000Y0284559D01*
X0266000Y0286158D02*
X0171000Y0286158D01*
X0171000Y0287756D02*
X0266000Y0287756D01*
X0266000Y0266975D02*
X0234593Y0266975D01*
X0237661Y0265377D02*
X0266000Y0265377D01*
X0266000Y0263778D02*
X0239260Y0263778D01*
X0240025Y0262180D02*
X0266000Y0262180D01*
X0266000Y0260581D02*
X0240687Y0260581D01*
X0240700Y0258983D02*
X0266000Y0258983D01*
X0266000Y0257384D02*
X0240700Y0257384D01*
X0240094Y0255786D02*
X0266000Y0255786D01*
X0266000Y0254187D02*
X0239425Y0254187D01*
X0237827Y0252589D02*
X0266000Y0252589D01*
D33*
X0271265Y0173500D02*
X0288500Y0173500D01*
X0288500Y0143500D01*
X0258500Y0143500D01*
X0258500Y0144561D01*
X0259003Y0144561D01*
X0260877Y0145338D01*
X0260991Y0145452D01*
X0261580Y0145335D01*
X0266157Y0145335D01*
X0266157Y0153500D01*
X0266158Y0153500D01*
X0273890Y0153500D01*
X0273890Y0153951D01*
X0274311Y0153777D01*
X0274987Y0153643D01*
X0278500Y0153643D01*
X0278500Y0160311D01*
X0278500Y0153643D01*
X0282013Y0153643D01*
X0282689Y0153777D01*
X0283326Y0154041D01*
X0283900Y0154424D01*
X0284387Y0154911D01*
X0284770Y0155485D01*
X0285034Y0156122D01*
X0285168Y0156798D01*
X0285168Y0160311D01*
X0285168Y0163824D01*
X0285034Y0164500D01*
X0284770Y0165137D01*
X0284387Y0165711D01*
X0283900Y0166198D01*
X0283326Y0166581D01*
X0282689Y0166845D01*
X0282013Y0166980D01*
X0278500Y0166980D01*
X0274987Y0166980D01*
X0274311Y0166845D01*
X0273674Y0166581D01*
X0273100Y0166198D01*
X0272613Y0165711D01*
X0272230Y0165137D01*
X0271966Y0164500D01*
X0271831Y0163824D01*
X0271831Y0161357D01*
X0271665Y0161425D01*
X0271665Y0162988D01*
X0267339Y0162988D01*
X0267339Y0162988D01*
X0271665Y0162988D01*
X0271665Y0164711D01*
X0271531Y0165387D01*
X0271267Y0166024D01*
X0271193Y0166134D01*
X0271265Y0166309D01*
X0271265Y0173500D01*
X0271265Y0173424D02*
X0288500Y0173424D01*
X0288500Y0168426D02*
X0271265Y0168426D01*
X0271665Y0163427D02*
X0271831Y0163427D01*
X0267338Y0162988D02*
X0264780Y0162988D01*
X0264780Y0162988D01*
X0267338Y0162988D01*
X0267338Y0162988D01*
X0264780Y0162988D02*
X0263588Y0162988D01*
X0264779Y0162988D01*
X0264779Y0162988D01*
X0263588Y0162988D01*
X0263588Y0162988D01*
X0266158Y0153500D02*
X0266158Y0153500D01*
X0273890Y0153500D01*
X0273890Y0148490D01*
X0273755Y0147814D01*
X0273491Y0147177D01*
X0273108Y0146604D01*
X0272621Y0146116D01*
X0272048Y0145733D01*
X0271411Y0145469D01*
X0270734Y0145335D01*
X0266158Y0145335D01*
X0266158Y0153500D01*
X0266157Y0153430D02*
X0266158Y0153430D01*
X0266157Y0148432D02*
X0266158Y0148432D01*
X0273878Y0148432D02*
X0288500Y0148432D01*
X0288500Y0153430D02*
X0273890Y0153430D01*
X0278500Y0158429D02*
X0278500Y0158429D01*
X0278500Y0160311D02*
X0278500Y0160311D01*
X0278500Y0160311D01*
X0285168Y0160311D01*
X0278500Y0160311D01*
X0278500Y0160311D01*
X0278500Y0166980D01*
X0278500Y0160311D01*
X0278500Y0163427D02*
X0278500Y0163427D01*
X0285168Y0163427D02*
X0288500Y0163427D01*
X0288500Y0158429D02*
X0285168Y0158429D01*
X0117358Y0213500D02*
X0111309Y0213500D01*
X0096309Y0228500D01*
X0061000Y0228500D01*
D34*
X0091000Y0213500D02*
X0099642Y0213500D01*
X0098343Y0212201D01*
X0098343Y0198500D01*
X0113500Y0198657D02*
X0118343Y0198657D01*
X0118500Y0198500D01*
X0123500Y0198500D01*
D35*
X0125311Y0198500D01*
X0146000Y0177811D01*
D36*
X0258500Y0163416D02*
X0258927Y0162988D01*
X0259661Y0162988D01*
X0257988Y0154780D02*
X0257988Y0153912D01*
X0257988Y0152220D01*
D37*
X0238500Y0174112D03*
X0091000Y0213500D03*
D38*
X0238500Y0174112D02*
X0239029Y0174642D01*
X0251000Y0174642D01*
X0254484Y0171157D01*
X0263500Y0171157D01*
D39*
X0118500Y0236000D02*
X0115750Y0238750D01*
X0115750Y0266000D01*
M02*
