%
M48
M72
T01C0.01378
T02C0.03937
T03C0.04331
%
T01
X44800Y133800
X62300Y133800
X79800Y133800
X94800Y133800
X124800Y133800
X142300Y133800
X157300Y133800
X154800Y246300
X147300Y256300
X147300Y271300
X154800Y308800
X164800Y308800
X164800Y336300
X159800Y341300
X139800Y343800
X109800Y293800
T02
X17300Y306300
X17300Y326300
T03
X78300Y31300
X88300Y31300
X98300Y31300
X108300Y31300
X118300Y31300
X128300Y31300
X138300Y31300
X148300Y31300
X158300Y31300
X168300Y31300
X168240Y64091
X158240Y64091
X148240Y64091
X138240Y64091
X128240Y64091
X118240Y64091
X108240Y64091
X98240Y64091
X88240Y64091
X78240Y64091
X71058Y214445
X71058Y224445
X71058Y234445
X71058Y244445
X71058Y254445
X71058Y264445
X71058Y274445
X71058Y284445
X71058Y294445
X71058Y304445
X61058Y304445
X61058Y294445
X61058Y284445
X61058Y274445
X61058Y264445
X61058Y254445
X61058Y244445
X61058Y234445
X61058Y224445
X61058Y214445
X175758Y214445
X175758Y224445
X175758Y234445
X175758Y244445
X175758Y254445
X175758Y264445
X175758Y274445
X175758Y284445
X175758Y294445
X175758Y304445
X185533Y304445
X185533Y294445
X185533Y284445
X185533Y274445
X185533Y264445
X185533Y254445
X185533Y244445
X185533Y234445
X185533Y224445
X185533Y214445
M30
