G75*
%MOIN*%
%OFA0B0*%
%FSLAX25Y25*%
%IPPOS*%
%LPD*%
%AMOC8*
5,1,8,0,0,1.08239X$1,22.5*
%
%ADD10C,0.00800*%
%ADD11C,0.01200*%
%ADD12C,0.00400*%
%ADD13C,0.00100*%
%ADD14C,0.00300*%
%ADD15C,0.00500*%
%ADD16R,0.01181X0.00591*%
%ADD17R,0.01181X0.01181*%
%ADD18C,0.01000*%
%ADD19C,0.00600*%
%ADD20C,0.02559*%
D10*
X0231086Y0691630D02*
X0237225Y0691630D01*
X0240294Y0691630D02*
X0246433Y0697769D01*
X0246433Y0699304D01*
X0244898Y0700838D01*
X0241829Y0700838D01*
X0240294Y0699304D01*
X0234156Y0700838D02*
X0234156Y0691630D01*
X0240294Y0691630D02*
X0246433Y0691630D01*
X0249502Y0694700D02*
X0249502Y0700838D01*
X0249502Y0694700D02*
X0252571Y0691630D01*
X0255641Y0694700D01*
X0255641Y0700838D01*
X0267918Y0700838D02*
X0267918Y0691630D01*
X0267918Y0694700D02*
X0272522Y0694700D01*
X0274056Y0696234D01*
X0274056Y0699304D01*
X0272522Y0700838D01*
X0267918Y0700838D01*
X0270987Y0694700D02*
X0274056Y0691630D01*
X0277126Y0693165D02*
X0278660Y0694700D01*
X0283264Y0694700D01*
X0283264Y0696234D02*
X0283264Y0691630D01*
X0278660Y0691630D01*
X0277126Y0693165D01*
X0278660Y0697769D02*
X0281730Y0697769D01*
X0283264Y0696234D01*
X0286334Y0697769D02*
X0287868Y0697769D01*
X0287868Y0691630D01*
X0286334Y0691630D02*
X0289403Y0691630D01*
X0292472Y0691630D02*
X0295541Y0691630D01*
X0294007Y0691630D02*
X0294007Y0700838D01*
X0292472Y0700838D01*
X0287868Y0700838D02*
X0287868Y0702373D01*
X0234156Y0700838D02*
X0231086Y0697769D01*
X0206333Y0791630D02*
X0203264Y0791630D01*
X0204799Y0791630D02*
X0204799Y0800838D01*
X0203264Y0800838D01*
X0198660Y0800838D02*
X0198660Y0802373D01*
X0198660Y0797769D02*
X0198660Y0791630D01*
X0197126Y0791630D02*
X0200195Y0791630D01*
X0194056Y0791630D02*
X0189452Y0791630D01*
X0187918Y0793165D01*
X0189452Y0794700D01*
X0194056Y0794700D01*
X0194056Y0796234D02*
X0194056Y0791630D01*
X0194056Y0796234D02*
X0192522Y0797769D01*
X0189452Y0797769D01*
X0184848Y0799304D02*
X0184848Y0796234D01*
X0183314Y0794700D01*
X0178710Y0794700D01*
X0181779Y0794700D02*
X0184848Y0791630D01*
X0178710Y0791630D02*
X0178710Y0800838D01*
X0183314Y0800838D01*
X0184848Y0799304D01*
X0197126Y0797769D02*
X0198660Y0797769D01*
X0166433Y0794700D02*
X0166433Y0800838D01*
X0166433Y0794700D02*
X0163363Y0791630D01*
X0160294Y0794700D01*
X0160294Y0800838D01*
X0157225Y0800838D02*
X0151086Y0800838D01*
X0151086Y0796234D01*
X0154156Y0797769D01*
X0155690Y0797769D01*
X0157225Y0796234D01*
X0157225Y0793165D01*
X0155690Y0791630D01*
X0152621Y0791630D01*
X0151086Y0793165D01*
X0150294Y0895096D02*
X0156433Y0895096D01*
X0162571Y0896630D02*
X0162571Y0905838D01*
X0159502Y0905838D02*
X0165641Y0905838D01*
X0168710Y0905838D02*
X0168710Y0896630D01*
X0168710Y0901234D02*
X0170245Y0902769D01*
X0173314Y0902769D01*
X0174848Y0901234D01*
X0174848Y0896630D01*
X0177918Y0896630D02*
X0177918Y0902769D01*
X0180987Y0902769D02*
X0182522Y0902769D01*
X0180987Y0902769D02*
X0177918Y0899700D01*
X0185591Y0898165D02*
X0187126Y0896630D01*
X0191730Y0896630D01*
X0191730Y0902769D01*
X0194799Y0901234D02*
X0196333Y0902769D01*
X0200937Y0902769D01*
X0204007Y0902769D02*
X0207076Y0902769D01*
X0205541Y0904304D02*
X0205541Y0898165D01*
X0207076Y0896630D01*
X0200937Y0898165D02*
X0199403Y0899700D01*
X0196333Y0899700D01*
X0194799Y0901234D01*
X0194799Y0896630D02*
X0199403Y0896630D01*
X0200937Y0898165D01*
X0185591Y0898165D02*
X0185591Y0902769D01*
X0147225Y0899700D02*
X0147225Y0905838D01*
X0147225Y0899700D02*
X0144156Y0896630D01*
X0141086Y0899700D01*
X0141086Y0905838D01*
X0376086Y0754304D02*
X0376086Y0748165D01*
X0377621Y0746630D01*
X0380690Y0746630D01*
X0382225Y0748165D01*
X0385294Y0746630D02*
X0385294Y0755838D01*
X0389898Y0755838D01*
X0391433Y0754304D01*
X0391433Y0751234D01*
X0389898Y0749700D01*
X0385294Y0749700D01*
X0382225Y0754304D02*
X0380690Y0755838D01*
X0377621Y0755838D01*
X0376086Y0754304D01*
X0394502Y0755838D02*
X0394502Y0748165D01*
X0396037Y0746630D01*
X0399106Y0746630D01*
X0400641Y0748165D01*
X0400641Y0755838D01*
X0412918Y0755838D02*
X0412918Y0746630D01*
X0412918Y0749700D02*
X0417522Y0749700D01*
X0419056Y0751234D01*
X0419056Y0754304D01*
X0417522Y0755838D01*
X0412918Y0755838D01*
X0422126Y0755838D02*
X0422126Y0746630D01*
X0425195Y0749700D01*
X0428264Y0746630D01*
X0428264Y0755838D01*
X0431334Y0755838D02*
X0435937Y0755838D01*
X0437472Y0754304D01*
X0437472Y0751234D01*
X0435937Y0749700D01*
X0431334Y0749700D01*
X0434403Y0749700D02*
X0437472Y0746630D01*
X0431334Y0746630D02*
X0431334Y0755838D01*
X0456086Y0766630D02*
X0460690Y0766630D01*
X0462225Y0768165D01*
X0462225Y0774304D01*
X0460690Y0775838D01*
X0456086Y0775838D01*
X0456086Y0766630D01*
X0465294Y0768165D02*
X0465294Y0771234D01*
X0466829Y0772769D01*
X0469898Y0772769D01*
X0471433Y0771234D01*
X0471433Y0769700D01*
X0465294Y0769700D01*
X0465294Y0768165D02*
X0466829Y0766630D01*
X0469898Y0766630D01*
X0474502Y0766630D02*
X0479106Y0766630D01*
X0480641Y0768165D01*
X0480641Y0771234D01*
X0479106Y0772769D01*
X0474502Y0772769D01*
X0474502Y0763561D01*
X0485245Y0768165D02*
X0486779Y0766630D01*
X0485245Y0768165D02*
X0485245Y0774304D01*
X0483710Y0772769D02*
X0486779Y0772769D01*
X0489848Y0771234D02*
X0491383Y0772769D01*
X0494452Y0772769D01*
X0495987Y0771234D01*
X0495987Y0766630D01*
X0489848Y0766630D02*
X0489848Y0775838D01*
X0662222Y0855600D02*
X0679151Y0855600D01*
X0679151Y0876860D01*
X0662222Y0876860D01*
X0662222Y0855600D01*
X0767027Y0830838D02*
X0773166Y0830838D01*
X0776235Y0830838D02*
X0776235Y0821630D01*
X0776235Y0826234D02*
X0777770Y0827769D01*
X0780839Y0827769D01*
X0782374Y0826234D01*
X0782374Y0821630D01*
X0785443Y0821630D02*
X0785443Y0827769D01*
X0788512Y0827769D02*
X0790047Y0827769D01*
X0788512Y0827769D02*
X0785443Y0824700D01*
X0793116Y0823165D02*
X0793116Y0827769D01*
X0793116Y0823165D02*
X0794651Y0821630D01*
X0799255Y0821630D01*
X0799255Y0827769D01*
X0802324Y0826234D02*
X0803859Y0827769D01*
X0808463Y0827769D01*
X0811532Y0827769D02*
X0814601Y0827769D01*
X0813067Y0829304D02*
X0813067Y0823165D01*
X0814601Y0821630D01*
X0808463Y0823165D02*
X0806928Y0824700D01*
X0803859Y0824700D01*
X0802324Y0826234D01*
X0802324Y0821630D02*
X0806928Y0821630D01*
X0808463Y0823165D01*
X0826878Y0823165D02*
X0828413Y0821630D01*
X0831482Y0821630D01*
X0833017Y0823165D01*
X0833017Y0824700D01*
X0831482Y0826234D01*
X0829948Y0826234D01*
X0831482Y0826234D02*
X0833017Y0827769D01*
X0833017Y0829304D01*
X0831482Y0830838D01*
X0828413Y0830838D01*
X0826878Y0829304D01*
X0831482Y0876630D02*
X0831482Y0885838D01*
X0826878Y0881234D01*
X0833017Y0881234D01*
X0814601Y0882769D02*
X0811532Y0882769D01*
X0813067Y0884304D02*
X0813067Y0878165D01*
X0814601Y0876630D01*
X0808463Y0878165D02*
X0806928Y0879700D01*
X0803859Y0879700D01*
X0802324Y0881234D01*
X0803859Y0882769D01*
X0808463Y0882769D01*
X0808463Y0878165D02*
X0806928Y0876630D01*
X0802324Y0876630D01*
X0799255Y0876630D02*
X0799255Y0882769D01*
X0799255Y0876630D02*
X0794651Y0876630D01*
X0793116Y0878165D01*
X0793116Y0882769D01*
X0790047Y0882769D02*
X0788512Y0882769D01*
X0785443Y0879700D01*
X0785443Y0882769D02*
X0785443Y0876630D01*
X0782374Y0876630D02*
X0782374Y0881234D01*
X0780839Y0882769D01*
X0777770Y0882769D01*
X0776235Y0881234D01*
X0776235Y0885838D02*
X0776235Y0876630D01*
X0770097Y0876630D02*
X0770097Y0885838D01*
X0773166Y0885838D02*
X0767027Y0885838D01*
X0770097Y0931630D02*
X0770097Y0940838D01*
X0773166Y0940838D02*
X0767027Y0940838D01*
X0776235Y0940838D02*
X0776235Y0931630D01*
X0776235Y0936234D02*
X0777770Y0937769D01*
X0780839Y0937769D01*
X0782374Y0936234D01*
X0782374Y0931630D01*
X0785443Y0931630D02*
X0785443Y0937769D01*
X0788512Y0937769D02*
X0790047Y0937769D01*
X0788512Y0937769D02*
X0785443Y0934700D01*
X0793116Y0933165D02*
X0793116Y0937769D01*
X0793116Y0933165D02*
X0794651Y0931630D01*
X0799255Y0931630D01*
X0799255Y0937769D01*
X0802324Y0936234D02*
X0803859Y0934700D01*
X0806928Y0934700D01*
X0808463Y0933165D01*
X0806928Y0931630D01*
X0802324Y0931630D01*
X0802324Y0936234D02*
X0803859Y0937769D01*
X0808463Y0937769D01*
X0811532Y0937769D02*
X0814601Y0937769D01*
X0813067Y0939304D02*
X0813067Y0933165D01*
X0814601Y0931630D01*
X0826878Y0933165D02*
X0828413Y0931630D01*
X0831482Y0931630D01*
X0833017Y0933165D01*
X0833017Y0936234D01*
X0831482Y0937769D01*
X0829948Y0937769D01*
X0826878Y0936234D01*
X0826878Y0940838D01*
X0833017Y0940838D01*
X0831482Y0986630D02*
X0833017Y0988165D01*
X0833017Y0989700D01*
X0831482Y0991234D01*
X0826878Y0991234D01*
X0826878Y0988165D01*
X0828413Y0986630D01*
X0831482Y0986630D01*
X0826878Y0991234D02*
X0829948Y0994304D01*
X0833017Y0995838D01*
X0814601Y0992769D02*
X0811532Y0992769D01*
X0813067Y0994304D02*
X0813067Y0988165D01*
X0814601Y0986630D01*
X0808463Y0988165D02*
X0806928Y0989700D01*
X0803859Y0989700D01*
X0802324Y0991234D01*
X0803859Y0992769D01*
X0808463Y0992769D01*
X0808463Y0988165D02*
X0806928Y0986630D01*
X0802324Y0986630D01*
X0799255Y0986630D02*
X0799255Y0992769D01*
X0799255Y0986630D02*
X0794651Y0986630D01*
X0793116Y0988165D01*
X0793116Y0992769D01*
X0790047Y0992769D02*
X0788512Y0992769D01*
X0785443Y0989700D01*
X0785443Y0992769D02*
X0785443Y0986630D01*
X0782374Y0986630D02*
X0782374Y0991234D01*
X0780839Y0992769D01*
X0777770Y0992769D01*
X0776235Y0991234D01*
X0776235Y0995838D02*
X0776235Y0986630D01*
X0770097Y0986630D02*
X0770097Y0995838D01*
X0773166Y0995838D02*
X0767027Y0995838D01*
X0770097Y1041630D02*
X0770097Y1050838D01*
X0773166Y1050838D02*
X0767027Y1050838D01*
X0776235Y1050838D02*
X0776235Y1041630D01*
X0776235Y1046234D02*
X0777770Y1047769D01*
X0780839Y1047769D01*
X0782374Y1046234D01*
X0782374Y1041630D01*
X0785443Y1041630D02*
X0785443Y1047769D01*
X0788512Y1047769D02*
X0790047Y1047769D01*
X0788512Y1047769D02*
X0785443Y1044700D01*
X0793116Y1043165D02*
X0794651Y1041630D01*
X0799255Y1041630D01*
X0799255Y1047769D01*
X0802324Y1046234D02*
X0803859Y1047769D01*
X0808463Y1047769D01*
X0811532Y1047769D02*
X0814601Y1047769D01*
X0813067Y1049304D02*
X0813067Y1043165D01*
X0814601Y1041630D01*
X0808463Y1043165D02*
X0806928Y1044700D01*
X0803859Y1044700D01*
X0802324Y1046234D01*
X0802324Y1041630D02*
X0806928Y1041630D01*
X0808463Y1043165D01*
X0793116Y1043165D02*
X0793116Y1047769D01*
X0826878Y1050838D02*
X0833017Y1050838D01*
X0833017Y1049304D01*
X0826878Y1043165D01*
X0826878Y1041630D01*
X0828413Y1096630D02*
X0826878Y1098165D01*
X0826878Y1099700D01*
X0828413Y1101234D01*
X0831482Y1101234D01*
X0833017Y1099700D01*
X0833017Y1098165D01*
X0831482Y1096630D01*
X0828413Y1096630D01*
X0828413Y1101234D02*
X0826878Y1102769D01*
X0826878Y1104304D01*
X0828413Y1105838D01*
X0831482Y1105838D01*
X0833017Y1104304D01*
X0833017Y1102769D01*
X0831482Y1101234D01*
X0814601Y1102769D02*
X0811532Y1102769D01*
X0813067Y1104304D02*
X0813067Y1098165D01*
X0814601Y1096630D01*
X0808463Y1098165D02*
X0806928Y1099700D01*
X0803859Y1099700D01*
X0802324Y1101234D01*
X0803859Y1102769D01*
X0808463Y1102769D01*
X0808463Y1098165D02*
X0806928Y1096630D01*
X0802324Y1096630D01*
X0799255Y1096630D02*
X0799255Y1102769D01*
X0799255Y1096630D02*
X0794651Y1096630D01*
X0793116Y1098165D01*
X0793116Y1102769D01*
X0790047Y1102769D02*
X0788512Y1102769D01*
X0785443Y1099700D01*
X0785443Y1102769D02*
X0785443Y1096630D01*
X0782374Y1096630D02*
X0782374Y1101234D01*
X0780839Y1102769D01*
X0777770Y1102769D01*
X0776235Y1101234D01*
X0776235Y1105838D02*
X0776235Y1096630D01*
X0770097Y1096630D02*
X0770097Y1105838D01*
X0773166Y1105838D02*
X0767027Y1105838D01*
X0770097Y0830838D02*
X0770097Y0821630D01*
X0770097Y0775838D02*
X0770097Y0766630D01*
X0776235Y0766630D02*
X0776235Y0775838D01*
X0773166Y0775838D02*
X0767027Y0775838D01*
X0776235Y0771234D02*
X0777770Y0772769D01*
X0780839Y0772769D01*
X0782374Y0771234D01*
X0782374Y0766630D01*
X0785443Y0766630D02*
X0785443Y0772769D01*
X0788512Y0772769D02*
X0790047Y0772769D01*
X0788512Y0772769D02*
X0785443Y0769700D01*
X0793116Y0768165D02*
X0794651Y0766630D01*
X0799255Y0766630D01*
X0799255Y0772769D01*
X0802324Y0771234D02*
X0803859Y0772769D01*
X0808463Y0772769D01*
X0811532Y0772769D02*
X0814601Y0772769D01*
X0813067Y0774304D02*
X0813067Y0768165D01*
X0814601Y0766630D01*
X0808463Y0768165D02*
X0806928Y0769700D01*
X0803859Y0769700D01*
X0802324Y0771234D01*
X0802324Y0766630D02*
X0806928Y0766630D01*
X0808463Y0768165D01*
X0793116Y0768165D02*
X0793116Y0772769D01*
X0826878Y0774304D02*
X0828413Y0775838D01*
X0831482Y0775838D01*
X0833017Y0774304D01*
X0833017Y0772769D01*
X0826878Y0766630D01*
X0833017Y0766630D01*
X0829948Y0720838D02*
X0829948Y0711630D01*
X0833017Y0711630D02*
X0826878Y0711630D01*
X0826878Y0717769D02*
X0829948Y0720838D01*
X0814601Y0717769D02*
X0811532Y0717769D01*
X0813067Y0719304D02*
X0813067Y0713165D01*
X0814601Y0711630D01*
X0808463Y0713165D02*
X0806928Y0714700D01*
X0803859Y0714700D01*
X0802324Y0716234D01*
X0803859Y0717769D01*
X0808463Y0717769D01*
X0808463Y0713165D02*
X0806928Y0711630D01*
X0802324Y0711630D01*
X0799255Y0711630D02*
X0799255Y0717769D01*
X0799255Y0711630D02*
X0794651Y0711630D01*
X0793116Y0713165D01*
X0793116Y0717769D01*
X0790047Y0717769D02*
X0788512Y0717769D01*
X0785443Y0714700D01*
X0785443Y0717769D02*
X0785443Y0711630D01*
X0782374Y0711630D02*
X0782374Y0716234D01*
X0780839Y0717769D01*
X0777770Y0717769D01*
X0776235Y0716234D01*
X0776235Y0720838D02*
X0776235Y0711630D01*
X0770097Y0711630D02*
X0770097Y0720838D01*
X0773166Y0720838D02*
X0767027Y0720838D01*
X0515195Y0973165D02*
X0513660Y0971630D01*
X0510591Y0971630D01*
X0509056Y0973165D01*
X0509056Y0979304D01*
X0510591Y0980838D01*
X0513660Y0980838D01*
X0515195Y0979304D01*
X0505987Y0976234D02*
X0499848Y0976234D01*
X0496779Y0976234D02*
X0496779Y0971630D01*
X0492175Y0971630D01*
X0490641Y0973165D01*
X0492175Y0974700D01*
X0496779Y0974700D01*
X0496779Y0976234D02*
X0495245Y0977769D01*
X0492175Y0977769D01*
X0487571Y0977769D02*
X0484502Y0971630D01*
X0481433Y0977769D01*
X0476829Y0977769D02*
X0476829Y0971630D01*
X0478363Y0971630D02*
X0475294Y0971630D01*
X0469156Y0971630D02*
X0469156Y0980838D01*
X0472225Y0980838D02*
X0466086Y0980838D01*
X0475294Y0977769D02*
X0476829Y0977769D01*
X0476829Y0980838D02*
X0476829Y0982373D01*
D11*
X0111137Y0995642D02*
X0101930Y0995642D01*
X0106534Y0995642D02*
X0106534Y0981830D01*
X0097326Y0984132D02*
X0097326Y0995642D01*
X0088118Y0995642D02*
X0088118Y0984132D01*
X0090420Y0981830D01*
X0095024Y0981830D01*
X0097326Y0984132D01*
X0083514Y0988736D02*
X0081212Y0986434D01*
X0074306Y0986434D01*
X0074306Y0981830D02*
X0074306Y0995642D01*
X0081212Y0995642D01*
X0083514Y0993340D01*
X0083514Y0988736D01*
X0069702Y0981830D02*
X0069702Y0995642D01*
X0060494Y0995642D02*
X0069702Y0981830D01*
X0060494Y0981830D02*
X0060494Y0995642D01*
X0055890Y0995642D02*
X0051286Y0995642D01*
X0053588Y0995642D02*
X0053588Y0981830D01*
X0051286Y0981830D02*
X0055890Y0981830D01*
D12*
X0048956Y0956030D02*
X0050490Y0954496D01*
X0045886Y0954496D01*
X0045886Y0956030D02*
X0045886Y0952961D01*
X0046654Y0951426D02*
X0045886Y0950659D01*
X0045886Y0949124D01*
X0046654Y0948357D01*
X0047421Y0948357D01*
X0048188Y0949124D01*
X0048188Y0949892D01*
X0048188Y0949124D02*
X0048956Y0948357D01*
X0049723Y0948357D01*
X0050490Y0949124D01*
X0050490Y0950659D01*
X0049723Y0951426D01*
X0048188Y0946823D02*
X0048188Y0943753D01*
X0049723Y0942219D02*
X0050490Y0941451D01*
X0050490Y0939917D01*
X0049723Y0939149D01*
X0048956Y0939149D01*
X0045886Y0942219D01*
X0045886Y0939149D01*
X0046654Y0937615D02*
X0049723Y0934545D01*
X0046654Y0934545D01*
X0045886Y0935313D01*
X0045886Y0936847D01*
X0046654Y0937615D01*
X0049723Y0937615D01*
X0050490Y0936847D01*
X0050490Y0935313D01*
X0049723Y0934545D01*
X0050490Y0933011D02*
X0047421Y0933011D01*
X0045886Y0931476D01*
X0047421Y0929941D01*
X0050490Y0929941D01*
X0049723Y0921030D02*
X0046654Y0921030D01*
X0045886Y0920263D01*
X0045886Y0918728D01*
X0046654Y0917961D01*
X0048188Y0917961D01*
X0048188Y0919496D01*
X0049723Y0921030D02*
X0050490Y0920263D01*
X0050490Y0918728D01*
X0049723Y0917961D01*
X0050490Y0916426D02*
X0045886Y0913357D01*
X0050490Y0913357D01*
X0050490Y0911823D02*
X0050490Y0909521D01*
X0049723Y0908753D01*
X0046654Y0908753D01*
X0045886Y0909521D01*
X0045886Y0911823D01*
X0050490Y0911823D01*
X0050490Y0916426D02*
X0045886Y0916426D01*
X0120886Y0931430D02*
X0120886Y0934500D01*
X0122421Y0936034D01*
X0123956Y0934500D01*
X0123956Y0931430D01*
X0125490Y0932198D02*
X0126258Y0931430D01*
X0127792Y0931430D01*
X0128560Y0932198D01*
X0130094Y0932198D02*
X0130861Y0931430D01*
X0132396Y0931430D01*
X0133163Y0932198D01*
X0133163Y0932965D01*
X0132396Y0933732D01*
X0130861Y0933732D01*
X0130094Y0934500D01*
X0130094Y0935267D01*
X0130861Y0936034D01*
X0132396Y0936034D01*
X0133163Y0935267D01*
X0134698Y0936034D02*
X0137767Y0936034D01*
X0137767Y0935267D01*
X0134698Y0932198D01*
X0134698Y0931430D01*
X0139302Y0931430D02*
X0142371Y0931430D01*
X0140837Y0931430D02*
X0140837Y0936034D01*
X0139302Y0934500D01*
X0143906Y0935267D02*
X0144673Y0936034D01*
X0146208Y0936034D01*
X0146975Y0935267D01*
X0146975Y0934500D01*
X0146208Y0933732D01*
X0146975Y0932965D01*
X0146975Y0932198D01*
X0146208Y0931430D01*
X0144673Y0931430D01*
X0143906Y0932198D01*
X0145441Y0933732D02*
X0146208Y0933732D01*
X0148510Y0934500D02*
X0149277Y0933732D01*
X0150812Y0933732D01*
X0151579Y0932965D01*
X0151579Y0932198D01*
X0150812Y0931430D01*
X0149277Y0931430D01*
X0148510Y0932198D01*
X0148510Y0934500D02*
X0148510Y0935267D01*
X0149277Y0936034D01*
X0150812Y0936034D01*
X0151579Y0935267D01*
X0153114Y0935267D02*
X0153114Y0932198D01*
X0153881Y0931430D01*
X0155416Y0931430D01*
X0156183Y0932198D01*
X0156183Y0935267D01*
X0155416Y0936034D01*
X0153881Y0936034D01*
X0153114Y0935267D01*
X0157718Y0936034D02*
X0159252Y0936034D01*
X0158485Y0936034D02*
X0158485Y0931430D01*
X0157718Y0931430D02*
X0159252Y0931430D01*
X0160787Y0932198D02*
X0161554Y0931430D01*
X0163089Y0931430D01*
X0163856Y0932198D01*
X0163856Y0935267D02*
X0163089Y0936034D01*
X0161554Y0936034D01*
X0160787Y0935267D01*
X0160787Y0932198D01*
X0128560Y0935267D02*
X0127792Y0936034D01*
X0126258Y0936034D01*
X0125490Y0935267D01*
X0125490Y0932198D01*
X0123956Y0933732D02*
X0120886Y0933732D01*
X0127025Y0965663D02*
X0127025Y0971802D01*
X0127792Y0971034D02*
X0128560Y0970267D01*
X0127792Y0971034D02*
X0126258Y0971034D01*
X0125490Y0970267D01*
X0125490Y0969500D01*
X0126258Y0968732D01*
X0127792Y0968732D01*
X0128560Y0967965D01*
X0128560Y0967198D01*
X0127792Y0966430D01*
X0126258Y0966430D01*
X0125490Y0967198D01*
X0123956Y0967198D02*
X0123956Y0971034D01*
X0120886Y0971034D02*
X0120886Y0967198D01*
X0121654Y0966430D01*
X0123188Y0966430D01*
X0123956Y0967198D01*
X0130094Y0966430D02*
X0133163Y0966430D01*
X0131629Y0966430D02*
X0131629Y0971034D01*
X0130094Y0969500D01*
X0134698Y0969500D02*
X0135465Y0968732D01*
X0137767Y0968732D01*
X0137767Y0967198D02*
X0137767Y0970267D01*
X0137000Y0971034D01*
X0135465Y0971034D01*
X0134698Y0970267D01*
X0134698Y0969500D01*
X0134698Y0967198D02*
X0135465Y0966430D01*
X0137000Y0966430D01*
X0137767Y0967198D01*
X0165684Y0857396D02*
X0165684Y0854326D01*
X0164150Y0855861D02*
X0167219Y0855861D01*
X0185886Y0851034D02*
X0185886Y0847198D01*
X0186654Y0846430D01*
X0188188Y0846430D01*
X0188956Y0847198D01*
X0188956Y0851034D01*
X0190490Y0850267D02*
X0191258Y0851034D01*
X0192792Y0851034D01*
X0193560Y0850267D01*
X0195094Y0850267D02*
X0195861Y0851034D01*
X0197396Y0851034D01*
X0198163Y0850267D01*
X0198163Y0849500D01*
X0195094Y0846430D01*
X0198163Y0846430D01*
X0193560Y0847198D02*
X0193560Y0847965D01*
X0192792Y0848732D01*
X0191258Y0848732D01*
X0190490Y0849500D01*
X0190490Y0850267D01*
X0192025Y0851802D02*
X0192025Y0845663D01*
X0192792Y0846430D02*
X0193560Y0847198D01*
X0192792Y0846430D02*
X0191258Y0846430D01*
X0190490Y0847198D01*
X0191258Y0816034D02*
X0190490Y0815267D01*
X0190490Y0812198D01*
X0191258Y0811430D01*
X0192792Y0811430D01*
X0193560Y0812198D01*
X0195094Y0812198D02*
X0195861Y0811430D01*
X0197396Y0811430D01*
X0198163Y0812198D01*
X0198163Y0812965D01*
X0197396Y0813732D01*
X0195861Y0813732D01*
X0195094Y0814500D01*
X0195094Y0815267D01*
X0195861Y0816034D01*
X0197396Y0816034D01*
X0198163Y0815267D01*
X0199698Y0816034D02*
X0202767Y0816034D01*
X0202767Y0815267D01*
X0199698Y0812198D01*
X0199698Y0811430D01*
X0204302Y0811430D02*
X0207371Y0811430D01*
X0205837Y0811430D02*
X0205837Y0816034D01*
X0204302Y0814500D01*
X0208906Y0815267D02*
X0209673Y0816034D01*
X0211208Y0816034D01*
X0211975Y0815267D01*
X0211975Y0814500D01*
X0211208Y0813732D01*
X0211975Y0812965D01*
X0211975Y0812198D01*
X0211208Y0811430D01*
X0209673Y0811430D01*
X0208906Y0812198D01*
X0210441Y0813732D02*
X0211208Y0813732D01*
X0213510Y0814500D02*
X0214277Y0813732D01*
X0215812Y0813732D01*
X0216579Y0812965D01*
X0216579Y0812198D01*
X0215812Y0811430D01*
X0214277Y0811430D01*
X0213510Y0812198D01*
X0213510Y0814500D02*
X0213510Y0815267D01*
X0214277Y0816034D01*
X0215812Y0816034D01*
X0216579Y0815267D01*
X0218114Y0815267D02*
X0218114Y0812198D01*
X0218881Y0811430D01*
X0220416Y0811430D01*
X0221183Y0812198D01*
X0221183Y0815267D01*
X0220416Y0816034D01*
X0218881Y0816034D01*
X0218114Y0815267D01*
X0222718Y0816034D02*
X0224252Y0816034D01*
X0223485Y0816034D02*
X0223485Y0811430D01*
X0222718Y0811430D02*
X0224252Y0811430D01*
X0225787Y0812198D02*
X0226554Y0811430D01*
X0228089Y0811430D01*
X0228856Y0812198D01*
X0228856Y0815267D02*
X0228089Y0816034D01*
X0226554Y0816034D01*
X0225787Y0815267D01*
X0225787Y0812198D01*
X0245882Y0812544D02*
X0246650Y0813311D01*
X0248184Y0813311D01*
X0248952Y0812544D01*
X0248952Y0810242D01*
X0250486Y0810242D02*
X0245882Y0810242D01*
X0245882Y0812544D01*
X0248952Y0811777D02*
X0250486Y0813311D01*
X0249719Y0814846D02*
X0248952Y0815613D01*
X0248952Y0817915D01*
X0248184Y0817915D02*
X0250486Y0817915D01*
X0250486Y0815613D01*
X0249719Y0814846D01*
X0247417Y0815613D02*
X0247417Y0817148D01*
X0248184Y0817915D01*
X0247417Y0819450D02*
X0247417Y0820217D01*
X0250486Y0820217D01*
X0250486Y0819450D02*
X0250486Y0820985D01*
X0250486Y0822519D02*
X0250486Y0824054D01*
X0250486Y0823287D02*
X0245882Y0823287D01*
X0245882Y0822519D01*
X0245882Y0820217D02*
X0245115Y0820217D01*
X0246650Y0830192D02*
X0249719Y0830192D01*
X0250486Y0830960D01*
X0250486Y0832494D01*
X0249719Y0833262D01*
X0246650Y0833262D01*
X0245882Y0832494D01*
X0245882Y0830960D01*
X0246650Y0830192D01*
X0245882Y0834796D02*
X0250486Y0837866D01*
X0245882Y0837866D01*
X0245882Y0834796D02*
X0250486Y0834796D01*
X0248952Y0804104D02*
X0245882Y0804104D01*
X0248952Y0804104D02*
X0250486Y0802569D01*
X0248952Y0801034D01*
X0245882Y0801034D01*
X0245882Y0799500D02*
X0245882Y0796430D01*
X0248184Y0796430D01*
X0247417Y0797965D01*
X0247417Y0798732D01*
X0248184Y0799500D01*
X0249719Y0799500D01*
X0250486Y0798732D01*
X0250486Y0797198D01*
X0249719Y0796430D01*
X0250886Y0776034D02*
X0250886Y0772198D01*
X0251654Y0771430D01*
X0253188Y0771430D01*
X0253956Y0772198D01*
X0253956Y0776034D01*
X0255490Y0775267D02*
X0256258Y0776034D01*
X0257792Y0776034D01*
X0258560Y0775267D01*
X0260094Y0775267D02*
X0260861Y0776034D01*
X0262396Y0776034D01*
X0263163Y0775267D01*
X0263163Y0774500D01*
X0262396Y0773732D01*
X0263163Y0772965D01*
X0263163Y0772198D01*
X0262396Y0771430D01*
X0260861Y0771430D01*
X0260094Y0772198D01*
X0258560Y0772198D02*
X0258560Y0772965D01*
X0257792Y0773732D01*
X0256258Y0773732D01*
X0255490Y0774500D01*
X0255490Y0775267D01*
X0257025Y0776802D02*
X0257025Y0770663D01*
X0257792Y0771430D02*
X0258560Y0772198D01*
X0257792Y0771430D02*
X0256258Y0771430D01*
X0255490Y0772198D01*
X0261629Y0773732D02*
X0262396Y0773732D01*
X0264698Y0773732D02*
X0266233Y0774500D01*
X0267000Y0774500D01*
X0267767Y0773732D01*
X0267767Y0772198D01*
X0267000Y0771430D01*
X0265465Y0771430D01*
X0264698Y0772198D01*
X0264698Y0773732D02*
X0264698Y0776034D01*
X0267767Y0776034D01*
X0242219Y0750861D02*
X0239150Y0750861D01*
X0240684Y0749326D02*
X0240684Y0752396D01*
X0252421Y0741034D02*
X0253956Y0739500D01*
X0253956Y0736430D01*
X0255490Y0737198D02*
X0256258Y0736430D01*
X0257792Y0736430D01*
X0258560Y0737198D01*
X0260094Y0737198D02*
X0260861Y0736430D01*
X0262396Y0736430D01*
X0263163Y0737198D01*
X0263163Y0737965D01*
X0262396Y0738732D01*
X0260861Y0738732D01*
X0260094Y0739500D01*
X0260094Y0740267D01*
X0260861Y0741034D01*
X0262396Y0741034D01*
X0263163Y0740267D01*
X0264698Y0741034D02*
X0267767Y0741034D01*
X0267767Y0740267D01*
X0264698Y0737198D01*
X0264698Y0736430D01*
X0269302Y0736430D02*
X0272371Y0736430D01*
X0270837Y0736430D02*
X0270837Y0741034D01*
X0269302Y0739500D01*
X0273906Y0740267D02*
X0274673Y0741034D01*
X0276208Y0741034D01*
X0276975Y0740267D01*
X0276975Y0739500D01*
X0276208Y0738732D01*
X0276975Y0737965D01*
X0276975Y0737198D01*
X0276208Y0736430D01*
X0274673Y0736430D01*
X0273906Y0737198D01*
X0275441Y0738732D02*
X0276208Y0738732D01*
X0278510Y0739500D02*
X0279277Y0738732D01*
X0280812Y0738732D01*
X0281579Y0737965D01*
X0281579Y0737198D01*
X0280812Y0736430D01*
X0279277Y0736430D01*
X0278510Y0737198D01*
X0278510Y0739500D02*
X0278510Y0740267D01*
X0279277Y0741034D01*
X0280812Y0741034D01*
X0281579Y0740267D01*
X0283114Y0740267D02*
X0283114Y0737198D01*
X0283881Y0736430D01*
X0285416Y0736430D01*
X0286183Y0737198D01*
X0286183Y0740267D01*
X0285416Y0741034D01*
X0283881Y0741034D01*
X0283114Y0740267D01*
X0287718Y0741034D02*
X0289252Y0741034D01*
X0288485Y0741034D02*
X0288485Y0736430D01*
X0287718Y0736430D02*
X0289252Y0736430D01*
X0290787Y0737198D02*
X0291554Y0736430D01*
X0293089Y0736430D01*
X0293856Y0737198D01*
X0293856Y0740267D02*
X0293089Y0741034D01*
X0291554Y0741034D01*
X0290787Y0740267D01*
X0290787Y0737198D01*
X0320882Y0737470D02*
X0325486Y0737470D01*
X0320882Y0734400D01*
X0325486Y0734400D01*
X0324719Y0732866D02*
X0325486Y0732098D01*
X0325486Y0730564D01*
X0324719Y0729796D01*
X0321650Y0729796D01*
X0320882Y0730564D01*
X0320882Y0732098D01*
X0321650Y0732866D01*
X0324719Y0732866D01*
X0325486Y0723658D02*
X0325486Y0722123D01*
X0325486Y0722891D02*
X0320882Y0722891D01*
X0320882Y0722123D01*
X0320882Y0719821D02*
X0320115Y0719821D01*
X0322417Y0719821D02*
X0325486Y0719821D01*
X0325486Y0719054D02*
X0325486Y0720589D01*
X0325486Y0717519D02*
X0323184Y0717519D01*
X0322417Y0716752D01*
X0322417Y0715217D01*
X0323952Y0715217D02*
X0323952Y0717519D01*
X0325486Y0717519D02*
X0325486Y0715217D01*
X0324719Y0714450D01*
X0323952Y0715217D01*
X0323184Y0712915D02*
X0323952Y0712148D01*
X0323952Y0709846D01*
X0325486Y0709846D02*
X0320882Y0709846D01*
X0320882Y0712148D01*
X0321650Y0712915D01*
X0323184Y0712915D01*
X0323952Y0711381D02*
X0325486Y0712915D01*
X0322417Y0719054D02*
X0322417Y0719821D01*
X0323952Y0703708D02*
X0320882Y0703708D01*
X0323952Y0703708D02*
X0325486Y0702173D01*
X0323952Y0700638D01*
X0320882Y0700638D01*
X0321650Y0699104D02*
X0320882Y0698336D01*
X0320882Y0696802D01*
X0321650Y0696034D01*
X0321650Y0699104D02*
X0322417Y0699104D01*
X0325486Y0696034D01*
X0325486Y0699104D01*
X0325486Y0694500D02*
X0325486Y0691430D01*
X0325486Y0692965D02*
X0320882Y0692965D01*
X0322417Y0691430D01*
X0385882Y0722965D02*
X0390486Y0722965D01*
X0390486Y0721430D02*
X0390486Y0724500D01*
X0390486Y0726034D02*
X0387417Y0729104D01*
X0386650Y0729104D01*
X0385882Y0728336D01*
X0385882Y0726802D01*
X0386650Y0726034D01*
X0385882Y0722965D02*
X0387417Y0721430D01*
X0390486Y0726034D02*
X0390486Y0729104D01*
X0388952Y0730638D02*
X0390486Y0732173D01*
X0388952Y0733708D01*
X0385882Y0733708D01*
X0385882Y0730638D02*
X0388952Y0730638D01*
X0395882Y0730638D02*
X0398952Y0730638D01*
X0400486Y0732173D01*
X0398952Y0733708D01*
X0395882Y0733708D01*
X0396650Y0729104D02*
X0395882Y0728336D01*
X0395882Y0726802D01*
X0396650Y0726034D01*
X0396650Y0729104D02*
X0397417Y0729104D01*
X0400486Y0726034D01*
X0400486Y0729104D01*
X0400486Y0724500D02*
X0400486Y0721430D01*
X0400486Y0722965D02*
X0395882Y0722965D01*
X0397417Y0721430D01*
X0405882Y0722198D02*
X0406650Y0721430D01*
X0409719Y0721430D01*
X0410486Y0722198D01*
X0410486Y0723732D01*
X0409719Y0724500D01*
X0408184Y0724500D01*
X0408184Y0722965D01*
X0406650Y0724500D02*
X0405882Y0723732D01*
X0405882Y0722198D01*
X0405882Y0726034D02*
X0410486Y0729104D01*
X0405882Y0729104D01*
X0405882Y0730638D02*
X0405882Y0732940D01*
X0406650Y0733708D01*
X0409719Y0733708D01*
X0410486Y0732940D01*
X0410486Y0730638D01*
X0405882Y0730638D01*
X0405882Y0726034D02*
X0410486Y0726034D01*
X0415882Y0726034D02*
X0420486Y0729104D01*
X0415882Y0729104D01*
X0415882Y0730638D02*
X0415882Y0732940D01*
X0416650Y0733708D01*
X0419719Y0733708D01*
X0420486Y0732940D01*
X0420486Y0730638D01*
X0415882Y0730638D01*
X0415882Y0726034D02*
X0420486Y0726034D01*
X0419719Y0724500D02*
X0418184Y0724500D01*
X0418184Y0722965D01*
X0416650Y0721430D02*
X0419719Y0721430D01*
X0420486Y0722198D01*
X0420486Y0723732D01*
X0419719Y0724500D01*
X0416650Y0724500D02*
X0415882Y0723732D01*
X0415882Y0722198D01*
X0416650Y0721430D01*
X0440882Y0704896D02*
X0443952Y0704896D01*
X0445486Y0703361D01*
X0443952Y0701826D01*
X0440882Y0701826D01*
X0441650Y0700292D02*
X0440882Y0699524D01*
X0440882Y0697990D01*
X0441650Y0697223D01*
X0441650Y0700292D02*
X0442417Y0700292D01*
X0445486Y0697223D01*
X0445486Y0700292D01*
X0445486Y0695688D02*
X0445486Y0692619D01*
X0445486Y0694153D02*
X0440882Y0694153D01*
X0442417Y0692619D01*
X0485882Y0693386D02*
X0486650Y0692619D01*
X0489719Y0692619D01*
X0490486Y0693386D01*
X0490486Y0694921D01*
X0489719Y0695688D01*
X0488184Y0695688D01*
X0488184Y0694153D01*
X0486650Y0695688D02*
X0485882Y0694921D01*
X0485882Y0693386D01*
X0485882Y0697223D02*
X0490486Y0700292D01*
X0485882Y0700292D01*
X0485882Y0701826D02*
X0485882Y0704128D01*
X0486650Y0704896D01*
X0489719Y0704896D01*
X0490486Y0704128D01*
X0490486Y0701826D01*
X0485882Y0701826D01*
X0485882Y0697223D02*
X0490486Y0697223D01*
X0495882Y0696430D02*
X0498184Y0696430D01*
X0497417Y0697965D01*
X0497417Y0698732D01*
X0498184Y0699500D01*
X0499719Y0699500D01*
X0500486Y0698732D01*
X0500486Y0697198D01*
X0499719Y0696430D01*
X0495882Y0696430D02*
X0495882Y0699500D01*
X0495882Y0701034D02*
X0498952Y0701034D01*
X0500486Y0702569D01*
X0498952Y0704104D01*
X0495882Y0704104D01*
X0538382Y0704128D02*
X0538382Y0701826D01*
X0542986Y0701826D01*
X0542986Y0704128D01*
X0542219Y0704896D01*
X0539150Y0704896D01*
X0538382Y0704128D01*
X0538382Y0700292D02*
X0542986Y0700292D01*
X0538382Y0697223D01*
X0542986Y0697223D01*
X0542219Y0695688D02*
X0540684Y0695688D01*
X0540684Y0694153D01*
X0539150Y0692619D02*
X0542219Y0692619D01*
X0542986Y0693386D01*
X0542986Y0694921D01*
X0542219Y0695688D01*
X0539150Y0695688D02*
X0538382Y0694921D01*
X0538382Y0693386D01*
X0539150Y0692619D01*
X0580882Y0697223D02*
X0583184Y0697223D01*
X0582417Y0698757D01*
X0582417Y0699524D01*
X0583184Y0700292D01*
X0584719Y0700292D01*
X0585486Y0699524D01*
X0585486Y0697990D01*
X0584719Y0697223D01*
X0580882Y0697223D02*
X0580882Y0700292D01*
X0580882Y0701826D02*
X0583952Y0701826D01*
X0585486Y0703361D01*
X0583952Y0704896D01*
X0580882Y0704896D01*
X0564719Y0786430D02*
X0565486Y0787198D01*
X0565486Y0788732D01*
X0564719Y0789500D01*
X0563184Y0789500D01*
X0562417Y0788732D01*
X0562417Y0787965D01*
X0563184Y0786430D01*
X0560882Y0786430D01*
X0560882Y0789500D01*
X0560882Y0791034D02*
X0563952Y0791034D01*
X0565486Y0792569D01*
X0563952Y0794104D01*
X0560882Y0794104D01*
X0555486Y0794104D02*
X0550882Y0794104D01*
X0550882Y0795638D02*
X0550882Y0797940D01*
X0551650Y0798708D01*
X0554719Y0798708D01*
X0555486Y0797940D01*
X0555486Y0795638D01*
X0550882Y0795638D01*
X0550882Y0791034D02*
X0555486Y0794104D01*
X0555486Y0791034D02*
X0550882Y0791034D01*
X0551650Y0789500D02*
X0550882Y0788732D01*
X0550882Y0787198D01*
X0551650Y0786430D01*
X0554719Y0786430D01*
X0555486Y0787198D01*
X0555486Y0788732D01*
X0554719Y0789500D01*
X0553184Y0789500D01*
X0553184Y0787965D01*
X0530486Y0787198D02*
X0529719Y0786430D01*
X0530486Y0787198D02*
X0530486Y0788732D01*
X0529719Y0789500D01*
X0528184Y0789500D01*
X0527417Y0788732D01*
X0527417Y0787965D01*
X0528184Y0786430D01*
X0525882Y0786430D01*
X0525882Y0789500D01*
X0525882Y0791034D02*
X0528952Y0791034D01*
X0530486Y0792569D01*
X0528952Y0794104D01*
X0525882Y0794104D01*
X0520486Y0794104D02*
X0515882Y0794104D01*
X0515882Y0795638D02*
X0515882Y0797940D01*
X0516650Y0798708D01*
X0519719Y0798708D01*
X0520486Y0797940D01*
X0520486Y0795638D01*
X0515882Y0795638D01*
X0515882Y0791034D02*
X0520486Y0794104D01*
X0520486Y0791034D02*
X0515882Y0791034D01*
X0516650Y0789500D02*
X0515882Y0788732D01*
X0515882Y0787198D01*
X0516650Y0786430D01*
X0519719Y0786430D01*
X0520486Y0787198D01*
X0520486Y0788732D01*
X0519719Y0789500D01*
X0518184Y0789500D01*
X0518184Y0787965D01*
X0510486Y0787198D02*
X0509719Y0786430D01*
X0510486Y0787198D02*
X0510486Y0788732D01*
X0509719Y0789500D01*
X0508952Y0789500D01*
X0508184Y0788732D01*
X0508184Y0787198D01*
X0507417Y0786430D01*
X0506650Y0786430D01*
X0505882Y0787198D01*
X0505882Y0788732D01*
X0506650Y0789500D01*
X0505882Y0791034D02*
X0505882Y0793336D01*
X0506650Y0794104D01*
X0509719Y0794104D01*
X0510486Y0793336D01*
X0510486Y0791034D01*
X0505882Y0791034D01*
X0507417Y0795638D02*
X0505882Y0797173D01*
X0507417Y0798708D01*
X0510486Y0798708D01*
X0508184Y0798708D02*
X0508184Y0795638D01*
X0507417Y0795638D02*
X0510486Y0795638D01*
X0500486Y0795638D02*
X0500486Y0798708D01*
X0500486Y0795638D02*
X0495882Y0795638D01*
X0496650Y0794104D02*
X0495882Y0793336D01*
X0495882Y0791802D01*
X0496650Y0791034D01*
X0499719Y0791034D01*
X0500486Y0791802D01*
X0500486Y0793336D01*
X0499719Y0794104D01*
X0499719Y0789500D02*
X0500486Y0788732D01*
X0500486Y0787198D01*
X0499719Y0786430D01*
X0498184Y0787198D02*
X0498184Y0788732D01*
X0498952Y0789500D01*
X0499719Y0789500D01*
X0498184Y0787198D02*
X0497417Y0786430D01*
X0496650Y0786430D01*
X0495882Y0787198D01*
X0495882Y0788732D01*
X0496650Y0789500D01*
X0524080Y0826430D02*
X0523312Y0827198D01*
X0524080Y0826430D02*
X0525614Y0826430D01*
X0526382Y0827198D01*
X0526382Y0827965D01*
X0525614Y0828732D01*
X0524847Y0828732D01*
X0525614Y0828732D02*
X0526382Y0829500D01*
X0526382Y0830267D01*
X0525614Y0831034D01*
X0524080Y0831034D01*
X0523312Y0830267D01*
X0527916Y0831034D02*
X0527916Y0827965D01*
X0529451Y0826430D01*
X0530986Y0827965D01*
X0530986Y0831034D01*
X0532520Y0830267D02*
X0533288Y0831034D01*
X0534822Y0831034D01*
X0535589Y0830267D01*
X0535589Y0829500D01*
X0534822Y0828732D01*
X0535589Y0827965D01*
X0535589Y0827198D01*
X0534822Y0826430D01*
X0533288Y0826430D01*
X0532520Y0827198D01*
X0534055Y0828732D02*
X0534822Y0828732D01*
X0541728Y0827965D02*
X0544030Y0827965D01*
X0544797Y0828732D01*
X0544797Y0830267D01*
X0544030Y0831034D01*
X0541728Y0831034D01*
X0541728Y0826430D01*
X0543263Y0827965D02*
X0544797Y0826430D01*
X0546332Y0827198D02*
X0547099Y0826430D01*
X0549401Y0826430D01*
X0549401Y0828732D01*
X0548634Y0829500D01*
X0547099Y0829500D01*
X0547099Y0827965D02*
X0549401Y0827965D01*
X0550936Y0826430D02*
X0552471Y0826430D01*
X0551703Y0826430D02*
X0551703Y0829500D01*
X0550936Y0829500D01*
X0551703Y0831034D02*
X0551703Y0831802D01*
X0554005Y0831034D02*
X0554772Y0831034D01*
X0554772Y0826430D01*
X0554005Y0826430D02*
X0555540Y0826430D01*
X0561678Y0827198D02*
X0562446Y0826430D01*
X0563980Y0826430D01*
X0564748Y0827198D01*
X0564748Y0830267D01*
X0563980Y0831034D01*
X0562446Y0831034D01*
X0561678Y0830267D01*
X0561678Y0827198D01*
X0566282Y0826430D02*
X0566282Y0831034D01*
X0569352Y0826430D01*
X0569352Y0831034D01*
X0547099Y0827965D02*
X0546332Y0827198D01*
X0552668Y1019896D02*
X0553435Y1019896D01*
X0554203Y1020663D01*
X0554203Y1024500D01*
X0551901Y1024500D01*
X0551133Y1023732D01*
X0551133Y1022198D01*
X0551901Y1021430D01*
X0554203Y1021430D01*
X0555737Y1021430D02*
X0555737Y1026034D01*
X0556505Y1024500D02*
X0558039Y1024500D01*
X0558807Y1023732D01*
X0558807Y1021430D01*
X0560341Y1021430D02*
X0561109Y1021430D01*
X0561109Y1022198D01*
X0560341Y1022198D01*
X0560341Y1021430D01*
X0556505Y1024500D02*
X0555737Y1023732D01*
X0549599Y1021430D02*
X0548064Y1021430D01*
X0548831Y1021430D02*
X0548831Y1024500D01*
X0548064Y1024500D01*
X0548831Y1026034D02*
X0548831Y1026802D01*
X0545762Y1024500D02*
X0546529Y1023732D01*
X0546529Y1021430D01*
X0543460Y1021430D02*
X0543460Y1026034D01*
X0544228Y1024500D02*
X0545762Y1024500D01*
X0544228Y1024500D02*
X0543460Y1023732D01*
X0537322Y1024500D02*
X0535020Y1024500D01*
X0534252Y1023732D01*
X0534252Y1022198D01*
X0535020Y1021430D01*
X0537322Y1021430D01*
X0537322Y1026034D01*
X0531950Y1026034D02*
X0531950Y1021430D01*
X0531183Y1021430D02*
X0532718Y1021430D01*
X0529648Y1022965D02*
X0526579Y1022965D01*
X0526579Y1022198D02*
X0526579Y1023732D01*
X0527346Y1024500D01*
X0528881Y1024500D01*
X0529648Y1023732D01*
X0529648Y1022965D01*
X0528881Y1021430D02*
X0527346Y1021430D01*
X0526579Y1022198D01*
X0525045Y1021430D02*
X0525045Y1023732D01*
X0524277Y1024500D01*
X0522743Y1024500D01*
X0521975Y1023732D01*
X0521975Y1026034D02*
X0521975Y1021430D01*
X0515837Y1021430D02*
X0515069Y1022198D01*
X0515069Y1025267D01*
X0514302Y1024500D02*
X0515837Y1024500D01*
X0512767Y1023732D02*
X0512767Y1022965D01*
X0509698Y1022965D01*
X0509698Y1022198D02*
X0509698Y1023732D01*
X0510465Y1024500D01*
X0512000Y1024500D01*
X0512767Y1023732D01*
X0512000Y1021430D02*
X0510465Y1021430D01*
X0509698Y1022198D01*
X0508163Y1022198D02*
X0507396Y1022965D01*
X0505861Y1022965D01*
X0505094Y1023732D01*
X0505861Y1024500D01*
X0508163Y1024500D01*
X0508163Y1022198D02*
X0507396Y1021430D01*
X0505094Y1021430D01*
X0503560Y1022965D02*
X0500490Y1022965D01*
X0500490Y1022198D02*
X0500490Y1023732D01*
X0501258Y1024500D01*
X0502792Y1024500D01*
X0503560Y1023732D01*
X0503560Y1022965D01*
X0502792Y1021430D02*
X0501258Y1021430D01*
X0500490Y1022198D01*
X0498956Y1021430D02*
X0497421Y1022965D01*
X0498188Y1022965D02*
X0495886Y1022965D01*
X0495886Y1021430D02*
X0495886Y1026034D01*
X0498188Y1026034D01*
X0498956Y1025267D01*
X0498956Y1023732D01*
X0498188Y1022965D01*
X0531183Y1026034D02*
X0531950Y1026034D01*
X0545886Y1131430D02*
X0545886Y1136034D01*
X0548188Y1136034D01*
X0548956Y1135267D01*
X0548956Y1133732D01*
X0548188Y1132965D01*
X0545886Y1132965D01*
X0547421Y1132965D02*
X0548956Y1131430D01*
X0550490Y1132198D02*
X0550490Y1133732D01*
X0551258Y1134500D01*
X0552792Y1134500D01*
X0553560Y1133732D01*
X0553560Y1132965D01*
X0550490Y1132965D01*
X0550490Y1132198D02*
X0551258Y1131430D01*
X0552792Y1131430D01*
X0556629Y1131430D02*
X0558163Y1134500D01*
X0559698Y1132198D02*
X0560465Y1132198D01*
X0560465Y1131430D01*
X0559698Y1131430D01*
X0559698Y1132198D01*
X0556629Y1131430D02*
X0555094Y1134500D01*
X0555094Y1138930D02*
X0557396Y1138930D01*
X0558163Y1139698D01*
X0558163Y1141232D01*
X0557396Y1142000D01*
X0555094Y1142000D01*
X0555094Y1143534D02*
X0555094Y1138930D01*
X0553560Y1138930D02*
X0553560Y1142000D01*
X0553560Y1138930D02*
X0551258Y1138930D01*
X0550490Y1139698D01*
X0550490Y1142000D01*
X0548956Y1142767D02*
X0548956Y1139698D01*
X0548188Y1138930D01*
X0546654Y1138930D01*
X0545886Y1139698D01*
X0545886Y1142767D01*
X0546654Y1143534D01*
X0548188Y1143534D01*
X0548956Y1142767D01*
X0547421Y1140465D02*
X0548956Y1138930D01*
X0559698Y1139698D02*
X0560465Y1138930D01*
X0562000Y1138930D01*
X0562767Y1139698D01*
X0562767Y1141232D01*
X0562000Y1142000D01*
X0560465Y1142000D01*
X0559698Y1141232D01*
X0559698Y1139698D01*
X0566604Y1135267D02*
X0567371Y1136034D01*
X0568906Y1136034D01*
X0569673Y1135267D01*
X0569673Y1134500D01*
X0566604Y1131430D01*
X0569673Y1131430D01*
X0569673Y1138930D02*
X0570441Y1138930D01*
X0571208Y1139698D01*
X0571208Y1143534D01*
X0570441Y1143534D02*
X0571975Y1143534D01*
X0573510Y1142000D02*
X0573510Y1138930D01*
X0573510Y1140465D02*
X0575045Y1142000D01*
X0575812Y1142000D01*
X0577346Y1139698D02*
X0578114Y1139698D01*
X0578114Y1138930D01*
X0577346Y1138930D01*
X0577346Y1139698D01*
X0584252Y1139698D02*
X0585020Y1138930D01*
X0586554Y1138930D01*
X0587322Y1139698D01*
X0587322Y1140465D01*
X0586554Y1141232D01*
X0585020Y1141232D01*
X0584252Y1142000D01*
X0584252Y1142767D01*
X0585020Y1143534D01*
X0586554Y1143534D01*
X0587322Y1142767D01*
X0588856Y1142000D02*
X0588856Y1139698D01*
X0589624Y1138930D01*
X0591926Y1138930D01*
X0591926Y1142000D01*
X0593460Y1142000D02*
X0595762Y1142000D01*
X0596529Y1141232D01*
X0596529Y1139698D01*
X0595762Y1138930D01*
X0593460Y1138930D01*
X0593460Y1137396D02*
X0593460Y1142000D01*
X0598064Y1142000D02*
X0598064Y1137396D01*
X0598064Y1138930D02*
X0600366Y1138930D01*
X0601133Y1139698D01*
X0601133Y1141232D01*
X0600366Y1142000D01*
X0598064Y1142000D01*
X0602668Y1141232D02*
X0602668Y1139698D01*
X0603435Y1138930D01*
X0604970Y1138930D01*
X0605737Y1139698D01*
X0605737Y1141232D01*
X0604970Y1142000D01*
X0603435Y1142000D01*
X0602668Y1141232D01*
X0607272Y1140465D02*
X0608807Y1142000D01*
X0609574Y1142000D01*
X0611109Y1142000D02*
X0612643Y1142000D01*
X0611876Y1142767D02*
X0611876Y1139698D01*
X0612643Y1138930D01*
X0607272Y1138930D02*
X0607272Y1142000D01*
X0611109Y1149896D02*
X0611876Y1149896D01*
X0612643Y1150663D01*
X0612643Y1154500D01*
X0614178Y1156034D02*
X0614945Y1156034D01*
X0614945Y1151430D01*
X0614178Y1151430D02*
X0615713Y1151430D01*
X0617247Y1152198D02*
X0618014Y1152965D01*
X0620316Y1152965D01*
X0620316Y1153732D02*
X0620316Y1151430D01*
X0618014Y1151430D01*
X0617247Y1152198D01*
X0618014Y1154500D02*
X0619549Y1154500D01*
X0620316Y1153732D01*
X0621851Y1154500D02*
X0624153Y1154500D01*
X0624920Y1153732D01*
X0624920Y1151430D01*
X0626455Y1152198D02*
X0626455Y1153732D01*
X0627222Y1154500D01*
X0629524Y1154500D01*
X0629524Y1156034D02*
X0629524Y1151430D01*
X0627222Y1151430D01*
X0626455Y1152198D01*
X0621851Y1151430D02*
X0621851Y1154500D01*
X0612643Y1151430D02*
X0610341Y1151430D01*
X0609574Y1152198D01*
X0609574Y1154500D01*
X0608039Y1154500D02*
X0607272Y1154500D01*
X0605737Y1152965D01*
X0604203Y1152965D02*
X0601901Y1152965D01*
X0601133Y1152198D01*
X0601901Y1151430D01*
X0604203Y1151430D01*
X0604203Y1153732D01*
X0603435Y1154500D01*
X0601901Y1154500D01*
X0599599Y1156034D02*
X0599599Y1151430D01*
X0596529Y1151430D02*
X0596529Y1156034D01*
X0598064Y1154500D01*
X0599599Y1156034D01*
X0605737Y1154500D02*
X0605737Y1151430D01*
X0590391Y1151430D02*
X0589624Y1152198D01*
X0589624Y1155267D01*
X0590391Y1154500D02*
X0588856Y1154500D01*
X0587322Y1153732D02*
X0587322Y1151430D01*
X0585020Y1151430D01*
X0584252Y1152198D01*
X0585020Y1152965D01*
X0587322Y1152965D01*
X0587322Y1153732D02*
X0586554Y1154500D01*
X0585020Y1154500D01*
X0586554Y1158930D02*
X0585787Y1159698D01*
X0585787Y1162767D01*
X0585020Y1162000D02*
X0586554Y1162000D01*
X0588089Y1162000D02*
X0591158Y1162000D01*
X0588089Y1158930D01*
X0591158Y1158930D01*
X0591926Y1164896D02*
X0592693Y1164896D01*
X0593460Y1165663D01*
X0593460Y1169500D01*
X0594995Y1169500D02*
X0594995Y1168732D01*
X0595762Y1168732D01*
X0595762Y1169500D01*
X0594995Y1169500D01*
X0594995Y1167198D02*
X0594995Y1166430D01*
X0595762Y1166430D01*
X0595762Y1167198D01*
X0594995Y1167198D01*
X0593460Y1166430D02*
X0591158Y1166430D01*
X0590391Y1167198D01*
X0590391Y1169500D01*
X0588856Y1169500D02*
X0588089Y1168732D01*
X0585787Y1168732D01*
X0585787Y1166430D02*
X0588089Y1166430D01*
X0588856Y1167198D01*
X0588856Y1167965D01*
X0588089Y1168732D01*
X0588856Y1169500D02*
X0588856Y1170267D01*
X0588089Y1171034D01*
X0585787Y1171034D01*
X0585787Y1166430D01*
X0582718Y1164302D02*
X0582718Y1163534D01*
X0582718Y1162000D02*
X0582718Y1158930D01*
X0583485Y1158930D02*
X0581950Y1158930D01*
X0580416Y1159698D02*
X0580416Y1162000D01*
X0581950Y1162000D02*
X0582718Y1162000D01*
X0580416Y1159698D02*
X0579648Y1158930D01*
X0578881Y1159698D01*
X0578114Y1158930D01*
X0577346Y1159698D01*
X0577346Y1162000D01*
X0575812Y1162000D02*
X0575045Y1162000D01*
X0573510Y1160465D01*
X0573510Y1158930D02*
X0573510Y1162000D01*
X0571975Y1162000D02*
X0571975Y1158930D01*
X0569673Y1158930D01*
X0568906Y1159698D01*
X0568906Y1162000D01*
X0567371Y1161232D02*
X0564302Y1161232D01*
X0564302Y1158930D02*
X0564302Y1163534D01*
X0564302Y1164896D02*
X0565069Y1164896D01*
X0565837Y1165663D01*
X0565837Y1169500D01*
X0563535Y1169500D01*
X0562767Y1168732D01*
X0562767Y1167198D01*
X0563535Y1166430D01*
X0565837Y1166430D01*
X0567371Y1166430D02*
X0567371Y1169500D01*
X0569673Y1169500D01*
X0570441Y1168732D01*
X0570441Y1166430D01*
X0571975Y1167198D02*
X0571975Y1168732D01*
X0572743Y1169500D01*
X0574277Y1169500D01*
X0575045Y1168732D01*
X0575045Y1167965D01*
X0571975Y1167965D01*
X0571975Y1167198D02*
X0572743Y1166430D01*
X0574277Y1166430D01*
X0576579Y1167198D02*
X0576579Y1168732D01*
X0577346Y1169500D01*
X0579648Y1169500D01*
X0579648Y1171034D02*
X0579648Y1166430D01*
X0577346Y1166430D01*
X0576579Y1167198D01*
X0567371Y1163534D02*
X0567371Y1158930D01*
X0568139Y1156802D02*
X0568139Y1156034D01*
X0568139Y1154500D02*
X0568139Y1151430D01*
X0568906Y1151430D02*
X0567371Y1151430D01*
X0565837Y1151430D02*
X0565069Y1152198D01*
X0565069Y1155267D01*
X0564302Y1154500D02*
X0565837Y1154500D01*
X0567371Y1154500D02*
X0568139Y1154500D01*
X0570441Y1153732D02*
X0570441Y1152198D01*
X0571208Y1151430D01*
X0573510Y1151430D01*
X0575045Y1151430D02*
X0577346Y1151430D01*
X0578114Y1152198D01*
X0577346Y1152965D01*
X0575812Y1152965D01*
X0575045Y1153732D01*
X0575812Y1154500D01*
X0578114Y1154500D01*
X0573510Y1154500D02*
X0571208Y1154500D01*
X0570441Y1153732D01*
X0562767Y1153732D02*
X0562000Y1154500D01*
X0560465Y1154500D01*
X0559698Y1153732D01*
X0559698Y1152198D01*
X0560465Y1151430D01*
X0562000Y1151430D01*
X0562767Y1152198D01*
X0562767Y1153732D01*
X0558163Y1153732D02*
X0557396Y1154500D01*
X0555094Y1154500D01*
X0555094Y1156034D02*
X0555094Y1151430D01*
X0557396Y1151430D01*
X0558163Y1152198D01*
X0558163Y1153732D01*
X0553560Y1153732D02*
X0552792Y1154500D01*
X0551258Y1154500D01*
X0550490Y1153732D01*
X0550490Y1152198D01*
X0551258Y1151430D01*
X0552792Y1151430D01*
X0553560Y1152198D01*
X0553560Y1153732D01*
X0548956Y1153732D02*
X0548188Y1152965D01*
X0545886Y1152965D01*
X0545886Y1151430D02*
X0545886Y1156034D01*
X0548188Y1156034D01*
X0548956Y1155267D01*
X0548956Y1153732D01*
X0547421Y1152965D02*
X0548956Y1151430D01*
X0548188Y1158930D02*
X0545886Y1158930D01*
X0545886Y1163534D01*
X0548188Y1163534D01*
X0548956Y1162767D01*
X0548956Y1162000D01*
X0548188Y1161232D01*
X0545886Y1161232D01*
X0548188Y1161232D02*
X0548956Y1160465D01*
X0548956Y1159698D01*
X0548188Y1158930D01*
X0550490Y1159698D02*
X0550490Y1161232D01*
X0551258Y1162000D01*
X0552792Y1162000D01*
X0553560Y1161232D01*
X0553560Y1160465D01*
X0550490Y1160465D01*
X0550490Y1159698D02*
X0551258Y1158930D01*
X0552792Y1158930D01*
X0555094Y1158930D02*
X0555094Y1162000D01*
X0557396Y1162000D01*
X0558163Y1161232D01*
X0558163Y1158930D01*
X0557396Y1166430D02*
X0558163Y1167198D01*
X0557396Y1167965D01*
X0555861Y1167965D01*
X0555094Y1168732D01*
X0555861Y1169500D01*
X0558163Y1169500D01*
X0559698Y1169500D02*
X0560465Y1169500D01*
X0560465Y1166430D01*
X0559698Y1166430D02*
X0561233Y1166430D01*
X0557396Y1166430D02*
X0555094Y1166430D01*
X0553560Y1167965D02*
X0550490Y1167965D01*
X0550490Y1167198D02*
X0550490Y1168732D01*
X0551258Y1169500D01*
X0552792Y1169500D01*
X0553560Y1168732D01*
X0553560Y1167965D01*
X0552792Y1166430D02*
X0551258Y1166430D01*
X0550490Y1167198D01*
X0548956Y1167198D02*
X0548956Y1170267D01*
X0548188Y1171034D01*
X0545886Y1171034D01*
X0545886Y1166430D01*
X0548188Y1166430D01*
X0548956Y1167198D01*
X0560465Y1171034D02*
X0560465Y1171802D01*
X0568906Y1139698D02*
X0569673Y1138930D01*
X0618782Y1138930D02*
X0621084Y1138930D01*
X0621851Y1139698D01*
X0621851Y1140465D01*
X0621084Y1141232D01*
X0618782Y1141232D01*
X0618782Y1138930D02*
X0618782Y1143534D01*
X0621084Y1143534D01*
X0621851Y1142767D01*
X0621851Y1142000D01*
X0621084Y1141232D01*
X0623386Y1141232D02*
X0623386Y1139698D01*
X0624153Y1138930D01*
X0625688Y1138930D01*
X0626455Y1139698D01*
X0626455Y1141232D01*
X0625688Y1142000D01*
X0624153Y1142000D01*
X0623386Y1141232D01*
X0627990Y1139698D02*
X0628757Y1140465D01*
X0631059Y1140465D01*
X0631059Y1141232D02*
X0631059Y1138930D01*
X0628757Y1138930D01*
X0627990Y1139698D01*
X0628757Y1142000D02*
X0630292Y1142000D01*
X0631059Y1141232D01*
X0632594Y1140465D02*
X0634128Y1142000D01*
X0634896Y1142000D01*
X0636430Y1141232D02*
X0637197Y1142000D01*
X0639499Y1142000D01*
X0639499Y1143534D02*
X0639499Y1138930D01*
X0637197Y1138930D01*
X0636430Y1139698D01*
X0636430Y1141232D01*
X0632594Y1142000D02*
X0632594Y1138930D01*
X0631059Y1149896D02*
X0632594Y1151430D01*
X0631826Y1151430D01*
X0631826Y1152198D01*
X0632594Y1152198D01*
X0632594Y1151430D01*
X0638732Y1151430D02*
X0641801Y1154500D01*
X0641801Y1155267D01*
X0641034Y1156034D01*
X0639499Y1156034D01*
X0638732Y1155267D01*
X0638732Y1151430D02*
X0641801Y1151430D01*
X0643336Y1152198D02*
X0646405Y1155267D01*
X0646405Y1152198D01*
X0645638Y1151430D01*
X0644103Y1151430D01*
X0643336Y1152198D01*
X0643336Y1155267D01*
X0644103Y1156034D01*
X0645638Y1156034D01*
X0646405Y1155267D01*
X0647940Y1154500D02*
X0649475Y1156034D01*
X0649475Y1151430D01*
X0651009Y1151430D02*
X0647940Y1151430D01*
X0652544Y1151430D02*
X0652544Y1152198D01*
X0655613Y1155267D01*
X0655613Y1156034D01*
X0652544Y1156034D01*
X0725886Y1146034D02*
X0725886Y1142198D01*
X0726654Y1141430D01*
X0728188Y1141430D01*
X0728956Y1142198D01*
X0728956Y1146034D01*
X0730490Y1145267D02*
X0731258Y1146034D01*
X0732792Y1146034D01*
X0733560Y1145267D01*
X0735094Y1145267D02*
X0735861Y1146034D01*
X0737396Y1146034D01*
X0738163Y1145267D01*
X0738163Y1144500D01*
X0737396Y1143732D01*
X0738163Y1142965D01*
X0738163Y1142198D01*
X0737396Y1141430D01*
X0735861Y1141430D01*
X0735094Y1142198D01*
X0733560Y1142198D02*
X0733560Y1142965D01*
X0732792Y1143732D01*
X0731258Y1143732D01*
X0730490Y1144500D01*
X0730490Y1145267D01*
X0732025Y1146802D02*
X0732025Y1140663D01*
X0732792Y1141430D02*
X0733560Y1142198D01*
X0732792Y1141430D02*
X0731258Y1141430D01*
X0730490Y1142198D01*
X0736629Y1143732D02*
X0737396Y1143732D01*
X0739698Y1144500D02*
X0740465Y1143732D01*
X0742767Y1143732D01*
X0742767Y1142198D02*
X0742767Y1145267D01*
X0742000Y1146034D01*
X0740465Y1146034D01*
X0739698Y1145267D01*
X0739698Y1144500D01*
X0739698Y1142198D02*
X0740465Y1141430D01*
X0742000Y1141430D01*
X0742767Y1142198D01*
X0742767Y1111034D02*
X0742767Y1110267D01*
X0739698Y1107198D01*
X0739698Y1106430D01*
X0738163Y1107198D02*
X0737396Y1106430D01*
X0735861Y1106430D01*
X0735094Y1107198D01*
X0733560Y1107198D02*
X0732792Y1106430D01*
X0731258Y1106430D01*
X0730490Y1107198D01*
X0730490Y1110267D01*
X0731258Y1111034D01*
X0732792Y1111034D01*
X0733560Y1110267D01*
X0735094Y1110267D02*
X0735094Y1109500D01*
X0735861Y1108732D01*
X0737396Y1108732D01*
X0738163Y1107965D01*
X0738163Y1107198D01*
X0738163Y1110267D02*
X0737396Y1111034D01*
X0735861Y1111034D01*
X0735094Y1110267D01*
X0739698Y1111034D02*
X0742767Y1111034D01*
X0744302Y1109500D02*
X0745837Y1111034D01*
X0745837Y1106430D01*
X0747371Y1106430D02*
X0744302Y1106430D01*
X0748906Y1107198D02*
X0749673Y1106430D01*
X0751208Y1106430D01*
X0751975Y1107198D01*
X0751975Y1107965D01*
X0751208Y1108732D01*
X0750441Y1108732D01*
X0751208Y1108732D02*
X0751975Y1109500D01*
X0751975Y1110267D01*
X0751208Y1111034D01*
X0749673Y1111034D01*
X0748906Y1110267D01*
X0753510Y1110267D02*
X0753510Y1109500D01*
X0754277Y1108732D01*
X0755812Y1108732D01*
X0756579Y1107965D01*
X0756579Y1107198D01*
X0755812Y1106430D01*
X0754277Y1106430D01*
X0753510Y1107198D01*
X0753510Y1110267D02*
X0754277Y1111034D01*
X0755812Y1111034D01*
X0756579Y1110267D01*
X0758114Y1110267D02*
X0758114Y1107198D01*
X0758881Y1106430D01*
X0760416Y1106430D01*
X0761183Y1107198D01*
X0761183Y1110267D01*
X0760416Y1111034D01*
X0758881Y1111034D01*
X0758114Y1110267D01*
X0762718Y1111034D02*
X0764252Y1111034D01*
X0763485Y1111034D02*
X0763485Y1106430D01*
X0762718Y1106430D02*
X0764252Y1106430D01*
X0765787Y1107198D02*
X0766554Y1106430D01*
X0768089Y1106430D01*
X0768856Y1107198D01*
X0768856Y1110267D02*
X0768089Y1111034D01*
X0766554Y1111034D01*
X0765787Y1110267D01*
X0765787Y1107198D01*
X0742767Y1090267D02*
X0742000Y1091034D01*
X0740465Y1091034D01*
X0739698Y1090267D01*
X0739698Y1089500D01*
X0740465Y1088732D01*
X0742767Y1088732D01*
X0742767Y1087198D02*
X0742767Y1090267D01*
X0742767Y1087198D02*
X0742000Y1086430D01*
X0740465Y1086430D01*
X0739698Y1087198D01*
X0738163Y1086430D02*
X0735094Y1086430D01*
X0738163Y1089500D01*
X0738163Y1090267D01*
X0737396Y1091034D01*
X0735861Y1091034D01*
X0735094Y1090267D01*
X0733560Y1090267D02*
X0732792Y1091034D01*
X0731258Y1091034D01*
X0730490Y1090267D01*
X0730490Y1089500D01*
X0731258Y1088732D01*
X0732792Y1088732D01*
X0733560Y1087965D01*
X0733560Y1087198D01*
X0732792Y1086430D01*
X0731258Y1086430D01*
X0730490Y1087198D01*
X0728956Y1087198D02*
X0728956Y1091034D01*
X0725886Y1091034D02*
X0725886Y1087198D01*
X0726654Y1086430D01*
X0728188Y1086430D01*
X0728956Y1087198D01*
X0732025Y1085663D02*
X0732025Y1091802D01*
X0728956Y1106430D02*
X0728956Y1109500D01*
X0727421Y1111034D01*
X0725886Y1109500D01*
X0725886Y1106430D01*
X0725886Y1108732D02*
X0728956Y1108732D01*
X0727421Y1056034D02*
X0728956Y1054500D01*
X0728956Y1051430D01*
X0730490Y1052198D02*
X0731258Y1051430D01*
X0732792Y1051430D01*
X0733560Y1052198D01*
X0735094Y1052198D02*
X0735861Y1051430D01*
X0737396Y1051430D01*
X0738163Y1052198D01*
X0738163Y1052965D01*
X0737396Y1053732D01*
X0735861Y1053732D01*
X0735094Y1054500D01*
X0735094Y1055267D01*
X0735861Y1056034D01*
X0737396Y1056034D01*
X0738163Y1055267D01*
X0739698Y1056034D02*
X0742767Y1056034D01*
X0742767Y1055267D01*
X0739698Y1052198D01*
X0739698Y1051430D01*
X0744302Y1051430D02*
X0747371Y1051430D01*
X0745837Y1051430D02*
X0745837Y1056034D01*
X0744302Y1054500D01*
X0748906Y1055267D02*
X0749673Y1056034D01*
X0751208Y1056034D01*
X0751975Y1055267D01*
X0751975Y1054500D01*
X0751208Y1053732D01*
X0751975Y1052965D01*
X0751975Y1052198D01*
X0751208Y1051430D01*
X0749673Y1051430D01*
X0748906Y1052198D01*
X0750441Y1053732D02*
X0751208Y1053732D01*
X0753510Y1054500D02*
X0754277Y1053732D01*
X0755812Y1053732D01*
X0756579Y1052965D01*
X0756579Y1052198D01*
X0755812Y1051430D01*
X0754277Y1051430D01*
X0753510Y1052198D01*
X0753510Y1054500D02*
X0753510Y1055267D01*
X0754277Y1056034D01*
X0755812Y1056034D01*
X0756579Y1055267D01*
X0758114Y1055267D02*
X0758114Y1052198D01*
X0758881Y1051430D01*
X0760416Y1051430D01*
X0761183Y1052198D01*
X0761183Y1055267D01*
X0760416Y1056034D01*
X0758881Y1056034D01*
X0758114Y1055267D01*
X0762718Y1056034D02*
X0764252Y1056034D01*
X0763485Y1056034D02*
X0763485Y1051430D01*
X0762718Y1051430D02*
X0764252Y1051430D01*
X0765787Y1052198D02*
X0766554Y1051430D01*
X0768089Y1051430D01*
X0768856Y1052198D01*
X0768856Y1055267D02*
X0768089Y1056034D01*
X0766554Y1056034D01*
X0765787Y1055267D01*
X0765787Y1052198D01*
X0742767Y1035267D02*
X0742767Y1034500D01*
X0742000Y1033732D01*
X0742767Y1032965D01*
X0742767Y1032198D01*
X0742000Y1031430D01*
X0740465Y1031430D01*
X0739698Y1032198D01*
X0738163Y1031430D02*
X0735094Y1031430D01*
X0738163Y1034500D01*
X0738163Y1035267D01*
X0737396Y1036034D01*
X0735861Y1036034D01*
X0735094Y1035267D01*
X0733560Y1035267D02*
X0732792Y1036034D01*
X0731258Y1036034D01*
X0730490Y1035267D01*
X0730490Y1034500D01*
X0731258Y1033732D01*
X0732792Y1033732D01*
X0733560Y1032965D01*
X0733560Y1032198D01*
X0732792Y1031430D01*
X0731258Y1031430D01*
X0730490Y1032198D01*
X0728956Y1032198D02*
X0728956Y1036034D01*
X0725886Y1036034D02*
X0725886Y1032198D01*
X0726654Y1031430D01*
X0728188Y1031430D01*
X0728956Y1032198D01*
X0732025Y1030663D02*
X0732025Y1036802D01*
X0739698Y1035267D02*
X0740465Y1036034D01*
X0742000Y1036034D01*
X0742767Y1035267D01*
X0742000Y1033732D02*
X0741233Y1033732D01*
X0730490Y1052198D02*
X0730490Y1055267D01*
X0731258Y1056034D01*
X0732792Y1056034D01*
X0733560Y1055267D01*
X0728956Y1053732D02*
X0725886Y1053732D01*
X0725886Y1054500D02*
X0727421Y1056034D01*
X0725886Y1054500D02*
X0725886Y1051430D01*
X0727421Y1001034D02*
X0728956Y0999500D01*
X0728956Y0996430D01*
X0730490Y0997198D02*
X0731258Y0996430D01*
X0732792Y0996430D01*
X0733560Y0997198D01*
X0735094Y0997198D02*
X0735861Y0996430D01*
X0737396Y0996430D01*
X0738163Y0997198D01*
X0738163Y0997965D01*
X0737396Y0998732D01*
X0735861Y0998732D01*
X0735094Y0999500D01*
X0735094Y1000267D01*
X0735861Y1001034D01*
X0737396Y1001034D01*
X0738163Y1000267D01*
X0739698Y1001034D02*
X0742767Y1001034D01*
X0742767Y1000267D01*
X0739698Y0997198D01*
X0739698Y0996430D01*
X0744302Y0996430D02*
X0747371Y0996430D01*
X0745837Y0996430D02*
X0745837Y1001034D01*
X0744302Y0999500D01*
X0748906Y1000267D02*
X0749673Y1001034D01*
X0751208Y1001034D01*
X0751975Y1000267D01*
X0751975Y0999500D01*
X0751208Y0998732D01*
X0751975Y0997965D01*
X0751975Y0997198D01*
X0751208Y0996430D01*
X0749673Y0996430D01*
X0748906Y0997198D01*
X0750441Y0998732D02*
X0751208Y0998732D01*
X0753510Y0999500D02*
X0754277Y0998732D01*
X0755812Y0998732D01*
X0756579Y0997965D01*
X0756579Y0997198D01*
X0755812Y0996430D01*
X0754277Y0996430D01*
X0753510Y0997198D01*
X0753510Y0999500D02*
X0753510Y1000267D01*
X0754277Y1001034D01*
X0755812Y1001034D01*
X0756579Y1000267D01*
X0758114Y1000267D02*
X0758114Y0997198D01*
X0758881Y0996430D01*
X0760416Y0996430D01*
X0761183Y0997198D01*
X0761183Y1000267D01*
X0760416Y1001034D01*
X0758881Y1001034D01*
X0758114Y1000267D01*
X0762718Y1001034D02*
X0764252Y1001034D01*
X0763485Y1001034D02*
X0763485Y0996430D01*
X0762718Y0996430D02*
X0764252Y0996430D01*
X0765787Y0997198D02*
X0766554Y0996430D01*
X0768089Y0996430D01*
X0768856Y0997198D01*
X0768856Y1000267D02*
X0768089Y1001034D01*
X0766554Y1001034D01*
X0765787Y1000267D01*
X0765787Y0997198D01*
X0742767Y0981034D02*
X0742767Y0980267D01*
X0739698Y0977198D01*
X0739698Y0976430D01*
X0738163Y0976430D02*
X0735094Y0976430D01*
X0736629Y0976430D02*
X0736629Y0981034D01*
X0735094Y0979500D01*
X0733560Y0980267D02*
X0732792Y0981034D01*
X0731258Y0981034D01*
X0730490Y0980267D01*
X0730490Y0979500D01*
X0731258Y0978732D01*
X0732792Y0978732D01*
X0733560Y0977965D01*
X0733560Y0977198D01*
X0732792Y0976430D01*
X0731258Y0976430D01*
X0730490Y0977198D01*
X0728956Y0977198D02*
X0728956Y0981034D01*
X0725886Y0981034D02*
X0725886Y0977198D01*
X0726654Y0976430D01*
X0728188Y0976430D01*
X0728956Y0977198D01*
X0732025Y0975663D02*
X0732025Y0981802D01*
X0739698Y0981034D02*
X0742767Y0981034D01*
X0730490Y0997198D02*
X0730490Y1000267D01*
X0731258Y1001034D01*
X0732792Y1001034D01*
X0733560Y1000267D01*
X0728956Y0998732D02*
X0725886Y0998732D01*
X0725886Y0999500D02*
X0727421Y1001034D01*
X0725886Y0999500D02*
X0725886Y0996430D01*
X0727421Y0946034D02*
X0728956Y0944500D01*
X0728956Y0941430D01*
X0730490Y0942198D02*
X0731258Y0941430D01*
X0732792Y0941430D01*
X0733560Y0942198D01*
X0735094Y0942198D02*
X0735861Y0941430D01*
X0737396Y0941430D01*
X0738163Y0942198D01*
X0738163Y0942965D01*
X0737396Y0943732D01*
X0735861Y0943732D01*
X0735094Y0944500D01*
X0735094Y0945267D01*
X0735861Y0946034D01*
X0737396Y0946034D01*
X0738163Y0945267D01*
X0739698Y0946034D02*
X0742767Y0946034D01*
X0742767Y0945267D01*
X0739698Y0942198D01*
X0739698Y0941430D01*
X0744302Y0941430D02*
X0747371Y0941430D01*
X0745837Y0941430D02*
X0745837Y0946034D01*
X0744302Y0944500D01*
X0748906Y0945267D02*
X0749673Y0946034D01*
X0751208Y0946034D01*
X0751975Y0945267D01*
X0751975Y0944500D01*
X0751208Y0943732D01*
X0751975Y0942965D01*
X0751975Y0942198D01*
X0751208Y0941430D01*
X0749673Y0941430D01*
X0748906Y0942198D01*
X0750441Y0943732D02*
X0751208Y0943732D01*
X0753510Y0944500D02*
X0754277Y0943732D01*
X0755812Y0943732D01*
X0756579Y0942965D01*
X0756579Y0942198D01*
X0755812Y0941430D01*
X0754277Y0941430D01*
X0753510Y0942198D01*
X0753510Y0944500D02*
X0753510Y0945267D01*
X0754277Y0946034D01*
X0755812Y0946034D01*
X0756579Y0945267D01*
X0758114Y0945267D02*
X0758114Y0942198D01*
X0758881Y0941430D01*
X0760416Y0941430D01*
X0761183Y0942198D01*
X0761183Y0945267D01*
X0760416Y0946034D01*
X0758881Y0946034D01*
X0758114Y0945267D01*
X0762718Y0946034D02*
X0764252Y0946034D01*
X0763485Y0946034D02*
X0763485Y0941430D01*
X0762718Y0941430D02*
X0764252Y0941430D01*
X0765787Y0942198D02*
X0766554Y0941430D01*
X0768089Y0941430D01*
X0768856Y0942198D01*
X0768856Y0945267D02*
X0768089Y0946034D01*
X0766554Y0946034D01*
X0765787Y0945267D01*
X0765787Y0942198D01*
X0742000Y0926034D02*
X0742000Y0921430D01*
X0742767Y0923732D02*
X0739698Y0923732D01*
X0742000Y0926034D01*
X0736629Y0926034D02*
X0736629Y0921430D01*
X0738163Y0921430D02*
X0735094Y0921430D01*
X0733560Y0922198D02*
X0733560Y0922965D01*
X0732792Y0923732D01*
X0731258Y0923732D01*
X0730490Y0924500D01*
X0730490Y0925267D01*
X0731258Y0926034D01*
X0732792Y0926034D01*
X0733560Y0925267D01*
X0735094Y0924500D02*
X0736629Y0926034D01*
X0732025Y0926802D02*
X0732025Y0920663D01*
X0732792Y0921430D02*
X0733560Y0922198D01*
X0732792Y0921430D02*
X0731258Y0921430D01*
X0730490Y0922198D01*
X0728956Y0922198D02*
X0728956Y0926034D01*
X0725886Y0926034D02*
X0725886Y0922198D01*
X0726654Y0921430D01*
X0728188Y0921430D01*
X0728956Y0922198D01*
X0725886Y0941430D02*
X0725886Y0944500D01*
X0727421Y0946034D01*
X0725886Y0943732D02*
X0728956Y0943732D01*
X0730490Y0942198D02*
X0730490Y0945267D01*
X0731258Y0946034D01*
X0732792Y0946034D01*
X0733560Y0945267D01*
X0732792Y0891034D02*
X0731258Y0891034D01*
X0730490Y0890267D01*
X0730490Y0887198D01*
X0731258Y0886430D01*
X0732792Y0886430D01*
X0733560Y0887198D01*
X0735094Y0887198D02*
X0735861Y0886430D01*
X0737396Y0886430D01*
X0738163Y0887198D01*
X0738163Y0887965D01*
X0737396Y0888732D01*
X0735861Y0888732D01*
X0735094Y0889500D01*
X0735094Y0890267D01*
X0735861Y0891034D01*
X0737396Y0891034D01*
X0738163Y0890267D01*
X0739698Y0891034D02*
X0742767Y0891034D01*
X0742767Y0890267D01*
X0739698Y0887198D01*
X0739698Y0886430D01*
X0744302Y0886430D02*
X0747371Y0886430D01*
X0745837Y0886430D02*
X0745837Y0891034D01*
X0744302Y0889500D01*
X0748906Y0890267D02*
X0749673Y0891034D01*
X0751208Y0891034D01*
X0751975Y0890267D01*
X0751975Y0889500D01*
X0751208Y0888732D01*
X0751975Y0887965D01*
X0751975Y0887198D01*
X0751208Y0886430D01*
X0749673Y0886430D01*
X0748906Y0887198D01*
X0750441Y0888732D02*
X0751208Y0888732D01*
X0753510Y0889500D02*
X0754277Y0888732D01*
X0755812Y0888732D01*
X0756579Y0887965D01*
X0756579Y0887198D01*
X0755812Y0886430D01*
X0754277Y0886430D01*
X0753510Y0887198D01*
X0753510Y0889500D02*
X0753510Y0890267D01*
X0754277Y0891034D01*
X0755812Y0891034D01*
X0756579Y0890267D01*
X0758114Y0890267D02*
X0758114Y0887198D01*
X0758881Y0886430D01*
X0760416Y0886430D01*
X0761183Y0887198D01*
X0761183Y0890267D01*
X0760416Y0891034D01*
X0758881Y0891034D01*
X0758114Y0890267D01*
X0762718Y0891034D02*
X0764252Y0891034D01*
X0763485Y0891034D02*
X0763485Y0886430D01*
X0762718Y0886430D02*
X0764252Y0886430D01*
X0765787Y0887198D02*
X0766554Y0886430D01*
X0768089Y0886430D01*
X0768856Y0887198D01*
X0768856Y0890267D02*
X0768089Y0891034D01*
X0766554Y0891034D01*
X0765787Y0890267D01*
X0765787Y0887198D01*
X0741233Y0871034D02*
X0741233Y0866430D01*
X0742767Y0866430D02*
X0739698Y0866430D01*
X0738163Y0866430D02*
X0735094Y0866430D01*
X0736629Y0866430D02*
X0736629Y0871034D01*
X0735094Y0869500D01*
X0733560Y0870267D02*
X0732792Y0871034D01*
X0731258Y0871034D01*
X0730490Y0870267D01*
X0730490Y0869500D01*
X0731258Y0868732D01*
X0732792Y0868732D01*
X0733560Y0867965D01*
X0733560Y0867198D01*
X0732792Y0866430D01*
X0731258Y0866430D01*
X0730490Y0867198D01*
X0728956Y0867198D02*
X0728956Y0871034D01*
X0725886Y0871034D02*
X0725886Y0867198D01*
X0726654Y0866430D01*
X0728188Y0866430D01*
X0728956Y0867198D01*
X0732025Y0865663D02*
X0732025Y0871802D01*
X0739698Y0869500D02*
X0741233Y0871034D01*
X0728956Y0886430D02*
X0728956Y0889500D01*
X0727421Y0891034D01*
X0725886Y0889500D01*
X0725886Y0886430D01*
X0725886Y0888732D02*
X0728956Y0888732D01*
X0732792Y0891034D02*
X0733560Y0890267D01*
X0732792Y0836034D02*
X0731258Y0836034D01*
X0730490Y0835267D01*
X0730490Y0832198D01*
X0731258Y0831430D01*
X0732792Y0831430D01*
X0733560Y0832198D01*
X0735094Y0832198D02*
X0735861Y0831430D01*
X0737396Y0831430D01*
X0738163Y0832198D01*
X0738163Y0832965D01*
X0737396Y0833732D01*
X0735861Y0833732D01*
X0735094Y0834500D01*
X0735094Y0835267D01*
X0735861Y0836034D01*
X0737396Y0836034D01*
X0738163Y0835267D01*
X0739698Y0836034D02*
X0742767Y0836034D01*
X0742767Y0835267D01*
X0739698Y0832198D01*
X0739698Y0831430D01*
X0744302Y0831430D02*
X0747371Y0831430D01*
X0745837Y0831430D02*
X0745837Y0836034D01*
X0744302Y0834500D01*
X0748906Y0835267D02*
X0749673Y0836034D01*
X0751208Y0836034D01*
X0751975Y0835267D01*
X0751975Y0834500D01*
X0751208Y0833732D01*
X0751975Y0832965D01*
X0751975Y0832198D01*
X0751208Y0831430D01*
X0749673Y0831430D01*
X0748906Y0832198D01*
X0750441Y0833732D02*
X0751208Y0833732D01*
X0753510Y0834500D02*
X0754277Y0833732D01*
X0755812Y0833732D01*
X0756579Y0832965D01*
X0756579Y0832198D01*
X0755812Y0831430D01*
X0754277Y0831430D01*
X0753510Y0832198D01*
X0753510Y0834500D02*
X0753510Y0835267D01*
X0754277Y0836034D01*
X0755812Y0836034D01*
X0756579Y0835267D01*
X0758114Y0835267D02*
X0758114Y0832198D01*
X0758881Y0831430D01*
X0760416Y0831430D01*
X0761183Y0832198D01*
X0761183Y0835267D01*
X0760416Y0836034D01*
X0758881Y0836034D01*
X0758114Y0835267D01*
X0762718Y0836034D02*
X0764252Y0836034D01*
X0763485Y0836034D02*
X0763485Y0831430D01*
X0762718Y0831430D02*
X0764252Y0831430D01*
X0765787Y0832198D02*
X0766554Y0831430D01*
X0768089Y0831430D01*
X0768856Y0832198D01*
X0768856Y0835267D02*
X0768089Y0836034D01*
X0766554Y0836034D01*
X0765787Y0835267D01*
X0765787Y0832198D01*
X0738163Y0815267D02*
X0738163Y0814500D01*
X0737396Y0813732D01*
X0735861Y0813732D01*
X0735094Y0814500D01*
X0735094Y0815267D01*
X0735861Y0816034D01*
X0737396Y0816034D01*
X0738163Y0815267D01*
X0737396Y0813732D02*
X0738163Y0812965D01*
X0738163Y0812198D01*
X0737396Y0811430D01*
X0735861Y0811430D01*
X0735094Y0812198D01*
X0735094Y0812965D01*
X0735861Y0813732D01*
X0733560Y0812965D02*
X0732792Y0813732D01*
X0731258Y0813732D01*
X0730490Y0814500D01*
X0730490Y0815267D01*
X0731258Y0816034D01*
X0732792Y0816034D01*
X0733560Y0815267D01*
X0732025Y0816802D02*
X0732025Y0810663D01*
X0732792Y0811430D02*
X0733560Y0812198D01*
X0733560Y0812965D01*
X0732792Y0811430D02*
X0731258Y0811430D01*
X0730490Y0812198D01*
X0728956Y0812198D02*
X0728956Y0816034D01*
X0725886Y0816034D02*
X0725886Y0812198D01*
X0726654Y0811430D01*
X0728188Y0811430D01*
X0728956Y0812198D01*
X0728956Y0831430D02*
X0728956Y0834500D01*
X0727421Y0836034D01*
X0725886Y0834500D01*
X0725886Y0831430D01*
X0725886Y0833732D02*
X0728956Y0833732D01*
X0732792Y0836034D02*
X0733560Y0835267D01*
X0732792Y0781034D02*
X0731258Y0781034D01*
X0730490Y0780267D01*
X0730490Y0777198D01*
X0731258Y0776430D01*
X0732792Y0776430D01*
X0733560Y0777198D01*
X0735094Y0777198D02*
X0735861Y0776430D01*
X0737396Y0776430D01*
X0738163Y0777198D01*
X0738163Y0777965D01*
X0737396Y0778732D01*
X0735861Y0778732D01*
X0735094Y0779500D01*
X0735094Y0780267D01*
X0735861Y0781034D01*
X0737396Y0781034D01*
X0738163Y0780267D01*
X0739698Y0781034D02*
X0742767Y0781034D01*
X0742767Y0780267D01*
X0739698Y0777198D01*
X0739698Y0776430D01*
X0744302Y0776430D02*
X0747371Y0776430D01*
X0745837Y0776430D02*
X0745837Y0781034D01*
X0744302Y0779500D01*
X0748906Y0780267D02*
X0749673Y0781034D01*
X0751208Y0781034D01*
X0751975Y0780267D01*
X0751975Y0779500D01*
X0751208Y0778732D01*
X0751975Y0777965D01*
X0751975Y0777198D01*
X0751208Y0776430D01*
X0749673Y0776430D01*
X0748906Y0777198D01*
X0750441Y0778732D02*
X0751208Y0778732D01*
X0753510Y0779500D02*
X0754277Y0778732D01*
X0755812Y0778732D01*
X0756579Y0777965D01*
X0756579Y0777198D01*
X0755812Y0776430D01*
X0754277Y0776430D01*
X0753510Y0777198D01*
X0753510Y0779500D02*
X0753510Y0780267D01*
X0754277Y0781034D01*
X0755812Y0781034D01*
X0756579Y0780267D01*
X0758114Y0780267D02*
X0758114Y0777198D01*
X0758881Y0776430D01*
X0760416Y0776430D01*
X0761183Y0777198D01*
X0761183Y0780267D01*
X0760416Y0781034D01*
X0758881Y0781034D01*
X0758114Y0780267D01*
X0762718Y0781034D02*
X0764252Y0781034D01*
X0763485Y0781034D02*
X0763485Y0776430D01*
X0762718Y0776430D02*
X0764252Y0776430D01*
X0765787Y0777198D02*
X0766554Y0776430D01*
X0768089Y0776430D01*
X0768856Y0777198D01*
X0768856Y0780267D02*
X0768089Y0781034D01*
X0766554Y0781034D01*
X0765787Y0780267D01*
X0765787Y0777198D01*
X0737396Y0761034D02*
X0735094Y0758732D01*
X0738163Y0758732D01*
X0737396Y0756430D02*
X0737396Y0761034D01*
X0733560Y0760267D02*
X0732792Y0761034D01*
X0731258Y0761034D01*
X0730490Y0760267D01*
X0730490Y0759500D01*
X0731258Y0758732D01*
X0732792Y0758732D01*
X0733560Y0757965D01*
X0733560Y0757198D01*
X0732792Y0756430D01*
X0731258Y0756430D01*
X0730490Y0757198D01*
X0728956Y0757198D02*
X0728956Y0761034D01*
X0725886Y0761034D02*
X0725886Y0757198D01*
X0726654Y0756430D01*
X0728188Y0756430D01*
X0728956Y0757198D01*
X0732025Y0755663D02*
X0732025Y0761802D01*
X0728956Y0776430D02*
X0728956Y0779500D01*
X0727421Y0781034D01*
X0725886Y0779500D01*
X0725886Y0776430D01*
X0725886Y0778732D02*
X0728956Y0778732D01*
X0732792Y0781034D02*
X0733560Y0780267D01*
X0732792Y0726034D02*
X0731258Y0726034D01*
X0730490Y0725267D01*
X0730490Y0722198D01*
X0731258Y0721430D01*
X0732792Y0721430D01*
X0733560Y0722198D01*
X0735094Y0722198D02*
X0735861Y0721430D01*
X0737396Y0721430D01*
X0738163Y0722198D01*
X0738163Y0722965D01*
X0737396Y0723732D01*
X0735861Y0723732D01*
X0735094Y0724500D01*
X0735094Y0725267D01*
X0735861Y0726034D01*
X0737396Y0726034D01*
X0738163Y0725267D01*
X0739698Y0726034D02*
X0742767Y0726034D01*
X0742767Y0725267D01*
X0739698Y0722198D01*
X0739698Y0721430D01*
X0744302Y0721430D02*
X0747371Y0721430D01*
X0745837Y0721430D02*
X0745837Y0726034D01*
X0744302Y0724500D01*
X0748906Y0725267D02*
X0749673Y0726034D01*
X0751208Y0726034D01*
X0751975Y0725267D01*
X0751975Y0724500D01*
X0751208Y0723732D01*
X0751975Y0722965D01*
X0751975Y0722198D01*
X0751208Y0721430D01*
X0749673Y0721430D01*
X0748906Y0722198D01*
X0750441Y0723732D02*
X0751208Y0723732D01*
X0753510Y0724500D02*
X0754277Y0723732D01*
X0755812Y0723732D01*
X0756579Y0722965D01*
X0756579Y0722198D01*
X0755812Y0721430D01*
X0754277Y0721430D01*
X0753510Y0722198D01*
X0753510Y0724500D02*
X0753510Y0725267D01*
X0754277Y0726034D01*
X0755812Y0726034D01*
X0756579Y0725267D01*
X0758114Y0725267D02*
X0758114Y0722198D01*
X0758881Y0721430D01*
X0760416Y0721430D01*
X0761183Y0722198D01*
X0761183Y0725267D01*
X0760416Y0726034D01*
X0758881Y0726034D01*
X0758114Y0725267D01*
X0762718Y0726034D02*
X0764252Y0726034D01*
X0763485Y0726034D02*
X0763485Y0721430D01*
X0762718Y0721430D02*
X0764252Y0721430D01*
X0765787Y0722198D02*
X0766554Y0721430D01*
X0768089Y0721430D01*
X0768856Y0722198D01*
X0768856Y0725267D02*
X0768089Y0726034D01*
X0766554Y0726034D01*
X0765787Y0725267D01*
X0765787Y0722198D01*
X0733560Y0725267D02*
X0732792Y0726034D01*
X0728956Y0724500D02*
X0728956Y0721430D01*
X0728956Y0723732D02*
X0725886Y0723732D01*
X0725886Y0724500D02*
X0727421Y0726034D01*
X0728956Y0724500D01*
X0725886Y0724500D02*
X0725886Y0721430D01*
X0380441Y1171430D02*
X0378906Y1172965D01*
X0378906Y1176034D01*
X0377371Y1175267D02*
X0374302Y1172198D01*
X0375069Y1171430D01*
X0376604Y1171430D01*
X0377371Y1172198D01*
X0377371Y1175267D01*
X0376604Y1176034D01*
X0375069Y1176034D01*
X0374302Y1175267D01*
X0374302Y1172198D01*
X0372767Y1171430D02*
X0369698Y1171430D01*
X0372767Y1174500D01*
X0372767Y1175267D01*
X0372000Y1176034D01*
X0370465Y1176034D01*
X0369698Y1175267D01*
X0368163Y1173732D02*
X0365094Y1173732D01*
X0363560Y1172965D02*
X0363560Y1172198D01*
X0362792Y1171430D01*
X0361258Y1171430D01*
X0360490Y1172198D01*
X0358956Y1171430D02*
X0355886Y1171430D01*
X0357421Y1171430D02*
X0357421Y1176034D01*
X0355886Y1174500D01*
X0360490Y1175267D02*
X0361258Y1176034D01*
X0362792Y1176034D01*
X0363560Y1175267D01*
X0363560Y1174500D01*
X0362792Y1173732D01*
X0363560Y1172965D01*
X0362792Y1173732D02*
X0362025Y1173732D01*
X0344352Y1172198D02*
X0344352Y1175267D01*
X0343584Y1176034D01*
X0341282Y1176034D01*
X0341282Y1171430D01*
X0343584Y1171430D01*
X0344352Y1172198D01*
X0339748Y1171430D02*
X0339748Y1176034D01*
X0336678Y1176034D02*
X0339748Y1171430D01*
X0336678Y1171430D02*
X0336678Y1176034D01*
X0335144Y1175267D02*
X0334376Y1176034D01*
X0332842Y1176034D01*
X0332075Y1175267D01*
X0332075Y1172198D01*
X0332842Y1171430D01*
X0334376Y1171430D01*
X0335144Y1172198D01*
X0335144Y1173732D01*
X0333609Y1173732D01*
X0321975Y1172965D02*
X0321975Y1176034D01*
X0321975Y1172965D02*
X0320441Y1171430D01*
X0318906Y1172965D01*
X0318906Y1176034D01*
X0317371Y1175267D02*
X0314302Y1172198D01*
X0315069Y1171430D01*
X0316604Y1171430D01*
X0317371Y1172198D01*
X0317371Y1175267D01*
X0316604Y1176034D01*
X0315069Y1176034D01*
X0314302Y1175267D01*
X0314302Y1172198D01*
X0312767Y1171430D02*
X0309698Y1171430D01*
X0312767Y1174500D01*
X0312767Y1175267D01*
X0312000Y1176034D01*
X0310465Y1176034D01*
X0309698Y1175267D01*
X0308163Y1173732D02*
X0305094Y1173732D01*
X0303560Y1172965D02*
X0303560Y1172198D01*
X0302792Y1171430D01*
X0301258Y1171430D01*
X0300490Y1172198D01*
X0298956Y1171430D02*
X0295886Y1171430D01*
X0297421Y1171430D02*
X0297421Y1176034D01*
X0295886Y1174500D01*
X0300490Y1175267D02*
X0301258Y1176034D01*
X0302792Y1176034D01*
X0303560Y1175267D01*
X0303560Y1174500D01*
X0302792Y1173732D01*
X0303560Y1172965D01*
X0302792Y1173732D02*
X0302025Y1173732D01*
X0284352Y1172198D02*
X0284352Y1175267D01*
X0283584Y1176034D01*
X0281282Y1176034D01*
X0281282Y1171430D01*
X0283584Y1171430D01*
X0284352Y1172198D01*
X0279748Y1171430D02*
X0279748Y1176034D01*
X0276678Y1176034D02*
X0279748Y1171430D01*
X0276678Y1171430D02*
X0276678Y1176034D01*
X0275144Y1175267D02*
X0274376Y1176034D01*
X0272842Y1176034D01*
X0272075Y1175267D01*
X0272075Y1172198D01*
X0272842Y1171430D01*
X0274376Y1171430D01*
X0275144Y1172198D01*
X0275144Y1173732D01*
X0273609Y1173732D01*
X0266975Y1172965D02*
X0266975Y1176034D01*
X0266975Y1172965D02*
X0265441Y1171430D01*
X0263906Y1172965D01*
X0263906Y1176034D01*
X0262371Y1175267D02*
X0259302Y1172198D01*
X0260069Y1171430D01*
X0261604Y1171430D01*
X0262371Y1172198D01*
X0262371Y1175267D01*
X0261604Y1176034D01*
X0260069Y1176034D01*
X0259302Y1175267D01*
X0259302Y1172198D01*
X0257767Y1171430D02*
X0254698Y1171430D01*
X0257767Y1174500D01*
X0257767Y1175267D01*
X0257000Y1176034D01*
X0255465Y1176034D01*
X0254698Y1175267D01*
X0253163Y1173732D02*
X0250094Y1173732D01*
X0248560Y1172965D02*
X0248560Y1172198D01*
X0247792Y1171430D01*
X0246258Y1171430D01*
X0245490Y1172198D01*
X0243956Y1171430D02*
X0240886Y1171430D01*
X0242421Y1171430D02*
X0242421Y1176034D01*
X0240886Y1174500D01*
X0245490Y1175267D02*
X0246258Y1176034D01*
X0247792Y1176034D01*
X0248560Y1175267D01*
X0248560Y1174500D01*
X0247792Y1173732D01*
X0248560Y1172965D01*
X0247792Y1173732D02*
X0247025Y1173732D01*
X0229352Y1172198D02*
X0229352Y1175267D01*
X0228584Y1176034D01*
X0226282Y1176034D01*
X0226282Y1171430D01*
X0228584Y1171430D01*
X0229352Y1172198D01*
X0224748Y1171430D02*
X0224748Y1176034D01*
X0221678Y1176034D02*
X0224748Y1171430D01*
X0221678Y1171430D02*
X0221678Y1176034D01*
X0220144Y1175267D02*
X0219376Y1176034D01*
X0217842Y1176034D01*
X0217075Y1175267D01*
X0217075Y1172198D01*
X0217842Y1171430D01*
X0219376Y1171430D01*
X0220144Y1172198D01*
X0220144Y1173732D01*
X0218609Y1173732D01*
X0245882Y1003237D02*
X0250486Y1003237D01*
X0245882Y1000168D01*
X0250486Y1000168D01*
X0249719Y0998633D02*
X0246650Y0998633D01*
X0245882Y0997866D01*
X0245882Y0996331D01*
X0246650Y0995564D01*
X0249719Y0995564D01*
X0250486Y0996331D01*
X0250486Y0997866D01*
X0249719Y0998633D01*
X0250486Y0989425D02*
X0249719Y0988658D01*
X0246650Y0988658D01*
X0247417Y0987891D02*
X0247417Y0989425D01*
X0247417Y0986356D02*
X0247417Y0984054D01*
X0248184Y0983287D01*
X0248952Y0984054D01*
X0248952Y0985589D01*
X0249719Y0986356D01*
X0250486Y0985589D01*
X0250486Y0983287D01*
X0250486Y0981752D02*
X0247417Y0981752D01*
X0247417Y0978683D02*
X0249719Y0978683D01*
X0250486Y0979450D01*
X0250486Y0981752D01*
X0247417Y0977148D02*
X0247417Y0976381D01*
X0248952Y0974846D01*
X0250486Y0974846D02*
X0247417Y0974846D01*
X0248184Y0973311D02*
X0250486Y0973311D01*
X0248184Y0973311D02*
X0247417Y0972544D01*
X0247417Y0971009D01*
X0248184Y0970242D01*
X0245882Y0970242D02*
X0250486Y0970242D01*
X0250486Y0967173D02*
X0245882Y0967173D01*
X0245882Y0965638D02*
X0245882Y0968708D01*
X0251254Y0964104D02*
X0251254Y0961034D01*
X0248952Y0959500D02*
X0250486Y0957965D01*
X0248952Y0956430D01*
X0245882Y0956430D01*
X0245882Y0959500D02*
X0248952Y0959500D01*
X0192792Y0816034D02*
X0191258Y0816034D01*
X0192792Y0816034D02*
X0193560Y0815267D01*
X0188956Y0814500D02*
X0187421Y0816034D01*
X0185886Y0814500D01*
X0185886Y0811430D01*
X0185886Y0813732D02*
X0188956Y0813732D01*
X0188956Y0814500D02*
X0188956Y0811430D01*
X0127986Y0742470D02*
X0123382Y0742470D01*
X0123382Y0739400D02*
X0127986Y0742470D01*
X0127986Y0739400D02*
X0123382Y0739400D01*
X0124150Y0737866D02*
X0123382Y0737098D01*
X0123382Y0735564D01*
X0124150Y0734796D01*
X0127219Y0734796D01*
X0127986Y0735564D01*
X0127986Y0737098D01*
X0127219Y0737866D01*
X0124150Y0737866D01*
X0127986Y0728658D02*
X0127986Y0727123D01*
X0127986Y0727891D02*
X0123382Y0727891D01*
X0123382Y0727123D01*
X0123382Y0724821D02*
X0122615Y0724821D01*
X0124917Y0724821D02*
X0127986Y0724821D01*
X0127986Y0724054D02*
X0127986Y0725589D01*
X0130882Y0726356D02*
X0132417Y0727891D01*
X0133952Y0727891D01*
X0135486Y0726356D01*
X0132417Y0724821D02*
X0132417Y0724054D01*
X0133952Y0722519D01*
X0135486Y0722519D02*
X0132417Y0722519D01*
X0133184Y0720985D02*
X0133952Y0720985D01*
X0133952Y0717915D01*
X0134719Y0717915D02*
X0133184Y0717915D01*
X0132417Y0718683D01*
X0132417Y0720217D01*
X0133184Y0720985D01*
X0135486Y0720217D02*
X0135486Y0718683D01*
X0134719Y0717915D01*
X0134719Y0716381D02*
X0135486Y0715613D01*
X0135486Y0713311D01*
X0135486Y0711777D02*
X0133184Y0711777D01*
X0132417Y0711009D01*
X0133184Y0710242D01*
X0135486Y0710242D01*
X0135486Y0708708D02*
X0132417Y0708708D01*
X0132417Y0709475D01*
X0133184Y0710242D01*
X0132417Y0707173D02*
X0135486Y0707173D01*
X0135486Y0704871D01*
X0134719Y0704104D01*
X0132417Y0704104D01*
X0130882Y0702569D02*
X0130882Y0701034D01*
X0130882Y0701802D02*
X0134719Y0701802D01*
X0135486Y0701034D01*
X0135486Y0700267D01*
X0134719Y0699500D01*
X0135486Y0697965D02*
X0133952Y0696430D01*
X0132417Y0696430D01*
X0130882Y0697965D01*
X0127986Y0697965D02*
X0123382Y0697965D01*
X0124917Y0696430D01*
X0127986Y0696430D02*
X0127986Y0699500D01*
X0127986Y0701034D02*
X0124917Y0704104D01*
X0124150Y0704104D01*
X0123382Y0703336D01*
X0123382Y0701802D01*
X0124150Y0701034D01*
X0127986Y0701034D02*
X0127986Y0704104D01*
X0126452Y0705638D02*
X0127986Y0707173D01*
X0126452Y0708708D01*
X0123382Y0708708D01*
X0123382Y0705638D02*
X0126452Y0705638D01*
X0126452Y0714846D02*
X0126452Y0717148D01*
X0125684Y0717915D01*
X0124150Y0717915D01*
X0123382Y0717148D01*
X0123382Y0714846D01*
X0127986Y0714846D01*
X0126452Y0716381D02*
X0127986Y0717915D01*
X0127219Y0719450D02*
X0126452Y0720217D01*
X0126452Y0722519D01*
X0125684Y0722519D02*
X0127986Y0722519D01*
X0127986Y0720217D01*
X0127219Y0719450D01*
X0124917Y0720217D02*
X0124917Y0721752D01*
X0125684Y0722519D01*
X0124917Y0724054D02*
X0124917Y0724821D01*
X0133184Y0716381D02*
X0134719Y0716381D01*
X0133184Y0716381D02*
X0132417Y0715613D01*
X0132417Y0713311D01*
X0137021Y0713311D01*
X0079352Y0717198D02*
X0079352Y0720267D01*
X0078584Y0721034D01*
X0076282Y0721034D01*
X0076282Y0716430D01*
X0078584Y0716430D01*
X0079352Y0717198D01*
X0074748Y0716430D02*
X0074748Y0721034D01*
X0071678Y0721034D02*
X0074748Y0716430D01*
X0071678Y0716430D02*
X0071678Y0721034D01*
X0070144Y0720267D02*
X0069376Y0721034D01*
X0067842Y0721034D01*
X0067075Y0720267D01*
X0067075Y0717198D01*
X0067842Y0716430D01*
X0069376Y0716430D01*
X0070144Y0717198D01*
X0070144Y0718732D01*
X0068609Y0718732D01*
X0055486Y0719104D02*
X0055486Y0716034D01*
X0052417Y0719104D01*
X0051650Y0719104D01*
X0050882Y0718336D01*
X0050882Y0716802D01*
X0051650Y0716034D01*
X0050882Y0712965D02*
X0055486Y0712965D01*
X0055486Y0711430D02*
X0055486Y0714500D01*
X0052417Y0711430D02*
X0050882Y0712965D01*
X0050882Y0720638D02*
X0053952Y0720638D01*
X0055486Y0722173D01*
X0053952Y0723708D01*
X0050882Y0723708D01*
X0050882Y0729846D02*
X0050882Y0732148D01*
X0051650Y0732915D01*
X0053184Y0732915D01*
X0053952Y0732148D01*
X0053952Y0729846D01*
X0055486Y0729846D02*
X0050882Y0729846D01*
X0053952Y0731381D02*
X0055486Y0732915D01*
X0054719Y0734450D02*
X0053952Y0735217D01*
X0053952Y0737519D01*
X0053184Y0737519D02*
X0055486Y0737519D01*
X0055486Y0735217D01*
X0054719Y0734450D01*
X0052417Y0735217D02*
X0052417Y0736752D01*
X0053184Y0737519D01*
X0052417Y0739054D02*
X0052417Y0739821D01*
X0055486Y0739821D01*
X0055486Y0739054D02*
X0055486Y0740589D01*
X0055486Y0742123D02*
X0055486Y0743658D01*
X0055486Y0742891D02*
X0050882Y0742891D01*
X0050882Y0742123D01*
X0050882Y0739821D02*
X0050115Y0739821D01*
X0051650Y0749796D02*
X0054719Y0749796D01*
X0055486Y0750564D01*
X0055486Y0752098D01*
X0054719Y0752866D01*
X0051650Y0752866D01*
X0050882Y0752098D01*
X0050882Y0750564D01*
X0051650Y0749796D01*
X0050882Y0754400D02*
X0055486Y0757470D01*
X0050882Y0757470D01*
X0050882Y0754400D02*
X0055486Y0754400D01*
X0055486Y0759004D02*
X0050882Y0762074D01*
X0051650Y0763608D02*
X0054719Y0763608D01*
X0055486Y0764375D01*
X0055486Y0765910D01*
X0054719Y0766677D01*
X0051650Y0766677D01*
X0050882Y0765910D01*
X0050882Y0764375D01*
X0051650Y0763608D01*
X0050882Y0768212D02*
X0050882Y0771281D01*
X0050882Y0772816D02*
X0050882Y0775885D01*
X0053184Y0774351D02*
X0053184Y0772816D01*
X0055486Y0772816D02*
X0050882Y0772816D01*
X0053184Y0769747D02*
X0053184Y0768212D01*
X0055486Y0768212D02*
X0050882Y0768212D01*
X0050490Y0791430D02*
X0053560Y0794500D01*
X0053560Y0795267D01*
X0052792Y0796034D01*
X0051258Y0796034D01*
X0050490Y0795267D01*
X0047421Y0796034D02*
X0047421Y0791430D01*
X0045886Y0791430D02*
X0048956Y0791430D01*
X0050490Y0791430D02*
X0053560Y0791430D01*
X0055094Y0792965D02*
X0056629Y0791430D01*
X0058163Y0792965D01*
X0058163Y0796034D01*
X0055094Y0796034D02*
X0055094Y0792965D01*
X0047421Y0796034D02*
X0045886Y0794500D01*
X0046654Y0806430D02*
X0045886Y0807198D01*
X0046654Y0806430D02*
X0048188Y0806430D01*
X0048956Y0807198D01*
X0048956Y0808732D01*
X0048188Y0809500D01*
X0047421Y0809500D01*
X0045886Y0808732D01*
X0045886Y0811034D01*
X0048956Y0811034D01*
X0050490Y0811034D02*
X0050490Y0807965D01*
X0052025Y0806430D01*
X0053560Y0807965D01*
X0053560Y0811034D01*
X0059698Y0811034D02*
X0062000Y0811034D01*
X0062767Y0810267D01*
X0062767Y0808732D01*
X0062000Y0807965D01*
X0059698Y0807965D01*
X0059698Y0806430D02*
X0059698Y0811034D01*
X0061233Y0807965D02*
X0062767Y0806430D01*
X0064302Y0807198D02*
X0065069Y0807965D01*
X0067371Y0807965D01*
X0067371Y0808732D02*
X0067371Y0806430D01*
X0065069Y0806430D01*
X0064302Y0807198D01*
X0065069Y0809500D02*
X0066604Y0809500D01*
X0067371Y0808732D01*
X0068906Y0809500D02*
X0069673Y0809500D01*
X0069673Y0806430D01*
X0068906Y0806430D02*
X0070441Y0806430D01*
X0071975Y0806430D02*
X0073510Y0806430D01*
X0072743Y0806430D02*
X0072743Y0811034D01*
X0071975Y0811034D01*
X0069673Y0811034D02*
X0069673Y0811802D01*
X0079648Y0811034D02*
X0082718Y0811034D01*
X0084252Y0809500D02*
X0085787Y0811034D01*
X0087322Y0809500D01*
X0087322Y0806430D01*
X0088856Y0806430D02*
X0090391Y0806430D01*
X0089624Y0806430D02*
X0089624Y0811034D01*
X0090391Y0811034D02*
X0088856Y0811034D01*
X0087322Y0808732D02*
X0084252Y0808732D01*
X0084252Y0809500D02*
X0084252Y0806430D01*
X0081183Y0808732D02*
X0079648Y0808732D01*
X0079648Y0806430D02*
X0079648Y0811034D01*
X0091926Y0811034D02*
X0091926Y0806430D01*
X0094995Y0806430D01*
X0094995Y0796034D02*
X0093460Y0796034D01*
X0094228Y0796034D02*
X0094228Y0791430D01*
X0094995Y0791430D02*
X0093460Y0791430D01*
X0091926Y0791430D02*
X0091926Y0794500D01*
X0090391Y0796034D01*
X0088856Y0794500D01*
X0088856Y0791430D01*
X0088856Y0793732D02*
X0091926Y0793732D01*
X0096529Y0791430D02*
X0099599Y0791430D01*
X0096529Y0791430D02*
X0096529Y0796034D01*
X0087322Y0796034D02*
X0084252Y0796034D01*
X0084252Y0791430D01*
X0084252Y0793732D02*
X0085787Y0793732D01*
X0078114Y0791430D02*
X0076579Y0791430D01*
X0077346Y0791430D02*
X0077346Y0796034D01*
X0076579Y0796034D01*
X0074277Y0796034D02*
X0074277Y0796802D01*
X0074277Y0794500D02*
X0074277Y0791430D01*
X0073510Y0791430D02*
X0075045Y0791430D01*
X0071975Y0791430D02*
X0069673Y0791430D01*
X0068906Y0792198D01*
X0069673Y0792965D01*
X0071975Y0792965D01*
X0071975Y0793732D02*
X0071975Y0791430D01*
X0071975Y0793732D02*
X0071208Y0794500D01*
X0069673Y0794500D01*
X0067371Y0795267D02*
X0067371Y0793732D01*
X0066604Y0792965D01*
X0064302Y0792965D01*
X0064302Y0791430D02*
X0064302Y0796034D01*
X0066604Y0796034D01*
X0067371Y0795267D01*
X0065837Y0792965D02*
X0067371Y0791430D01*
X0073510Y0794500D02*
X0074277Y0794500D01*
X0250886Y0739500D02*
X0252421Y0741034D01*
X0250886Y0739500D02*
X0250886Y0736430D01*
X0250886Y0738732D02*
X0253956Y0738732D01*
X0255490Y0737198D02*
X0255490Y0740267D01*
X0256258Y0741034D01*
X0257792Y0741034D01*
X0258560Y0740267D01*
X0380441Y1171430D02*
X0381975Y1172965D01*
X0381975Y1176034D01*
D13*
X0336986Y0683021D02*
X0335985Y0683021D01*
X0335735Y0683271D01*
X0335735Y0683772D01*
X0335985Y0684022D01*
X0336486Y0684022D02*
X0336486Y0683521D01*
X0336486Y0684022D02*
X0336986Y0684022D01*
X0337236Y0683772D01*
X0337236Y0683271D01*
X0336986Y0683021D01*
X0336736Y0684494D02*
X0336736Y0685245D01*
X0336486Y0685495D01*
X0335985Y0685495D01*
X0335735Y0685245D01*
X0335735Y0684494D01*
X0337236Y0684494D01*
X0336736Y0684995D02*
X0337236Y0685495D01*
X0337236Y0685968D02*
X0337236Y0686968D01*
X0337236Y0687441D02*
X0337236Y0688442D01*
X0337236Y0688914D02*
X0335735Y0688914D01*
X0337236Y0689915D01*
X0335735Y0689915D01*
X0335735Y0688442D02*
X0335735Y0687441D01*
X0337236Y0687441D01*
X0336486Y0687441D02*
X0336486Y0687941D01*
X0335735Y0686968D02*
X0335735Y0685968D01*
X0337236Y0685968D01*
X0336486Y0685968D02*
X0336486Y0686468D01*
X0337236Y0691861D02*
X0337236Y0692861D01*
X0337236Y0693334D02*
X0337236Y0694335D01*
X0337236Y0694807D02*
X0337236Y0695558D01*
X0336986Y0695808D01*
X0335985Y0695808D01*
X0335735Y0695558D01*
X0335735Y0694807D01*
X0337236Y0694807D01*
X0336486Y0693834D02*
X0336486Y0693334D01*
X0337236Y0693334D02*
X0335735Y0693334D01*
X0335735Y0694335D01*
X0335735Y0691861D02*
X0337236Y0691861D01*
X0261986Y0803021D02*
X0262236Y0803271D01*
X0262236Y0803772D01*
X0261986Y0804022D01*
X0261486Y0804022D01*
X0261486Y0803521D01*
X0260985Y0803021D02*
X0261986Y0803021D01*
X0260985Y0803021D02*
X0260735Y0803271D01*
X0260735Y0803772D01*
X0260985Y0804022D01*
X0260735Y0804494D02*
X0260735Y0805245D01*
X0260985Y0805495D01*
X0261486Y0805495D01*
X0261736Y0805245D01*
X0261736Y0804494D01*
X0262236Y0804494D02*
X0260735Y0804494D01*
X0261736Y0804995D02*
X0262236Y0805495D01*
X0262236Y0805968D02*
X0262236Y0806968D01*
X0262236Y0807441D02*
X0262236Y0808442D01*
X0262236Y0808914D02*
X0260735Y0808914D01*
X0262236Y0809915D01*
X0260735Y0809915D01*
X0260735Y0808442D02*
X0260735Y0807441D01*
X0262236Y0807441D01*
X0261486Y0807441D02*
X0261486Y0807941D01*
X0260735Y0806968D02*
X0260735Y0805968D01*
X0262236Y0805968D01*
X0261486Y0805968D02*
X0261486Y0806468D01*
X0262236Y0811861D02*
X0262236Y0812861D01*
X0262236Y0813334D02*
X0262236Y0814335D01*
X0262236Y0814807D02*
X0262236Y0815558D01*
X0261986Y0815808D01*
X0260985Y0815808D01*
X0260735Y0815558D01*
X0260735Y0814807D01*
X0262236Y0814807D01*
X0261486Y0813834D02*
X0261486Y0813334D01*
X0262236Y0813334D02*
X0260735Y0813334D01*
X0260735Y0814335D01*
X0260735Y0811861D02*
X0262236Y0811861D01*
X0183668Y0748557D02*
X0183668Y0748257D01*
X0183518Y0748107D01*
X0182917Y0748707D01*
X0183518Y0748707D01*
X0183668Y0748557D01*
X0183518Y0748107D02*
X0182917Y0748107D01*
X0182767Y0748257D01*
X0182767Y0748557D01*
X0182917Y0748707D01*
X0182917Y0747786D02*
X0182767Y0747636D01*
X0182767Y0747336D01*
X0182917Y0747186D01*
X0182917Y0747786D02*
X0183067Y0747786D01*
X0183668Y0747186D01*
X0183668Y0747786D01*
X0181699Y0745818D02*
X0181699Y0745217D01*
X0181699Y0745518D02*
X0180799Y0745518D01*
X0181099Y0745217D01*
X0106699Y0850217D02*
X0106699Y0850818D01*
X0106699Y0850518D02*
X0105799Y0850518D01*
X0106099Y0850217D01*
X0107917Y0852186D02*
X0107767Y0852336D01*
X0107767Y0852636D01*
X0107917Y0852786D01*
X0108067Y0852786D01*
X0108668Y0852186D01*
X0108668Y0852786D01*
X0108518Y0853107D02*
X0107917Y0853707D01*
X0108518Y0853707D01*
X0108668Y0853557D01*
X0108668Y0853257D01*
X0108518Y0853107D01*
X0107917Y0853107D01*
X0107767Y0853257D01*
X0107767Y0853557D01*
X0107917Y0853707D01*
X0060577Y0822531D02*
X0060326Y0822782D01*
X0059576Y0822782D01*
X0059576Y0821280D01*
X0060326Y0821280D01*
X0060577Y0821531D01*
X0060577Y0822531D01*
X0059103Y0822782D02*
X0058103Y0822782D01*
X0058103Y0821280D01*
X0059103Y0821280D01*
X0058603Y0822031D02*
X0058103Y0822031D01*
X0057630Y0821280D02*
X0056629Y0821280D01*
X0056629Y0822782D01*
X0054684Y0822531D02*
X0054433Y0822782D01*
X0053683Y0822782D01*
X0053683Y0821280D01*
X0054433Y0821280D01*
X0054684Y0821531D01*
X0054684Y0822531D01*
X0053210Y0822782D02*
X0052210Y0822782D01*
X0052210Y0821280D01*
X0053210Y0821280D01*
X0052710Y0822031D02*
X0052210Y0822031D01*
X0051737Y0822031D02*
X0051487Y0821781D01*
X0050736Y0821781D01*
X0050736Y0821280D02*
X0050736Y0822782D01*
X0051487Y0822782D01*
X0051737Y0822531D01*
X0051737Y0822031D01*
X0051237Y0821781D02*
X0051737Y0821280D01*
X0051317Y0781182D02*
X0051317Y0779680D01*
X0052317Y0779680D01*
X0052790Y0779680D02*
X0053791Y0779680D01*
X0054263Y0779680D02*
X0055014Y0779680D01*
X0055264Y0779931D01*
X0055264Y0780931D01*
X0055014Y0781182D01*
X0054263Y0781182D01*
X0054263Y0779680D01*
X0053290Y0780431D02*
X0052790Y0780431D01*
X0052790Y0781182D02*
X0052790Y0779680D01*
X0052790Y0781182D02*
X0053791Y0781182D01*
X0049371Y0780931D02*
X0049121Y0781182D01*
X0048370Y0781182D01*
X0048370Y0779680D01*
X0049121Y0779680D01*
X0049371Y0779931D01*
X0049371Y0780931D01*
X0047898Y0781182D02*
X0046897Y0781182D01*
X0046897Y0779680D01*
X0047898Y0779680D01*
X0047397Y0780431D02*
X0046897Y0780431D01*
X0046424Y0780431D02*
X0046174Y0780181D01*
X0045424Y0780181D01*
X0045924Y0780181D02*
X0046424Y0779680D01*
X0046424Y0780431D02*
X0046424Y0780931D01*
X0046174Y0781182D01*
X0045424Y0781182D01*
X0045424Y0779680D01*
X0265735Y0978271D02*
X0265985Y0978021D01*
X0266986Y0978021D01*
X0267236Y0978271D01*
X0267236Y0978772D01*
X0266986Y0979022D01*
X0266486Y0979022D01*
X0266486Y0978521D01*
X0265985Y0979022D02*
X0265735Y0978772D01*
X0265735Y0978271D01*
X0265735Y0979494D02*
X0265735Y0980245D01*
X0265985Y0980495D01*
X0266486Y0980495D01*
X0266736Y0980245D01*
X0266736Y0979494D01*
X0267236Y0979494D02*
X0265735Y0979494D01*
X0266736Y0979995D02*
X0267236Y0980495D01*
X0267236Y0980968D02*
X0267236Y0981968D01*
X0267236Y0982441D02*
X0267236Y0983442D01*
X0267236Y0983914D02*
X0265735Y0983914D01*
X0267236Y0984915D01*
X0265735Y0984915D01*
X0265735Y0983442D02*
X0265735Y0982441D01*
X0267236Y0982441D01*
X0266486Y0982441D02*
X0266486Y0982941D01*
X0265735Y0981968D02*
X0265735Y0980968D01*
X0267236Y0980968D01*
X0266486Y0980968D02*
X0266486Y0981468D01*
X0267236Y0986861D02*
X0267236Y0987861D01*
X0267236Y0988334D02*
X0267236Y0989335D01*
X0267236Y0989807D02*
X0267236Y0990558D01*
X0266986Y0990808D01*
X0265985Y0990808D01*
X0265735Y0990558D01*
X0265735Y0989807D01*
X0267236Y0989807D01*
X0266486Y0988834D02*
X0266486Y0988334D01*
X0267236Y0988334D02*
X0265735Y0988334D01*
X0265735Y0989335D01*
X0265735Y0986861D02*
X0267236Y0986861D01*
X0550736Y0837531D02*
X0550736Y0836531D01*
X0550987Y0836280D01*
X0551487Y0836280D01*
X0551737Y0836531D01*
X0551737Y0837031D01*
X0551237Y0837031D01*
X0551737Y0837531D02*
X0551487Y0837782D01*
X0550987Y0837782D01*
X0550736Y0837531D01*
X0552210Y0837782D02*
X0552960Y0837782D01*
X0553210Y0837531D01*
X0553210Y0837031D01*
X0552960Y0836781D01*
X0552210Y0836781D01*
X0552710Y0836781D02*
X0553210Y0836280D01*
X0553683Y0836280D02*
X0554684Y0836280D01*
X0555156Y0836280D02*
X0556157Y0836280D01*
X0556629Y0836280D02*
X0556629Y0837782D01*
X0557630Y0836280D01*
X0557630Y0837782D01*
X0556157Y0837782D02*
X0555156Y0837782D01*
X0555156Y0836280D01*
X0555156Y0837031D02*
X0555657Y0837031D01*
X0554684Y0837782D02*
X0553683Y0837782D01*
X0553683Y0836280D01*
X0553683Y0837031D02*
X0554183Y0837031D01*
X0552210Y0836280D02*
X0552210Y0837782D01*
X0559576Y0837782D02*
X0559576Y0836280D01*
X0560577Y0836280D01*
X0561049Y0836280D02*
X0562050Y0836280D01*
X0562522Y0836280D02*
X0563273Y0836280D01*
X0563523Y0836531D01*
X0563523Y0837531D01*
X0563273Y0837782D01*
X0562522Y0837782D01*
X0562522Y0836280D01*
X0561550Y0837031D02*
X0561049Y0837031D01*
X0561049Y0837782D02*
X0561049Y0836280D01*
X0561049Y0837782D02*
X0562050Y0837782D01*
D14*
X0825836Y0836864D02*
X0826320Y0836380D01*
X0827288Y0836380D01*
X0827771Y0836864D01*
X0827771Y0837832D01*
X0826804Y0837832D01*
X0827771Y0838799D02*
X0827288Y0839283D01*
X0826320Y0839283D01*
X0825836Y0838799D01*
X0825836Y0836864D01*
X0828783Y0836380D02*
X0828783Y0839283D01*
X0830718Y0836380D01*
X0830718Y0839283D01*
X0831729Y0839283D02*
X0833181Y0839283D01*
X0833664Y0838799D01*
X0833664Y0836864D01*
X0833181Y0836380D01*
X0831729Y0836380D01*
X0831729Y0839283D01*
X0831729Y0846380D02*
X0831729Y0849283D01*
X0832697Y0848315D01*
X0833664Y0849283D01*
X0833664Y0846380D01*
X0830718Y0846380D02*
X0830718Y0849283D01*
X0828783Y0849283D02*
X0828783Y0846380D01*
X0829750Y0847348D01*
X0830718Y0846380D01*
X0827771Y0847832D02*
X0827288Y0847348D01*
X0825836Y0847348D01*
X0825836Y0846380D02*
X0825836Y0849283D01*
X0827288Y0849283D01*
X0827771Y0848799D01*
X0827771Y0847832D01*
X0827288Y0856380D02*
X0827771Y0856864D01*
X0827771Y0857832D01*
X0826804Y0857832D01*
X0827771Y0858799D02*
X0827288Y0859283D01*
X0826320Y0859283D01*
X0825836Y0858799D01*
X0825836Y0856864D01*
X0826320Y0856380D01*
X0827288Y0856380D01*
X0828783Y0856380D02*
X0828783Y0859283D01*
X0830718Y0856380D01*
X0830718Y0859283D01*
X0831729Y0859283D02*
X0833181Y0859283D01*
X0833664Y0858799D01*
X0833664Y0856864D01*
X0833181Y0856380D01*
X0831729Y0856380D01*
X0831729Y0859283D01*
X0829750Y0866864D02*
X0829750Y0868799D01*
X0828783Y0867832D02*
X0830718Y0867832D01*
X0827771Y0867348D02*
X0827771Y0869283D01*
X0825836Y0869283D02*
X0825836Y0867348D01*
X0826804Y0866380D01*
X0827771Y0867348D01*
X0827288Y0891380D02*
X0827771Y0891864D01*
X0827771Y0892832D01*
X0826804Y0892832D01*
X0827771Y0893799D02*
X0827288Y0894283D01*
X0826320Y0894283D01*
X0825836Y0893799D01*
X0825836Y0891864D01*
X0826320Y0891380D01*
X0827288Y0891380D01*
X0828783Y0891380D02*
X0828783Y0894283D01*
X0830718Y0891380D01*
X0830718Y0894283D01*
X0831729Y0894283D02*
X0833181Y0894283D01*
X0833664Y0893799D01*
X0833664Y0891864D01*
X0833181Y0891380D01*
X0831729Y0891380D01*
X0831729Y0894283D01*
X0831729Y0901380D02*
X0831729Y0904283D01*
X0832697Y0903315D01*
X0833664Y0904283D01*
X0833664Y0901380D01*
X0830718Y0901380D02*
X0830718Y0904283D01*
X0828783Y0904283D02*
X0828783Y0901380D01*
X0829750Y0902348D01*
X0830718Y0901380D01*
X0827771Y0902832D02*
X0827288Y0902348D01*
X0825836Y0902348D01*
X0825836Y0901380D02*
X0825836Y0904283D01*
X0827288Y0904283D01*
X0827771Y0903799D01*
X0827771Y0902832D01*
X0827288Y0911380D02*
X0827771Y0911864D01*
X0827771Y0912832D01*
X0826804Y0912832D01*
X0827771Y0913799D02*
X0827288Y0914283D01*
X0826320Y0914283D01*
X0825836Y0913799D01*
X0825836Y0911864D01*
X0826320Y0911380D01*
X0827288Y0911380D01*
X0828783Y0911380D02*
X0828783Y0914283D01*
X0830718Y0911380D01*
X0830718Y0914283D01*
X0831729Y0914283D02*
X0833181Y0914283D01*
X0833664Y0913799D01*
X0833664Y0911864D01*
X0833181Y0911380D01*
X0831729Y0911380D01*
X0831729Y0914283D01*
X0829750Y0921864D02*
X0829750Y0923799D01*
X0828783Y0922832D02*
X0830718Y0922832D01*
X0827771Y0922348D02*
X0827771Y0924283D01*
X0825836Y0924283D02*
X0825836Y0922348D01*
X0826804Y0921380D01*
X0827771Y0922348D01*
X0827288Y0946380D02*
X0827771Y0946864D01*
X0827771Y0947832D01*
X0826804Y0947832D01*
X0827771Y0948799D02*
X0827288Y0949283D01*
X0826320Y0949283D01*
X0825836Y0948799D01*
X0825836Y0946864D01*
X0826320Y0946380D01*
X0827288Y0946380D01*
X0828783Y0946380D02*
X0828783Y0949283D01*
X0830718Y0946380D01*
X0830718Y0949283D01*
X0831729Y0949283D02*
X0833181Y0949283D01*
X0833664Y0948799D01*
X0833664Y0946864D01*
X0833181Y0946380D01*
X0831729Y0946380D01*
X0831729Y0949283D01*
X0831729Y0956380D02*
X0831729Y0959283D01*
X0832697Y0958315D01*
X0833664Y0959283D01*
X0833664Y0956380D01*
X0830718Y0956380D02*
X0830718Y0959283D01*
X0828783Y0959283D02*
X0828783Y0956380D01*
X0829750Y0957348D01*
X0830718Y0956380D01*
X0827771Y0957832D02*
X0827288Y0957348D01*
X0825836Y0957348D01*
X0825836Y0956380D02*
X0825836Y0959283D01*
X0827288Y0959283D01*
X0827771Y0958799D01*
X0827771Y0957832D01*
X0827288Y0966380D02*
X0827771Y0966864D01*
X0827771Y0967832D01*
X0826804Y0967832D01*
X0827771Y0968799D02*
X0827288Y0969283D01*
X0826320Y0969283D01*
X0825836Y0968799D01*
X0825836Y0966864D01*
X0826320Y0966380D01*
X0827288Y0966380D01*
X0828783Y0966380D02*
X0828783Y0969283D01*
X0830718Y0966380D01*
X0830718Y0969283D01*
X0831729Y0969283D02*
X0833181Y0969283D01*
X0833664Y0968799D01*
X0833664Y0966864D01*
X0833181Y0966380D01*
X0831729Y0966380D01*
X0831729Y0969283D01*
X0829750Y0976864D02*
X0829750Y0978799D01*
X0828783Y0977832D02*
X0830718Y0977832D01*
X0827771Y0977348D02*
X0827771Y0979283D01*
X0825836Y0979283D02*
X0825836Y0977348D01*
X0826804Y0976380D01*
X0827771Y0977348D01*
X0827288Y1001380D02*
X0827771Y1001864D01*
X0827771Y1002832D01*
X0826804Y1002832D01*
X0827771Y1003799D02*
X0827288Y1004283D01*
X0826320Y1004283D01*
X0825836Y1003799D01*
X0825836Y1001864D01*
X0826320Y1001380D01*
X0827288Y1001380D01*
X0828783Y1001380D02*
X0828783Y1004283D01*
X0830718Y1001380D01*
X0830718Y1004283D01*
X0831729Y1004283D02*
X0833181Y1004283D01*
X0833664Y1003799D01*
X0833664Y1001864D01*
X0833181Y1001380D01*
X0831729Y1001380D01*
X0831729Y1004283D01*
X0831729Y1011380D02*
X0831729Y1014283D01*
X0832697Y1013315D01*
X0833664Y1014283D01*
X0833664Y1011380D01*
X0830718Y1011380D02*
X0830718Y1014283D01*
X0828783Y1014283D02*
X0828783Y1011380D01*
X0829750Y1012348D01*
X0830718Y1011380D01*
X0827771Y1012832D02*
X0827288Y1012348D01*
X0825836Y1012348D01*
X0825836Y1011380D02*
X0825836Y1014283D01*
X0827288Y1014283D01*
X0827771Y1013799D01*
X0827771Y1012832D01*
X0827288Y1021380D02*
X0827771Y1021864D01*
X0827771Y1022832D01*
X0826804Y1022832D01*
X0827771Y1023799D02*
X0827288Y1024283D01*
X0826320Y1024283D01*
X0825836Y1023799D01*
X0825836Y1021864D01*
X0826320Y1021380D01*
X0827288Y1021380D01*
X0828783Y1021380D02*
X0828783Y1024283D01*
X0830718Y1021380D01*
X0830718Y1024283D01*
X0831729Y1024283D02*
X0833181Y1024283D01*
X0833664Y1023799D01*
X0833664Y1021864D01*
X0833181Y1021380D01*
X0831729Y1021380D01*
X0831729Y1024283D01*
X0829750Y1031864D02*
X0829750Y1033799D01*
X0828783Y1032832D02*
X0830718Y1032832D01*
X0827771Y1032348D02*
X0827771Y1034283D01*
X0825836Y1034283D02*
X0825836Y1032348D01*
X0826804Y1031380D01*
X0827771Y1032348D01*
X0827288Y1056380D02*
X0827771Y1056864D01*
X0827771Y1057832D01*
X0826804Y1057832D01*
X0827771Y1058799D02*
X0827288Y1059283D01*
X0826320Y1059283D01*
X0825836Y1058799D01*
X0825836Y1056864D01*
X0826320Y1056380D01*
X0827288Y1056380D01*
X0828783Y1056380D02*
X0828783Y1059283D01*
X0830718Y1056380D01*
X0830718Y1059283D01*
X0831729Y1059283D02*
X0833181Y1059283D01*
X0833664Y1058799D01*
X0833664Y1056864D01*
X0833181Y1056380D01*
X0831729Y1056380D01*
X0831729Y1059283D01*
X0831729Y1066380D02*
X0831729Y1069283D01*
X0832697Y1068315D01*
X0833664Y1069283D01*
X0833664Y1066380D01*
X0830718Y1066380D02*
X0830718Y1069283D01*
X0828783Y1069283D02*
X0828783Y1066380D01*
X0829750Y1067348D01*
X0830718Y1066380D01*
X0827771Y1067832D02*
X0827288Y1067348D01*
X0825836Y1067348D01*
X0825836Y1066380D02*
X0825836Y1069283D01*
X0827288Y1069283D01*
X0827771Y1068799D01*
X0827771Y1067832D01*
X0827288Y1076380D02*
X0827771Y1076864D01*
X0827771Y1077832D01*
X0826804Y1077832D01*
X0827771Y1078799D02*
X0827288Y1079283D01*
X0826320Y1079283D01*
X0825836Y1078799D01*
X0825836Y1076864D01*
X0826320Y1076380D01*
X0827288Y1076380D01*
X0828783Y1076380D02*
X0828783Y1079283D01*
X0830718Y1076380D01*
X0830718Y1079283D01*
X0831729Y1079283D02*
X0833181Y1079283D01*
X0833664Y1078799D01*
X0833664Y1076864D01*
X0833181Y1076380D01*
X0831729Y1076380D01*
X0831729Y1079283D01*
X0829750Y1086864D02*
X0829750Y1088799D01*
X0828783Y1087832D02*
X0830718Y1087832D01*
X0827771Y1087348D02*
X0827771Y1089283D01*
X0825836Y1089283D02*
X0825836Y1087348D01*
X0826804Y1086380D01*
X0827771Y1087348D01*
X0827288Y1111380D02*
X0827771Y1111864D01*
X0827771Y1112832D01*
X0826804Y1112832D01*
X0827771Y1113799D02*
X0827288Y1114283D01*
X0826320Y1114283D01*
X0825836Y1113799D01*
X0825836Y1111864D01*
X0826320Y1111380D01*
X0827288Y1111380D01*
X0828783Y1111380D02*
X0828783Y1114283D01*
X0830718Y1111380D01*
X0830718Y1114283D01*
X0831729Y1114283D02*
X0833181Y1114283D01*
X0833664Y1113799D01*
X0833664Y1111864D01*
X0833181Y1111380D01*
X0831729Y1111380D01*
X0831729Y1114283D01*
X0831729Y1121380D02*
X0831729Y1124283D01*
X0832697Y1123315D01*
X0833664Y1124283D01*
X0833664Y1121380D01*
X0830718Y1121380D02*
X0830718Y1124283D01*
X0828783Y1124283D02*
X0828783Y1121380D01*
X0829750Y1122348D01*
X0830718Y1121380D01*
X0827771Y1122832D02*
X0827288Y1122348D01*
X0825836Y1122348D01*
X0825836Y1121380D02*
X0825836Y1124283D01*
X0827288Y1124283D01*
X0827771Y1123799D01*
X0827771Y1122832D01*
X0827288Y1131380D02*
X0827771Y1131864D01*
X0827771Y1132832D01*
X0826804Y1132832D01*
X0827771Y1133799D02*
X0827288Y1134283D01*
X0826320Y1134283D01*
X0825836Y1133799D01*
X0825836Y1131864D01*
X0826320Y1131380D01*
X0827288Y1131380D01*
X0828783Y1131380D02*
X0828783Y1134283D01*
X0830718Y1131380D01*
X0830718Y1134283D01*
X0831729Y1134283D02*
X0833181Y1134283D01*
X0833664Y1133799D01*
X0833664Y1131864D01*
X0833181Y1131380D01*
X0831729Y1131380D01*
X0831729Y1134283D01*
X0829750Y1141864D02*
X0829750Y1143799D01*
X0828783Y1142832D02*
X0830718Y1142832D01*
X0827771Y1142348D02*
X0827771Y1144283D01*
X0825836Y1144283D02*
X0825836Y1142348D01*
X0826804Y1141380D01*
X0827771Y1142348D01*
X0827771Y0814283D02*
X0827771Y0812348D01*
X0826804Y0811380D01*
X0825836Y0812348D01*
X0825836Y0814283D01*
X0828783Y0812832D02*
X0830718Y0812832D01*
X0829750Y0813799D02*
X0829750Y0811864D01*
X0828783Y0804283D02*
X0830718Y0801380D01*
X0830718Y0804283D01*
X0831729Y0804283D02*
X0833181Y0804283D01*
X0833664Y0803799D01*
X0833664Y0801864D01*
X0833181Y0801380D01*
X0831729Y0801380D01*
X0831729Y0804283D01*
X0828783Y0804283D02*
X0828783Y0801380D01*
X0827771Y0801864D02*
X0827771Y0802832D01*
X0826804Y0802832D01*
X0827771Y0803799D02*
X0827288Y0804283D01*
X0826320Y0804283D01*
X0825836Y0803799D01*
X0825836Y0801864D01*
X0826320Y0801380D01*
X0827288Y0801380D01*
X0827771Y0801864D01*
X0827288Y0794283D02*
X0827771Y0793799D01*
X0827771Y0792832D01*
X0827288Y0792348D01*
X0825836Y0792348D01*
X0825836Y0791380D02*
X0825836Y0794283D01*
X0827288Y0794283D01*
X0828783Y0794283D02*
X0828783Y0791380D01*
X0829750Y0792348D01*
X0830718Y0791380D01*
X0830718Y0794283D01*
X0831729Y0794283D02*
X0832697Y0793315D01*
X0833664Y0794283D01*
X0833664Y0791380D01*
X0831729Y0791380D02*
X0831729Y0794283D01*
X0831729Y0784283D02*
X0833181Y0784283D01*
X0833664Y0783799D01*
X0833664Y0781864D01*
X0833181Y0781380D01*
X0831729Y0781380D01*
X0831729Y0784283D01*
X0830718Y0784283D02*
X0830718Y0781380D01*
X0828783Y0784283D01*
X0828783Y0781380D01*
X0827771Y0781864D02*
X0827771Y0782832D01*
X0826804Y0782832D01*
X0827771Y0783799D02*
X0827288Y0784283D01*
X0826320Y0784283D01*
X0825836Y0783799D01*
X0825836Y0781864D01*
X0826320Y0781380D01*
X0827288Y0781380D01*
X0827771Y0781864D01*
X0827771Y0759283D02*
X0827771Y0757348D01*
X0826804Y0756380D01*
X0825836Y0757348D01*
X0825836Y0759283D01*
X0828783Y0757832D02*
X0830718Y0757832D01*
X0829750Y0758799D02*
X0829750Y0756864D01*
X0828783Y0749283D02*
X0830718Y0746380D01*
X0830718Y0749283D01*
X0831729Y0749283D02*
X0833181Y0749283D01*
X0833664Y0748799D01*
X0833664Y0746864D01*
X0833181Y0746380D01*
X0831729Y0746380D01*
X0831729Y0749283D01*
X0828783Y0749283D02*
X0828783Y0746380D01*
X0827771Y0746864D02*
X0827771Y0747832D01*
X0826804Y0747832D01*
X0827771Y0748799D02*
X0827288Y0749283D01*
X0826320Y0749283D01*
X0825836Y0748799D01*
X0825836Y0746864D01*
X0826320Y0746380D01*
X0827288Y0746380D01*
X0827771Y0746864D01*
X0827288Y0739283D02*
X0827771Y0738799D01*
X0827771Y0737832D01*
X0827288Y0737348D01*
X0825836Y0737348D01*
X0825836Y0736380D02*
X0825836Y0739283D01*
X0827288Y0739283D01*
X0828783Y0739283D02*
X0828783Y0736380D01*
X0829750Y0737348D01*
X0830718Y0736380D01*
X0830718Y0739283D01*
X0831729Y0739283D02*
X0832697Y0738315D01*
X0833664Y0739283D01*
X0833664Y0736380D01*
X0831729Y0736380D02*
X0831729Y0739283D01*
X0831729Y0729283D02*
X0833181Y0729283D01*
X0833664Y0728799D01*
X0833664Y0726864D01*
X0833181Y0726380D01*
X0831729Y0726380D01*
X0831729Y0729283D01*
X0830718Y0729283D02*
X0830718Y0726380D01*
X0828783Y0729283D01*
X0828783Y0726380D01*
X0827771Y0726864D02*
X0827771Y0727832D01*
X0826804Y0727832D01*
X0827771Y0728799D02*
X0827288Y0729283D01*
X0826320Y0729283D01*
X0825836Y0728799D01*
X0825836Y0726864D01*
X0826320Y0726380D01*
X0827288Y0726380D01*
X0827771Y0726864D01*
D15*
X0822104Y0721230D02*
X0822104Y0761230D01*
X0799269Y0761230D01*
X0799269Y0721230D01*
X0822104Y0721230D01*
X0794230Y0735522D02*
X0794230Y0746939D01*
X0786946Y0746939D01*
X0786946Y0735522D01*
X0794230Y0735522D01*
X0784686Y0734230D02*
X0784686Y0748230D01*
X0776686Y0748230D01*
X0776686Y0734230D01*
X0784686Y0734230D01*
X0770686Y0716230D02*
X0750686Y0716230D01*
X0750686Y0766230D01*
X0770686Y0766230D01*
X0770686Y0716230D01*
X0745332Y0733553D02*
X0745332Y0748908D01*
X0726041Y0748908D01*
X0726041Y0733553D01*
X0745332Y0733553D01*
X0728244Y0737097D02*
X0728246Y0737175D01*
X0728252Y0737252D01*
X0728262Y0737330D01*
X0728275Y0737406D01*
X0728293Y0737482D01*
X0728314Y0737557D01*
X0728340Y0737631D01*
X0728369Y0737703D01*
X0728401Y0737774D01*
X0728437Y0737843D01*
X0728477Y0737910D01*
X0728519Y0737975D01*
X0728566Y0738038D01*
X0728615Y0738098D01*
X0728667Y0738156D01*
X0728722Y0738211D01*
X0728780Y0738263D01*
X0728840Y0738312D01*
X0728903Y0738359D01*
X0728968Y0738401D01*
X0729035Y0738441D01*
X0729104Y0738477D01*
X0729175Y0738509D01*
X0729247Y0738538D01*
X0729321Y0738564D01*
X0729396Y0738585D01*
X0729472Y0738603D01*
X0729548Y0738616D01*
X0729626Y0738626D01*
X0729703Y0738632D01*
X0729781Y0738634D01*
X0729859Y0738632D01*
X0729936Y0738626D01*
X0730014Y0738616D01*
X0730090Y0738603D01*
X0730166Y0738585D01*
X0730241Y0738564D01*
X0730315Y0738538D01*
X0730387Y0738509D01*
X0730458Y0738477D01*
X0730527Y0738441D01*
X0730594Y0738401D01*
X0730659Y0738359D01*
X0730722Y0738312D01*
X0730782Y0738263D01*
X0730840Y0738211D01*
X0730895Y0738156D01*
X0730947Y0738098D01*
X0730996Y0738038D01*
X0731043Y0737975D01*
X0731085Y0737910D01*
X0731125Y0737843D01*
X0731161Y0737774D01*
X0731193Y0737703D01*
X0731222Y0737631D01*
X0731248Y0737557D01*
X0731269Y0737482D01*
X0731287Y0737406D01*
X0731300Y0737330D01*
X0731310Y0737252D01*
X0731316Y0737175D01*
X0731318Y0737097D01*
X0731316Y0737019D01*
X0731310Y0736942D01*
X0731300Y0736864D01*
X0731287Y0736788D01*
X0731269Y0736712D01*
X0731248Y0736637D01*
X0731222Y0736563D01*
X0731193Y0736491D01*
X0731161Y0736420D01*
X0731125Y0736351D01*
X0731085Y0736284D01*
X0731043Y0736219D01*
X0730996Y0736156D01*
X0730947Y0736096D01*
X0730895Y0736038D01*
X0730840Y0735983D01*
X0730782Y0735931D01*
X0730722Y0735882D01*
X0730659Y0735835D01*
X0730594Y0735793D01*
X0730527Y0735753D01*
X0730458Y0735717D01*
X0730387Y0735685D01*
X0730315Y0735656D01*
X0730241Y0735630D01*
X0730166Y0735609D01*
X0730090Y0735591D01*
X0730014Y0735578D01*
X0729936Y0735568D01*
X0729859Y0735562D01*
X0729781Y0735560D01*
X0729703Y0735562D01*
X0729626Y0735568D01*
X0729548Y0735578D01*
X0729472Y0735591D01*
X0729396Y0735609D01*
X0729321Y0735630D01*
X0729247Y0735656D01*
X0729175Y0735685D01*
X0729104Y0735717D01*
X0729035Y0735753D01*
X0728968Y0735793D01*
X0728903Y0735835D01*
X0728840Y0735882D01*
X0728780Y0735931D01*
X0728722Y0735983D01*
X0728667Y0736038D01*
X0728615Y0736096D01*
X0728566Y0736156D01*
X0728519Y0736219D01*
X0728477Y0736284D01*
X0728437Y0736351D01*
X0728401Y0736420D01*
X0728369Y0736491D01*
X0728340Y0736563D01*
X0728314Y0736637D01*
X0728293Y0736712D01*
X0728275Y0736788D01*
X0728262Y0736864D01*
X0728252Y0736942D01*
X0728246Y0737019D01*
X0728244Y0737097D01*
X0724686Y0744230D02*
X0716686Y0744230D01*
X0716686Y0758230D01*
X0724686Y0758230D01*
X0724686Y0744230D01*
X0733686Y0762230D02*
X0733686Y0770230D01*
X0747686Y0770230D01*
X0747686Y0762230D01*
X0733686Y0762230D01*
X0750686Y0771230D02*
X0770686Y0771230D01*
X0770686Y0821230D01*
X0750686Y0821230D01*
X0750686Y0771230D01*
X0745332Y0788553D02*
X0726041Y0788553D01*
X0726041Y0803908D01*
X0745332Y0803908D01*
X0745332Y0788553D01*
X0728244Y0792097D02*
X0728246Y0792175D01*
X0728252Y0792252D01*
X0728262Y0792330D01*
X0728275Y0792406D01*
X0728293Y0792482D01*
X0728314Y0792557D01*
X0728340Y0792631D01*
X0728369Y0792703D01*
X0728401Y0792774D01*
X0728437Y0792843D01*
X0728477Y0792910D01*
X0728519Y0792975D01*
X0728566Y0793038D01*
X0728615Y0793098D01*
X0728667Y0793156D01*
X0728722Y0793211D01*
X0728780Y0793263D01*
X0728840Y0793312D01*
X0728903Y0793359D01*
X0728968Y0793401D01*
X0729035Y0793441D01*
X0729104Y0793477D01*
X0729175Y0793509D01*
X0729247Y0793538D01*
X0729321Y0793564D01*
X0729396Y0793585D01*
X0729472Y0793603D01*
X0729548Y0793616D01*
X0729626Y0793626D01*
X0729703Y0793632D01*
X0729781Y0793634D01*
X0729859Y0793632D01*
X0729936Y0793626D01*
X0730014Y0793616D01*
X0730090Y0793603D01*
X0730166Y0793585D01*
X0730241Y0793564D01*
X0730315Y0793538D01*
X0730387Y0793509D01*
X0730458Y0793477D01*
X0730527Y0793441D01*
X0730594Y0793401D01*
X0730659Y0793359D01*
X0730722Y0793312D01*
X0730782Y0793263D01*
X0730840Y0793211D01*
X0730895Y0793156D01*
X0730947Y0793098D01*
X0730996Y0793038D01*
X0731043Y0792975D01*
X0731085Y0792910D01*
X0731125Y0792843D01*
X0731161Y0792774D01*
X0731193Y0792703D01*
X0731222Y0792631D01*
X0731248Y0792557D01*
X0731269Y0792482D01*
X0731287Y0792406D01*
X0731300Y0792330D01*
X0731310Y0792252D01*
X0731316Y0792175D01*
X0731318Y0792097D01*
X0731316Y0792019D01*
X0731310Y0791942D01*
X0731300Y0791864D01*
X0731287Y0791788D01*
X0731269Y0791712D01*
X0731248Y0791637D01*
X0731222Y0791563D01*
X0731193Y0791491D01*
X0731161Y0791420D01*
X0731125Y0791351D01*
X0731085Y0791284D01*
X0731043Y0791219D01*
X0730996Y0791156D01*
X0730947Y0791096D01*
X0730895Y0791038D01*
X0730840Y0790983D01*
X0730782Y0790931D01*
X0730722Y0790882D01*
X0730659Y0790835D01*
X0730594Y0790793D01*
X0730527Y0790753D01*
X0730458Y0790717D01*
X0730387Y0790685D01*
X0730315Y0790656D01*
X0730241Y0790630D01*
X0730166Y0790609D01*
X0730090Y0790591D01*
X0730014Y0790578D01*
X0729936Y0790568D01*
X0729859Y0790562D01*
X0729781Y0790560D01*
X0729703Y0790562D01*
X0729626Y0790568D01*
X0729548Y0790578D01*
X0729472Y0790591D01*
X0729396Y0790609D01*
X0729321Y0790630D01*
X0729247Y0790656D01*
X0729175Y0790685D01*
X0729104Y0790717D01*
X0729035Y0790753D01*
X0728968Y0790793D01*
X0728903Y0790835D01*
X0728840Y0790882D01*
X0728780Y0790931D01*
X0728722Y0790983D01*
X0728667Y0791038D01*
X0728615Y0791096D01*
X0728566Y0791156D01*
X0728519Y0791219D01*
X0728477Y0791284D01*
X0728437Y0791351D01*
X0728401Y0791420D01*
X0728369Y0791491D01*
X0728340Y0791563D01*
X0728314Y0791637D01*
X0728293Y0791712D01*
X0728275Y0791788D01*
X0728262Y0791864D01*
X0728252Y0791942D01*
X0728246Y0792019D01*
X0728244Y0792097D01*
X0724686Y0799230D02*
X0724686Y0813230D01*
X0716686Y0813230D01*
X0716686Y0799230D01*
X0724686Y0799230D01*
X0733686Y0817230D02*
X0733686Y0825230D01*
X0747686Y0825230D01*
X0747686Y0817230D01*
X0733686Y0817230D01*
X0750686Y0826230D02*
X0770686Y0826230D01*
X0770686Y0876230D01*
X0750686Y0876230D01*
X0750686Y0826230D01*
X0745332Y0843553D02*
X0726041Y0843553D01*
X0726041Y0858908D01*
X0745332Y0858908D01*
X0745332Y0843553D01*
X0728244Y0847097D02*
X0728246Y0847175D01*
X0728252Y0847252D01*
X0728262Y0847330D01*
X0728275Y0847406D01*
X0728293Y0847482D01*
X0728314Y0847557D01*
X0728340Y0847631D01*
X0728369Y0847703D01*
X0728401Y0847774D01*
X0728437Y0847843D01*
X0728477Y0847910D01*
X0728519Y0847975D01*
X0728566Y0848038D01*
X0728615Y0848098D01*
X0728667Y0848156D01*
X0728722Y0848211D01*
X0728780Y0848263D01*
X0728840Y0848312D01*
X0728903Y0848359D01*
X0728968Y0848401D01*
X0729035Y0848441D01*
X0729104Y0848477D01*
X0729175Y0848509D01*
X0729247Y0848538D01*
X0729321Y0848564D01*
X0729396Y0848585D01*
X0729472Y0848603D01*
X0729548Y0848616D01*
X0729626Y0848626D01*
X0729703Y0848632D01*
X0729781Y0848634D01*
X0729859Y0848632D01*
X0729936Y0848626D01*
X0730014Y0848616D01*
X0730090Y0848603D01*
X0730166Y0848585D01*
X0730241Y0848564D01*
X0730315Y0848538D01*
X0730387Y0848509D01*
X0730458Y0848477D01*
X0730527Y0848441D01*
X0730594Y0848401D01*
X0730659Y0848359D01*
X0730722Y0848312D01*
X0730782Y0848263D01*
X0730840Y0848211D01*
X0730895Y0848156D01*
X0730947Y0848098D01*
X0730996Y0848038D01*
X0731043Y0847975D01*
X0731085Y0847910D01*
X0731125Y0847843D01*
X0731161Y0847774D01*
X0731193Y0847703D01*
X0731222Y0847631D01*
X0731248Y0847557D01*
X0731269Y0847482D01*
X0731287Y0847406D01*
X0731300Y0847330D01*
X0731310Y0847252D01*
X0731316Y0847175D01*
X0731318Y0847097D01*
X0731316Y0847019D01*
X0731310Y0846942D01*
X0731300Y0846864D01*
X0731287Y0846788D01*
X0731269Y0846712D01*
X0731248Y0846637D01*
X0731222Y0846563D01*
X0731193Y0846491D01*
X0731161Y0846420D01*
X0731125Y0846351D01*
X0731085Y0846284D01*
X0731043Y0846219D01*
X0730996Y0846156D01*
X0730947Y0846096D01*
X0730895Y0846038D01*
X0730840Y0845983D01*
X0730782Y0845931D01*
X0730722Y0845882D01*
X0730659Y0845835D01*
X0730594Y0845793D01*
X0730527Y0845753D01*
X0730458Y0845717D01*
X0730387Y0845685D01*
X0730315Y0845656D01*
X0730241Y0845630D01*
X0730166Y0845609D01*
X0730090Y0845591D01*
X0730014Y0845578D01*
X0729936Y0845568D01*
X0729859Y0845562D01*
X0729781Y0845560D01*
X0729703Y0845562D01*
X0729626Y0845568D01*
X0729548Y0845578D01*
X0729472Y0845591D01*
X0729396Y0845609D01*
X0729321Y0845630D01*
X0729247Y0845656D01*
X0729175Y0845685D01*
X0729104Y0845717D01*
X0729035Y0845753D01*
X0728968Y0845793D01*
X0728903Y0845835D01*
X0728840Y0845882D01*
X0728780Y0845931D01*
X0728722Y0845983D01*
X0728667Y0846038D01*
X0728615Y0846096D01*
X0728566Y0846156D01*
X0728519Y0846219D01*
X0728477Y0846284D01*
X0728437Y0846351D01*
X0728401Y0846420D01*
X0728369Y0846491D01*
X0728340Y0846563D01*
X0728314Y0846637D01*
X0728293Y0846712D01*
X0728275Y0846788D01*
X0728262Y0846864D01*
X0728252Y0846942D01*
X0728246Y0847019D01*
X0728244Y0847097D01*
X0724686Y0854230D02*
X0716686Y0854230D01*
X0716686Y0868230D01*
X0724686Y0868230D01*
X0724686Y0854230D01*
X0733686Y0872230D02*
X0733686Y0880230D01*
X0747686Y0880230D01*
X0747686Y0872230D01*
X0733686Y0872230D01*
X0750686Y0881230D02*
X0770686Y0881230D01*
X0770686Y0931230D01*
X0750686Y0931230D01*
X0750686Y0881230D01*
X0745332Y0898553D02*
X0726041Y0898553D01*
X0726041Y0913908D01*
X0745332Y0913908D01*
X0745332Y0898553D01*
X0728244Y0902097D02*
X0728246Y0902175D01*
X0728252Y0902252D01*
X0728262Y0902330D01*
X0728275Y0902406D01*
X0728293Y0902482D01*
X0728314Y0902557D01*
X0728340Y0902631D01*
X0728369Y0902703D01*
X0728401Y0902774D01*
X0728437Y0902843D01*
X0728477Y0902910D01*
X0728519Y0902975D01*
X0728566Y0903038D01*
X0728615Y0903098D01*
X0728667Y0903156D01*
X0728722Y0903211D01*
X0728780Y0903263D01*
X0728840Y0903312D01*
X0728903Y0903359D01*
X0728968Y0903401D01*
X0729035Y0903441D01*
X0729104Y0903477D01*
X0729175Y0903509D01*
X0729247Y0903538D01*
X0729321Y0903564D01*
X0729396Y0903585D01*
X0729472Y0903603D01*
X0729548Y0903616D01*
X0729626Y0903626D01*
X0729703Y0903632D01*
X0729781Y0903634D01*
X0729859Y0903632D01*
X0729936Y0903626D01*
X0730014Y0903616D01*
X0730090Y0903603D01*
X0730166Y0903585D01*
X0730241Y0903564D01*
X0730315Y0903538D01*
X0730387Y0903509D01*
X0730458Y0903477D01*
X0730527Y0903441D01*
X0730594Y0903401D01*
X0730659Y0903359D01*
X0730722Y0903312D01*
X0730782Y0903263D01*
X0730840Y0903211D01*
X0730895Y0903156D01*
X0730947Y0903098D01*
X0730996Y0903038D01*
X0731043Y0902975D01*
X0731085Y0902910D01*
X0731125Y0902843D01*
X0731161Y0902774D01*
X0731193Y0902703D01*
X0731222Y0902631D01*
X0731248Y0902557D01*
X0731269Y0902482D01*
X0731287Y0902406D01*
X0731300Y0902330D01*
X0731310Y0902252D01*
X0731316Y0902175D01*
X0731318Y0902097D01*
X0731316Y0902019D01*
X0731310Y0901942D01*
X0731300Y0901864D01*
X0731287Y0901788D01*
X0731269Y0901712D01*
X0731248Y0901637D01*
X0731222Y0901563D01*
X0731193Y0901491D01*
X0731161Y0901420D01*
X0731125Y0901351D01*
X0731085Y0901284D01*
X0731043Y0901219D01*
X0730996Y0901156D01*
X0730947Y0901096D01*
X0730895Y0901038D01*
X0730840Y0900983D01*
X0730782Y0900931D01*
X0730722Y0900882D01*
X0730659Y0900835D01*
X0730594Y0900793D01*
X0730527Y0900753D01*
X0730458Y0900717D01*
X0730387Y0900685D01*
X0730315Y0900656D01*
X0730241Y0900630D01*
X0730166Y0900609D01*
X0730090Y0900591D01*
X0730014Y0900578D01*
X0729936Y0900568D01*
X0729859Y0900562D01*
X0729781Y0900560D01*
X0729703Y0900562D01*
X0729626Y0900568D01*
X0729548Y0900578D01*
X0729472Y0900591D01*
X0729396Y0900609D01*
X0729321Y0900630D01*
X0729247Y0900656D01*
X0729175Y0900685D01*
X0729104Y0900717D01*
X0729035Y0900753D01*
X0728968Y0900793D01*
X0728903Y0900835D01*
X0728840Y0900882D01*
X0728780Y0900931D01*
X0728722Y0900983D01*
X0728667Y0901038D01*
X0728615Y0901096D01*
X0728566Y0901156D01*
X0728519Y0901219D01*
X0728477Y0901284D01*
X0728437Y0901351D01*
X0728401Y0901420D01*
X0728369Y0901491D01*
X0728340Y0901563D01*
X0728314Y0901637D01*
X0728293Y0901712D01*
X0728275Y0901788D01*
X0728262Y0901864D01*
X0728252Y0901942D01*
X0728246Y0902019D01*
X0728244Y0902097D01*
X0724686Y0909230D02*
X0716686Y0909230D01*
X0716686Y0923230D01*
X0724686Y0923230D01*
X0724686Y0909230D01*
X0733686Y0927230D02*
X0733686Y0935230D01*
X0747686Y0935230D01*
X0747686Y0927230D01*
X0733686Y0927230D01*
X0750686Y0936230D02*
X0770686Y0936230D01*
X0770686Y0986230D01*
X0750686Y0986230D01*
X0750686Y0936230D01*
X0745332Y0953553D02*
X0726041Y0953553D01*
X0726041Y0968908D01*
X0745332Y0968908D01*
X0745332Y0953553D01*
X0728244Y0957097D02*
X0728246Y0957175D01*
X0728252Y0957252D01*
X0728262Y0957330D01*
X0728275Y0957406D01*
X0728293Y0957482D01*
X0728314Y0957557D01*
X0728340Y0957631D01*
X0728369Y0957703D01*
X0728401Y0957774D01*
X0728437Y0957843D01*
X0728477Y0957910D01*
X0728519Y0957975D01*
X0728566Y0958038D01*
X0728615Y0958098D01*
X0728667Y0958156D01*
X0728722Y0958211D01*
X0728780Y0958263D01*
X0728840Y0958312D01*
X0728903Y0958359D01*
X0728968Y0958401D01*
X0729035Y0958441D01*
X0729104Y0958477D01*
X0729175Y0958509D01*
X0729247Y0958538D01*
X0729321Y0958564D01*
X0729396Y0958585D01*
X0729472Y0958603D01*
X0729548Y0958616D01*
X0729626Y0958626D01*
X0729703Y0958632D01*
X0729781Y0958634D01*
X0729859Y0958632D01*
X0729936Y0958626D01*
X0730014Y0958616D01*
X0730090Y0958603D01*
X0730166Y0958585D01*
X0730241Y0958564D01*
X0730315Y0958538D01*
X0730387Y0958509D01*
X0730458Y0958477D01*
X0730527Y0958441D01*
X0730594Y0958401D01*
X0730659Y0958359D01*
X0730722Y0958312D01*
X0730782Y0958263D01*
X0730840Y0958211D01*
X0730895Y0958156D01*
X0730947Y0958098D01*
X0730996Y0958038D01*
X0731043Y0957975D01*
X0731085Y0957910D01*
X0731125Y0957843D01*
X0731161Y0957774D01*
X0731193Y0957703D01*
X0731222Y0957631D01*
X0731248Y0957557D01*
X0731269Y0957482D01*
X0731287Y0957406D01*
X0731300Y0957330D01*
X0731310Y0957252D01*
X0731316Y0957175D01*
X0731318Y0957097D01*
X0731316Y0957019D01*
X0731310Y0956942D01*
X0731300Y0956864D01*
X0731287Y0956788D01*
X0731269Y0956712D01*
X0731248Y0956637D01*
X0731222Y0956563D01*
X0731193Y0956491D01*
X0731161Y0956420D01*
X0731125Y0956351D01*
X0731085Y0956284D01*
X0731043Y0956219D01*
X0730996Y0956156D01*
X0730947Y0956096D01*
X0730895Y0956038D01*
X0730840Y0955983D01*
X0730782Y0955931D01*
X0730722Y0955882D01*
X0730659Y0955835D01*
X0730594Y0955793D01*
X0730527Y0955753D01*
X0730458Y0955717D01*
X0730387Y0955685D01*
X0730315Y0955656D01*
X0730241Y0955630D01*
X0730166Y0955609D01*
X0730090Y0955591D01*
X0730014Y0955578D01*
X0729936Y0955568D01*
X0729859Y0955562D01*
X0729781Y0955560D01*
X0729703Y0955562D01*
X0729626Y0955568D01*
X0729548Y0955578D01*
X0729472Y0955591D01*
X0729396Y0955609D01*
X0729321Y0955630D01*
X0729247Y0955656D01*
X0729175Y0955685D01*
X0729104Y0955717D01*
X0729035Y0955753D01*
X0728968Y0955793D01*
X0728903Y0955835D01*
X0728840Y0955882D01*
X0728780Y0955931D01*
X0728722Y0955983D01*
X0728667Y0956038D01*
X0728615Y0956096D01*
X0728566Y0956156D01*
X0728519Y0956219D01*
X0728477Y0956284D01*
X0728437Y0956351D01*
X0728401Y0956420D01*
X0728369Y0956491D01*
X0728340Y0956563D01*
X0728314Y0956637D01*
X0728293Y0956712D01*
X0728275Y0956788D01*
X0728262Y0956864D01*
X0728252Y0956942D01*
X0728246Y0957019D01*
X0728244Y0957097D01*
X0724686Y0964230D02*
X0716686Y0964230D01*
X0716686Y0978230D01*
X0724686Y0978230D01*
X0724686Y0964230D01*
X0733686Y0982230D02*
X0733686Y0990230D01*
X0747686Y0990230D01*
X0747686Y0982230D01*
X0733686Y0982230D01*
X0750686Y0991230D02*
X0770686Y0991230D01*
X0770686Y1041230D01*
X0750686Y1041230D01*
X0750686Y0991230D01*
X0745332Y1008553D02*
X0726041Y1008553D01*
X0726041Y1023908D01*
X0745332Y1023908D01*
X0745332Y1008553D01*
X0728244Y1012097D02*
X0728246Y1012175D01*
X0728252Y1012252D01*
X0728262Y1012330D01*
X0728275Y1012406D01*
X0728293Y1012482D01*
X0728314Y1012557D01*
X0728340Y1012631D01*
X0728369Y1012703D01*
X0728401Y1012774D01*
X0728437Y1012843D01*
X0728477Y1012910D01*
X0728519Y1012975D01*
X0728566Y1013038D01*
X0728615Y1013098D01*
X0728667Y1013156D01*
X0728722Y1013211D01*
X0728780Y1013263D01*
X0728840Y1013312D01*
X0728903Y1013359D01*
X0728968Y1013401D01*
X0729035Y1013441D01*
X0729104Y1013477D01*
X0729175Y1013509D01*
X0729247Y1013538D01*
X0729321Y1013564D01*
X0729396Y1013585D01*
X0729472Y1013603D01*
X0729548Y1013616D01*
X0729626Y1013626D01*
X0729703Y1013632D01*
X0729781Y1013634D01*
X0729859Y1013632D01*
X0729936Y1013626D01*
X0730014Y1013616D01*
X0730090Y1013603D01*
X0730166Y1013585D01*
X0730241Y1013564D01*
X0730315Y1013538D01*
X0730387Y1013509D01*
X0730458Y1013477D01*
X0730527Y1013441D01*
X0730594Y1013401D01*
X0730659Y1013359D01*
X0730722Y1013312D01*
X0730782Y1013263D01*
X0730840Y1013211D01*
X0730895Y1013156D01*
X0730947Y1013098D01*
X0730996Y1013038D01*
X0731043Y1012975D01*
X0731085Y1012910D01*
X0731125Y1012843D01*
X0731161Y1012774D01*
X0731193Y1012703D01*
X0731222Y1012631D01*
X0731248Y1012557D01*
X0731269Y1012482D01*
X0731287Y1012406D01*
X0731300Y1012330D01*
X0731310Y1012252D01*
X0731316Y1012175D01*
X0731318Y1012097D01*
X0731316Y1012019D01*
X0731310Y1011942D01*
X0731300Y1011864D01*
X0731287Y1011788D01*
X0731269Y1011712D01*
X0731248Y1011637D01*
X0731222Y1011563D01*
X0731193Y1011491D01*
X0731161Y1011420D01*
X0731125Y1011351D01*
X0731085Y1011284D01*
X0731043Y1011219D01*
X0730996Y1011156D01*
X0730947Y1011096D01*
X0730895Y1011038D01*
X0730840Y1010983D01*
X0730782Y1010931D01*
X0730722Y1010882D01*
X0730659Y1010835D01*
X0730594Y1010793D01*
X0730527Y1010753D01*
X0730458Y1010717D01*
X0730387Y1010685D01*
X0730315Y1010656D01*
X0730241Y1010630D01*
X0730166Y1010609D01*
X0730090Y1010591D01*
X0730014Y1010578D01*
X0729936Y1010568D01*
X0729859Y1010562D01*
X0729781Y1010560D01*
X0729703Y1010562D01*
X0729626Y1010568D01*
X0729548Y1010578D01*
X0729472Y1010591D01*
X0729396Y1010609D01*
X0729321Y1010630D01*
X0729247Y1010656D01*
X0729175Y1010685D01*
X0729104Y1010717D01*
X0729035Y1010753D01*
X0728968Y1010793D01*
X0728903Y1010835D01*
X0728840Y1010882D01*
X0728780Y1010931D01*
X0728722Y1010983D01*
X0728667Y1011038D01*
X0728615Y1011096D01*
X0728566Y1011156D01*
X0728519Y1011219D01*
X0728477Y1011284D01*
X0728437Y1011351D01*
X0728401Y1011420D01*
X0728369Y1011491D01*
X0728340Y1011563D01*
X0728314Y1011637D01*
X0728293Y1011712D01*
X0728275Y1011788D01*
X0728262Y1011864D01*
X0728252Y1011942D01*
X0728246Y1012019D01*
X0728244Y1012097D01*
X0724686Y1019230D02*
X0716686Y1019230D01*
X0716686Y1033230D01*
X0724686Y1033230D01*
X0724686Y1019230D01*
X0733686Y1037230D02*
X0733686Y1045230D01*
X0747686Y1045230D01*
X0747686Y1037230D01*
X0733686Y1037230D01*
X0750686Y1046230D02*
X0770686Y1046230D01*
X0770686Y1096230D01*
X0750686Y1096230D01*
X0750686Y1046230D01*
X0745332Y1063553D02*
X0726041Y1063553D01*
X0726041Y1078908D01*
X0745332Y1078908D01*
X0745332Y1063553D01*
X0728244Y1067097D02*
X0728246Y1067175D01*
X0728252Y1067252D01*
X0728262Y1067330D01*
X0728275Y1067406D01*
X0728293Y1067482D01*
X0728314Y1067557D01*
X0728340Y1067631D01*
X0728369Y1067703D01*
X0728401Y1067774D01*
X0728437Y1067843D01*
X0728477Y1067910D01*
X0728519Y1067975D01*
X0728566Y1068038D01*
X0728615Y1068098D01*
X0728667Y1068156D01*
X0728722Y1068211D01*
X0728780Y1068263D01*
X0728840Y1068312D01*
X0728903Y1068359D01*
X0728968Y1068401D01*
X0729035Y1068441D01*
X0729104Y1068477D01*
X0729175Y1068509D01*
X0729247Y1068538D01*
X0729321Y1068564D01*
X0729396Y1068585D01*
X0729472Y1068603D01*
X0729548Y1068616D01*
X0729626Y1068626D01*
X0729703Y1068632D01*
X0729781Y1068634D01*
X0729859Y1068632D01*
X0729936Y1068626D01*
X0730014Y1068616D01*
X0730090Y1068603D01*
X0730166Y1068585D01*
X0730241Y1068564D01*
X0730315Y1068538D01*
X0730387Y1068509D01*
X0730458Y1068477D01*
X0730527Y1068441D01*
X0730594Y1068401D01*
X0730659Y1068359D01*
X0730722Y1068312D01*
X0730782Y1068263D01*
X0730840Y1068211D01*
X0730895Y1068156D01*
X0730947Y1068098D01*
X0730996Y1068038D01*
X0731043Y1067975D01*
X0731085Y1067910D01*
X0731125Y1067843D01*
X0731161Y1067774D01*
X0731193Y1067703D01*
X0731222Y1067631D01*
X0731248Y1067557D01*
X0731269Y1067482D01*
X0731287Y1067406D01*
X0731300Y1067330D01*
X0731310Y1067252D01*
X0731316Y1067175D01*
X0731318Y1067097D01*
X0731316Y1067019D01*
X0731310Y1066942D01*
X0731300Y1066864D01*
X0731287Y1066788D01*
X0731269Y1066712D01*
X0731248Y1066637D01*
X0731222Y1066563D01*
X0731193Y1066491D01*
X0731161Y1066420D01*
X0731125Y1066351D01*
X0731085Y1066284D01*
X0731043Y1066219D01*
X0730996Y1066156D01*
X0730947Y1066096D01*
X0730895Y1066038D01*
X0730840Y1065983D01*
X0730782Y1065931D01*
X0730722Y1065882D01*
X0730659Y1065835D01*
X0730594Y1065793D01*
X0730527Y1065753D01*
X0730458Y1065717D01*
X0730387Y1065685D01*
X0730315Y1065656D01*
X0730241Y1065630D01*
X0730166Y1065609D01*
X0730090Y1065591D01*
X0730014Y1065578D01*
X0729936Y1065568D01*
X0729859Y1065562D01*
X0729781Y1065560D01*
X0729703Y1065562D01*
X0729626Y1065568D01*
X0729548Y1065578D01*
X0729472Y1065591D01*
X0729396Y1065609D01*
X0729321Y1065630D01*
X0729247Y1065656D01*
X0729175Y1065685D01*
X0729104Y1065717D01*
X0729035Y1065753D01*
X0728968Y1065793D01*
X0728903Y1065835D01*
X0728840Y1065882D01*
X0728780Y1065931D01*
X0728722Y1065983D01*
X0728667Y1066038D01*
X0728615Y1066096D01*
X0728566Y1066156D01*
X0728519Y1066219D01*
X0728477Y1066284D01*
X0728437Y1066351D01*
X0728401Y1066420D01*
X0728369Y1066491D01*
X0728340Y1066563D01*
X0728314Y1066637D01*
X0728293Y1066712D01*
X0728275Y1066788D01*
X0728262Y1066864D01*
X0728252Y1066942D01*
X0728246Y1067019D01*
X0728244Y1067097D01*
X0724686Y1074230D02*
X0724686Y1088230D01*
X0716686Y1088230D01*
X0716686Y1074230D01*
X0724686Y1074230D01*
X0733686Y1092230D02*
X0733686Y1100230D01*
X0747686Y1100230D01*
X0747686Y1092230D01*
X0733686Y1092230D01*
X0750686Y1101230D02*
X0770686Y1101230D01*
X0770686Y1151230D01*
X0750686Y1151230D01*
X0750686Y1101230D01*
X0745332Y1118553D02*
X0726041Y1118553D01*
X0726041Y1133908D01*
X0745332Y1133908D01*
X0745332Y1118553D01*
X0728244Y1122097D02*
X0728246Y1122175D01*
X0728252Y1122252D01*
X0728262Y1122330D01*
X0728275Y1122406D01*
X0728293Y1122482D01*
X0728314Y1122557D01*
X0728340Y1122631D01*
X0728369Y1122703D01*
X0728401Y1122774D01*
X0728437Y1122843D01*
X0728477Y1122910D01*
X0728519Y1122975D01*
X0728566Y1123038D01*
X0728615Y1123098D01*
X0728667Y1123156D01*
X0728722Y1123211D01*
X0728780Y1123263D01*
X0728840Y1123312D01*
X0728903Y1123359D01*
X0728968Y1123401D01*
X0729035Y1123441D01*
X0729104Y1123477D01*
X0729175Y1123509D01*
X0729247Y1123538D01*
X0729321Y1123564D01*
X0729396Y1123585D01*
X0729472Y1123603D01*
X0729548Y1123616D01*
X0729626Y1123626D01*
X0729703Y1123632D01*
X0729781Y1123634D01*
X0729859Y1123632D01*
X0729936Y1123626D01*
X0730014Y1123616D01*
X0730090Y1123603D01*
X0730166Y1123585D01*
X0730241Y1123564D01*
X0730315Y1123538D01*
X0730387Y1123509D01*
X0730458Y1123477D01*
X0730527Y1123441D01*
X0730594Y1123401D01*
X0730659Y1123359D01*
X0730722Y1123312D01*
X0730782Y1123263D01*
X0730840Y1123211D01*
X0730895Y1123156D01*
X0730947Y1123098D01*
X0730996Y1123038D01*
X0731043Y1122975D01*
X0731085Y1122910D01*
X0731125Y1122843D01*
X0731161Y1122774D01*
X0731193Y1122703D01*
X0731222Y1122631D01*
X0731248Y1122557D01*
X0731269Y1122482D01*
X0731287Y1122406D01*
X0731300Y1122330D01*
X0731310Y1122252D01*
X0731316Y1122175D01*
X0731318Y1122097D01*
X0731316Y1122019D01*
X0731310Y1121942D01*
X0731300Y1121864D01*
X0731287Y1121788D01*
X0731269Y1121712D01*
X0731248Y1121637D01*
X0731222Y1121563D01*
X0731193Y1121491D01*
X0731161Y1121420D01*
X0731125Y1121351D01*
X0731085Y1121284D01*
X0731043Y1121219D01*
X0730996Y1121156D01*
X0730947Y1121096D01*
X0730895Y1121038D01*
X0730840Y1120983D01*
X0730782Y1120931D01*
X0730722Y1120882D01*
X0730659Y1120835D01*
X0730594Y1120793D01*
X0730527Y1120753D01*
X0730458Y1120717D01*
X0730387Y1120685D01*
X0730315Y1120656D01*
X0730241Y1120630D01*
X0730166Y1120609D01*
X0730090Y1120591D01*
X0730014Y1120578D01*
X0729936Y1120568D01*
X0729859Y1120562D01*
X0729781Y1120560D01*
X0729703Y1120562D01*
X0729626Y1120568D01*
X0729548Y1120578D01*
X0729472Y1120591D01*
X0729396Y1120609D01*
X0729321Y1120630D01*
X0729247Y1120656D01*
X0729175Y1120685D01*
X0729104Y1120717D01*
X0729035Y1120753D01*
X0728968Y1120793D01*
X0728903Y1120835D01*
X0728840Y1120882D01*
X0728780Y1120931D01*
X0728722Y1120983D01*
X0728667Y1121038D01*
X0728615Y1121096D01*
X0728566Y1121156D01*
X0728519Y1121219D01*
X0728477Y1121284D01*
X0728437Y1121351D01*
X0728401Y1121420D01*
X0728369Y1121491D01*
X0728340Y1121563D01*
X0728314Y1121637D01*
X0728293Y1121712D01*
X0728275Y1121788D01*
X0728262Y1121864D01*
X0728252Y1121942D01*
X0728246Y1122019D01*
X0728244Y1122097D01*
X0724686Y1129230D02*
X0716686Y1129230D01*
X0716686Y1143230D01*
X0724686Y1143230D01*
X0724686Y1129230D01*
X0733686Y1147230D02*
X0733686Y1155230D01*
X0747686Y1155230D01*
X0747686Y1147230D01*
X0733686Y1147230D01*
X0773686Y1150230D02*
X0773686Y1142230D01*
X0787686Y1142230D01*
X0787686Y1150230D01*
X0773686Y1150230D01*
X0776686Y1133230D02*
X0784686Y1133230D01*
X0784686Y1119230D01*
X0776686Y1119230D01*
X0776686Y1133230D01*
X0786946Y1136939D02*
X0786946Y1125522D01*
X0794230Y1125522D01*
X0794230Y1136939D01*
X0786946Y1136939D01*
X0799269Y1146230D02*
X0799269Y1106230D01*
X0822104Y1106230D01*
X0822104Y1146230D01*
X0799269Y1146230D01*
X0787686Y1095230D02*
X0773686Y1095230D01*
X0773686Y1087230D01*
X0787686Y1087230D01*
X0787686Y1095230D01*
X0799269Y1091230D02*
X0799269Y1051230D01*
X0822104Y1051230D01*
X0822104Y1091230D01*
X0799269Y1091230D01*
X0794230Y1076939D02*
X0786946Y1076939D01*
X0786946Y1065522D01*
X0794230Y1065522D01*
X0794230Y1076939D01*
X0784686Y1078230D02*
X0784686Y1064230D01*
X0776686Y1064230D01*
X0776686Y1078230D01*
X0784686Y1078230D01*
X0787686Y1040230D02*
X0773686Y1040230D01*
X0773686Y1032230D01*
X0787686Y1032230D01*
X0787686Y1040230D01*
X0799269Y1036230D02*
X0799269Y0996230D01*
X0822104Y0996230D01*
X0822104Y1036230D01*
X0799269Y1036230D01*
X0794230Y1021939D02*
X0786946Y1021939D01*
X0786946Y1010522D01*
X0794230Y1010522D01*
X0794230Y1021939D01*
X0784686Y1023230D02*
X0784686Y1009230D01*
X0776686Y1009230D01*
X0776686Y1023230D01*
X0784686Y1023230D01*
X0787686Y0985230D02*
X0773686Y0985230D01*
X0773686Y0977230D01*
X0787686Y0977230D01*
X0787686Y0985230D01*
X0799269Y0981230D02*
X0799269Y0941230D01*
X0822104Y0941230D01*
X0822104Y0981230D01*
X0799269Y0981230D01*
X0794230Y0966939D02*
X0786946Y0966939D01*
X0786946Y0955522D01*
X0794230Y0955522D01*
X0794230Y0966939D01*
X0784686Y0968230D02*
X0784686Y0954230D01*
X0776686Y0954230D01*
X0776686Y0968230D01*
X0784686Y0968230D01*
X0787686Y0930230D02*
X0773686Y0930230D01*
X0773686Y0922230D01*
X0787686Y0922230D01*
X0787686Y0930230D01*
X0799269Y0926230D02*
X0799269Y0886230D01*
X0822104Y0886230D01*
X0822104Y0926230D01*
X0799269Y0926230D01*
X0794230Y0911939D02*
X0786946Y0911939D01*
X0786946Y0900522D01*
X0794230Y0900522D01*
X0794230Y0911939D01*
X0784686Y0913230D02*
X0784686Y0899230D01*
X0776686Y0899230D01*
X0776686Y0913230D01*
X0784686Y0913230D01*
X0787686Y0875230D02*
X0773686Y0875230D01*
X0773686Y0867230D01*
X0787686Y0867230D01*
X0787686Y0875230D01*
X0799269Y0871230D02*
X0799269Y0831230D01*
X0822104Y0831230D01*
X0822104Y0871230D01*
X0799269Y0871230D01*
X0794230Y0856939D02*
X0786946Y0856939D01*
X0786946Y0845522D01*
X0794230Y0845522D01*
X0794230Y0856939D01*
X0784686Y0858230D02*
X0784686Y0844230D01*
X0776686Y0844230D01*
X0776686Y0858230D01*
X0784686Y0858230D01*
X0787686Y0820230D02*
X0773686Y0820230D01*
X0773686Y0812230D01*
X0787686Y0812230D01*
X0787686Y0820230D01*
X0799269Y0816230D02*
X0799269Y0776230D01*
X0822104Y0776230D01*
X0822104Y0816230D01*
X0799269Y0816230D01*
X0784686Y0803230D02*
X0776686Y0803230D01*
X0776686Y0789230D01*
X0784686Y0789230D01*
X0784686Y0803230D01*
X0786946Y0801939D02*
X0794230Y0801939D01*
X0794230Y0790522D01*
X0786946Y0790522D01*
X0786946Y0801939D01*
X0787686Y0765230D02*
X0773686Y0765230D01*
X0773686Y0757230D01*
X0787686Y0757230D01*
X0787686Y0765230D01*
X0677686Y0842230D02*
X0663686Y0842230D01*
X0663686Y0850230D01*
X0677686Y0850230D01*
X0677686Y0842230D01*
X0620686Y0856230D02*
X0360686Y0856230D01*
X0360686Y1056230D01*
X0620686Y1056230D01*
X0620686Y0856230D01*
X0559623Y0843691D02*
X0559623Y0838770D01*
X0551749Y0838770D01*
X0551749Y0843691D01*
X0559623Y0843691D01*
X0547186Y0844730D02*
X0547186Y0837730D01*
X0534186Y0837730D01*
X0534186Y0844730D01*
X0547186Y0844730D01*
X0529686Y0823230D02*
X0521686Y0823230D01*
X0521686Y0809230D01*
X0529686Y0809230D01*
X0529686Y0823230D01*
X0532186Y0817730D02*
X0532186Y0804730D01*
X0539186Y0804730D01*
X0539186Y0817730D01*
X0532186Y0817730D01*
X0517411Y0814355D02*
X0517413Y0814379D01*
X0517419Y0814403D01*
X0517428Y0814425D01*
X0517441Y0814445D01*
X0517457Y0814463D01*
X0517476Y0814478D01*
X0517497Y0814491D01*
X0517519Y0814499D01*
X0517543Y0814504D01*
X0517567Y0814505D01*
X0517591Y0814502D01*
X0517614Y0814495D01*
X0517636Y0814485D01*
X0517656Y0814471D01*
X0517673Y0814454D01*
X0517688Y0814435D01*
X0517699Y0814414D01*
X0517707Y0814391D01*
X0517711Y0814367D01*
X0517711Y0814343D01*
X0517707Y0814319D01*
X0517699Y0814296D01*
X0517688Y0814275D01*
X0517673Y0814256D01*
X0517656Y0814239D01*
X0517636Y0814225D01*
X0517614Y0814215D01*
X0517591Y0814208D01*
X0517567Y0814205D01*
X0517543Y0814206D01*
X0517519Y0814211D01*
X0517497Y0814219D01*
X0517476Y0814232D01*
X0517457Y0814247D01*
X0517441Y0814265D01*
X0517428Y0814285D01*
X0517419Y0814307D01*
X0517413Y0814331D01*
X0517411Y0814355D01*
X0517248Y0814355D02*
X0517250Y0814390D01*
X0517256Y0814425D01*
X0517266Y0814458D01*
X0517279Y0814491D01*
X0517296Y0814522D01*
X0517316Y0814550D01*
X0517340Y0814576D01*
X0517366Y0814600D01*
X0517394Y0814620D01*
X0517425Y0814637D01*
X0517458Y0814650D01*
X0517491Y0814660D01*
X0517526Y0814666D01*
X0517561Y0814668D01*
X0517596Y0814666D01*
X0517631Y0814660D01*
X0517664Y0814650D01*
X0517697Y0814637D01*
X0517728Y0814620D01*
X0517756Y0814600D01*
X0517782Y0814576D01*
X0517806Y0814550D01*
X0517826Y0814522D01*
X0517843Y0814491D01*
X0517856Y0814458D01*
X0517866Y0814425D01*
X0517872Y0814390D01*
X0517874Y0814355D01*
X0517872Y0814320D01*
X0517866Y0814285D01*
X0517856Y0814252D01*
X0517843Y0814219D01*
X0517826Y0814188D01*
X0517806Y0814160D01*
X0517782Y0814134D01*
X0517756Y0814110D01*
X0517728Y0814090D01*
X0517697Y0814073D01*
X0517664Y0814060D01*
X0517631Y0814050D01*
X0517596Y0814044D01*
X0517561Y0814042D01*
X0517526Y0814044D01*
X0517491Y0814050D01*
X0517458Y0814060D01*
X0517425Y0814073D01*
X0517394Y0814090D01*
X0517366Y0814110D01*
X0517340Y0814134D01*
X0517316Y0814160D01*
X0517296Y0814188D01*
X0517279Y0814219D01*
X0517266Y0814252D01*
X0517256Y0814285D01*
X0517250Y0814320D01*
X0517248Y0814355D01*
X0516936Y0814355D02*
X0516938Y0814405D01*
X0516944Y0814454D01*
X0516954Y0814503D01*
X0516967Y0814550D01*
X0516985Y0814597D01*
X0517006Y0814642D01*
X0517030Y0814685D01*
X0517058Y0814726D01*
X0517089Y0814765D01*
X0517123Y0814801D01*
X0517160Y0814835D01*
X0517200Y0814865D01*
X0517241Y0814892D01*
X0517285Y0814916D01*
X0517330Y0814936D01*
X0517377Y0814952D01*
X0517425Y0814965D01*
X0517474Y0814974D01*
X0517524Y0814979D01*
X0517573Y0814980D01*
X0517623Y0814977D01*
X0517672Y0814970D01*
X0517721Y0814959D01*
X0517768Y0814945D01*
X0517814Y0814926D01*
X0517859Y0814904D01*
X0517902Y0814879D01*
X0517942Y0814850D01*
X0517980Y0814818D01*
X0518016Y0814784D01*
X0518049Y0814746D01*
X0518078Y0814706D01*
X0518104Y0814664D01*
X0518127Y0814620D01*
X0518146Y0814574D01*
X0518162Y0814527D01*
X0518174Y0814478D01*
X0518182Y0814429D01*
X0518186Y0814380D01*
X0518186Y0814330D01*
X0518182Y0814281D01*
X0518174Y0814232D01*
X0518162Y0814183D01*
X0518146Y0814136D01*
X0518127Y0814090D01*
X0518104Y0814046D01*
X0518078Y0814004D01*
X0518049Y0813964D01*
X0518016Y0813926D01*
X0517980Y0813892D01*
X0517942Y0813860D01*
X0517902Y0813831D01*
X0517859Y0813806D01*
X0517814Y0813784D01*
X0517768Y0813765D01*
X0517721Y0813751D01*
X0517672Y0813740D01*
X0517623Y0813733D01*
X0517573Y0813730D01*
X0517524Y0813731D01*
X0517474Y0813736D01*
X0517425Y0813745D01*
X0517377Y0813758D01*
X0517330Y0813774D01*
X0517285Y0813794D01*
X0517241Y0813818D01*
X0517200Y0813845D01*
X0517160Y0813875D01*
X0517123Y0813909D01*
X0517089Y0813945D01*
X0517058Y0813984D01*
X0517030Y0814025D01*
X0517006Y0814068D01*
X0516985Y0814113D01*
X0516967Y0814160D01*
X0516954Y0814207D01*
X0516944Y0814256D01*
X0516938Y0814305D01*
X0516936Y0814355D01*
X0502186Y0812230D02*
X0502186Y0805230D01*
X0489186Y0805230D01*
X0489186Y0812230D01*
X0502186Y0812230D01*
X0496198Y0815325D02*
X0496198Y0827136D01*
X0485175Y0827136D01*
X0485175Y0815325D01*
X0496198Y0815325D01*
X0491561Y0817152D02*
X0491563Y0817208D01*
X0491569Y0817263D01*
X0491579Y0817318D01*
X0491592Y0817372D01*
X0491610Y0817424D01*
X0491631Y0817476D01*
X0491655Y0817526D01*
X0491683Y0817574D01*
X0491715Y0817620D01*
X0491749Y0817663D01*
X0491787Y0817704D01*
X0491827Y0817743D01*
X0491870Y0817778D01*
X0491916Y0817810D01*
X0491963Y0817839D01*
X0492012Y0817865D01*
X0492064Y0817886D01*
X0492116Y0817905D01*
X0492170Y0817919D01*
X0492224Y0817930D01*
X0492280Y0817937D01*
X0492335Y0817940D01*
X0492391Y0817939D01*
X0492446Y0817934D01*
X0492501Y0817925D01*
X0492555Y0817913D01*
X0492608Y0817896D01*
X0492660Y0817876D01*
X0492710Y0817852D01*
X0492759Y0817825D01*
X0492805Y0817794D01*
X0492850Y0817761D01*
X0492891Y0817724D01*
X0492930Y0817684D01*
X0492966Y0817642D01*
X0492999Y0817597D01*
X0493029Y0817550D01*
X0493055Y0817501D01*
X0493078Y0817450D01*
X0493098Y0817398D01*
X0493113Y0817345D01*
X0493125Y0817290D01*
X0493133Y0817235D01*
X0493137Y0817180D01*
X0493137Y0817124D01*
X0493133Y0817069D01*
X0493125Y0817014D01*
X0493113Y0816959D01*
X0493098Y0816906D01*
X0493078Y0816854D01*
X0493055Y0816803D01*
X0493029Y0816754D01*
X0492999Y0816707D01*
X0492966Y0816662D01*
X0492930Y0816620D01*
X0492891Y0816580D01*
X0492850Y0816543D01*
X0492805Y0816510D01*
X0492759Y0816479D01*
X0492710Y0816452D01*
X0492660Y0816428D01*
X0492608Y0816408D01*
X0492555Y0816391D01*
X0492501Y0816379D01*
X0492446Y0816370D01*
X0492391Y0816365D01*
X0492335Y0816364D01*
X0492280Y0816367D01*
X0492224Y0816374D01*
X0492170Y0816385D01*
X0492116Y0816399D01*
X0492064Y0816418D01*
X0492012Y0816439D01*
X0491963Y0816465D01*
X0491916Y0816494D01*
X0491870Y0816526D01*
X0491827Y0816561D01*
X0491787Y0816600D01*
X0491749Y0816641D01*
X0491715Y0816684D01*
X0491683Y0816730D01*
X0491655Y0816778D01*
X0491631Y0816828D01*
X0491610Y0816880D01*
X0491592Y0816932D01*
X0491579Y0816986D01*
X0491569Y0817041D01*
X0491563Y0817096D01*
X0491561Y0817152D01*
X0494686Y0829230D02*
X0486686Y0829230D01*
X0486686Y0843230D01*
X0494686Y0843230D01*
X0494686Y0829230D01*
X0501686Y0829230D02*
X0501686Y0843230D01*
X0509686Y0843230D01*
X0509686Y0829230D01*
X0501686Y0829230D01*
X0511686Y0829230D02*
X0511686Y0843230D01*
X0519686Y0843230D01*
X0519686Y0829230D01*
X0511686Y0829230D01*
X0477686Y0832230D02*
X0477686Y0840230D01*
X0463686Y0840230D01*
X0463686Y0832230D01*
X0477686Y0832230D01*
X0477686Y0825230D02*
X0477686Y0817230D01*
X0463686Y0817230D01*
X0463686Y0825230D01*
X0477686Y0825230D01*
X0477186Y0814730D02*
X0477186Y0807730D01*
X0464186Y0807730D01*
X0464186Y0814730D01*
X0477186Y0814730D01*
X0495686Y0782648D02*
X0495686Y0759813D01*
X0535686Y0759813D01*
X0535686Y0782648D01*
X0495686Y0782648D01*
X0523686Y0755230D02*
X0523686Y0747230D01*
X0537686Y0747230D01*
X0537686Y0755230D01*
X0523686Y0755230D01*
X0534686Y0742730D02*
X0546686Y0742730D01*
X0546686Y0729730D01*
X0534686Y0729730D01*
X0534686Y0742730D01*
X0535686Y0739230D02*
X0535686Y0733230D01*
X0545686Y0733230D01*
X0545686Y0739230D01*
X0535686Y0739230D01*
X0543686Y0747230D02*
X0543686Y0755230D01*
X0557686Y0755230D01*
X0557686Y0747230D01*
X0543686Y0747230D01*
X0545686Y0761230D02*
X0545686Y0781230D01*
X0575686Y0781230D01*
X0575686Y0761230D01*
X0545686Y0761230D01*
X0543686Y0725230D02*
X0557686Y0725230D01*
X0557686Y0717230D01*
X0543686Y0717230D01*
X0543686Y0725230D01*
X0537686Y0725230D02*
X0537686Y0717230D01*
X0523686Y0717230D01*
X0523686Y0725230D01*
X0537686Y0725230D01*
X0535686Y0711230D02*
X0535686Y0691230D01*
X0505686Y0691230D01*
X0505686Y0711230D01*
X0535686Y0711230D01*
X0545686Y0711230D02*
X0545686Y0691230D01*
X0575686Y0691230D01*
X0575686Y0711230D01*
X0545686Y0711230D01*
X0480686Y0711230D02*
X0480686Y0691230D01*
X0450686Y0691230D01*
X0450686Y0711230D01*
X0480686Y0711230D01*
X0469033Y0718770D02*
X0469033Y0723691D01*
X0462340Y0723691D01*
X0462340Y0718770D01*
X0469033Y0718770D01*
X0454686Y0719230D02*
X0454686Y0733230D01*
X0446686Y0733230D01*
X0446686Y0719230D01*
X0454686Y0719230D01*
X0425686Y0717648D02*
X0385686Y0717648D01*
X0385686Y0694813D01*
X0425686Y0694813D01*
X0425686Y0717648D01*
X0383147Y0699577D02*
X0383147Y0692884D01*
X0378226Y0692884D01*
X0378226Y0699577D01*
X0383147Y0699577D01*
X0374686Y0703230D02*
X0374686Y0689230D01*
X0366686Y0689230D01*
X0366686Y0703230D01*
X0374686Y0703230D01*
X0364686Y0703230D02*
X0364686Y0689230D01*
X0356686Y0689230D01*
X0356686Y0703230D01*
X0364686Y0703230D01*
X0354686Y0703230D02*
X0354686Y0689230D01*
X0346686Y0689230D01*
X0346686Y0703230D01*
X0354686Y0703230D01*
X0334186Y0699730D02*
X0327186Y0699730D01*
X0327186Y0712730D01*
X0334186Y0712730D01*
X0334186Y0699730D01*
X0333147Y0695167D02*
X0328226Y0695167D01*
X0328226Y0687293D01*
X0333147Y0687293D01*
X0333147Y0695167D01*
X0313147Y0712884D02*
X0313147Y0719577D01*
X0308226Y0719577D01*
X0308226Y0712884D01*
X0313147Y0712884D01*
X0305686Y0711230D02*
X0255686Y0711230D01*
X0255686Y0731230D01*
X0305686Y0731230D01*
X0305686Y0711230D01*
X0314686Y0734730D02*
X0321686Y0734730D01*
X0321686Y0747730D01*
X0314686Y0747730D01*
X0314686Y0734730D01*
X0309686Y0744230D02*
X0301686Y0744230D01*
X0301686Y0758230D01*
X0309686Y0758230D01*
X0309686Y0744230D01*
X0314781Y0752785D02*
X0314781Y0759675D01*
X0326592Y0759675D01*
X0326592Y0752785D01*
X0314781Y0752785D01*
X0316186Y0755230D02*
X0316188Y0755274D01*
X0316194Y0755318D01*
X0316204Y0755361D01*
X0316217Y0755403D01*
X0316234Y0755444D01*
X0316255Y0755483D01*
X0316279Y0755520D01*
X0316306Y0755555D01*
X0316336Y0755587D01*
X0316369Y0755617D01*
X0316405Y0755643D01*
X0316442Y0755667D01*
X0316482Y0755686D01*
X0316523Y0755703D01*
X0316566Y0755715D01*
X0316609Y0755724D01*
X0316653Y0755729D01*
X0316697Y0755730D01*
X0316741Y0755727D01*
X0316785Y0755720D01*
X0316828Y0755709D01*
X0316870Y0755695D01*
X0316910Y0755677D01*
X0316949Y0755655D01*
X0316985Y0755631D01*
X0317019Y0755603D01*
X0317051Y0755572D01*
X0317080Y0755538D01*
X0317106Y0755502D01*
X0317128Y0755464D01*
X0317147Y0755424D01*
X0317162Y0755382D01*
X0317174Y0755340D01*
X0317182Y0755296D01*
X0317186Y0755252D01*
X0317186Y0755208D01*
X0317182Y0755164D01*
X0317174Y0755120D01*
X0317162Y0755078D01*
X0317147Y0755036D01*
X0317128Y0754996D01*
X0317106Y0754958D01*
X0317080Y0754922D01*
X0317051Y0754888D01*
X0317019Y0754857D01*
X0316985Y0754829D01*
X0316949Y0754805D01*
X0316910Y0754783D01*
X0316870Y0754765D01*
X0316828Y0754751D01*
X0316785Y0754740D01*
X0316741Y0754733D01*
X0316697Y0754730D01*
X0316653Y0754731D01*
X0316609Y0754736D01*
X0316566Y0754745D01*
X0316523Y0754757D01*
X0316482Y0754774D01*
X0316442Y0754793D01*
X0316405Y0754817D01*
X0316369Y0754843D01*
X0316336Y0754873D01*
X0316306Y0754905D01*
X0316279Y0754940D01*
X0316255Y0754977D01*
X0316234Y0755016D01*
X0316217Y0755057D01*
X0316204Y0755099D01*
X0316194Y0755142D01*
X0316188Y0755186D01*
X0316186Y0755230D01*
X0296789Y0750128D02*
X0296789Y0762333D01*
X0284584Y0762333D01*
X0284584Y0750128D01*
X0296789Y0750128D01*
X0293885Y0760069D02*
X0293887Y0760119D01*
X0293893Y0760169D01*
X0293903Y0760218D01*
X0293916Y0760267D01*
X0293934Y0760314D01*
X0293955Y0760360D01*
X0293979Y0760403D01*
X0294007Y0760445D01*
X0294038Y0760485D01*
X0294072Y0760522D01*
X0294109Y0760556D01*
X0294149Y0760587D01*
X0294191Y0760615D01*
X0294234Y0760639D01*
X0294280Y0760660D01*
X0294327Y0760678D01*
X0294376Y0760691D01*
X0294425Y0760701D01*
X0294475Y0760707D01*
X0294525Y0760709D01*
X0294575Y0760707D01*
X0294625Y0760701D01*
X0294674Y0760691D01*
X0294723Y0760678D01*
X0294770Y0760660D01*
X0294816Y0760639D01*
X0294859Y0760615D01*
X0294901Y0760587D01*
X0294941Y0760556D01*
X0294978Y0760522D01*
X0295012Y0760485D01*
X0295043Y0760445D01*
X0295071Y0760403D01*
X0295095Y0760360D01*
X0295116Y0760314D01*
X0295134Y0760267D01*
X0295147Y0760218D01*
X0295157Y0760169D01*
X0295163Y0760119D01*
X0295165Y0760069D01*
X0295163Y0760019D01*
X0295157Y0759969D01*
X0295147Y0759920D01*
X0295134Y0759871D01*
X0295116Y0759824D01*
X0295095Y0759778D01*
X0295071Y0759735D01*
X0295043Y0759693D01*
X0295012Y0759653D01*
X0294978Y0759616D01*
X0294941Y0759582D01*
X0294901Y0759551D01*
X0294859Y0759523D01*
X0294816Y0759499D01*
X0294770Y0759478D01*
X0294723Y0759460D01*
X0294674Y0759447D01*
X0294625Y0759437D01*
X0294575Y0759431D01*
X0294525Y0759429D01*
X0294475Y0759431D01*
X0294425Y0759437D01*
X0294376Y0759447D01*
X0294327Y0759460D01*
X0294280Y0759478D01*
X0294234Y0759499D01*
X0294191Y0759523D01*
X0294149Y0759551D01*
X0294109Y0759582D01*
X0294072Y0759616D01*
X0294038Y0759653D01*
X0294007Y0759693D01*
X0293979Y0759735D01*
X0293955Y0759778D01*
X0293934Y0759824D01*
X0293916Y0759871D01*
X0293903Y0759920D01*
X0293893Y0759969D01*
X0293887Y0760019D01*
X0293885Y0760069D01*
X0282186Y0754230D02*
X0274186Y0754230D01*
X0274186Y0768230D01*
X0282186Y0768230D01*
X0282186Y0754230D01*
X0270332Y0748553D02*
X0251041Y0748553D01*
X0251041Y0763908D01*
X0270332Y0763908D01*
X0270332Y0748553D01*
X0253244Y0752097D02*
X0253246Y0752175D01*
X0253252Y0752252D01*
X0253262Y0752330D01*
X0253275Y0752406D01*
X0253293Y0752482D01*
X0253314Y0752557D01*
X0253340Y0752631D01*
X0253369Y0752703D01*
X0253401Y0752774D01*
X0253437Y0752843D01*
X0253477Y0752910D01*
X0253519Y0752975D01*
X0253566Y0753038D01*
X0253615Y0753098D01*
X0253667Y0753156D01*
X0253722Y0753211D01*
X0253780Y0753263D01*
X0253840Y0753312D01*
X0253903Y0753359D01*
X0253968Y0753401D01*
X0254035Y0753441D01*
X0254104Y0753477D01*
X0254175Y0753509D01*
X0254247Y0753538D01*
X0254321Y0753564D01*
X0254396Y0753585D01*
X0254472Y0753603D01*
X0254548Y0753616D01*
X0254626Y0753626D01*
X0254703Y0753632D01*
X0254781Y0753634D01*
X0254859Y0753632D01*
X0254936Y0753626D01*
X0255014Y0753616D01*
X0255090Y0753603D01*
X0255166Y0753585D01*
X0255241Y0753564D01*
X0255315Y0753538D01*
X0255387Y0753509D01*
X0255458Y0753477D01*
X0255527Y0753441D01*
X0255594Y0753401D01*
X0255659Y0753359D01*
X0255722Y0753312D01*
X0255782Y0753263D01*
X0255840Y0753211D01*
X0255895Y0753156D01*
X0255947Y0753098D01*
X0255996Y0753038D01*
X0256043Y0752975D01*
X0256085Y0752910D01*
X0256125Y0752843D01*
X0256161Y0752774D01*
X0256193Y0752703D01*
X0256222Y0752631D01*
X0256248Y0752557D01*
X0256269Y0752482D01*
X0256287Y0752406D01*
X0256300Y0752330D01*
X0256310Y0752252D01*
X0256316Y0752175D01*
X0256318Y0752097D01*
X0256316Y0752019D01*
X0256310Y0751942D01*
X0256300Y0751864D01*
X0256287Y0751788D01*
X0256269Y0751712D01*
X0256248Y0751637D01*
X0256222Y0751563D01*
X0256193Y0751491D01*
X0256161Y0751420D01*
X0256125Y0751351D01*
X0256085Y0751284D01*
X0256043Y0751219D01*
X0255996Y0751156D01*
X0255947Y0751096D01*
X0255895Y0751038D01*
X0255840Y0750983D01*
X0255782Y0750931D01*
X0255722Y0750882D01*
X0255659Y0750835D01*
X0255594Y0750793D01*
X0255527Y0750753D01*
X0255458Y0750717D01*
X0255387Y0750685D01*
X0255315Y0750656D01*
X0255241Y0750630D01*
X0255166Y0750609D01*
X0255090Y0750591D01*
X0255014Y0750578D01*
X0254936Y0750568D01*
X0254859Y0750562D01*
X0254781Y0750560D01*
X0254703Y0750562D01*
X0254626Y0750568D01*
X0254548Y0750578D01*
X0254472Y0750591D01*
X0254396Y0750609D01*
X0254321Y0750630D01*
X0254247Y0750656D01*
X0254175Y0750685D01*
X0254104Y0750717D01*
X0254035Y0750753D01*
X0253968Y0750793D01*
X0253903Y0750835D01*
X0253840Y0750882D01*
X0253780Y0750931D01*
X0253722Y0750983D01*
X0253667Y0751038D01*
X0253615Y0751096D01*
X0253566Y0751156D01*
X0253519Y0751219D01*
X0253477Y0751284D01*
X0253437Y0751351D01*
X0253401Y0751420D01*
X0253369Y0751491D01*
X0253340Y0751563D01*
X0253314Y0751637D01*
X0253293Y0751712D01*
X0253275Y0751788D01*
X0253262Y0751864D01*
X0253252Y0751942D01*
X0253246Y0752019D01*
X0253244Y0752097D01*
X0244860Y0759223D02*
X0244860Y0733238D01*
X0216513Y0733238D01*
X0216513Y0759223D01*
X0244860Y0759223D01*
X0246686Y0774230D02*
X0254686Y0774230D01*
X0254686Y0788230D01*
X0246686Y0788230D01*
X0246686Y0774230D01*
X0258686Y0777230D02*
X0258686Y0785230D01*
X0272686Y0785230D01*
X0272686Y0777230D01*
X0258686Y0777230D01*
X0265686Y0796230D02*
X0265686Y0816230D01*
X0295686Y0816230D01*
X0295686Y0796230D01*
X0265686Y0796230D01*
X0258147Y0807293D02*
X0253226Y0807293D01*
X0253226Y0815167D01*
X0258147Y0815167D01*
X0258147Y0807293D01*
X0259186Y0819730D02*
X0252186Y0819730D01*
X0252186Y0832730D01*
X0259186Y0832730D01*
X0259186Y0819730D01*
X0273686Y0822230D02*
X0273686Y0830230D01*
X0287686Y0830230D01*
X0287686Y0822230D01*
X0273686Y0822230D01*
X0272186Y0850230D02*
X0259186Y0850230D01*
X0259186Y0857230D01*
X0272186Y0857230D01*
X0272186Y0850230D01*
X0261592Y0867785D02*
X0249781Y0867785D01*
X0249781Y0874675D01*
X0261592Y0874675D01*
X0261592Y0867785D01*
X0251186Y0870230D02*
X0251188Y0870274D01*
X0251194Y0870318D01*
X0251204Y0870361D01*
X0251217Y0870403D01*
X0251234Y0870444D01*
X0251255Y0870483D01*
X0251279Y0870520D01*
X0251306Y0870555D01*
X0251336Y0870587D01*
X0251369Y0870617D01*
X0251405Y0870643D01*
X0251442Y0870667D01*
X0251482Y0870686D01*
X0251523Y0870703D01*
X0251566Y0870715D01*
X0251609Y0870724D01*
X0251653Y0870729D01*
X0251697Y0870730D01*
X0251741Y0870727D01*
X0251785Y0870720D01*
X0251828Y0870709D01*
X0251870Y0870695D01*
X0251910Y0870677D01*
X0251949Y0870655D01*
X0251985Y0870631D01*
X0252019Y0870603D01*
X0252051Y0870572D01*
X0252080Y0870538D01*
X0252106Y0870502D01*
X0252128Y0870464D01*
X0252147Y0870424D01*
X0252162Y0870382D01*
X0252174Y0870340D01*
X0252182Y0870296D01*
X0252186Y0870252D01*
X0252186Y0870208D01*
X0252182Y0870164D01*
X0252174Y0870120D01*
X0252162Y0870078D01*
X0252147Y0870036D01*
X0252128Y0869996D01*
X0252106Y0869958D01*
X0252080Y0869922D01*
X0252051Y0869888D01*
X0252019Y0869857D01*
X0251985Y0869829D01*
X0251949Y0869805D01*
X0251910Y0869783D01*
X0251870Y0869765D01*
X0251828Y0869751D01*
X0251785Y0869740D01*
X0251741Y0869733D01*
X0251697Y0869730D01*
X0251653Y0869731D01*
X0251609Y0869736D01*
X0251566Y0869745D01*
X0251523Y0869757D01*
X0251482Y0869774D01*
X0251442Y0869793D01*
X0251405Y0869817D01*
X0251369Y0869843D01*
X0251336Y0869873D01*
X0251306Y0869905D01*
X0251279Y0869940D01*
X0251255Y0869977D01*
X0251234Y0870016D01*
X0251217Y0870057D01*
X0251204Y0870099D01*
X0251194Y0870142D01*
X0251188Y0870186D01*
X0251186Y0870230D01*
X0244686Y0864230D02*
X0244686Y0878230D01*
X0236686Y0878230D01*
X0236686Y0864230D01*
X0244686Y0864230D01*
X0234686Y0864230D02*
X0234686Y0878230D01*
X0226686Y0878230D01*
X0226686Y0864230D01*
X0234686Y0864230D01*
X0235686Y0856230D02*
X0235686Y0806230D01*
X0215686Y0806230D01*
X0215686Y0856230D01*
X0235686Y0856230D01*
X0239686Y0852730D02*
X0239686Y0839730D01*
X0251686Y0839730D01*
X0251686Y0852730D01*
X0239686Y0852730D01*
X0240686Y0849230D02*
X0240686Y0843230D01*
X0250686Y0843230D01*
X0250686Y0849230D01*
X0240686Y0849230D01*
X0216789Y0865128D02*
X0204584Y0865128D01*
X0204584Y0877333D01*
X0216789Y0877333D01*
X0216789Y0865128D01*
X0212686Y0860230D02*
X0212686Y0852230D01*
X0198686Y0852230D01*
X0198686Y0860230D01*
X0212686Y0860230D01*
X0205332Y0838908D02*
X0205332Y0823553D01*
X0186041Y0823553D01*
X0186041Y0838908D01*
X0205332Y0838908D01*
X0189686Y0849230D02*
X0181686Y0849230D01*
X0181686Y0863230D01*
X0189686Y0863230D01*
X0189686Y0849230D01*
X0188244Y0827097D02*
X0188246Y0827175D01*
X0188252Y0827252D01*
X0188262Y0827330D01*
X0188275Y0827406D01*
X0188293Y0827482D01*
X0188314Y0827557D01*
X0188340Y0827631D01*
X0188369Y0827703D01*
X0188401Y0827774D01*
X0188437Y0827843D01*
X0188477Y0827910D01*
X0188519Y0827975D01*
X0188566Y0828038D01*
X0188615Y0828098D01*
X0188667Y0828156D01*
X0188722Y0828211D01*
X0188780Y0828263D01*
X0188840Y0828312D01*
X0188903Y0828359D01*
X0188968Y0828401D01*
X0189035Y0828441D01*
X0189104Y0828477D01*
X0189175Y0828509D01*
X0189247Y0828538D01*
X0189321Y0828564D01*
X0189396Y0828585D01*
X0189472Y0828603D01*
X0189548Y0828616D01*
X0189626Y0828626D01*
X0189703Y0828632D01*
X0189781Y0828634D01*
X0189859Y0828632D01*
X0189936Y0828626D01*
X0190014Y0828616D01*
X0190090Y0828603D01*
X0190166Y0828585D01*
X0190241Y0828564D01*
X0190315Y0828538D01*
X0190387Y0828509D01*
X0190458Y0828477D01*
X0190527Y0828441D01*
X0190594Y0828401D01*
X0190659Y0828359D01*
X0190722Y0828312D01*
X0190782Y0828263D01*
X0190840Y0828211D01*
X0190895Y0828156D01*
X0190947Y0828098D01*
X0190996Y0828038D01*
X0191043Y0827975D01*
X0191085Y0827910D01*
X0191125Y0827843D01*
X0191161Y0827774D01*
X0191193Y0827703D01*
X0191222Y0827631D01*
X0191248Y0827557D01*
X0191269Y0827482D01*
X0191287Y0827406D01*
X0191300Y0827330D01*
X0191310Y0827252D01*
X0191316Y0827175D01*
X0191318Y0827097D01*
X0191316Y0827019D01*
X0191310Y0826942D01*
X0191300Y0826864D01*
X0191287Y0826788D01*
X0191269Y0826712D01*
X0191248Y0826637D01*
X0191222Y0826563D01*
X0191193Y0826491D01*
X0191161Y0826420D01*
X0191125Y0826351D01*
X0191085Y0826284D01*
X0191043Y0826219D01*
X0190996Y0826156D01*
X0190947Y0826096D01*
X0190895Y0826038D01*
X0190840Y0825983D01*
X0190782Y0825931D01*
X0190722Y0825882D01*
X0190659Y0825835D01*
X0190594Y0825793D01*
X0190527Y0825753D01*
X0190458Y0825717D01*
X0190387Y0825685D01*
X0190315Y0825656D01*
X0190241Y0825630D01*
X0190166Y0825609D01*
X0190090Y0825591D01*
X0190014Y0825578D01*
X0189936Y0825568D01*
X0189859Y0825562D01*
X0189781Y0825560D01*
X0189703Y0825562D01*
X0189626Y0825568D01*
X0189548Y0825578D01*
X0189472Y0825591D01*
X0189396Y0825609D01*
X0189321Y0825630D01*
X0189247Y0825656D01*
X0189175Y0825685D01*
X0189104Y0825717D01*
X0189035Y0825753D01*
X0188968Y0825793D01*
X0188903Y0825835D01*
X0188840Y0825882D01*
X0188780Y0825931D01*
X0188722Y0825983D01*
X0188667Y0826038D01*
X0188615Y0826096D01*
X0188566Y0826156D01*
X0188519Y0826219D01*
X0188477Y0826284D01*
X0188437Y0826351D01*
X0188401Y0826420D01*
X0188369Y0826491D01*
X0188340Y0826563D01*
X0188314Y0826637D01*
X0188293Y0826712D01*
X0188275Y0826788D01*
X0188262Y0826864D01*
X0188252Y0826942D01*
X0188246Y0827019D01*
X0188244Y0827097D01*
X0169860Y0838238D02*
X0141513Y0838238D01*
X0141513Y0864223D01*
X0169860Y0864223D01*
X0169860Y0838238D01*
X0157686Y0835230D02*
X0157686Y0827230D01*
X0143686Y0827230D01*
X0143686Y0835230D01*
X0157686Y0835230D01*
X0141041Y0824419D02*
X0141041Y0798041D01*
X0110332Y0798041D01*
X0110332Y0824419D01*
X0141041Y0824419D01*
X0129686Y0834230D02*
X0129686Y0848230D01*
X0121686Y0848230D01*
X0121686Y0834230D01*
X0129686Y0834230D01*
X0116592Y0838356D02*
X0104781Y0838356D01*
X0104781Y0854104D01*
X0116592Y0854104D01*
X0116592Y0838356D01*
X0122186Y0849730D02*
X0122186Y0862730D01*
X0129186Y0862730D01*
X0129186Y0849730D01*
X0122186Y0849730D01*
X0119186Y0864730D02*
X0112186Y0864730D01*
X0112186Y0877730D01*
X0119186Y0877730D01*
X0119186Y0864730D01*
X0121686Y0865230D02*
X0121686Y0872230D01*
X0134686Y0872230D01*
X0134686Y0865230D01*
X0121686Y0865230D01*
X0109686Y0864230D02*
X0109686Y0878230D01*
X0101686Y0878230D01*
X0101686Y0864230D01*
X0109686Y0864230D01*
X0097686Y0862230D02*
X0097686Y0870230D01*
X0083686Y0870230D01*
X0083686Y0862230D01*
X0097686Y0862230D01*
X0097686Y0857730D02*
X0097686Y0849730D01*
X0083686Y0849730D01*
X0083686Y0857730D01*
X0097686Y0857730D01*
X0099686Y0848230D02*
X0091686Y0848230D01*
X0091686Y0834230D01*
X0099686Y0834230D01*
X0099686Y0848230D01*
X0079686Y0848230D02*
X0079686Y0834230D01*
X0071686Y0834230D01*
X0071686Y0848230D01*
X0079686Y0848230D01*
X0068639Y0860325D02*
X0062734Y0860325D01*
X0062734Y0872136D01*
X0068639Y0872136D01*
X0068639Y0860325D01*
X0072186Y0877730D02*
X0059186Y0877730D01*
X0059186Y0884730D01*
X0072186Y0884730D01*
X0072186Y0877730D01*
X0101946Y0925522D02*
X0109230Y0925522D01*
X0109230Y0936939D01*
X0101946Y0936939D01*
X0101946Y0925522D01*
X0121041Y0943553D02*
X0121041Y0958908D01*
X0140332Y0958908D01*
X0140332Y0943553D01*
X0121041Y0943553D01*
X0123244Y0947097D02*
X0123246Y0947175D01*
X0123252Y0947252D01*
X0123262Y0947330D01*
X0123275Y0947406D01*
X0123293Y0947482D01*
X0123314Y0947557D01*
X0123340Y0947631D01*
X0123369Y0947703D01*
X0123401Y0947774D01*
X0123437Y0947843D01*
X0123477Y0947910D01*
X0123519Y0947975D01*
X0123566Y0948038D01*
X0123615Y0948098D01*
X0123667Y0948156D01*
X0123722Y0948211D01*
X0123780Y0948263D01*
X0123840Y0948312D01*
X0123903Y0948359D01*
X0123968Y0948401D01*
X0124035Y0948441D01*
X0124104Y0948477D01*
X0124175Y0948509D01*
X0124247Y0948538D01*
X0124321Y0948564D01*
X0124396Y0948585D01*
X0124472Y0948603D01*
X0124548Y0948616D01*
X0124626Y0948626D01*
X0124703Y0948632D01*
X0124781Y0948634D01*
X0124859Y0948632D01*
X0124936Y0948626D01*
X0125014Y0948616D01*
X0125090Y0948603D01*
X0125166Y0948585D01*
X0125241Y0948564D01*
X0125315Y0948538D01*
X0125387Y0948509D01*
X0125458Y0948477D01*
X0125527Y0948441D01*
X0125594Y0948401D01*
X0125659Y0948359D01*
X0125722Y0948312D01*
X0125782Y0948263D01*
X0125840Y0948211D01*
X0125895Y0948156D01*
X0125947Y0948098D01*
X0125996Y0948038D01*
X0126043Y0947975D01*
X0126085Y0947910D01*
X0126125Y0947843D01*
X0126161Y0947774D01*
X0126193Y0947703D01*
X0126222Y0947631D01*
X0126248Y0947557D01*
X0126269Y0947482D01*
X0126287Y0947406D01*
X0126300Y0947330D01*
X0126310Y0947252D01*
X0126316Y0947175D01*
X0126318Y0947097D01*
X0126316Y0947019D01*
X0126310Y0946942D01*
X0126300Y0946864D01*
X0126287Y0946788D01*
X0126269Y0946712D01*
X0126248Y0946637D01*
X0126222Y0946563D01*
X0126193Y0946491D01*
X0126161Y0946420D01*
X0126125Y0946351D01*
X0126085Y0946284D01*
X0126043Y0946219D01*
X0125996Y0946156D01*
X0125947Y0946096D01*
X0125895Y0946038D01*
X0125840Y0945983D01*
X0125782Y0945931D01*
X0125722Y0945882D01*
X0125659Y0945835D01*
X0125594Y0945793D01*
X0125527Y0945753D01*
X0125458Y0945717D01*
X0125387Y0945685D01*
X0125315Y0945656D01*
X0125241Y0945630D01*
X0125166Y0945609D01*
X0125090Y0945591D01*
X0125014Y0945578D01*
X0124936Y0945568D01*
X0124859Y0945562D01*
X0124781Y0945560D01*
X0124703Y0945562D01*
X0124626Y0945568D01*
X0124548Y0945578D01*
X0124472Y0945591D01*
X0124396Y0945609D01*
X0124321Y0945630D01*
X0124247Y0945656D01*
X0124175Y0945685D01*
X0124104Y0945717D01*
X0124035Y0945753D01*
X0123968Y0945793D01*
X0123903Y0945835D01*
X0123840Y0945882D01*
X0123780Y0945931D01*
X0123722Y0945983D01*
X0123667Y0946038D01*
X0123615Y0946096D01*
X0123566Y0946156D01*
X0123519Y0946219D01*
X0123477Y0946284D01*
X0123437Y0946351D01*
X0123401Y0946420D01*
X0123369Y0946491D01*
X0123340Y0946563D01*
X0123314Y0946637D01*
X0123293Y0946712D01*
X0123275Y0946788D01*
X0123262Y0946864D01*
X0123252Y0946942D01*
X0123246Y0947019D01*
X0123244Y0947097D01*
X0119686Y0959230D02*
X0111686Y0959230D01*
X0111686Y0973230D01*
X0119686Y0973230D01*
X0119686Y0959230D01*
X0133686Y0967230D02*
X0133686Y0975230D01*
X0147686Y0975230D01*
X0147686Y0967230D01*
X0133686Y0967230D01*
X0131789Y0980128D02*
X0119584Y0980128D01*
X0119584Y0992333D01*
X0131789Y0992333D01*
X0131789Y0980128D01*
X0121208Y0982392D02*
X0121210Y0982442D01*
X0121216Y0982492D01*
X0121226Y0982541D01*
X0121239Y0982590D01*
X0121257Y0982637D01*
X0121278Y0982683D01*
X0121302Y0982726D01*
X0121330Y0982768D01*
X0121361Y0982808D01*
X0121395Y0982845D01*
X0121432Y0982879D01*
X0121472Y0982910D01*
X0121514Y0982938D01*
X0121557Y0982962D01*
X0121603Y0982983D01*
X0121650Y0983001D01*
X0121699Y0983014D01*
X0121748Y0983024D01*
X0121798Y0983030D01*
X0121848Y0983032D01*
X0121898Y0983030D01*
X0121948Y0983024D01*
X0121997Y0983014D01*
X0122046Y0983001D01*
X0122093Y0982983D01*
X0122139Y0982962D01*
X0122182Y0982938D01*
X0122224Y0982910D01*
X0122264Y0982879D01*
X0122301Y0982845D01*
X0122335Y0982808D01*
X0122366Y0982768D01*
X0122394Y0982726D01*
X0122418Y0982683D01*
X0122439Y0982637D01*
X0122457Y0982590D01*
X0122470Y0982541D01*
X0122480Y0982492D01*
X0122486Y0982442D01*
X0122488Y0982392D01*
X0122486Y0982342D01*
X0122480Y0982292D01*
X0122470Y0982243D01*
X0122457Y0982194D01*
X0122439Y0982147D01*
X0122418Y0982101D01*
X0122394Y0982058D01*
X0122366Y0982016D01*
X0122335Y0981976D01*
X0122301Y0981939D01*
X0122264Y0981905D01*
X0122224Y0981874D01*
X0122182Y0981846D01*
X0122139Y0981822D01*
X0122093Y0981801D01*
X0122046Y0981783D01*
X0121997Y0981770D01*
X0121948Y0981760D01*
X0121898Y0981754D01*
X0121848Y0981752D01*
X0121798Y0981754D01*
X0121748Y0981760D01*
X0121699Y0981770D01*
X0121650Y0981783D01*
X0121603Y0981801D01*
X0121557Y0981822D01*
X0121514Y0981846D01*
X0121472Y0981874D01*
X0121432Y0981905D01*
X0121395Y0981939D01*
X0121361Y0981976D01*
X0121330Y0982016D01*
X0121302Y0982058D01*
X0121278Y0982101D01*
X0121257Y0982147D01*
X0121239Y0982194D01*
X0121226Y0982243D01*
X0121216Y0982292D01*
X0121210Y0982342D01*
X0121208Y0982392D01*
X0131686Y0994230D02*
X0139686Y0994230D01*
X0139686Y1008230D01*
X0131686Y1008230D01*
X0131686Y0994230D01*
X0159781Y0979675D02*
X0159781Y0972785D01*
X0171592Y0972785D01*
X0171592Y0979675D01*
X0159781Y0979675D01*
X0161186Y0975230D02*
X0161188Y0975274D01*
X0161194Y0975318D01*
X0161204Y0975361D01*
X0161217Y0975403D01*
X0161234Y0975444D01*
X0161255Y0975483D01*
X0161279Y0975520D01*
X0161306Y0975555D01*
X0161336Y0975587D01*
X0161369Y0975617D01*
X0161405Y0975643D01*
X0161442Y0975667D01*
X0161482Y0975686D01*
X0161523Y0975703D01*
X0161566Y0975715D01*
X0161609Y0975724D01*
X0161653Y0975729D01*
X0161697Y0975730D01*
X0161741Y0975727D01*
X0161785Y0975720D01*
X0161828Y0975709D01*
X0161870Y0975695D01*
X0161910Y0975677D01*
X0161949Y0975655D01*
X0161985Y0975631D01*
X0162019Y0975603D01*
X0162051Y0975572D01*
X0162080Y0975538D01*
X0162106Y0975502D01*
X0162128Y0975464D01*
X0162147Y0975424D01*
X0162162Y0975382D01*
X0162174Y0975340D01*
X0162182Y0975296D01*
X0162186Y0975252D01*
X0162186Y0975208D01*
X0162182Y0975164D01*
X0162174Y0975120D01*
X0162162Y0975078D01*
X0162147Y0975036D01*
X0162128Y0974996D01*
X0162106Y0974958D01*
X0162080Y0974922D01*
X0162051Y0974888D01*
X0162019Y0974857D01*
X0161985Y0974829D01*
X0161949Y0974805D01*
X0161910Y0974783D01*
X0161870Y0974765D01*
X0161828Y0974751D01*
X0161785Y0974740D01*
X0161741Y0974733D01*
X0161697Y0974730D01*
X0161653Y0974731D01*
X0161609Y0974736D01*
X0161566Y0974745D01*
X0161523Y0974757D01*
X0161482Y0974774D01*
X0161442Y0974793D01*
X0161405Y0974817D01*
X0161369Y0974843D01*
X0161336Y0974873D01*
X0161306Y0974905D01*
X0161279Y0974940D01*
X0161255Y0974977D01*
X0161234Y0975016D01*
X0161217Y0975057D01*
X0161204Y0975099D01*
X0161194Y0975142D01*
X0161188Y0975186D01*
X0161186Y0975230D01*
X0159686Y0965230D02*
X0166686Y0965230D01*
X0166686Y0952230D01*
X0159686Y0952230D01*
X0159686Y0965230D01*
X0145686Y0947230D02*
X0145686Y0915230D01*
X0305686Y0915230D01*
X0305686Y0947230D01*
X0145686Y0947230D01*
X0176686Y0969230D02*
X0176686Y0983230D01*
X0184686Y0983230D01*
X0184686Y0969230D01*
X0176686Y0969230D01*
X0257186Y0972730D02*
X0257186Y0959730D01*
X0264186Y0959730D01*
X0264186Y0972730D01*
X0257186Y0972730D01*
X0258226Y0982293D02*
X0263147Y0982293D01*
X0263147Y0990167D01*
X0258226Y0990167D01*
X0258226Y0982293D01*
X0291946Y0906939D02*
X0299230Y0906939D01*
X0299230Y0895522D01*
X0291946Y0895522D01*
X0291946Y0906939D01*
X0206208Y0875069D02*
X0206210Y0875119D01*
X0206216Y0875169D01*
X0206226Y0875218D01*
X0206239Y0875267D01*
X0206257Y0875314D01*
X0206278Y0875360D01*
X0206302Y0875403D01*
X0206330Y0875445D01*
X0206361Y0875485D01*
X0206395Y0875522D01*
X0206432Y0875556D01*
X0206472Y0875587D01*
X0206514Y0875615D01*
X0206557Y0875639D01*
X0206603Y0875660D01*
X0206650Y0875678D01*
X0206699Y0875691D01*
X0206748Y0875701D01*
X0206798Y0875707D01*
X0206848Y0875709D01*
X0206898Y0875707D01*
X0206948Y0875701D01*
X0206997Y0875691D01*
X0207046Y0875678D01*
X0207093Y0875660D01*
X0207139Y0875639D01*
X0207182Y0875615D01*
X0207224Y0875587D01*
X0207264Y0875556D01*
X0207301Y0875522D01*
X0207335Y0875485D01*
X0207366Y0875445D01*
X0207394Y0875403D01*
X0207418Y0875360D01*
X0207439Y0875314D01*
X0207457Y0875267D01*
X0207470Y0875218D01*
X0207480Y0875169D01*
X0207486Y0875119D01*
X0207488Y0875069D01*
X0207486Y0875019D01*
X0207480Y0874969D01*
X0207470Y0874920D01*
X0207457Y0874871D01*
X0207439Y0874824D01*
X0207418Y0874778D01*
X0207394Y0874735D01*
X0207366Y0874693D01*
X0207335Y0874653D01*
X0207301Y0874616D01*
X0207264Y0874582D01*
X0207224Y0874551D01*
X0207182Y0874523D01*
X0207139Y0874499D01*
X0207093Y0874478D01*
X0207046Y0874460D01*
X0206997Y0874447D01*
X0206948Y0874437D01*
X0206898Y0874431D01*
X0206848Y0874429D01*
X0206798Y0874431D01*
X0206748Y0874437D01*
X0206699Y0874447D01*
X0206650Y0874460D01*
X0206603Y0874478D01*
X0206557Y0874499D01*
X0206514Y0874523D01*
X0206472Y0874551D01*
X0206432Y0874582D01*
X0206395Y0874616D01*
X0206361Y0874653D01*
X0206330Y0874693D01*
X0206302Y0874735D01*
X0206278Y0874778D01*
X0206257Y0874824D01*
X0206239Y0874871D01*
X0206226Y0874920D01*
X0206216Y0874969D01*
X0206210Y0875019D01*
X0206208Y0875069D01*
X0194186Y0772730D02*
X0194186Y0759730D01*
X0187186Y0759730D01*
X0187186Y0772730D01*
X0194186Y0772730D01*
X0196686Y0767230D02*
X0196686Y0760230D01*
X0209686Y0760230D01*
X0209686Y0767230D01*
X0196686Y0767230D01*
X0197186Y0757730D02*
X0204186Y0757730D01*
X0204186Y0744730D01*
X0197186Y0744730D01*
X0197186Y0757730D01*
X0191592Y0749104D02*
X0191592Y0733356D01*
X0179781Y0733356D01*
X0179781Y0749104D01*
X0191592Y0749104D01*
X0196686Y0743230D02*
X0204686Y0743230D01*
X0204686Y0729230D01*
X0196686Y0729230D01*
X0196686Y0743230D01*
X0184686Y0759230D02*
X0176686Y0759230D01*
X0176686Y0773230D01*
X0184686Y0773230D01*
X0184686Y0759230D01*
X0174686Y0743230D02*
X0166686Y0743230D01*
X0166686Y0729230D01*
X0174686Y0729230D01*
X0174686Y0743230D01*
X0172686Y0747230D02*
X0172686Y0755230D01*
X0158686Y0755230D01*
X0158686Y0747230D01*
X0172686Y0747230D01*
X0172686Y0757230D02*
X0158686Y0757230D01*
X0158686Y0765230D01*
X0172686Y0765230D01*
X0172686Y0757230D01*
X0154686Y0743230D02*
X0146686Y0743230D01*
X0146686Y0729230D01*
X0154686Y0729230D01*
X0154686Y0743230D01*
X0123344Y0746801D02*
X0118029Y0746801D01*
X0118029Y0755660D01*
X0123344Y0755660D01*
X0123344Y0746801D01*
X0114686Y0743230D02*
X0106686Y0743230D01*
X0106686Y0729230D01*
X0114686Y0729230D01*
X0114686Y0743230D01*
X0109686Y0747730D02*
X0096686Y0747730D01*
X0096686Y0754730D01*
X0109686Y0754730D01*
X0109686Y0747730D01*
X0109686Y0757730D02*
X0096686Y0757730D01*
X0096686Y0764730D01*
X0109686Y0764730D01*
X0109686Y0757730D01*
X0099186Y0774730D02*
X0092186Y0774730D01*
X0092186Y0787730D01*
X0099186Y0787730D01*
X0099186Y0774730D01*
X0086592Y0778278D02*
X0086592Y0784183D01*
X0074781Y0784183D01*
X0074781Y0778278D01*
X0086592Y0778278D01*
X0072186Y0782730D02*
X0059186Y0782730D01*
X0059186Y0789730D01*
X0072186Y0789730D01*
X0072186Y0782730D01*
X0057686Y0783230D02*
X0043686Y0783230D01*
X0043686Y0789230D01*
X0057686Y0789230D01*
X0057686Y0783230D01*
X0059186Y0812730D02*
X0059186Y0819730D01*
X0072186Y0819730D01*
X0072186Y0812730D01*
X0059186Y0812730D01*
X0057686Y0813230D02*
X0043686Y0813230D01*
X0043686Y0819230D01*
X0057686Y0819230D01*
X0057686Y0813230D01*
X0060686Y0751230D02*
X0080686Y0751230D01*
X0080686Y0721230D01*
X0060686Y0721230D01*
X0060686Y0751230D01*
X0086946Y0741939D02*
X0086946Y0730522D01*
X0094230Y0730522D01*
X0094230Y0741939D01*
X0086946Y0741939D01*
X0185332Y0724419D02*
X0185332Y0698041D01*
X0216041Y0698041D01*
X0216041Y0724419D01*
X0185332Y0724419D01*
X0218686Y0722230D02*
X0218686Y0730230D01*
X0232686Y0730230D01*
X0232686Y0722230D01*
X0218686Y0722230D01*
X0417186Y0864730D02*
X0424186Y0864730D01*
X0424186Y0877730D01*
X0417186Y0877730D01*
X0417186Y0864730D01*
X0427186Y0874730D02*
X0427186Y0887730D01*
X0434186Y0887730D01*
X0434186Y0874730D01*
X0427186Y0874730D01*
X0441686Y0874230D02*
X0449686Y0874230D01*
X0449686Y0888230D01*
X0441686Y0888230D01*
X0441686Y0874230D01*
X0451686Y0874230D02*
X0459686Y0874230D01*
X0459686Y0888230D01*
X0451686Y0888230D01*
X0451686Y0874230D01*
X0461686Y0874230D02*
X0469686Y0874230D01*
X0469686Y0888230D01*
X0461686Y0888230D01*
X0461686Y0874230D01*
X0463686Y0860230D02*
X0477686Y0860230D01*
X0477686Y0852230D01*
X0463686Y0852230D01*
X0463686Y0860230D01*
X0463686Y0850230D02*
X0477686Y0850230D01*
X0477686Y0842230D01*
X0463686Y0842230D01*
X0463686Y0850230D01*
X0641686Y0969230D02*
X0649686Y0969230D01*
X0649686Y0983230D01*
X0641686Y0983230D01*
X0641686Y0969230D01*
X0662025Y0967136D02*
X0662025Y1005325D01*
X0679348Y1005325D01*
X0679348Y0967136D01*
X0662025Y0967136D01*
X0676106Y0969892D02*
X0676108Y0969951D01*
X0676114Y0970009D01*
X0676124Y0970067D01*
X0676137Y0970124D01*
X0676155Y0970181D01*
X0676176Y0970236D01*
X0676201Y0970289D01*
X0676229Y0970340D01*
X0676260Y0970390D01*
X0676295Y0970437D01*
X0676333Y0970482D01*
X0676374Y0970525D01*
X0676418Y0970564D01*
X0676464Y0970600D01*
X0676512Y0970634D01*
X0676563Y0970664D01*
X0676616Y0970690D01*
X0676670Y0970713D01*
X0676725Y0970732D01*
X0676782Y0970748D01*
X0676840Y0970760D01*
X0676898Y0970768D01*
X0676957Y0970772D01*
X0677015Y0970772D01*
X0677074Y0970768D01*
X0677132Y0970760D01*
X0677190Y0970748D01*
X0677247Y0970732D01*
X0677302Y0970713D01*
X0677356Y0970690D01*
X0677409Y0970664D01*
X0677460Y0970634D01*
X0677508Y0970600D01*
X0677554Y0970564D01*
X0677598Y0970525D01*
X0677639Y0970482D01*
X0677677Y0970437D01*
X0677712Y0970390D01*
X0677743Y0970340D01*
X0677771Y0970289D01*
X0677796Y0970236D01*
X0677817Y0970181D01*
X0677835Y0970124D01*
X0677848Y0970067D01*
X0677858Y0970009D01*
X0677864Y0969951D01*
X0677866Y0969892D01*
X0677864Y0969833D01*
X0677858Y0969775D01*
X0677848Y0969717D01*
X0677835Y0969660D01*
X0677817Y0969603D01*
X0677796Y0969548D01*
X0677771Y0969495D01*
X0677743Y0969444D01*
X0677712Y0969394D01*
X0677677Y0969347D01*
X0677639Y0969302D01*
X0677598Y0969259D01*
X0677554Y0969220D01*
X0677508Y0969184D01*
X0677460Y0969150D01*
X0677409Y0969120D01*
X0677356Y0969094D01*
X0677302Y0969071D01*
X0677247Y0969052D01*
X0677190Y0969036D01*
X0677132Y0969024D01*
X0677074Y0969016D01*
X0677015Y0969012D01*
X0676957Y0969012D01*
X0676898Y0969016D01*
X0676840Y0969024D01*
X0676782Y0969036D01*
X0676725Y0969052D01*
X0676670Y0969071D01*
X0676616Y0969094D01*
X0676563Y0969120D01*
X0676512Y0969150D01*
X0676464Y0969184D01*
X0676418Y0969220D01*
X0676374Y0969259D01*
X0676333Y0969302D01*
X0676295Y0969347D01*
X0676260Y0969394D01*
X0676229Y0969444D01*
X0676201Y0969495D01*
X0676176Y0969548D01*
X0676155Y0969603D01*
X0676137Y0969660D01*
X0676124Y0969717D01*
X0676114Y0969775D01*
X0676108Y0969833D01*
X0676106Y0969892D01*
X0519186Y1054730D02*
X0512186Y1054730D01*
X0512186Y1067730D01*
X0519186Y1067730D01*
X0519186Y1054730D01*
X0357686Y1122230D02*
X0357686Y1130230D01*
X0343686Y1130230D01*
X0343686Y1122230D01*
X0357686Y1122230D01*
X0356395Y1132687D02*
X0344978Y1132687D01*
X0344978Y1139971D01*
X0356395Y1139971D01*
X0356395Y1132687D01*
X0365686Y1146230D02*
X0335686Y1146230D01*
X0335686Y1166230D01*
X0365686Y1166230D01*
X0365686Y1146230D01*
X0305686Y1146230D02*
X0275686Y1146230D01*
X0275686Y1166230D01*
X0305686Y1166230D01*
X0305686Y1146230D01*
X0296395Y1139971D02*
X0296395Y1132687D01*
X0284978Y1132687D01*
X0284978Y1139971D01*
X0296395Y1139971D01*
X0297686Y1130230D02*
X0283686Y1130230D01*
X0283686Y1122230D01*
X0297686Y1122230D01*
X0297686Y1130230D01*
X0250686Y1146230D02*
X0220686Y1146230D01*
X0220686Y1166230D01*
X0250686Y1166230D01*
X0250686Y1146230D01*
X0241395Y1139971D02*
X0241395Y1132687D01*
X0229978Y1132687D01*
X0229978Y1139971D01*
X0241395Y1139971D01*
X0242686Y1130230D02*
X0228686Y1130230D01*
X0228686Y1122230D01*
X0242686Y1122230D01*
X0242686Y1130230D01*
D16*
X0050096Y0818593D03*
X0050096Y0813868D03*
X0050096Y0788593D03*
X0050096Y0783868D03*
D17*
X0050096Y0786230D03*
X0050096Y0816230D03*
D18*
X0052986Y0889730D02*
X0098386Y0889730D01*
X0098386Y0972730D01*
X0052986Y0972730D01*
X0052986Y0889730D01*
X0505061Y0826855D02*
X0516311Y0826855D01*
X0516311Y0815605D01*
X0505061Y0815605D01*
X0505061Y0826855D01*
D19*
X0140686Y0748730D02*
X0140686Y0743730D01*
X0138186Y0741230D01*
X0140686Y0738730D01*
X0140686Y0733730D01*
X0138186Y0731230D01*
X0133186Y0731230D01*
X0130686Y0733730D01*
X0130686Y0738730D01*
X0133186Y0741230D01*
X0130686Y0743730D01*
X0130686Y0748730D01*
X0133186Y0751230D01*
X0138186Y0751230D01*
X0140686Y0748730D01*
X0138186Y0741230D02*
X0133186Y0741230D01*
D20*
X0677084Y0858553D03*
M02*
