G75*
%MOIN*%
%OFA0B0*%
%FSLAX25Y25*%
%IPPOS*%
%LPD*%
%AMOC8*
5,1,8,0,0,1.08239X$1,22.5*
%
%ADD10C,0.00000*%
%ADD11C,0.06000*%
%ADD12R,0.04331X0.01772*%
%ADD13C,0.01200*%
D10*
X0001000Y0001000D02*
X0001000Y0049701D01*
X0050921Y0049701D01*
X0050921Y0001000D01*
X0001000Y0001000D01*
D11*
X0011000Y0011000D03*
X0011000Y0021000D03*
X0011000Y0031000D03*
X0011000Y0041000D03*
X0041000Y0041000D03*
X0041000Y0031000D03*
X0041000Y0021000D03*
X0041000Y0011000D03*
D12*
X0031118Y0022161D03*
X0031118Y0024720D03*
X0031118Y0027280D03*
X0031118Y0029839D03*
X0020882Y0029839D03*
X0020882Y0027280D03*
X0020882Y0024720D03*
X0020882Y0022161D03*
D13*
X0018679Y0022161D01*
X0016759Y0020241D01*
X0016759Y0016759D01*
X0011000Y0011000D01*
X0011000Y0021000D02*
X0014689Y0021000D01*
X0018137Y0024447D01*
X0020609Y0024447D01*
X0020882Y0024720D01*
X0020882Y0027280D02*
X0020609Y0027553D01*
X0018137Y0027553D01*
X0014689Y0031000D01*
X0011000Y0031000D01*
X0016759Y0031759D02*
X0016759Y0035241D01*
X0011000Y0041000D01*
X0016759Y0031759D02*
X0018679Y0029839D01*
X0020882Y0029839D01*
X0031118Y0029839D02*
X0034839Y0029839D01*
X0036000Y0031000D01*
X0036000Y0036000D01*
X0041000Y0041000D01*
X0041000Y0031000D02*
X0037280Y0027280D01*
X0031118Y0027280D01*
X0031118Y0024720D02*
X0037280Y0024720D01*
X0041000Y0021000D01*
X0036000Y0021000D02*
X0036000Y0016000D01*
X0041000Y0011000D01*
X0036000Y0021000D02*
X0034839Y0022161D01*
X0031118Y0022161D01*
M02*
