G75*
%MOIN*%
%OFA0B0*%
%FSLAX25Y25*%
%IPPOS*%
%LPD*%
%AMOC8*
5,1,8,0,0,1.08239X$1,22.5*
%
%ADD10C,0.00000*%
%ADD11OC8,0.07124*%
%ADD12C,0.24669*%
%ADD13R,0.05906X0.05118*%
%ADD14R,0.05118X0.05906*%
%ADD15OC8,0.06300*%
%ADD16C,0.06300*%
%ADD17R,0.05512X0.05512*%
%ADD18R,0.04724X0.04724*%
%ADD19R,0.06300X0.01400*%
%ADD20R,0.00984X0.01575*%
%ADD21R,0.02756X0.01575*%
%ADD22R,0.05118X0.05512*%
%ADD23R,0.05512X0.05118*%
%ADD24R,0.25197X0.22835*%
%ADD25R,0.08661X0.04724*%
%ADD26R,0.16700X0.15000*%
%ADD27R,0.15000X0.16700*%
%ADD28R,0.07124X0.07124*%
%ADD29R,0.22835X0.25197*%
%ADD30R,0.04724X0.08661*%
%ADD31C,0.03778*%
%ADD32R,0.01181X0.02362*%
%ADD33R,0.07874X0.05906*%
%ADD34R,0.07874X0.14961*%
%ADD35R,0.01575X0.00984*%
%ADD36R,0.01575X0.02756*%
%ADD37R,0.06337X0.06337*%
%ADD38OC8,0.06337*%
%ADD39C,0.03200*%
%ADD40C,0.01000*%
%ADD41C,0.05000*%
%ADD42C,0.04362*%
%ADD43C,0.04000*%
%ADD44C,0.02700*%
%ADD45C,0.04000*%
%ADD46C,0.15000*%
%ADD47C,0.07000*%
%ADD48C,0.01200*%
%ADD49C,0.10000*%
%ADD50C,0.02400*%
%ADD51C,0.07677*%
%ADD52C,0.01600*%
D10*
X0001000Y0001000D02*
X0001000Y0304701D01*
X0335921Y0304701D01*
X0335921Y0001000D01*
X0001000Y0001000D01*
X0034700Y0077400D02*
X0034702Y0077553D01*
X0034708Y0077706D01*
X0034718Y0077859D01*
X0034732Y0078012D01*
X0034750Y0078164D01*
X0034771Y0078315D01*
X0034797Y0078466D01*
X0034827Y0078617D01*
X0034860Y0078766D01*
X0034898Y0078915D01*
X0034939Y0079062D01*
X0034984Y0079209D01*
X0035033Y0079354D01*
X0035085Y0079498D01*
X0035142Y0079640D01*
X0035202Y0079781D01*
X0035265Y0079920D01*
X0035333Y0080058D01*
X0035403Y0080194D01*
X0035478Y0080328D01*
X0035555Y0080460D01*
X0035637Y0080590D01*
X0035721Y0080718D01*
X0035809Y0080843D01*
X0035900Y0080966D01*
X0035994Y0081087D01*
X0036091Y0081205D01*
X0036192Y0081321D01*
X0036295Y0081434D01*
X0036401Y0081545D01*
X0036510Y0081652D01*
X0036622Y0081757D01*
X0036736Y0081859D01*
X0036853Y0081958D01*
X0036973Y0082053D01*
X0037095Y0082146D01*
X0037219Y0082235D01*
X0037346Y0082322D01*
X0037475Y0082404D01*
X0037606Y0082484D01*
X0037739Y0082560D01*
X0037874Y0082632D01*
X0038011Y0082701D01*
X0038149Y0082767D01*
X0038289Y0082829D01*
X0038431Y0082887D01*
X0038574Y0082941D01*
X0038719Y0082992D01*
X0038864Y0083039D01*
X0039011Y0083082D01*
X0039159Y0083121D01*
X0039308Y0083157D01*
X0039458Y0083188D01*
X0039609Y0083216D01*
X0039760Y0083240D01*
X0039912Y0083260D01*
X0040065Y0083276D01*
X0040217Y0083288D01*
X0040370Y0083296D01*
X0040523Y0083300D01*
X0040677Y0083300D01*
X0040830Y0083296D01*
X0040983Y0083288D01*
X0041135Y0083276D01*
X0041288Y0083260D01*
X0041440Y0083240D01*
X0041591Y0083216D01*
X0041742Y0083188D01*
X0041892Y0083157D01*
X0042041Y0083121D01*
X0042189Y0083082D01*
X0042336Y0083039D01*
X0042481Y0082992D01*
X0042626Y0082941D01*
X0042769Y0082887D01*
X0042911Y0082829D01*
X0043051Y0082767D01*
X0043189Y0082701D01*
X0043326Y0082632D01*
X0043461Y0082560D01*
X0043594Y0082484D01*
X0043725Y0082404D01*
X0043854Y0082322D01*
X0043981Y0082235D01*
X0044105Y0082146D01*
X0044227Y0082053D01*
X0044347Y0081958D01*
X0044464Y0081859D01*
X0044578Y0081757D01*
X0044690Y0081652D01*
X0044799Y0081545D01*
X0044905Y0081434D01*
X0045008Y0081321D01*
X0045109Y0081205D01*
X0045206Y0081087D01*
X0045300Y0080966D01*
X0045391Y0080843D01*
X0045479Y0080718D01*
X0045563Y0080590D01*
X0045645Y0080460D01*
X0045722Y0080328D01*
X0045797Y0080194D01*
X0045867Y0080058D01*
X0045935Y0079920D01*
X0045998Y0079781D01*
X0046058Y0079640D01*
X0046115Y0079498D01*
X0046167Y0079354D01*
X0046216Y0079209D01*
X0046261Y0079062D01*
X0046302Y0078915D01*
X0046340Y0078766D01*
X0046373Y0078617D01*
X0046403Y0078466D01*
X0046429Y0078315D01*
X0046450Y0078164D01*
X0046468Y0078012D01*
X0046482Y0077859D01*
X0046492Y0077706D01*
X0046498Y0077553D01*
X0046500Y0077400D01*
X0046498Y0077247D01*
X0046492Y0077094D01*
X0046482Y0076941D01*
X0046468Y0076788D01*
X0046450Y0076636D01*
X0046429Y0076485D01*
X0046403Y0076334D01*
X0046373Y0076183D01*
X0046340Y0076034D01*
X0046302Y0075885D01*
X0046261Y0075738D01*
X0046216Y0075591D01*
X0046167Y0075446D01*
X0046115Y0075302D01*
X0046058Y0075160D01*
X0045998Y0075019D01*
X0045935Y0074880D01*
X0045867Y0074742D01*
X0045797Y0074606D01*
X0045722Y0074472D01*
X0045645Y0074340D01*
X0045563Y0074210D01*
X0045479Y0074082D01*
X0045391Y0073957D01*
X0045300Y0073834D01*
X0045206Y0073713D01*
X0045109Y0073595D01*
X0045008Y0073479D01*
X0044905Y0073366D01*
X0044799Y0073255D01*
X0044690Y0073148D01*
X0044578Y0073043D01*
X0044464Y0072941D01*
X0044347Y0072842D01*
X0044227Y0072747D01*
X0044105Y0072654D01*
X0043981Y0072565D01*
X0043854Y0072478D01*
X0043725Y0072396D01*
X0043594Y0072316D01*
X0043461Y0072240D01*
X0043326Y0072168D01*
X0043189Y0072099D01*
X0043051Y0072033D01*
X0042911Y0071971D01*
X0042769Y0071913D01*
X0042626Y0071859D01*
X0042481Y0071808D01*
X0042336Y0071761D01*
X0042189Y0071718D01*
X0042041Y0071679D01*
X0041892Y0071643D01*
X0041742Y0071612D01*
X0041591Y0071584D01*
X0041440Y0071560D01*
X0041288Y0071540D01*
X0041135Y0071524D01*
X0040983Y0071512D01*
X0040830Y0071504D01*
X0040677Y0071500D01*
X0040523Y0071500D01*
X0040370Y0071504D01*
X0040217Y0071512D01*
X0040065Y0071524D01*
X0039912Y0071540D01*
X0039760Y0071560D01*
X0039609Y0071584D01*
X0039458Y0071612D01*
X0039308Y0071643D01*
X0039159Y0071679D01*
X0039011Y0071718D01*
X0038864Y0071761D01*
X0038719Y0071808D01*
X0038574Y0071859D01*
X0038431Y0071913D01*
X0038289Y0071971D01*
X0038149Y0072033D01*
X0038011Y0072099D01*
X0037874Y0072168D01*
X0037739Y0072240D01*
X0037606Y0072316D01*
X0037475Y0072396D01*
X0037346Y0072478D01*
X0037219Y0072565D01*
X0037095Y0072654D01*
X0036973Y0072747D01*
X0036853Y0072842D01*
X0036736Y0072941D01*
X0036622Y0073043D01*
X0036510Y0073148D01*
X0036401Y0073255D01*
X0036295Y0073366D01*
X0036192Y0073479D01*
X0036091Y0073595D01*
X0035994Y0073713D01*
X0035900Y0073834D01*
X0035809Y0073957D01*
X0035721Y0074082D01*
X0035637Y0074210D01*
X0035555Y0074340D01*
X0035478Y0074472D01*
X0035403Y0074606D01*
X0035333Y0074742D01*
X0035265Y0074880D01*
X0035202Y0075019D01*
X0035142Y0075160D01*
X0035085Y0075302D01*
X0035033Y0075446D01*
X0034984Y0075591D01*
X0034939Y0075738D01*
X0034898Y0075885D01*
X0034860Y0076034D01*
X0034827Y0076183D01*
X0034797Y0076334D01*
X0034771Y0076485D01*
X0034750Y0076636D01*
X0034732Y0076788D01*
X0034718Y0076941D01*
X0034708Y0077094D01*
X0034702Y0077247D01*
X0034700Y0077400D01*
X0034700Y0144600D02*
X0034702Y0144753D01*
X0034708Y0144906D01*
X0034718Y0145059D01*
X0034732Y0145212D01*
X0034750Y0145364D01*
X0034771Y0145515D01*
X0034797Y0145666D01*
X0034827Y0145817D01*
X0034860Y0145966D01*
X0034898Y0146115D01*
X0034939Y0146262D01*
X0034984Y0146409D01*
X0035033Y0146554D01*
X0035085Y0146698D01*
X0035142Y0146840D01*
X0035202Y0146981D01*
X0035265Y0147120D01*
X0035333Y0147258D01*
X0035403Y0147394D01*
X0035478Y0147528D01*
X0035555Y0147660D01*
X0035637Y0147790D01*
X0035721Y0147918D01*
X0035809Y0148043D01*
X0035900Y0148166D01*
X0035994Y0148287D01*
X0036091Y0148405D01*
X0036192Y0148521D01*
X0036295Y0148634D01*
X0036401Y0148745D01*
X0036510Y0148852D01*
X0036622Y0148957D01*
X0036736Y0149059D01*
X0036853Y0149158D01*
X0036973Y0149253D01*
X0037095Y0149346D01*
X0037219Y0149435D01*
X0037346Y0149522D01*
X0037475Y0149604D01*
X0037606Y0149684D01*
X0037739Y0149760D01*
X0037874Y0149832D01*
X0038011Y0149901D01*
X0038149Y0149967D01*
X0038289Y0150029D01*
X0038431Y0150087D01*
X0038574Y0150141D01*
X0038719Y0150192D01*
X0038864Y0150239D01*
X0039011Y0150282D01*
X0039159Y0150321D01*
X0039308Y0150357D01*
X0039458Y0150388D01*
X0039609Y0150416D01*
X0039760Y0150440D01*
X0039912Y0150460D01*
X0040065Y0150476D01*
X0040217Y0150488D01*
X0040370Y0150496D01*
X0040523Y0150500D01*
X0040677Y0150500D01*
X0040830Y0150496D01*
X0040983Y0150488D01*
X0041135Y0150476D01*
X0041288Y0150460D01*
X0041440Y0150440D01*
X0041591Y0150416D01*
X0041742Y0150388D01*
X0041892Y0150357D01*
X0042041Y0150321D01*
X0042189Y0150282D01*
X0042336Y0150239D01*
X0042481Y0150192D01*
X0042626Y0150141D01*
X0042769Y0150087D01*
X0042911Y0150029D01*
X0043051Y0149967D01*
X0043189Y0149901D01*
X0043326Y0149832D01*
X0043461Y0149760D01*
X0043594Y0149684D01*
X0043725Y0149604D01*
X0043854Y0149522D01*
X0043981Y0149435D01*
X0044105Y0149346D01*
X0044227Y0149253D01*
X0044347Y0149158D01*
X0044464Y0149059D01*
X0044578Y0148957D01*
X0044690Y0148852D01*
X0044799Y0148745D01*
X0044905Y0148634D01*
X0045008Y0148521D01*
X0045109Y0148405D01*
X0045206Y0148287D01*
X0045300Y0148166D01*
X0045391Y0148043D01*
X0045479Y0147918D01*
X0045563Y0147790D01*
X0045645Y0147660D01*
X0045722Y0147528D01*
X0045797Y0147394D01*
X0045867Y0147258D01*
X0045935Y0147120D01*
X0045998Y0146981D01*
X0046058Y0146840D01*
X0046115Y0146698D01*
X0046167Y0146554D01*
X0046216Y0146409D01*
X0046261Y0146262D01*
X0046302Y0146115D01*
X0046340Y0145966D01*
X0046373Y0145817D01*
X0046403Y0145666D01*
X0046429Y0145515D01*
X0046450Y0145364D01*
X0046468Y0145212D01*
X0046482Y0145059D01*
X0046492Y0144906D01*
X0046498Y0144753D01*
X0046500Y0144600D01*
X0046498Y0144447D01*
X0046492Y0144294D01*
X0046482Y0144141D01*
X0046468Y0143988D01*
X0046450Y0143836D01*
X0046429Y0143685D01*
X0046403Y0143534D01*
X0046373Y0143383D01*
X0046340Y0143234D01*
X0046302Y0143085D01*
X0046261Y0142938D01*
X0046216Y0142791D01*
X0046167Y0142646D01*
X0046115Y0142502D01*
X0046058Y0142360D01*
X0045998Y0142219D01*
X0045935Y0142080D01*
X0045867Y0141942D01*
X0045797Y0141806D01*
X0045722Y0141672D01*
X0045645Y0141540D01*
X0045563Y0141410D01*
X0045479Y0141282D01*
X0045391Y0141157D01*
X0045300Y0141034D01*
X0045206Y0140913D01*
X0045109Y0140795D01*
X0045008Y0140679D01*
X0044905Y0140566D01*
X0044799Y0140455D01*
X0044690Y0140348D01*
X0044578Y0140243D01*
X0044464Y0140141D01*
X0044347Y0140042D01*
X0044227Y0139947D01*
X0044105Y0139854D01*
X0043981Y0139765D01*
X0043854Y0139678D01*
X0043725Y0139596D01*
X0043594Y0139516D01*
X0043461Y0139440D01*
X0043326Y0139368D01*
X0043189Y0139299D01*
X0043051Y0139233D01*
X0042911Y0139171D01*
X0042769Y0139113D01*
X0042626Y0139059D01*
X0042481Y0139008D01*
X0042336Y0138961D01*
X0042189Y0138918D01*
X0042041Y0138879D01*
X0041892Y0138843D01*
X0041742Y0138812D01*
X0041591Y0138784D01*
X0041440Y0138760D01*
X0041288Y0138740D01*
X0041135Y0138724D01*
X0040983Y0138712D01*
X0040830Y0138704D01*
X0040677Y0138700D01*
X0040523Y0138700D01*
X0040370Y0138704D01*
X0040217Y0138712D01*
X0040065Y0138724D01*
X0039912Y0138740D01*
X0039760Y0138760D01*
X0039609Y0138784D01*
X0039458Y0138812D01*
X0039308Y0138843D01*
X0039159Y0138879D01*
X0039011Y0138918D01*
X0038864Y0138961D01*
X0038719Y0139008D01*
X0038574Y0139059D01*
X0038431Y0139113D01*
X0038289Y0139171D01*
X0038149Y0139233D01*
X0038011Y0139299D01*
X0037874Y0139368D01*
X0037739Y0139440D01*
X0037606Y0139516D01*
X0037475Y0139596D01*
X0037346Y0139678D01*
X0037219Y0139765D01*
X0037095Y0139854D01*
X0036973Y0139947D01*
X0036853Y0140042D01*
X0036736Y0140141D01*
X0036622Y0140243D01*
X0036510Y0140348D01*
X0036401Y0140455D01*
X0036295Y0140566D01*
X0036192Y0140679D01*
X0036091Y0140795D01*
X0035994Y0140913D01*
X0035900Y0141034D01*
X0035809Y0141157D01*
X0035721Y0141282D01*
X0035637Y0141410D01*
X0035555Y0141540D01*
X0035478Y0141672D01*
X0035403Y0141806D01*
X0035333Y0141942D01*
X0035265Y0142080D01*
X0035202Y0142219D01*
X0035142Y0142360D01*
X0035085Y0142502D01*
X0035033Y0142646D01*
X0034984Y0142791D01*
X0034939Y0142938D01*
X0034898Y0143085D01*
X0034860Y0143234D01*
X0034827Y0143383D01*
X0034797Y0143534D01*
X0034771Y0143685D01*
X0034750Y0143836D01*
X0034732Y0143988D01*
X0034718Y0144141D01*
X0034708Y0144294D01*
X0034702Y0144447D01*
X0034700Y0144600D01*
X0061500Y0273100D02*
X0061502Y0273253D01*
X0061508Y0273406D01*
X0061518Y0273559D01*
X0061532Y0273712D01*
X0061550Y0273864D01*
X0061571Y0274015D01*
X0061597Y0274166D01*
X0061627Y0274317D01*
X0061660Y0274466D01*
X0061698Y0274615D01*
X0061739Y0274762D01*
X0061784Y0274909D01*
X0061833Y0275054D01*
X0061885Y0275198D01*
X0061942Y0275340D01*
X0062002Y0275481D01*
X0062065Y0275620D01*
X0062133Y0275758D01*
X0062203Y0275894D01*
X0062278Y0276028D01*
X0062355Y0276160D01*
X0062437Y0276290D01*
X0062521Y0276418D01*
X0062609Y0276543D01*
X0062700Y0276666D01*
X0062794Y0276787D01*
X0062891Y0276905D01*
X0062992Y0277021D01*
X0063095Y0277134D01*
X0063201Y0277245D01*
X0063310Y0277352D01*
X0063422Y0277457D01*
X0063536Y0277559D01*
X0063653Y0277658D01*
X0063773Y0277753D01*
X0063895Y0277846D01*
X0064019Y0277935D01*
X0064146Y0278022D01*
X0064275Y0278104D01*
X0064406Y0278184D01*
X0064539Y0278260D01*
X0064674Y0278332D01*
X0064811Y0278401D01*
X0064949Y0278467D01*
X0065089Y0278529D01*
X0065231Y0278587D01*
X0065374Y0278641D01*
X0065519Y0278692D01*
X0065664Y0278739D01*
X0065811Y0278782D01*
X0065959Y0278821D01*
X0066108Y0278857D01*
X0066258Y0278888D01*
X0066409Y0278916D01*
X0066560Y0278940D01*
X0066712Y0278960D01*
X0066865Y0278976D01*
X0067017Y0278988D01*
X0067170Y0278996D01*
X0067323Y0279000D01*
X0067477Y0279000D01*
X0067630Y0278996D01*
X0067783Y0278988D01*
X0067935Y0278976D01*
X0068088Y0278960D01*
X0068240Y0278940D01*
X0068391Y0278916D01*
X0068542Y0278888D01*
X0068692Y0278857D01*
X0068841Y0278821D01*
X0068989Y0278782D01*
X0069136Y0278739D01*
X0069281Y0278692D01*
X0069426Y0278641D01*
X0069569Y0278587D01*
X0069711Y0278529D01*
X0069851Y0278467D01*
X0069989Y0278401D01*
X0070126Y0278332D01*
X0070261Y0278260D01*
X0070394Y0278184D01*
X0070525Y0278104D01*
X0070654Y0278022D01*
X0070781Y0277935D01*
X0070905Y0277846D01*
X0071027Y0277753D01*
X0071147Y0277658D01*
X0071264Y0277559D01*
X0071378Y0277457D01*
X0071490Y0277352D01*
X0071599Y0277245D01*
X0071705Y0277134D01*
X0071808Y0277021D01*
X0071909Y0276905D01*
X0072006Y0276787D01*
X0072100Y0276666D01*
X0072191Y0276543D01*
X0072279Y0276418D01*
X0072363Y0276290D01*
X0072445Y0276160D01*
X0072522Y0276028D01*
X0072597Y0275894D01*
X0072667Y0275758D01*
X0072735Y0275620D01*
X0072798Y0275481D01*
X0072858Y0275340D01*
X0072915Y0275198D01*
X0072967Y0275054D01*
X0073016Y0274909D01*
X0073061Y0274762D01*
X0073102Y0274615D01*
X0073140Y0274466D01*
X0073173Y0274317D01*
X0073203Y0274166D01*
X0073229Y0274015D01*
X0073250Y0273864D01*
X0073268Y0273712D01*
X0073282Y0273559D01*
X0073292Y0273406D01*
X0073298Y0273253D01*
X0073300Y0273100D01*
X0073298Y0272947D01*
X0073292Y0272794D01*
X0073282Y0272641D01*
X0073268Y0272488D01*
X0073250Y0272336D01*
X0073229Y0272185D01*
X0073203Y0272034D01*
X0073173Y0271883D01*
X0073140Y0271734D01*
X0073102Y0271585D01*
X0073061Y0271438D01*
X0073016Y0271291D01*
X0072967Y0271146D01*
X0072915Y0271002D01*
X0072858Y0270860D01*
X0072798Y0270719D01*
X0072735Y0270580D01*
X0072667Y0270442D01*
X0072597Y0270306D01*
X0072522Y0270172D01*
X0072445Y0270040D01*
X0072363Y0269910D01*
X0072279Y0269782D01*
X0072191Y0269657D01*
X0072100Y0269534D01*
X0072006Y0269413D01*
X0071909Y0269295D01*
X0071808Y0269179D01*
X0071705Y0269066D01*
X0071599Y0268955D01*
X0071490Y0268848D01*
X0071378Y0268743D01*
X0071264Y0268641D01*
X0071147Y0268542D01*
X0071027Y0268447D01*
X0070905Y0268354D01*
X0070781Y0268265D01*
X0070654Y0268178D01*
X0070525Y0268096D01*
X0070394Y0268016D01*
X0070261Y0267940D01*
X0070126Y0267868D01*
X0069989Y0267799D01*
X0069851Y0267733D01*
X0069711Y0267671D01*
X0069569Y0267613D01*
X0069426Y0267559D01*
X0069281Y0267508D01*
X0069136Y0267461D01*
X0068989Y0267418D01*
X0068841Y0267379D01*
X0068692Y0267343D01*
X0068542Y0267312D01*
X0068391Y0267284D01*
X0068240Y0267260D01*
X0068088Y0267240D01*
X0067935Y0267224D01*
X0067783Y0267212D01*
X0067630Y0267204D01*
X0067477Y0267200D01*
X0067323Y0267200D01*
X0067170Y0267204D01*
X0067017Y0267212D01*
X0066865Y0267224D01*
X0066712Y0267240D01*
X0066560Y0267260D01*
X0066409Y0267284D01*
X0066258Y0267312D01*
X0066108Y0267343D01*
X0065959Y0267379D01*
X0065811Y0267418D01*
X0065664Y0267461D01*
X0065519Y0267508D01*
X0065374Y0267559D01*
X0065231Y0267613D01*
X0065089Y0267671D01*
X0064949Y0267733D01*
X0064811Y0267799D01*
X0064674Y0267868D01*
X0064539Y0267940D01*
X0064406Y0268016D01*
X0064275Y0268096D01*
X0064146Y0268178D01*
X0064019Y0268265D01*
X0063895Y0268354D01*
X0063773Y0268447D01*
X0063653Y0268542D01*
X0063536Y0268641D01*
X0063422Y0268743D01*
X0063310Y0268848D01*
X0063201Y0268955D01*
X0063095Y0269066D01*
X0062992Y0269179D01*
X0062891Y0269295D01*
X0062794Y0269413D01*
X0062700Y0269534D01*
X0062609Y0269657D01*
X0062521Y0269782D01*
X0062437Y0269910D01*
X0062355Y0270040D01*
X0062278Y0270172D01*
X0062203Y0270306D01*
X0062133Y0270442D01*
X0062065Y0270580D01*
X0062002Y0270719D01*
X0061942Y0270860D01*
X0061885Y0271002D01*
X0061833Y0271146D01*
X0061784Y0271291D01*
X0061739Y0271438D01*
X0061698Y0271585D01*
X0061660Y0271734D01*
X0061627Y0271883D01*
X0061597Y0272034D01*
X0061571Y0272185D01*
X0061550Y0272336D01*
X0061532Y0272488D01*
X0061518Y0272641D01*
X0061508Y0272794D01*
X0061502Y0272947D01*
X0061500Y0273100D01*
X0128700Y0273100D02*
X0128702Y0273253D01*
X0128708Y0273406D01*
X0128718Y0273559D01*
X0128732Y0273712D01*
X0128750Y0273864D01*
X0128771Y0274015D01*
X0128797Y0274166D01*
X0128827Y0274317D01*
X0128860Y0274466D01*
X0128898Y0274615D01*
X0128939Y0274762D01*
X0128984Y0274909D01*
X0129033Y0275054D01*
X0129085Y0275198D01*
X0129142Y0275340D01*
X0129202Y0275481D01*
X0129265Y0275620D01*
X0129333Y0275758D01*
X0129403Y0275894D01*
X0129478Y0276028D01*
X0129555Y0276160D01*
X0129637Y0276290D01*
X0129721Y0276418D01*
X0129809Y0276543D01*
X0129900Y0276666D01*
X0129994Y0276787D01*
X0130091Y0276905D01*
X0130192Y0277021D01*
X0130295Y0277134D01*
X0130401Y0277245D01*
X0130510Y0277352D01*
X0130622Y0277457D01*
X0130736Y0277559D01*
X0130853Y0277658D01*
X0130973Y0277753D01*
X0131095Y0277846D01*
X0131219Y0277935D01*
X0131346Y0278022D01*
X0131475Y0278104D01*
X0131606Y0278184D01*
X0131739Y0278260D01*
X0131874Y0278332D01*
X0132011Y0278401D01*
X0132149Y0278467D01*
X0132289Y0278529D01*
X0132431Y0278587D01*
X0132574Y0278641D01*
X0132719Y0278692D01*
X0132864Y0278739D01*
X0133011Y0278782D01*
X0133159Y0278821D01*
X0133308Y0278857D01*
X0133458Y0278888D01*
X0133609Y0278916D01*
X0133760Y0278940D01*
X0133912Y0278960D01*
X0134065Y0278976D01*
X0134217Y0278988D01*
X0134370Y0278996D01*
X0134523Y0279000D01*
X0134677Y0279000D01*
X0134830Y0278996D01*
X0134983Y0278988D01*
X0135135Y0278976D01*
X0135288Y0278960D01*
X0135440Y0278940D01*
X0135591Y0278916D01*
X0135742Y0278888D01*
X0135892Y0278857D01*
X0136041Y0278821D01*
X0136189Y0278782D01*
X0136336Y0278739D01*
X0136481Y0278692D01*
X0136626Y0278641D01*
X0136769Y0278587D01*
X0136911Y0278529D01*
X0137051Y0278467D01*
X0137189Y0278401D01*
X0137326Y0278332D01*
X0137461Y0278260D01*
X0137594Y0278184D01*
X0137725Y0278104D01*
X0137854Y0278022D01*
X0137981Y0277935D01*
X0138105Y0277846D01*
X0138227Y0277753D01*
X0138347Y0277658D01*
X0138464Y0277559D01*
X0138578Y0277457D01*
X0138690Y0277352D01*
X0138799Y0277245D01*
X0138905Y0277134D01*
X0139008Y0277021D01*
X0139109Y0276905D01*
X0139206Y0276787D01*
X0139300Y0276666D01*
X0139391Y0276543D01*
X0139479Y0276418D01*
X0139563Y0276290D01*
X0139645Y0276160D01*
X0139722Y0276028D01*
X0139797Y0275894D01*
X0139867Y0275758D01*
X0139935Y0275620D01*
X0139998Y0275481D01*
X0140058Y0275340D01*
X0140115Y0275198D01*
X0140167Y0275054D01*
X0140216Y0274909D01*
X0140261Y0274762D01*
X0140302Y0274615D01*
X0140340Y0274466D01*
X0140373Y0274317D01*
X0140403Y0274166D01*
X0140429Y0274015D01*
X0140450Y0273864D01*
X0140468Y0273712D01*
X0140482Y0273559D01*
X0140492Y0273406D01*
X0140498Y0273253D01*
X0140500Y0273100D01*
X0140498Y0272947D01*
X0140492Y0272794D01*
X0140482Y0272641D01*
X0140468Y0272488D01*
X0140450Y0272336D01*
X0140429Y0272185D01*
X0140403Y0272034D01*
X0140373Y0271883D01*
X0140340Y0271734D01*
X0140302Y0271585D01*
X0140261Y0271438D01*
X0140216Y0271291D01*
X0140167Y0271146D01*
X0140115Y0271002D01*
X0140058Y0270860D01*
X0139998Y0270719D01*
X0139935Y0270580D01*
X0139867Y0270442D01*
X0139797Y0270306D01*
X0139722Y0270172D01*
X0139645Y0270040D01*
X0139563Y0269910D01*
X0139479Y0269782D01*
X0139391Y0269657D01*
X0139300Y0269534D01*
X0139206Y0269413D01*
X0139109Y0269295D01*
X0139008Y0269179D01*
X0138905Y0269066D01*
X0138799Y0268955D01*
X0138690Y0268848D01*
X0138578Y0268743D01*
X0138464Y0268641D01*
X0138347Y0268542D01*
X0138227Y0268447D01*
X0138105Y0268354D01*
X0137981Y0268265D01*
X0137854Y0268178D01*
X0137725Y0268096D01*
X0137594Y0268016D01*
X0137461Y0267940D01*
X0137326Y0267868D01*
X0137189Y0267799D01*
X0137051Y0267733D01*
X0136911Y0267671D01*
X0136769Y0267613D01*
X0136626Y0267559D01*
X0136481Y0267508D01*
X0136336Y0267461D01*
X0136189Y0267418D01*
X0136041Y0267379D01*
X0135892Y0267343D01*
X0135742Y0267312D01*
X0135591Y0267284D01*
X0135440Y0267260D01*
X0135288Y0267240D01*
X0135135Y0267224D01*
X0134983Y0267212D01*
X0134830Y0267204D01*
X0134677Y0267200D01*
X0134523Y0267200D01*
X0134370Y0267204D01*
X0134217Y0267212D01*
X0134065Y0267224D01*
X0133912Y0267240D01*
X0133760Y0267260D01*
X0133609Y0267284D01*
X0133458Y0267312D01*
X0133308Y0267343D01*
X0133159Y0267379D01*
X0133011Y0267418D01*
X0132864Y0267461D01*
X0132719Y0267508D01*
X0132574Y0267559D01*
X0132431Y0267613D01*
X0132289Y0267671D01*
X0132149Y0267733D01*
X0132011Y0267799D01*
X0131874Y0267868D01*
X0131739Y0267940D01*
X0131606Y0268016D01*
X0131475Y0268096D01*
X0131346Y0268178D01*
X0131219Y0268265D01*
X0131095Y0268354D01*
X0130973Y0268447D01*
X0130853Y0268542D01*
X0130736Y0268641D01*
X0130622Y0268743D01*
X0130510Y0268848D01*
X0130401Y0268955D01*
X0130295Y0269066D01*
X0130192Y0269179D01*
X0130091Y0269295D01*
X0129994Y0269413D01*
X0129900Y0269534D01*
X0129809Y0269657D01*
X0129721Y0269782D01*
X0129637Y0269910D01*
X0129555Y0270040D01*
X0129478Y0270172D01*
X0129403Y0270306D01*
X0129333Y0270442D01*
X0129265Y0270580D01*
X0129202Y0270719D01*
X0129142Y0270860D01*
X0129085Y0271002D01*
X0129033Y0271146D01*
X0128984Y0271291D01*
X0128939Y0271438D01*
X0128898Y0271585D01*
X0128860Y0271734D01*
X0128827Y0271883D01*
X0128797Y0272034D01*
X0128771Y0272185D01*
X0128750Y0272336D01*
X0128732Y0272488D01*
X0128718Y0272641D01*
X0128708Y0272794D01*
X0128702Y0272947D01*
X0128700Y0273100D01*
X0226500Y0258900D02*
X0226502Y0259053D01*
X0226508Y0259206D01*
X0226518Y0259359D01*
X0226532Y0259512D01*
X0226550Y0259664D01*
X0226571Y0259815D01*
X0226597Y0259966D01*
X0226627Y0260117D01*
X0226660Y0260266D01*
X0226698Y0260415D01*
X0226739Y0260562D01*
X0226784Y0260709D01*
X0226833Y0260854D01*
X0226885Y0260998D01*
X0226942Y0261140D01*
X0227002Y0261281D01*
X0227065Y0261420D01*
X0227133Y0261558D01*
X0227203Y0261694D01*
X0227278Y0261828D01*
X0227355Y0261960D01*
X0227437Y0262090D01*
X0227521Y0262218D01*
X0227609Y0262343D01*
X0227700Y0262466D01*
X0227794Y0262587D01*
X0227891Y0262705D01*
X0227992Y0262821D01*
X0228095Y0262934D01*
X0228201Y0263045D01*
X0228310Y0263152D01*
X0228422Y0263257D01*
X0228536Y0263359D01*
X0228653Y0263458D01*
X0228773Y0263553D01*
X0228895Y0263646D01*
X0229019Y0263735D01*
X0229146Y0263822D01*
X0229275Y0263904D01*
X0229406Y0263984D01*
X0229539Y0264060D01*
X0229674Y0264132D01*
X0229811Y0264201D01*
X0229949Y0264267D01*
X0230089Y0264329D01*
X0230231Y0264387D01*
X0230374Y0264441D01*
X0230519Y0264492D01*
X0230664Y0264539D01*
X0230811Y0264582D01*
X0230959Y0264621D01*
X0231108Y0264657D01*
X0231258Y0264688D01*
X0231409Y0264716D01*
X0231560Y0264740D01*
X0231712Y0264760D01*
X0231865Y0264776D01*
X0232017Y0264788D01*
X0232170Y0264796D01*
X0232323Y0264800D01*
X0232477Y0264800D01*
X0232630Y0264796D01*
X0232783Y0264788D01*
X0232935Y0264776D01*
X0233088Y0264760D01*
X0233240Y0264740D01*
X0233391Y0264716D01*
X0233542Y0264688D01*
X0233692Y0264657D01*
X0233841Y0264621D01*
X0233989Y0264582D01*
X0234136Y0264539D01*
X0234281Y0264492D01*
X0234426Y0264441D01*
X0234569Y0264387D01*
X0234711Y0264329D01*
X0234851Y0264267D01*
X0234989Y0264201D01*
X0235126Y0264132D01*
X0235261Y0264060D01*
X0235394Y0263984D01*
X0235525Y0263904D01*
X0235654Y0263822D01*
X0235781Y0263735D01*
X0235905Y0263646D01*
X0236027Y0263553D01*
X0236147Y0263458D01*
X0236264Y0263359D01*
X0236378Y0263257D01*
X0236490Y0263152D01*
X0236599Y0263045D01*
X0236705Y0262934D01*
X0236808Y0262821D01*
X0236909Y0262705D01*
X0237006Y0262587D01*
X0237100Y0262466D01*
X0237191Y0262343D01*
X0237279Y0262218D01*
X0237363Y0262090D01*
X0237445Y0261960D01*
X0237522Y0261828D01*
X0237597Y0261694D01*
X0237667Y0261558D01*
X0237735Y0261420D01*
X0237798Y0261281D01*
X0237858Y0261140D01*
X0237915Y0260998D01*
X0237967Y0260854D01*
X0238016Y0260709D01*
X0238061Y0260562D01*
X0238102Y0260415D01*
X0238140Y0260266D01*
X0238173Y0260117D01*
X0238203Y0259966D01*
X0238229Y0259815D01*
X0238250Y0259664D01*
X0238268Y0259512D01*
X0238282Y0259359D01*
X0238292Y0259206D01*
X0238298Y0259053D01*
X0238300Y0258900D01*
X0238298Y0258747D01*
X0238292Y0258594D01*
X0238282Y0258441D01*
X0238268Y0258288D01*
X0238250Y0258136D01*
X0238229Y0257985D01*
X0238203Y0257834D01*
X0238173Y0257683D01*
X0238140Y0257534D01*
X0238102Y0257385D01*
X0238061Y0257238D01*
X0238016Y0257091D01*
X0237967Y0256946D01*
X0237915Y0256802D01*
X0237858Y0256660D01*
X0237798Y0256519D01*
X0237735Y0256380D01*
X0237667Y0256242D01*
X0237597Y0256106D01*
X0237522Y0255972D01*
X0237445Y0255840D01*
X0237363Y0255710D01*
X0237279Y0255582D01*
X0237191Y0255457D01*
X0237100Y0255334D01*
X0237006Y0255213D01*
X0236909Y0255095D01*
X0236808Y0254979D01*
X0236705Y0254866D01*
X0236599Y0254755D01*
X0236490Y0254648D01*
X0236378Y0254543D01*
X0236264Y0254441D01*
X0236147Y0254342D01*
X0236027Y0254247D01*
X0235905Y0254154D01*
X0235781Y0254065D01*
X0235654Y0253978D01*
X0235525Y0253896D01*
X0235394Y0253816D01*
X0235261Y0253740D01*
X0235126Y0253668D01*
X0234989Y0253599D01*
X0234851Y0253533D01*
X0234711Y0253471D01*
X0234569Y0253413D01*
X0234426Y0253359D01*
X0234281Y0253308D01*
X0234136Y0253261D01*
X0233989Y0253218D01*
X0233841Y0253179D01*
X0233692Y0253143D01*
X0233542Y0253112D01*
X0233391Y0253084D01*
X0233240Y0253060D01*
X0233088Y0253040D01*
X0232935Y0253024D01*
X0232783Y0253012D01*
X0232630Y0253004D01*
X0232477Y0253000D01*
X0232323Y0253000D01*
X0232170Y0253004D01*
X0232017Y0253012D01*
X0231865Y0253024D01*
X0231712Y0253040D01*
X0231560Y0253060D01*
X0231409Y0253084D01*
X0231258Y0253112D01*
X0231108Y0253143D01*
X0230959Y0253179D01*
X0230811Y0253218D01*
X0230664Y0253261D01*
X0230519Y0253308D01*
X0230374Y0253359D01*
X0230231Y0253413D01*
X0230089Y0253471D01*
X0229949Y0253533D01*
X0229811Y0253599D01*
X0229674Y0253668D01*
X0229539Y0253740D01*
X0229406Y0253816D01*
X0229275Y0253896D01*
X0229146Y0253978D01*
X0229019Y0254065D01*
X0228895Y0254154D01*
X0228773Y0254247D01*
X0228653Y0254342D01*
X0228536Y0254441D01*
X0228422Y0254543D01*
X0228310Y0254648D01*
X0228201Y0254755D01*
X0228095Y0254866D01*
X0227992Y0254979D01*
X0227891Y0255095D01*
X0227794Y0255213D01*
X0227700Y0255334D01*
X0227609Y0255457D01*
X0227521Y0255582D01*
X0227437Y0255710D01*
X0227355Y0255840D01*
X0227278Y0255972D01*
X0227203Y0256106D01*
X0227133Y0256242D01*
X0227065Y0256380D01*
X0227002Y0256519D01*
X0226942Y0256660D01*
X0226885Y0256802D01*
X0226833Y0256946D01*
X0226784Y0257091D01*
X0226739Y0257238D01*
X0226698Y0257385D01*
X0226660Y0257534D01*
X0226627Y0257683D01*
X0226597Y0257834D01*
X0226571Y0257985D01*
X0226550Y0258136D01*
X0226532Y0258288D01*
X0226518Y0258441D01*
X0226508Y0258594D01*
X0226502Y0258747D01*
X0226500Y0258900D01*
X0293700Y0258900D02*
X0293702Y0259053D01*
X0293708Y0259206D01*
X0293718Y0259359D01*
X0293732Y0259512D01*
X0293750Y0259664D01*
X0293771Y0259815D01*
X0293797Y0259966D01*
X0293827Y0260117D01*
X0293860Y0260266D01*
X0293898Y0260415D01*
X0293939Y0260562D01*
X0293984Y0260709D01*
X0294033Y0260854D01*
X0294085Y0260998D01*
X0294142Y0261140D01*
X0294202Y0261281D01*
X0294265Y0261420D01*
X0294333Y0261558D01*
X0294403Y0261694D01*
X0294478Y0261828D01*
X0294555Y0261960D01*
X0294637Y0262090D01*
X0294721Y0262218D01*
X0294809Y0262343D01*
X0294900Y0262466D01*
X0294994Y0262587D01*
X0295091Y0262705D01*
X0295192Y0262821D01*
X0295295Y0262934D01*
X0295401Y0263045D01*
X0295510Y0263152D01*
X0295622Y0263257D01*
X0295736Y0263359D01*
X0295853Y0263458D01*
X0295973Y0263553D01*
X0296095Y0263646D01*
X0296219Y0263735D01*
X0296346Y0263822D01*
X0296475Y0263904D01*
X0296606Y0263984D01*
X0296739Y0264060D01*
X0296874Y0264132D01*
X0297011Y0264201D01*
X0297149Y0264267D01*
X0297289Y0264329D01*
X0297431Y0264387D01*
X0297574Y0264441D01*
X0297719Y0264492D01*
X0297864Y0264539D01*
X0298011Y0264582D01*
X0298159Y0264621D01*
X0298308Y0264657D01*
X0298458Y0264688D01*
X0298609Y0264716D01*
X0298760Y0264740D01*
X0298912Y0264760D01*
X0299065Y0264776D01*
X0299217Y0264788D01*
X0299370Y0264796D01*
X0299523Y0264800D01*
X0299677Y0264800D01*
X0299830Y0264796D01*
X0299983Y0264788D01*
X0300135Y0264776D01*
X0300288Y0264760D01*
X0300440Y0264740D01*
X0300591Y0264716D01*
X0300742Y0264688D01*
X0300892Y0264657D01*
X0301041Y0264621D01*
X0301189Y0264582D01*
X0301336Y0264539D01*
X0301481Y0264492D01*
X0301626Y0264441D01*
X0301769Y0264387D01*
X0301911Y0264329D01*
X0302051Y0264267D01*
X0302189Y0264201D01*
X0302326Y0264132D01*
X0302461Y0264060D01*
X0302594Y0263984D01*
X0302725Y0263904D01*
X0302854Y0263822D01*
X0302981Y0263735D01*
X0303105Y0263646D01*
X0303227Y0263553D01*
X0303347Y0263458D01*
X0303464Y0263359D01*
X0303578Y0263257D01*
X0303690Y0263152D01*
X0303799Y0263045D01*
X0303905Y0262934D01*
X0304008Y0262821D01*
X0304109Y0262705D01*
X0304206Y0262587D01*
X0304300Y0262466D01*
X0304391Y0262343D01*
X0304479Y0262218D01*
X0304563Y0262090D01*
X0304645Y0261960D01*
X0304722Y0261828D01*
X0304797Y0261694D01*
X0304867Y0261558D01*
X0304935Y0261420D01*
X0304998Y0261281D01*
X0305058Y0261140D01*
X0305115Y0260998D01*
X0305167Y0260854D01*
X0305216Y0260709D01*
X0305261Y0260562D01*
X0305302Y0260415D01*
X0305340Y0260266D01*
X0305373Y0260117D01*
X0305403Y0259966D01*
X0305429Y0259815D01*
X0305450Y0259664D01*
X0305468Y0259512D01*
X0305482Y0259359D01*
X0305492Y0259206D01*
X0305498Y0259053D01*
X0305500Y0258900D01*
X0305498Y0258747D01*
X0305492Y0258594D01*
X0305482Y0258441D01*
X0305468Y0258288D01*
X0305450Y0258136D01*
X0305429Y0257985D01*
X0305403Y0257834D01*
X0305373Y0257683D01*
X0305340Y0257534D01*
X0305302Y0257385D01*
X0305261Y0257238D01*
X0305216Y0257091D01*
X0305167Y0256946D01*
X0305115Y0256802D01*
X0305058Y0256660D01*
X0304998Y0256519D01*
X0304935Y0256380D01*
X0304867Y0256242D01*
X0304797Y0256106D01*
X0304722Y0255972D01*
X0304645Y0255840D01*
X0304563Y0255710D01*
X0304479Y0255582D01*
X0304391Y0255457D01*
X0304300Y0255334D01*
X0304206Y0255213D01*
X0304109Y0255095D01*
X0304008Y0254979D01*
X0303905Y0254866D01*
X0303799Y0254755D01*
X0303690Y0254648D01*
X0303578Y0254543D01*
X0303464Y0254441D01*
X0303347Y0254342D01*
X0303227Y0254247D01*
X0303105Y0254154D01*
X0302981Y0254065D01*
X0302854Y0253978D01*
X0302725Y0253896D01*
X0302594Y0253816D01*
X0302461Y0253740D01*
X0302326Y0253668D01*
X0302189Y0253599D01*
X0302051Y0253533D01*
X0301911Y0253471D01*
X0301769Y0253413D01*
X0301626Y0253359D01*
X0301481Y0253308D01*
X0301336Y0253261D01*
X0301189Y0253218D01*
X0301041Y0253179D01*
X0300892Y0253143D01*
X0300742Y0253112D01*
X0300591Y0253084D01*
X0300440Y0253060D01*
X0300288Y0253040D01*
X0300135Y0253024D01*
X0299983Y0253012D01*
X0299830Y0253004D01*
X0299677Y0253000D01*
X0299523Y0253000D01*
X0299370Y0253004D01*
X0299217Y0253012D01*
X0299065Y0253024D01*
X0298912Y0253040D01*
X0298760Y0253060D01*
X0298609Y0253084D01*
X0298458Y0253112D01*
X0298308Y0253143D01*
X0298159Y0253179D01*
X0298011Y0253218D01*
X0297864Y0253261D01*
X0297719Y0253308D01*
X0297574Y0253359D01*
X0297431Y0253413D01*
X0297289Y0253471D01*
X0297149Y0253533D01*
X0297011Y0253599D01*
X0296874Y0253668D01*
X0296739Y0253740D01*
X0296606Y0253816D01*
X0296475Y0253896D01*
X0296346Y0253978D01*
X0296219Y0254065D01*
X0296095Y0254154D01*
X0295973Y0254247D01*
X0295853Y0254342D01*
X0295736Y0254441D01*
X0295622Y0254543D01*
X0295510Y0254648D01*
X0295401Y0254755D01*
X0295295Y0254866D01*
X0295192Y0254979D01*
X0295091Y0255095D01*
X0294994Y0255213D01*
X0294900Y0255334D01*
X0294809Y0255457D01*
X0294721Y0255582D01*
X0294637Y0255710D01*
X0294555Y0255840D01*
X0294478Y0255972D01*
X0294403Y0256106D01*
X0294333Y0256242D01*
X0294265Y0256380D01*
X0294202Y0256519D01*
X0294142Y0256660D01*
X0294085Y0256802D01*
X0294033Y0256946D01*
X0293984Y0257091D01*
X0293939Y0257238D01*
X0293898Y0257385D01*
X0293860Y0257534D01*
X0293827Y0257683D01*
X0293797Y0257834D01*
X0293771Y0257985D01*
X0293750Y0258136D01*
X0293732Y0258288D01*
X0293718Y0258441D01*
X0293708Y0258594D01*
X0293702Y0258747D01*
X0293700Y0258900D01*
X0251200Y0021400D02*
X0251202Y0021553D01*
X0251208Y0021706D01*
X0251218Y0021859D01*
X0251232Y0022012D01*
X0251250Y0022164D01*
X0251271Y0022315D01*
X0251297Y0022466D01*
X0251327Y0022617D01*
X0251360Y0022766D01*
X0251398Y0022915D01*
X0251439Y0023062D01*
X0251484Y0023209D01*
X0251533Y0023354D01*
X0251585Y0023498D01*
X0251642Y0023640D01*
X0251702Y0023781D01*
X0251765Y0023920D01*
X0251833Y0024058D01*
X0251903Y0024194D01*
X0251978Y0024328D01*
X0252055Y0024460D01*
X0252137Y0024590D01*
X0252221Y0024718D01*
X0252309Y0024843D01*
X0252400Y0024966D01*
X0252494Y0025087D01*
X0252591Y0025205D01*
X0252692Y0025321D01*
X0252795Y0025434D01*
X0252901Y0025545D01*
X0253010Y0025652D01*
X0253122Y0025757D01*
X0253236Y0025859D01*
X0253353Y0025958D01*
X0253473Y0026053D01*
X0253595Y0026146D01*
X0253719Y0026235D01*
X0253846Y0026322D01*
X0253975Y0026404D01*
X0254106Y0026484D01*
X0254239Y0026560D01*
X0254374Y0026632D01*
X0254511Y0026701D01*
X0254649Y0026767D01*
X0254789Y0026829D01*
X0254931Y0026887D01*
X0255074Y0026941D01*
X0255219Y0026992D01*
X0255364Y0027039D01*
X0255511Y0027082D01*
X0255659Y0027121D01*
X0255808Y0027157D01*
X0255958Y0027188D01*
X0256109Y0027216D01*
X0256260Y0027240D01*
X0256412Y0027260D01*
X0256565Y0027276D01*
X0256717Y0027288D01*
X0256870Y0027296D01*
X0257023Y0027300D01*
X0257177Y0027300D01*
X0257330Y0027296D01*
X0257483Y0027288D01*
X0257635Y0027276D01*
X0257788Y0027260D01*
X0257940Y0027240D01*
X0258091Y0027216D01*
X0258242Y0027188D01*
X0258392Y0027157D01*
X0258541Y0027121D01*
X0258689Y0027082D01*
X0258836Y0027039D01*
X0258981Y0026992D01*
X0259126Y0026941D01*
X0259269Y0026887D01*
X0259411Y0026829D01*
X0259551Y0026767D01*
X0259689Y0026701D01*
X0259826Y0026632D01*
X0259961Y0026560D01*
X0260094Y0026484D01*
X0260225Y0026404D01*
X0260354Y0026322D01*
X0260481Y0026235D01*
X0260605Y0026146D01*
X0260727Y0026053D01*
X0260847Y0025958D01*
X0260964Y0025859D01*
X0261078Y0025757D01*
X0261190Y0025652D01*
X0261299Y0025545D01*
X0261405Y0025434D01*
X0261508Y0025321D01*
X0261609Y0025205D01*
X0261706Y0025087D01*
X0261800Y0024966D01*
X0261891Y0024843D01*
X0261979Y0024718D01*
X0262063Y0024590D01*
X0262145Y0024460D01*
X0262222Y0024328D01*
X0262297Y0024194D01*
X0262367Y0024058D01*
X0262435Y0023920D01*
X0262498Y0023781D01*
X0262558Y0023640D01*
X0262615Y0023498D01*
X0262667Y0023354D01*
X0262716Y0023209D01*
X0262761Y0023062D01*
X0262802Y0022915D01*
X0262840Y0022766D01*
X0262873Y0022617D01*
X0262903Y0022466D01*
X0262929Y0022315D01*
X0262950Y0022164D01*
X0262968Y0022012D01*
X0262982Y0021859D01*
X0262992Y0021706D01*
X0262998Y0021553D01*
X0263000Y0021400D01*
X0262998Y0021247D01*
X0262992Y0021094D01*
X0262982Y0020941D01*
X0262968Y0020788D01*
X0262950Y0020636D01*
X0262929Y0020485D01*
X0262903Y0020334D01*
X0262873Y0020183D01*
X0262840Y0020034D01*
X0262802Y0019885D01*
X0262761Y0019738D01*
X0262716Y0019591D01*
X0262667Y0019446D01*
X0262615Y0019302D01*
X0262558Y0019160D01*
X0262498Y0019019D01*
X0262435Y0018880D01*
X0262367Y0018742D01*
X0262297Y0018606D01*
X0262222Y0018472D01*
X0262145Y0018340D01*
X0262063Y0018210D01*
X0261979Y0018082D01*
X0261891Y0017957D01*
X0261800Y0017834D01*
X0261706Y0017713D01*
X0261609Y0017595D01*
X0261508Y0017479D01*
X0261405Y0017366D01*
X0261299Y0017255D01*
X0261190Y0017148D01*
X0261078Y0017043D01*
X0260964Y0016941D01*
X0260847Y0016842D01*
X0260727Y0016747D01*
X0260605Y0016654D01*
X0260481Y0016565D01*
X0260354Y0016478D01*
X0260225Y0016396D01*
X0260094Y0016316D01*
X0259961Y0016240D01*
X0259826Y0016168D01*
X0259689Y0016099D01*
X0259551Y0016033D01*
X0259411Y0015971D01*
X0259269Y0015913D01*
X0259126Y0015859D01*
X0258981Y0015808D01*
X0258836Y0015761D01*
X0258689Y0015718D01*
X0258541Y0015679D01*
X0258392Y0015643D01*
X0258242Y0015612D01*
X0258091Y0015584D01*
X0257940Y0015560D01*
X0257788Y0015540D01*
X0257635Y0015524D01*
X0257483Y0015512D01*
X0257330Y0015504D01*
X0257177Y0015500D01*
X0257023Y0015500D01*
X0256870Y0015504D01*
X0256717Y0015512D01*
X0256565Y0015524D01*
X0256412Y0015540D01*
X0256260Y0015560D01*
X0256109Y0015584D01*
X0255958Y0015612D01*
X0255808Y0015643D01*
X0255659Y0015679D01*
X0255511Y0015718D01*
X0255364Y0015761D01*
X0255219Y0015808D01*
X0255074Y0015859D01*
X0254931Y0015913D01*
X0254789Y0015971D01*
X0254649Y0016033D01*
X0254511Y0016099D01*
X0254374Y0016168D01*
X0254239Y0016240D01*
X0254106Y0016316D01*
X0253975Y0016396D01*
X0253846Y0016478D01*
X0253719Y0016565D01*
X0253595Y0016654D01*
X0253473Y0016747D01*
X0253353Y0016842D01*
X0253236Y0016941D01*
X0253122Y0017043D01*
X0253010Y0017148D01*
X0252901Y0017255D01*
X0252795Y0017366D01*
X0252692Y0017479D01*
X0252591Y0017595D01*
X0252494Y0017713D01*
X0252400Y0017834D01*
X0252309Y0017957D01*
X0252221Y0018082D01*
X0252137Y0018210D01*
X0252055Y0018340D01*
X0251978Y0018472D01*
X0251903Y0018606D01*
X0251833Y0018742D01*
X0251765Y0018880D01*
X0251702Y0019019D01*
X0251642Y0019160D01*
X0251585Y0019302D01*
X0251533Y0019446D01*
X0251484Y0019591D01*
X0251439Y0019738D01*
X0251398Y0019885D01*
X0251360Y0020034D01*
X0251327Y0020183D01*
X0251297Y0020334D01*
X0251271Y0020485D01*
X0251250Y0020636D01*
X0251232Y0020788D01*
X0251218Y0020941D01*
X0251208Y0021094D01*
X0251202Y0021247D01*
X0251200Y0021400D01*
X0184000Y0021400D02*
X0184002Y0021553D01*
X0184008Y0021706D01*
X0184018Y0021859D01*
X0184032Y0022012D01*
X0184050Y0022164D01*
X0184071Y0022315D01*
X0184097Y0022466D01*
X0184127Y0022617D01*
X0184160Y0022766D01*
X0184198Y0022915D01*
X0184239Y0023062D01*
X0184284Y0023209D01*
X0184333Y0023354D01*
X0184385Y0023498D01*
X0184442Y0023640D01*
X0184502Y0023781D01*
X0184565Y0023920D01*
X0184633Y0024058D01*
X0184703Y0024194D01*
X0184778Y0024328D01*
X0184855Y0024460D01*
X0184937Y0024590D01*
X0185021Y0024718D01*
X0185109Y0024843D01*
X0185200Y0024966D01*
X0185294Y0025087D01*
X0185391Y0025205D01*
X0185492Y0025321D01*
X0185595Y0025434D01*
X0185701Y0025545D01*
X0185810Y0025652D01*
X0185922Y0025757D01*
X0186036Y0025859D01*
X0186153Y0025958D01*
X0186273Y0026053D01*
X0186395Y0026146D01*
X0186519Y0026235D01*
X0186646Y0026322D01*
X0186775Y0026404D01*
X0186906Y0026484D01*
X0187039Y0026560D01*
X0187174Y0026632D01*
X0187311Y0026701D01*
X0187449Y0026767D01*
X0187589Y0026829D01*
X0187731Y0026887D01*
X0187874Y0026941D01*
X0188019Y0026992D01*
X0188164Y0027039D01*
X0188311Y0027082D01*
X0188459Y0027121D01*
X0188608Y0027157D01*
X0188758Y0027188D01*
X0188909Y0027216D01*
X0189060Y0027240D01*
X0189212Y0027260D01*
X0189365Y0027276D01*
X0189517Y0027288D01*
X0189670Y0027296D01*
X0189823Y0027300D01*
X0189977Y0027300D01*
X0190130Y0027296D01*
X0190283Y0027288D01*
X0190435Y0027276D01*
X0190588Y0027260D01*
X0190740Y0027240D01*
X0190891Y0027216D01*
X0191042Y0027188D01*
X0191192Y0027157D01*
X0191341Y0027121D01*
X0191489Y0027082D01*
X0191636Y0027039D01*
X0191781Y0026992D01*
X0191926Y0026941D01*
X0192069Y0026887D01*
X0192211Y0026829D01*
X0192351Y0026767D01*
X0192489Y0026701D01*
X0192626Y0026632D01*
X0192761Y0026560D01*
X0192894Y0026484D01*
X0193025Y0026404D01*
X0193154Y0026322D01*
X0193281Y0026235D01*
X0193405Y0026146D01*
X0193527Y0026053D01*
X0193647Y0025958D01*
X0193764Y0025859D01*
X0193878Y0025757D01*
X0193990Y0025652D01*
X0194099Y0025545D01*
X0194205Y0025434D01*
X0194308Y0025321D01*
X0194409Y0025205D01*
X0194506Y0025087D01*
X0194600Y0024966D01*
X0194691Y0024843D01*
X0194779Y0024718D01*
X0194863Y0024590D01*
X0194945Y0024460D01*
X0195022Y0024328D01*
X0195097Y0024194D01*
X0195167Y0024058D01*
X0195235Y0023920D01*
X0195298Y0023781D01*
X0195358Y0023640D01*
X0195415Y0023498D01*
X0195467Y0023354D01*
X0195516Y0023209D01*
X0195561Y0023062D01*
X0195602Y0022915D01*
X0195640Y0022766D01*
X0195673Y0022617D01*
X0195703Y0022466D01*
X0195729Y0022315D01*
X0195750Y0022164D01*
X0195768Y0022012D01*
X0195782Y0021859D01*
X0195792Y0021706D01*
X0195798Y0021553D01*
X0195800Y0021400D01*
X0195798Y0021247D01*
X0195792Y0021094D01*
X0195782Y0020941D01*
X0195768Y0020788D01*
X0195750Y0020636D01*
X0195729Y0020485D01*
X0195703Y0020334D01*
X0195673Y0020183D01*
X0195640Y0020034D01*
X0195602Y0019885D01*
X0195561Y0019738D01*
X0195516Y0019591D01*
X0195467Y0019446D01*
X0195415Y0019302D01*
X0195358Y0019160D01*
X0195298Y0019019D01*
X0195235Y0018880D01*
X0195167Y0018742D01*
X0195097Y0018606D01*
X0195022Y0018472D01*
X0194945Y0018340D01*
X0194863Y0018210D01*
X0194779Y0018082D01*
X0194691Y0017957D01*
X0194600Y0017834D01*
X0194506Y0017713D01*
X0194409Y0017595D01*
X0194308Y0017479D01*
X0194205Y0017366D01*
X0194099Y0017255D01*
X0193990Y0017148D01*
X0193878Y0017043D01*
X0193764Y0016941D01*
X0193647Y0016842D01*
X0193527Y0016747D01*
X0193405Y0016654D01*
X0193281Y0016565D01*
X0193154Y0016478D01*
X0193025Y0016396D01*
X0192894Y0016316D01*
X0192761Y0016240D01*
X0192626Y0016168D01*
X0192489Y0016099D01*
X0192351Y0016033D01*
X0192211Y0015971D01*
X0192069Y0015913D01*
X0191926Y0015859D01*
X0191781Y0015808D01*
X0191636Y0015761D01*
X0191489Y0015718D01*
X0191341Y0015679D01*
X0191192Y0015643D01*
X0191042Y0015612D01*
X0190891Y0015584D01*
X0190740Y0015560D01*
X0190588Y0015540D01*
X0190435Y0015524D01*
X0190283Y0015512D01*
X0190130Y0015504D01*
X0189977Y0015500D01*
X0189823Y0015500D01*
X0189670Y0015504D01*
X0189517Y0015512D01*
X0189365Y0015524D01*
X0189212Y0015540D01*
X0189060Y0015560D01*
X0188909Y0015584D01*
X0188758Y0015612D01*
X0188608Y0015643D01*
X0188459Y0015679D01*
X0188311Y0015718D01*
X0188164Y0015761D01*
X0188019Y0015808D01*
X0187874Y0015859D01*
X0187731Y0015913D01*
X0187589Y0015971D01*
X0187449Y0016033D01*
X0187311Y0016099D01*
X0187174Y0016168D01*
X0187039Y0016240D01*
X0186906Y0016316D01*
X0186775Y0016396D01*
X0186646Y0016478D01*
X0186519Y0016565D01*
X0186395Y0016654D01*
X0186273Y0016747D01*
X0186153Y0016842D01*
X0186036Y0016941D01*
X0185922Y0017043D01*
X0185810Y0017148D01*
X0185701Y0017255D01*
X0185595Y0017366D01*
X0185492Y0017479D01*
X0185391Y0017595D01*
X0185294Y0017713D01*
X0185200Y0017834D01*
X0185109Y0017957D01*
X0185021Y0018082D01*
X0184937Y0018210D01*
X0184855Y0018340D01*
X0184778Y0018472D01*
X0184703Y0018606D01*
X0184633Y0018742D01*
X0184565Y0018880D01*
X0184502Y0019019D01*
X0184442Y0019160D01*
X0184385Y0019302D01*
X0184333Y0019446D01*
X0184284Y0019591D01*
X0184239Y0019738D01*
X0184198Y0019885D01*
X0184160Y0020034D01*
X0184127Y0020183D01*
X0184097Y0020334D01*
X0184071Y0020485D01*
X0184050Y0020636D01*
X0184032Y0020788D01*
X0184018Y0020941D01*
X0184008Y0021094D01*
X0184002Y0021247D01*
X0184000Y0021400D01*
D11*
X0151000Y0056000D03*
X0141000Y0056000D03*
X0056000Y0041433D03*
X0285567Y0053500D03*
X0308491Y0069153D03*
X0318491Y0069153D03*
X0163500Y0248067D03*
X0033500Y0271000D03*
X0023500Y0271000D03*
D12*
X0086250Y0266000D03*
X0115750Y0266000D03*
X0251250Y0266000D03*
X0280750Y0266000D03*
X0033500Y0125750D03*
X0033500Y0096250D03*
X0208750Y0028500D03*
X0238250Y0028500D03*
D13*
X0225034Y0087599D03*
X0225034Y0094292D03*
X0224629Y0127030D03*
X0224629Y0133723D03*
X0216431Y0133736D03*
X0216431Y0127043D03*
X0208282Y0127128D03*
X0208282Y0133821D03*
X0196824Y0162836D03*
X0196824Y0169529D03*
X0203847Y0180381D03*
X0203847Y0187074D03*
X0228461Y0187634D03*
X0228461Y0180941D03*
X0273291Y0121085D03*
X0273291Y0114392D03*
X0281426Y0114331D03*
X0281426Y0121024D03*
X0158500Y0079346D03*
X0158500Y0072654D03*
X0108500Y0080154D03*
X0108500Y0086846D03*
X0069356Y0143889D03*
X0069356Y0150582D03*
X0061099Y0150620D03*
X0061099Y0143927D03*
X0039042Y0171727D03*
X0039042Y0178420D03*
X0055390Y0198003D03*
X0055390Y0204696D03*
X0063801Y0204593D03*
X0063801Y0197901D03*
X0038500Y0205154D03*
X0038500Y0211846D03*
X0038500Y0222654D03*
X0038500Y0229346D03*
X0038500Y0242654D03*
X0038500Y0249346D03*
X0023500Y0224346D03*
X0023500Y0217654D03*
X0023500Y0206846D03*
X0023500Y0200154D03*
X0094154Y0165752D03*
X0094154Y0159059D03*
X0108500Y0154346D03*
X0108500Y0147654D03*
X0118500Y0147654D03*
X0118500Y0154346D03*
D14*
X0114311Y0169059D03*
X0107619Y0169059D03*
X0104823Y0187704D03*
X0098130Y0187704D03*
X0088095Y0200627D03*
X0081402Y0200627D03*
X0057390Y0177189D03*
X0050697Y0177189D03*
X0050678Y0167414D03*
X0057371Y0167414D03*
X0057400Y0159307D03*
X0050707Y0159307D03*
X0036846Y0158500D03*
X0030154Y0158500D03*
X0030198Y0170478D03*
X0023505Y0170478D03*
X0023571Y0178665D03*
X0030264Y0178665D03*
X0028520Y0187595D03*
X0035213Y0187595D03*
X0044730Y0187888D03*
X0051423Y0187888D03*
X0046445Y0196060D03*
X0039752Y0196060D03*
X0029346Y0238500D03*
X0022654Y0238500D03*
X0024346Y0253500D03*
X0017654Y0253500D03*
X0061733Y0134303D03*
X0068426Y0134303D03*
X0070154Y0076000D03*
X0076846Y0076000D03*
X0087654Y0076000D03*
X0094346Y0076000D03*
X0135154Y0076000D03*
X0141846Y0076000D03*
X0167654Y0076000D03*
X0174346Y0076000D03*
X0174346Y0086000D03*
X0167654Y0086000D03*
X0167654Y0096000D03*
X0174346Y0096000D03*
X0166846Y0121000D03*
X0160154Y0121000D03*
X0174529Y0145716D03*
X0181222Y0145716D03*
X0181150Y0153857D03*
X0174457Y0153857D03*
X0181460Y0162127D03*
X0188153Y0162127D03*
X0188107Y0170219D03*
X0181415Y0170219D03*
X0188473Y0179780D03*
X0195166Y0179780D03*
X0197292Y0153825D03*
X0190599Y0153825D03*
X0190694Y0145647D03*
X0197387Y0145647D03*
X0199539Y0136906D03*
X0192846Y0136906D03*
X0234945Y0148644D03*
X0241638Y0148644D03*
X0241730Y0156800D03*
X0235037Y0156800D03*
X0234936Y0164933D03*
X0241629Y0164933D03*
X0252498Y0097799D03*
X0259191Y0097799D03*
X0269569Y0097722D03*
X0276262Y0097722D03*
X0287818Y0097724D03*
X0294511Y0097724D03*
X0294906Y0083739D03*
X0288213Y0083739D03*
X0277206Y0083544D03*
X0270513Y0083544D03*
X0270178Y0074750D03*
X0263485Y0074750D03*
X0259965Y0083200D03*
X0253272Y0083200D03*
X0240390Y0087139D03*
X0233698Y0087139D03*
X0226846Y0071000D03*
X0220154Y0071000D03*
X0252654Y0056000D03*
X0259346Y0056000D03*
X0246846Y0236000D03*
X0240154Y0236000D03*
D15*
X0248380Y0125934D03*
X0081500Y0133500D03*
D16*
X0095500Y0133500D03*
X0248380Y0111934D03*
D17*
X0250103Y0150357D03*
X0250103Y0165318D03*
X0112679Y0178307D03*
X0112679Y0193267D03*
D18*
X0141866Y0121000D03*
X0150134Y0121000D03*
X0231866Y0228500D03*
X0240134Y0228500D03*
X0311326Y0111638D03*
X0319593Y0111638D03*
X0320134Y0098500D03*
X0311866Y0098500D03*
X0311605Y0083989D03*
X0319872Y0083989D03*
X0016000Y0186866D03*
X0016000Y0195134D03*
X0016000Y0211866D03*
X0016000Y0220134D03*
X0014865Y0237858D03*
X0014865Y0246125D03*
D19*
X0065550Y0192250D03*
X0065550Y0189750D03*
X0065550Y0187250D03*
X0065550Y0184750D03*
X0065550Y0182250D03*
X0065550Y0179750D03*
X0065550Y0177250D03*
X0065550Y0174750D03*
X0065550Y0172250D03*
X0065550Y0169750D03*
X0065550Y0167250D03*
X0065550Y0164750D03*
X0065550Y0162250D03*
X0065550Y0159750D03*
X0086450Y0159750D03*
X0086450Y0162250D03*
X0086450Y0164750D03*
X0086450Y0167250D03*
X0086450Y0169750D03*
X0086450Y0172250D03*
X0086450Y0174750D03*
X0086450Y0177250D03*
X0086450Y0179750D03*
X0086450Y0182250D03*
X0086450Y0184750D03*
X0086450Y0187250D03*
X0086450Y0189750D03*
X0086450Y0192250D03*
X0205550Y0174750D03*
X0205550Y0172250D03*
X0205550Y0169750D03*
X0205550Y0167250D03*
X0205550Y0164750D03*
X0205550Y0162250D03*
X0205550Y0159750D03*
X0205550Y0157250D03*
X0205550Y0154750D03*
X0205550Y0152250D03*
X0205550Y0149750D03*
X0205550Y0147250D03*
X0205550Y0144750D03*
X0205550Y0142250D03*
X0226450Y0142250D03*
X0226450Y0144750D03*
X0226450Y0147250D03*
X0226450Y0149750D03*
X0226450Y0152250D03*
X0226450Y0154750D03*
X0226450Y0157250D03*
X0226450Y0159750D03*
X0226450Y0162250D03*
X0226450Y0164750D03*
X0226450Y0167250D03*
X0226450Y0169750D03*
X0226450Y0172250D03*
X0226450Y0174750D03*
D20*
X0254958Y0092378D03*
X0256730Y0092378D03*
X0272614Y0092378D03*
X0274386Y0092378D03*
X0290114Y0092378D03*
X0291886Y0092378D03*
D21*
X0291000Y0089622D03*
X0273500Y0089622D03*
X0255844Y0089622D03*
D22*
X0229429Y0056739D03*
X0218011Y0056739D03*
X0260291Y0236000D03*
X0271709Y0236000D03*
X0111709Y0236000D03*
X0100291Y0236000D03*
D23*
X0061446Y0124209D03*
X0061446Y0112791D03*
X0168500Y0066709D03*
X0168500Y0055291D03*
D24*
X0071000Y0096000D03*
D25*
X0095803Y0087024D03*
X0095803Y0104976D03*
D26*
X0116000Y0105950D03*
X0116000Y0131050D03*
D27*
X0193450Y0108500D03*
X0218550Y0108500D03*
D28*
X0306433Y0053500D03*
X0163500Y0268933D03*
X0056000Y0020567D03*
D29*
X0201000Y0068500D03*
D30*
X0192024Y0093303D03*
X0209976Y0093303D03*
D31*
X0244880Y0076735D03*
X0244880Y0066735D03*
X0013500Y0158500D03*
X0013500Y0168500D03*
D32*
X0166059Y0115429D03*
X0171059Y0115429D03*
X0171059Y0106571D03*
X0168500Y0106571D03*
X0165941Y0106571D03*
D33*
X0133598Y0102555D03*
X0133598Y0093500D03*
X0133598Y0084445D03*
D34*
X0156000Y0093500D03*
D35*
X0032378Y0207614D03*
X0032378Y0209386D03*
X0032378Y0225114D03*
X0032378Y0226886D03*
X0032378Y0245114D03*
X0032378Y0246886D03*
D36*
X0029622Y0246000D03*
X0029622Y0226000D03*
X0029622Y0208500D03*
D37*
X0146000Y0177811D03*
X0278500Y0160311D03*
D38*
X0278500Y0136689D03*
X0146000Y0154189D03*
D39*
X0154400Y0155190D02*
X0169698Y0155190D01*
X0169698Y0157721D02*
X0169698Y0149993D01*
X0169940Y0149750D01*
X0169770Y0149580D01*
X0169770Y0141852D01*
X0171059Y0140563D01*
X0184692Y0140563D01*
X0185761Y0141632D01*
X0185831Y0141463D01*
X0186116Y0141037D01*
X0186478Y0140675D01*
X0186904Y0140391D01*
X0187377Y0140195D01*
X0187690Y0140132D01*
X0187687Y0140115D01*
X0187687Y0136906D01*
X0187687Y0133697D01*
X0187787Y0133195D01*
X0187983Y0132722D01*
X0188267Y0132296D01*
X0188629Y0131934D01*
X0189055Y0131649D01*
X0189528Y0131453D01*
X0190031Y0131353D01*
X0192846Y0131353D01*
X0195661Y0131353D01*
X0196163Y0131453D01*
X0196636Y0131649D01*
X0196792Y0131753D01*
X0203009Y0131753D01*
X0203129Y0131874D01*
X0203129Y0131074D01*
X0203025Y0130919D01*
X0202829Y0130445D01*
X0202729Y0129943D01*
X0202729Y0127128D01*
X0208282Y0127128D01*
X0208282Y0127128D01*
X0202729Y0127128D01*
X0202729Y0124313D01*
X0202829Y0123811D01*
X0202875Y0123700D01*
X0171605Y0123700D01*
X0171605Y0124864D01*
X0170317Y0126153D01*
X0165887Y0126153D01*
X0164510Y0127529D01*
X0163750Y0128289D01*
X0163718Y0128302D01*
X0163011Y0129010D01*
X0161706Y0129550D01*
X0160294Y0129550D01*
X0158989Y0129010D01*
X0157990Y0128011D01*
X0157450Y0126706D01*
X0157450Y0126153D01*
X0156683Y0126153D01*
X0155394Y0124864D01*
X0155394Y0123700D01*
X0154696Y0123700D01*
X0154696Y0124273D01*
X0153407Y0125562D01*
X0146860Y0125562D01*
X0146276Y0124978D01*
X0146248Y0125020D01*
X0145886Y0125382D01*
X0145460Y0125666D01*
X0144987Y0125862D01*
X0144484Y0125962D01*
X0141866Y0125962D01*
X0139248Y0125962D01*
X0138746Y0125862D01*
X0138272Y0125666D01*
X0137847Y0125382D01*
X0137484Y0125020D01*
X0137200Y0124594D01*
X0137004Y0124121D01*
X0136904Y0123618D01*
X0136904Y0121000D01*
X0141866Y0121000D01*
X0141866Y0121000D01*
X0136904Y0121000D01*
X0136904Y0118382D01*
X0137004Y0117879D01*
X0137200Y0117406D01*
X0137484Y0116980D01*
X0137847Y0116618D01*
X0138272Y0116334D01*
X0138746Y0116138D01*
X0139248Y0116038D01*
X0141866Y0116038D01*
X0141866Y0121000D01*
X0141866Y0125962D01*
X0141866Y0121000D01*
X0141866Y0121000D01*
X0141866Y0121000D01*
X0141866Y0116038D01*
X0144484Y0116038D01*
X0144987Y0116138D01*
X0145460Y0116334D01*
X0145886Y0116618D01*
X0146248Y0116980D01*
X0146276Y0117022D01*
X0146860Y0116438D01*
X0153407Y0116438D01*
X0154696Y0117727D01*
X0154696Y0118300D01*
X0155394Y0118300D01*
X0155394Y0117136D01*
X0156683Y0115847D01*
X0162659Y0115847D01*
X0162659Y0112415D01*
X0161624Y0111380D01*
X0160668Y0110423D01*
X0160150Y0109174D01*
X0160150Y0103180D01*
X0151152Y0103180D01*
X0149863Y0101892D01*
X0149863Y0096900D01*
X0139735Y0096900D01*
X0139735Y0097364D01*
X0139355Y0097745D01*
X0139555Y0097945D01*
X0139840Y0098371D01*
X0140036Y0098844D01*
X0140135Y0099346D01*
X0140135Y0102555D01*
X0133599Y0102555D01*
X0133599Y0102555D01*
X0140135Y0102555D01*
X0140135Y0105764D01*
X0140036Y0106266D01*
X0139840Y0106739D01*
X0139555Y0107165D01*
X0139193Y0107527D01*
X0138767Y0107812D01*
X0138294Y0108008D01*
X0137792Y0108108D01*
X0133598Y0108108D01*
X0131800Y0108108D01*
X0131800Y0119156D01*
X0131554Y0119750D01*
X0131800Y0120344D01*
X0131800Y0147600D01*
X0151676Y0147600D01*
X0152926Y0148118D01*
X0153882Y0149074D01*
X0154400Y0150324D01*
X0154400Y0159176D01*
X0153882Y0160426D01*
X0152926Y0161382D01*
X0151676Y0161900D01*
X0102824Y0161900D01*
X0101574Y0161382D01*
X0100618Y0160426D01*
X0100100Y0159176D01*
X0100100Y0151800D01*
X0092844Y0151800D01*
X0091631Y0151298D01*
X0090702Y0150369D01*
X0090200Y0149156D01*
X0090200Y0134685D01*
X0090150Y0134564D01*
X0090150Y0132436D01*
X0090200Y0132315D01*
X0090200Y0121741D01*
X0089750Y0121554D01*
X0089156Y0121800D01*
X0069300Y0121800D01*
X0069300Y0128751D01*
X0071241Y0128751D01*
X0071743Y0128851D01*
X0072216Y0129047D01*
X0072642Y0129331D01*
X0073004Y0129693D01*
X0073289Y0130119D01*
X0073485Y0130592D01*
X0073585Y0131095D01*
X0073585Y0134303D01*
X0069300Y0134303D01*
X0069300Y0134304D01*
X0073585Y0134304D01*
X0073585Y0137512D01*
X0073485Y0138015D01*
X0073289Y0138488D01*
X0073061Y0138829D01*
X0073067Y0138830D01*
X0073540Y0139026D01*
X0073966Y0139311D01*
X0074328Y0139673D01*
X0074613Y0140099D01*
X0074809Y0140572D01*
X0074909Y0141074D01*
X0074909Y0143889D01*
X0069356Y0143889D01*
X0069356Y0143889D01*
X0074909Y0143889D01*
X0074909Y0146704D01*
X0074809Y0147207D01*
X0074613Y0147680D01*
X0074509Y0147836D01*
X0074509Y0154053D01*
X0074107Y0154454D01*
X0075279Y0154939D01*
X0076160Y0155820D01*
X0076489Y0155490D01*
X0077794Y0154950D01*
X0079206Y0154950D01*
X0080511Y0155490D01*
X0080820Y0155800D01*
X0085737Y0155800D01*
X0086729Y0156211D01*
X0087368Y0156850D01*
X0088601Y0156850D01*
X0088601Y0156244D01*
X0088701Y0155742D01*
X0088897Y0155269D01*
X0089182Y0154843D01*
X0089544Y0154481D01*
X0089970Y0154196D01*
X0090443Y0154000D01*
X0090945Y0153900D01*
X0094154Y0153900D01*
X0097363Y0153900D01*
X0097865Y0154000D01*
X0098338Y0154196D01*
X0098764Y0154481D01*
X0099126Y0154843D01*
X0099411Y0155269D01*
X0099607Y0155742D01*
X0099707Y0156244D01*
X0099707Y0159059D01*
X0094154Y0159059D01*
X0094154Y0153900D01*
X0094154Y0159059D01*
X0094154Y0159059D01*
X0094154Y0159059D01*
X0099707Y0159059D01*
X0099707Y0161874D01*
X0099607Y0162377D01*
X0099411Y0162850D01*
X0099307Y0163006D01*
X0099307Y0165359D01*
X0100294Y0164950D01*
X0101706Y0164950D01*
X0102859Y0165428D01*
X0102859Y0165195D01*
X0104148Y0163907D01*
X0110365Y0163907D01*
X0110521Y0163802D01*
X0110994Y0163607D01*
X0111496Y0163507D01*
X0114311Y0163507D01*
X0114311Y0169059D01*
X0114312Y0169059D01*
X0114312Y0169059D01*
X0119471Y0169059D01*
X0119471Y0165851D01*
X0119371Y0165348D01*
X0119175Y0164875D01*
X0118890Y0164449D01*
X0118528Y0164087D01*
X0118102Y0163802D01*
X0117629Y0163607D01*
X0117127Y0163507D01*
X0114312Y0163507D01*
X0114312Y0169059D01*
X0119471Y0169059D01*
X0119471Y0172268D01*
X0119371Y0172770D01*
X0119175Y0173244D01*
X0118890Y0173670D01*
X0118528Y0174032D01*
X0118102Y0174316D01*
X0117629Y0174512D01*
X0117528Y0174532D01*
X0117635Y0174639D01*
X0117635Y0181974D01*
X0116347Y0183263D01*
X0109012Y0183263D01*
X0107724Y0181974D01*
X0107724Y0177169D01*
X0106407Y0175852D01*
X0104608Y0177651D01*
X0104608Y0180013D01*
X0104197Y0181006D01*
X0103437Y0181765D01*
X0103257Y0181945D01*
X0103319Y0182007D01*
X0103863Y0182552D01*
X0108294Y0182552D01*
X0109582Y0183840D01*
X0109582Y0188311D01*
X0116347Y0188311D01*
X0117635Y0189600D01*
X0117635Y0196934D01*
X0116347Y0198223D01*
X0109012Y0198223D01*
X0107724Y0196934D01*
X0107724Y0194423D01*
X0106158Y0192857D01*
X0095977Y0192857D01*
X0095761Y0193379D01*
X0094579Y0194561D01*
X0093035Y0195200D01*
X0091365Y0195200D01*
X0090795Y0194964D01*
X0090795Y0195474D01*
X0091565Y0195474D01*
X0092854Y0196763D01*
X0092854Y0197489D01*
X0093461Y0198394D01*
X0095313Y0207631D01*
X0097104Y0209422D01*
X0098200Y0212068D01*
X0098200Y0214932D01*
X0097104Y0217578D01*
X0095078Y0219604D01*
X0092432Y0220700D01*
X0089568Y0220700D01*
X0086922Y0219604D01*
X0084491Y0217174D01*
X0083395Y0214527D01*
X0083395Y0211663D01*
X0084136Y0209875D01*
X0083395Y0206179D01*
X0081402Y0206179D01*
X0078587Y0206179D01*
X0078085Y0206080D01*
X0077612Y0205884D01*
X0077186Y0205599D01*
X0076824Y0205237D01*
X0076539Y0204811D01*
X0076343Y0204338D01*
X0076243Y0203836D01*
X0076243Y0200627D01*
X0081402Y0200627D01*
X0081402Y0206179D01*
X0081402Y0200627D01*
X0081402Y0200627D01*
X0081402Y0200627D01*
X0076243Y0200627D01*
X0076243Y0197418D01*
X0076343Y0196916D01*
X0076539Y0196442D01*
X0076824Y0196017D01*
X0077186Y0195654D01*
X0077612Y0195370D01*
X0078085Y0195174D01*
X0078587Y0195074D01*
X0081402Y0195074D01*
X0081402Y0200627D01*
X0081402Y0200627D01*
X0081402Y0195074D01*
X0082313Y0195074D01*
X0081100Y0193861D01*
X0081100Y0178420D01*
X0080511Y0179010D01*
X0079206Y0179550D01*
X0077794Y0179550D01*
X0076489Y0179010D01*
X0075490Y0178011D01*
X0074950Y0176706D01*
X0074950Y0175294D01*
X0075490Y0173989D01*
X0075800Y0173680D01*
X0075800Y0170346D01*
X0074661Y0169207D01*
X0074525Y0168878D01*
X0074113Y0169289D01*
X0073121Y0169700D01*
X0072500Y0169700D01*
X0072500Y0176443D01*
X0072089Y0177435D01*
X0071329Y0178195D01*
X0071205Y0178319D01*
X0071300Y0178794D01*
X0071300Y0179750D01*
X0071300Y0180706D01*
X0071205Y0181181D01*
X0071445Y0181421D01*
X0072089Y0182065D01*
X0072500Y0183057D01*
X0072500Y0186443D01*
X0072287Y0186956D01*
X0072665Y0186800D01*
X0074335Y0186800D01*
X0075879Y0187439D01*
X0077061Y0188621D01*
X0077700Y0190165D01*
X0077700Y0191835D01*
X0077061Y0193379D01*
X0075879Y0194561D01*
X0074335Y0195200D01*
X0072665Y0195200D01*
X0072061Y0194950D01*
X0069811Y0194950D01*
X0069611Y0195150D01*
X0068954Y0195150D01*
X0068954Y0200647D01*
X0069058Y0200803D01*
X0069254Y0201276D01*
X0069354Y0201778D01*
X0069354Y0204593D01*
X0063801Y0204593D01*
X0063801Y0204593D01*
X0069354Y0204593D01*
X0069354Y0207409D01*
X0069254Y0207911D01*
X0069058Y0208384D01*
X0068773Y0208810D01*
X0068411Y0209172D01*
X0067985Y0209457D01*
X0067512Y0209653D01*
X0067010Y0209752D01*
X0063801Y0209752D01*
X0063801Y0204594D01*
X0063801Y0204594D01*
X0063801Y0209752D01*
X0060592Y0209752D01*
X0060090Y0209653D01*
X0059685Y0209485D01*
X0059575Y0209559D01*
X0059102Y0209755D01*
X0058599Y0209855D01*
X0056381Y0209855D01*
X0063379Y0216853D01*
X0064561Y0218035D01*
X0065200Y0219578D01*
X0065200Y0227191D01*
X0065381Y0227629D01*
X0065381Y0229371D01*
X0064714Y0230982D01*
X0063482Y0232214D01*
X0063044Y0232395D01*
X0052329Y0243111D01*
X0052050Y0243226D01*
X0052050Y0244206D01*
X0051510Y0245511D01*
X0050511Y0246510D01*
X0049206Y0247050D01*
X0048768Y0247050D01*
X0044942Y0250876D01*
X0044183Y0251635D01*
X0043653Y0251855D01*
X0043653Y0252817D01*
X0042364Y0254105D01*
X0034636Y0254105D01*
X0033347Y0252817D01*
X0033347Y0251651D01*
X0033309Y0251635D01*
X0032550Y0250876D01*
X0031252Y0249578D01*
X0029047Y0249578D01*
X0029105Y0249636D01*
X0029105Y0257364D01*
X0027817Y0258653D01*
X0026200Y0258653D01*
X0026200Y0265551D01*
X0028217Y0267568D01*
X0030948Y0264838D01*
X0033500Y0264838D01*
X0036052Y0264838D01*
X0039662Y0268448D01*
X0039662Y0271000D01*
X0039662Y0273552D01*
X0036052Y0277162D01*
X0033500Y0277162D01*
X0033500Y0271000D01*
X0033500Y0271000D01*
X0039662Y0271000D01*
X0033500Y0271000D01*
X0033500Y0271000D01*
X0033500Y0277162D01*
X0030948Y0277162D01*
X0028217Y0274432D01*
X0025887Y0276762D01*
X0021113Y0276762D01*
X0017738Y0273387D01*
X0017738Y0268613D01*
X0020800Y0265551D01*
X0020800Y0258653D01*
X0014183Y0258653D01*
X0012894Y0257364D01*
X0012894Y0250688D01*
X0011592Y0250688D01*
X0010303Y0249399D01*
X0010303Y0242852D01*
X0010888Y0242267D01*
X0010846Y0242239D01*
X0010484Y0241877D01*
X0010199Y0241451D01*
X0010003Y0240978D01*
X0009903Y0240476D01*
X0009903Y0237858D01*
X0014865Y0237858D01*
X0014865Y0237858D01*
X0009903Y0237858D01*
X0009903Y0235239D01*
X0010003Y0234737D01*
X0010199Y0234264D01*
X0010484Y0233838D01*
X0010846Y0233476D01*
X0011272Y0233191D01*
X0011745Y0232995D01*
X0012247Y0232895D01*
X0014865Y0232895D01*
X0014865Y0237857D01*
X0014865Y0237857D01*
X0014865Y0232895D01*
X0017484Y0232895D01*
X0017986Y0232995D01*
X0018459Y0233191D01*
X0018885Y0233476D01*
X0018970Y0233561D01*
X0019183Y0233347D01*
X0032817Y0233347D01*
X0034105Y0234636D01*
X0034105Y0238425D01*
X0034636Y0237894D01*
X0042364Y0237894D01*
X0042472Y0238002D01*
X0044485Y0235989D01*
X0046028Y0235350D01*
X0048210Y0235350D01*
X0055060Y0228500D01*
X0053414Y0226854D01*
X0049160Y0226854D01*
X0049550Y0227794D01*
X0049550Y0229206D01*
X0049010Y0230511D01*
X0048011Y0231510D01*
X0046706Y0232050D01*
X0045294Y0232050D01*
X0045285Y0232046D01*
X0043653Y0232046D01*
X0043653Y0232817D01*
X0042364Y0234105D01*
X0034636Y0234105D01*
X0033347Y0232817D01*
X0033347Y0231651D01*
X0033309Y0231635D01*
X0032550Y0230876D01*
X0031252Y0229578D01*
X0027923Y0229578D01*
X0027407Y0229062D01*
X0027364Y0229105D01*
X0019636Y0229105D01*
X0018347Y0227817D01*
X0018347Y0224696D01*
X0012727Y0224696D01*
X0011438Y0223407D01*
X0011438Y0216860D01*
X0012022Y0216276D01*
X0011980Y0216248D01*
X0011618Y0215886D01*
X0011334Y0215460D01*
X0011138Y0214987D01*
X0011038Y0214484D01*
X0011038Y0211866D01*
X0011038Y0209248D01*
X0011138Y0208746D01*
X0011334Y0208272D01*
X0011618Y0207847D01*
X0011980Y0207484D01*
X0012406Y0207200D01*
X0012879Y0207004D01*
X0013382Y0206904D01*
X0016000Y0206904D01*
X0018347Y0206904D01*
X0018347Y0199696D01*
X0012727Y0199696D01*
X0011438Y0198407D01*
X0011438Y0191860D01*
X0012022Y0191276D01*
X0011980Y0191248D01*
X0011618Y0190886D01*
X0011334Y0190460D01*
X0011138Y0189987D01*
X0011038Y0189484D01*
X0011038Y0186866D01*
X0011038Y0184248D01*
X0011138Y0183746D01*
X0011334Y0183272D01*
X0011618Y0182847D01*
X0011980Y0182484D01*
X0012406Y0182200D01*
X0012879Y0182004D01*
X0013382Y0181904D01*
X0016000Y0181904D01*
X0018618Y0181904D01*
X0018812Y0181943D01*
X0018812Y0174801D01*
X0019009Y0174605D01*
X0018746Y0174342D01*
X0018746Y0166614D01*
X0020034Y0165325D01*
X0026251Y0165325D01*
X0026407Y0165221D01*
X0026880Y0165025D01*
X0027383Y0164925D01*
X0030198Y0164925D01*
X0033013Y0164925D01*
X0033515Y0165025D01*
X0033988Y0165221D01*
X0034414Y0165506D01*
X0034776Y0165868D01*
X0035061Y0166294D01*
X0035233Y0166708D01*
X0035331Y0166668D01*
X0035833Y0166568D01*
X0039042Y0166568D01*
X0039042Y0171727D01*
X0039042Y0171727D01*
X0039042Y0166568D01*
X0042251Y0166568D01*
X0042753Y0166668D01*
X0043226Y0166864D01*
X0043652Y0167148D01*
X0044014Y0167510D01*
X0044299Y0167936D01*
X0044495Y0168409D01*
X0044595Y0168912D01*
X0044595Y0170143D01*
X0045490Y0169248D01*
X0045519Y0169235D01*
X0045519Y0167414D01*
X0050678Y0167414D01*
X0050678Y0167414D01*
X0045519Y0167414D01*
X0045519Y0164205D01*
X0045619Y0163703D01*
X0045776Y0163325D01*
X0045648Y0163018D01*
X0045548Y0162515D01*
X0045548Y0159307D01*
X0050707Y0159307D01*
X0050707Y0159307D01*
X0045548Y0159307D01*
X0045548Y0156098D01*
X0045648Y0155595D01*
X0045844Y0155122D01*
X0046129Y0154696D01*
X0046491Y0154334D01*
X0046917Y0154050D01*
X0047390Y0153854D01*
X0047892Y0153754D01*
X0050707Y0153754D01*
X0050707Y0159307D01*
X0050708Y0159307D01*
X0050708Y0153754D01*
X0053523Y0153754D01*
X0054025Y0153854D01*
X0054498Y0154050D01*
X0054654Y0154154D01*
X0056010Y0154154D01*
X0055947Y0154090D01*
X0055947Y0147873D01*
X0055842Y0147718D01*
X0055646Y0147244D01*
X0055547Y0146742D01*
X0055547Y0143927D01*
X0061099Y0143927D01*
X0061099Y0143927D01*
X0055547Y0143927D01*
X0055547Y0141800D01*
X0049182Y0141800D01*
X0049600Y0142810D01*
X0049600Y0146390D01*
X0048230Y0149698D01*
X0045698Y0152230D01*
X0042390Y0153600D01*
X0041135Y0153600D01*
X0041425Y0153890D01*
X0041710Y0154316D01*
X0041906Y0154789D01*
X0042005Y0155291D01*
X0042005Y0158500D01*
X0042005Y0161709D01*
X0041906Y0162211D01*
X0041710Y0162684D01*
X0041425Y0163110D01*
X0041063Y0163472D01*
X0040637Y0163757D01*
X0040164Y0163953D01*
X0039662Y0164053D01*
X0036847Y0164053D01*
X0036847Y0158500D01*
X0042005Y0158500D01*
X0036847Y0158500D01*
X0036847Y0158500D01*
X0036846Y0158500D01*
X0036846Y0164053D01*
X0034753Y0164053D01*
X0034156Y0164300D01*
X0012844Y0164300D01*
X0011631Y0163798D01*
X0010702Y0162869D01*
X0010200Y0161656D01*
X0010200Y0160983D01*
X0010034Y0160816D01*
X0009411Y0159313D01*
X0009411Y0157687D01*
X0010034Y0156184D01*
X0010200Y0156017D01*
X0010200Y0117844D01*
X0010702Y0116631D01*
X0011631Y0115702D01*
X0015340Y0111993D01*
X0015200Y0111656D01*
X0015200Y0080344D01*
X0015702Y0079131D01*
X0016631Y0078202D01*
X0017844Y0077700D01*
X0031600Y0077700D01*
X0031600Y0075610D01*
X0032970Y0072302D01*
X0035502Y0069770D01*
X0038810Y0068400D01*
X0042390Y0068400D01*
X0045698Y0069770D01*
X0048230Y0072302D01*
X0049600Y0075610D01*
X0049600Y0077700D01*
X0065394Y0077700D01*
X0065394Y0072136D01*
X0066683Y0070847D01*
X0074046Y0070847D01*
X0074046Y0063439D01*
X0057802Y0047195D01*
X0053613Y0047195D01*
X0050238Y0043820D01*
X0050238Y0039046D01*
X0053613Y0035671D01*
X0058387Y0035671D01*
X0061762Y0039046D01*
X0061762Y0043235D01*
X0078433Y0059906D01*
X0079220Y0060693D01*
X0079646Y0061723D01*
X0079646Y0070847D01*
X0080317Y0070847D01*
X0081605Y0072136D01*
X0081605Y0073300D01*
X0082894Y0073300D01*
X0082894Y0072136D01*
X0084183Y0070847D01*
X0097817Y0070847D01*
X0099105Y0072136D01*
X0099105Y0079864D01*
X0097817Y0081153D01*
X0097046Y0081153D01*
X0097046Y0082461D01*
X0101045Y0082461D01*
X0102334Y0083750D01*
X0102334Y0084146D01*
X0103347Y0084146D01*
X0103347Y0084100D01*
X0103243Y0083944D01*
X0103047Y0083471D01*
X0102947Y0082969D01*
X0102947Y0080154D01*
X0108500Y0080154D01*
X0114053Y0080154D01*
X0114053Y0082969D01*
X0113953Y0083471D01*
X0113757Y0083944D01*
X0113653Y0084100D01*
X0113653Y0090317D01*
X0112364Y0091605D01*
X0104636Y0091605D01*
X0103347Y0090317D01*
X0103347Y0089546D01*
X0102334Y0089546D01*
X0102334Y0090297D01*
X0101045Y0091586D01*
X0091800Y0091586D01*
X0091800Y0092700D01*
X0127461Y0092700D01*
X0127461Y0089636D01*
X0128125Y0088972D01*
X0127461Y0088309D01*
X0127461Y0080581D01*
X0128750Y0079292D01*
X0129398Y0079292D01*
X0129398Y0070046D01*
X0129119Y0069371D01*
X0129119Y0067629D01*
X0129786Y0066018D01*
X0131018Y0064786D01*
X0132629Y0064119D01*
X0134371Y0064119D01*
X0135982Y0064786D01*
X0137214Y0066018D01*
X0137881Y0067629D01*
X0137881Y0069371D01*
X0137798Y0069571D01*
X0137798Y0070847D01*
X0137900Y0070847D01*
X0138056Y0070743D01*
X0138529Y0070547D01*
X0139031Y0070447D01*
X0141846Y0070447D01*
X0141846Y0076000D01*
X0141846Y0081553D01*
X0139735Y0081553D01*
X0139735Y0088309D01*
X0139072Y0088972D01*
X0139735Y0089636D01*
X0139735Y0090100D01*
X0149863Y0090100D01*
X0149863Y0085108D01*
X0151152Y0083820D01*
X0153300Y0083820D01*
X0153300Y0081309D01*
X0153347Y0081195D01*
X0153347Y0076600D01*
X0153243Y0076444D01*
X0153047Y0075971D01*
X0152947Y0075469D01*
X0152947Y0072654D01*
X0158500Y0072654D01*
X0158500Y0072653D01*
X0158500Y0067494D01*
X0158676Y0067494D01*
X0152944Y0061762D01*
X0148613Y0061762D01*
X0146283Y0059432D01*
X0143552Y0062162D01*
X0141000Y0062162D01*
X0141000Y0056000D01*
X0141000Y0056000D01*
X0141000Y0049838D01*
X0143552Y0049838D01*
X0146283Y0052568D01*
X0148613Y0050238D01*
X0153387Y0050238D01*
X0156762Y0053613D01*
X0156762Y0057944D01*
X0162222Y0063403D01*
X0163544Y0063528D01*
X0163544Y0063238D01*
X0164833Y0061950D01*
X0172167Y0061950D01*
X0173456Y0063238D01*
X0173456Y0067846D01*
X0176457Y0070847D01*
X0177817Y0070847D01*
X0178200Y0071230D01*
X0178200Y0006000D01*
X0008500Y0006000D01*
X0006000Y0298500D01*
X0326000Y0298500D01*
X0328500Y0006000D01*
X0261300Y0006000D01*
X0261300Y0013398D01*
X0262198Y0013770D01*
X0264730Y0016302D01*
X0266100Y0019610D01*
X0266100Y0023190D01*
X0264730Y0026498D01*
X0262198Y0029030D01*
X0261300Y0029402D01*
X0261300Y0050447D01*
X0262162Y0050447D01*
X0262664Y0050547D01*
X0263137Y0050743D01*
X0263563Y0051028D01*
X0263925Y0051390D01*
X0264210Y0051816D01*
X0264406Y0052289D01*
X0264505Y0052791D01*
X0264505Y0056000D01*
X0264505Y0059205D01*
X0271740Y0051971D01*
X0272500Y0051211D01*
X0273492Y0050800D01*
X0280118Y0050800D01*
X0283180Y0047738D01*
X0287954Y0047738D01*
X0291329Y0051113D01*
X0291329Y0055887D01*
X0287954Y0059262D01*
X0283180Y0059262D01*
X0280118Y0056200D01*
X0275147Y0056200D01*
X0261750Y0069597D01*
X0264445Y0069597D01*
X0264875Y0069168D01*
X0265634Y0068408D01*
X0266627Y0067997D01*
X0302729Y0067997D01*
X0302729Y0066767D01*
X0306105Y0063391D01*
X0310878Y0063391D01*
X0313208Y0065722D01*
X0315939Y0062991D01*
X0318491Y0062991D01*
X0318491Y0069153D01*
X0318491Y0069153D01*
X0318491Y0062991D01*
X0321044Y0062991D01*
X0324654Y0066601D01*
X0324654Y0069153D01*
X0318491Y0069153D01*
X0318491Y0069153D01*
X0318491Y0069154D02*
X0318491Y0075316D01*
X0315939Y0075316D01*
X0313208Y0072585D01*
X0310878Y0074916D01*
X0306350Y0074916D01*
X0310861Y0079427D01*
X0314878Y0079427D01*
X0315463Y0080011D01*
X0315491Y0079969D01*
X0315853Y0079607D01*
X0316279Y0079322D01*
X0316752Y0079127D01*
X0317254Y0079027D01*
X0319872Y0079027D01*
X0319872Y0083989D01*
X0319872Y0088951D01*
X0317254Y0088951D01*
X0316752Y0088851D01*
X0316279Y0088655D01*
X0315853Y0088371D01*
X0315491Y0088008D01*
X0315463Y0087966D01*
X0314878Y0088551D01*
X0312369Y0088551D01*
X0312529Y0088711D01*
X0313289Y0089471D01*
X0313700Y0090463D01*
X0313700Y0093938D01*
X0315140Y0093938D01*
X0315724Y0094522D01*
X0315752Y0094480D01*
X0316114Y0094118D01*
X0316540Y0093834D01*
X0317013Y0093638D01*
X0317516Y0093538D01*
X0320134Y0093538D01*
X0322752Y0093538D01*
X0323254Y0093638D01*
X0323728Y0093834D01*
X0324153Y0094118D01*
X0324516Y0094480D01*
X0324800Y0094906D01*
X0324996Y0095379D01*
X0325096Y0095882D01*
X0325096Y0098500D01*
X0325096Y0101118D01*
X0324996Y0101621D01*
X0324800Y0102094D01*
X0324516Y0102520D01*
X0324153Y0102882D01*
X0323728Y0103166D01*
X0323254Y0103362D01*
X0322752Y0103462D01*
X0320134Y0103462D01*
X0320134Y0098500D01*
X0325096Y0098500D01*
X0320134Y0098500D01*
X0320134Y0098500D01*
X0320134Y0098500D01*
X0320134Y0093538D01*
X0320134Y0098500D01*
X0320134Y0098500D01*
X0320134Y0103462D01*
X0317516Y0103462D01*
X0317013Y0103362D01*
X0316540Y0103166D01*
X0316114Y0102882D01*
X0315752Y0102520D01*
X0315724Y0102478D01*
X0315140Y0103062D01*
X0308593Y0103062D01*
X0307304Y0101773D01*
X0307304Y0095227D01*
X0308300Y0094230D01*
X0308300Y0092118D01*
X0299665Y0083483D01*
X0299665Y0084882D01*
X0302479Y0087696D01*
X0303239Y0088456D01*
X0303650Y0089448D01*
X0303650Y0100144D01*
X0310582Y0107076D01*
X0314599Y0107076D01*
X0315184Y0107660D01*
X0315212Y0107618D01*
X0315574Y0107256D01*
X0316000Y0106971D01*
X0316473Y0106775D01*
X0316975Y0106676D01*
X0319593Y0106676D01*
X0319593Y0111638D01*
X0319593Y0116600D01*
X0316975Y0116600D01*
X0316473Y0116500D01*
X0316000Y0116304D01*
X0315574Y0116020D01*
X0315212Y0115657D01*
X0315184Y0115615D01*
X0314599Y0116200D01*
X0308052Y0116200D01*
X0306763Y0114911D01*
X0306763Y0110894D01*
X0299421Y0103551D01*
X0298661Y0102792D01*
X0298487Y0102371D01*
X0297982Y0102876D01*
X0286484Y0102876D01*
X0284644Y0104716D01*
X0285078Y0104896D01*
X0287104Y0106922D01*
X0288200Y0109568D01*
X0288200Y0112432D01*
X0287882Y0113200D01*
X0292054Y0113200D01*
X0294002Y0114007D01*
X0295493Y0115498D01*
X0296300Y0117446D01*
X0296300Y0144554D01*
X0295493Y0146502D01*
X0294002Y0147993D01*
X0292054Y0148800D01*
X0264946Y0148800D01*
X0262998Y0147993D01*
X0261507Y0146502D01*
X0260700Y0144554D01*
X0260700Y0138700D01*
X0239618Y0138700D01*
X0237645Y0140673D01*
X0237645Y0143491D01*
X0237692Y0143491D01*
X0237847Y0143387D01*
X0238320Y0143191D01*
X0238823Y0143091D01*
X0241638Y0143091D01*
X0244453Y0143091D01*
X0244955Y0143191D01*
X0245429Y0143387D01*
X0245854Y0143672D01*
X0246217Y0144034D01*
X0246501Y0144460D01*
X0246697Y0144933D01*
X0246790Y0145401D01*
X0253770Y0145401D01*
X0255059Y0146690D01*
X0255059Y0154024D01*
X0253770Y0155313D01*
X0248573Y0155313D01*
X0248250Y0155447D01*
X0246889Y0155447D01*
X0246889Y0156800D01*
X0246889Y0160009D01*
X0246818Y0160362D01*
X0253266Y0160362D01*
X0254464Y0159866D01*
X0255877Y0159866D01*
X0257181Y0160406D01*
X0258180Y0161405D01*
X0258721Y0162709D01*
X0258721Y0164122D01*
X0258180Y0165427D01*
X0257181Y0166425D01*
X0256659Y0166642D01*
X0256659Y0169066D01*
X0256248Y0170059D01*
X0255603Y0170703D01*
X0254844Y0171463D01*
X0253851Y0171874D01*
X0244109Y0171874D01*
X0244539Y0172911D01*
X0244539Y0175313D01*
X0243619Y0177533D01*
X0241921Y0179232D01*
X0239701Y0180151D01*
X0237312Y0180151D01*
X0233679Y0183784D01*
X0233718Y0183843D01*
X0233914Y0184316D01*
X0234014Y0184819D01*
X0234014Y0187634D01*
X0234014Y0190449D01*
X0233914Y0190951D01*
X0233718Y0191424D01*
X0233434Y0191850D01*
X0233072Y0192212D01*
X0232646Y0192497D01*
X0232173Y0192693D01*
X0231670Y0192793D01*
X0228461Y0192793D01*
X0225253Y0192793D01*
X0224750Y0192693D01*
X0224277Y0192497D01*
X0223851Y0192212D01*
X0223489Y0191850D01*
X0223205Y0191424D01*
X0223009Y0190951D01*
X0222909Y0190449D01*
X0222909Y0187634D01*
X0228461Y0187634D01*
X0228461Y0187634D01*
X0228461Y0192793D01*
X0228461Y0187634D01*
X0228461Y0187634D01*
X0222909Y0187634D01*
X0222909Y0184819D01*
X0223009Y0184316D01*
X0223205Y0183843D01*
X0223309Y0183687D01*
X0223309Y0183396D01*
X0222761Y0182075D01*
X0222761Y0179807D01*
X0223309Y0178486D01*
X0223309Y0177650D01*
X0222389Y0177650D01*
X0221100Y0176361D01*
X0221100Y0162050D01*
X0220294Y0162050D01*
X0218989Y0161510D01*
X0217990Y0160511D01*
X0217450Y0159206D01*
X0217450Y0157794D01*
X0217726Y0157129D01*
X0217563Y0157061D01*
X0216331Y0155829D01*
X0215664Y0154219D01*
X0215664Y0152476D01*
X0216188Y0151209D01*
X0215763Y0150783D01*
X0213607Y0152939D01*
X0212615Y0153350D01*
X0212500Y0153350D01*
X0212500Y0158943D01*
X0212089Y0159935D01*
X0211445Y0160579D01*
X0211205Y0160819D01*
X0211300Y0161294D01*
X0211300Y0162250D01*
X0211300Y0162450D01*
X0211706Y0162450D01*
X0213011Y0162990D01*
X0214010Y0163989D01*
X0214550Y0165294D01*
X0214550Y0166706D01*
X0214010Y0168011D01*
X0213323Y0168698D01*
X0213289Y0168779D01*
X0212529Y0169539D01*
X0211537Y0169950D01*
X0210900Y0169950D01*
X0210900Y0176361D01*
X0209611Y0177650D01*
X0208999Y0177650D01*
X0208999Y0183128D01*
X0209104Y0183283D01*
X0209299Y0183757D01*
X0209399Y0184259D01*
X0209399Y0187074D01*
X0209399Y0189889D01*
X0209299Y0190391D01*
X0209104Y0190865D01*
X0208819Y0191290D01*
X0208457Y0191653D01*
X0208031Y0191937D01*
X0207558Y0192133D01*
X0207055Y0192233D01*
X0203847Y0192233D01*
X0203847Y0187074D01*
X0209399Y0187074D01*
X0203847Y0187074D01*
X0203847Y0187074D01*
X0203847Y0187074D01*
X0203847Y0192233D01*
X0200638Y0192233D01*
X0200136Y0192133D01*
X0199662Y0191937D01*
X0199237Y0191653D01*
X0198874Y0191290D01*
X0198590Y0190865D01*
X0198394Y0190391D01*
X0198294Y0189889D01*
X0198294Y0187074D01*
X0198294Y0184933D01*
X0192420Y0184933D01*
X0192264Y0185037D01*
X0191791Y0185233D01*
X0191288Y0185333D01*
X0188473Y0185333D01*
X0185658Y0185333D01*
X0185156Y0185233D01*
X0184683Y0185037D01*
X0184257Y0184753D01*
X0183895Y0184390D01*
X0183610Y0183965D01*
X0183414Y0183491D01*
X0183314Y0182989D01*
X0183314Y0179780D01*
X0183314Y0176571D01*
X0183414Y0176069D01*
X0183537Y0175772D01*
X0181415Y0175772D01*
X0181415Y0170219D01*
X0181414Y0170219D01*
X0176255Y0170219D01*
X0176255Y0167010D01*
X0176355Y0166508D01*
X0176517Y0166118D01*
X0176401Y0165838D01*
X0176301Y0165336D01*
X0176301Y0162127D01*
X0176301Y0159010D01*
X0170986Y0159010D01*
X0169698Y0157721D01*
X0170365Y0158388D02*
X0154400Y0158388D01*
X0152432Y0161587D02*
X0176301Y0161587D01*
X0176301Y0162127D02*
X0181460Y0162127D01*
X0181460Y0162127D01*
X0176301Y0162127D01*
X0176301Y0164785D02*
X0119115Y0164785D01*
X0119471Y0167984D02*
X0176255Y0167984D01*
X0176255Y0170219D02*
X0181414Y0170219D01*
X0181414Y0170219D01*
X0181414Y0175772D01*
X0178599Y0175772D01*
X0178097Y0175672D01*
X0177624Y0175476D01*
X0177198Y0175191D01*
X0176836Y0174829D01*
X0176551Y0174403D01*
X0176355Y0173930D01*
X0176255Y0173428D01*
X0176255Y0170219D01*
X0176255Y0171182D02*
X0119471Y0171182D01*
X0117946Y0174381D02*
X0140631Y0174381D01*
X0140631Y0173731D02*
X0141920Y0172443D01*
X0150080Y0172443D01*
X0151368Y0173731D01*
X0151368Y0181891D01*
X0150080Y0183180D01*
X0141920Y0183180D01*
X0140631Y0181891D01*
X0140631Y0173731D01*
X0140631Y0177579D02*
X0117635Y0177579D01*
X0117635Y0180778D02*
X0140631Y0180778D01*
X0151368Y0180778D02*
X0183314Y0180778D01*
X0183314Y0179780D02*
X0188473Y0179780D01*
X0183314Y0179780D01*
X0183314Y0177579D02*
X0151368Y0177579D01*
X0151368Y0174381D02*
X0176542Y0174381D01*
X0181414Y0174381D02*
X0181415Y0174381D01*
X0181414Y0171182D02*
X0181415Y0171182D01*
X0188473Y0179780D02*
X0188473Y0179780D01*
X0188473Y0185333D01*
X0188473Y0179780D01*
X0188473Y0179780D01*
X0188473Y0180778D02*
X0188473Y0180778D01*
X0188473Y0183976D02*
X0188473Y0183976D01*
X0183618Y0183976D02*
X0109582Y0183976D01*
X0109582Y0187175D02*
X0198294Y0187175D01*
X0198294Y0187074D02*
X0203847Y0187074D01*
X0198294Y0187074D01*
X0198390Y0190373D02*
X0117635Y0190373D01*
X0117635Y0193572D02*
X0326897Y0193572D01*
X0326869Y0196770D02*
X0117635Y0196770D01*
X0107724Y0196770D02*
X0092854Y0196770D01*
X0093777Y0199969D02*
X0326842Y0199969D01*
X0326815Y0203168D02*
X0094418Y0203168D01*
X0095059Y0206366D02*
X0326787Y0206366D01*
X0326760Y0209565D02*
X0097163Y0209565D01*
X0098200Y0212763D02*
X0326733Y0212763D01*
X0326705Y0215962D02*
X0097774Y0215962D01*
X0095522Y0219160D02*
X0326678Y0219160D01*
X0326651Y0222359D02*
X0065200Y0222359D01*
X0065200Y0225557D02*
X0226969Y0225557D01*
X0227004Y0225379D02*
X0227200Y0224906D01*
X0227484Y0224480D01*
X0227847Y0224118D01*
X0228272Y0223834D01*
X0228746Y0223638D01*
X0229248Y0223538D01*
X0231866Y0223538D01*
X0231866Y0228500D01*
X0231866Y0228500D01*
X0226904Y0228500D01*
X0226904Y0231118D01*
X0227004Y0231621D01*
X0227200Y0232094D01*
X0227484Y0232520D01*
X0227847Y0232882D01*
X0228272Y0233166D01*
X0228746Y0233362D01*
X0229248Y0233462D01*
X0231866Y0233462D01*
X0231866Y0228500D01*
X0226904Y0228500D01*
X0226904Y0225882D01*
X0227004Y0225379D01*
X0226904Y0228756D02*
X0118234Y0228756D01*
X0120539Y0230443D02*
X0121245Y0230735D01*
X0122082Y0231572D01*
X0123037Y0232272D01*
X0123433Y0232924D01*
X0123973Y0233464D01*
X0124426Y0234558D01*
X0125041Y0235569D01*
X0125158Y0236324D01*
X0125450Y0237029D01*
X0125450Y0238213D01*
X0125631Y0239383D01*
X0125450Y0240125D01*
X0125450Y0255145D01*
X0127381Y0257076D01*
X0129294Y0260390D01*
X0130285Y0264086D01*
X0130285Y0265146D01*
X0132810Y0264100D01*
X0136390Y0264100D01*
X0139698Y0265470D01*
X0142230Y0268002D01*
X0143600Y0271310D01*
X0143600Y0274890D01*
X0142230Y0278198D01*
X0139698Y0280730D01*
X0136390Y0282100D01*
X0132810Y0282100D01*
X0129502Y0280730D01*
X0126970Y0278198D01*
X0126132Y0276173D01*
X0124674Y0277631D01*
X0121360Y0279544D01*
X0117664Y0280535D01*
X0113836Y0280535D01*
X0110140Y0279544D01*
X0106826Y0277631D01*
X0104119Y0274924D01*
X0102206Y0271610D01*
X0101215Y0267914D01*
X0101215Y0264086D01*
X0102206Y0260390D01*
X0104119Y0257076D01*
X0106050Y0255145D01*
X0106050Y0243879D01*
X0104422Y0242687D01*
X0103558Y0241266D01*
X0103106Y0241356D01*
X0100291Y0241356D01*
X0097476Y0241356D01*
X0096974Y0241256D01*
X0096501Y0241060D01*
X0096075Y0240775D01*
X0095713Y0240413D01*
X0095428Y0239987D01*
X0095232Y0239514D01*
X0095132Y0239012D01*
X0095132Y0236000D01*
X0095132Y0232988D01*
X0095232Y0232486D01*
X0095428Y0232013D01*
X0095713Y0231587D01*
X0096075Y0231225D01*
X0096501Y0230940D01*
X0096974Y0230744D01*
X0097476Y0230644D01*
X0100291Y0230644D01*
X0100291Y0236000D01*
X0100291Y0236000D01*
X0095132Y0236000D01*
X0100291Y0236000D01*
X0100291Y0236000D01*
X0100291Y0241356D01*
X0100291Y0236000D01*
X0100291Y0236000D01*
X0100291Y0230644D01*
X0103106Y0230644D01*
X0103544Y0230731D01*
X0105022Y0228713D01*
X0108319Y0226709D01*
X0112133Y0226119D01*
X0115882Y0227034D01*
X0120539Y0230443D01*
X0122603Y0231954D02*
X0227142Y0231954D01*
X0231866Y0231954D02*
X0231866Y0231954D01*
X0231866Y0233462D02*
X0231866Y0228500D01*
X0231866Y0228500D01*
X0231866Y0228500D01*
X0231866Y0223538D01*
X0234484Y0223538D01*
X0234987Y0223638D01*
X0235460Y0223834D01*
X0235886Y0224118D01*
X0236248Y0224480D01*
X0236276Y0224522D01*
X0236860Y0223938D01*
X0243407Y0223938D01*
X0244696Y0225227D01*
X0244696Y0230721D01*
X0245713Y0230300D01*
X0247980Y0230300D01*
X0249301Y0230847D01*
X0250317Y0230847D01*
X0250530Y0231061D01*
X0252208Y0230366D01*
X0254797Y0227777D01*
X0258362Y0226300D01*
X0262221Y0226300D01*
X0265786Y0227777D01*
X0268515Y0230505D01*
X0268597Y0230703D01*
X0268894Y0230644D01*
X0271709Y0230644D01*
X0274524Y0230644D01*
X0275026Y0230744D01*
X0275499Y0230940D01*
X0275925Y0231225D01*
X0276287Y0231587D01*
X0276572Y0232013D01*
X0276768Y0232486D01*
X0276868Y0232988D01*
X0276868Y0236000D01*
X0276868Y0239012D01*
X0276768Y0239514D01*
X0276572Y0239987D01*
X0276287Y0240413D01*
X0275925Y0240775D01*
X0275499Y0241060D01*
X0275026Y0241256D01*
X0274524Y0241356D01*
X0271709Y0241356D01*
X0271709Y0236000D01*
X0276868Y0236000D01*
X0271709Y0236000D01*
X0271709Y0236000D01*
X0271709Y0236000D01*
X0271709Y0230644D01*
X0271709Y0236000D01*
X0271709Y0236000D01*
X0271709Y0241356D01*
X0268894Y0241356D01*
X0268597Y0241297D01*
X0268515Y0241495D01*
X0260950Y0249059D01*
X0260950Y0255145D01*
X0262881Y0257076D01*
X0264794Y0260390D01*
X0265785Y0264086D01*
X0265785Y0267914D01*
X0264794Y0271610D01*
X0262881Y0274924D01*
X0260174Y0277631D01*
X0256860Y0279544D01*
X0253164Y0280535D01*
X0249336Y0280535D01*
X0245640Y0279544D01*
X0242326Y0277631D01*
X0239619Y0274924D01*
X0237706Y0271610D01*
X0236715Y0267914D01*
X0236715Y0266854D01*
X0234190Y0267900D01*
X0230610Y0267900D01*
X0227302Y0266530D01*
X0224770Y0263998D01*
X0223400Y0260690D01*
X0223400Y0257110D01*
X0224770Y0253802D01*
X0227302Y0251270D01*
X0230610Y0249900D01*
X0234190Y0249900D01*
X0237498Y0251270D01*
X0240030Y0253802D01*
X0240868Y0255826D01*
X0241550Y0255145D01*
X0241550Y0243112D01*
X0242362Y0241153D01*
X0236683Y0241153D01*
X0235394Y0239864D01*
X0235394Y0233193D01*
X0234987Y0233362D01*
X0234484Y0233462D01*
X0231866Y0233462D01*
X0235394Y0235153D02*
X0124788Y0235153D01*
X0125471Y0238351D02*
X0235394Y0238351D01*
X0242197Y0241550D02*
X0125450Y0241550D01*
X0125450Y0244748D02*
X0158670Y0244748D01*
X0157738Y0245680D02*
X0157738Y0250454D01*
X0161113Y0253829D01*
X0165887Y0253829D01*
X0169262Y0250454D01*
X0169262Y0245680D01*
X0165887Y0242305D01*
X0161113Y0242305D01*
X0157738Y0245680D01*
X0157738Y0247947D02*
X0125450Y0247947D01*
X0125450Y0251145D02*
X0158429Y0251145D01*
X0168330Y0244748D02*
X0241550Y0244748D01*
X0241550Y0247947D02*
X0169262Y0247947D01*
X0168571Y0251145D02*
X0227604Y0251145D01*
X0224546Y0254344D02*
X0125450Y0254344D01*
X0127650Y0257542D02*
X0223400Y0257542D01*
X0223421Y0260741D02*
X0129388Y0260741D01*
X0130245Y0263939D02*
X0157767Y0263939D01*
X0157634Y0264139D02*
X0157918Y0263713D01*
X0158280Y0263351D01*
X0158706Y0263067D01*
X0159179Y0262871D01*
X0159682Y0262771D01*
X0163500Y0262771D01*
X0167318Y0262771D01*
X0167821Y0262871D01*
X0168294Y0263067D01*
X0168720Y0263351D01*
X0169082Y0263713D01*
X0169366Y0264139D01*
X0169562Y0264612D01*
X0169662Y0265115D01*
X0169662Y0268933D01*
X0163500Y0268933D01*
X0163500Y0262771D01*
X0163500Y0268933D01*
X0163500Y0268933D01*
X0163500Y0268933D01*
X0157338Y0268933D01*
X0157338Y0265115D01*
X0157438Y0264612D01*
X0157634Y0264139D01*
X0157338Y0267138D02*
X0141366Y0267138D01*
X0143197Y0270336D02*
X0157338Y0270336D01*
X0157338Y0268933D02*
X0163500Y0268933D01*
X0163500Y0268933D01*
X0169662Y0268933D01*
X0169662Y0272751D01*
X0169562Y0273254D01*
X0169366Y0273727D01*
X0169082Y0274153D01*
X0168720Y0274515D01*
X0168294Y0274799D01*
X0167821Y0274995D01*
X0167318Y0275095D01*
X0163500Y0275095D01*
X0159682Y0275095D01*
X0159179Y0274995D01*
X0158706Y0274799D01*
X0158280Y0274515D01*
X0157918Y0274153D01*
X0157634Y0273727D01*
X0157438Y0273254D01*
X0157338Y0272751D01*
X0157338Y0268933D01*
X0157554Y0273535D02*
X0143600Y0273535D01*
X0142837Y0276733D02*
X0241428Y0276733D01*
X0238817Y0273535D02*
X0169446Y0273535D01*
X0169662Y0270336D02*
X0237365Y0270336D01*
X0236715Y0267138D02*
X0236030Y0267138D01*
X0228770Y0267138D02*
X0169662Y0267138D01*
X0169233Y0263939D02*
X0224746Y0263939D01*
X0237196Y0251145D02*
X0241550Y0251145D01*
X0241550Y0254344D02*
X0240254Y0254344D01*
X0260950Y0254344D02*
X0271412Y0254344D01*
X0271843Y0253990D02*
X0273063Y0253175D01*
X0274357Y0252483D01*
X0275713Y0251921D01*
X0277117Y0251495D01*
X0278556Y0251209D01*
X0279150Y0251151D01*
X0279150Y0264400D01*
X0282350Y0264400D01*
X0282350Y0267600D01*
X0295599Y0267600D01*
X0295541Y0268194D01*
X0295255Y0269633D01*
X0294829Y0271037D01*
X0294267Y0272393D01*
X0293575Y0273687D01*
X0292760Y0274907D01*
X0291829Y0276042D01*
X0290792Y0277079D01*
X0289657Y0278010D01*
X0288437Y0278825D01*
X0287143Y0279517D01*
X0285787Y0280079D01*
X0284383Y0280505D01*
X0282944Y0280791D01*
X0282350Y0280849D01*
X0282350Y0267600D01*
X0279150Y0267600D01*
X0279150Y0280849D01*
X0278556Y0280791D01*
X0277117Y0280505D01*
X0275713Y0280079D01*
X0274357Y0279517D01*
X0273063Y0278825D01*
X0271843Y0278010D01*
X0270708Y0277079D01*
X0269671Y0276042D01*
X0268740Y0274907D01*
X0267925Y0273687D01*
X0267233Y0272393D01*
X0266671Y0271037D01*
X0266245Y0269633D01*
X0265959Y0268194D01*
X0265901Y0267600D01*
X0279150Y0267600D01*
X0279150Y0264400D01*
X0265901Y0264400D01*
X0265959Y0263806D01*
X0266245Y0262367D01*
X0266671Y0260963D01*
X0267233Y0259607D01*
X0267925Y0258313D01*
X0268740Y0257093D01*
X0269671Y0255958D01*
X0270708Y0254921D01*
X0271843Y0253990D01*
X0268440Y0257542D02*
X0263150Y0257542D01*
X0264888Y0260741D02*
X0266763Y0260741D01*
X0265946Y0263939D02*
X0265745Y0263939D01*
X0265785Y0267138D02*
X0279150Y0267138D01*
X0279150Y0270336D02*
X0282350Y0270336D01*
X0282350Y0267138D02*
X0295970Y0267138D01*
X0294502Y0266530D02*
X0292372Y0264400D01*
X0282350Y0264400D01*
X0282350Y0251151D01*
X0282944Y0251209D01*
X0284383Y0251495D01*
X0285787Y0251921D01*
X0287143Y0252483D01*
X0288437Y0253175D01*
X0289657Y0253990D01*
X0290792Y0254921D01*
X0291297Y0255426D01*
X0291970Y0253802D01*
X0294502Y0251270D01*
X0297810Y0249900D01*
X0301390Y0249900D01*
X0304698Y0251270D01*
X0307230Y0253802D01*
X0308600Y0257110D01*
X0308600Y0260690D01*
X0307230Y0263998D01*
X0304698Y0266530D01*
X0301390Y0267900D01*
X0297810Y0267900D01*
X0294502Y0266530D01*
X0295041Y0270336D02*
X0326241Y0270336D01*
X0326268Y0267138D02*
X0303230Y0267138D01*
X0307254Y0263939D02*
X0326295Y0263939D01*
X0326323Y0260741D02*
X0308579Y0260741D01*
X0308600Y0257542D02*
X0326350Y0257542D01*
X0326377Y0254344D02*
X0307454Y0254344D01*
X0304396Y0251145D02*
X0326405Y0251145D01*
X0326432Y0247947D02*
X0262063Y0247947D01*
X0260950Y0251145D02*
X0294804Y0251145D01*
X0291746Y0254344D02*
X0290088Y0254344D01*
X0282350Y0254344D02*
X0279150Y0254344D01*
X0279150Y0257542D02*
X0282350Y0257542D01*
X0282350Y0260741D02*
X0279150Y0260741D01*
X0279150Y0263939D02*
X0282350Y0263939D01*
X0282350Y0273535D02*
X0279150Y0273535D01*
X0279150Y0276733D02*
X0282350Y0276733D01*
X0282350Y0279932D02*
X0279150Y0279932D01*
X0275358Y0279932D02*
X0255413Y0279932D01*
X0261072Y0276733D02*
X0270362Y0276733D01*
X0267843Y0273535D02*
X0263683Y0273535D01*
X0265135Y0270336D02*
X0266459Y0270336D01*
X0286142Y0279932D02*
X0326159Y0279932D01*
X0326131Y0283130D02*
X0006131Y0283130D01*
X0006159Y0279932D02*
X0061504Y0279932D01*
X0062302Y0280730D02*
X0059770Y0278198D01*
X0058400Y0274890D01*
X0058400Y0271310D01*
X0059770Y0268002D01*
X0062302Y0265470D01*
X0065610Y0264100D01*
X0069190Y0264100D01*
X0072498Y0265470D01*
X0074628Y0267600D01*
X0084650Y0267600D01*
X0084650Y0280849D01*
X0084056Y0280791D01*
X0082617Y0280505D01*
X0081213Y0280079D01*
X0079857Y0279517D01*
X0078563Y0278825D01*
X0077343Y0278010D01*
X0076208Y0277079D01*
X0075703Y0276574D01*
X0075030Y0278198D01*
X0072498Y0280730D01*
X0069190Y0282100D01*
X0065610Y0282100D01*
X0062302Y0280730D01*
X0059163Y0276733D02*
X0036481Y0276733D01*
X0033500Y0276733D02*
X0033500Y0276733D01*
X0030519Y0276733D02*
X0025916Y0276733D01*
X0021084Y0276733D02*
X0006186Y0276733D01*
X0006213Y0273535D02*
X0017886Y0273535D01*
X0017738Y0270336D02*
X0006241Y0270336D01*
X0006268Y0267138D02*
X0019213Y0267138D01*
X0020800Y0263939D02*
X0006295Y0263939D01*
X0006323Y0260741D02*
X0020800Y0260741D01*
X0026200Y0260741D02*
X0072263Y0260741D01*
X0072171Y0260963D02*
X0072733Y0259607D01*
X0073425Y0258313D01*
X0074240Y0257093D01*
X0075171Y0255958D01*
X0076208Y0254921D01*
X0077343Y0253990D01*
X0078563Y0253175D01*
X0079857Y0252483D01*
X0081213Y0251921D01*
X0082617Y0251495D01*
X0084056Y0251209D01*
X0084650Y0251151D01*
X0084650Y0264400D01*
X0087850Y0264400D01*
X0087850Y0267600D01*
X0101099Y0267600D01*
X0101041Y0268194D01*
X0100755Y0269633D01*
X0100329Y0271037D01*
X0099767Y0272393D01*
X0099075Y0273687D01*
X0098260Y0274907D01*
X0097329Y0276042D01*
X0096292Y0277079D01*
X0095157Y0278010D01*
X0093937Y0278825D01*
X0092643Y0279517D01*
X0091287Y0280079D01*
X0089883Y0280505D01*
X0088444Y0280791D01*
X0087850Y0280849D01*
X0087850Y0267600D01*
X0084650Y0267600D01*
X0084650Y0264400D01*
X0071401Y0264400D01*
X0071459Y0263806D01*
X0071745Y0262367D01*
X0072171Y0260963D01*
X0071446Y0263939D02*
X0026200Y0263939D01*
X0027787Y0267138D02*
X0028648Y0267138D01*
X0033500Y0267138D02*
X0033500Y0267138D01*
X0033500Y0264838D02*
X0033500Y0271000D01*
X0033500Y0271000D01*
X0033500Y0264838D01*
X0038352Y0267138D02*
X0060634Y0267138D01*
X0058803Y0270336D02*
X0039662Y0270336D01*
X0039662Y0273535D02*
X0058400Y0273535D01*
X0073296Y0279932D02*
X0080858Y0279932D01*
X0075862Y0276733D02*
X0075637Y0276733D01*
X0084650Y0276733D02*
X0087850Y0276733D01*
X0087850Y0273535D02*
X0084650Y0273535D01*
X0084650Y0270336D02*
X0087850Y0270336D01*
X0087850Y0267138D02*
X0101215Y0267138D01*
X0101099Y0264400D02*
X0101041Y0263806D01*
X0100755Y0262367D01*
X0100329Y0260963D01*
X0099767Y0259607D01*
X0099075Y0258313D01*
X0098260Y0257093D01*
X0097329Y0255958D01*
X0096292Y0254921D01*
X0095157Y0253990D01*
X0093937Y0253175D01*
X0092643Y0252483D01*
X0091287Y0251921D01*
X0089883Y0251495D01*
X0088444Y0251209D01*
X0087850Y0251151D01*
X0087850Y0264400D01*
X0101099Y0264400D01*
X0101054Y0263939D02*
X0101255Y0263939D01*
X0102112Y0260741D02*
X0100237Y0260741D01*
X0098560Y0257542D02*
X0103850Y0257542D01*
X0106050Y0254344D02*
X0095588Y0254344D01*
X0087850Y0254344D02*
X0084650Y0254344D01*
X0084650Y0257542D02*
X0087850Y0257542D01*
X0087850Y0260741D02*
X0084650Y0260741D01*
X0084650Y0263939D02*
X0087850Y0263939D01*
X0084650Y0267138D02*
X0074166Y0267138D01*
X0073940Y0257542D02*
X0028927Y0257542D01*
X0029105Y0254344D02*
X0076912Y0254344D01*
X0095132Y0238351D02*
X0057089Y0238351D01*
X0060287Y0235153D02*
X0095132Y0235153D01*
X0095467Y0231954D02*
X0063742Y0231954D01*
X0065381Y0228756D02*
X0104991Y0228756D01*
X0100291Y0231954D02*
X0100291Y0231954D01*
X0100291Y0235153D02*
X0100291Y0235153D01*
X0100291Y0238351D02*
X0100291Y0238351D01*
X0103731Y0241550D02*
X0053890Y0241550D01*
X0051825Y0244748D02*
X0106050Y0244748D01*
X0106050Y0247947D02*
X0047872Y0247947D01*
X0044673Y0251145D02*
X0106050Y0251145D01*
X0101865Y0270336D02*
X0100541Y0270336D01*
X0099157Y0273535D02*
X0103317Y0273535D01*
X0105928Y0276733D02*
X0096637Y0276733D01*
X0091642Y0279932D02*
X0111587Y0279932D01*
X0119913Y0279932D02*
X0128704Y0279932D01*
X0126363Y0276733D02*
X0125572Y0276733D01*
X0140496Y0279932D02*
X0247087Y0279932D01*
X0265261Y0244748D02*
X0326459Y0244748D01*
X0326487Y0241550D02*
X0268460Y0241550D01*
X0271709Y0238351D02*
X0271709Y0238351D01*
X0271709Y0235153D02*
X0271709Y0235153D01*
X0271709Y0231954D02*
X0271709Y0231954D01*
X0266765Y0228756D02*
X0326596Y0228756D01*
X0326569Y0231954D02*
X0276533Y0231954D01*
X0276868Y0235153D02*
X0326541Y0235153D01*
X0326514Y0238351D02*
X0276868Y0238351D01*
X0253818Y0228756D02*
X0244696Y0228756D01*
X0244696Y0225557D02*
X0326623Y0225557D01*
X0326924Y0190373D02*
X0234014Y0190373D01*
X0234014Y0187634D02*
X0228462Y0187634D01*
X0228462Y0187634D01*
X0234014Y0187634D01*
X0234014Y0187175D02*
X0326951Y0187175D01*
X0326979Y0183976D02*
X0233773Y0183976D01*
X0236685Y0180778D02*
X0327006Y0180778D01*
X0327034Y0177579D02*
X0243573Y0177579D01*
X0244539Y0174381D02*
X0327061Y0174381D01*
X0327088Y0171182D02*
X0255124Y0171182D01*
X0256659Y0167984D02*
X0327116Y0167984D01*
X0327143Y0164785D02*
X0283474Y0164785D01*
X0283868Y0164391D02*
X0282580Y0165680D01*
X0274420Y0165680D01*
X0273131Y0164391D01*
X0273131Y0156231D01*
X0274420Y0154943D01*
X0282580Y0154943D01*
X0283868Y0156231D01*
X0283868Y0164391D01*
X0283868Y0161587D02*
X0327170Y0161587D01*
X0327198Y0158388D02*
X0283868Y0158388D01*
X0282827Y0155190D02*
X0327225Y0155190D01*
X0327252Y0151991D02*
X0255059Y0151991D01*
X0255059Y0148793D02*
X0264928Y0148793D01*
X0261131Y0145594D02*
X0253963Y0145594D01*
X0260700Y0142396D02*
X0237645Y0142396D01*
X0239121Y0139197D02*
X0260700Y0139197D01*
X0252467Y0131023D02*
X0260700Y0122790D01*
X0260700Y0119134D01*
X0246948Y0119134D01*
X0244302Y0118038D01*
X0244211Y0117947D01*
X0228250Y0116566D01*
X0228250Y0117761D01*
X0227711Y0118300D01*
X0228680Y0118300D01*
X0228989Y0117990D01*
X0230294Y0117450D01*
X0231706Y0117450D01*
X0233011Y0117990D01*
X0234010Y0118989D01*
X0234550Y0120294D01*
X0234550Y0121706D01*
X0234010Y0123011D01*
X0233011Y0124010D01*
X0231706Y0124550D01*
X0230294Y0124550D01*
X0230182Y0124504D01*
X0230182Y0127030D01*
X0224630Y0127030D01*
X0224630Y0127031D01*
X0230182Y0127031D01*
X0230182Y0129846D01*
X0230082Y0130348D01*
X0229886Y0130821D01*
X0229782Y0130977D01*
X0229782Y0131023D01*
X0245338Y0131023D01*
X0242630Y0128316D01*
X0242630Y0125934D01*
X0242630Y0123552D01*
X0245999Y0120184D01*
X0248380Y0120184D01*
X0248380Y0125934D01*
X0242630Y0125934D01*
X0248380Y0125934D01*
X0248380Y0125934D01*
X0248381Y0125934D01*
X0254130Y0125934D01*
X0254130Y0128316D01*
X0251423Y0131023D01*
X0252467Y0131023D01*
X0252844Y0129602D02*
X0253888Y0129602D01*
X0254130Y0126403D02*
X0257087Y0126403D01*
X0254130Y0125934D02*
X0254130Y0123552D01*
X0250762Y0120184D01*
X0248381Y0120184D01*
X0248381Y0125934D01*
X0248381Y0125934D01*
X0254130Y0125934D01*
X0253783Y0123205D02*
X0260285Y0123205D01*
X0260700Y0120006D02*
X0234431Y0120006D01*
X0233816Y0123205D02*
X0242978Y0123205D01*
X0242630Y0126403D02*
X0230182Y0126403D01*
X0230182Y0129602D02*
X0243916Y0129602D01*
X0248380Y0123205D02*
X0248381Y0123205D01*
X0231043Y0116808D02*
X0228250Y0116808D01*
X0228250Y0102112D02*
X0239950Y0103125D01*
X0239950Y0102794D01*
X0240490Y0101489D01*
X0240580Y0101400D01*
X0240490Y0101311D01*
X0239950Y0100006D01*
X0239950Y0098594D01*
X0240341Y0097650D01*
X0239950Y0096706D01*
X0239950Y0095294D01*
X0240490Y0093989D01*
X0241489Y0092990D01*
X0242794Y0092450D01*
X0244206Y0092450D01*
X0245511Y0092990D01*
X0245820Y0093300D01*
X0248373Y0093300D01*
X0249027Y0092646D01*
X0250872Y0092646D01*
X0250968Y0092550D01*
X0252266Y0091252D01*
X0252266Y0089862D01*
X0250983Y0088579D01*
X0250889Y0088353D01*
X0249802Y0088353D01*
X0248513Y0087064D01*
X0248513Y0082835D01*
X0245150Y0086198D01*
X0245150Y0091003D01*
X0243861Y0092291D01*
X0230587Y0092291D01*
X0230587Y0094292D01*
X0225034Y0094292D01*
X0225034Y0094292D01*
X0230587Y0094292D01*
X0230587Y0097107D01*
X0230487Y0097610D01*
X0230291Y0098083D01*
X0230007Y0098509D01*
X0229644Y0098871D01*
X0229219Y0099155D01*
X0228745Y0099351D01*
X0228250Y0099450D01*
X0228250Y0102112D01*
X0228250Y0100815D02*
X0240285Y0100815D01*
X0240327Y0097617D02*
X0230484Y0097617D01*
X0230587Y0094418D02*
X0240313Y0094418D01*
X0244933Y0091220D02*
X0252266Y0091220D01*
X0249470Y0088021D02*
X0245150Y0088021D01*
X0246525Y0084823D02*
X0248513Y0084823D01*
X0262517Y0068830D02*
X0265212Y0068830D01*
X0265716Y0065632D02*
X0303864Y0065632D01*
X0302615Y0059662D02*
X0302112Y0059562D01*
X0301639Y0059366D01*
X0301213Y0059082D01*
X0300851Y0058720D01*
X0300567Y0058294D01*
X0300371Y0057821D01*
X0300271Y0057318D01*
X0300271Y0053500D01*
X0306433Y0053500D01*
X0306433Y0053500D01*
X0300271Y0053500D01*
X0300271Y0049682D01*
X0300371Y0049179D01*
X0300567Y0048706D01*
X0300851Y0048280D01*
X0301213Y0047918D01*
X0301639Y0047634D01*
X0302112Y0047438D01*
X0302615Y0047338D01*
X0306433Y0047338D01*
X0306433Y0053500D01*
X0306433Y0059662D01*
X0302615Y0059662D01*
X0301442Y0059234D02*
X0287981Y0059234D01*
X0291180Y0056036D02*
X0300271Y0056036D01*
X0300271Y0052837D02*
X0291329Y0052837D01*
X0289855Y0049639D02*
X0300279Y0049639D01*
X0306433Y0049639D02*
X0306433Y0049639D01*
X0306433Y0047338D02*
X0310251Y0047338D01*
X0310754Y0047438D01*
X0311227Y0047634D01*
X0311653Y0047918D01*
X0312015Y0048280D01*
X0312299Y0048706D01*
X0312495Y0049179D01*
X0312595Y0049682D01*
X0312595Y0053500D01*
X0312595Y0057318D01*
X0312495Y0057821D01*
X0312299Y0058294D01*
X0312015Y0058720D01*
X0311653Y0059082D01*
X0311227Y0059366D01*
X0310754Y0059562D01*
X0310251Y0059662D01*
X0306433Y0059662D01*
X0306433Y0053500D01*
X0306433Y0053500D01*
X0306433Y0053500D01*
X0306433Y0047338D01*
X0306433Y0052837D02*
X0306433Y0052837D01*
X0306433Y0053500D02*
X0306433Y0053500D01*
X0312595Y0053500D01*
X0306433Y0053500D01*
X0306433Y0056036D02*
X0306433Y0056036D01*
X0306433Y0059234D02*
X0306433Y0059234D01*
X0311424Y0059234D02*
X0328045Y0059234D01*
X0328072Y0056036D02*
X0312595Y0056036D01*
X0312595Y0052837D02*
X0328100Y0052837D01*
X0328127Y0049639D02*
X0312587Y0049639D01*
X0328154Y0046440D02*
X0261300Y0046440D01*
X0261300Y0043242D02*
X0328182Y0043242D01*
X0328209Y0040043D02*
X0261300Y0040043D01*
X0261300Y0036845D02*
X0328236Y0036845D01*
X0328264Y0033646D02*
X0261300Y0033646D01*
X0261300Y0030448D02*
X0328291Y0030448D01*
X0328318Y0027249D02*
X0263979Y0027249D01*
X0265743Y0024051D02*
X0328346Y0024051D01*
X0328373Y0020852D02*
X0266100Y0020852D01*
X0265290Y0017654D02*
X0328400Y0017654D01*
X0328428Y0014455D02*
X0262883Y0014455D01*
X0261300Y0011257D02*
X0328455Y0011257D01*
X0328482Y0008058D02*
X0261300Y0008058D01*
X0261300Y0049639D02*
X0281279Y0049639D01*
X0283152Y0059234D02*
X0272113Y0059234D01*
X0268914Y0062433D02*
X0328018Y0062433D01*
X0327990Y0065632D02*
X0323684Y0065632D01*
X0324654Y0068830D02*
X0327963Y0068830D01*
X0327936Y0072029D02*
X0324331Y0072029D01*
X0324654Y0071706D02*
X0321044Y0075316D01*
X0318491Y0075316D01*
X0318491Y0069154D01*
X0318491Y0069154D01*
X0318491Y0069153D02*
X0324654Y0069153D01*
X0324654Y0071706D01*
X0327908Y0075227D02*
X0321132Y0075227D01*
X0318491Y0075227D02*
X0318491Y0075227D01*
X0315850Y0075227D02*
X0306661Y0075227D01*
X0309860Y0078426D02*
X0327881Y0078426D01*
X0327854Y0081624D02*
X0324835Y0081624D01*
X0324835Y0081370D02*
X0324835Y0083989D01*
X0324835Y0086607D01*
X0324735Y0087109D01*
X0324539Y0087583D01*
X0324254Y0088008D01*
X0323892Y0088371D01*
X0323466Y0088655D01*
X0322993Y0088851D01*
X0322491Y0088951D01*
X0319872Y0088951D01*
X0319872Y0083989D01*
X0319872Y0083989D01*
X0319872Y0083989D01*
X0319873Y0083989D02*
X0324835Y0083989D01*
X0319873Y0083989D01*
X0319873Y0083989D01*
X0319872Y0083989D02*
X0319872Y0079027D01*
X0322491Y0079027D01*
X0322993Y0079127D01*
X0323466Y0079322D01*
X0323892Y0079607D01*
X0324254Y0079969D01*
X0324539Y0080395D01*
X0324735Y0080868D01*
X0324835Y0081370D01*
X0324835Y0084823D02*
X0327826Y0084823D01*
X0327799Y0088021D02*
X0324241Y0088021D01*
X0327772Y0091220D02*
X0313700Y0091220D01*
X0315408Y0088021D02*
X0315503Y0088021D01*
X0319872Y0088021D02*
X0319872Y0088021D01*
X0319872Y0084823D02*
X0319872Y0084823D01*
X0319872Y0081624D02*
X0319872Y0081624D01*
X0318491Y0072029D02*
X0318491Y0072029D01*
X0318491Y0068830D02*
X0318491Y0068830D01*
X0318491Y0065632D02*
X0318491Y0065632D01*
X0313299Y0065632D02*
X0313118Y0065632D01*
X0301004Y0084823D02*
X0299665Y0084823D01*
X0302804Y0088021D02*
X0304203Y0088021D01*
X0303650Y0091220D02*
X0307401Y0091220D01*
X0308112Y0094418D02*
X0303650Y0094418D01*
X0303650Y0097617D02*
X0307304Y0097617D01*
X0307304Y0100815D02*
X0304321Y0100815D01*
X0307520Y0104014D02*
X0327662Y0104014D01*
X0327635Y0107212D02*
X0323547Y0107212D01*
X0323613Y0107256D02*
X0323975Y0107618D01*
X0324260Y0108044D01*
X0324456Y0108517D01*
X0324556Y0109019D01*
X0324556Y0111638D01*
X0324556Y0114256D01*
X0324456Y0114758D01*
X0324260Y0115232D01*
X0323975Y0115657D01*
X0323613Y0116020D01*
X0323187Y0116304D01*
X0322714Y0116500D01*
X0322212Y0116600D01*
X0319593Y0116600D01*
X0319593Y0111638D01*
X0319593Y0111638D01*
X0319593Y0111638D01*
X0319594Y0111638D02*
X0324556Y0111638D01*
X0319594Y0111638D01*
X0319594Y0111638D01*
X0319593Y0111638D02*
X0319593Y0106676D01*
X0322212Y0106676D01*
X0322714Y0106775D01*
X0323187Y0106971D01*
X0323613Y0107256D01*
X0324556Y0110411D02*
X0327608Y0110411D01*
X0327580Y0113609D02*
X0324556Y0113609D01*
X0327553Y0116808D02*
X0296036Y0116808D01*
X0296300Y0120006D02*
X0327526Y0120006D01*
X0327498Y0123205D02*
X0296300Y0123205D01*
X0296300Y0126403D02*
X0327471Y0126403D01*
X0327444Y0129602D02*
X0296300Y0129602D01*
X0296300Y0132800D02*
X0327416Y0132800D01*
X0327389Y0135999D02*
X0296300Y0135999D01*
X0296300Y0139197D02*
X0327362Y0139197D01*
X0327334Y0142396D02*
X0296300Y0142396D01*
X0295869Y0145594D02*
X0327307Y0145594D01*
X0327280Y0148793D02*
X0292072Y0148793D01*
X0274173Y0155190D02*
X0253893Y0155190D01*
X0246889Y0156800D02*
X0241730Y0156800D01*
X0246889Y0156800D01*
X0246889Y0158388D02*
X0273131Y0158388D01*
X0273131Y0161587D02*
X0258256Y0161587D01*
X0258446Y0164785D02*
X0273526Y0164785D01*
X0241730Y0156800D02*
X0241730Y0156800D01*
X0241638Y0148644D02*
X0241638Y0143091D01*
X0241638Y0148644D01*
X0241638Y0148644D01*
X0241638Y0145594D02*
X0241638Y0145594D01*
X0219176Y0161587D02*
X0211300Y0161587D01*
X0211300Y0162250D02*
X0210011Y0162250D01*
X0210011Y0162250D01*
X0210011Y0162250D01*
X0211300Y0162250D01*
X0214339Y0164785D02*
X0221100Y0164785D01*
X0221100Y0167984D02*
X0214021Y0167984D01*
X0210900Y0171182D02*
X0221100Y0171182D01*
X0221100Y0174381D02*
X0210900Y0174381D01*
X0209682Y0177579D02*
X0222318Y0177579D01*
X0222761Y0180778D02*
X0208999Y0180778D01*
X0209343Y0183976D02*
X0223149Y0183976D01*
X0222909Y0187175D02*
X0209399Y0187175D01*
X0209303Y0190373D02*
X0222909Y0190373D01*
X0228461Y0190373D02*
X0228461Y0190373D01*
X0203847Y0190373D02*
X0203847Y0190373D01*
X0203847Y0187175D02*
X0203847Y0187175D01*
X0203847Y0187074D02*
X0203847Y0187074D01*
X0212500Y0158388D02*
X0217450Y0158388D01*
X0216066Y0155190D02*
X0212500Y0155190D01*
X0214555Y0151991D02*
X0215864Y0151991D01*
X0202729Y0129602D02*
X0131800Y0129602D01*
X0131800Y0132800D02*
X0187950Y0132800D01*
X0187687Y0135999D02*
X0131800Y0135999D01*
X0131800Y0139197D02*
X0187687Y0139197D01*
X0187687Y0136906D02*
X0192846Y0136906D01*
X0192846Y0131353D01*
X0192846Y0136906D01*
X0192846Y0136906D01*
X0187687Y0136906D01*
X0192846Y0136906D02*
X0192846Y0136906D01*
X0192846Y0135999D02*
X0192846Y0135999D01*
X0192846Y0132800D02*
X0192846Y0132800D01*
X0202729Y0126403D02*
X0165636Y0126403D01*
X0157450Y0126403D02*
X0131800Y0126403D01*
X0131800Y0123205D02*
X0136904Y0123205D01*
X0136904Y0120006D02*
X0131660Y0120006D01*
X0131800Y0116808D02*
X0137657Y0116808D01*
X0131800Y0113609D02*
X0162659Y0113609D01*
X0160663Y0110411D02*
X0131800Y0110411D01*
X0133598Y0108108D02*
X0133598Y0102555D01*
X0133598Y0102555D01*
X0133598Y0108108D01*
X0133598Y0107212D02*
X0133598Y0107212D01*
X0133598Y0104014D02*
X0133598Y0104014D01*
X0140135Y0104014D02*
X0160150Y0104014D01*
X0160150Y0107212D02*
X0139508Y0107212D01*
X0140135Y0100815D02*
X0149863Y0100815D01*
X0149863Y0097617D02*
X0139483Y0097617D01*
X0139735Y0088021D02*
X0149863Y0088021D01*
X0150149Y0084823D02*
X0139735Y0084823D01*
X0139735Y0081624D02*
X0153300Y0081624D01*
X0153347Y0078426D02*
X0147005Y0078426D01*
X0147005Y0079209D02*
X0146906Y0079711D01*
X0146710Y0080184D01*
X0146425Y0080610D01*
X0146063Y0080972D01*
X0145637Y0081257D01*
X0145164Y0081453D01*
X0144662Y0081553D01*
X0141847Y0081553D01*
X0141847Y0076000D01*
X0147005Y0076000D01*
X0147005Y0079209D01*
X0147005Y0076000D02*
X0141847Y0076000D01*
X0141847Y0076000D01*
X0141846Y0076000D01*
X0141847Y0076000D01*
X0141847Y0070447D01*
X0144662Y0070447D01*
X0145164Y0070547D01*
X0145637Y0070743D01*
X0146063Y0071028D01*
X0146425Y0071390D01*
X0146710Y0071816D01*
X0146906Y0072289D01*
X0147005Y0072791D01*
X0147005Y0076000D01*
X0147005Y0075227D02*
X0152947Y0075227D01*
X0152947Y0072653D02*
X0152947Y0069838D01*
X0153047Y0069336D01*
X0153243Y0068863D01*
X0153528Y0068437D01*
X0153890Y0068075D01*
X0154316Y0067790D01*
X0154789Y0067594D01*
X0155291Y0067494D01*
X0158500Y0067494D01*
X0158500Y0072653D01*
X0158500Y0072653D01*
X0152947Y0072653D01*
X0152947Y0072029D02*
X0146798Y0072029D01*
X0141847Y0072029D02*
X0141846Y0072029D01*
X0141846Y0075227D02*
X0141847Y0075227D01*
X0141846Y0078426D02*
X0141847Y0078426D01*
X0137881Y0068830D02*
X0153265Y0068830D01*
X0156813Y0065632D02*
X0136827Y0065632D01*
X0138448Y0062162D02*
X0134838Y0058552D01*
X0134838Y0056000D01*
X0141000Y0056000D01*
X0141000Y0056000D01*
X0141000Y0056000D01*
X0141000Y0062162D01*
X0138448Y0062162D01*
X0141000Y0059234D02*
X0141000Y0059234D01*
X0141000Y0056036D02*
X0141000Y0056036D01*
X0141000Y0056000D02*
X0134838Y0056000D01*
X0134838Y0053448D01*
X0138448Y0049838D01*
X0141000Y0049838D01*
X0141000Y0056000D01*
X0141000Y0052837D02*
X0141000Y0052837D01*
X0135448Y0052837D02*
X0071364Y0052837D01*
X0068166Y0049639D02*
X0178200Y0049639D01*
X0178200Y0052837D02*
X0173856Y0052837D01*
X0173856Y0052476D02*
X0173856Y0055291D01*
X0168500Y0055291D01*
X0168500Y0050132D01*
X0171512Y0050132D01*
X0172014Y0050232D01*
X0172487Y0050428D01*
X0172913Y0050713D01*
X0173275Y0051075D01*
X0173560Y0051501D01*
X0173756Y0051974D01*
X0173856Y0052476D01*
X0173856Y0055291D02*
X0168500Y0055291D01*
X0168500Y0055291D01*
X0168500Y0050132D01*
X0165488Y0050132D01*
X0164986Y0050232D01*
X0164513Y0050428D01*
X0164087Y0050713D01*
X0163725Y0051075D01*
X0163440Y0051501D01*
X0163244Y0051974D01*
X0163144Y0052476D01*
X0163144Y0055291D01*
X0168500Y0055291D01*
X0168500Y0055291D01*
X0168500Y0055291D01*
X0163144Y0055291D01*
X0163144Y0058106D01*
X0163244Y0058609D01*
X0163440Y0059082D01*
X0163725Y0059508D01*
X0164087Y0059870D01*
X0164513Y0060154D01*
X0164986Y0060350D01*
X0165488Y0060450D01*
X0168500Y0060450D01*
X0168500Y0055291D01*
X0168500Y0055291D01*
X0168500Y0060450D01*
X0171512Y0060450D01*
X0172014Y0060350D01*
X0172487Y0060154D01*
X0172913Y0059870D01*
X0173275Y0059508D01*
X0173560Y0059082D01*
X0173756Y0058609D01*
X0173856Y0058106D01*
X0173856Y0055291D01*
X0173856Y0056036D02*
X0178200Y0056036D01*
X0178200Y0059234D02*
X0173458Y0059234D01*
X0172651Y0062433D02*
X0178200Y0062433D01*
X0178200Y0065632D02*
X0173456Y0065632D01*
X0174440Y0068830D02*
X0178200Y0068830D01*
X0168500Y0059234D02*
X0168500Y0059234D01*
X0168500Y0056036D02*
X0168500Y0056036D01*
X0168500Y0052837D02*
X0168500Y0052837D01*
X0163144Y0052837D02*
X0155986Y0052837D01*
X0156762Y0056036D02*
X0163144Y0056036D01*
X0163542Y0059234D02*
X0158053Y0059234D01*
X0161251Y0062433D02*
X0164349Y0062433D01*
X0158500Y0068830D02*
X0158500Y0068830D01*
X0158500Y0072029D02*
X0158500Y0072029D01*
X0153615Y0062433D02*
X0079646Y0062433D01*
X0079646Y0065632D02*
X0130173Y0065632D01*
X0129119Y0068830D02*
X0079646Y0068830D01*
X0081498Y0072029D02*
X0083002Y0072029D01*
X0074046Y0068830D02*
X0043428Y0068830D01*
X0037772Y0068830D02*
X0007963Y0068830D01*
X0007990Y0065632D02*
X0074046Y0065632D01*
X0073040Y0062433D02*
X0008018Y0062433D01*
X0008045Y0059234D02*
X0069842Y0059234D01*
X0066643Y0056036D02*
X0008072Y0056036D01*
X0008100Y0052837D02*
X0063445Y0052837D01*
X0060246Y0049639D02*
X0008127Y0049639D01*
X0008154Y0046440D02*
X0052858Y0046440D01*
X0050238Y0043242D02*
X0008182Y0043242D01*
X0008209Y0040043D02*
X0050238Y0040043D01*
X0052439Y0036845D02*
X0008236Y0036845D01*
X0008264Y0033646D02*
X0178200Y0033646D01*
X0178200Y0036845D02*
X0059561Y0036845D01*
X0061762Y0040043D02*
X0178200Y0040043D01*
X0178200Y0043242D02*
X0061769Y0043242D01*
X0064967Y0046440D02*
X0178200Y0046440D01*
X0178200Y0030448D02*
X0008291Y0030448D01*
X0008318Y0027249D02*
X0178200Y0027249D01*
X0178200Y0024051D02*
X0062162Y0024051D01*
X0062162Y0024385D02*
X0062062Y0024888D01*
X0061866Y0025361D01*
X0061582Y0025787D01*
X0061220Y0026149D01*
X0060794Y0026433D01*
X0060321Y0026629D01*
X0059818Y0026729D01*
X0056000Y0026729D01*
X0056000Y0020567D01*
X0056000Y0020567D01*
X0056000Y0026729D01*
X0052182Y0026729D01*
X0051679Y0026629D01*
X0051206Y0026433D01*
X0050780Y0026149D01*
X0050418Y0025787D01*
X0050134Y0025361D01*
X0049938Y0024888D01*
X0049838Y0024385D01*
X0049838Y0020567D01*
X0056000Y0020567D01*
X0062162Y0020567D01*
X0062162Y0024385D01*
X0062162Y0020852D02*
X0178200Y0020852D01*
X0178200Y0017654D02*
X0062162Y0017654D01*
X0062162Y0016749D02*
X0062162Y0020567D01*
X0056000Y0020567D01*
X0056000Y0020567D01*
X0056000Y0020567D01*
X0049838Y0020567D01*
X0049838Y0016749D01*
X0049938Y0016246D01*
X0050134Y0015773D01*
X0050418Y0015347D01*
X0050780Y0014985D01*
X0051206Y0014701D01*
X0051679Y0014505D01*
X0052182Y0014405D01*
X0056000Y0014405D01*
X0059818Y0014405D01*
X0060321Y0014505D01*
X0060794Y0014701D01*
X0061220Y0014985D01*
X0061582Y0015347D01*
X0061866Y0015773D01*
X0062062Y0016246D01*
X0062162Y0016749D01*
X0060073Y0014455D02*
X0178200Y0014455D01*
X0178200Y0011257D02*
X0008455Y0011257D01*
X0008428Y0014455D02*
X0051927Y0014455D01*
X0049838Y0017654D02*
X0008400Y0017654D01*
X0008373Y0020852D02*
X0049838Y0020852D01*
X0049838Y0024051D02*
X0008346Y0024051D01*
X0008482Y0008058D02*
X0178200Y0008058D01*
X0134838Y0056036D02*
X0074563Y0056036D01*
X0077761Y0059234D02*
X0135520Y0059234D01*
X0129398Y0072029D02*
X0098998Y0072029D01*
X0099105Y0075227D02*
X0104469Y0075227D01*
X0104316Y0075290D02*
X0104789Y0075094D01*
X0105291Y0074994D01*
X0108500Y0074994D01*
X0111709Y0074994D01*
X0112211Y0075094D01*
X0112684Y0075290D01*
X0113110Y0075575D01*
X0113472Y0075937D01*
X0113757Y0076363D01*
X0113953Y0076836D01*
X0114053Y0077338D01*
X0114053Y0080153D01*
X0108500Y0080153D01*
X0108500Y0074994D01*
X0108500Y0080153D01*
X0108500Y0080153D01*
X0108500Y0080154D01*
X0108500Y0080153D01*
X0102947Y0080153D01*
X0102947Y0077338D01*
X0103047Y0076836D01*
X0103243Y0076363D01*
X0103528Y0075937D01*
X0103890Y0075575D01*
X0104316Y0075290D01*
X0102947Y0078426D02*
X0099105Y0078426D01*
X0097046Y0081624D02*
X0102947Y0081624D01*
X0108500Y0078426D02*
X0108500Y0078426D01*
X0108500Y0075227D02*
X0108500Y0075227D01*
X0112531Y0075227D02*
X0129398Y0075227D01*
X0129398Y0078426D02*
X0114053Y0078426D01*
X0114053Y0081624D02*
X0127461Y0081624D01*
X0127461Y0084823D02*
X0113653Y0084823D01*
X0113653Y0088021D02*
X0127461Y0088021D01*
X0127461Y0091220D02*
X0112750Y0091220D01*
X0104250Y0091220D02*
X0101411Y0091220D01*
X0090200Y0123205D02*
X0069300Y0123205D01*
X0069300Y0126403D02*
X0090200Y0126403D01*
X0090200Y0129602D02*
X0085733Y0129602D01*
X0087250Y0131118D02*
X0087250Y0133500D01*
X0087250Y0135882D01*
X0083882Y0139250D01*
X0081500Y0139250D01*
X0081500Y0133500D01*
X0087250Y0133500D01*
X0081500Y0133500D01*
X0081500Y0133500D01*
X0081500Y0133500D01*
X0081500Y0127750D01*
X0083882Y0127750D01*
X0087250Y0131118D01*
X0087250Y0132800D02*
X0090150Y0132800D01*
X0090200Y0135999D02*
X0087133Y0135999D01*
X0090200Y0139197D02*
X0083934Y0139197D01*
X0081500Y0139197D02*
X0081500Y0139197D01*
X0081500Y0139250D02*
X0079118Y0139250D01*
X0075750Y0135882D01*
X0075750Y0133500D01*
X0081500Y0133500D01*
X0081500Y0133500D01*
X0081500Y0133500D01*
X0081500Y0139250D01*
X0079066Y0139197D02*
X0073796Y0139197D01*
X0073585Y0135999D02*
X0075867Y0135999D01*
X0075750Y0133500D02*
X0075750Y0131118D01*
X0079118Y0127750D01*
X0081500Y0127750D01*
X0081500Y0133500D01*
X0075750Y0133500D01*
X0075750Y0132800D02*
X0073585Y0132800D01*
X0072913Y0129602D02*
X0077267Y0129602D01*
X0081500Y0129602D02*
X0081500Y0129602D01*
X0081500Y0132800D02*
X0081500Y0132800D01*
X0081500Y0135999D02*
X0081500Y0135999D01*
X0074909Y0142396D02*
X0090200Y0142396D01*
X0090200Y0145594D02*
X0074909Y0145594D01*
X0074509Y0148793D02*
X0090200Y0148793D01*
X0088950Y0155190D02*
X0079785Y0155190D01*
X0077215Y0155190D02*
X0075530Y0155190D01*
X0074509Y0151991D02*
X0100100Y0151991D01*
X0100100Y0155190D02*
X0099358Y0155190D01*
X0099707Y0158388D02*
X0100100Y0158388D01*
X0099707Y0161587D02*
X0102068Y0161587D01*
X0103269Y0164785D02*
X0099307Y0164785D01*
X0094154Y0158388D02*
X0094154Y0158388D01*
X0094154Y0155190D02*
X0094154Y0155190D01*
X0075800Y0171182D02*
X0072500Y0171182D01*
X0072500Y0174381D02*
X0075328Y0174381D01*
X0075312Y0177579D02*
X0071945Y0177579D01*
X0071300Y0179750D02*
X0070011Y0179750D01*
X0070011Y0179750D01*
X0070011Y0179750D01*
X0071300Y0179750D01*
X0071286Y0180778D02*
X0081100Y0180778D01*
X0081100Y0183976D02*
X0072500Y0183976D01*
X0075241Y0187175D02*
X0081100Y0187175D01*
X0081100Y0190373D02*
X0077700Y0190373D01*
X0076868Y0193572D02*
X0081100Y0193572D01*
X0081402Y0196770D02*
X0081402Y0196770D01*
X0081402Y0199969D02*
X0081402Y0199969D01*
X0081402Y0203168D02*
X0081402Y0203168D01*
X0083432Y0206366D02*
X0069354Y0206366D01*
X0069354Y0203168D02*
X0076243Y0203168D01*
X0076243Y0199969D02*
X0068954Y0199969D01*
X0068954Y0196770D02*
X0076403Y0196770D01*
X0084074Y0209565D02*
X0067725Y0209565D01*
X0063801Y0209565D02*
X0063801Y0209565D01*
X0063801Y0206366D02*
X0063801Y0206366D01*
X0059877Y0209565D02*
X0059561Y0209565D01*
X0059289Y0212763D02*
X0083395Y0212763D01*
X0083989Y0215962D02*
X0062487Y0215962D01*
X0065027Y0219160D02*
X0086478Y0219160D01*
X0095568Y0193572D02*
X0106872Y0193572D01*
X0107724Y0180778D02*
X0104291Y0180778D01*
X0104680Y0177579D02*
X0107724Y0177579D01*
X0114311Y0167984D02*
X0114312Y0167984D01*
X0114311Y0164785D02*
X0114312Y0164785D01*
X0131800Y0145594D02*
X0169770Y0145594D01*
X0169770Y0142396D02*
X0131800Y0142396D01*
X0141866Y0123205D02*
X0141866Y0123205D01*
X0141866Y0120006D02*
X0141866Y0120006D01*
X0141866Y0116808D02*
X0141866Y0116808D01*
X0146075Y0116808D02*
X0146490Y0116808D01*
X0153777Y0116808D02*
X0155723Y0116808D01*
X0169459Y0112146D02*
X0169557Y0112048D01*
X0172561Y0112048D01*
X0173850Y0113337D01*
X0173850Y0117522D01*
X0173071Y0118300D01*
X0184289Y0118300D01*
X0183750Y0117761D01*
X0183750Y0099239D01*
X0184824Y0098165D01*
X0184824Y0091871D01*
X0185060Y0091300D01*
X0182446Y0091300D01*
X0180498Y0090493D01*
X0179105Y0089101D01*
X0179105Y0089864D01*
X0178191Y0090779D01*
X0178563Y0091028D01*
X0178925Y0091390D01*
X0179210Y0091816D01*
X0179406Y0092289D01*
X0179505Y0092791D01*
X0179505Y0096000D01*
X0179505Y0099209D01*
X0179406Y0099711D01*
X0179210Y0100184D01*
X0178925Y0100610D01*
X0178563Y0100972D01*
X0178137Y0101257D01*
X0177664Y0101453D01*
X0177162Y0101553D01*
X0174347Y0101553D01*
X0174347Y0096000D01*
X0179505Y0096000D01*
X0174347Y0096000D01*
X0174347Y0096000D01*
X0174346Y0096000D01*
X0174346Y0101553D01*
X0171531Y0101553D01*
X0171200Y0101487D01*
X0171200Y0102790D01*
X0171906Y0102790D01*
X0172408Y0102890D01*
X0172881Y0103086D01*
X0173307Y0103370D01*
X0173669Y0103732D01*
X0173954Y0104158D01*
X0174150Y0104631D01*
X0174250Y0105134D01*
X0174250Y0106571D01*
X0174250Y0108008D01*
X0174150Y0108510D01*
X0173954Y0108984D01*
X0173669Y0109409D01*
X0173307Y0109772D01*
X0172881Y0110056D01*
X0172408Y0110252D01*
X0171906Y0110352D01*
X0171059Y0110352D01*
X0170212Y0110352D01*
X0169710Y0110252D01*
X0169368Y0110110D01*
X0169459Y0110330D01*
X0169459Y0112146D01*
X0169459Y0110411D02*
X0183750Y0110411D01*
X0183750Y0113609D02*
X0173850Y0113609D01*
X0173850Y0116808D02*
X0183750Y0116808D01*
X0183750Y0107212D02*
X0174250Y0107212D01*
X0174250Y0106571D02*
X0171291Y0106571D01*
X0171291Y0106571D01*
X0174250Y0106571D01*
X0173857Y0104014D02*
X0183750Y0104014D01*
X0183750Y0100815D02*
X0178720Y0100815D01*
X0179505Y0097617D02*
X0184824Y0097617D01*
X0184824Y0094418D02*
X0179505Y0094418D01*
X0178755Y0091220D02*
X0182252Y0091220D01*
X0174346Y0097617D02*
X0174347Y0097617D01*
X0174346Y0100815D02*
X0174347Y0100815D01*
X0171059Y0108895D02*
X0171059Y0108895D01*
X0171059Y0110352D01*
X0171059Y0108895D01*
X0169770Y0148793D02*
X0153601Y0148793D01*
X0154400Y0151991D02*
X0169698Y0151991D01*
X0231866Y0225557D02*
X0231866Y0225557D01*
X0231866Y0228756D02*
X0231866Y0228756D01*
X0291138Y0276733D02*
X0326186Y0276733D01*
X0326213Y0273535D02*
X0293657Y0273535D01*
X0326104Y0286329D02*
X0006104Y0286329D01*
X0006077Y0289527D02*
X0326077Y0289527D01*
X0326049Y0292726D02*
X0006049Y0292726D01*
X0006022Y0295924D02*
X0326022Y0295924D01*
X0163500Y0275095D02*
X0163500Y0268933D01*
X0163500Y0268933D01*
X0163500Y0275095D01*
X0163500Y0273535D02*
X0163500Y0273535D01*
X0163500Y0270336D02*
X0163500Y0270336D01*
X0163500Y0267138D02*
X0163500Y0267138D01*
X0163500Y0263939D02*
X0163500Y0263939D01*
X0087850Y0279932D02*
X0084650Y0279932D01*
X0048408Y0235153D02*
X0034105Y0235153D01*
X0034105Y0238351D02*
X0034179Y0238351D01*
X0033347Y0231954D02*
X0006569Y0231954D01*
X0006596Y0228756D02*
X0019286Y0228756D01*
X0018347Y0225557D02*
X0006623Y0225557D01*
X0006651Y0222359D02*
X0011438Y0222359D01*
X0011438Y0219160D02*
X0006678Y0219160D01*
X0006705Y0215962D02*
X0011694Y0215962D01*
X0011038Y0212763D02*
X0006733Y0212763D01*
X0006760Y0209565D02*
X0011038Y0209565D01*
X0011038Y0211866D02*
X0016000Y0211866D01*
X0016000Y0206904D01*
X0016000Y0211866D01*
X0016000Y0211866D01*
X0016000Y0211866D01*
X0020962Y0211866D01*
X0020962Y0211605D01*
X0027364Y0211605D01*
X0027407Y0211562D01*
X0027923Y0212078D01*
X0031252Y0212078D01*
X0032550Y0213376D01*
X0033309Y0214135D01*
X0033347Y0214151D01*
X0033347Y0215317D01*
X0034636Y0216605D01*
X0042364Y0216605D01*
X0043653Y0215317D01*
X0043653Y0214546D01*
X0045285Y0214546D01*
X0045294Y0214550D01*
X0046706Y0214550D01*
X0048011Y0214010D01*
X0048333Y0213687D01*
X0053100Y0218454D01*
X0042923Y0218454D01*
X0042364Y0217894D01*
X0034636Y0217894D01*
X0033347Y0219183D01*
X0033347Y0220349D01*
X0033309Y0220365D01*
X0032550Y0221124D01*
X0031252Y0222422D01*
X0030004Y0222422D01*
X0029555Y0221973D01*
X0028653Y0221599D01*
X0028653Y0214183D01*
X0027364Y0212894D01*
X0020962Y0212894D01*
X0020962Y0211866D01*
X0016000Y0211866D01*
X0016000Y0211866D01*
X0011038Y0211866D01*
X0016000Y0209565D02*
X0016000Y0209565D01*
X0018347Y0206366D02*
X0006787Y0206366D01*
X0006815Y0203168D02*
X0018347Y0203168D01*
X0018347Y0199969D02*
X0006842Y0199969D01*
X0006869Y0196770D02*
X0011438Y0196770D01*
X0011438Y0193572D02*
X0006897Y0193572D01*
X0006924Y0190373D02*
X0011298Y0190373D01*
X0011038Y0187175D02*
X0006952Y0187175D01*
X0006979Y0183976D02*
X0011092Y0183976D01*
X0011038Y0186866D02*
X0016000Y0186866D01*
X0016000Y0181904D01*
X0016000Y0186866D01*
X0016000Y0186866D01*
X0016000Y0186866D01*
X0020962Y0186866D01*
X0020962Y0184248D01*
X0020877Y0183818D01*
X0023488Y0183818D01*
X0023461Y0183884D01*
X0023361Y0184386D01*
X0023361Y0187595D01*
X0028520Y0187595D01*
X0028520Y0187595D01*
X0028520Y0187595D01*
X0028520Y0193148D01*
X0031335Y0193148D01*
X0031837Y0193048D01*
X0032310Y0192852D01*
X0032466Y0192748D01*
X0034614Y0192748D01*
X0034593Y0192851D01*
X0034593Y0196060D01*
X0039752Y0196060D01*
X0039752Y0196060D01*
X0034593Y0196060D01*
X0034593Y0199269D01*
X0034693Y0199771D01*
X0034889Y0200245D01*
X0034989Y0200394D01*
X0034636Y0200394D01*
X0033347Y0201683D01*
X0033347Y0202849D01*
X0033309Y0202865D01*
X0032550Y0203624D01*
X0031252Y0204922D01*
X0030004Y0204922D01*
X0029555Y0204473D01*
X0028653Y0204099D01*
X0028653Y0196683D01*
X0027364Y0195394D01*
X0022701Y0195394D01*
X0020562Y0193256D01*
X0020562Y0191860D01*
X0019978Y0191276D01*
X0020020Y0191248D01*
X0020382Y0190886D01*
X0020666Y0190460D01*
X0020862Y0189987D01*
X0020962Y0189484D01*
X0020962Y0186866D01*
X0016000Y0186866D01*
X0016000Y0186866D01*
X0011038Y0186866D01*
X0016000Y0183976D02*
X0016000Y0183976D01*
X0018812Y0180778D02*
X0007006Y0180778D01*
X0007034Y0177579D02*
X0018812Y0177579D01*
X0018785Y0174381D02*
X0007061Y0174381D01*
X0010034Y0170816D02*
X0011184Y0171966D01*
X0012687Y0172589D01*
X0014313Y0172589D01*
X0015816Y0171966D01*
X0016966Y0170816D01*
X0017589Y0169313D01*
X0017589Y0167687D01*
X0016966Y0166184D01*
X0015816Y0165034D01*
X0014313Y0164411D01*
X0012687Y0164411D01*
X0011184Y0165034D01*
X0010034Y0166184D01*
X0009411Y0167687D01*
X0009411Y0169313D01*
X0010034Y0170816D01*
X0010400Y0171182D02*
X0007088Y0171182D01*
X0007116Y0167984D02*
X0009411Y0167984D01*
X0007143Y0164785D02*
X0011783Y0164785D01*
X0015217Y0164785D02*
X0045519Y0164785D01*
X0045548Y0161587D02*
X0042005Y0161587D01*
X0042005Y0158388D02*
X0045548Y0158388D01*
X0045816Y0155190D02*
X0041985Y0155190D01*
X0045937Y0151991D02*
X0055947Y0151991D01*
X0055947Y0148793D02*
X0048605Y0148793D01*
X0049600Y0145594D02*
X0055547Y0145594D01*
X0055547Y0142396D02*
X0049428Y0142396D01*
X0050707Y0155190D02*
X0050708Y0155190D01*
X0050707Y0158388D02*
X0050708Y0158388D01*
X0045519Y0167984D02*
X0044319Y0167984D01*
X0039042Y0167984D02*
X0039042Y0167984D01*
X0039042Y0171182D02*
X0039042Y0171182D01*
X0030198Y0170478D02*
X0030198Y0164925D01*
X0030198Y0170478D01*
X0030198Y0170478D01*
X0030198Y0167984D02*
X0030198Y0167984D01*
X0036846Y0161587D02*
X0036847Y0161587D01*
X0018746Y0167984D02*
X0017589Y0167984D01*
X0016600Y0171182D02*
X0018746Y0171182D01*
X0010200Y0161587D02*
X0007170Y0161587D01*
X0007198Y0158388D02*
X0009411Y0158388D01*
X0010200Y0155190D02*
X0007225Y0155190D01*
X0007252Y0151991D02*
X0010200Y0151991D01*
X0010200Y0148793D02*
X0007280Y0148793D01*
X0007307Y0145594D02*
X0010200Y0145594D01*
X0010200Y0142396D02*
X0007334Y0142396D01*
X0007362Y0139197D02*
X0010200Y0139197D01*
X0010200Y0135999D02*
X0007389Y0135999D01*
X0007416Y0132800D02*
X0010200Y0132800D01*
X0010200Y0129602D02*
X0007444Y0129602D01*
X0007471Y0126403D02*
X0010200Y0126403D01*
X0010200Y0123205D02*
X0007498Y0123205D01*
X0007526Y0120006D02*
X0010200Y0120006D01*
X0010629Y0116808D02*
X0007553Y0116808D01*
X0007580Y0113609D02*
X0013724Y0113609D01*
X0015200Y0110411D02*
X0007608Y0110411D01*
X0007635Y0107212D02*
X0015200Y0107212D01*
X0015200Y0104014D02*
X0007662Y0104014D01*
X0007690Y0100815D02*
X0015200Y0100815D01*
X0015200Y0097617D02*
X0007717Y0097617D01*
X0007744Y0094418D02*
X0015200Y0094418D01*
X0015200Y0091220D02*
X0007772Y0091220D01*
X0007799Y0088021D02*
X0015200Y0088021D01*
X0015200Y0084823D02*
X0007826Y0084823D01*
X0007854Y0081624D02*
X0015200Y0081624D01*
X0016408Y0078426D02*
X0007881Y0078426D01*
X0007908Y0075227D02*
X0031759Y0075227D01*
X0033244Y0072029D02*
X0007936Y0072029D01*
X0047956Y0072029D02*
X0065502Y0072029D01*
X0065394Y0075227D02*
X0049441Y0075227D01*
X0056000Y0024051D02*
X0056000Y0024051D01*
X0056000Y0020852D02*
X0056000Y0020852D01*
X0056000Y0020567D02*
X0056000Y0014405D01*
X0056000Y0020567D01*
X0056000Y0020567D01*
X0056000Y0017654D02*
X0056000Y0017654D01*
X0056000Y0014455D02*
X0056000Y0014455D01*
X0023442Y0183976D02*
X0020908Y0183976D01*
X0020962Y0187175D02*
X0023361Y0187175D01*
X0023361Y0187595D02*
X0028520Y0187595D01*
X0028520Y0193148D01*
X0025705Y0193148D01*
X0025202Y0193048D01*
X0024729Y0192852D01*
X0024303Y0192568D01*
X0023941Y0192205D01*
X0023657Y0191780D01*
X0023461Y0191306D01*
X0023361Y0190804D01*
X0023361Y0187595D01*
X0023361Y0190373D02*
X0020702Y0190373D01*
X0020878Y0193572D02*
X0034593Y0193572D01*
X0034593Y0196770D02*
X0028653Y0196770D01*
X0028653Y0199969D02*
X0034775Y0199969D01*
X0033006Y0203168D02*
X0028653Y0203168D01*
X0031937Y0212763D02*
X0020962Y0212763D01*
X0028653Y0215962D02*
X0033992Y0215962D01*
X0033370Y0219160D02*
X0028653Y0219160D01*
X0029940Y0222359D02*
X0031315Y0222359D01*
X0043008Y0215962D02*
X0050608Y0215962D01*
X0049550Y0228756D02*
X0054805Y0228756D01*
X0051606Y0231954D02*
X0046938Y0231954D01*
X0032819Y0251145D02*
X0029105Y0251145D01*
X0012894Y0251145D02*
X0006405Y0251145D01*
X0006432Y0247947D02*
X0010303Y0247947D01*
X0010303Y0244748D02*
X0006459Y0244748D01*
X0006487Y0241550D02*
X0010265Y0241550D01*
X0009903Y0238351D02*
X0006514Y0238351D01*
X0006541Y0235153D02*
X0009920Y0235153D01*
X0014865Y0235153D02*
X0014865Y0235153D01*
X0012894Y0254344D02*
X0006377Y0254344D01*
X0006350Y0257542D02*
X0013073Y0257542D01*
X0033500Y0270336D02*
X0033500Y0270336D01*
X0033500Y0273535D02*
X0033500Y0273535D01*
X0028520Y0190373D02*
X0028520Y0190373D01*
X0261300Y0056000D02*
X0264505Y0056000D01*
X0261300Y0056000D01*
X0261300Y0056000D01*
X0264505Y0056036D02*
X0267675Y0056036D01*
X0264505Y0052837D02*
X0270873Y0052837D01*
X0315620Y0094418D02*
X0315814Y0094418D01*
X0320134Y0094418D02*
X0320134Y0094418D01*
X0320134Y0097617D02*
X0320134Y0097617D01*
X0320134Y0100815D02*
X0320134Y0100815D01*
X0325096Y0100815D02*
X0327690Y0100815D01*
X0327717Y0097617D02*
X0325096Y0097617D01*
X0324453Y0094418D02*
X0327744Y0094418D01*
X0319593Y0107212D02*
X0319593Y0107212D01*
X0319593Y0110411D02*
X0319593Y0110411D01*
X0319593Y0113609D02*
X0319593Y0113609D01*
X0315639Y0107212D02*
X0314736Y0107212D01*
X0306763Y0113609D02*
X0293042Y0113609D01*
X0288200Y0110411D02*
X0306280Y0110411D01*
X0303082Y0107212D02*
X0287224Y0107212D01*
X0285347Y0104014D02*
X0299883Y0104014D01*
D40*
X0300950Y0101262D02*
X0300950Y0089985D01*
X0294906Y0083941D01*
X0294906Y0083739D01*
X0299687Y0079687D02*
X0311000Y0091000D01*
X0311000Y0097634D01*
X0311866Y0098500D01*
X0300950Y0101262D02*
X0311326Y0111638D01*
X0294511Y0097724D02*
X0294511Y0095003D01*
X0294511Y0094989D01*
X0298500Y0091000D01*
X0294511Y0095003D02*
X0291886Y0092378D01*
X0290114Y0092378D02*
X0287818Y0094674D01*
X0287818Y0097724D01*
X0282042Y0103500D01*
X0243500Y0103500D01*
X0243500Y0099300D02*
X0245200Y0099300D01*
X0247751Y0101851D01*
X0262205Y0101851D01*
X0266335Y0097722D01*
X0269569Y0097722D01*
X0269569Y0095423D01*
X0272614Y0092378D01*
X0274386Y0092378D02*
X0276262Y0094254D01*
X0276262Y0097722D01*
X0276262Y0095738D01*
X0281000Y0091000D01*
X0281341Y0083544D02*
X0277206Y0083544D01*
X0281341Y0083544D02*
X0285198Y0079687D01*
X0299687Y0079687D01*
X0302366Y0074750D02*
X0311605Y0083989D01*
X0302366Y0074750D02*
X0270178Y0074750D01*
X0266519Y0071716D02*
X0266519Y0071342D01*
X0267164Y0070697D01*
X0306948Y0070697D01*
X0308491Y0069153D01*
X0288213Y0083739D02*
X0288213Y0086835D01*
X0291000Y0089622D01*
X0273500Y0089622D02*
X0270513Y0086635D01*
X0270513Y0083544D01*
X0263500Y0091000D02*
X0259191Y0095309D01*
X0259191Y0097799D01*
X0259191Y0094839D01*
X0256730Y0092378D01*
X0254958Y0092378D02*
X0252498Y0094839D01*
X0252498Y0097799D01*
X0250699Y0096000D01*
X0243500Y0096000D01*
X0240390Y0087139D02*
X0274029Y0053500D01*
X0285567Y0053500D01*
X0266519Y0071716D02*
X0263485Y0074750D01*
X0259965Y0078271D01*
X0259965Y0083200D01*
X0253272Y0083200D02*
X0253272Y0087050D01*
X0255844Y0089622D01*
X0240390Y0087139D02*
X0233500Y0077654D01*
X0226846Y0071000D01*
X0225034Y0087599D02*
X0233237Y0087599D01*
X0233698Y0087139D01*
X0225034Y0087599D02*
X0222000Y0090633D01*
X0221626Y0090633D01*
X0218956Y0093303D01*
X0209976Y0093303D01*
X0231000Y0121000D02*
X0166846Y0121000D01*
X0163813Y0124034D01*
X0163813Y0124408D01*
X0162221Y0126000D01*
X0161000Y0126000D01*
X0160154Y0121000D02*
X0150134Y0121000D01*
X0166846Y0121000D02*
X0166846Y0119642D01*
X0171059Y0115429D01*
X0168500Y0106571D02*
X0168500Y0096846D01*
X0167654Y0096000D01*
X0167654Y0097456D01*
X0167654Y0096000D02*
X0167654Y0086000D01*
X0174346Y0086000D02*
X0174346Y0076000D01*
X0174346Y0072555D01*
X0168500Y0066709D01*
X0161000Y0066000D01*
X0151000Y0056000D01*
X0135154Y0076000D02*
X0135154Y0082890D01*
X0133598Y0084445D01*
X0127961Y0096000D02*
X0091000Y0096000D01*
X0091000Y0101188D01*
X0091275Y0101114D01*
X0095303Y0101114D01*
X0095303Y0104476D01*
X0096303Y0104476D01*
X0096303Y0101114D01*
X0100331Y0101114D01*
X0100713Y0101216D01*
X0101055Y0101414D01*
X0101334Y0101693D01*
X0101532Y0102035D01*
X0101634Y0102417D01*
X0101634Y0104476D01*
X0096303Y0104476D01*
X0096303Y0105476D01*
X0101634Y0105476D01*
X0101634Y0107536D01*
X0101532Y0107918D01*
X0101334Y0108260D01*
X0101055Y0108539D01*
X0100713Y0108736D01*
X0100331Y0108839D01*
X0096303Y0108839D01*
X0096303Y0105476D01*
X0095303Y0105476D01*
X0095303Y0108839D01*
X0091275Y0108839D01*
X0091000Y0108765D01*
X0091000Y0118500D01*
X0128500Y0118500D01*
X0128500Y0106751D01*
X0127961Y0106212D01*
X0127961Y0098898D01*
X0128500Y0098360D01*
X0128500Y0097695D01*
X0127961Y0097157D01*
X0127961Y0096000D01*
X0127961Y0096235D02*
X0091000Y0096235D01*
X0091000Y0097234D02*
X0106757Y0097234D01*
X0106729Y0097250D02*
X0107071Y0097052D01*
X0107453Y0096950D01*
X0115500Y0096950D01*
X0115500Y0105450D01*
X0116500Y0105450D01*
X0116500Y0106450D01*
X0115500Y0106450D01*
X0115500Y0114950D01*
X0107453Y0114950D01*
X0107071Y0114848D01*
X0106729Y0114650D01*
X0106450Y0114371D01*
X0106252Y0114029D01*
X0106150Y0113647D01*
X0106150Y0106450D01*
X0115500Y0106450D01*
X0115500Y0105450D01*
X0106150Y0105450D01*
X0106150Y0098253D01*
X0106252Y0097871D01*
X0106450Y0097529D01*
X0106729Y0097250D01*
X0106155Y0098232D02*
X0091000Y0098232D01*
X0091000Y0099231D02*
X0106150Y0099231D01*
X0106150Y0100229D02*
X0091000Y0100229D01*
X0088500Y0100229D02*
X0018500Y0100229D01*
X0018500Y0099231D02*
X0088500Y0099231D01*
X0088500Y0098232D02*
X0018500Y0098232D01*
X0018500Y0097234D02*
X0088500Y0097234D01*
X0088500Y0096235D02*
X0018500Y0096235D01*
X0018500Y0095237D02*
X0088500Y0095237D01*
X0088500Y0094238D02*
X0018500Y0094238D01*
X0018500Y0093239D02*
X0088500Y0093239D01*
X0088500Y0092241D02*
X0018500Y0092241D01*
X0018500Y0091242D02*
X0088500Y0091242D01*
X0088500Y0090244D02*
X0018500Y0090244D01*
X0018500Y0089245D02*
X0088500Y0089245D01*
X0088500Y0088247D02*
X0018500Y0088247D01*
X0018500Y0087248D02*
X0088500Y0087248D01*
X0088500Y0086250D02*
X0018500Y0086250D01*
X0018500Y0085251D02*
X0038911Y0085251D01*
X0039029Y0085300D02*
X0036125Y0084097D01*
X0033903Y0081875D01*
X0033540Y0081000D01*
X0018500Y0081000D01*
X0018500Y0111000D01*
X0048500Y0111000D01*
X0056000Y0118500D01*
X0088500Y0118500D01*
X0088500Y0081000D01*
X0047660Y0081000D01*
X0047297Y0081875D01*
X0045075Y0084097D01*
X0042171Y0085300D01*
X0039029Y0085300D01*
X0036501Y0084253D02*
X0018500Y0084253D01*
X0018500Y0083254D02*
X0035282Y0083254D01*
X0034284Y0082256D02*
X0018500Y0082256D01*
X0018500Y0081257D02*
X0033647Y0081257D01*
X0042289Y0085251D02*
X0088500Y0085251D01*
X0088500Y0084253D02*
X0044699Y0084253D01*
X0045918Y0083254D02*
X0088500Y0083254D01*
X0088500Y0082256D02*
X0046916Y0082256D01*
X0047553Y0081257D02*
X0088500Y0081257D01*
X0087654Y0076000D02*
X0076846Y0076000D01*
X0070154Y0076000D02*
X0070154Y0095154D01*
X0071000Y0096000D01*
X0088500Y0101228D02*
X0018500Y0101228D01*
X0018500Y0102226D02*
X0088500Y0102226D01*
X0088500Y0103225D02*
X0018500Y0103225D01*
X0018500Y0104223D02*
X0088500Y0104223D01*
X0088500Y0105222D02*
X0018500Y0105222D01*
X0018500Y0106220D02*
X0088500Y0106220D01*
X0088500Y0107219D02*
X0018500Y0107219D01*
X0018500Y0108217D02*
X0088500Y0108217D01*
X0088500Y0109216D02*
X0018500Y0109216D01*
X0018500Y0110214D02*
X0088500Y0110214D01*
X0088500Y0111213D02*
X0048713Y0111213D01*
X0049711Y0112211D02*
X0088500Y0112211D01*
X0088500Y0113210D02*
X0050710Y0113210D01*
X0051708Y0114208D02*
X0088500Y0114208D01*
X0088500Y0115207D02*
X0052707Y0115207D01*
X0053705Y0116205D02*
X0088500Y0116205D01*
X0088500Y0117204D02*
X0054704Y0117204D01*
X0055702Y0118202D02*
X0088500Y0118202D01*
X0091000Y0118202D02*
X0128500Y0118202D01*
X0128500Y0117204D02*
X0091000Y0117204D01*
X0091000Y0116205D02*
X0128500Y0116205D01*
X0128500Y0115207D02*
X0091000Y0115207D01*
X0091000Y0114208D02*
X0106356Y0114208D01*
X0106150Y0113210D02*
X0091000Y0113210D01*
X0091000Y0112211D02*
X0106150Y0112211D01*
X0106150Y0111213D02*
X0091000Y0111213D01*
X0091000Y0110214D02*
X0106150Y0110214D01*
X0106150Y0109216D02*
X0091000Y0109216D01*
X0095303Y0108217D02*
X0096303Y0108217D01*
X0096303Y0107219D02*
X0095303Y0107219D01*
X0095303Y0106220D02*
X0096303Y0106220D01*
X0096303Y0105222D02*
X0106150Y0105222D01*
X0106150Y0104223D02*
X0101634Y0104223D01*
X0101634Y0103225D02*
X0106150Y0103225D01*
X0106150Y0102226D02*
X0101583Y0102226D01*
X0100732Y0101228D02*
X0106150Y0101228D01*
X0101634Y0106220D02*
X0115500Y0106220D01*
X0115500Y0105222D02*
X0116500Y0105222D01*
X0116500Y0105450D02*
X0116500Y0096950D01*
X0124547Y0096950D01*
X0124929Y0097052D01*
X0125271Y0097250D01*
X0125550Y0097529D01*
X0125748Y0097871D01*
X0125850Y0098253D01*
X0125850Y0105450D01*
X0116500Y0105450D01*
X0116500Y0106220D02*
X0127970Y0106220D01*
X0127961Y0105222D02*
X0125850Y0105222D01*
X0125850Y0104223D02*
X0127961Y0104223D01*
X0127961Y0103225D02*
X0125850Y0103225D01*
X0125850Y0102226D02*
X0127961Y0102226D01*
X0127961Y0101228D02*
X0125850Y0101228D01*
X0125850Y0100229D02*
X0127961Y0100229D01*
X0127961Y0099231D02*
X0125850Y0099231D01*
X0125845Y0098232D02*
X0128500Y0098232D01*
X0128038Y0097234D02*
X0125243Y0097234D01*
X0116500Y0097234D02*
X0115500Y0097234D01*
X0115500Y0098232D02*
X0116500Y0098232D01*
X0116500Y0099231D02*
X0115500Y0099231D01*
X0115500Y0100229D02*
X0116500Y0100229D01*
X0116500Y0101228D02*
X0115500Y0101228D01*
X0115500Y0102226D02*
X0116500Y0102226D01*
X0116500Y0103225D02*
X0115500Y0103225D01*
X0115500Y0104223D02*
X0116500Y0104223D01*
X0116500Y0106450D02*
X0125850Y0106450D01*
X0125850Y0113647D01*
X0125748Y0114029D01*
X0125550Y0114371D01*
X0125271Y0114650D01*
X0124929Y0114848D01*
X0124547Y0114950D01*
X0116500Y0114950D01*
X0116500Y0106450D01*
X0116500Y0107219D02*
X0115500Y0107219D01*
X0115500Y0108217D02*
X0116500Y0108217D01*
X0116500Y0109216D02*
X0115500Y0109216D01*
X0115500Y0110214D02*
X0116500Y0110214D01*
X0116500Y0111213D02*
X0115500Y0111213D01*
X0115500Y0112211D02*
X0116500Y0112211D01*
X0116500Y0113210D02*
X0115500Y0113210D01*
X0115500Y0114208D02*
X0116500Y0114208D01*
X0125644Y0114208D02*
X0128500Y0114208D01*
X0128500Y0113210D02*
X0125850Y0113210D01*
X0125850Y0112211D02*
X0128500Y0112211D01*
X0128500Y0111213D02*
X0125850Y0111213D01*
X0125850Y0110214D02*
X0128500Y0110214D01*
X0128500Y0109216D02*
X0125850Y0109216D01*
X0125850Y0108217D02*
X0128500Y0108217D01*
X0128500Y0107219D02*
X0125850Y0107219D01*
X0128500Y0121000D02*
X0093500Y0121000D01*
X0093500Y0148500D01*
X0120450Y0148500D01*
X0120450Y0147893D01*
X0120914Y0146772D01*
X0121772Y0145914D01*
X0122893Y0145450D01*
X0124107Y0145450D01*
X0125228Y0145914D01*
X0126086Y0146772D01*
X0126550Y0147893D01*
X0126550Y0148500D01*
X0128500Y0148500D01*
X0128500Y0121000D01*
X0128500Y0121198D02*
X0093500Y0121198D01*
X0093500Y0122196D02*
X0128500Y0122196D01*
X0128500Y0123195D02*
X0093500Y0123195D01*
X0093500Y0124193D02*
X0128500Y0124193D01*
X0128500Y0125192D02*
X0093500Y0125192D01*
X0093500Y0126190D02*
X0128500Y0126190D01*
X0128500Y0127189D02*
X0093500Y0127189D01*
X0093500Y0128187D02*
X0128500Y0128187D01*
X0128500Y0129186D02*
X0093500Y0129186D01*
X0093500Y0130184D02*
X0128500Y0130184D01*
X0128500Y0131183D02*
X0093500Y0131183D01*
X0093500Y0132181D02*
X0128500Y0132181D01*
X0128500Y0133180D02*
X0093500Y0133180D01*
X0093500Y0134178D02*
X0128500Y0134178D01*
X0128500Y0135177D02*
X0093500Y0135177D01*
X0093500Y0136175D02*
X0128500Y0136175D01*
X0128500Y0137174D02*
X0093500Y0137174D01*
X0093500Y0138172D02*
X0128500Y0138172D01*
X0128500Y0139171D02*
X0093500Y0139171D01*
X0093500Y0140170D02*
X0128500Y0140170D01*
X0128500Y0141168D02*
X0093500Y0141168D01*
X0093500Y0142167D02*
X0128500Y0142167D01*
X0128500Y0143165D02*
X0093500Y0143165D01*
X0093500Y0144164D02*
X0128500Y0144164D01*
X0128500Y0145162D02*
X0093500Y0145162D01*
X0093500Y0146161D02*
X0121526Y0146161D01*
X0120754Y0147159D02*
X0093500Y0147159D01*
X0093500Y0148158D02*
X0120450Y0148158D01*
X0125474Y0146161D02*
X0128500Y0146161D01*
X0128500Y0147159D02*
X0126246Y0147159D01*
X0126550Y0148158D02*
X0128500Y0148158D01*
X0107619Y0169059D02*
X0107619Y0173246D01*
X0112679Y0178307D01*
X0106233Y0186295D02*
X0104823Y0187704D01*
X0110386Y0193267D01*
X0112679Y0193267D01*
X0104823Y0187704D02*
X0101789Y0184671D01*
X0101789Y0184296D01*
X0101145Y0183652D01*
X0093257Y0183652D01*
X0090056Y0180450D01*
X0087150Y0180450D01*
X0086450Y0179750D01*
X0086450Y0177250D02*
X0093482Y0177250D01*
X0097524Y0181292D01*
X0100092Y0181292D01*
X0101908Y0179476D01*
X0101908Y0176533D01*
X0107619Y0170822D01*
X0107619Y0169059D01*
X0101000Y0168500D02*
X0096902Y0168500D01*
X0094154Y0165752D01*
X0090156Y0169750D01*
X0086450Y0169750D01*
X0086450Y0167250D02*
X0082250Y0167250D01*
X0081000Y0166000D01*
X0083215Y0164750D02*
X0082015Y0163550D01*
X0079985Y0163550D01*
X0078550Y0164985D01*
X0078550Y0167015D01*
X0081000Y0169465D01*
X0081000Y0171000D01*
X0078500Y0169228D02*
X0078500Y0176000D01*
X0078500Y0169228D02*
X0076950Y0167678D01*
X0076950Y0164322D01*
X0079322Y0161950D01*
X0082678Y0161950D01*
X0082978Y0162250D01*
X0086450Y0162250D01*
X0086450Y0164750D02*
X0083215Y0164750D01*
X0083544Y0167250D02*
X0086450Y0167250D01*
X0086450Y0172250D02*
X0087150Y0172950D01*
X0090056Y0172950D01*
X0090606Y0173500D01*
X0098500Y0173500D01*
X0095716Y0175100D02*
X0098808Y0178192D01*
X0095716Y0175100D02*
X0089943Y0175100D01*
X0089593Y0174750D01*
X0086450Y0174750D01*
X0086450Y0182250D02*
X0087150Y0182950D01*
X0090056Y0182950D01*
X0094810Y0187704D01*
X0098130Y0187704D01*
X0092200Y0187594D02*
X0092200Y0191000D01*
X0092200Y0187594D02*
X0090056Y0185450D01*
X0087150Y0185450D01*
X0086450Y0184750D01*
X0086450Y0187250D02*
X0086450Y0189750D01*
X0086450Y0192250D01*
X0088095Y0193895D01*
X0088095Y0200627D01*
X0073500Y0191000D02*
X0072250Y0192250D01*
X0065550Y0192250D01*
X0063801Y0193999D01*
X0063801Y0197901D01*
X0065550Y0192250D02*
X0059677Y0192250D01*
X0055390Y0196536D01*
X0055390Y0198003D01*
X0055156Y0194344D02*
X0051982Y0194344D01*
X0050266Y0196060D01*
X0046445Y0196060D01*
X0051423Y0191083D01*
X0051423Y0187888D01*
X0044730Y0187888D02*
X0044730Y0182270D01*
X0047038Y0179962D01*
X0047038Y0173781D01*
X0047682Y0173137D01*
X0060405Y0173137D01*
X0062018Y0174750D01*
X0065550Y0174750D01*
X0066250Y0176550D02*
X0069156Y0176550D01*
X0069800Y0175906D01*
X0069800Y0168594D01*
X0069706Y0168500D01*
X0071206Y0167000D01*
X0072584Y0167000D01*
X0074400Y0165184D01*
X0074400Y0160000D01*
X0072900Y0158500D01*
X0069800Y0158594D02*
X0069800Y0160906D01*
X0069156Y0161550D01*
X0066250Y0161550D01*
X0065550Y0162250D01*
X0065550Y0164750D02*
X0070450Y0164750D01*
X0071300Y0163900D01*
X0069800Y0158594D02*
X0069356Y0158150D01*
X0069356Y0150582D01*
X0061099Y0150620D02*
X0061099Y0155299D01*
X0065550Y0159750D01*
X0061300Y0163206D02*
X0057400Y0159307D01*
X0061300Y0163206D02*
X0061300Y0165906D01*
X0061944Y0166550D01*
X0064850Y0166550D01*
X0065550Y0167250D01*
X0064850Y0169050D02*
X0061944Y0169050D01*
X0060308Y0167414D01*
X0057371Y0167414D01*
X0061067Y0171536D02*
X0061781Y0172250D01*
X0065550Y0172250D01*
X0065150Y0171850D01*
X0065550Y0169750D02*
X0064850Y0169050D01*
X0061067Y0171536D02*
X0047020Y0171536D01*
X0040136Y0178420D01*
X0039042Y0178420D01*
X0040136Y0178420D01*
X0039042Y0178420D02*
X0030509Y0178420D01*
X0030264Y0178665D01*
X0023571Y0178665D02*
X0023571Y0170544D01*
X0023505Y0170478D01*
X0032587Y0161000D02*
X0013500Y0161000D01*
X0013500Y0118500D01*
X0018500Y0113500D01*
X0041000Y0113500D01*
X0048500Y0121000D01*
X0066000Y0121000D01*
X0066000Y0129651D01*
X0065163Y0129651D01*
X0064167Y0130647D01*
X0064167Y0137960D01*
X0064706Y0138500D01*
X0045672Y0138500D01*
X0045075Y0137903D01*
X0042171Y0136700D01*
X0039029Y0136700D01*
X0036125Y0137903D01*
X0033903Y0140125D01*
X0033569Y0140931D01*
X0033500Y0141000D01*
X0033500Y0141097D01*
X0032700Y0143029D01*
X0032700Y0146171D01*
X0033500Y0148103D01*
X0033500Y0153930D01*
X0032587Y0154843D01*
X0032587Y0161000D01*
X0032587Y0160140D02*
X0013500Y0160140D01*
X0013500Y0159141D02*
X0032587Y0159141D01*
X0032587Y0158143D02*
X0013500Y0158143D01*
X0013500Y0157144D02*
X0032587Y0157144D01*
X0032587Y0156146D02*
X0013500Y0156146D01*
X0013500Y0155147D02*
X0032587Y0155147D01*
X0033282Y0154149D02*
X0013500Y0154149D01*
X0013500Y0153150D02*
X0033500Y0153150D01*
X0033500Y0152152D02*
X0013500Y0152152D01*
X0013500Y0151153D02*
X0033500Y0151153D01*
X0033500Y0150155D02*
X0013500Y0150155D01*
X0013500Y0149156D02*
X0033500Y0149156D01*
X0033500Y0148158D02*
X0013500Y0148158D01*
X0013500Y0147159D02*
X0033109Y0147159D01*
X0032700Y0146161D02*
X0013500Y0146161D01*
X0013500Y0145162D02*
X0032700Y0145162D01*
X0032700Y0144164D02*
X0013500Y0144164D01*
X0013500Y0143165D02*
X0032700Y0143165D01*
X0033057Y0142167D02*
X0013500Y0142167D01*
X0013500Y0141168D02*
X0033471Y0141168D01*
X0033884Y0140170D02*
X0013500Y0140170D01*
X0013500Y0139171D02*
X0034857Y0139171D01*
X0035855Y0138172D02*
X0013500Y0138172D01*
X0013500Y0137174D02*
X0037884Y0137174D01*
X0043316Y0137174D02*
X0064167Y0137174D01*
X0064767Y0137174D02*
X0056000Y0137174D01*
X0056000Y0138172D02*
X0065227Y0138172D01*
X0065411Y0138356D02*
X0064767Y0137712D01*
X0064767Y0130895D01*
X0065411Y0130251D01*
X0066000Y0130251D01*
X0066000Y0121000D01*
X0056000Y0121000D01*
X0056000Y0138500D01*
X0066000Y0138500D01*
X0066000Y0138356D01*
X0065411Y0138356D01*
X0064379Y0138172D02*
X0045345Y0138172D01*
X0056000Y0136175D02*
X0064767Y0136175D01*
X0064167Y0136175D02*
X0013500Y0136175D01*
X0013500Y0135177D02*
X0064167Y0135177D01*
X0064767Y0135177D02*
X0056000Y0135177D01*
X0056000Y0134178D02*
X0064767Y0134178D01*
X0064167Y0134178D02*
X0013500Y0134178D01*
X0013500Y0133180D02*
X0064167Y0133180D01*
X0064767Y0133180D02*
X0056000Y0133180D01*
X0056000Y0132181D02*
X0064767Y0132181D01*
X0064167Y0132181D02*
X0013500Y0132181D01*
X0013500Y0131183D02*
X0064167Y0131183D01*
X0064767Y0131183D02*
X0056000Y0131183D01*
X0056000Y0130184D02*
X0066000Y0130184D01*
X0066000Y0129186D02*
X0013500Y0129186D01*
X0013500Y0130184D02*
X0064629Y0130184D01*
X0066000Y0129186D02*
X0056000Y0129186D01*
X0056000Y0128187D02*
X0066000Y0128187D01*
X0013500Y0128187D01*
X0013500Y0127189D02*
X0066000Y0127189D01*
X0056000Y0127189D01*
X0056000Y0126190D02*
X0066000Y0126190D01*
X0013500Y0126190D01*
X0013500Y0125192D02*
X0066000Y0125192D01*
X0056000Y0125192D01*
X0056000Y0124193D02*
X0066000Y0124193D01*
X0013500Y0124193D01*
X0013500Y0123195D02*
X0066000Y0123195D01*
X0056000Y0123195D01*
X0056000Y0122196D02*
X0066000Y0122196D01*
X0013500Y0122196D01*
X0013500Y0121198D02*
X0066000Y0121198D01*
X0056000Y0121198D01*
X0047699Y0120199D02*
X0013500Y0120199D01*
X0013500Y0119201D02*
X0046701Y0119201D01*
X0045702Y0118202D02*
X0013798Y0118202D01*
X0014796Y0117204D02*
X0044704Y0117204D01*
X0043705Y0116205D02*
X0015795Y0116205D01*
X0016793Y0115207D02*
X0042707Y0115207D01*
X0041708Y0114208D02*
X0017792Y0114208D01*
X0078500Y0158500D02*
X0085200Y0158500D01*
X0086450Y0159750D01*
X0066250Y0176550D02*
X0065550Y0177250D01*
X0057451Y0177250D01*
X0057390Y0177189D01*
X0058096Y0177250D01*
X0062644Y0177250D02*
X0065550Y0177250D01*
X0065550Y0179750D02*
X0061897Y0179750D01*
X0060405Y0181242D01*
X0054375Y0181242D01*
X0053731Y0180598D01*
X0053731Y0180223D01*
X0050697Y0177189D01*
X0058500Y0186000D02*
X0061237Y0186000D01*
X0061787Y0185450D01*
X0064850Y0185450D01*
X0065550Y0184750D01*
X0066250Y0182950D02*
X0069156Y0182950D01*
X0069800Y0183594D01*
X0069800Y0185906D01*
X0069156Y0186550D01*
X0066250Y0186550D01*
X0065550Y0187250D01*
X0065550Y0189750D01*
X0059750Y0189750D01*
X0055156Y0194344D01*
X0059750Y0189750D02*
X0062250Y0187250D01*
X0065550Y0187250D01*
X0066250Y0182950D02*
X0065550Y0182250D01*
X0044730Y0187888D02*
X0035506Y0187888D01*
X0035213Y0187595D01*
X0034839Y0205154D02*
X0032378Y0207614D01*
X0032378Y0209386D02*
X0034839Y0211846D01*
X0038500Y0211846D01*
X0045154Y0211846D01*
X0046000Y0211000D01*
X0038500Y0205154D02*
X0034839Y0205154D01*
X0034839Y0222654D02*
X0038500Y0222654D01*
X0034839Y0222654D02*
X0032378Y0225114D01*
X0032378Y0226886D02*
X0034839Y0229346D01*
X0038500Y0229346D01*
X0045154Y0229346D01*
X0046000Y0228500D01*
X0048500Y0243500D02*
X0042654Y0249346D01*
X0038500Y0249346D01*
X0034839Y0249346D01*
X0032378Y0246886D01*
X0032378Y0245114D02*
X0034839Y0242654D01*
X0038500Y0242654D01*
X0029622Y0246000D02*
X0029622Y0238776D01*
X0029346Y0238500D01*
X0022654Y0238500D02*
X0022654Y0251807D01*
X0024346Y0253500D01*
X0023500Y0254346D01*
X0023500Y0271000D01*
X0017654Y0253500D02*
X0017654Y0248914D01*
X0014865Y0246125D01*
X0101359Y0108217D02*
X0106150Y0108217D01*
X0106150Y0107219D02*
X0101634Y0107219D01*
X0096303Y0104223D02*
X0095303Y0104223D01*
X0095303Y0103225D02*
X0096303Y0103225D01*
X0096303Y0102226D02*
X0095303Y0102226D01*
X0095303Y0101228D02*
X0096303Y0101228D01*
X0095803Y0087024D02*
X0094346Y0085567D01*
X0095626Y0086846D01*
X0108500Y0086846D01*
X0094346Y0085567D02*
X0094346Y0076000D01*
X0156000Y0081846D02*
X0156000Y0093500D01*
X0156000Y0081846D02*
X0158500Y0079346D01*
X0164307Y0079346D01*
X0167654Y0076000D01*
X0208282Y0133821D02*
X0208282Y0139576D01*
X0209800Y0141094D01*
X0209800Y0143406D01*
X0209156Y0144050D01*
X0206250Y0144050D01*
X0205550Y0144750D01*
X0205550Y0142250D02*
X0199539Y0136906D01*
X0197387Y0145647D02*
X0201300Y0149560D01*
X0201300Y0150906D01*
X0201944Y0151550D01*
X0204850Y0151550D01*
X0205550Y0152250D01*
X0204850Y0154050D02*
X0205550Y0154750D01*
X0204850Y0154050D02*
X0201944Y0154050D01*
X0201719Y0153825D01*
X0197292Y0153825D01*
X0194258Y0150791D01*
X0194258Y0150416D01*
X0193613Y0149772D01*
X0185278Y0149772D01*
X0181222Y0145716D01*
X0174529Y0145716D02*
X0174529Y0153785D01*
X0174457Y0153857D01*
X0181150Y0153857D02*
X0181150Y0161817D01*
X0181460Y0162127D01*
X0188153Y0162127D02*
X0196824Y0162127D01*
X0196824Y0162836D01*
X0197058Y0162836D01*
X0201944Y0157950D01*
X0204850Y0157950D01*
X0205550Y0157250D01*
X0206250Y0159050D02*
X0209156Y0159050D01*
X0209800Y0158406D01*
X0209800Y0151094D01*
X0209706Y0151000D01*
X0210056Y0150650D01*
X0212078Y0150650D01*
X0216000Y0146728D01*
X0216000Y0141000D01*
X0219605Y0137395D01*
X0219839Y0137395D01*
X0223511Y0133723D01*
X0224629Y0133723D01*
X0253585Y0133723D01*
X0269882Y0117426D01*
X0270257Y0117426D01*
X0273291Y0114392D01*
X0270832Y0111934D01*
X0281000Y0111000D02*
X0281426Y0111426D01*
X0281426Y0114331D01*
X0277811Y0136000D02*
X0238500Y0136000D01*
X0234945Y0139555D01*
X0234945Y0148644D01*
X0232962Y0148644D01*
X0230056Y0151550D01*
X0227150Y0151550D01*
X0226450Y0152250D01*
X0226450Y0149750D02*
X0225750Y0149050D01*
X0222844Y0149050D01*
X0222294Y0148500D01*
X0218500Y0148500D01*
X0220835Y0145200D02*
X0226000Y0145200D01*
X0226450Y0144750D01*
X0227150Y0146550D02*
X0230056Y0146550D01*
X0230700Y0145906D01*
X0230700Y0141850D01*
X0231550Y0141000D01*
X0226450Y0142250D02*
X0226192Y0141992D01*
X0226192Y0139273D01*
X0227150Y0146550D02*
X0226450Y0147250D01*
X0226450Y0154750D02*
X0222250Y0154750D01*
X0220045Y0153347D01*
X0222250Y0157250D02*
X0221000Y0158500D01*
X0222250Y0157250D02*
X0226450Y0157250D01*
X0226450Y0159750D02*
X0230790Y0159750D01*
X0231259Y0159281D01*
X0232556Y0159281D01*
X0235037Y0156800D01*
X0238071Y0153766D01*
X0238071Y0153391D01*
X0238715Y0152747D01*
X0247713Y0152747D01*
X0250103Y0150357D01*
X0255171Y0163416D02*
X0253959Y0164628D01*
X0253959Y0168529D01*
X0253314Y0169174D01*
X0232109Y0169174D01*
X0230186Y0167250D01*
X0226450Y0167250D01*
X0226450Y0164933D02*
X0234936Y0164933D01*
X0238595Y0161900D02*
X0241629Y0164933D01*
X0249718Y0164933D01*
X0250103Y0165318D01*
X0238595Y0161900D02*
X0238595Y0161525D01*
X0237951Y0160881D01*
X0231922Y0160881D01*
X0230552Y0162250D01*
X0226450Y0162250D01*
X0226450Y0164750D02*
X0226450Y0164933D01*
X0216000Y0161000D02*
X0213500Y0163500D01*
X0211000Y0163500D01*
X0209750Y0162250D01*
X0205550Y0162250D01*
X0205550Y0164750D02*
X0204850Y0165450D01*
X0201944Y0165450D01*
X0201300Y0166094D01*
X0201300Y0168406D01*
X0196824Y0168406D01*
X0196824Y0169529D01*
X0196824Y0170219D01*
X0188107Y0170219D01*
X0195166Y0179780D02*
X0199927Y0179780D01*
X0199927Y0180381D01*
X0203847Y0180381D01*
X0199927Y0179780D02*
X0199927Y0174855D01*
X0205550Y0174855D01*
X0205550Y0174750D01*
X0205550Y0172250D02*
X0205550Y0169750D01*
X0204850Y0169050D01*
X0201944Y0169050D01*
X0201300Y0168406D01*
X0205550Y0167250D02*
X0211000Y0167250D01*
X0211000Y0166000D01*
X0205550Y0159750D02*
X0206250Y0159050D01*
X0205550Y0149750D02*
X0206250Y0149050D01*
X0211415Y0149050D01*
X0213450Y0147015D01*
X0213450Y0136717D01*
X0216431Y0133736D01*
X0211000Y0146000D02*
X0209750Y0147250D01*
X0205550Y0147250D01*
X0190599Y0153825D02*
X0190566Y0153857D01*
X0181150Y0153857D01*
X0226450Y0174750D02*
X0226450Y0178929D01*
X0228461Y0180941D01*
X0240134Y0228500D02*
X0240154Y0228520D01*
X0240154Y0236000D01*
X0278500Y0136689D02*
X0277811Y0136000D01*
D41*
X0278500Y0136689D02*
X0271831Y0136689D01*
X0271831Y0133927D01*
X0275738Y0130020D01*
X0278500Y0130020D01*
X0281262Y0130020D01*
X0285168Y0133927D01*
X0285168Y0136689D01*
X0285168Y0139451D01*
X0281262Y0143357D01*
X0278500Y0143357D01*
X0275738Y0143357D01*
X0271831Y0139451D01*
X0271831Y0136689D01*
X0278500Y0136689D01*
X0278500Y0136689D01*
X0278500Y0143357D01*
X0278500Y0136689D01*
X0285168Y0136689D01*
X0278500Y0136689D01*
X0278500Y0136689D01*
X0278500Y0136689D01*
X0278500Y0130020D01*
X0278500Y0136689D01*
X0278500Y0136689D01*
X0278500Y0138434D02*
X0278500Y0138434D01*
X0278500Y0133436D02*
X0278500Y0133436D01*
X0284678Y0133436D02*
X0291000Y0133436D01*
X0291000Y0128437D02*
X0266000Y0128437D01*
X0266000Y0127248D02*
X0266000Y0143500D01*
X0291000Y0143500D01*
X0291000Y0118500D01*
X0287879Y0118500D01*
X0287879Y0121024D01*
X0287879Y0123928D01*
X0287745Y0124604D01*
X0287481Y0125241D01*
X0287098Y0125814D01*
X0286610Y0126302D01*
X0286037Y0126685D01*
X0285400Y0126948D01*
X0284724Y0127083D01*
X0281427Y0127083D01*
X0281427Y0121024D01*
X0287879Y0121024D01*
X0281427Y0121024D01*
X0281427Y0121024D01*
X0281426Y0121024D01*
X0281426Y0127083D01*
X0278129Y0127083D01*
X0277453Y0126948D01*
X0277433Y0126940D01*
X0277264Y0127010D01*
X0276588Y0127144D01*
X0273291Y0127144D01*
X0273291Y0121085D01*
X0273291Y0121085D01*
X0273291Y0127144D01*
X0269993Y0127144D01*
X0269317Y0127010D01*
X0268680Y0126746D01*
X0268107Y0126363D01*
X0267619Y0125875D01*
X0267520Y0125727D01*
X0266000Y0127248D01*
X0266000Y0133436D02*
X0272322Y0133436D01*
X0271831Y0138434D02*
X0266000Y0138434D01*
X0266000Y0143433D02*
X0291000Y0143433D01*
X0291000Y0138434D02*
X0285168Y0138434D01*
X0287879Y0123439D02*
X0291000Y0123439D01*
X0281427Y0123439D02*
X0281426Y0123439D01*
X0273291Y0123439D02*
X0273291Y0123439D01*
X0224629Y0127030D02*
X0216444Y0127030D01*
X0216431Y0127043D01*
X0208367Y0127043D01*
X0208282Y0127128D01*
X0205354Y0086000D02*
X0197024Y0086000D01*
X0196952Y0085928D01*
X0193754Y0084603D01*
X0190293Y0084603D01*
X0187095Y0085928D01*
X0187023Y0086000D01*
X0183500Y0086000D01*
X0183500Y0029001D01*
X0184292Y0029793D01*
X0187931Y0031300D01*
X0191869Y0031300D01*
X0195508Y0029793D01*
X0198293Y0027008D01*
X0198710Y0026000D01*
X0206250Y0026000D01*
X0211250Y0026000D01*
X0211250Y0012852D01*
X0212602Y0013121D01*
X0214091Y0013573D01*
X0215528Y0014168D01*
X0216900Y0014902D01*
X0218194Y0015766D01*
X0219397Y0016753D01*
X0220497Y0017853D01*
X0221000Y0018466D01*
X0221000Y0006000D01*
X0183500Y0006000D01*
X0183500Y0013799D01*
X0184292Y0013007D01*
X0187931Y0011500D01*
X0191869Y0011500D01*
X0195508Y0013007D01*
X0198293Y0015792D01*
X0198542Y0016393D01*
X0199306Y0015766D01*
X0200600Y0014902D01*
X0201972Y0014168D01*
X0203409Y0013573D01*
X0204898Y0013121D01*
X0206250Y0012852D01*
X0206250Y0026000D01*
X0206250Y0031000D01*
X0206250Y0044148D01*
X0204898Y0043879D01*
X0203409Y0043427D01*
X0201972Y0042832D01*
X0200600Y0042098D01*
X0199306Y0041234D01*
X0198103Y0040247D01*
X0197003Y0039147D01*
X0196016Y0037944D01*
X0195152Y0036650D01*
X0194418Y0035278D01*
X0193823Y0033841D01*
X0193371Y0032352D01*
X0193102Y0031000D01*
X0206250Y0031000D01*
X0211250Y0031000D01*
X0211250Y0044148D01*
X0212602Y0043879D01*
X0214091Y0043427D01*
X0215528Y0042832D01*
X0216900Y0042098D01*
X0218194Y0041234D01*
X0219397Y0040247D01*
X0220497Y0039147D01*
X0221000Y0038534D01*
X0221000Y0050500D01*
X0220915Y0050483D01*
X0218011Y0050483D01*
X0218011Y0056739D01*
X0218011Y0056739D01*
X0218011Y0062995D01*
X0215917Y0062995D01*
X0215917Y0064958D01*
X0215937Y0064946D01*
X0216574Y0064682D01*
X0217250Y0064547D01*
X0220153Y0064547D01*
X0220153Y0071000D01*
X0214094Y0071000D01*
X0214094Y0067703D01*
X0214229Y0067026D01*
X0214493Y0066389D01*
X0214753Y0066000D01*
X0203500Y0066000D01*
X0203500Y0071000D01*
X0215917Y0071000D01*
X0220153Y0071000D01*
X0220153Y0071000D01*
X0220154Y0071000D01*
X0220154Y0064547D01*
X0221000Y0064547D01*
X0221000Y0062978D01*
X0220915Y0062995D01*
X0218011Y0062995D01*
X0218011Y0056739D01*
X0218011Y0056739D01*
X0218011Y0050483D01*
X0215108Y0050483D01*
X0214431Y0050618D01*
X0213795Y0050882D01*
X0213221Y0051265D01*
X0212734Y0051752D01*
X0212351Y0052325D01*
X0212319Y0052402D01*
X0203500Y0052402D01*
X0203500Y0066000D01*
X0198500Y0066000D01*
X0186083Y0066000D01*
X0186083Y0055557D01*
X0186217Y0054881D01*
X0186481Y0054244D01*
X0186864Y0053670D01*
X0187352Y0053183D01*
X0187925Y0052800D01*
X0188562Y0052536D01*
X0189238Y0052402D01*
X0198500Y0052402D01*
X0198500Y0066000D01*
X0198500Y0071000D01*
X0198500Y0084598D01*
X0189238Y0084598D01*
X0188562Y0084464D01*
X0187925Y0084200D01*
X0187352Y0083817D01*
X0186864Y0083330D01*
X0186481Y0082756D01*
X0186217Y0082119D01*
X0186083Y0081443D01*
X0186083Y0071000D01*
X0198500Y0071000D01*
X0203500Y0071000D01*
X0203500Y0084598D01*
X0212762Y0084598D01*
X0213438Y0084464D01*
X0214075Y0084200D01*
X0214648Y0083817D01*
X0215136Y0083330D01*
X0215519Y0082756D01*
X0215783Y0082119D01*
X0215917Y0081443D01*
X0215917Y0077041D01*
X0215937Y0077054D01*
X0216574Y0077318D01*
X0217250Y0077453D01*
X0220153Y0077453D01*
X0220153Y0071000D01*
X0220154Y0071000D01*
X0220154Y0077453D01*
X0221000Y0077453D01*
X0221000Y0078500D01*
X0216000Y0078500D01*
X0216000Y0086000D01*
X0214599Y0086000D01*
X0214434Y0085836D01*
X0213075Y0085272D01*
X0206878Y0085272D01*
X0205518Y0085836D01*
X0205354Y0086000D01*
X0203500Y0083451D02*
X0198500Y0083451D01*
X0198500Y0078452D02*
X0203500Y0078452D01*
X0203500Y0073454D02*
X0198500Y0073454D01*
X0198500Y0068455D02*
X0183500Y0068455D01*
X0183500Y0063457D02*
X0186083Y0063457D01*
X0186083Y0058458D02*
X0183500Y0058458D01*
X0183500Y0053460D02*
X0187075Y0053460D01*
X0183500Y0048461D02*
X0221000Y0048461D01*
X0221000Y0043463D02*
X0213973Y0043463D01*
X0211250Y0043463D02*
X0206250Y0043463D01*
X0203527Y0043463D02*
X0183500Y0043463D01*
X0183500Y0038464D02*
X0196443Y0038464D01*
X0193709Y0033466D02*
X0183500Y0033466D01*
X0196833Y0028467D02*
X0206250Y0028467D01*
X0206250Y0033466D02*
X0211250Y0033466D01*
X0211250Y0038464D02*
X0206250Y0038464D01*
X0206250Y0023469D02*
X0211250Y0023469D01*
X0211250Y0018470D02*
X0206250Y0018470D01*
X0206250Y0013472D02*
X0211250Y0013472D01*
X0213757Y0013472D02*
X0221000Y0013472D01*
X0221000Y0008473D02*
X0183500Y0008473D01*
X0183500Y0013472D02*
X0183828Y0013472D01*
X0195972Y0013472D02*
X0203743Y0013472D01*
X0228500Y0013472D02*
X0233243Y0013472D01*
X0232909Y0013573D02*
X0234398Y0013121D01*
X0235750Y0012852D01*
X0235750Y0026000D01*
X0240750Y0026000D01*
X0240750Y0031000D01*
X0235750Y0031000D01*
X0235750Y0044148D01*
X0234398Y0043879D01*
X0232909Y0043427D01*
X0231472Y0042832D01*
X0230100Y0042098D01*
X0228806Y0041234D01*
X0228500Y0040983D01*
X0228500Y0050483D01*
X0229429Y0050483D01*
X0232333Y0050483D01*
X0233009Y0050618D01*
X0233646Y0050882D01*
X0234219Y0051265D01*
X0234706Y0051752D01*
X0235089Y0052325D01*
X0235353Y0052962D01*
X0235488Y0053639D01*
X0235488Y0056739D01*
X0229429Y0056739D01*
X0229429Y0056739D01*
X0229429Y0050483D01*
X0229429Y0056739D01*
X0229429Y0056739D01*
X0235488Y0056739D01*
X0235488Y0059840D01*
X0235353Y0060516D01*
X0235089Y0061153D01*
X0234706Y0061726D01*
X0234219Y0062214D01*
X0233646Y0062597D01*
X0233009Y0062861D01*
X0232333Y0062995D01*
X0229429Y0062995D01*
X0229429Y0056739D01*
X0229429Y0056739D01*
X0229429Y0062995D01*
X0228500Y0062995D01*
X0228500Y0064347D01*
X0230141Y0064347D01*
X0231501Y0064911D01*
X0232542Y0065951D01*
X0233105Y0067311D01*
X0233105Y0068500D01*
X0239787Y0068500D01*
X0239623Y0067997D01*
X0239491Y0067159D01*
X0239491Y0066735D01*
X0239491Y0066311D01*
X0239623Y0065473D01*
X0239886Y0064667D01*
X0240271Y0063911D01*
X0240769Y0063225D01*
X0241369Y0062625D01*
X0242055Y0062126D01*
X0242811Y0061741D01*
X0243618Y0061479D01*
X0244456Y0061346D01*
X0244880Y0061346D01*
X0245304Y0061346D01*
X0246142Y0061479D01*
X0246948Y0061741D01*
X0247704Y0062126D01*
X0248390Y0062625D01*
X0248990Y0063225D01*
X0249489Y0063911D01*
X0249874Y0064667D01*
X0250136Y0065473D01*
X0250269Y0066311D01*
X0250269Y0066735D01*
X0244880Y0066735D01*
X0244880Y0066735D01*
X0244880Y0061346D01*
X0244880Y0066735D01*
X0244880Y0066735D01*
X0250269Y0066735D01*
X0250269Y0067159D01*
X0250136Y0067997D01*
X0249973Y0068500D01*
X0253089Y0068500D01*
X0256000Y0065589D01*
X0256000Y0062631D01*
X0255565Y0062451D01*
X0255557Y0062453D01*
X0252654Y0062453D01*
X0252654Y0056000D01*
X0252653Y0056000D01*
X0246594Y0056000D01*
X0252653Y0056000D01*
X0252653Y0056000D01*
X0252653Y0062453D01*
X0249750Y0062453D01*
X0249074Y0062318D01*
X0248437Y0062054D01*
X0247863Y0061671D01*
X0247376Y0061184D01*
X0246993Y0060611D01*
X0246729Y0059974D01*
X0246594Y0059297D01*
X0246594Y0056000D01*
X0246594Y0052703D01*
X0246729Y0052026D01*
X0246993Y0051389D01*
X0247376Y0050816D01*
X0247863Y0050329D01*
X0248437Y0049946D01*
X0249074Y0049682D01*
X0249750Y0049547D01*
X0252653Y0049547D01*
X0252653Y0056000D01*
X0252654Y0056000D01*
X0252654Y0049547D01*
X0255557Y0049547D01*
X0255565Y0049549D01*
X0256000Y0049369D01*
X0256000Y0031300D01*
X0255131Y0031300D01*
X0251492Y0029793D01*
X0248707Y0027008D01*
X0248290Y0026000D01*
X0240750Y0026000D01*
X0240750Y0012852D01*
X0242102Y0013121D01*
X0243591Y0013573D01*
X0245028Y0014168D01*
X0246400Y0014902D01*
X0247694Y0015766D01*
X0248458Y0016393D01*
X0248707Y0015792D01*
X0251492Y0013007D01*
X0255131Y0011500D01*
X0256000Y0011500D01*
X0256000Y0006000D01*
X0228500Y0006000D01*
X0228500Y0016017D01*
X0228806Y0015766D01*
X0230100Y0014902D01*
X0231472Y0014168D01*
X0232909Y0013573D01*
X0235750Y0013472D02*
X0240750Y0013472D01*
X0243257Y0013472D02*
X0251028Y0013472D01*
X0256000Y0008473D02*
X0228500Y0008473D01*
X0235750Y0018470D02*
X0240750Y0018470D01*
X0240750Y0023469D02*
X0235750Y0023469D01*
X0240750Y0028467D02*
X0250167Y0028467D01*
X0253898Y0031000D02*
X0253629Y0032352D01*
X0253177Y0033841D01*
X0252582Y0035278D01*
X0251848Y0036650D01*
X0250984Y0037944D01*
X0249997Y0039147D01*
X0248897Y0040247D01*
X0247694Y0041234D01*
X0246400Y0042098D01*
X0245028Y0042832D01*
X0243591Y0043427D01*
X0242102Y0043879D01*
X0240750Y0044148D01*
X0240750Y0031000D01*
X0253898Y0031000D01*
X0253291Y0033466D02*
X0256000Y0033466D01*
X0256000Y0038464D02*
X0250557Y0038464D01*
X0256000Y0043463D02*
X0243473Y0043463D01*
X0240750Y0043463D02*
X0235750Y0043463D01*
X0233027Y0043463D02*
X0228500Y0043463D01*
X0228500Y0048461D02*
X0256000Y0048461D01*
X0252654Y0053460D02*
X0252653Y0053460D01*
X0246594Y0053460D02*
X0235452Y0053460D01*
X0229429Y0053460D02*
X0229429Y0053460D01*
X0229429Y0058458D02*
X0229429Y0058458D01*
X0228500Y0063457D02*
X0240600Y0063457D01*
X0239491Y0066735D02*
X0244880Y0066735D01*
X0244880Y0066735D01*
X0239491Y0066735D01*
X0239772Y0068455D02*
X0233105Y0068455D01*
X0235488Y0058458D02*
X0246594Y0058458D01*
X0244880Y0063457D02*
X0244880Y0063457D01*
X0249159Y0063457D02*
X0256000Y0063457D01*
X0252654Y0058458D02*
X0252653Y0058458D01*
X0253134Y0068455D02*
X0249987Y0068455D01*
X0221000Y0063457D02*
X0215917Y0063457D01*
X0218011Y0058458D02*
X0218011Y0058458D01*
X0218011Y0053460D02*
X0218011Y0053460D01*
X0203500Y0053460D02*
X0198500Y0053460D01*
X0198500Y0058458D02*
X0203500Y0058458D01*
X0203500Y0063457D02*
X0198500Y0063457D01*
X0203500Y0068455D02*
X0214094Y0068455D01*
X0215917Y0071000D02*
X0215917Y0071000D01*
X0220153Y0073454D02*
X0220154Y0073454D01*
X0221000Y0078452D02*
X0215917Y0078452D01*
X0216000Y0083451D02*
X0215015Y0083451D01*
X0220153Y0068455D02*
X0220154Y0068455D01*
X0235750Y0038464D02*
X0240750Y0038464D01*
X0240750Y0033466D02*
X0235750Y0033466D01*
X0186083Y0073454D02*
X0183500Y0073454D01*
X0183500Y0078452D02*
X0186083Y0078452D01*
X0186985Y0083451D02*
X0183500Y0083451D01*
X0146000Y0154189D02*
X0145843Y0154346D01*
X0069356Y0143889D02*
X0061137Y0143889D01*
X0061099Y0143927D01*
X0050707Y0159307D02*
X0050707Y0167385D01*
X0050678Y0167414D01*
X0030154Y0158500D02*
X0030154Y0141046D01*
X0030700Y0140499D01*
D42*
X0061000Y0228500D03*
X0153500Y0243500D03*
X0220045Y0153347D03*
X0133500Y0068500D03*
D43*
X0098500Y0143500D03*
X0072900Y0158500D03*
X0071300Y0163900D03*
X0058500Y0186000D03*
X0073500Y0191000D03*
X0092200Y0191000D03*
X0098808Y0178192D03*
X0098500Y0173500D03*
D44*
X0101000Y0168500D03*
X0081000Y0166000D03*
X0081000Y0171000D03*
X0078500Y0176000D03*
X0078500Y0158500D03*
X0123500Y0148500D03*
X0161000Y0126000D03*
X0211000Y0146000D03*
X0218500Y0148500D03*
X0220835Y0145200D03*
X0226192Y0139273D03*
X0231550Y0141000D03*
X0221000Y0158500D03*
X0211000Y0166000D03*
X0199927Y0174855D03*
X0255171Y0163416D03*
X0231000Y0121000D03*
X0243500Y0103500D03*
X0243500Y0099300D03*
X0243500Y0096000D03*
X0263500Y0091000D03*
X0281000Y0091000D03*
X0298500Y0091000D03*
X0048500Y0243500D03*
X0046000Y0228500D03*
X0046000Y0211000D03*
D45*
X0047274Y0206687D02*
X0040034Y0206687D01*
X0038500Y0205154D01*
X0047274Y0206687D02*
X0061000Y0220414D01*
X0061000Y0228500D01*
X0049950Y0239550D01*
X0046864Y0239550D01*
X0043760Y0242654D01*
X0038500Y0242654D01*
X0038500Y0222654D02*
X0055154Y0222654D01*
X0061000Y0228500D01*
X0133598Y0084445D02*
X0133598Y0068598D01*
X0133500Y0068500D01*
D46*
X0111709Y0236000D02*
X0115750Y0238959D01*
X0115750Y0266000D01*
X0251250Y0266000D02*
X0251250Y0245041D01*
X0260291Y0236000D01*
D47*
X0253500Y0236000D01*
X0248500Y0241000D01*
X0248500Y0237654D01*
X0246846Y0236000D01*
X0228461Y0180941D02*
X0235290Y0174112D01*
X0238500Y0174112D01*
X0088095Y0200627D02*
X0090595Y0213095D01*
D48*
X0103500Y0158500D02*
X0151000Y0158500D01*
X0151000Y0151000D01*
X0123211Y0151000D01*
X0122198Y0152013D01*
X0114802Y0152013D01*
X0113789Y0151000D01*
X0113211Y0151000D01*
X0112198Y0152013D01*
X0104802Y0152013D01*
X0103789Y0151000D01*
X0103500Y0151000D01*
X0103500Y0158500D01*
X0103500Y0158202D02*
X0151000Y0158202D01*
X0151000Y0157004D02*
X0103500Y0157004D01*
X0103500Y0155805D02*
X0151000Y0155805D01*
X0151000Y0154607D02*
X0103500Y0154607D01*
X0103500Y0153408D02*
X0151000Y0153408D01*
X0151000Y0152210D02*
X0103500Y0152210D01*
X0103500Y0151011D02*
X0103800Y0151011D01*
X0113200Y0151011D02*
X0113800Y0151011D01*
X0123200Y0151011D02*
X0151000Y0151011D01*
X0076846Y0076000D02*
X0076846Y0062280D01*
X0056000Y0041433D01*
X0018480Y0195134D02*
X0016000Y0195134D01*
X0018480Y0195134D02*
X0023500Y0200154D01*
X0023500Y0206846D02*
X0027969Y0206846D01*
X0029622Y0208500D01*
X0023500Y0217654D02*
X0021020Y0220134D01*
X0016000Y0220134D01*
X0023500Y0224346D02*
X0027969Y0224346D01*
X0029622Y0226000D01*
D49*
X0090595Y0213095D02*
X0091000Y0213500D01*
X0192024Y0109574D02*
X0193450Y0108500D01*
X0192024Y0109574D02*
X0192024Y0093303D01*
X0218550Y0108500D02*
X0247446Y0111000D01*
X0248380Y0111934D01*
X0270832Y0111934D01*
X0271766Y0111000D01*
X0281000Y0111000D01*
D50*
X0166059Y0111006D02*
X0163550Y0108498D01*
X0163550Y0101050D01*
X0156000Y0093500D01*
X0133598Y0093500D01*
X0166059Y0111006D02*
X0166059Y0115429D01*
D51*
X0238500Y0174112D03*
X0091000Y0213500D03*
D52*
X0226450Y0174750D02*
X0226450Y0169750D01*
X0226450Y0172250D01*
M02*
