G75*
%MOIN*%
%OFA0B0*%
%FSLAX25Y25*%
%IPPOS*%
%LPD*%
%AMOC8*
5,1,8,0,0,1.08239X$1,22.5*
%
%ADD10OC8,0.08324*%
%ADD11C,0.13000*%
%ADD12C,0.25869*%
%ADD13OC8,0.07500*%
%ADD14C,0.07500*%
%ADD15R,0.06318X0.07106*%
%ADD16R,0.26397X0.24035*%
%ADD17R,0.09861X0.05924*%
%ADD18R,0.10531X0.09665*%
%ADD19R,0.02854X0.03956*%
%ADD20R,0.08324X0.08324*%
%ADD21R,0.09665X0.10531*%
%ADD22R,0.03956X0.02854*%
%ADD23R,0.07499X0.09468*%
%ADD24C,0.04978*%
%ADD25R,0.09468X0.07499*%
%ADD26R,0.07537X0.07537*%
%ADD27OC8,0.07537*%
%ADD28C,0.05562*%
%ADD29C,0.05200*%
%ADD30C,0.03900*%
%ADD31C,0.08877*%
D10*
X0056000Y0041433D03*
X0141000Y0056000D03*
X0151000Y0056000D03*
X0285567Y0053500D03*
X0308491Y0069153D03*
X0318491Y0069153D03*
X0163500Y0248067D03*
X0033500Y0271000D03*
X0023500Y0271000D03*
D11*
X0067400Y0273100D03*
X0134600Y0273100D03*
X0232400Y0258900D03*
X0299600Y0258900D03*
X0040600Y0144600D03*
X0040600Y0077400D03*
X0189900Y0021400D03*
X0257100Y0021400D03*
D12*
X0238250Y0028500D03*
X0208750Y0028500D03*
X0033500Y0096250D03*
X0033500Y0125750D03*
X0086250Y0266000D03*
X0115750Y0266000D03*
X0251250Y0266000D03*
X0280750Y0266000D03*
D13*
X0248380Y0125934D03*
X0081500Y0133500D03*
D14*
X0095500Y0133500D03*
X0248380Y0111934D03*
D15*
X0151846Y0253500D03*
X0145154Y0253500D03*
X0145154Y0261687D03*
X0151846Y0261687D03*
X0151952Y0269874D03*
X0145259Y0269874D03*
D16*
X0118500Y0236000D03*
D17*
X0143303Y0227024D03*
X0143303Y0244976D03*
D18*
X0113500Y0198657D03*
X0263500Y0171157D03*
D19*
X0262220Y0162988D03*
X0259661Y0162988D03*
X0264780Y0162988D03*
X0267339Y0162988D03*
X0117339Y0190488D03*
X0114780Y0190488D03*
X0112220Y0190488D03*
X0109661Y0190488D03*
D20*
X0056000Y0020567D03*
X0306433Y0053500D03*
X0163500Y0268933D03*
D21*
X0098343Y0198500D03*
X0266157Y0153500D03*
D22*
X0257988Y0152220D03*
X0257988Y0149661D03*
X0257988Y0154780D03*
X0257988Y0157339D03*
X0106512Y0194661D03*
X0106512Y0197220D03*
X0106512Y0199780D03*
X0106512Y0202339D03*
D23*
X0099642Y0213500D03*
X0117358Y0213500D03*
D24*
X0013500Y0168500D03*
X0013500Y0158500D03*
X0244880Y0076735D03*
X0244880Y0066735D03*
D25*
X0251000Y0174642D03*
X0251000Y0192358D03*
D26*
X0278500Y0160311D03*
X0146000Y0177811D03*
D27*
X0146000Y0154189D03*
X0278500Y0136689D03*
D28*
X0220045Y0153347D03*
X0133500Y0068500D03*
X0061000Y0228500D03*
X0153500Y0243500D03*
D29*
X0092200Y0191000D03*
X0098808Y0178192D03*
X0098500Y0173500D03*
X0071300Y0163900D03*
X0072900Y0158500D03*
X0098500Y0143500D03*
X0058500Y0186000D03*
X0073500Y0191000D03*
D30*
X0078500Y0176000D03*
X0081000Y0171000D03*
X0081000Y0166000D03*
X0078500Y0158500D03*
X0101000Y0168500D03*
X0123500Y0148500D03*
X0161000Y0126000D03*
X0211000Y0146000D03*
X0218500Y0148500D03*
X0220835Y0145200D03*
X0226192Y0139273D03*
X0231550Y0141000D03*
X0221000Y0158500D03*
X0211000Y0166000D03*
X0199927Y0174855D03*
X0255171Y0163416D03*
X0231000Y0121000D03*
X0243500Y0103500D03*
X0243500Y0099300D03*
X0243500Y0096000D03*
X0263500Y0091000D03*
X0281000Y0091000D03*
X0298500Y0091000D03*
X0048500Y0243500D03*
X0046000Y0228500D03*
X0046000Y0211000D03*
D31*
X0091000Y0213500D03*
X0238500Y0174112D03*
M02*
