G75*
%MOIN*%
%OFA0B0*%
%FSLAX25Y25*%
%IPPOS*%
%LPD*%
%AMOC8*
5,1,8,0,0,1.08239X$1,22.5*
%
%ADD10C,0.00500*%
%ADD11C,0.00800*%
%ADD12R,0.02400X0.06200*%
%ADD13R,0.06200X0.02400*%
D10*
X0117831Y0190882D02*
X0117833Y0190938D01*
X0117839Y0190993D01*
X0117849Y0191047D01*
X0117862Y0191101D01*
X0117880Y0191154D01*
X0117901Y0191205D01*
X0117925Y0191255D01*
X0117953Y0191303D01*
X0117985Y0191349D01*
X0118019Y0191393D01*
X0118057Y0191434D01*
X0118097Y0191472D01*
X0118140Y0191507D01*
X0118185Y0191539D01*
X0118233Y0191568D01*
X0118282Y0191594D01*
X0118333Y0191616D01*
X0118385Y0191634D01*
X0118439Y0191648D01*
X0118494Y0191659D01*
X0118549Y0191666D01*
X0118604Y0191669D01*
X0118660Y0191668D01*
X0118715Y0191663D01*
X0118770Y0191654D01*
X0118824Y0191642D01*
X0118877Y0191625D01*
X0118929Y0191605D01*
X0118979Y0191581D01*
X0119027Y0191554D01*
X0119074Y0191524D01*
X0119118Y0191490D01*
X0119160Y0191453D01*
X0119198Y0191413D01*
X0119235Y0191371D01*
X0119268Y0191326D01*
X0119297Y0191280D01*
X0119324Y0191231D01*
X0119346Y0191180D01*
X0119366Y0191128D01*
X0119381Y0191074D01*
X0119393Y0191020D01*
X0119401Y0190965D01*
X0119405Y0190910D01*
X0119405Y0190854D01*
X0119401Y0190799D01*
X0119393Y0190744D01*
X0119381Y0190690D01*
X0119366Y0190636D01*
X0119346Y0190584D01*
X0119324Y0190533D01*
X0119297Y0190484D01*
X0119268Y0190438D01*
X0119235Y0190393D01*
X0119198Y0190351D01*
X0119160Y0190311D01*
X0119118Y0190274D01*
X0119074Y0190240D01*
X0119027Y0190210D01*
X0118979Y0190183D01*
X0118929Y0190159D01*
X0118877Y0190139D01*
X0118824Y0190122D01*
X0118770Y0190110D01*
X0118715Y0190101D01*
X0118660Y0190096D01*
X0118604Y0190095D01*
X0118549Y0190098D01*
X0118494Y0190105D01*
X0118439Y0190116D01*
X0118385Y0190130D01*
X0118333Y0190148D01*
X0118282Y0190170D01*
X0118233Y0190196D01*
X0118185Y0190225D01*
X0118140Y0190257D01*
X0118097Y0190292D01*
X0118057Y0190330D01*
X0118019Y0190371D01*
X0117985Y0190415D01*
X0117953Y0190461D01*
X0117925Y0190509D01*
X0117901Y0190559D01*
X0117880Y0190610D01*
X0117862Y0190663D01*
X0117849Y0190717D01*
X0117839Y0190771D01*
X0117833Y0190826D01*
X0117831Y0190882D01*
X0105331Y0203618D02*
X0105333Y0203674D01*
X0105339Y0203729D01*
X0105349Y0203783D01*
X0105362Y0203837D01*
X0105380Y0203890D01*
X0105401Y0203941D01*
X0105425Y0203991D01*
X0105453Y0204039D01*
X0105485Y0204085D01*
X0105519Y0204129D01*
X0105557Y0204170D01*
X0105597Y0204208D01*
X0105640Y0204243D01*
X0105685Y0204275D01*
X0105733Y0204304D01*
X0105782Y0204330D01*
X0105833Y0204352D01*
X0105885Y0204370D01*
X0105939Y0204384D01*
X0105994Y0204395D01*
X0106049Y0204402D01*
X0106104Y0204405D01*
X0106160Y0204404D01*
X0106215Y0204399D01*
X0106270Y0204390D01*
X0106324Y0204378D01*
X0106377Y0204361D01*
X0106429Y0204341D01*
X0106479Y0204317D01*
X0106527Y0204290D01*
X0106574Y0204260D01*
X0106618Y0204226D01*
X0106660Y0204189D01*
X0106698Y0204149D01*
X0106735Y0204107D01*
X0106768Y0204062D01*
X0106797Y0204016D01*
X0106824Y0203967D01*
X0106846Y0203916D01*
X0106866Y0203864D01*
X0106881Y0203810D01*
X0106893Y0203756D01*
X0106901Y0203701D01*
X0106905Y0203646D01*
X0106905Y0203590D01*
X0106901Y0203535D01*
X0106893Y0203480D01*
X0106881Y0203426D01*
X0106866Y0203372D01*
X0106846Y0203320D01*
X0106824Y0203269D01*
X0106797Y0203220D01*
X0106768Y0203174D01*
X0106735Y0203129D01*
X0106698Y0203087D01*
X0106660Y0203047D01*
X0106618Y0203010D01*
X0106574Y0202976D01*
X0106527Y0202946D01*
X0106479Y0202919D01*
X0106429Y0202895D01*
X0106377Y0202875D01*
X0106324Y0202858D01*
X0106270Y0202846D01*
X0106215Y0202837D01*
X0106160Y0202832D01*
X0106104Y0202831D01*
X0106049Y0202834D01*
X0105994Y0202841D01*
X0105939Y0202852D01*
X0105885Y0202866D01*
X0105833Y0202884D01*
X0105782Y0202906D01*
X0105733Y0202932D01*
X0105685Y0202961D01*
X0105640Y0202993D01*
X0105597Y0203028D01*
X0105557Y0203066D01*
X0105519Y0203107D01*
X0105485Y0203151D01*
X0105453Y0203197D01*
X0105425Y0203245D01*
X0105401Y0203295D01*
X0105380Y0203346D01*
X0105362Y0203399D01*
X0105349Y0203453D01*
X0105339Y0203507D01*
X0105333Y0203562D01*
X0105331Y0203618D01*
X0105114Y0223205D02*
X0144484Y0223205D01*
X0144484Y0248795D01*
X0105114Y0248795D01*
X0105114Y0223205D01*
X0257595Y0148382D02*
X0257597Y0148438D01*
X0257603Y0148493D01*
X0257613Y0148547D01*
X0257626Y0148601D01*
X0257644Y0148654D01*
X0257665Y0148705D01*
X0257689Y0148755D01*
X0257717Y0148803D01*
X0257749Y0148849D01*
X0257783Y0148893D01*
X0257821Y0148934D01*
X0257861Y0148972D01*
X0257904Y0149007D01*
X0257949Y0149039D01*
X0257997Y0149068D01*
X0258046Y0149094D01*
X0258097Y0149116D01*
X0258149Y0149134D01*
X0258203Y0149148D01*
X0258258Y0149159D01*
X0258313Y0149166D01*
X0258368Y0149169D01*
X0258424Y0149168D01*
X0258479Y0149163D01*
X0258534Y0149154D01*
X0258588Y0149142D01*
X0258641Y0149125D01*
X0258693Y0149105D01*
X0258743Y0149081D01*
X0258791Y0149054D01*
X0258838Y0149024D01*
X0258882Y0148990D01*
X0258924Y0148953D01*
X0258962Y0148913D01*
X0258999Y0148871D01*
X0259032Y0148826D01*
X0259061Y0148780D01*
X0259088Y0148731D01*
X0259110Y0148680D01*
X0259130Y0148628D01*
X0259145Y0148574D01*
X0259157Y0148520D01*
X0259165Y0148465D01*
X0259169Y0148410D01*
X0259169Y0148354D01*
X0259165Y0148299D01*
X0259157Y0148244D01*
X0259145Y0148190D01*
X0259130Y0148136D01*
X0259110Y0148084D01*
X0259088Y0148033D01*
X0259061Y0147984D01*
X0259032Y0147938D01*
X0258999Y0147893D01*
X0258962Y0147851D01*
X0258924Y0147811D01*
X0258882Y0147774D01*
X0258838Y0147740D01*
X0258791Y0147710D01*
X0258743Y0147683D01*
X0258693Y0147659D01*
X0258641Y0147639D01*
X0258588Y0147622D01*
X0258534Y0147610D01*
X0258479Y0147601D01*
X0258424Y0147596D01*
X0258368Y0147595D01*
X0258313Y0147598D01*
X0258258Y0147605D01*
X0258203Y0147616D01*
X0258149Y0147630D01*
X0258097Y0147648D01*
X0258046Y0147670D01*
X0257997Y0147696D01*
X0257949Y0147725D01*
X0257904Y0147757D01*
X0257861Y0147792D01*
X0257821Y0147830D01*
X0257783Y0147871D01*
X0257749Y0147915D01*
X0257717Y0147961D01*
X0257689Y0148009D01*
X0257665Y0148059D01*
X0257644Y0148110D01*
X0257626Y0148163D01*
X0257613Y0148217D01*
X0257603Y0148271D01*
X0257597Y0148326D01*
X0257595Y0148382D01*
X0267831Y0163382D02*
X0267833Y0163438D01*
X0267839Y0163493D01*
X0267849Y0163547D01*
X0267862Y0163601D01*
X0267880Y0163654D01*
X0267901Y0163705D01*
X0267925Y0163755D01*
X0267953Y0163803D01*
X0267985Y0163849D01*
X0268019Y0163893D01*
X0268057Y0163934D01*
X0268097Y0163972D01*
X0268140Y0164007D01*
X0268185Y0164039D01*
X0268233Y0164068D01*
X0268282Y0164094D01*
X0268333Y0164116D01*
X0268385Y0164134D01*
X0268439Y0164148D01*
X0268494Y0164159D01*
X0268549Y0164166D01*
X0268604Y0164169D01*
X0268660Y0164168D01*
X0268715Y0164163D01*
X0268770Y0164154D01*
X0268824Y0164142D01*
X0268877Y0164125D01*
X0268929Y0164105D01*
X0268979Y0164081D01*
X0269027Y0164054D01*
X0269074Y0164024D01*
X0269118Y0163990D01*
X0269160Y0163953D01*
X0269198Y0163913D01*
X0269235Y0163871D01*
X0269268Y0163826D01*
X0269297Y0163780D01*
X0269324Y0163731D01*
X0269346Y0163680D01*
X0269366Y0163628D01*
X0269381Y0163574D01*
X0269393Y0163520D01*
X0269401Y0163465D01*
X0269405Y0163410D01*
X0269405Y0163354D01*
X0269401Y0163299D01*
X0269393Y0163244D01*
X0269381Y0163190D01*
X0269366Y0163136D01*
X0269346Y0163084D01*
X0269324Y0163033D01*
X0269297Y0162984D01*
X0269268Y0162938D01*
X0269235Y0162893D01*
X0269198Y0162851D01*
X0269160Y0162811D01*
X0269118Y0162774D01*
X0269074Y0162740D01*
X0269027Y0162710D01*
X0268979Y0162683D01*
X0268929Y0162659D01*
X0268877Y0162639D01*
X0268824Y0162622D01*
X0268770Y0162610D01*
X0268715Y0162601D01*
X0268660Y0162596D01*
X0268604Y0162595D01*
X0268549Y0162598D01*
X0268494Y0162605D01*
X0268439Y0162616D01*
X0268385Y0162630D01*
X0268333Y0162648D01*
X0268282Y0162670D01*
X0268233Y0162696D01*
X0268185Y0162725D01*
X0268140Y0162757D01*
X0268097Y0162792D01*
X0268057Y0162830D01*
X0268019Y0162871D01*
X0267985Y0162915D01*
X0267953Y0162961D01*
X0267925Y0163009D01*
X0267901Y0163059D01*
X0267880Y0163110D01*
X0267862Y0163163D01*
X0267849Y0163217D01*
X0267839Y0163271D01*
X0267833Y0163326D01*
X0267831Y0163382D01*
D11*
X0251000Y0180063D02*
X0248638Y0184000D01*
X0253362Y0184000D01*
X0251000Y0180063D01*
X0109000Y0211138D02*
X0109000Y0215862D01*
X0105063Y0213500D01*
X0109000Y0211138D01*
D12*
X0104331Y0213500D03*
D13*
X0251000Y0179331D03*
M02*
