G75*
%MOIN*%
%OFA0B0*%
%FSLAX25Y25*%
%IPPOS*%
%LPD*%
%AMOC8*
5,1,8,0,0,1.08239X$1,22.5*
%
%ADD10R,0.05906X0.05118*%
%ADD11R,0.05118X0.05906*%
%ADD12R,0.05512X0.05512*%
%ADD13R,0.04724X0.04724*%
%ADD14R,0.06300X0.01400*%
%ADD15R,0.00984X0.01575*%
%ADD16R,0.02756X0.01575*%
%ADD17R,0.05118X0.05512*%
%ADD18R,0.05512X0.05118*%
%ADD19R,0.25197X0.22835*%
%ADD20R,0.08661X0.04724*%
%ADD21R,0.16700X0.15000*%
%ADD22R,0.15000X0.16700*%
%ADD23R,0.22835X0.25197*%
%ADD24R,0.04724X0.08661*%
%ADD25R,0.01181X0.02362*%
%ADD26R,0.07874X0.05906*%
%ADD27R,0.07874X0.14961*%
%ADD28R,0.01575X0.00984*%
%ADD29R,0.01575X0.02756*%
D10*
X0108500Y0080154D03*
X0108500Y0086846D03*
X0158500Y0079346D03*
X0158500Y0072654D03*
X0208282Y0127128D03*
X0208282Y0133821D03*
X0216431Y0133736D03*
X0216431Y0127043D03*
X0224629Y0127030D03*
X0224629Y0133723D03*
X0196824Y0162836D03*
X0196824Y0169529D03*
X0203847Y0180381D03*
X0203847Y0187074D03*
X0228461Y0187634D03*
X0228461Y0180941D03*
X0273291Y0121085D03*
X0273291Y0114392D03*
X0281426Y0114331D03*
X0281426Y0121024D03*
X0225034Y0094292D03*
X0225034Y0087599D03*
X0118500Y0147654D03*
X0118500Y0154346D03*
X0108500Y0154346D03*
X0108500Y0147654D03*
X0094154Y0159059D03*
X0094154Y0165752D03*
X0069356Y0150582D03*
X0069356Y0143889D03*
X0061099Y0143927D03*
X0061099Y0150620D03*
X0039042Y0171727D03*
X0039042Y0178420D03*
X0055390Y0198003D03*
X0055390Y0204696D03*
X0063801Y0204593D03*
X0063801Y0197901D03*
X0038500Y0205154D03*
X0038500Y0211846D03*
X0038500Y0222654D03*
X0038500Y0229346D03*
X0038500Y0242654D03*
X0038500Y0249346D03*
X0023500Y0224346D03*
X0023500Y0217654D03*
X0023500Y0206846D03*
X0023500Y0200154D03*
D11*
X0070154Y0076000D03*
X0076846Y0076000D03*
X0087654Y0076000D03*
X0094346Y0076000D03*
X0135154Y0076000D03*
X0141846Y0076000D03*
X0167654Y0076000D03*
X0174346Y0076000D03*
X0174346Y0086000D03*
X0167654Y0086000D03*
X0167654Y0096000D03*
X0174346Y0096000D03*
X0166846Y0121000D03*
X0160154Y0121000D03*
X0174529Y0145716D03*
X0181222Y0145716D03*
X0181150Y0153857D03*
X0174457Y0153857D03*
X0181460Y0162127D03*
X0188153Y0162127D03*
X0188107Y0170219D03*
X0181415Y0170219D03*
X0188473Y0179780D03*
X0195166Y0179780D03*
X0197292Y0153825D03*
X0190599Y0153825D03*
X0190694Y0145647D03*
X0197387Y0145647D03*
X0199539Y0136906D03*
X0192846Y0136906D03*
X0234945Y0148644D03*
X0241638Y0148644D03*
X0241730Y0156800D03*
X0235037Y0156800D03*
X0234936Y0164933D03*
X0241629Y0164933D03*
X0252498Y0097799D03*
X0259191Y0097799D03*
X0269569Y0097722D03*
X0276262Y0097722D03*
X0287818Y0097724D03*
X0294511Y0097724D03*
X0294906Y0083739D03*
X0288213Y0083739D03*
X0277206Y0083544D03*
X0270513Y0083544D03*
X0270178Y0074750D03*
X0263485Y0074750D03*
X0259965Y0083200D03*
X0253272Y0083200D03*
X0240390Y0087139D03*
X0233698Y0087139D03*
X0226846Y0071000D03*
X0220154Y0071000D03*
X0252654Y0056000D03*
X0259346Y0056000D03*
X0114311Y0169059D03*
X0107619Y0169059D03*
X0104823Y0187704D03*
X0098130Y0187704D03*
X0088095Y0200627D03*
X0081402Y0200627D03*
X0057390Y0177189D03*
X0050697Y0177189D03*
X0050678Y0167414D03*
X0057371Y0167414D03*
X0057400Y0159307D03*
X0050707Y0159307D03*
X0036846Y0158500D03*
X0030154Y0158500D03*
X0030198Y0170478D03*
X0023505Y0170478D03*
X0023571Y0178665D03*
X0030264Y0178665D03*
X0028520Y0187595D03*
X0035213Y0187595D03*
X0044730Y0187888D03*
X0051423Y0187888D03*
X0046445Y0196060D03*
X0039752Y0196060D03*
X0029346Y0238500D03*
X0022654Y0238500D03*
X0024346Y0253500D03*
X0017654Y0253500D03*
X0061733Y0134303D03*
X0068426Y0134303D03*
X0240154Y0236000D03*
X0246846Y0236000D03*
D12*
X0250103Y0165318D03*
X0250103Y0150357D03*
X0112679Y0178307D03*
X0112679Y0193267D03*
D13*
X0141866Y0121000D03*
X0150134Y0121000D03*
X0231866Y0228500D03*
X0240134Y0228500D03*
X0311326Y0111638D03*
X0319593Y0111638D03*
X0320134Y0098500D03*
X0311866Y0098500D03*
X0311605Y0083989D03*
X0319872Y0083989D03*
X0016000Y0186866D03*
X0016000Y0195134D03*
X0016000Y0211866D03*
X0016000Y0220134D03*
X0014865Y0237858D03*
X0014865Y0246125D03*
D14*
X0065550Y0192250D03*
X0065550Y0189750D03*
X0065550Y0187250D03*
X0065550Y0184750D03*
X0065550Y0182250D03*
X0065550Y0179750D03*
X0065550Y0177250D03*
X0065550Y0174750D03*
X0065550Y0172250D03*
X0065550Y0169750D03*
X0065550Y0167250D03*
X0065550Y0164750D03*
X0065550Y0162250D03*
X0065550Y0159750D03*
X0086450Y0159750D03*
X0086450Y0162250D03*
X0086450Y0164750D03*
X0086450Y0167250D03*
X0086450Y0169750D03*
X0086450Y0172250D03*
X0086450Y0174750D03*
X0086450Y0177250D03*
X0086450Y0179750D03*
X0086450Y0182250D03*
X0086450Y0184750D03*
X0086450Y0187250D03*
X0086450Y0189750D03*
X0086450Y0192250D03*
X0205550Y0174750D03*
X0205550Y0172250D03*
X0205550Y0169750D03*
X0205550Y0167250D03*
X0205550Y0164750D03*
X0205550Y0162250D03*
X0205550Y0159750D03*
X0205550Y0157250D03*
X0205550Y0154750D03*
X0205550Y0152250D03*
X0205550Y0149750D03*
X0205550Y0147250D03*
X0205550Y0144750D03*
X0205550Y0142250D03*
X0226450Y0142250D03*
X0226450Y0144750D03*
X0226450Y0147250D03*
X0226450Y0149750D03*
X0226450Y0152250D03*
X0226450Y0154750D03*
X0226450Y0157250D03*
X0226450Y0159750D03*
X0226450Y0162250D03*
X0226450Y0164750D03*
X0226450Y0167250D03*
X0226450Y0169750D03*
X0226450Y0172250D03*
X0226450Y0174750D03*
D15*
X0254958Y0092378D03*
X0256730Y0092378D03*
X0272614Y0092378D03*
X0274386Y0092378D03*
X0290114Y0092378D03*
X0291886Y0092378D03*
D16*
X0291000Y0089622D03*
X0273500Y0089622D03*
X0255844Y0089622D03*
D17*
X0229429Y0056739D03*
X0218011Y0056739D03*
X0260291Y0236000D03*
X0271709Y0236000D03*
X0111709Y0236000D03*
X0100291Y0236000D03*
D18*
X0061446Y0124209D03*
X0061446Y0112791D03*
X0168500Y0066709D03*
X0168500Y0055291D03*
D19*
X0071000Y0096000D03*
D20*
X0095803Y0087024D03*
X0095803Y0104976D03*
D21*
X0116000Y0105950D03*
X0116000Y0131050D03*
D22*
X0193450Y0108500D03*
X0218550Y0108500D03*
D23*
X0201000Y0068500D03*
D24*
X0192024Y0093303D03*
X0209976Y0093303D03*
D25*
X0171059Y0106571D03*
X0168500Y0106571D03*
X0165941Y0106571D03*
X0166059Y0115429D03*
X0171059Y0115429D03*
D26*
X0133598Y0102555D03*
X0133598Y0093500D03*
X0133598Y0084445D03*
D27*
X0156000Y0093500D03*
D28*
X0032378Y0207614D03*
X0032378Y0209386D03*
X0032378Y0225114D03*
X0032378Y0226886D03*
X0032378Y0245114D03*
X0032378Y0246886D03*
D29*
X0029622Y0246000D03*
X0029622Y0226000D03*
X0029622Y0208500D03*
M02*
