%
M48
M72
T01C0.00700
T02C0.01378
T03C0.02000
T04C0.02362
T05C0.03200
T06C0.03937
T07C0.04724
T08C0.05118
T09C0.11800
T10C0.20669
%
T01
X161000Y126000
X123500Y148500
X101000Y168500
X81000Y166000
X81000Y171000
X78500Y176000
X78500Y158500
X46000Y211000
X46000Y228500
X48500Y243500
X199927Y174855
X211000Y166000
X221000Y158500
X218500Y148500
X220835Y145200
X226192Y139273
X231550Y141000
X211000Y146000
X231000Y121000
X243500Y103500
X243500Y99300
X243500Y96000
X263500Y91000
X281000Y91000
X298500Y91000
X255171Y163416
T02
X244880Y76735
X244880Y66735
X13500Y158500
X13500Y168500
T03
X58500Y186000
X73500Y191000
X92200Y191000
X98808Y178192
X98500Y173500
X71300Y163900
X72900Y158500
X98500Y143500
T04
X133500Y68500
X220045Y153347
X153500Y243500
X61000Y228500
T05
X81500Y133500
X95500Y133500
X248380Y125934
X248380Y111934
T06
X278500Y136689
X278500Y160311
X146000Y154189
X146000Y177811
T07
X56000Y20567
X56000Y41433
X141000Y56000
X151000Y56000
X285567Y53500
X306433Y53500
X308491Y69153
X318491Y69153
X163500Y248067
X163500Y268933
X33500Y271000
X23500Y271000
T08
X91000Y213500
X238500Y174112
T09
X232400Y258900
X299600Y258900
X134600Y273100
X67400Y273100
X40600Y144600
X40600Y77400
X189900Y21400
X257100Y21400
T10
X238250Y28500
X208750Y28500
X33500Y96250
X33500Y125750
X86250Y266000
X115750Y266000
X251250Y266000
X280750Y266000
M30
