G75*
%MOIN*%
%OFA0B0*%
%FSLAX25Y25*%
%IPPOS*%
%LPD*%
%AMOC8*
5,1,8,0,0,1.08239X$1,22.5*
%
%ADD10OC8,0.07887*%
%ADD11R,0.05918X0.06706*%
%ADD12R,0.06706X0.05918*%
%ADD13C,0.12600*%
%ADD14R,0.25469X0.25469*%
%ADD15C,0.25469*%
%ADD16R,0.05524X0.05524*%
%ADD17OC8,0.06737*%
%ADD18C,0.09461*%
%ADD19OC8,0.06000*%
%ADD20R,0.02001X0.04300*%
%ADD21R,0.04737X0.06312*%
%ADD22R,0.03162X0.05918*%
%ADD23R,0.10131X0.09265*%
%ADD24R,0.02454X0.03556*%
%ADD25R,0.01981X0.03162*%
%ADD26R,0.06706X0.08674*%
%ADD27R,0.15761X0.08674*%
%ADD28R,0.05918X0.06312*%
%ADD29R,0.01784X0.02375*%
%ADD30R,0.03556X0.02375*%
%ADD31R,0.23635X0.25997*%
%ADD32R,0.05524X0.09461*%
%ADD33R,0.07887X0.07887*%
%ADD34C,0.04369*%
%ADD35C,0.04762*%
D10*
X0344986Y0036835D03*
X0344986Y0046835D03*
X0523372Y0191047D03*
X0523372Y0201047D03*
X0416640Y0216126D03*
X0406640Y0216126D03*
X0542742Y0281165D03*
X0378766Y0283134D03*
D11*
X0500419Y0231953D03*
X0507112Y0231953D03*
X0507703Y0217386D03*
X0501010Y0217386D03*
X0485065Y0217386D03*
X0478372Y0217386D03*
X0419081Y0177346D03*
X0412388Y0177346D03*
X0317742Y0212661D03*
X0311049Y0212661D03*
X0311049Y0221717D03*
X0317742Y0221717D03*
X0354829Y0224197D03*
X0361522Y0224197D03*
X0262821Y0198882D03*
X0256128Y0198882D03*
X0252388Y0130575D03*
X0245695Y0130575D03*
X0333018Y0118449D03*
X0339711Y0118449D03*
X0419238Y0101362D03*
X0425931Y0101362D03*
X0503687Y0115535D03*
X0510380Y0115535D03*
X0563372Y0129079D03*
X0570065Y0129079D03*
X0571286Y0149669D03*
X0564593Y0149669D03*
X0529553Y0160220D03*
X0522860Y0160220D03*
X0522782Y0170220D03*
X0529475Y0170220D03*
X0533963Y0086402D03*
X0540656Y0086402D03*
X0514199Y0064748D03*
X0507506Y0064748D03*
X0319278Y0030890D03*
X0312585Y0030890D03*
X0301561Y0030850D03*
X0294868Y0030850D03*
X0283175Y0030850D03*
X0276482Y0030850D03*
X0281837Y0053291D03*
X0288530Y0053291D03*
X0271758Y0062780D03*
X0265065Y0062780D03*
D12*
X0305419Y0089827D03*
X0305419Y0096520D03*
X0324160Y0097268D03*
X0324160Y0090575D03*
X0340065Y0091126D03*
X0340065Y0084433D03*
X0324160Y0076874D03*
X0324160Y0070181D03*
X0324356Y0058094D03*
X0324356Y0051402D03*
X0261758Y0090772D03*
X0261758Y0097465D03*
X0249947Y0097465D03*
X0249947Y0090772D03*
X0273175Y0110299D03*
X0273175Y0116992D03*
X0248333Y0166126D03*
X0248333Y0172819D03*
X0361364Y0201244D03*
X0361364Y0207937D03*
X0372152Y0189472D03*
X0372152Y0182780D03*
X0386325Y0182504D03*
X0386325Y0189197D03*
X0480262Y0169118D03*
X0491286Y0169315D03*
X0491286Y0162622D03*
X0480262Y0162425D03*
X0512939Y0163803D03*
X0512939Y0170496D03*
X0531404Y0113016D03*
X0531404Y0106323D03*
X0484002Y0083685D03*
X0468215Y0083488D03*
X0468215Y0076795D03*
X0484002Y0076992D03*
X0451915Y0077189D03*
X0451915Y0083882D03*
X0418412Y0081638D03*
X0418412Y0088331D03*
D13*
X0449098Y0032451D03*
X0381898Y0032451D03*
X0343075Y0253396D03*
X0275875Y0253396D03*
X0447922Y0254577D03*
X0515122Y0254577D03*
D14*
X0496272Y0261677D03*
X0324225Y0260496D03*
X0430248Y0039551D03*
D15*
X0400748Y0039551D03*
X0466772Y0261677D03*
X0294725Y0260496D03*
D16*
X0252978Y0152031D03*
X0239396Y0151992D03*
X0239396Y0143724D03*
X0252978Y0143764D03*
X0254160Y0116795D03*
X0254160Y0108528D03*
X0258687Y0030693D03*
X0266955Y0030693D03*
X0560656Y0105969D03*
X0568923Y0105969D03*
X0554947Y0159512D03*
X0554947Y0167780D03*
X0552506Y0209906D03*
X0552506Y0218173D03*
X0568451Y0218764D03*
X0568451Y0210496D03*
D17*
X0567624Y0190220D03*
X0567624Y0180378D03*
X0567624Y0170535D03*
X0236758Y0169157D03*
X0236758Y0179000D03*
X0236758Y0188843D03*
D18*
X0209199Y0196323D03*
X0209199Y0161677D03*
X0595183Y0163055D03*
X0595183Y0197701D03*
D19*
X0550498Y0146441D03*
X0540498Y0146441D03*
X0264317Y0167150D03*
X0264317Y0177150D03*
D20*
X0283805Y0102189D03*
X0285774Y0102189D03*
X0287742Y0102189D03*
X0289711Y0102189D03*
X0291679Y0102189D03*
X0293648Y0102189D03*
X0295616Y0102189D03*
X0297585Y0102189D03*
X0297585Y0083370D03*
X0295616Y0083370D03*
X0293648Y0083370D03*
X0291679Y0083370D03*
X0289711Y0083370D03*
X0287742Y0083370D03*
X0285774Y0083370D03*
X0283805Y0083370D03*
X0505892Y0077268D03*
X0507860Y0077268D03*
X0509829Y0077268D03*
X0511797Y0077268D03*
X0513766Y0077268D03*
X0515734Y0077268D03*
X0517703Y0077268D03*
X0519671Y0077268D03*
X0519671Y0096087D03*
X0517703Y0096087D03*
X0515734Y0096087D03*
X0513766Y0096087D03*
X0511797Y0096087D03*
X0509829Y0096087D03*
X0507860Y0096087D03*
X0505892Y0096087D03*
D21*
X0504160Y0141598D03*
X0511640Y0141598D03*
X0507900Y0150260D03*
X0253293Y0072898D03*
X0245813Y0072898D03*
X0249553Y0081559D03*
D22*
X0246797Y0183370D03*
X0254278Y0183370D03*
X0250538Y0191638D03*
X0545183Y0128843D03*
X0552663Y0128843D03*
X0548923Y0120575D03*
D23*
X0440931Y0129492D03*
X0449199Y0170634D03*
X0314789Y0141500D03*
X0296640Y0174846D03*
D24*
X0297919Y0166677D03*
X0295360Y0166677D03*
X0292801Y0166677D03*
X0300478Y0166677D03*
X0310951Y0149669D03*
X0313510Y0149669D03*
X0316069Y0149669D03*
X0318628Y0149669D03*
X0437093Y0137661D03*
X0439652Y0137661D03*
X0442211Y0137661D03*
X0444770Y0137661D03*
X0445360Y0162465D03*
X0447919Y0162465D03*
X0450478Y0162465D03*
X0453038Y0162465D03*
D25*
X0408923Y0160594D03*
X0403923Y0160594D03*
X0403923Y0169453D03*
X0406482Y0169453D03*
X0409041Y0169453D03*
D26*
X0389199Y0224079D03*
X0380144Y0224079D03*
X0371089Y0224079D03*
D27*
X0380144Y0201677D03*
D28*
X0404868Y0192701D03*
X0416286Y0192701D03*
X0476207Y0232150D03*
X0487624Y0232150D03*
X0321679Y0232543D03*
X0310262Y0232543D03*
X0411561Y0056677D03*
X0422978Y0056677D03*
D29*
X0308471Y0038921D03*
X0306699Y0038921D03*
X0531738Y0097780D03*
X0533510Y0097780D03*
D30*
X0532624Y0095024D03*
X0307585Y0041677D03*
D31*
X0282506Y0216992D03*
X0445695Y0218764D03*
D32*
X0454671Y0193961D03*
X0436719Y0193961D03*
X0291482Y0192189D03*
X0273530Y0192189D03*
D33*
X0399632Y0283134D03*
X0563608Y0281165D03*
D34*
X0554947Y0224866D03*
X0517939Y0219354D03*
X0522663Y0178016D03*
X0538412Y0178016D03*
X0497073Y0171717D03*
X0413348Y0170008D03*
X0394711Y0178803D03*
X0380538Y0155575D03*
X0307309Y0168173D03*
X0249435Y0157543D03*
X0233960Y0150063D03*
X0239199Y0137465D03*
X0262427Y0127228D03*
X0269120Y0096126D03*
X0271876Y0081953D03*
X0279750Y0075260D03*
X0258097Y0072898D03*
X0294317Y0064236D03*
X0339986Y0077228D03*
X0312821Y0094945D03*
X0435852Y0084512D03*
X0464002Y0092189D03*
X0487230Y0099669D03*
X0493923Y0101244D03*
X0502191Y0101638D03*
X0521482Y0103606D03*
X0524546Y0096606D03*
X0543923Y0093370D03*
X0511246Y0087465D03*
X0498254Y0088252D03*
X0491561Y0087858D03*
X0499829Y0078409D03*
X0507703Y0072898D03*
X0547467Y0112268D03*
X0568726Y0114236D03*
X0525026Y0126441D03*
X0516758Y0133921D03*
X0508490Y0123291D03*
X0476994Y0125260D03*
X0371089Y0213055D03*
X0388963Y0216756D03*
X0342467Y0224197D03*
X0328963Y0232740D03*
X0243923Y0178803D03*
X0253372Y0037071D03*
D35*
X0244120Y0065417D03*
X0279160Y0062268D03*
X0307900Y0045929D03*
X0319514Y0038646D03*
X0281719Y0041598D03*
X0258490Y0084118D03*
X0419514Y0139433D03*
M02*
