%
M48
M72
T01C0.01969
T02C0.02362
T03C0.03200
T04C0.03937
T05C0.04724
T06C0.08661
T07C0.11800
T08C0.20669
%
T01
X78415Y32115
X119360Y59280
X104793Y70304
X96919Y76997
X83139Y67942
X94163Y91170
X137864Y89989
X165029Y72272
X87470Y122272
X64241Y132509
X59002Y145107
X74478Y152587
X68966Y173847
X132352Y163217
X196131Y208099
X214005Y211800
X167509Y219241
X154005Y227784
X219753Y173847
X238391Y165052
X205580Y150619
X302037Y120304
X333533Y118335
X341801Y128965
X350068Y121485
X372509Y107312
X393769Y109280
X368966Y88414
X349588Y91650
X346525Y98650
X327234Y96682
X318966Y96288
X312273Y94713
X316604Y82902
X323297Y83296
X324871Y73454
X332745Y67942
X336289Y82509
X289045Y87233
X260895Y79556
X322115Y166761
X347706Y173060
X363454Y173060
X342982Y214398
X379989Y219910
T02
X244556Y134477
X132942Y40973
X144556Y33690
X106761Y36643
X104202Y57312
X83533Y79162
X69163Y60461
T03
X89360Y162194
X89360Y172194
X365541Y141485
X375541Y141485
T04
X392667Y165580
X392667Y175422
X392667Y185265
X61801Y183887
X61801Y174044
X61801Y164202
T05
X231682Y211170
X241682Y211170
X224675Y278178
X203808Y278178
X348415Y196091
X348415Y186091
X367785Y276209
X388651Y276209
X170029Y41879
X170029Y31879
T06
X34241Y156721
X34241Y191367
X420226Y192745
X420226Y158099
T07
X340164Y249621
X272964Y249621
X168117Y248440
X100917Y248440
X206941Y27495
X274141Y27495
T08
X255291Y34595
X225791Y34595
X291814Y256721
X321314Y256721
X149267Y255540
X119767Y255540
M30
