G75*
%MOIN*%
%OFA0B0*%
%FSLAX25Y25*%
%IPPOS*%
%LPD*%
%AMOC8*
5,1,8,0,0,1.08239X$1,22.5*
%
%ADD10C,0.00000*%
%ADD11OC8,0.07087*%
%ADD12R,0.05118X0.05906*%
%ADD13R,0.05906X0.05118*%
%ADD14R,0.24669X0.24669*%
%ADD15C,0.24669*%
%ADD16R,0.04724X0.04724*%
%ADD17OC8,0.05937*%
%ADD18OC8,0.05200*%
%ADD19R,0.01201X0.03500*%
%ADD20R,0.03937X0.05512*%
%ADD21R,0.02362X0.05118*%
%ADD22R,0.09331X0.08465*%
%ADD23R,0.01654X0.02756*%
%ADD24R,0.01181X0.02362*%
%ADD25R,0.05906X0.07874*%
%ADD26R,0.14961X0.07874*%
%ADD27R,0.05118X0.05512*%
%ADD28R,0.00984X0.01575*%
%ADD29R,0.02756X0.01575*%
%ADD30R,0.22835X0.25197*%
%ADD31R,0.04724X0.08661*%
%ADD32R,0.07087X0.07087*%
%ADD33C,0.01200*%
%ADD34C,0.01600*%
%ADD35C,0.03569*%
%ADD36C,0.03962*%
%ADD37C,0.02400*%
%ADD38C,0.01000*%
D10*
X0228963Y0006756D02*
X0228963Y0291756D01*
X0578963Y0291756D01*
X0578963Y0006756D01*
X0228963Y0006756D01*
X0375998Y0032451D02*
X0376000Y0032604D01*
X0376006Y0032757D01*
X0376016Y0032910D01*
X0376030Y0033063D01*
X0376048Y0033215D01*
X0376069Y0033366D01*
X0376095Y0033517D01*
X0376125Y0033668D01*
X0376158Y0033817D01*
X0376196Y0033966D01*
X0376237Y0034113D01*
X0376282Y0034260D01*
X0376331Y0034405D01*
X0376383Y0034549D01*
X0376440Y0034691D01*
X0376500Y0034832D01*
X0376563Y0034971D01*
X0376631Y0035109D01*
X0376701Y0035245D01*
X0376776Y0035379D01*
X0376853Y0035511D01*
X0376935Y0035641D01*
X0377019Y0035769D01*
X0377107Y0035894D01*
X0377198Y0036017D01*
X0377292Y0036138D01*
X0377389Y0036256D01*
X0377490Y0036372D01*
X0377593Y0036485D01*
X0377699Y0036596D01*
X0377808Y0036703D01*
X0377920Y0036808D01*
X0378034Y0036910D01*
X0378151Y0037009D01*
X0378271Y0037104D01*
X0378393Y0037197D01*
X0378517Y0037286D01*
X0378644Y0037373D01*
X0378773Y0037455D01*
X0378904Y0037535D01*
X0379037Y0037611D01*
X0379172Y0037683D01*
X0379309Y0037752D01*
X0379447Y0037818D01*
X0379587Y0037880D01*
X0379729Y0037938D01*
X0379872Y0037992D01*
X0380017Y0038043D01*
X0380162Y0038090D01*
X0380309Y0038133D01*
X0380457Y0038172D01*
X0380606Y0038208D01*
X0380756Y0038239D01*
X0380907Y0038267D01*
X0381058Y0038291D01*
X0381210Y0038311D01*
X0381363Y0038327D01*
X0381515Y0038339D01*
X0381668Y0038347D01*
X0381821Y0038351D01*
X0381975Y0038351D01*
X0382128Y0038347D01*
X0382281Y0038339D01*
X0382433Y0038327D01*
X0382586Y0038311D01*
X0382738Y0038291D01*
X0382889Y0038267D01*
X0383040Y0038239D01*
X0383190Y0038208D01*
X0383339Y0038172D01*
X0383487Y0038133D01*
X0383634Y0038090D01*
X0383779Y0038043D01*
X0383924Y0037992D01*
X0384067Y0037938D01*
X0384209Y0037880D01*
X0384349Y0037818D01*
X0384487Y0037752D01*
X0384624Y0037683D01*
X0384759Y0037611D01*
X0384892Y0037535D01*
X0385023Y0037455D01*
X0385152Y0037373D01*
X0385279Y0037286D01*
X0385403Y0037197D01*
X0385525Y0037104D01*
X0385645Y0037009D01*
X0385762Y0036910D01*
X0385876Y0036808D01*
X0385988Y0036703D01*
X0386097Y0036596D01*
X0386203Y0036485D01*
X0386306Y0036372D01*
X0386407Y0036256D01*
X0386504Y0036138D01*
X0386598Y0036017D01*
X0386689Y0035894D01*
X0386777Y0035769D01*
X0386861Y0035641D01*
X0386943Y0035511D01*
X0387020Y0035379D01*
X0387095Y0035245D01*
X0387165Y0035109D01*
X0387233Y0034971D01*
X0387296Y0034832D01*
X0387356Y0034691D01*
X0387413Y0034549D01*
X0387465Y0034405D01*
X0387514Y0034260D01*
X0387559Y0034113D01*
X0387600Y0033966D01*
X0387638Y0033817D01*
X0387671Y0033668D01*
X0387701Y0033517D01*
X0387727Y0033366D01*
X0387748Y0033215D01*
X0387766Y0033063D01*
X0387780Y0032910D01*
X0387790Y0032757D01*
X0387796Y0032604D01*
X0387798Y0032451D01*
X0387796Y0032298D01*
X0387790Y0032145D01*
X0387780Y0031992D01*
X0387766Y0031839D01*
X0387748Y0031687D01*
X0387727Y0031536D01*
X0387701Y0031385D01*
X0387671Y0031234D01*
X0387638Y0031085D01*
X0387600Y0030936D01*
X0387559Y0030789D01*
X0387514Y0030642D01*
X0387465Y0030497D01*
X0387413Y0030353D01*
X0387356Y0030211D01*
X0387296Y0030070D01*
X0387233Y0029931D01*
X0387165Y0029793D01*
X0387095Y0029657D01*
X0387020Y0029523D01*
X0386943Y0029391D01*
X0386861Y0029261D01*
X0386777Y0029133D01*
X0386689Y0029008D01*
X0386598Y0028885D01*
X0386504Y0028764D01*
X0386407Y0028646D01*
X0386306Y0028530D01*
X0386203Y0028417D01*
X0386097Y0028306D01*
X0385988Y0028199D01*
X0385876Y0028094D01*
X0385762Y0027992D01*
X0385645Y0027893D01*
X0385525Y0027798D01*
X0385403Y0027705D01*
X0385279Y0027616D01*
X0385152Y0027529D01*
X0385023Y0027447D01*
X0384892Y0027367D01*
X0384759Y0027291D01*
X0384624Y0027219D01*
X0384487Y0027150D01*
X0384349Y0027084D01*
X0384209Y0027022D01*
X0384067Y0026964D01*
X0383924Y0026910D01*
X0383779Y0026859D01*
X0383634Y0026812D01*
X0383487Y0026769D01*
X0383339Y0026730D01*
X0383190Y0026694D01*
X0383040Y0026663D01*
X0382889Y0026635D01*
X0382738Y0026611D01*
X0382586Y0026591D01*
X0382433Y0026575D01*
X0382281Y0026563D01*
X0382128Y0026555D01*
X0381975Y0026551D01*
X0381821Y0026551D01*
X0381668Y0026555D01*
X0381515Y0026563D01*
X0381363Y0026575D01*
X0381210Y0026591D01*
X0381058Y0026611D01*
X0380907Y0026635D01*
X0380756Y0026663D01*
X0380606Y0026694D01*
X0380457Y0026730D01*
X0380309Y0026769D01*
X0380162Y0026812D01*
X0380017Y0026859D01*
X0379872Y0026910D01*
X0379729Y0026964D01*
X0379587Y0027022D01*
X0379447Y0027084D01*
X0379309Y0027150D01*
X0379172Y0027219D01*
X0379037Y0027291D01*
X0378904Y0027367D01*
X0378773Y0027447D01*
X0378644Y0027529D01*
X0378517Y0027616D01*
X0378393Y0027705D01*
X0378271Y0027798D01*
X0378151Y0027893D01*
X0378034Y0027992D01*
X0377920Y0028094D01*
X0377808Y0028199D01*
X0377699Y0028306D01*
X0377593Y0028417D01*
X0377490Y0028530D01*
X0377389Y0028646D01*
X0377292Y0028764D01*
X0377198Y0028885D01*
X0377107Y0029008D01*
X0377019Y0029133D01*
X0376935Y0029261D01*
X0376853Y0029391D01*
X0376776Y0029523D01*
X0376701Y0029657D01*
X0376631Y0029793D01*
X0376563Y0029931D01*
X0376500Y0030070D01*
X0376440Y0030211D01*
X0376383Y0030353D01*
X0376331Y0030497D01*
X0376282Y0030642D01*
X0376237Y0030789D01*
X0376196Y0030936D01*
X0376158Y0031085D01*
X0376125Y0031234D01*
X0376095Y0031385D01*
X0376069Y0031536D01*
X0376048Y0031687D01*
X0376030Y0031839D01*
X0376016Y0031992D01*
X0376006Y0032145D01*
X0376000Y0032298D01*
X0375998Y0032451D01*
X0443198Y0032451D02*
X0443200Y0032604D01*
X0443206Y0032757D01*
X0443216Y0032910D01*
X0443230Y0033063D01*
X0443248Y0033215D01*
X0443269Y0033366D01*
X0443295Y0033517D01*
X0443325Y0033668D01*
X0443358Y0033817D01*
X0443396Y0033966D01*
X0443437Y0034113D01*
X0443482Y0034260D01*
X0443531Y0034405D01*
X0443583Y0034549D01*
X0443640Y0034691D01*
X0443700Y0034832D01*
X0443763Y0034971D01*
X0443831Y0035109D01*
X0443901Y0035245D01*
X0443976Y0035379D01*
X0444053Y0035511D01*
X0444135Y0035641D01*
X0444219Y0035769D01*
X0444307Y0035894D01*
X0444398Y0036017D01*
X0444492Y0036138D01*
X0444589Y0036256D01*
X0444690Y0036372D01*
X0444793Y0036485D01*
X0444899Y0036596D01*
X0445008Y0036703D01*
X0445120Y0036808D01*
X0445234Y0036910D01*
X0445351Y0037009D01*
X0445471Y0037104D01*
X0445593Y0037197D01*
X0445717Y0037286D01*
X0445844Y0037373D01*
X0445973Y0037455D01*
X0446104Y0037535D01*
X0446237Y0037611D01*
X0446372Y0037683D01*
X0446509Y0037752D01*
X0446647Y0037818D01*
X0446787Y0037880D01*
X0446929Y0037938D01*
X0447072Y0037992D01*
X0447217Y0038043D01*
X0447362Y0038090D01*
X0447509Y0038133D01*
X0447657Y0038172D01*
X0447806Y0038208D01*
X0447956Y0038239D01*
X0448107Y0038267D01*
X0448258Y0038291D01*
X0448410Y0038311D01*
X0448563Y0038327D01*
X0448715Y0038339D01*
X0448868Y0038347D01*
X0449021Y0038351D01*
X0449175Y0038351D01*
X0449328Y0038347D01*
X0449481Y0038339D01*
X0449633Y0038327D01*
X0449786Y0038311D01*
X0449938Y0038291D01*
X0450089Y0038267D01*
X0450240Y0038239D01*
X0450390Y0038208D01*
X0450539Y0038172D01*
X0450687Y0038133D01*
X0450834Y0038090D01*
X0450979Y0038043D01*
X0451124Y0037992D01*
X0451267Y0037938D01*
X0451409Y0037880D01*
X0451549Y0037818D01*
X0451687Y0037752D01*
X0451824Y0037683D01*
X0451959Y0037611D01*
X0452092Y0037535D01*
X0452223Y0037455D01*
X0452352Y0037373D01*
X0452479Y0037286D01*
X0452603Y0037197D01*
X0452725Y0037104D01*
X0452845Y0037009D01*
X0452962Y0036910D01*
X0453076Y0036808D01*
X0453188Y0036703D01*
X0453297Y0036596D01*
X0453403Y0036485D01*
X0453506Y0036372D01*
X0453607Y0036256D01*
X0453704Y0036138D01*
X0453798Y0036017D01*
X0453889Y0035894D01*
X0453977Y0035769D01*
X0454061Y0035641D01*
X0454143Y0035511D01*
X0454220Y0035379D01*
X0454295Y0035245D01*
X0454365Y0035109D01*
X0454433Y0034971D01*
X0454496Y0034832D01*
X0454556Y0034691D01*
X0454613Y0034549D01*
X0454665Y0034405D01*
X0454714Y0034260D01*
X0454759Y0034113D01*
X0454800Y0033966D01*
X0454838Y0033817D01*
X0454871Y0033668D01*
X0454901Y0033517D01*
X0454927Y0033366D01*
X0454948Y0033215D01*
X0454966Y0033063D01*
X0454980Y0032910D01*
X0454990Y0032757D01*
X0454996Y0032604D01*
X0454998Y0032451D01*
X0454996Y0032298D01*
X0454990Y0032145D01*
X0454980Y0031992D01*
X0454966Y0031839D01*
X0454948Y0031687D01*
X0454927Y0031536D01*
X0454901Y0031385D01*
X0454871Y0031234D01*
X0454838Y0031085D01*
X0454800Y0030936D01*
X0454759Y0030789D01*
X0454714Y0030642D01*
X0454665Y0030497D01*
X0454613Y0030353D01*
X0454556Y0030211D01*
X0454496Y0030070D01*
X0454433Y0029931D01*
X0454365Y0029793D01*
X0454295Y0029657D01*
X0454220Y0029523D01*
X0454143Y0029391D01*
X0454061Y0029261D01*
X0453977Y0029133D01*
X0453889Y0029008D01*
X0453798Y0028885D01*
X0453704Y0028764D01*
X0453607Y0028646D01*
X0453506Y0028530D01*
X0453403Y0028417D01*
X0453297Y0028306D01*
X0453188Y0028199D01*
X0453076Y0028094D01*
X0452962Y0027992D01*
X0452845Y0027893D01*
X0452725Y0027798D01*
X0452603Y0027705D01*
X0452479Y0027616D01*
X0452352Y0027529D01*
X0452223Y0027447D01*
X0452092Y0027367D01*
X0451959Y0027291D01*
X0451824Y0027219D01*
X0451687Y0027150D01*
X0451549Y0027084D01*
X0451409Y0027022D01*
X0451267Y0026964D01*
X0451124Y0026910D01*
X0450979Y0026859D01*
X0450834Y0026812D01*
X0450687Y0026769D01*
X0450539Y0026730D01*
X0450390Y0026694D01*
X0450240Y0026663D01*
X0450089Y0026635D01*
X0449938Y0026611D01*
X0449786Y0026591D01*
X0449633Y0026575D01*
X0449481Y0026563D01*
X0449328Y0026555D01*
X0449175Y0026551D01*
X0449021Y0026551D01*
X0448868Y0026555D01*
X0448715Y0026563D01*
X0448563Y0026575D01*
X0448410Y0026591D01*
X0448258Y0026611D01*
X0448107Y0026635D01*
X0447956Y0026663D01*
X0447806Y0026694D01*
X0447657Y0026730D01*
X0447509Y0026769D01*
X0447362Y0026812D01*
X0447217Y0026859D01*
X0447072Y0026910D01*
X0446929Y0026964D01*
X0446787Y0027022D01*
X0446647Y0027084D01*
X0446509Y0027150D01*
X0446372Y0027219D01*
X0446237Y0027291D01*
X0446104Y0027367D01*
X0445973Y0027447D01*
X0445844Y0027529D01*
X0445717Y0027616D01*
X0445593Y0027705D01*
X0445471Y0027798D01*
X0445351Y0027893D01*
X0445234Y0027992D01*
X0445120Y0028094D01*
X0445008Y0028199D01*
X0444899Y0028306D01*
X0444793Y0028417D01*
X0444690Y0028530D01*
X0444589Y0028646D01*
X0444492Y0028764D01*
X0444398Y0028885D01*
X0444307Y0029008D01*
X0444219Y0029133D01*
X0444135Y0029261D01*
X0444053Y0029391D01*
X0443976Y0029523D01*
X0443901Y0029657D01*
X0443831Y0029793D01*
X0443763Y0029931D01*
X0443700Y0030070D01*
X0443640Y0030211D01*
X0443583Y0030353D01*
X0443531Y0030497D01*
X0443482Y0030642D01*
X0443437Y0030789D01*
X0443396Y0030936D01*
X0443358Y0031085D01*
X0443325Y0031234D01*
X0443295Y0031385D01*
X0443269Y0031536D01*
X0443248Y0031687D01*
X0443230Y0031839D01*
X0443216Y0031992D01*
X0443206Y0032145D01*
X0443200Y0032298D01*
X0443198Y0032451D01*
X0590852Y0163055D02*
X0590854Y0163186D01*
X0590860Y0163318D01*
X0590870Y0163449D01*
X0590884Y0163580D01*
X0590902Y0163710D01*
X0590924Y0163839D01*
X0590949Y0163968D01*
X0590979Y0164096D01*
X0591013Y0164223D01*
X0591050Y0164350D01*
X0591091Y0164474D01*
X0591136Y0164598D01*
X0591185Y0164720D01*
X0591237Y0164841D01*
X0591293Y0164959D01*
X0591353Y0165077D01*
X0591416Y0165192D01*
X0591483Y0165305D01*
X0591553Y0165417D01*
X0591626Y0165526D01*
X0591702Y0165632D01*
X0591782Y0165737D01*
X0591865Y0165839D01*
X0591951Y0165938D01*
X0592040Y0166035D01*
X0592132Y0166129D01*
X0592227Y0166220D01*
X0592324Y0166309D01*
X0592424Y0166394D01*
X0592527Y0166476D01*
X0592632Y0166555D01*
X0592739Y0166631D01*
X0592849Y0166703D01*
X0592961Y0166772D01*
X0593075Y0166838D01*
X0593190Y0166900D01*
X0593308Y0166959D01*
X0593427Y0167014D01*
X0593548Y0167066D01*
X0593671Y0167113D01*
X0593795Y0167157D01*
X0593920Y0167198D01*
X0594046Y0167234D01*
X0594174Y0167267D01*
X0594302Y0167295D01*
X0594431Y0167320D01*
X0594561Y0167341D01*
X0594691Y0167358D01*
X0594822Y0167371D01*
X0594953Y0167380D01*
X0595084Y0167385D01*
X0595216Y0167386D01*
X0595347Y0167383D01*
X0595479Y0167376D01*
X0595610Y0167365D01*
X0595740Y0167350D01*
X0595870Y0167331D01*
X0596000Y0167308D01*
X0596128Y0167282D01*
X0596256Y0167251D01*
X0596383Y0167216D01*
X0596509Y0167178D01*
X0596633Y0167136D01*
X0596757Y0167090D01*
X0596878Y0167040D01*
X0596998Y0166987D01*
X0597117Y0166930D01*
X0597234Y0166870D01*
X0597348Y0166806D01*
X0597461Y0166738D01*
X0597572Y0166667D01*
X0597681Y0166593D01*
X0597787Y0166516D01*
X0597891Y0166435D01*
X0597992Y0166352D01*
X0598091Y0166265D01*
X0598187Y0166175D01*
X0598280Y0166082D01*
X0598371Y0165987D01*
X0598458Y0165889D01*
X0598543Y0165788D01*
X0598624Y0165685D01*
X0598702Y0165579D01*
X0598777Y0165471D01*
X0598849Y0165361D01*
X0598917Y0165249D01*
X0598982Y0165135D01*
X0599043Y0165018D01*
X0599101Y0164900D01*
X0599155Y0164780D01*
X0599206Y0164659D01*
X0599253Y0164536D01*
X0599296Y0164412D01*
X0599335Y0164287D01*
X0599371Y0164160D01*
X0599402Y0164032D01*
X0599430Y0163904D01*
X0599454Y0163775D01*
X0599474Y0163645D01*
X0599490Y0163514D01*
X0599502Y0163383D01*
X0599510Y0163252D01*
X0599514Y0163121D01*
X0599514Y0162989D01*
X0599510Y0162858D01*
X0599502Y0162727D01*
X0599490Y0162596D01*
X0599474Y0162465D01*
X0599454Y0162335D01*
X0599430Y0162206D01*
X0599402Y0162078D01*
X0599371Y0161950D01*
X0599335Y0161823D01*
X0599296Y0161698D01*
X0599253Y0161574D01*
X0599206Y0161451D01*
X0599155Y0161330D01*
X0599101Y0161210D01*
X0599043Y0161092D01*
X0598982Y0160975D01*
X0598917Y0160861D01*
X0598849Y0160749D01*
X0598777Y0160639D01*
X0598702Y0160531D01*
X0598624Y0160425D01*
X0598543Y0160322D01*
X0598458Y0160221D01*
X0598371Y0160123D01*
X0598280Y0160028D01*
X0598187Y0159935D01*
X0598091Y0159845D01*
X0597992Y0159758D01*
X0597891Y0159675D01*
X0597787Y0159594D01*
X0597681Y0159517D01*
X0597572Y0159443D01*
X0597461Y0159372D01*
X0597349Y0159304D01*
X0597234Y0159240D01*
X0597117Y0159180D01*
X0596998Y0159123D01*
X0596878Y0159070D01*
X0596757Y0159020D01*
X0596633Y0158974D01*
X0596509Y0158932D01*
X0596383Y0158894D01*
X0596256Y0158859D01*
X0596128Y0158828D01*
X0596000Y0158802D01*
X0595870Y0158779D01*
X0595740Y0158760D01*
X0595610Y0158745D01*
X0595479Y0158734D01*
X0595347Y0158727D01*
X0595216Y0158724D01*
X0595084Y0158725D01*
X0594953Y0158730D01*
X0594822Y0158739D01*
X0594691Y0158752D01*
X0594561Y0158769D01*
X0594431Y0158790D01*
X0594302Y0158815D01*
X0594174Y0158843D01*
X0594046Y0158876D01*
X0593920Y0158912D01*
X0593795Y0158953D01*
X0593671Y0158997D01*
X0593548Y0159044D01*
X0593427Y0159096D01*
X0593308Y0159151D01*
X0593190Y0159210D01*
X0593075Y0159272D01*
X0592961Y0159338D01*
X0592849Y0159407D01*
X0592739Y0159479D01*
X0592632Y0159555D01*
X0592527Y0159634D01*
X0592424Y0159716D01*
X0592324Y0159801D01*
X0592227Y0159890D01*
X0592132Y0159981D01*
X0592040Y0160075D01*
X0591951Y0160172D01*
X0591865Y0160271D01*
X0591782Y0160373D01*
X0591702Y0160478D01*
X0591626Y0160584D01*
X0591553Y0160693D01*
X0591483Y0160805D01*
X0591416Y0160918D01*
X0591353Y0161033D01*
X0591293Y0161151D01*
X0591237Y0161269D01*
X0591185Y0161390D01*
X0591136Y0161512D01*
X0591091Y0161636D01*
X0591050Y0161760D01*
X0591013Y0161887D01*
X0590979Y0162014D01*
X0590949Y0162142D01*
X0590924Y0162271D01*
X0590902Y0162400D01*
X0590884Y0162530D01*
X0590870Y0162661D01*
X0590860Y0162792D01*
X0590854Y0162924D01*
X0590852Y0163055D01*
X0590852Y0197701D02*
X0590854Y0197832D01*
X0590860Y0197964D01*
X0590870Y0198095D01*
X0590884Y0198226D01*
X0590902Y0198356D01*
X0590924Y0198485D01*
X0590949Y0198614D01*
X0590979Y0198742D01*
X0591013Y0198869D01*
X0591050Y0198996D01*
X0591091Y0199120D01*
X0591136Y0199244D01*
X0591185Y0199366D01*
X0591237Y0199487D01*
X0591293Y0199605D01*
X0591353Y0199723D01*
X0591416Y0199838D01*
X0591483Y0199951D01*
X0591553Y0200063D01*
X0591626Y0200172D01*
X0591702Y0200278D01*
X0591782Y0200383D01*
X0591865Y0200485D01*
X0591951Y0200584D01*
X0592040Y0200681D01*
X0592132Y0200775D01*
X0592227Y0200866D01*
X0592324Y0200955D01*
X0592424Y0201040D01*
X0592527Y0201122D01*
X0592632Y0201201D01*
X0592739Y0201277D01*
X0592849Y0201349D01*
X0592961Y0201418D01*
X0593075Y0201484D01*
X0593190Y0201546D01*
X0593308Y0201605D01*
X0593427Y0201660D01*
X0593548Y0201712D01*
X0593671Y0201759D01*
X0593795Y0201803D01*
X0593920Y0201844D01*
X0594046Y0201880D01*
X0594174Y0201913D01*
X0594302Y0201941D01*
X0594431Y0201966D01*
X0594561Y0201987D01*
X0594691Y0202004D01*
X0594822Y0202017D01*
X0594953Y0202026D01*
X0595084Y0202031D01*
X0595216Y0202032D01*
X0595347Y0202029D01*
X0595479Y0202022D01*
X0595610Y0202011D01*
X0595740Y0201996D01*
X0595870Y0201977D01*
X0596000Y0201954D01*
X0596128Y0201928D01*
X0596256Y0201897D01*
X0596383Y0201862D01*
X0596509Y0201824D01*
X0596633Y0201782D01*
X0596757Y0201736D01*
X0596878Y0201686D01*
X0596998Y0201633D01*
X0597117Y0201576D01*
X0597234Y0201516D01*
X0597348Y0201452D01*
X0597461Y0201384D01*
X0597572Y0201313D01*
X0597681Y0201239D01*
X0597787Y0201162D01*
X0597891Y0201081D01*
X0597992Y0200998D01*
X0598091Y0200911D01*
X0598187Y0200821D01*
X0598280Y0200728D01*
X0598371Y0200633D01*
X0598458Y0200535D01*
X0598543Y0200434D01*
X0598624Y0200331D01*
X0598702Y0200225D01*
X0598777Y0200117D01*
X0598849Y0200007D01*
X0598917Y0199895D01*
X0598982Y0199781D01*
X0599043Y0199664D01*
X0599101Y0199546D01*
X0599155Y0199426D01*
X0599206Y0199305D01*
X0599253Y0199182D01*
X0599296Y0199058D01*
X0599335Y0198933D01*
X0599371Y0198806D01*
X0599402Y0198678D01*
X0599430Y0198550D01*
X0599454Y0198421D01*
X0599474Y0198291D01*
X0599490Y0198160D01*
X0599502Y0198029D01*
X0599510Y0197898D01*
X0599514Y0197767D01*
X0599514Y0197635D01*
X0599510Y0197504D01*
X0599502Y0197373D01*
X0599490Y0197242D01*
X0599474Y0197111D01*
X0599454Y0196981D01*
X0599430Y0196852D01*
X0599402Y0196724D01*
X0599371Y0196596D01*
X0599335Y0196469D01*
X0599296Y0196344D01*
X0599253Y0196220D01*
X0599206Y0196097D01*
X0599155Y0195976D01*
X0599101Y0195856D01*
X0599043Y0195738D01*
X0598982Y0195621D01*
X0598917Y0195507D01*
X0598849Y0195395D01*
X0598777Y0195285D01*
X0598702Y0195177D01*
X0598624Y0195071D01*
X0598543Y0194968D01*
X0598458Y0194867D01*
X0598371Y0194769D01*
X0598280Y0194674D01*
X0598187Y0194581D01*
X0598091Y0194491D01*
X0597992Y0194404D01*
X0597891Y0194321D01*
X0597787Y0194240D01*
X0597681Y0194163D01*
X0597572Y0194089D01*
X0597461Y0194018D01*
X0597349Y0193950D01*
X0597234Y0193886D01*
X0597117Y0193826D01*
X0596998Y0193769D01*
X0596878Y0193716D01*
X0596757Y0193666D01*
X0596633Y0193620D01*
X0596509Y0193578D01*
X0596383Y0193540D01*
X0596256Y0193505D01*
X0596128Y0193474D01*
X0596000Y0193448D01*
X0595870Y0193425D01*
X0595740Y0193406D01*
X0595610Y0193391D01*
X0595479Y0193380D01*
X0595347Y0193373D01*
X0595216Y0193370D01*
X0595084Y0193371D01*
X0594953Y0193376D01*
X0594822Y0193385D01*
X0594691Y0193398D01*
X0594561Y0193415D01*
X0594431Y0193436D01*
X0594302Y0193461D01*
X0594174Y0193489D01*
X0594046Y0193522D01*
X0593920Y0193558D01*
X0593795Y0193599D01*
X0593671Y0193643D01*
X0593548Y0193690D01*
X0593427Y0193742D01*
X0593308Y0193797D01*
X0593190Y0193856D01*
X0593075Y0193918D01*
X0592961Y0193984D01*
X0592849Y0194053D01*
X0592739Y0194125D01*
X0592632Y0194201D01*
X0592527Y0194280D01*
X0592424Y0194362D01*
X0592324Y0194447D01*
X0592227Y0194536D01*
X0592132Y0194627D01*
X0592040Y0194721D01*
X0591951Y0194818D01*
X0591865Y0194917D01*
X0591782Y0195019D01*
X0591702Y0195124D01*
X0591626Y0195230D01*
X0591553Y0195339D01*
X0591483Y0195451D01*
X0591416Y0195564D01*
X0591353Y0195679D01*
X0591293Y0195797D01*
X0591237Y0195915D01*
X0591185Y0196036D01*
X0591136Y0196158D01*
X0591091Y0196282D01*
X0591050Y0196406D01*
X0591013Y0196533D01*
X0590979Y0196660D01*
X0590949Y0196788D01*
X0590924Y0196917D01*
X0590902Y0197046D01*
X0590884Y0197176D01*
X0590870Y0197307D01*
X0590860Y0197438D01*
X0590854Y0197570D01*
X0590852Y0197701D01*
X0509222Y0254577D02*
X0509224Y0254730D01*
X0509230Y0254883D01*
X0509240Y0255036D01*
X0509254Y0255189D01*
X0509272Y0255341D01*
X0509293Y0255492D01*
X0509319Y0255643D01*
X0509349Y0255794D01*
X0509382Y0255943D01*
X0509420Y0256092D01*
X0509461Y0256239D01*
X0509506Y0256386D01*
X0509555Y0256531D01*
X0509607Y0256675D01*
X0509664Y0256817D01*
X0509724Y0256958D01*
X0509787Y0257097D01*
X0509855Y0257235D01*
X0509925Y0257371D01*
X0510000Y0257505D01*
X0510077Y0257637D01*
X0510159Y0257767D01*
X0510243Y0257895D01*
X0510331Y0258020D01*
X0510422Y0258143D01*
X0510516Y0258264D01*
X0510613Y0258382D01*
X0510714Y0258498D01*
X0510817Y0258611D01*
X0510923Y0258722D01*
X0511032Y0258829D01*
X0511144Y0258934D01*
X0511258Y0259036D01*
X0511375Y0259135D01*
X0511495Y0259230D01*
X0511617Y0259323D01*
X0511741Y0259412D01*
X0511868Y0259499D01*
X0511997Y0259581D01*
X0512128Y0259661D01*
X0512261Y0259737D01*
X0512396Y0259809D01*
X0512533Y0259878D01*
X0512671Y0259944D01*
X0512811Y0260006D01*
X0512953Y0260064D01*
X0513096Y0260118D01*
X0513241Y0260169D01*
X0513386Y0260216D01*
X0513533Y0260259D01*
X0513681Y0260298D01*
X0513830Y0260334D01*
X0513980Y0260365D01*
X0514131Y0260393D01*
X0514282Y0260417D01*
X0514434Y0260437D01*
X0514587Y0260453D01*
X0514739Y0260465D01*
X0514892Y0260473D01*
X0515045Y0260477D01*
X0515199Y0260477D01*
X0515352Y0260473D01*
X0515505Y0260465D01*
X0515657Y0260453D01*
X0515810Y0260437D01*
X0515962Y0260417D01*
X0516113Y0260393D01*
X0516264Y0260365D01*
X0516414Y0260334D01*
X0516563Y0260298D01*
X0516711Y0260259D01*
X0516858Y0260216D01*
X0517003Y0260169D01*
X0517148Y0260118D01*
X0517291Y0260064D01*
X0517433Y0260006D01*
X0517573Y0259944D01*
X0517711Y0259878D01*
X0517848Y0259809D01*
X0517983Y0259737D01*
X0518116Y0259661D01*
X0518247Y0259581D01*
X0518376Y0259499D01*
X0518503Y0259412D01*
X0518627Y0259323D01*
X0518749Y0259230D01*
X0518869Y0259135D01*
X0518986Y0259036D01*
X0519100Y0258934D01*
X0519212Y0258829D01*
X0519321Y0258722D01*
X0519427Y0258611D01*
X0519530Y0258498D01*
X0519631Y0258382D01*
X0519728Y0258264D01*
X0519822Y0258143D01*
X0519913Y0258020D01*
X0520001Y0257895D01*
X0520085Y0257767D01*
X0520167Y0257637D01*
X0520244Y0257505D01*
X0520319Y0257371D01*
X0520389Y0257235D01*
X0520457Y0257097D01*
X0520520Y0256958D01*
X0520580Y0256817D01*
X0520637Y0256675D01*
X0520689Y0256531D01*
X0520738Y0256386D01*
X0520783Y0256239D01*
X0520824Y0256092D01*
X0520862Y0255943D01*
X0520895Y0255794D01*
X0520925Y0255643D01*
X0520951Y0255492D01*
X0520972Y0255341D01*
X0520990Y0255189D01*
X0521004Y0255036D01*
X0521014Y0254883D01*
X0521020Y0254730D01*
X0521022Y0254577D01*
X0521020Y0254424D01*
X0521014Y0254271D01*
X0521004Y0254118D01*
X0520990Y0253965D01*
X0520972Y0253813D01*
X0520951Y0253662D01*
X0520925Y0253511D01*
X0520895Y0253360D01*
X0520862Y0253211D01*
X0520824Y0253062D01*
X0520783Y0252915D01*
X0520738Y0252768D01*
X0520689Y0252623D01*
X0520637Y0252479D01*
X0520580Y0252337D01*
X0520520Y0252196D01*
X0520457Y0252057D01*
X0520389Y0251919D01*
X0520319Y0251783D01*
X0520244Y0251649D01*
X0520167Y0251517D01*
X0520085Y0251387D01*
X0520001Y0251259D01*
X0519913Y0251134D01*
X0519822Y0251011D01*
X0519728Y0250890D01*
X0519631Y0250772D01*
X0519530Y0250656D01*
X0519427Y0250543D01*
X0519321Y0250432D01*
X0519212Y0250325D01*
X0519100Y0250220D01*
X0518986Y0250118D01*
X0518869Y0250019D01*
X0518749Y0249924D01*
X0518627Y0249831D01*
X0518503Y0249742D01*
X0518376Y0249655D01*
X0518247Y0249573D01*
X0518116Y0249493D01*
X0517983Y0249417D01*
X0517848Y0249345D01*
X0517711Y0249276D01*
X0517573Y0249210D01*
X0517433Y0249148D01*
X0517291Y0249090D01*
X0517148Y0249036D01*
X0517003Y0248985D01*
X0516858Y0248938D01*
X0516711Y0248895D01*
X0516563Y0248856D01*
X0516414Y0248820D01*
X0516264Y0248789D01*
X0516113Y0248761D01*
X0515962Y0248737D01*
X0515810Y0248717D01*
X0515657Y0248701D01*
X0515505Y0248689D01*
X0515352Y0248681D01*
X0515199Y0248677D01*
X0515045Y0248677D01*
X0514892Y0248681D01*
X0514739Y0248689D01*
X0514587Y0248701D01*
X0514434Y0248717D01*
X0514282Y0248737D01*
X0514131Y0248761D01*
X0513980Y0248789D01*
X0513830Y0248820D01*
X0513681Y0248856D01*
X0513533Y0248895D01*
X0513386Y0248938D01*
X0513241Y0248985D01*
X0513096Y0249036D01*
X0512953Y0249090D01*
X0512811Y0249148D01*
X0512671Y0249210D01*
X0512533Y0249276D01*
X0512396Y0249345D01*
X0512261Y0249417D01*
X0512128Y0249493D01*
X0511997Y0249573D01*
X0511868Y0249655D01*
X0511741Y0249742D01*
X0511617Y0249831D01*
X0511495Y0249924D01*
X0511375Y0250019D01*
X0511258Y0250118D01*
X0511144Y0250220D01*
X0511032Y0250325D01*
X0510923Y0250432D01*
X0510817Y0250543D01*
X0510714Y0250656D01*
X0510613Y0250772D01*
X0510516Y0250890D01*
X0510422Y0251011D01*
X0510331Y0251134D01*
X0510243Y0251259D01*
X0510159Y0251387D01*
X0510077Y0251517D01*
X0510000Y0251649D01*
X0509925Y0251783D01*
X0509855Y0251919D01*
X0509787Y0252057D01*
X0509724Y0252196D01*
X0509664Y0252337D01*
X0509607Y0252479D01*
X0509555Y0252623D01*
X0509506Y0252768D01*
X0509461Y0252915D01*
X0509420Y0253062D01*
X0509382Y0253211D01*
X0509349Y0253360D01*
X0509319Y0253511D01*
X0509293Y0253662D01*
X0509272Y0253813D01*
X0509254Y0253965D01*
X0509240Y0254118D01*
X0509230Y0254271D01*
X0509224Y0254424D01*
X0509222Y0254577D01*
X0442022Y0254577D02*
X0442024Y0254730D01*
X0442030Y0254883D01*
X0442040Y0255036D01*
X0442054Y0255189D01*
X0442072Y0255341D01*
X0442093Y0255492D01*
X0442119Y0255643D01*
X0442149Y0255794D01*
X0442182Y0255943D01*
X0442220Y0256092D01*
X0442261Y0256239D01*
X0442306Y0256386D01*
X0442355Y0256531D01*
X0442407Y0256675D01*
X0442464Y0256817D01*
X0442524Y0256958D01*
X0442587Y0257097D01*
X0442655Y0257235D01*
X0442725Y0257371D01*
X0442800Y0257505D01*
X0442877Y0257637D01*
X0442959Y0257767D01*
X0443043Y0257895D01*
X0443131Y0258020D01*
X0443222Y0258143D01*
X0443316Y0258264D01*
X0443413Y0258382D01*
X0443514Y0258498D01*
X0443617Y0258611D01*
X0443723Y0258722D01*
X0443832Y0258829D01*
X0443944Y0258934D01*
X0444058Y0259036D01*
X0444175Y0259135D01*
X0444295Y0259230D01*
X0444417Y0259323D01*
X0444541Y0259412D01*
X0444668Y0259499D01*
X0444797Y0259581D01*
X0444928Y0259661D01*
X0445061Y0259737D01*
X0445196Y0259809D01*
X0445333Y0259878D01*
X0445471Y0259944D01*
X0445611Y0260006D01*
X0445753Y0260064D01*
X0445896Y0260118D01*
X0446041Y0260169D01*
X0446186Y0260216D01*
X0446333Y0260259D01*
X0446481Y0260298D01*
X0446630Y0260334D01*
X0446780Y0260365D01*
X0446931Y0260393D01*
X0447082Y0260417D01*
X0447234Y0260437D01*
X0447387Y0260453D01*
X0447539Y0260465D01*
X0447692Y0260473D01*
X0447845Y0260477D01*
X0447999Y0260477D01*
X0448152Y0260473D01*
X0448305Y0260465D01*
X0448457Y0260453D01*
X0448610Y0260437D01*
X0448762Y0260417D01*
X0448913Y0260393D01*
X0449064Y0260365D01*
X0449214Y0260334D01*
X0449363Y0260298D01*
X0449511Y0260259D01*
X0449658Y0260216D01*
X0449803Y0260169D01*
X0449948Y0260118D01*
X0450091Y0260064D01*
X0450233Y0260006D01*
X0450373Y0259944D01*
X0450511Y0259878D01*
X0450648Y0259809D01*
X0450783Y0259737D01*
X0450916Y0259661D01*
X0451047Y0259581D01*
X0451176Y0259499D01*
X0451303Y0259412D01*
X0451427Y0259323D01*
X0451549Y0259230D01*
X0451669Y0259135D01*
X0451786Y0259036D01*
X0451900Y0258934D01*
X0452012Y0258829D01*
X0452121Y0258722D01*
X0452227Y0258611D01*
X0452330Y0258498D01*
X0452431Y0258382D01*
X0452528Y0258264D01*
X0452622Y0258143D01*
X0452713Y0258020D01*
X0452801Y0257895D01*
X0452885Y0257767D01*
X0452967Y0257637D01*
X0453044Y0257505D01*
X0453119Y0257371D01*
X0453189Y0257235D01*
X0453257Y0257097D01*
X0453320Y0256958D01*
X0453380Y0256817D01*
X0453437Y0256675D01*
X0453489Y0256531D01*
X0453538Y0256386D01*
X0453583Y0256239D01*
X0453624Y0256092D01*
X0453662Y0255943D01*
X0453695Y0255794D01*
X0453725Y0255643D01*
X0453751Y0255492D01*
X0453772Y0255341D01*
X0453790Y0255189D01*
X0453804Y0255036D01*
X0453814Y0254883D01*
X0453820Y0254730D01*
X0453822Y0254577D01*
X0453820Y0254424D01*
X0453814Y0254271D01*
X0453804Y0254118D01*
X0453790Y0253965D01*
X0453772Y0253813D01*
X0453751Y0253662D01*
X0453725Y0253511D01*
X0453695Y0253360D01*
X0453662Y0253211D01*
X0453624Y0253062D01*
X0453583Y0252915D01*
X0453538Y0252768D01*
X0453489Y0252623D01*
X0453437Y0252479D01*
X0453380Y0252337D01*
X0453320Y0252196D01*
X0453257Y0252057D01*
X0453189Y0251919D01*
X0453119Y0251783D01*
X0453044Y0251649D01*
X0452967Y0251517D01*
X0452885Y0251387D01*
X0452801Y0251259D01*
X0452713Y0251134D01*
X0452622Y0251011D01*
X0452528Y0250890D01*
X0452431Y0250772D01*
X0452330Y0250656D01*
X0452227Y0250543D01*
X0452121Y0250432D01*
X0452012Y0250325D01*
X0451900Y0250220D01*
X0451786Y0250118D01*
X0451669Y0250019D01*
X0451549Y0249924D01*
X0451427Y0249831D01*
X0451303Y0249742D01*
X0451176Y0249655D01*
X0451047Y0249573D01*
X0450916Y0249493D01*
X0450783Y0249417D01*
X0450648Y0249345D01*
X0450511Y0249276D01*
X0450373Y0249210D01*
X0450233Y0249148D01*
X0450091Y0249090D01*
X0449948Y0249036D01*
X0449803Y0248985D01*
X0449658Y0248938D01*
X0449511Y0248895D01*
X0449363Y0248856D01*
X0449214Y0248820D01*
X0449064Y0248789D01*
X0448913Y0248761D01*
X0448762Y0248737D01*
X0448610Y0248717D01*
X0448457Y0248701D01*
X0448305Y0248689D01*
X0448152Y0248681D01*
X0447999Y0248677D01*
X0447845Y0248677D01*
X0447692Y0248681D01*
X0447539Y0248689D01*
X0447387Y0248701D01*
X0447234Y0248717D01*
X0447082Y0248737D01*
X0446931Y0248761D01*
X0446780Y0248789D01*
X0446630Y0248820D01*
X0446481Y0248856D01*
X0446333Y0248895D01*
X0446186Y0248938D01*
X0446041Y0248985D01*
X0445896Y0249036D01*
X0445753Y0249090D01*
X0445611Y0249148D01*
X0445471Y0249210D01*
X0445333Y0249276D01*
X0445196Y0249345D01*
X0445061Y0249417D01*
X0444928Y0249493D01*
X0444797Y0249573D01*
X0444668Y0249655D01*
X0444541Y0249742D01*
X0444417Y0249831D01*
X0444295Y0249924D01*
X0444175Y0250019D01*
X0444058Y0250118D01*
X0443944Y0250220D01*
X0443832Y0250325D01*
X0443723Y0250432D01*
X0443617Y0250543D01*
X0443514Y0250656D01*
X0443413Y0250772D01*
X0443316Y0250890D01*
X0443222Y0251011D01*
X0443131Y0251134D01*
X0443043Y0251259D01*
X0442959Y0251387D01*
X0442877Y0251517D01*
X0442800Y0251649D01*
X0442725Y0251783D01*
X0442655Y0251919D01*
X0442587Y0252057D01*
X0442524Y0252196D01*
X0442464Y0252337D01*
X0442407Y0252479D01*
X0442355Y0252623D01*
X0442306Y0252768D01*
X0442261Y0252915D01*
X0442220Y0253062D01*
X0442182Y0253211D01*
X0442149Y0253360D01*
X0442119Y0253511D01*
X0442093Y0253662D01*
X0442072Y0253813D01*
X0442054Y0253965D01*
X0442040Y0254118D01*
X0442030Y0254271D01*
X0442024Y0254424D01*
X0442022Y0254577D01*
X0337175Y0253396D02*
X0337177Y0253549D01*
X0337183Y0253702D01*
X0337193Y0253855D01*
X0337207Y0254008D01*
X0337225Y0254160D01*
X0337246Y0254311D01*
X0337272Y0254462D01*
X0337302Y0254613D01*
X0337335Y0254762D01*
X0337373Y0254911D01*
X0337414Y0255058D01*
X0337459Y0255205D01*
X0337508Y0255350D01*
X0337560Y0255494D01*
X0337617Y0255636D01*
X0337677Y0255777D01*
X0337740Y0255916D01*
X0337808Y0256054D01*
X0337878Y0256190D01*
X0337953Y0256324D01*
X0338030Y0256456D01*
X0338112Y0256586D01*
X0338196Y0256714D01*
X0338284Y0256839D01*
X0338375Y0256962D01*
X0338469Y0257083D01*
X0338566Y0257201D01*
X0338667Y0257317D01*
X0338770Y0257430D01*
X0338876Y0257541D01*
X0338985Y0257648D01*
X0339097Y0257753D01*
X0339211Y0257855D01*
X0339328Y0257954D01*
X0339448Y0258049D01*
X0339570Y0258142D01*
X0339694Y0258231D01*
X0339821Y0258318D01*
X0339950Y0258400D01*
X0340081Y0258480D01*
X0340214Y0258556D01*
X0340349Y0258628D01*
X0340486Y0258697D01*
X0340624Y0258763D01*
X0340764Y0258825D01*
X0340906Y0258883D01*
X0341049Y0258937D01*
X0341194Y0258988D01*
X0341339Y0259035D01*
X0341486Y0259078D01*
X0341634Y0259117D01*
X0341783Y0259153D01*
X0341933Y0259184D01*
X0342084Y0259212D01*
X0342235Y0259236D01*
X0342387Y0259256D01*
X0342540Y0259272D01*
X0342692Y0259284D01*
X0342845Y0259292D01*
X0342998Y0259296D01*
X0343152Y0259296D01*
X0343305Y0259292D01*
X0343458Y0259284D01*
X0343610Y0259272D01*
X0343763Y0259256D01*
X0343915Y0259236D01*
X0344066Y0259212D01*
X0344217Y0259184D01*
X0344367Y0259153D01*
X0344516Y0259117D01*
X0344664Y0259078D01*
X0344811Y0259035D01*
X0344956Y0258988D01*
X0345101Y0258937D01*
X0345244Y0258883D01*
X0345386Y0258825D01*
X0345526Y0258763D01*
X0345664Y0258697D01*
X0345801Y0258628D01*
X0345936Y0258556D01*
X0346069Y0258480D01*
X0346200Y0258400D01*
X0346329Y0258318D01*
X0346456Y0258231D01*
X0346580Y0258142D01*
X0346702Y0258049D01*
X0346822Y0257954D01*
X0346939Y0257855D01*
X0347053Y0257753D01*
X0347165Y0257648D01*
X0347274Y0257541D01*
X0347380Y0257430D01*
X0347483Y0257317D01*
X0347584Y0257201D01*
X0347681Y0257083D01*
X0347775Y0256962D01*
X0347866Y0256839D01*
X0347954Y0256714D01*
X0348038Y0256586D01*
X0348120Y0256456D01*
X0348197Y0256324D01*
X0348272Y0256190D01*
X0348342Y0256054D01*
X0348410Y0255916D01*
X0348473Y0255777D01*
X0348533Y0255636D01*
X0348590Y0255494D01*
X0348642Y0255350D01*
X0348691Y0255205D01*
X0348736Y0255058D01*
X0348777Y0254911D01*
X0348815Y0254762D01*
X0348848Y0254613D01*
X0348878Y0254462D01*
X0348904Y0254311D01*
X0348925Y0254160D01*
X0348943Y0254008D01*
X0348957Y0253855D01*
X0348967Y0253702D01*
X0348973Y0253549D01*
X0348975Y0253396D01*
X0348973Y0253243D01*
X0348967Y0253090D01*
X0348957Y0252937D01*
X0348943Y0252784D01*
X0348925Y0252632D01*
X0348904Y0252481D01*
X0348878Y0252330D01*
X0348848Y0252179D01*
X0348815Y0252030D01*
X0348777Y0251881D01*
X0348736Y0251734D01*
X0348691Y0251587D01*
X0348642Y0251442D01*
X0348590Y0251298D01*
X0348533Y0251156D01*
X0348473Y0251015D01*
X0348410Y0250876D01*
X0348342Y0250738D01*
X0348272Y0250602D01*
X0348197Y0250468D01*
X0348120Y0250336D01*
X0348038Y0250206D01*
X0347954Y0250078D01*
X0347866Y0249953D01*
X0347775Y0249830D01*
X0347681Y0249709D01*
X0347584Y0249591D01*
X0347483Y0249475D01*
X0347380Y0249362D01*
X0347274Y0249251D01*
X0347165Y0249144D01*
X0347053Y0249039D01*
X0346939Y0248937D01*
X0346822Y0248838D01*
X0346702Y0248743D01*
X0346580Y0248650D01*
X0346456Y0248561D01*
X0346329Y0248474D01*
X0346200Y0248392D01*
X0346069Y0248312D01*
X0345936Y0248236D01*
X0345801Y0248164D01*
X0345664Y0248095D01*
X0345526Y0248029D01*
X0345386Y0247967D01*
X0345244Y0247909D01*
X0345101Y0247855D01*
X0344956Y0247804D01*
X0344811Y0247757D01*
X0344664Y0247714D01*
X0344516Y0247675D01*
X0344367Y0247639D01*
X0344217Y0247608D01*
X0344066Y0247580D01*
X0343915Y0247556D01*
X0343763Y0247536D01*
X0343610Y0247520D01*
X0343458Y0247508D01*
X0343305Y0247500D01*
X0343152Y0247496D01*
X0342998Y0247496D01*
X0342845Y0247500D01*
X0342692Y0247508D01*
X0342540Y0247520D01*
X0342387Y0247536D01*
X0342235Y0247556D01*
X0342084Y0247580D01*
X0341933Y0247608D01*
X0341783Y0247639D01*
X0341634Y0247675D01*
X0341486Y0247714D01*
X0341339Y0247757D01*
X0341194Y0247804D01*
X0341049Y0247855D01*
X0340906Y0247909D01*
X0340764Y0247967D01*
X0340624Y0248029D01*
X0340486Y0248095D01*
X0340349Y0248164D01*
X0340214Y0248236D01*
X0340081Y0248312D01*
X0339950Y0248392D01*
X0339821Y0248474D01*
X0339694Y0248561D01*
X0339570Y0248650D01*
X0339448Y0248743D01*
X0339328Y0248838D01*
X0339211Y0248937D01*
X0339097Y0249039D01*
X0338985Y0249144D01*
X0338876Y0249251D01*
X0338770Y0249362D01*
X0338667Y0249475D01*
X0338566Y0249591D01*
X0338469Y0249709D01*
X0338375Y0249830D01*
X0338284Y0249953D01*
X0338196Y0250078D01*
X0338112Y0250206D01*
X0338030Y0250336D01*
X0337953Y0250468D01*
X0337878Y0250602D01*
X0337808Y0250738D01*
X0337740Y0250876D01*
X0337677Y0251015D01*
X0337617Y0251156D01*
X0337560Y0251298D01*
X0337508Y0251442D01*
X0337459Y0251587D01*
X0337414Y0251734D01*
X0337373Y0251881D01*
X0337335Y0252030D01*
X0337302Y0252179D01*
X0337272Y0252330D01*
X0337246Y0252481D01*
X0337225Y0252632D01*
X0337207Y0252784D01*
X0337193Y0252937D01*
X0337183Y0253090D01*
X0337177Y0253243D01*
X0337175Y0253396D01*
X0269975Y0253396D02*
X0269977Y0253549D01*
X0269983Y0253702D01*
X0269993Y0253855D01*
X0270007Y0254008D01*
X0270025Y0254160D01*
X0270046Y0254311D01*
X0270072Y0254462D01*
X0270102Y0254613D01*
X0270135Y0254762D01*
X0270173Y0254911D01*
X0270214Y0255058D01*
X0270259Y0255205D01*
X0270308Y0255350D01*
X0270360Y0255494D01*
X0270417Y0255636D01*
X0270477Y0255777D01*
X0270540Y0255916D01*
X0270608Y0256054D01*
X0270678Y0256190D01*
X0270753Y0256324D01*
X0270830Y0256456D01*
X0270912Y0256586D01*
X0270996Y0256714D01*
X0271084Y0256839D01*
X0271175Y0256962D01*
X0271269Y0257083D01*
X0271366Y0257201D01*
X0271467Y0257317D01*
X0271570Y0257430D01*
X0271676Y0257541D01*
X0271785Y0257648D01*
X0271897Y0257753D01*
X0272011Y0257855D01*
X0272128Y0257954D01*
X0272248Y0258049D01*
X0272370Y0258142D01*
X0272494Y0258231D01*
X0272621Y0258318D01*
X0272750Y0258400D01*
X0272881Y0258480D01*
X0273014Y0258556D01*
X0273149Y0258628D01*
X0273286Y0258697D01*
X0273424Y0258763D01*
X0273564Y0258825D01*
X0273706Y0258883D01*
X0273849Y0258937D01*
X0273994Y0258988D01*
X0274139Y0259035D01*
X0274286Y0259078D01*
X0274434Y0259117D01*
X0274583Y0259153D01*
X0274733Y0259184D01*
X0274884Y0259212D01*
X0275035Y0259236D01*
X0275187Y0259256D01*
X0275340Y0259272D01*
X0275492Y0259284D01*
X0275645Y0259292D01*
X0275798Y0259296D01*
X0275952Y0259296D01*
X0276105Y0259292D01*
X0276258Y0259284D01*
X0276410Y0259272D01*
X0276563Y0259256D01*
X0276715Y0259236D01*
X0276866Y0259212D01*
X0277017Y0259184D01*
X0277167Y0259153D01*
X0277316Y0259117D01*
X0277464Y0259078D01*
X0277611Y0259035D01*
X0277756Y0258988D01*
X0277901Y0258937D01*
X0278044Y0258883D01*
X0278186Y0258825D01*
X0278326Y0258763D01*
X0278464Y0258697D01*
X0278601Y0258628D01*
X0278736Y0258556D01*
X0278869Y0258480D01*
X0279000Y0258400D01*
X0279129Y0258318D01*
X0279256Y0258231D01*
X0279380Y0258142D01*
X0279502Y0258049D01*
X0279622Y0257954D01*
X0279739Y0257855D01*
X0279853Y0257753D01*
X0279965Y0257648D01*
X0280074Y0257541D01*
X0280180Y0257430D01*
X0280283Y0257317D01*
X0280384Y0257201D01*
X0280481Y0257083D01*
X0280575Y0256962D01*
X0280666Y0256839D01*
X0280754Y0256714D01*
X0280838Y0256586D01*
X0280920Y0256456D01*
X0280997Y0256324D01*
X0281072Y0256190D01*
X0281142Y0256054D01*
X0281210Y0255916D01*
X0281273Y0255777D01*
X0281333Y0255636D01*
X0281390Y0255494D01*
X0281442Y0255350D01*
X0281491Y0255205D01*
X0281536Y0255058D01*
X0281577Y0254911D01*
X0281615Y0254762D01*
X0281648Y0254613D01*
X0281678Y0254462D01*
X0281704Y0254311D01*
X0281725Y0254160D01*
X0281743Y0254008D01*
X0281757Y0253855D01*
X0281767Y0253702D01*
X0281773Y0253549D01*
X0281775Y0253396D01*
X0281773Y0253243D01*
X0281767Y0253090D01*
X0281757Y0252937D01*
X0281743Y0252784D01*
X0281725Y0252632D01*
X0281704Y0252481D01*
X0281678Y0252330D01*
X0281648Y0252179D01*
X0281615Y0252030D01*
X0281577Y0251881D01*
X0281536Y0251734D01*
X0281491Y0251587D01*
X0281442Y0251442D01*
X0281390Y0251298D01*
X0281333Y0251156D01*
X0281273Y0251015D01*
X0281210Y0250876D01*
X0281142Y0250738D01*
X0281072Y0250602D01*
X0280997Y0250468D01*
X0280920Y0250336D01*
X0280838Y0250206D01*
X0280754Y0250078D01*
X0280666Y0249953D01*
X0280575Y0249830D01*
X0280481Y0249709D01*
X0280384Y0249591D01*
X0280283Y0249475D01*
X0280180Y0249362D01*
X0280074Y0249251D01*
X0279965Y0249144D01*
X0279853Y0249039D01*
X0279739Y0248937D01*
X0279622Y0248838D01*
X0279502Y0248743D01*
X0279380Y0248650D01*
X0279256Y0248561D01*
X0279129Y0248474D01*
X0279000Y0248392D01*
X0278869Y0248312D01*
X0278736Y0248236D01*
X0278601Y0248164D01*
X0278464Y0248095D01*
X0278326Y0248029D01*
X0278186Y0247967D01*
X0278044Y0247909D01*
X0277901Y0247855D01*
X0277756Y0247804D01*
X0277611Y0247757D01*
X0277464Y0247714D01*
X0277316Y0247675D01*
X0277167Y0247639D01*
X0277017Y0247608D01*
X0276866Y0247580D01*
X0276715Y0247556D01*
X0276563Y0247536D01*
X0276410Y0247520D01*
X0276258Y0247508D01*
X0276105Y0247500D01*
X0275952Y0247496D01*
X0275798Y0247496D01*
X0275645Y0247500D01*
X0275492Y0247508D01*
X0275340Y0247520D01*
X0275187Y0247536D01*
X0275035Y0247556D01*
X0274884Y0247580D01*
X0274733Y0247608D01*
X0274583Y0247639D01*
X0274434Y0247675D01*
X0274286Y0247714D01*
X0274139Y0247757D01*
X0273994Y0247804D01*
X0273849Y0247855D01*
X0273706Y0247909D01*
X0273564Y0247967D01*
X0273424Y0248029D01*
X0273286Y0248095D01*
X0273149Y0248164D01*
X0273014Y0248236D01*
X0272881Y0248312D01*
X0272750Y0248392D01*
X0272621Y0248474D01*
X0272494Y0248561D01*
X0272370Y0248650D01*
X0272248Y0248743D01*
X0272128Y0248838D01*
X0272011Y0248937D01*
X0271897Y0249039D01*
X0271785Y0249144D01*
X0271676Y0249251D01*
X0271570Y0249362D01*
X0271467Y0249475D01*
X0271366Y0249591D01*
X0271269Y0249709D01*
X0271175Y0249830D01*
X0271084Y0249953D01*
X0270996Y0250078D01*
X0270912Y0250206D01*
X0270830Y0250336D01*
X0270753Y0250468D01*
X0270678Y0250602D01*
X0270608Y0250738D01*
X0270540Y0250876D01*
X0270477Y0251015D01*
X0270417Y0251156D01*
X0270360Y0251298D01*
X0270308Y0251442D01*
X0270259Y0251587D01*
X0270214Y0251734D01*
X0270173Y0251881D01*
X0270135Y0252030D01*
X0270102Y0252179D01*
X0270072Y0252330D01*
X0270046Y0252481D01*
X0270025Y0252632D01*
X0270007Y0252784D01*
X0269993Y0252937D01*
X0269983Y0253090D01*
X0269977Y0253243D01*
X0269975Y0253396D01*
X0204868Y0196323D02*
X0204870Y0196454D01*
X0204876Y0196586D01*
X0204886Y0196717D01*
X0204900Y0196848D01*
X0204918Y0196978D01*
X0204940Y0197107D01*
X0204965Y0197236D01*
X0204995Y0197364D01*
X0205029Y0197491D01*
X0205066Y0197618D01*
X0205107Y0197742D01*
X0205152Y0197866D01*
X0205201Y0197988D01*
X0205253Y0198109D01*
X0205309Y0198227D01*
X0205369Y0198345D01*
X0205432Y0198460D01*
X0205499Y0198573D01*
X0205569Y0198685D01*
X0205642Y0198794D01*
X0205718Y0198900D01*
X0205798Y0199005D01*
X0205881Y0199107D01*
X0205967Y0199206D01*
X0206056Y0199303D01*
X0206148Y0199397D01*
X0206243Y0199488D01*
X0206340Y0199577D01*
X0206440Y0199662D01*
X0206543Y0199744D01*
X0206648Y0199823D01*
X0206755Y0199899D01*
X0206865Y0199971D01*
X0206977Y0200040D01*
X0207091Y0200106D01*
X0207206Y0200168D01*
X0207324Y0200227D01*
X0207443Y0200282D01*
X0207564Y0200334D01*
X0207687Y0200381D01*
X0207811Y0200425D01*
X0207936Y0200466D01*
X0208062Y0200502D01*
X0208190Y0200535D01*
X0208318Y0200563D01*
X0208447Y0200588D01*
X0208577Y0200609D01*
X0208707Y0200626D01*
X0208838Y0200639D01*
X0208969Y0200648D01*
X0209100Y0200653D01*
X0209232Y0200654D01*
X0209363Y0200651D01*
X0209495Y0200644D01*
X0209626Y0200633D01*
X0209756Y0200618D01*
X0209886Y0200599D01*
X0210016Y0200576D01*
X0210144Y0200550D01*
X0210272Y0200519D01*
X0210399Y0200484D01*
X0210525Y0200446D01*
X0210649Y0200404D01*
X0210773Y0200358D01*
X0210894Y0200308D01*
X0211014Y0200255D01*
X0211133Y0200198D01*
X0211250Y0200138D01*
X0211364Y0200074D01*
X0211477Y0200006D01*
X0211588Y0199935D01*
X0211697Y0199861D01*
X0211803Y0199784D01*
X0211907Y0199703D01*
X0212008Y0199620D01*
X0212107Y0199533D01*
X0212203Y0199443D01*
X0212296Y0199350D01*
X0212387Y0199255D01*
X0212474Y0199157D01*
X0212559Y0199056D01*
X0212640Y0198953D01*
X0212718Y0198847D01*
X0212793Y0198739D01*
X0212865Y0198629D01*
X0212933Y0198517D01*
X0212998Y0198403D01*
X0213059Y0198286D01*
X0213117Y0198168D01*
X0213171Y0198048D01*
X0213222Y0197927D01*
X0213269Y0197804D01*
X0213312Y0197680D01*
X0213351Y0197555D01*
X0213387Y0197428D01*
X0213418Y0197300D01*
X0213446Y0197172D01*
X0213470Y0197043D01*
X0213490Y0196913D01*
X0213506Y0196782D01*
X0213518Y0196651D01*
X0213526Y0196520D01*
X0213530Y0196389D01*
X0213530Y0196257D01*
X0213526Y0196126D01*
X0213518Y0195995D01*
X0213506Y0195864D01*
X0213490Y0195733D01*
X0213470Y0195603D01*
X0213446Y0195474D01*
X0213418Y0195346D01*
X0213387Y0195218D01*
X0213351Y0195091D01*
X0213312Y0194966D01*
X0213269Y0194842D01*
X0213222Y0194719D01*
X0213171Y0194598D01*
X0213117Y0194478D01*
X0213059Y0194360D01*
X0212998Y0194243D01*
X0212933Y0194129D01*
X0212865Y0194017D01*
X0212793Y0193907D01*
X0212718Y0193799D01*
X0212640Y0193693D01*
X0212559Y0193590D01*
X0212474Y0193489D01*
X0212387Y0193391D01*
X0212296Y0193296D01*
X0212203Y0193203D01*
X0212107Y0193113D01*
X0212008Y0193026D01*
X0211907Y0192943D01*
X0211803Y0192862D01*
X0211697Y0192785D01*
X0211588Y0192711D01*
X0211477Y0192640D01*
X0211365Y0192572D01*
X0211250Y0192508D01*
X0211133Y0192448D01*
X0211014Y0192391D01*
X0210894Y0192338D01*
X0210773Y0192288D01*
X0210649Y0192242D01*
X0210525Y0192200D01*
X0210399Y0192162D01*
X0210272Y0192127D01*
X0210144Y0192096D01*
X0210016Y0192070D01*
X0209886Y0192047D01*
X0209756Y0192028D01*
X0209626Y0192013D01*
X0209495Y0192002D01*
X0209363Y0191995D01*
X0209232Y0191992D01*
X0209100Y0191993D01*
X0208969Y0191998D01*
X0208838Y0192007D01*
X0208707Y0192020D01*
X0208577Y0192037D01*
X0208447Y0192058D01*
X0208318Y0192083D01*
X0208190Y0192111D01*
X0208062Y0192144D01*
X0207936Y0192180D01*
X0207811Y0192221D01*
X0207687Y0192265D01*
X0207564Y0192312D01*
X0207443Y0192364D01*
X0207324Y0192419D01*
X0207206Y0192478D01*
X0207091Y0192540D01*
X0206977Y0192606D01*
X0206865Y0192675D01*
X0206755Y0192747D01*
X0206648Y0192823D01*
X0206543Y0192902D01*
X0206440Y0192984D01*
X0206340Y0193069D01*
X0206243Y0193158D01*
X0206148Y0193249D01*
X0206056Y0193343D01*
X0205967Y0193440D01*
X0205881Y0193539D01*
X0205798Y0193641D01*
X0205718Y0193746D01*
X0205642Y0193852D01*
X0205569Y0193961D01*
X0205499Y0194073D01*
X0205432Y0194186D01*
X0205369Y0194301D01*
X0205309Y0194419D01*
X0205253Y0194537D01*
X0205201Y0194658D01*
X0205152Y0194780D01*
X0205107Y0194904D01*
X0205066Y0195028D01*
X0205029Y0195155D01*
X0204995Y0195282D01*
X0204965Y0195410D01*
X0204940Y0195539D01*
X0204918Y0195668D01*
X0204900Y0195798D01*
X0204886Y0195929D01*
X0204876Y0196060D01*
X0204870Y0196192D01*
X0204868Y0196323D01*
X0204868Y0161677D02*
X0204870Y0161808D01*
X0204876Y0161940D01*
X0204886Y0162071D01*
X0204900Y0162202D01*
X0204918Y0162332D01*
X0204940Y0162461D01*
X0204965Y0162590D01*
X0204995Y0162718D01*
X0205029Y0162845D01*
X0205066Y0162972D01*
X0205107Y0163096D01*
X0205152Y0163220D01*
X0205201Y0163342D01*
X0205253Y0163463D01*
X0205309Y0163581D01*
X0205369Y0163699D01*
X0205432Y0163814D01*
X0205499Y0163927D01*
X0205569Y0164039D01*
X0205642Y0164148D01*
X0205718Y0164254D01*
X0205798Y0164359D01*
X0205881Y0164461D01*
X0205967Y0164560D01*
X0206056Y0164657D01*
X0206148Y0164751D01*
X0206243Y0164842D01*
X0206340Y0164931D01*
X0206440Y0165016D01*
X0206543Y0165098D01*
X0206648Y0165177D01*
X0206755Y0165253D01*
X0206865Y0165325D01*
X0206977Y0165394D01*
X0207091Y0165460D01*
X0207206Y0165522D01*
X0207324Y0165581D01*
X0207443Y0165636D01*
X0207564Y0165688D01*
X0207687Y0165735D01*
X0207811Y0165779D01*
X0207936Y0165820D01*
X0208062Y0165856D01*
X0208190Y0165889D01*
X0208318Y0165917D01*
X0208447Y0165942D01*
X0208577Y0165963D01*
X0208707Y0165980D01*
X0208838Y0165993D01*
X0208969Y0166002D01*
X0209100Y0166007D01*
X0209232Y0166008D01*
X0209363Y0166005D01*
X0209495Y0165998D01*
X0209626Y0165987D01*
X0209756Y0165972D01*
X0209886Y0165953D01*
X0210016Y0165930D01*
X0210144Y0165904D01*
X0210272Y0165873D01*
X0210399Y0165838D01*
X0210525Y0165800D01*
X0210649Y0165758D01*
X0210773Y0165712D01*
X0210894Y0165662D01*
X0211014Y0165609D01*
X0211133Y0165552D01*
X0211250Y0165492D01*
X0211364Y0165428D01*
X0211477Y0165360D01*
X0211588Y0165289D01*
X0211697Y0165215D01*
X0211803Y0165138D01*
X0211907Y0165057D01*
X0212008Y0164974D01*
X0212107Y0164887D01*
X0212203Y0164797D01*
X0212296Y0164704D01*
X0212387Y0164609D01*
X0212474Y0164511D01*
X0212559Y0164410D01*
X0212640Y0164307D01*
X0212718Y0164201D01*
X0212793Y0164093D01*
X0212865Y0163983D01*
X0212933Y0163871D01*
X0212998Y0163757D01*
X0213059Y0163640D01*
X0213117Y0163522D01*
X0213171Y0163402D01*
X0213222Y0163281D01*
X0213269Y0163158D01*
X0213312Y0163034D01*
X0213351Y0162909D01*
X0213387Y0162782D01*
X0213418Y0162654D01*
X0213446Y0162526D01*
X0213470Y0162397D01*
X0213490Y0162267D01*
X0213506Y0162136D01*
X0213518Y0162005D01*
X0213526Y0161874D01*
X0213530Y0161743D01*
X0213530Y0161611D01*
X0213526Y0161480D01*
X0213518Y0161349D01*
X0213506Y0161218D01*
X0213490Y0161087D01*
X0213470Y0160957D01*
X0213446Y0160828D01*
X0213418Y0160700D01*
X0213387Y0160572D01*
X0213351Y0160445D01*
X0213312Y0160320D01*
X0213269Y0160196D01*
X0213222Y0160073D01*
X0213171Y0159952D01*
X0213117Y0159832D01*
X0213059Y0159714D01*
X0212998Y0159597D01*
X0212933Y0159483D01*
X0212865Y0159371D01*
X0212793Y0159261D01*
X0212718Y0159153D01*
X0212640Y0159047D01*
X0212559Y0158944D01*
X0212474Y0158843D01*
X0212387Y0158745D01*
X0212296Y0158650D01*
X0212203Y0158557D01*
X0212107Y0158467D01*
X0212008Y0158380D01*
X0211907Y0158297D01*
X0211803Y0158216D01*
X0211697Y0158139D01*
X0211588Y0158065D01*
X0211477Y0157994D01*
X0211365Y0157926D01*
X0211250Y0157862D01*
X0211133Y0157802D01*
X0211014Y0157745D01*
X0210894Y0157692D01*
X0210773Y0157642D01*
X0210649Y0157596D01*
X0210525Y0157554D01*
X0210399Y0157516D01*
X0210272Y0157481D01*
X0210144Y0157450D01*
X0210016Y0157424D01*
X0209886Y0157401D01*
X0209756Y0157382D01*
X0209626Y0157367D01*
X0209495Y0157356D01*
X0209363Y0157349D01*
X0209232Y0157346D01*
X0209100Y0157347D01*
X0208969Y0157352D01*
X0208838Y0157361D01*
X0208707Y0157374D01*
X0208577Y0157391D01*
X0208447Y0157412D01*
X0208318Y0157437D01*
X0208190Y0157465D01*
X0208062Y0157498D01*
X0207936Y0157534D01*
X0207811Y0157575D01*
X0207687Y0157619D01*
X0207564Y0157666D01*
X0207443Y0157718D01*
X0207324Y0157773D01*
X0207206Y0157832D01*
X0207091Y0157894D01*
X0206977Y0157960D01*
X0206865Y0158029D01*
X0206755Y0158101D01*
X0206648Y0158177D01*
X0206543Y0158256D01*
X0206440Y0158338D01*
X0206340Y0158423D01*
X0206243Y0158512D01*
X0206148Y0158603D01*
X0206056Y0158697D01*
X0205967Y0158794D01*
X0205881Y0158893D01*
X0205798Y0158995D01*
X0205718Y0159100D01*
X0205642Y0159206D01*
X0205569Y0159315D01*
X0205499Y0159427D01*
X0205432Y0159540D01*
X0205369Y0159655D01*
X0205309Y0159773D01*
X0205253Y0159891D01*
X0205201Y0160012D01*
X0205152Y0160134D01*
X0205107Y0160258D01*
X0205066Y0160382D01*
X0205029Y0160509D01*
X0204995Y0160636D01*
X0204965Y0160764D01*
X0204940Y0160893D01*
X0204918Y0161022D01*
X0204900Y0161152D01*
X0204886Y0161283D01*
X0204876Y0161414D01*
X0204870Y0161546D01*
X0204868Y0161677D01*
D11*
X0406640Y0216126D03*
X0416640Y0216126D03*
X0523372Y0201047D03*
X0523372Y0191047D03*
X0542742Y0281165D03*
X0378766Y0283134D03*
X0344986Y0046835D03*
X0344986Y0036835D03*
D12*
X0319278Y0030890D03*
X0312585Y0030890D03*
X0301561Y0030850D03*
X0294868Y0030850D03*
X0283175Y0030850D03*
X0276482Y0030850D03*
X0281837Y0053291D03*
X0288530Y0053291D03*
X0271758Y0062780D03*
X0265065Y0062780D03*
X0333018Y0118449D03*
X0339711Y0118449D03*
X0419238Y0101362D03*
X0425931Y0101362D03*
X0503687Y0115535D03*
X0510380Y0115535D03*
X0563372Y0129079D03*
X0570065Y0129079D03*
X0571286Y0149669D03*
X0564593Y0149669D03*
X0529553Y0160220D03*
X0522860Y0160220D03*
X0522782Y0170220D03*
X0529475Y0170220D03*
X0419081Y0177346D03*
X0412388Y0177346D03*
X0478372Y0217386D03*
X0485065Y0217386D03*
X0501010Y0217386D03*
X0507703Y0217386D03*
X0507112Y0231953D03*
X0500419Y0231953D03*
X0361522Y0224197D03*
X0354829Y0224197D03*
X0317742Y0221717D03*
X0311049Y0221717D03*
X0311049Y0212661D03*
X0317742Y0212661D03*
X0262821Y0198882D03*
X0256128Y0198882D03*
X0252388Y0130575D03*
X0245695Y0130575D03*
X0507506Y0064748D03*
X0514199Y0064748D03*
X0533963Y0086402D03*
X0540656Y0086402D03*
D13*
X0531404Y0106323D03*
X0531404Y0113016D03*
X0484002Y0083685D03*
X0468215Y0083488D03*
X0468215Y0076795D03*
X0484002Y0076992D03*
X0451915Y0077189D03*
X0451915Y0083882D03*
X0418412Y0081638D03*
X0418412Y0088331D03*
X0340065Y0091126D03*
X0340065Y0084433D03*
X0324160Y0090575D03*
X0324160Y0097268D03*
X0305419Y0096520D03*
X0305419Y0089827D03*
X0324160Y0076874D03*
X0324160Y0070181D03*
X0324356Y0058094D03*
X0324356Y0051402D03*
X0261758Y0090772D03*
X0261758Y0097465D03*
X0249947Y0097465D03*
X0249947Y0090772D03*
X0273175Y0110299D03*
X0273175Y0116992D03*
X0248333Y0166126D03*
X0248333Y0172819D03*
X0361364Y0201244D03*
X0361364Y0207937D03*
X0372152Y0189472D03*
X0372152Y0182780D03*
X0386325Y0182504D03*
X0386325Y0189197D03*
X0480262Y0169118D03*
X0491286Y0169315D03*
X0491286Y0162622D03*
X0480262Y0162425D03*
X0512939Y0163803D03*
X0512939Y0170496D03*
D14*
X0496272Y0261677D03*
X0324225Y0260496D03*
X0430248Y0039551D03*
D15*
X0400748Y0039551D03*
X0466772Y0261677D03*
X0294725Y0260496D03*
D16*
X0252978Y0152031D03*
X0239396Y0151992D03*
X0239396Y0143724D03*
X0252978Y0143764D03*
X0254160Y0116795D03*
X0254160Y0108528D03*
X0258687Y0030693D03*
X0266955Y0030693D03*
X0560656Y0105969D03*
X0568923Y0105969D03*
X0554947Y0159512D03*
X0554947Y0167780D03*
X0552506Y0209906D03*
X0552506Y0218173D03*
X0568451Y0218764D03*
X0568451Y0210496D03*
D17*
X0567624Y0190220D03*
X0567624Y0180378D03*
X0567624Y0170535D03*
X0236758Y0169157D03*
X0236758Y0179000D03*
X0236758Y0188843D03*
D18*
X0264317Y0177150D03*
X0264317Y0167150D03*
X0540498Y0146441D03*
X0550498Y0146441D03*
D19*
X0519671Y0096087D03*
X0517703Y0096087D03*
X0515734Y0096087D03*
X0513766Y0096087D03*
X0511797Y0096087D03*
X0509829Y0096087D03*
X0507860Y0096087D03*
X0505892Y0096087D03*
X0505892Y0077268D03*
X0507860Y0077268D03*
X0509829Y0077268D03*
X0511797Y0077268D03*
X0513766Y0077268D03*
X0515734Y0077268D03*
X0517703Y0077268D03*
X0519671Y0077268D03*
X0297585Y0083370D03*
X0295616Y0083370D03*
X0293648Y0083370D03*
X0291679Y0083370D03*
X0289711Y0083370D03*
X0287742Y0083370D03*
X0285774Y0083370D03*
X0283805Y0083370D03*
X0283805Y0102189D03*
X0285774Y0102189D03*
X0287742Y0102189D03*
X0289711Y0102189D03*
X0291679Y0102189D03*
X0293648Y0102189D03*
X0295616Y0102189D03*
X0297585Y0102189D03*
D20*
X0249553Y0081559D03*
X0245813Y0072898D03*
X0253293Y0072898D03*
X0504160Y0141598D03*
X0511640Y0141598D03*
X0507900Y0150260D03*
D21*
X0545183Y0128843D03*
X0552663Y0128843D03*
X0548923Y0120575D03*
X0254278Y0183370D03*
X0246797Y0183370D03*
X0250538Y0191638D03*
D22*
X0296640Y0174846D03*
X0314789Y0141500D03*
X0440931Y0129492D03*
X0449199Y0170634D03*
D23*
X0450478Y0162465D03*
X0447919Y0162465D03*
X0445360Y0162465D03*
X0453038Y0162465D03*
X0444770Y0137661D03*
X0442211Y0137661D03*
X0439652Y0137661D03*
X0437093Y0137661D03*
X0318628Y0149669D03*
X0316069Y0149669D03*
X0313510Y0149669D03*
X0310951Y0149669D03*
X0300478Y0166677D03*
X0297919Y0166677D03*
X0295360Y0166677D03*
X0292801Y0166677D03*
D24*
X0403923Y0169453D03*
X0406482Y0169453D03*
X0409041Y0169453D03*
X0408923Y0160594D03*
X0403923Y0160594D03*
D25*
X0389199Y0224079D03*
X0380144Y0224079D03*
X0371089Y0224079D03*
D26*
X0380144Y0201677D03*
D27*
X0404868Y0192701D03*
X0416286Y0192701D03*
X0476207Y0232150D03*
X0487624Y0232150D03*
X0321679Y0232543D03*
X0310262Y0232543D03*
X0411561Y0056677D03*
X0422978Y0056677D03*
D28*
X0308471Y0038921D03*
X0306699Y0038921D03*
X0531738Y0097780D03*
X0533510Y0097780D03*
D29*
X0532624Y0095024D03*
X0307585Y0041677D03*
D30*
X0282506Y0216992D03*
X0445695Y0218764D03*
D31*
X0454671Y0193961D03*
X0436719Y0193961D03*
X0291482Y0192189D03*
X0273530Y0192189D03*
D32*
X0399632Y0283134D03*
X0563608Y0281165D03*
D33*
X0496272Y0261677D02*
X0487624Y0253030D01*
X0487624Y0232150D01*
X0481719Y0232076D02*
X0476807Y0232076D01*
X0476807Y0231550D02*
X0476807Y0232750D01*
X0475607Y0232750D01*
X0475607Y0236505D01*
X0473437Y0236505D01*
X0473030Y0236396D01*
X0472665Y0236186D01*
X0472367Y0235888D01*
X0472157Y0235523D01*
X0472048Y0235116D01*
X0472048Y0232750D01*
X0475607Y0232750D01*
X0475607Y0231550D01*
X0472048Y0231550D01*
X0472048Y0229183D01*
X0472157Y0228776D01*
X0472367Y0228411D01*
X0472665Y0228113D01*
X0473030Y0227903D01*
X0473437Y0227794D01*
X0475607Y0227794D01*
X0475607Y0231550D01*
X0476807Y0231550D01*
X0480366Y0231550D01*
X0480366Y0229183D01*
X0480257Y0228776D01*
X0480046Y0228411D01*
X0479748Y0228113D01*
X0479383Y0227903D01*
X0478977Y0227794D01*
X0476807Y0227794D01*
X0476807Y0231550D01*
X0476807Y0230878D02*
X0475607Y0230878D01*
X0475607Y0232076D02*
X0458548Y0232076D01*
X0458603Y0231980D02*
X0458393Y0232345D01*
X0458095Y0232643D01*
X0457730Y0232853D01*
X0457323Y0232962D01*
X0446295Y0232962D01*
X0446295Y0219364D01*
X0445095Y0219364D01*
X0445095Y0232962D01*
X0434067Y0232962D01*
X0433660Y0232853D01*
X0433295Y0232643D01*
X0432997Y0232345D01*
X0432787Y0231980D01*
X0432678Y0231573D01*
X0432678Y0219364D01*
X0445095Y0219364D01*
X0445095Y0218164D01*
X0432678Y0218164D01*
X0432678Y0205955D01*
X0432787Y0205548D01*
X0432997Y0205183D01*
X0433295Y0204885D01*
X0433660Y0204674D01*
X0434067Y0204565D01*
X0445095Y0204565D01*
X0445095Y0218164D01*
X0446295Y0218164D01*
X0446295Y0219364D01*
X0458712Y0219364D01*
X0458712Y0231573D01*
X0458603Y0231980D01*
X0458712Y0230878D02*
X0472048Y0230878D01*
X0472048Y0229679D02*
X0458712Y0229679D01*
X0458712Y0228480D02*
X0472327Y0228480D01*
X0475607Y0228480D02*
X0476807Y0228480D01*
X0476807Y0229679D02*
X0475607Y0229679D01*
X0476601Y0229984D02*
X0476601Y0224472D01*
X0451404Y0224472D01*
X0445695Y0218764D01*
X0447467Y0220535D01*
X0446295Y0220091D02*
X0445095Y0220091D01*
X0445095Y0221289D02*
X0446295Y0221289D01*
X0446295Y0222488D02*
X0445095Y0222488D01*
X0445095Y0223686D02*
X0446295Y0223686D01*
X0446295Y0224885D02*
X0445095Y0224885D01*
X0445095Y0226083D02*
X0446295Y0226083D01*
X0446295Y0227282D02*
X0445095Y0227282D01*
X0445095Y0228480D02*
X0446295Y0228480D01*
X0446295Y0229679D02*
X0445095Y0229679D01*
X0445095Y0230878D02*
X0446295Y0230878D01*
X0446295Y0232076D02*
X0445095Y0232076D01*
X0432842Y0232076D02*
X0421876Y0232076D01*
X0421876Y0230878D02*
X0432678Y0230878D01*
X0432678Y0229679D02*
X0421876Y0229679D01*
X0421876Y0228480D02*
X0432678Y0228480D01*
X0432678Y0227282D02*
X0421876Y0227282D01*
X0421876Y0226083D02*
X0432678Y0226083D01*
X0432678Y0224885D02*
X0421876Y0224885D01*
X0421876Y0223686D02*
X0432678Y0223686D01*
X0432678Y0222488D02*
X0421876Y0222488D01*
X0421876Y0221289D02*
X0432678Y0221289D01*
X0432678Y0220091D02*
X0421876Y0220091D01*
X0421876Y0218892D02*
X0445095Y0218892D01*
X0445095Y0217694D02*
X0446295Y0217694D01*
X0446295Y0218164D02*
X0446295Y0204565D01*
X0457323Y0204565D01*
X0457730Y0204674D01*
X0458095Y0204885D01*
X0458393Y0205183D01*
X0458603Y0205548D01*
X0458712Y0205955D01*
X0458712Y0218164D01*
X0446295Y0218164D01*
X0446295Y0218892D02*
X0474213Y0218892D01*
X0474213Y0217986D02*
X0474213Y0220549D01*
X0474322Y0220956D01*
X0474533Y0221321D01*
X0474831Y0221619D01*
X0475196Y0221830D01*
X0475602Y0221939D01*
X0477772Y0221939D01*
X0477772Y0217986D01*
X0478972Y0217986D01*
X0478972Y0221939D01*
X0481142Y0221939D01*
X0481549Y0221830D01*
X0481719Y0221731D01*
X0481719Y0238646D01*
X0482900Y0238646D01*
X0482900Y0248400D01*
X0482537Y0248763D01*
X0482537Y0274592D01*
X0482900Y0274954D01*
X0482900Y0287156D01*
X0422355Y0287156D01*
X0418726Y0283528D01*
X0418726Y0237858D01*
X0421876Y0234709D01*
X0421876Y0207543D01*
X0426175Y0203244D01*
X0437977Y0203244D01*
X0437986Y0203254D01*
X0437986Y0203254D01*
X0439158Y0204425D01*
X0468685Y0204425D01*
X0473419Y0209159D01*
X0474591Y0210331D01*
X0481719Y0210331D01*
X0481719Y0213040D01*
X0481549Y0212942D01*
X0481142Y0212833D01*
X0478972Y0212833D01*
X0478972Y0216786D01*
X0477772Y0216786D01*
X0474213Y0216786D01*
X0474213Y0214222D01*
X0474322Y0213815D01*
X0474533Y0213451D01*
X0474831Y0213153D01*
X0475196Y0212942D01*
X0475602Y0212833D01*
X0477772Y0212833D01*
X0477772Y0216786D01*
X0477772Y0217986D01*
X0474213Y0217986D01*
X0474213Y0216495D02*
X0458712Y0216495D01*
X0458712Y0215297D02*
X0474213Y0215297D01*
X0474246Y0214098D02*
X0458712Y0214098D01*
X0458712Y0212900D02*
X0475353Y0212900D01*
X0477772Y0212900D02*
X0478972Y0212900D01*
X0478972Y0214098D02*
X0477772Y0214098D01*
X0477772Y0215297D02*
X0478972Y0215297D01*
X0478972Y0216495D02*
X0477772Y0216495D01*
X0478372Y0217386D02*
X0478569Y0217583D01*
X0478569Y0222504D01*
X0476601Y0224472D01*
X0477772Y0221289D02*
X0478972Y0221289D01*
X0478972Y0220091D02*
X0477772Y0220091D01*
X0477772Y0218892D02*
X0478972Y0218892D01*
X0477772Y0217694D02*
X0458712Y0217694D01*
X0458712Y0220091D02*
X0474213Y0220091D01*
X0474515Y0221289D02*
X0458712Y0221289D01*
X0458712Y0222488D02*
X0481719Y0222488D01*
X0481719Y0223686D02*
X0458712Y0223686D01*
X0458712Y0224885D02*
X0481719Y0224885D01*
X0481719Y0226083D02*
X0458712Y0226083D01*
X0458712Y0227282D02*
X0481719Y0227282D01*
X0481719Y0228480D02*
X0480086Y0228480D01*
X0480366Y0229679D02*
X0481719Y0229679D01*
X0481719Y0230878D02*
X0480366Y0230878D01*
X0480366Y0232750D02*
X0476807Y0232750D01*
X0476807Y0236505D01*
X0478977Y0236505D01*
X0479383Y0236396D01*
X0479748Y0236186D01*
X0480046Y0235888D01*
X0480257Y0235523D01*
X0480366Y0235116D01*
X0480366Y0232750D01*
X0480366Y0233275D02*
X0481719Y0233275D01*
X0481719Y0234473D02*
X0480366Y0234473D01*
X0480171Y0235672D02*
X0481719Y0235672D01*
X0481719Y0236870D02*
X0419715Y0236870D01*
X0418726Y0238069D02*
X0481719Y0238069D01*
X0482900Y0239267D02*
X0418726Y0239267D01*
X0418726Y0240466D02*
X0482900Y0240466D01*
X0482900Y0241664D02*
X0418726Y0241664D01*
X0418726Y0242863D02*
X0482900Y0242863D01*
X0482900Y0244061D02*
X0418726Y0244061D01*
X0418726Y0245260D02*
X0443060Y0245260D01*
X0443869Y0244793D02*
X0446539Y0244077D01*
X0449304Y0244077D01*
X0451975Y0244793D01*
X0454369Y0246175D01*
X0456324Y0248130D01*
X0457706Y0250524D01*
X0457831Y0250989D01*
X0458461Y0250471D01*
X0459599Y0249711D01*
X0460807Y0249065D01*
X0462072Y0248541D01*
X0463382Y0248144D01*
X0464725Y0247877D01*
X0466087Y0247743D01*
X0466172Y0247743D01*
X0466172Y0261077D01*
X0467372Y0261077D01*
X0467372Y0262277D01*
X0480706Y0262277D01*
X0480706Y0262362D01*
X0480572Y0263724D01*
X0480305Y0265067D01*
X0479908Y0266377D01*
X0479384Y0267642D01*
X0478738Y0268850D01*
X0477978Y0269988D01*
X0477109Y0271046D01*
X0476141Y0272015D01*
X0475083Y0272883D01*
X0473944Y0273644D01*
X0472737Y0274289D01*
X0471472Y0274813D01*
X0470162Y0275210D01*
X0468819Y0275478D01*
X0467456Y0275612D01*
X0467372Y0275612D01*
X0467372Y0262277D01*
X0466172Y0262277D01*
X0466172Y0275612D01*
X0466087Y0275612D01*
X0464725Y0275478D01*
X0463382Y0275210D01*
X0462072Y0274813D01*
X0460807Y0274289D01*
X0459599Y0273644D01*
X0458461Y0272883D01*
X0457403Y0272015D01*
X0456434Y0271046D01*
X0455566Y0269988D01*
X0454805Y0268850D01*
X0454160Y0267642D01*
X0453636Y0266377D01*
X0453238Y0265067D01*
X0452982Y0263780D01*
X0451975Y0264362D01*
X0449304Y0265077D01*
X0446539Y0265077D01*
X0443869Y0264362D01*
X0441475Y0262979D01*
X0439520Y0261024D01*
X0438137Y0258630D01*
X0437422Y0255960D01*
X0437422Y0253195D01*
X0438137Y0250524D01*
X0439520Y0248130D01*
X0441475Y0246175D01*
X0443869Y0244793D01*
X0441192Y0246458D02*
X0418726Y0246458D01*
X0418726Y0247657D02*
X0439993Y0247657D01*
X0439101Y0248855D02*
X0418726Y0248855D01*
X0418726Y0250054D02*
X0438409Y0250054D01*
X0437942Y0251252D02*
X0418726Y0251252D01*
X0418726Y0252451D02*
X0437621Y0252451D01*
X0437422Y0253649D02*
X0418726Y0253649D01*
X0418726Y0254848D02*
X0437422Y0254848D01*
X0437445Y0256046D02*
X0418726Y0256046D01*
X0418726Y0257245D02*
X0437766Y0257245D01*
X0438087Y0258443D02*
X0418726Y0258443D01*
X0418726Y0259642D02*
X0438721Y0259642D01*
X0439413Y0260840D02*
X0418726Y0260840D01*
X0418726Y0262039D02*
X0440534Y0262039D01*
X0441922Y0263237D02*
X0418726Y0263237D01*
X0418726Y0264436D02*
X0444146Y0264436D01*
X0451698Y0264436D02*
X0453113Y0264436D01*
X0453411Y0265634D02*
X0418726Y0265634D01*
X0418726Y0266833D02*
X0453825Y0266833D01*
X0454368Y0268031D02*
X0418726Y0268031D01*
X0418726Y0269230D02*
X0455059Y0269230D01*
X0455927Y0270428D02*
X0418726Y0270428D01*
X0418726Y0271627D02*
X0457015Y0271627D01*
X0458391Y0272825D02*
X0418726Y0272825D01*
X0418726Y0274024D02*
X0460311Y0274024D01*
X0463442Y0275222D02*
X0418726Y0275222D01*
X0418726Y0276421D02*
X0482900Y0276421D01*
X0482900Y0277619D02*
X0418726Y0277619D01*
X0418726Y0278818D02*
X0482900Y0278818D01*
X0482900Y0280016D02*
X0418726Y0280016D01*
X0418726Y0281215D02*
X0482900Y0281215D01*
X0482900Y0282414D02*
X0418726Y0282414D01*
X0418811Y0283612D02*
X0482900Y0283612D01*
X0482900Y0284811D02*
X0420009Y0284811D01*
X0421208Y0286009D02*
X0482900Y0286009D01*
X0482900Y0275222D02*
X0470102Y0275222D01*
X0467372Y0275222D02*
X0466172Y0275222D01*
X0466172Y0274024D02*
X0467372Y0274024D01*
X0467372Y0272825D02*
X0466172Y0272825D01*
X0466172Y0271627D02*
X0467372Y0271627D01*
X0467372Y0270428D02*
X0466172Y0270428D01*
X0466172Y0269230D02*
X0467372Y0269230D01*
X0467372Y0268031D02*
X0466172Y0268031D01*
X0466172Y0266833D02*
X0467372Y0266833D01*
X0467372Y0265634D02*
X0466172Y0265634D01*
X0466172Y0264436D02*
X0467372Y0264436D01*
X0467372Y0263237D02*
X0466172Y0263237D01*
X0466772Y0261677D02*
X0476207Y0252242D01*
X0476207Y0232150D01*
X0478372Y0229984D01*
X0476601Y0229984D01*
X0476807Y0233275D02*
X0475607Y0233275D01*
X0475607Y0234473D02*
X0476807Y0234473D01*
X0476807Y0235672D02*
X0475607Y0235672D01*
X0472243Y0235672D02*
X0420913Y0235672D01*
X0421876Y0234473D02*
X0472048Y0234473D01*
X0472048Y0233275D02*
X0421876Y0233275D01*
X0452783Y0245260D02*
X0482900Y0245260D01*
X0482900Y0246458D02*
X0454652Y0246458D01*
X0455851Y0247657D02*
X0482900Y0247657D01*
X0482537Y0248855D02*
X0472230Y0248855D01*
X0472737Y0249065D02*
X0473944Y0249711D01*
X0475083Y0250471D01*
X0476141Y0251340D01*
X0477109Y0252308D01*
X0477978Y0253366D01*
X0478738Y0254505D01*
X0479384Y0255712D01*
X0479908Y0256977D01*
X0480305Y0258287D01*
X0480572Y0259630D01*
X0480706Y0260993D01*
X0480706Y0261077D01*
X0467372Y0261077D01*
X0467372Y0247743D01*
X0467456Y0247743D01*
X0468819Y0247877D01*
X0470162Y0248144D01*
X0471472Y0248541D01*
X0472737Y0249065D01*
X0474458Y0250054D02*
X0482537Y0250054D01*
X0482537Y0251252D02*
X0476034Y0251252D01*
X0477226Y0252451D02*
X0482537Y0252451D01*
X0482537Y0253649D02*
X0478167Y0253649D01*
X0478922Y0254848D02*
X0482537Y0254848D01*
X0482537Y0256046D02*
X0479522Y0256046D01*
X0479989Y0257245D02*
X0482537Y0257245D01*
X0482537Y0258443D02*
X0480336Y0258443D01*
X0480573Y0259642D02*
X0482537Y0259642D01*
X0482537Y0260840D02*
X0480691Y0260840D01*
X0482537Y0262039D02*
X0467372Y0262039D01*
X0467372Y0260840D02*
X0466172Y0260840D01*
X0466172Y0259642D02*
X0467372Y0259642D01*
X0467372Y0258443D02*
X0466172Y0258443D01*
X0466172Y0257245D02*
X0467372Y0257245D01*
X0467372Y0256046D02*
X0466172Y0256046D01*
X0466172Y0254848D02*
X0467372Y0254848D01*
X0467372Y0253649D02*
X0466172Y0253649D01*
X0466172Y0252451D02*
X0467372Y0252451D01*
X0467372Y0251252D02*
X0466172Y0251252D01*
X0466172Y0250054D02*
X0467372Y0250054D01*
X0467372Y0248855D02*
X0466172Y0248855D01*
X0461314Y0248855D02*
X0456743Y0248855D01*
X0457434Y0250054D02*
X0459086Y0250054D01*
X0480620Y0263237D02*
X0482537Y0263237D01*
X0482537Y0264436D02*
X0480431Y0264436D01*
X0480133Y0265634D02*
X0482537Y0265634D01*
X0482537Y0266833D02*
X0479719Y0266833D01*
X0479176Y0268031D02*
X0482537Y0268031D01*
X0482537Y0269230D02*
X0478484Y0269230D01*
X0477616Y0270428D02*
X0482537Y0270428D01*
X0482537Y0271627D02*
X0476529Y0271627D01*
X0475153Y0272825D02*
X0482537Y0272825D01*
X0482537Y0274024D02*
X0473233Y0274024D01*
X0501010Y0241008D02*
X0500419Y0240417D01*
X0500419Y0231953D01*
X0499041Y0231953D01*
X0489593Y0222504D01*
X0489593Y0221913D01*
X0485065Y0217386D01*
X0481719Y0212900D02*
X0481391Y0212900D01*
X0481719Y0211701D02*
X0458712Y0211701D01*
X0458712Y0210503D02*
X0481719Y0210503D01*
X0475419Y0208331D02*
X0491955Y0208331D01*
X0501010Y0217386D01*
X0501010Y0221717D01*
X0506128Y0226835D01*
X0506128Y0230969D01*
X0507112Y0231953D01*
X0507703Y0217386D02*
X0507703Y0210378D01*
X0514041Y0210378D01*
X0523372Y0201047D01*
X0521325Y0195991D02*
X0531887Y0195991D01*
X0549564Y0213668D01*
X0556111Y0213668D01*
X0559282Y0210496D01*
X0568451Y0210496D01*
X0573451Y0213055D02*
X0573451Y0196047D01*
X0567624Y0190220D01*
X0574363Y0183482D01*
X0574363Y0168691D01*
X0571286Y0165614D01*
X0571286Y0149669D01*
X0571482Y0149472D01*
X0571482Y0142976D01*
X0570065Y0141559D01*
X0570065Y0129079D01*
X0570065Y0120772D01*
X0573845Y0116992D01*
X0573845Y0100850D01*
X0564789Y0091795D01*
X0545498Y0091795D01*
X0543923Y0093370D01*
X0542349Y0093370D01*
X0540774Y0091795D01*
X0540774Y0086520D01*
X0540656Y0086402D01*
X0540380Y0086126D01*
X0540380Y0081165D01*
X0536482Y0077268D01*
X0519671Y0077268D01*
X0515734Y0077268D02*
X0515577Y0077110D01*
X0515577Y0072898D01*
X0514199Y0071520D01*
X0514199Y0064748D01*
X0507506Y0064748D02*
X0507388Y0064630D01*
X0499435Y0064630D01*
X0491561Y0072504D01*
X0491561Y0087858D01*
X0498254Y0088252D02*
X0504947Y0088252D01*
X0511640Y0081559D01*
X0511640Y0077425D01*
X0511797Y0077268D01*
X0513608Y0077425D02*
X0513766Y0077268D01*
X0513608Y0077425D02*
X0513608Y0085102D01*
X0511246Y0087465D01*
X0512427Y0092189D02*
X0512034Y0092583D01*
X0512034Y0095850D01*
X0511797Y0096087D01*
X0509829Y0096087D02*
X0509829Y0105339D01*
X0517152Y0112661D01*
X0517152Y0124866D01*
X0504160Y0137858D01*
X0504160Y0141598D01*
X0498254Y0147504D01*
X0498254Y0150850D01*
X0491286Y0157819D01*
X0491286Y0162622D01*
X0495431Y0165968D02*
X0495638Y0166176D01*
X0495638Y0167453D01*
X0496717Y0168532D01*
X0497706Y0168532D01*
X0498877Y0169017D01*
X0499772Y0169913D01*
X0500257Y0171083D01*
X0500257Y0172350D01*
X0499772Y0173520D01*
X0498877Y0174416D01*
X0497706Y0174901D01*
X0496440Y0174901D01*
X0495269Y0174416D01*
X0494373Y0173520D01*
X0494271Y0173274D01*
X0487753Y0173274D01*
X0486933Y0172454D01*
X0486933Y0171118D01*
X0484615Y0171118D01*
X0484615Y0172257D01*
X0483795Y0173077D01*
X0476729Y0173077D01*
X0475909Y0172257D01*
X0475909Y0171118D01*
X0472390Y0171118D01*
X0456671Y0186836D01*
X0456671Y0188230D01*
X0457613Y0188230D01*
X0458434Y0189050D01*
X0458434Y0198871D01*
X0457613Y0199691D01*
X0451729Y0199691D01*
X0450909Y0198871D01*
X0450909Y0189050D01*
X0451729Y0188230D01*
X0452671Y0188230D01*
X0452671Y0186836D01*
X0448607Y0182772D01*
X0447435Y0181600D01*
X0447435Y0176266D01*
X0443954Y0176266D01*
X0443134Y0175446D01*
X0443134Y0165822D01*
X0443833Y0165122D01*
X0443134Y0164422D01*
X0443134Y0163843D01*
X0429356Y0163843D01*
X0423451Y0169748D01*
X0423451Y0189433D01*
X0421089Y0191795D01*
X0421089Y0199276D01*
X0423057Y0201244D01*
X0435977Y0201244D01*
X0434719Y0199986D01*
X0434719Y0199691D01*
X0433777Y0199691D01*
X0432956Y0198871D01*
X0432956Y0189050D01*
X0433777Y0188230D01*
X0439661Y0188230D01*
X0440481Y0189050D01*
X0440481Y0198871D01*
X0439871Y0199481D01*
X0440815Y0200425D01*
X0470342Y0200425D01*
X0471514Y0201597D01*
X0471555Y0201638D01*
X0498254Y0201638D01*
X0501404Y0198488D01*
X0501404Y0170142D01*
X0497073Y0165811D01*
X0495588Y0165811D01*
X0495431Y0165968D01*
X0495620Y0166158D02*
X0497420Y0166158D01*
X0498618Y0167356D02*
X0495638Y0167356D01*
X0494671Y0169315D02*
X0497073Y0171717D01*
X0498559Y0174547D02*
X0501404Y0174547D01*
X0501404Y0173349D02*
X0499843Y0173349D01*
X0500257Y0172150D02*
X0501404Y0172150D01*
X0501404Y0170952D02*
X0500203Y0170952D01*
X0499613Y0169753D02*
X0501015Y0169753D01*
X0499817Y0168555D02*
X0497761Y0168555D01*
X0494671Y0169315D02*
X0491286Y0169315D01*
X0491089Y0169118D01*
X0480262Y0169118D01*
X0471561Y0169118D01*
X0454671Y0186008D01*
X0449435Y0180772D01*
X0449435Y0170870D01*
X0449199Y0170634D01*
X0451435Y0176266D02*
X0451435Y0179943D01*
X0454671Y0183179D01*
X0470733Y0167118D01*
X0475909Y0167118D01*
X0475909Y0165979D01*
X0476077Y0165811D01*
X0460065Y0165811D01*
X0458719Y0164465D01*
X0455222Y0164465D01*
X0454565Y0165122D01*
X0455264Y0165822D01*
X0455264Y0175446D01*
X0454444Y0176266D01*
X0451435Y0176266D01*
X0451435Y0176945D02*
X0460906Y0176945D01*
X0459708Y0178143D02*
X0451435Y0178143D01*
X0451435Y0179342D02*
X0458509Y0179342D01*
X0457311Y0180540D02*
X0452032Y0180540D01*
X0453230Y0181739D02*
X0456112Y0181739D01*
X0454914Y0182937D02*
X0454429Y0182937D01*
X0454671Y0186008D02*
X0454671Y0193961D01*
X0450909Y0193724D02*
X0440481Y0193724D01*
X0440481Y0194922D02*
X0450909Y0194922D01*
X0450909Y0196121D02*
X0440481Y0196121D01*
X0440481Y0197319D02*
X0450909Y0197319D01*
X0450909Y0198518D02*
X0440481Y0198518D01*
X0440106Y0199716D02*
X0500176Y0199716D01*
X0501374Y0198518D02*
X0458434Y0198518D01*
X0458434Y0197319D02*
X0501404Y0197319D01*
X0501404Y0196121D02*
X0458434Y0196121D01*
X0458434Y0194922D02*
X0501404Y0194922D01*
X0501404Y0193724D02*
X0458434Y0193724D01*
X0458434Y0192525D02*
X0501404Y0192525D01*
X0501404Y0191327D02*
X0458434Y0191327D01*
X0458434Y0190128D02*
X0501404Y0190128D01*
X0501404Y0188930D02*
X0458313Y0188930D01*
X0456671Y0187731D02*
X0501404Y0187731D01*
X0501404Y0186533D02*
X0456975Y0186533D01*
X0458174Y0185334D02*
X0501404Y0185334D01*
X0501404Y0184136D02*
X0459372Y0184136D01*
X0460571Y0182937D02*
X0501404Y0182937D01*
X0501404Y0181739D02*
X0461769Y0181739D01*
X0462968Y0180540D02*
X0501404Y0180540D01*
X0501404Y0179342D02*
X0464166Y0179342D01*
X0465365Y0178143D02*
X0501404Y0178143D01*
X0501404Y0176945D02*
X0466563Y0176945D01*
X0467762Y0175746D02*
X0501404Y0175746D01*
X0495587Y0174547D02*
X0468960Y0174547D01*
X0470159Y0173349D02*
X0494303Y0173349D01*
X0486933Y0172150D02*
X0484615Y0172150D01*
X0475909Y0172150D02*
X0471357Y0172150D01*
X0468097Y0169753D02*
X0455264Y0169753D01*
X0455264Y0168555D02*
X0469296Y0168555D01*
X0470494Y0167356D02*
X0455264Y0167356D01*
X0455264Y0166158D02*
X0475909Y0166158D01*
X0479750Y0161913D02*
X0480262Y0162425D01*
X0479750Y0161913D02*
X0479750Y0154000D01*
X0481325Y0152425D01*
X0481325Y0126441D01*
X0502191Y0105575D01*
X0502191Y0101638D01*
X0497467Y0101438D02*
X0489944Y0101438D01*
X0489930Y0101473D02*
X0489034Y0102369D01*
X0488068Y0102769D01*
X0455341Y0135496D01*
X0454232Y0135496D01*
X0452626Y0137102D01*
X0449394Y0137102D01*
X0449294Y0137002D01*
X0447197Y0137002D01*
X0447197Y0137661D01*
X0444770Y0137661D01*
X0444770Y0137661D01*
X0447197Y0137661D01*
X0447197Y0139250D01*
X0447088Y0139657D01*
X0446877Y0140022D01*
X0446579Y0140320D01*
X0446214Y0140530D01*
X0445807Y0140639D01*
X0444770Y0140639D01*
X0444770Y0137662D01*
X0444770Y0137662D01*
X0444770Y0140639D01*
X0443732Y0140639D01*
X0443490Y0140574D01*
X0443248Y0140639D01*
X0442211Y0140639D01*
X0442211Y0137662D01*
X0442211Y0137662D01*
X0442211Y0137661D02*
X0442343Y0137661D01*
X0444770Y0137661D01*
X0442211Y0137661D01*
X0442211Y0137661D01*
X0444770Y0137661D01*
X0445360Y0138252D01*
X0456915Y0138252D01*
X0493923Y0101244D01*
X0496057Y0103835D02*
X0487001Y0103835D01*
X0485803Y0105034D02*
X0494858Y0105034D01*
X0493659Y0106232D02*
X0484604Y0106232D01*
X0483406Y0107431D02*
X0492461Y0107431D01*
X0491262Y0108629D02*
X0482207Y0108629D01*
X0481009Y0109828D02*
X0490064Y0109828D01*
X0488865Y0111026D02*
X0479810Y0111026D01*
X0478612Y0112225D02*
X0487667Y0112225D01*
X0486468Y0113423D02*
X0477413Y0113423D01*
X0476215Y0114622D02*
X0485270Y0114622D01*
X0484071Y0115820D02*
X0475016Y0115820D01*
X0473818Y0117019D02*
X0482873Y0117019D01*
X0481674Y0118217D02*
X0472619Y0118217D01*
X0471421Y0119416D02*
X0480476Y0119416D01*
X0479277Y0120614D02*
X0470222Y0120614D01*
X0469024Y0121813D02*
X0478079Y0121813D01*
X0477761Y0122131D02*
X0497467Y0102425D01*
X0497467Y0099669D01*
X0495884Y0098087D01*
X0491569Y0098087D01*
X0490415Y0099241D01*
X0490415Y0100303D01*
X0489930Y0101473D01*
X0490415Y0100240D02*
X0497467Y0100240D01*
X0496839Y0099041D02*
X0490614Y0099041D01*
X0487230Y0099669D02*
X0451797Y0135102D01*
X0450223Y0135102D01*
X0449294Y0133202D02*
X0447197Y0133202D01*
X0447197Y0130092D01*
X0441531Y0130092D01*
X0441531Y0128892D01*
X0441531Y0123660D01*
X0445807Y0123660D01*
X0446214Y0123769D01*
X0446579Y0123980D01*
X0446877Y0124277D01*
X0447088Y0124642D01*
X0447197Y0125049D01*
X0447197Y0128892D01*
X0441531Y0128892D01*
X0440331Y0128892D01*
X0434666Y0128892D01*
X0434666Y0125049D01*
X0434775Y0124642D01*
X0434986Y0124277D01*
X0435283Y0123980D01*
X0435648Y0123769D01*
X0436055Y0123660D01*
X0440331Y0123660D01*
X0440331Y0128892D01*
X0440331Y0130092D01*
X0434666Y0130092D01*
X0434666Y0133935D01*
X0434775Y0134342D01*
X0434986Y0134707D01*
X0435193Y0134914D01*
X0435193Y0135102D01*
X0421482Y0135102D01*
X0421089Y0134709D01*
X0421089Y0132025D01*
X0425451Y0127663D01*
X0425451Y0101962D01*
X0426531Y0101962D01*
X0426531Y0105915D01*
X0428701Y0105915D01*
X0429108Y0105806D01*
X0429473Y0105595D01*
X0429771Y0105297D01*
X0429981Y0104933D01*
X0430090Y0104526D01*
X0430090Y0101962D01*
X0426531Y0101962D01*
X0426531Y0100762D01*
X0426531Y0096809D01*
X0428701Y0096809D01*
X0429108Y0096918D01*
X0429473Y0097129D01*
X0429771Y0097427D01*
X0429981Y0097792D01*
X0430090Y0098199D01*
X0430090Y0100762D01*
X0426531Y0100762D01*
X0425451Y0100762D01*
X0425451Y0096126D01*
X0430144Y0096126D01*
X0438412Y0087858D01*
X0469756Y0087858D01*
X0476087Y0094189D01*
X0482465Y0094189D01*
X0484081Y0095805D01*
X0484081Y0098952D01*
X0484046Y0099036D01*
X0484046Y0100025D01*
X0450969Y0133102D01*
X0449394Y0133102D01*
X0449294Y0133202D01*
X0447197Y0132600D02*
X0451472Y0132600D01*
X0452670Y0131401D02*
X0447197Y0131401D01*
X0447197Y0130203D02*
X0453869Y0130203D01*
X0455067Y0129004D02*
X0441531Y0129004D01*
X0440931Y0129492D02*
X0440931Y0116362D01*
X0440931Y0115260D01*
X0464002Y0092189D01*
X0470153Y0088255D02*
X0438015Y0088255D01*
X0436817Y0089453D02*
X0471351Y0089453D01*
X0472550Y0090652D02*
X0435618Y0090652D01*
X0434420Y0091850D02*
X0473748Y0091850D01*
X0474947Y0093049D02*
X0433221Y0093049D01*
X0432023Y0094247D02*
X0482523Y0094247D01*
X0483722Y0095446D02*
X0430824Y0095446D01*
X0429995Y0097843D02*
X0484081Y0097843D01*
X0484081Y0096644D02*
X0425451Y0096644D01*
X0425451Y0097843D02*
X0426531Y0097843D01*
X0426531Y0099041D02*
X0425451Y0099041D01*
X0425451Y0100240D02*
X0426531Y0100240D01*
X0426531Y0101438D02*
X0482633Y0101438D01*
X0483831Y0100240D02*
X0430090Y0100240D01*
X0430090Y0099041D02*
X0484046Y0099041D01*
X0487191Y0096087D02*
X0483293Y0092189D01*
X0482506Y0092189D01*
X0484002Y0090693D01*
X0484002Y0083685D01*
X0482506Y0092189D02*
X0476915Y0092189D01*
X0468215Y0083488D01*
X0467821Y0077189D02*
X0468215Y0076795D01*
X0467821Y0077189D02*
X0451915Y0077189D01*
X0451915Y0083882D02*
X0436482Y0083882D01*
X0435852Y0084512D01*
X0432112Y0088252D01*
X0423845Y0088252D01*
X0402978Y0067386D01*
X0364908Y0067386D01*
X0343036Y0076270D02*
X0413215Y0076270D01*
X0413215Y0077468D02*
X0343171Y0077468D01*
X0343171Y0077862D02*
X0342686Y0079032D01*
X0342065Y0079653D01*
X0342065Y0080474D01*
X0343598Y0080474D01*
X0344418Y0081294D01*
X0344418Y0087572D01*
X0344337Y0087652D01*
X0344509Y0087949D01*
X0344618Y0088356D01*
X0344618Y0090526D01*
X0340665Y0090526D01*
X0340665Y0091726D01*
X0339465Y0091726D01*
X0339465Y0090526D01*
X0335512Y0090526D01*
X0335512Y0088356D01*
X0335621Y0087949D01*
X0335793Y0087652D01*
X0335712Y0087572D01*
X0335712Y0081294D01*
X0336532Y0080474D01*
X0338065Y0080474D01*
X0338065Y0079810D01*
X0337287Y0079032D01*
X0336802Y0077862D01*
X0336802Y0076595D01*
X0337287Y0075425D01*
X0338183Y0074529D01*
X0339353Y0074044D01*
X0340620Y0074044D01*
X0341790Y0074529D01*
X0342686Y0075425D01*
X0343171Y0076595D01*
X0343171Y0077862D01*
X0342837Y0078667D02*
X0413215Y0078667D01*
X0413215Y0079865D02*
X0342065Y0079865D01*
X0344187Y0081064D02*
X0413215Y0081064D01*
X0413215Y0082262D02*
X0344418Y0082262D01*
X0344418Y0083461D02*
X0414059Y0083461D01*
X0414059Y0083191D02*
X0413215Y0082346D01*
X0413215Y0061033D01*
X0412161Y0061033D01*
X0412161Y0057277D01*
X0410961Y0057277D01*
X0410961Y0056077D01*
X0412161Y0056077D01*
X0412161Y0052321D01*
X0413215Y0052321D01*
X0413215Y0045788D01*
X0412715Y0046724D01*
X0411954Y0047862D01*
X0411085Y0048920D01*
X0410117Y0049889D01*
X0409059Y0050757D01*
X0407921Y0051518D01*
X0406713Y0052163D01*
X0405448Y0052687D01*
X0404138Y0053085D01*
X0402795Y0053352D01*
X0401433Y0053486D01*
X0401348Y0053486D01*
X0401348Y0040151D01*
X0400148Y0040151D01*
X0400148Y0053486D01*
X0400064Y0053486D01*
X0398701Y0053352D01*
X0397358Y0053085D01*
X0396048Y0052687D01*
X0394783Y0052163D01*
X0393576Y0051518D01*
X0392437Y0050757D01*
X0391379Y0049889D01*
X0390411Y0048920D01*
X0389542Y0047862D01*
X0388782Y0046724D01*
X0388136Y0045516D01*
X0387612Y0044251D01*
X0387215Y0042941D01*
X0386959Y0041654D01*
X0385951Y0042236D01*
X0383280Y0042951D01*
X0380516Y0042951D01*
X0377845Y0042236D01*
X0375451Y0040853D01*
X0373496Y0038898D01*
X0372114Y0036504D01*
X0371398Y0033834D01*
X0371398Y0031069D01*
X0372114Y0028398D01*
X0373496Y0026004D01*
X0375451Y0024049D01*
X0377845Y0022667D01*
X0380516Y0021951D01*
X0383280Y0021951D01*
X0385951Y0022667D01*
X0388345Y0024049D01*
X0390300Y0026004D01*
X0391683Y0028398D01*
X0391807Y0028863D01*
X0392437Y0028345D01*
X0393576Y0027585D01*
X0394783Y0026939D01*
X0396048Y0026415D01*
X0397358Y0026018D01*
X0398701Y0025751D01*
X0400064Y0025617D01*
X0400148Y0025617D01*
X0400148Y0038951D01*
X0401348Y0038951D01*
X0401348Y0025617D01*
X0401433Y0025617D01*
X0402795Y0025751D01*
X0404138Y0026018D01*
X0405448Y0026415D01*
X0406713Y0026939D01*
X0407921Y0027585D01*
X0409059Y0028345D01*
X0410117Y0029214D01*
X0411085Y0030182D01*
X0411954Y0031240D01*
X0412715Y0032379D01*
X0413215Y0033314D01*
X0413215Y0030378D01*
X0416513Y0027079D01*
X0416513Y0026637D01*
X0417334Y0025817D01*
X0417545Y0025817D01*
X0417545Y0017386D01*
X0411515Y0011356D01*
X0341686Y0011356D01*
X0331719Y0021323D01*
X0331719Y0025778D01*
X0339516Y0033575D01*
X0341255Y0033575D01*
X0342939Y0031891D01*
X0347034Y0031891D01*
X0349930Y0034787D01*
X0349930Y0038882D01*
X0347034Y0041778D01*
X0342939Y0041778D01*
X0340043Y0038882D01*
X0340043Y0037575D01*
X0337859Y0037575D01*
X0331719Y0031435D01*
X0331719Y0049402D01*
X0339591Y0049402D01*
X0340077Y0048916D01*
X0340043Y0048882D01*
X0340043Y0044787D01*
X0342939Y0041891D01*
X0347034Y0041891D01*
X0349930Y0044787D01*
X0349930Y0048882D01*
X0347034Y0051778D01*
X0342939Y0051778D01*
X0342905Y0051744D01*
X0341248Y0053402D01*
X0331719Y0053402D01*
X0331719Y0078016D01*
X0327388Y0082346D01*
X0326160Y0082346D01*
X0326160Y0086616D01*
X0327692Y0086616D01*
X0328512Y0087436D01*
X0328512Y0093714D01*
X0328432Y0093794D01*
X0328603Y0094091D01*
X0328712Y0094498D01*
X0328712Y0096668D01*
X0324760Y0096668D01*
X0324760Y0097868D01*
X0328712Y0097868D01*
X0328712Y0100037D01*
X0328603Y0100444D01*
X0328393Y0100809D01*
X0328095Y0101107D01*
X0327730Y0101318D01*
X0327323Y0101427D01*
X0324760Y0101427D01*
X0324760Y0097868D01*
X0323560Y0097868D01*
X0323560Y0101427D01*
X0320996Y0101427D01*
X0320589Y0101318D01*
X0320224Y0101107D01*
X0319926Y0100809D01*
X0319716Y0100444D01*
X0319607Y0100037D01*
X0319607Y0097868D01*
X0323560Y0097868D01*
X0323560Y0096668D01*
X0319607Y0096668D01*
X0319607Y0094498D01*
X0319716Y0094091D01*
X0319887Y0093794D01*
X0319807Y0093714D01*
X0319807Y0087436D01*
X0320627Y0086616D01*
X0322160Y0086616D01*
X0322160Y0082346D01*
X0311640Y0082346D01*
X0308119Y0085868D01*
X0308952Y0085868D01*
X0309772Y0086688D01*
X0309772Y0092966D01*
X0309565Y0093173D01*
X0309772Y0093381D01*
X0309772Y0093985D01*
X0310121Y0093141D01*
X0311017Y0092245D01*
X0312188Y0091761D01*
X0313454Y0091761D01*
X0314625Y0092245D01*
X0315520Y0093141D01*
X0316005Y0094311D01*
X0316005Y0095578D01*
X0315520Y0096749D01*
X0314625Y0097644D01*
X0313454Y0098129D01*
X0312465Y0098129D01*
X0312075Y0098520D01*
X0309772Y0098520D01*
X0309772Y0099659D01*
X0308952Y0100479D01*
X0301887Y0100479D01*
X0301067Y0099659D01*
X0301067Y0093381D01*
X0301274Y0093173D01*
X0301067Y0092966D01*
X0301067Y0092920D01*
X0295498Y0098488D01*
X0295498Y0099039D01*
X0296209Y0099039D01*
X0296367Y0098948D01*
X0296774Y0098839D01*
X0297585Y0098839D01*
X0298396Y0098839D01*
X0298803Y0098948D01*
X0299168Y0099159D01*
X0299465Y0099457D01*
X0299676Y0099821D01*
X0299785Y0100228D01*
X0299785Y0102189D01*
X0299785Y0104150D01*
X0299676Y0104557D01*
X0299465Y0104921D01*
X0299168Y0105219D01*
X0298803Y0105430D01*
X0298396Y0105539D01*
X0297585Y0105539D01*
X0297585Y0104551D01*
X0297585Y0105539D01*
X0297498Y0105539D01*
X0297498Y0107968D01*
X0298254Y0108724D01*
X0322270Y0108724D01*
X0329059Y0115513D01*
X0329059Y0114916D01*
X0329879Y0114096D01*
X0336157Y0114096D01*
X0336237Y0114177D01*
X0336534Y0114005D01*
X0336941Y0113896D01*
X0339111Y0113896D01*
X0339111Y0117849D01*
X0340311Y0117849D01*
X0340311Y0119049D01*
X0343870Y0119049D01*
X0343870Y0121612D01*
X0343761Y0122019D01*
X0343550Y0122384D01*
X0343252Y0122682D01*
X0342887Y0122893D01*
X0342480Y0123002D01*
X0340311Y0123002D01*
X0340311Y0119049D01*
X0339111Y0119049D01*
X0339111Y0123002D01*
X0336941Y0123002D01*
X0336534Y0122893D01*
X0336306Y0122761D01*
X0339199Y0125654D01*
X0339199Y0142976D01*
X0339593Y0143370D01*
X0406915Y0143370D01*
X0423451Y0126835D01*
X0423451Y0105715D01*
X0422792Y0105715D01*
X0422712Y0105634D01*
X0422415Y0105806D01*
X0422008Y0105915D01*
X0419838Y0105915D01*
X0419838Y0101962D01*
X0418638Y0101962D01*
X0418638Y0100762D01*
X0415079Y0100762D01*
X0415079Y0098199D01*
X0415188Y0097792D01*
X0415399Y0097427D01*
X0415697Y0097129D01*
X0416062Y0096918D01*
X0416469Y0096809D01*
X0418638Y0096809D01*
X0418638Y0100762D01*
X0419838Y0100762D01*
X0419838Y0096809D01*
X0422008Y0096809D01*
X0422415Y0096918D01*
X0422712Y0097090D01*
X0422792Y0097009D01*
X0423451Y0097009D01*
X0423451Y0084709D01*
X0423057Y0084315D01*
X0422764Y0084315D01*
X0422764Y0084777D01*
X0422684Y0084857D01*
X0422855Y0085154D01*
X0422964Y0085561D01*
X0422964Y0087731D01*
X0419012Y0087731D01*
X0419012Y0088931D01*
X0422964Y0088931D01*
X0422964Y0091100D01*
X0422855Y0091507D01*
X0422645Y0091872D01*
X0422347Y0092170D01*
X0421982Y0092381D01*
X0421575Y0092490D01*
X0419011Y0092490D01*
X0419011Y0088931D01*
X0417812Y0088931D01*
X0417812Y0092490D01*
X0415248Y0092490D01*
X0414841Y0092381D01*
X0414476Y0092170D01*
X0414178Y0091872D01*
X0413968Y0091507D01*
X0413859Y0091100D01*
X0413859Y0088931D01*
X0417811Y0088931D01*
X0417811Y0087731D01*
X0413859Y0087731D01*
X0413859Y0085561D01*
X0413968Y0085154D01*
X0414139Y0084857D01*
X0414059Y0084777D01*
X0414059Y0083191D01*
X0414059Y0084659D02*
X0344418Y0084659D01*
X0344418Y0085858D02*
X0413859Y0085858D01*
X0413859Y0087056D02*
X0344418Y0087056D01*
X0344591Y0088255D02*
X0417811Y0088255D01*
X0418412Y0088331D02*
X0418412Y0100535D01*
X0419238Y0101362D01*
X0418638Y0101438D02*
X0299785Y0101438D01*
X0299785Y0102189D02*
X0297617Y0102189D01*
X0299785Y0102189D01*
X0299785Y0102637D02*
X0415079Y0102637D01*
X0415079Y0101962D02*
X0418638Y0101962D01*
X0418638Y0105915D01*
X0416469Y0105915D01*
X0416062Y0105806D01*
X0415697Y0105595D01*
X0415399Y0105297D01*
X0415188Y0104933D01*
X0415079Y0104526D01*
X0415079Y0101962D01*
X0415079Y0100240D02*
X0328658Y0100240D01*
X0328712Y0099041D02*
X0415079Y0099041D01*
X0415175Y0097843D02*
X0324760Y0097843D01*
X0324160Y0097268D02*
X0341167Y0097268D01*
X0340065Y0096165D01*
X0340065Y0091126D01*
X0339465Y0090652D02*
X0328512Y0090652D01*
X0328512Y0091850D02*
X0335512Y0091850D01*
X0335512Y0091726D02*
X0339465Y0091726D01*
X0339465Y0095285D01*
X0336902Y0095285D01*
X0336495Y0095176D01*
X0336130Y0094965D01*
X0335832Y0094667D01*
X0335621Y0094303D01*
X0335512Y0093896D01*
X0335512Y0091726D01*
X0335512Y0093049D02*
X0328512Y0093049D01*
X0328645Y0094247D02*
X0335607Y0094247D01*
X0339465Y0094247D02*
X0340665Y0094247D01*
X0340665Y0095285D02*
X0340665Y0091726D01*
X0344618Y0091726D01*
X0344618Y0093896D01*
X0344509Y0094303D01*
X0344298Y0094667D01*
X0344000Y0094965D01*
X0343635Y0095176D01*
X0343228Y0095285D01*
X0340665Y0095285D01*
X0341167Y0097268D02*
X0359002Y0097268D01*
X0344524Y0094247D02*
X0423451Y0094247D01*
X0423451Y0093049D02*
X0344618Y0093049D01*
X0344618Y0091850D02*
X0414166Y0091850D01*
X0413859Y0090652D02*
X0340665Y0090652D01*
X0340665Y0091850D02*
X0339465Y0091850D01*
X0339465Y0093049D02*
X0340665Y0093049D01*
X0344618Y0089453D02*
X0413859Y0089453D01*
X0417812Y0089453D02*
X0419011Y0089453D01*
X0419012Y0088255D02*
X0423451Y0088255D01*
X0423845Y0088252D02*
X0418490Y0088252D01*
X0418412Y0088331D01*
X0417812Y0090652D02*
X0419011Y0090652D01*
X0419011Y0091850D02*
X0417812Y0091850D01*
X0422657Y0091850D02*
X0423451Y0091850D01*
X0423451Y0090652D02*
X0422964Y0090652D01*
X0422964Y0089453D02*
X0423451Y0089453D01*
X0423451Y0087056D02*
X0422964Y0087056D01*
X0422964Y0085858D02*
X0423451Y0085858D01*
X0423401Y0084659D02*
X0422764Y0084659D01*
X0423451Y0095446D02*
X0328712Y0095446D01*
X0328712Y0096644D02*
X0423451Y0096644D01*
X0419838Y0097843D02*
X0418638Y0097843D01*
X0418638Y0099041D02*
X0419838Y0099041D01*
X0419838Y0100240D02*
X0418638Y0100240D01*
X0418638Y0102637D02*
X0419838Y0102637D01*
X0419838Y0103835D02*
X0418638Y0103835D01*
X0418638Y0105034D02*
X0419838Y0105034D01*
X0423451Y0106232D02*
X0297498Y0106232D01*
X0297498Y0107431D02*
X0423451Y0107431D01*
X0423451Y0108629D02*
X0298159Y0108629D01*
X0296529Y0109828D02*
X0294001Y0109828D01*
X0293923Y0109906D02*
X0293923Y0132346D01*
X0303372Y0141795D01*
X0303372Y0142116D01*
X0305775Y0144520D01*
X0308524Y0144520D01*
X0308524Y0142100D01*
X0314189Y0142100D01*
X0314189Y0140900D01*
X0308524Y0140900D01*
X0308524Y0137057D01*
X0308633Y0136650D01*
X0308844Y0136285D01*
X0309142Y0135987D01*
X0309507Y0135777D01*
X0309913Y0135668D01*
X0314189Y0135668D01*
X0314189Y0140900D01*
X0315389Y0140900D01*
X0315389Y0135668D01*
X0319665Y0135668D01*
X0320072Y0135777D01*
X0320437Y0135987D01*
X0320735Y0136285D01*
X0320946Y0136650D01*
X0321055Y0137057D01*
X0321055Y0140900D01*
X0315390Y0140900D01*
X0315390Y0142100D01*
X0321055Y0142100D01*
X0321055Y0144520D01*
X0329388Y0144520D01*
X0334868Y0139039D01*
X0334868Y0126047D01*
X0335816Y0125099D01*
X0333719Y0123002D01*
X0333618Y0123002D01*
X0333618Y0122901D01*
X0332418Y0121701D01*
X0332418Y0123002D01*
X0330248Y0123002D01*
X0329841Y0122893D01*
X0329476Y0122682D01*
X0329178Y0122384D01*
X0328968Y0122019D01*
X0328859Y0121612D01*
X0328859Y0119049D01*
X0329766Y0119049D01*
X0321441Y0110724D01*
X0297426Y0110724D01*
X0296254Y0109553D01*
X0295265Y0108564D01*
X0293923Y0109906D01*
X0293923Y0111026D02*
X0321743Y0111026D01*
X0322942Y0112225D02*
X0293923Y0112225D01*
X0293923Y0113423D02*
X0324140Y0113423D01*
X0325339Y0114622D02*
X0293923Y0114622D01*
X0293923Y0115820D02*
X0326537Y0115820D01*
X0327736Y0117019D02*
X0293923Y0117019D01*
X0293923Y0118217D02*
X0328934Y0118217D01*
X0328859Y0119416D02*
X0293923Y0119416D01*
X0293923Y0120614D02*
X0328859Y0120614D01*
X0328913Y0121813D02*
X0293923Y0121813D01*
X0293923Y0123012D02*
X0333728Y0123012D01*
X0333018Y0124079D02*
X0333018Y0118449D01*
X0332530Y0121813D02*
X0332418Y0121813D01*
X0333018Y0124079D02*
X0314789Y0124079D01*
X0314789Y0141500D01*
X0314189Y0140989D02*
X0302566Y0140989D01*
X0303443Y0142188D02*
X0308524Y0142188D01*
X0308524Y0143386D02*
X0304642Y0143386D01*
X0302119Y0146520D02*
X0271482Y0146520D01*
X0265577Y0152425D01*
X0269120Y0152425D01*
X0287230Y0170535D01*
X0290575Y0170535D01*
X0290575Y0170034D01*
X0291170Y0169438D01*
X0290992Y0169335D01*
X0290694Y0169038D01*
X0290484Y0168673D01*
X0290375Y0168266D01*
X0290375Y0166677D01*
X0290375Y0165089D01*
X0290484Y0164682D01*
X0290694Y0164317D01*
X0290992Y0164019D01*
X0291357Y0163808D01*
X0291764Y0163699D01*
X0292801Y0163699D01*
X0292801Y0166677D01*
X0290375Y0166677D01*
X0292801Y0166677D01*
X0292801Y0166677D01*
X0292801Y0166677D01*
X0292801Y0163699D01*
X0293839Y0163699D01*
X0294081Y0163764D01*
X0294323Y0163699D01*
X0295360Y0163699D01*
X0295360Y0166677D01*
X0292934Y0166677D01*
X0292801Y0166677D01*
X0292801Y0166677D01*
X0295360Y0166677D01*
X0295360Y0166677D01*
X0295360Y0166677D01*
X0295360Y0163699D01*
X0296398Y0163699D01*
X0296640Y0163764D01*
X0296882Y0163699D01*
X0297919Y0163699D01*
X0297919Y0166677D01*
X0295493Y0166677D01*
X0295360Y0166677D01*
X0295360Y0166677D01*
X0297919Y0166677D01*
X0297919Y0166677D01*
X0297919Y0166677D01*
X0297919Y0163699D01*
X0298957Y0163699D01*
X0299364Y0163808D01*
X0299521Y0163899D01*
X0301885Y0163899D01*
X0302705Y0164719D01*
X0302705Y0165793D01*
X0302886Y0165973D01*
X0305006Y0165973D01*
X0305505Y0165474D01*
X0306676Y0164989D01*
X0307943Y0164989D01*
X0309113Y0165474D01*
X0310009Y0166369D01*
X0310493Y0167540D01*
X0310493Y0168807D01*
X0310009Y0169977D01*
X0309450Y0170535D01*
X0345892Y0170535D01*
X0351010Y0165417D01*
X0351010Y0161480D01*
X0336049Y0146520D01*
X0320647Y0146520D01*
X0320259Y0146908D01*
X0320437Y0147011D01*
X0320735Y0147309D01*
X0320946Y0147674D01*
X0321055Y0148081D01*
X0321055Y0149669D01*
X0318628Y0149669D01*
X0316069Y0149669D01*
X0313510Y0149669D01*
X0313510Y0149669D01*
X0314396Y0149669D01*
X0313510Y0149669D02*
X0315937Y0149669D01*
X0316069Y0149669D01*
X0316069Y0149669D01*
X0316069Y0149669D01*
X0307408Y0158331D01*
X0304947Y0158331D01*
X0289711Y0143094D01*
X0289711Y0102189D01*
X0287821Y0102268D02*
X0287742Y0102189D01*
X0287821Y0102268D02*
X0287821Y0108528D01*
X0286049Y0110299D01*
X0273175Y0110299D01*
X0267939Y0109512D02*
X0267939Y0104394D01*
X0266758Y0103213D01*
X0266364Y0103213D01*
X0256741Y0112835D01*
X0257139Y0112942D01*
X0257504Y0113153D01*
X0257802Y0113451D01*
X0258013Y0113815D01*
X0258122Y0114222D01*
X0258122Y0116214D01*
X0254741Y0116214D01*
X0254741Y0117376D01*
X0258122Y0117376D01*
X0258122Y0119368D01*
X0258013Y0119775D01*
X0257802Y0120140D01*
X0257504Y0120438D01*
X0257139Y0120648D01*
X0256732Y0120757D01*
X0254741Y0120757D01*
X0254741Y0117376D01*
X0253578Y0117376D01*
X0253578Y0116214D01*
X0250197Y0116214D01*
X0250197Y0114222D01*
X0250306Y0113815D01*
X0250384Y0113681D01*
X0249435Y0114630D01*
X0249435Y0126071D01*
X0249618Y0126022D01*
X0251788Y0126022D01*
X0251788Y0129975D01*
X0252988Y0129975D01*
X0252988Y0131175D01*
X0251788Y0131175D01*
X0251788Y0135128D01*
X0249618Y0135128D01*
X0249435Y0135078D01*
X0249435Y0136677D01*
X0252191Y0139433D01*
X0252191Y0140002D01*
X0255921Y0140002D01*
X0256741Y0140822D01*
X0256741Y0146706D01*
X0255921Y0147526D01*
X0252191Y0147526D01*
X0252191Y0148269D01*
X0255921Y0148269D01*
X0256741Y0149089D01*
X0256741Y0154974D01*
X0255921Y0155794D01*
X0252328Y0155794D01*
X0252207Y0155914D01*
X0252619Y0156910D01*
X0252619Y0158177D01*
X0252135Y0159347D01*
X0251239Y0160243D01*
X0250069Y0160728D01*
X0248802Y0160728D01*
X0247631Y0160243D01*
X0246736Y0159347D01*
X0246421Y0158588D01*
X0244317Y0160693D01*
X0236443Y0160693D01*
X0233719Y0163417D01*
X0233719Y0165736D01*
X0234866Y0164589D01*
X0236374Y0164589D01*
X0236374Y0168773D01*
X0237142Y0168773D01*
X0237142Y0164589D01*
X0238650Y0164589D01*
X0241326Y0167265D01*
X0241326Y0168773D01*
X0237142Y0168773D01*
X0237142Y0169542D01*
X0236374Y0169542D01*
X0236374Y0173726D01*
X0234866Y0173726D01*
X0233719Y0172579D01*
X0233719Y0173717D01*
X0234791Y0174789D01*
X0234948Y0174631D01*
X0238567Y0174631D01*
X0239196Y0175260D01*
X0239986Y0175260D01*
X0243980Y0171266D01*
X0243980Y0169680D01*
X0244060Y0169599D01*
X0243889Y0169303D01*
X0243780Y0168896D01*
X0243780Y0166726D01*
X0247733Y0166726D01*
X0247733Y0165526D01*
X0248933Y0165526D01*
X0248933Y0166726D01*
X0252886Y0166726D01*
X0252886Y0168896D01*
X0252777Y0169303D01*
X0252605Y0169599D01*
X0252686Y0169680D01*
X0252686Y0170142D01*
X0256522Y0170142D01*
X0256915Y0169748D01*
X0259599Y0169748D01*
X0260429Y0168918D01*
X0260317Y0168806D01*
X0260317Y0165493D01*
X0262660Y0163150D01*
X0265974Y0163150D01*
X0268317Y0165493D01*
X0268317Y0168806D01*
X0265974Y0171150D01*
X0263854Y0171150D01*
X0262857Y0172146D01*
X0263860Y0173150D01*
X0265974Y0173150D01*
X0268317Y0175493D01*
X0268317Y0177606D01*
X0271876Y0181165D01*
X0271876Y0185890D01*
X0272445Y0186458D01*
X0276472Y0186458D01*
X0277292Y0187278D01*
X0277292Y0191305D01*
X0279750Y0193764D01*
X0287520Y0193764D01*
X0287520Y0192770D01*
X0290901Y0192770D01*
X0290901Y0191608D01*
X0287520Y0191608D01*
X0287520Y0187648D01*
X0287629Y0187241D01*
X0287840Y0186876D01*
X0288138Y0186578D01*
X0288503Y0186367D01*
X0288910Y0186258D01*
X0290901Y0186258D01*
X0290901Y0191608D01*
X0292063Y0191608D01*
X0292063Y0186258D01*
X0294055Y0186258D01*
X0294462Y0186367D01*
X0294827Y0186578D01*
X0295125Y0186876D01*
X0295336Y0187241D01*
X0295445Y0187648D01*
X0295445Y0191608D01*
X0292064Y0191608D01*
X0292064Y0192770D01*
X0295445Y0192770D01*
X0295445Y0193764D01*
X0297860Y0193764D01*
X0300016Y0195920D01*
X0300482Y0195920D01*
X0301654Y0197091D01*
X0308531Y0203969D01*
X0310500Y0203969D01*
X0312106Y0205575D01*
X0334081Y0205575D01*
X0341955Y0213449D01*
X0351797Y0213449D01*
X0352978Y0212268D01*
X0352978Y0205575D01*
X0338412Y0191008D01*
X0338018Y0191008D01*
X0330144Y0183134D01*
X0330144Y0172535D01*
X0302905Y0172535D01*
X0302905Y0174246D01*
X0297240Y0174246D01*
X0297240Y0175446D01*
X0302905Y0175446D01*
X0302905Y0179289D01*
X0302796Y0179696D01*
X0302586Y0180061D01*
X0302288Y0180359D01*
X0301923Y0180570D01*
X0301516Y0180679D01*
X0297240Y0180679D01*
X0297240Y0175446D01*
X0296040Y0175446D01*
X0296040Y0174246D01*
X0290375Y0174246D01*
X0290375Y0172535D01*
X0286402Y0172535D01*
X0268292Y0154425D01*
X0264748Y0154425D01*
X0263577Y0153254D01*
X0263577Y0151597D01*
X0264748Y0150425D01*
X0269017Y0146156D01*
X0265577Y0146126D01*
X0265577Y0135890D01*
X0259671Y0129984D01*
X0259671Y0128896D01*
X0259243Y0127862D01*
X0259243Y0126595D01*
X0259671Y0125561D01*
X0259671Y0117780D01*
X0267939Y0109512D01*
X0267623Y0109828D02*
X0259749Y0109828D01*
X0258550Y0111026D02*
X0266425Y0111026D01*
X0265226Y0112225D02*
X0257352Y0112225D01*
X0257775Y0113423D02*
X0264027Y0113423D01*
X0262829Y0114622D02*
X0258122Y0114622D01*
X0258122Y0115820D02*
X0261630Y0115820D01*
X0260432Y0117019D02*
X0254741Y0117019D01*
X0254160Y0116795D02*
X0257309Y0116795D01*
X0265774Y0108331D01*
X0265774Y0103567D01*
X0267152Y0102189D01*
X0269120Y0100220D01*
X0269120Y0096126D01*
X0266482Y0102189D02*
X0261758Y0097465D01*
X0266482Y0102189D02*
X0267152Y0102189D01*
X0283805Y0102189D01*
X0291679Y0102189D02*
X0291679Y0104551D01*
X0291561Y0104551D02*
X0291561Y0133134D01*
X0308097Y0149669D01*
X0310951Y0149669D01*
X0313510Y0149669D02*
X0313510Y0152647D01*
X0313510Y0149669D01*
X0313510Y0149669D01*
X0313510Y0150577D02*
X0313510Y0150577D01*
X0313510Y0151776D02*
X0313510Y0151776D01*
X0313510Y0152647D02*
X0312473Y0152647D01*
X0312066Y0152538D01*
X0311908Y0152447D01*
X0309544Y0152447D01*
X0308766Y0151669D01*
X0307268Y0151669D01*
X0302119Y0146520D01*
X0302581Y0146982D02*
X0271020Y0146982D01*
X0269822Y0148180D02*
X0303779Y0148180D01*
X0304978Y0149379D02*
X0268623Y0149379D01*
X0267425Y0150577D02*
X0306176Y0150577D01*
X0308873Y0151776D02*
X0266226Y0151776D01*
X0264596Y0150577D02*
X0256741Y0150577D01*
X0256741Y0149379D02*
X0265795Y0149379D01*
X0266993Y0148180D02*
X0252191Y0148180D01*
X0256465Y0146982D02*
X0268192Y0146982D01*
X0265577Y0145783D02*
X0256741Y0145783D01*
X0256741Y0144585D02*
X0265577Y0144585D01*
X0265577Y0143386D02*
X0256741Y0143386D01*
X0256741Y0142188D02*
X0265577Y0142188D01*
X0265577Y0140989D02*
X0256741Y0140989D01*
X0252978Y0143764D02*
X0252191Y0143764D01*
X0245498Y0137071D01*
X0245498Y0130772D01*
X0245695Y0130575D01*
X0251788Y0131401D02*
X0252988Y0131401D01*
X0252988Y0131175D02*
X0252988Y0135128D01*
X0255158Y0135128D01*
X0255565Y0135019D01*
X0255929Y0134808D01*
X0256227Y0134510D01*
X0256438Y0134145D01*
X0256547Y0133738D01*
X0256547Y0131175D01*
X0252988Y0131175D01*
X0252988Y0130203D02*
X0259890Y0130203D01*
X0259671Y0129004D02*
X0256547Y0129004D01*
X0256547Y0129975D02*
X0252988Y0129975D01*
X0252988Y0126022D01*
X0255158Y0126022D01*
X0255565Y0126131D01*
X0255929Y0126342D01*
X0256227Y0126640D01*
X0256438Y0127004D01*
X0256547Y0127411D01*
X0256547Y0129975D01*
X0256547Y0131401D02*
X0261088Y0131401D01*
X0262287Y0132600D02*
X0256547Y0132600D01*
X0256531Y0133798D02*
X0263485Y0133798D01*
X0264684Y0134997D02*
X0255602Y0134997D01*
X0252988Y0134997D02*
X0251788Y0134997D01*
X0251788Y0133798D02*
X0252988Y0133798D01*
X0252988Y0132600D02*
X0251788Y0132600D01*
X0251788Y0129004D02*
X0252988Y0129004D01*
X0252988Y0127806D02*
X0251788Y0127806D01*
X0251788Y0126607D02*
X0252988Y0126607D01*
X0256195Y0126607D02*
X0259243Y0126607D01*
X0259243Y0127806D02*
X0256547Y0127806D01*
X0259671Y0125409D02*
X0249435Y0125409D01*
X0249435Y0124210D02*
X0259671Y0124210D01*
X0259671Y0123012D02*
X0249435Y0123012D01*
X0249435Y0121813D02*
X0259671Y0121813D01*
X0259671Y0120614D02*
X0257198Y0120614D01*
X0258109Y0119416D02*
X0259671Y0119416D01*
X0259671Y0118217D02*
X0258122Y0118217D01*
X0254741Y0118217D02*
X0253578Y0118217D01*
X0253578Y0117376D02*
X0253578Y0120757D01*
X0251587Y0120757D01*
X0251180Y0120648D01*
X0250815Y0120438D01*
X0250517Y0120140D01*
X0250306Y0119775D01*
X0250197Y0119368D01*
X0250197Y0117376D01*
X0253578Y0117376D01*
X0253578Y0117019D02*
X0249435Y0117019D01*
X0249435Y0118217D02*
X0250197Y0118217D01*
X0250210Y0119416D02*
X0249435Y0119416D01*
X0249435Y0120614D02*
X0251121Y0120614D01*
X0253578Y0120614D02*
X0254741Y0120614D01*
X0254741Y0119416D02*
X0253578Y0119416D01*
X0250197Y0115820D02*
X0249435Y0115820D01*
X0249443Y0114622D02*
X0250197Y0114622D01*
X0260948Y0108629D02*
X0267939Y0108629D01*
X0267939Y0107431D02*
X0262146Y0107431D01*
X0263345Y0106232D02*
X0267939Y0106232D01*
X0267939Y0105034D02*
X0264543Y0105034D01*
X0265742Y0103835D02*
X0267381Y0103835D01*
X0295498Y0102189D02*
X0295498Y0124079D01*
X0314789Y0124079D01*
X0334927Y0124210D02*
X0293923Y0124210D01*
X0293923Y0125409D02*
X0335507Y0125409D01*
X0334868Y0126607D02*
X0293923Y0126607D01*
X0293923Y0127806D02*
X0334868Y0127806D01*
X0334868Y0129004D02*
X0293923Y0129004D01*
X0293923Y0130203D02*
X0334868Y0130203D01*
X0334868Y0131401D02*
X0293923Y0131401D01*
X0294176Y0132600D02*
X0334868Y0132600D01*
X0334868Y0133798D02*
X0295375Y0133798D01*
X0296573Y0134997D02*
X0334868Y0134997D01*
X0334868Y0136195D02*
X0320645Y0136195D01*
X0321055Y0137394D02*
X0334868Y0137394D01*
X0334868Y0138592D02*
X0321055Y0138592D01*
X0321055Y0139791D02*
X0334117Y0139791D01*
X0332918Y0140989D02*
X0315390Y0140989D01*
X0315389Y0139791D02*
X0314189Y0139791D01*
X0314189Y0138592D02*
X0315389Y0138592D01*
X0315389Y0137394D02*
X0314189Y0137394D01*
X0314189Y0136195D02*
X0315389Y0136195D01*
X0308934Y0136195D02*
X0297772Y0136195D01*
X0298971Y0137394D02*
X0308524Y0137394D01*
X0308524Y0138592D02*
X0300169Y0138592D01*
X0301368Y0139791D02*
X0308524Y0139791D01*
X0321055Y0142188D02*
X0331720Y0142188D01*
X0330521Y0143386D02*
X0321055Y0143386D01*
X0320387Y0146982D02*
X0336511Y0146982D01*
X0337710Y0148180D02*
X0321055Y0148180D01*
X0321055Y0149379D02*
X0338908Y0149379D01*
X0340107Y0150577D02*
X0321055Y0150577D01*
X0321055Y0151258D02*
X0321055Y0149669D01*
X0318628Y0149669D01*
X0318628Y0149669D01*
X0318628Y0149669D01*
X0318496Y0149669D01*
X0316069Y0149669D01*
X0316069Y0152647D01*
X0315032Y0152647D01*
X0314789Y0152582D01*
X0314547Y0152647D01*
X0313510Y0152647D01*
X0316069Y0152647D02*
X0316069Y0149669D01*
X0316069Y0149669D01*
X0316069Y0150577D02*
X0316069Y0150577D01*
X0316069Y0151776D02*
X0316069Y0151776D01*
X0316069Y0152647D02*
X0317106Y0152647D01*
X0317349Y0152582D01*
X0317591Y0152647D01*
X0318628Y0152647D01*
X0318628Y0149669D01*
X0318628Y0149669D01*
X0318628Y0152647D01*
X0319665Y0152647D01*
X0320072Y0152538D01*
X0320437Y0152328D01*
X0320735Y0152030D01*
X0320946Y0151665D01*
X0321055Y0151258D01*
X0320882Y0151776D02*
X0341305Y0151776D01*
X0342504Y0152974D02*
X0269669Y0152974D01*
X0270868Y0154173D02*
X0343702Y0154173D01*
X0344901Y0155371D02*
X0272066Y0155371D01*
X0273265Y0156570D02*
X0346099Y0156570D01*
X0347298Y0157768D02*
X0274463Y0157768D01*
X0275662Y0158967D02*
X0348496Y0158967D01*
X0349695Y0160165D02*
X0276860Y0160165D01*
X0278059Y0161364D02*
X0350894Y0161364D01*
X0351010Y0162562D02*
X0279257Y0162562D01*
X0280456Y0163761D02*
X0291534Y0163761D01*
X0292801Y0163761D02*
X0292801Y0163761D01*
X0292801Y0164959D02*
X0292801Y0164959D01*
X0292801Y0166158D02*
X0292801Y0166158D01*
X0290375Y0166158D02*
X0282853Y0166158D01*
X0284051Y0167356D02*
X0290375Y0167356D01*
X0290452Y0168555D02*
X0285250Y0168555D01*
X0286448Y0169753D02*
X0290855Y0169753D01*
X0290375Y0173349D02*
X0266173Y0173349D01*
X0267372Y0174547D02*
X0296040Y0174547D01*
X0296040Y0175446D02*
X0290375Y0175446D01*
X0290375Y0179289D01*
X0290484Y0179696D01*
X0290694Y0180061D01*
X0290992Y0180359D01*
X0291357Y0180570D01*
X0291764Y0180679D01*
X0296040Y0180679D01*
X0296040Y0175446D01*
X0296040Y0175746D02*
X0297240Y0175746D01*
X0297240Y0174547D02*
X0330144Y0174547D01*
X0330144Y0173349D02*
X0302905Y0173349D01*
X0302905Y0175746D02*
X0330144Y0175746D01*
X0330144Y0176945D02*
X0302905Y0176945D01*
X0302905Y0178143D02*
X0330144Y0178143D01*
X0330144Y0179342D02*
X0302891Y0179342D01*
X0301974Y0180540D02*
X0330144Y0180540D01*
X0330144Y0181739D02*
X0271876Y0181739D01*
X0271876Y0182937D02*
X0330144Y0182937D01*
X0331146Y0184136D02*
X0271876Y0184136D01*
X0271876Y0185334D02*
X0332344Y0185334D01*
X0333543Y0186533D02*
X0294748Y0186533D01*
X0295445Y0187731D02*
X0334741Y0187731D01*
X0335940Y0188930D02*
X0295445Y0188930D01*
X0295445Y0190128D02*
X0337138Y0190128D01*
X0338730Y0191327D02*
X0295445Y0191327D01*
X0295445Y0193724D02*
X0341127Y0193724D01*
X0342326Y0194922D02*
X0299019Y0194922D01*
X0300683Y0196121D02*
X0343524Y0196121D01*
X0344723Y0197319D02*
X0301882Y0197319D01*
X0303080Y0198518D02*
X0345921Y0198518D01*
X0347120Y0199716D02*
X0304279Y0199716D01*
X0305478Y0200915D02*
X0348318Y0200915D01*
X0349517Y0202113D02*
X0306676Y0202113D01*
X0307875Y0203312D02*
X0350715Y0203312D01*
X0351914Y0204510D02*
X0311042Y0204510D01*
X0309671Y0205969D02*
X0312034Y0208331D01*
X0311640Y0212071D01*
X0311049Y0212661D01*
X0307090Y0212900D02*
X0295523Y0212900D01*
X0295523Y0214098D02*
X0307090Y0214098D01*
X0307090Y0215297D02*
X0295523Y0215297D01*
X0295523Y0216392D02*
X0283106Y0216392D01*
X0283106Y0202794D01*
X0294134Y0202794D01*
X0294541Y0202903D01*
X0294906Y0203113D01*
X0295204Y0203411D01*
X0295414Y0203776D01*
X0295523Y0204183D01*
X0295523Y0216392D01*
X0295523Y0217592D02*
X0295523Y0229801D01*
X0295414Y0230208D01*
X0295204Y0230573D01*
X0294906Y0230871D01*
X0294541Y0231082D01*
X0294134Y0231191D01*
X0283106Y0231191D01*
X0283106Y0217592D01*
X0295523Y0217592D01*
X0295523Y0217694D02*
X0307297Y0217694D01*
X0307210Y0217781D02*
X0307508Y0217483D01*
X0307873Y0217273D01*
X0308280Y0217164D01*
X0310449Y0217164D01*
X0310449Y0221116D01*
X0311649Y0221116D01*
X0311649Y0217164D01*
X0313608Y0217164D01*
X0313608Y0217014D01*
X0307910Y0217014D01*
X0307090Y0216194D01*
X0307090Y0209129D01*
X0307910Y0208309D01*
X0309183Y0208309D01*
X0308843Y0207968D01*
X0306874Y0207968D01*
X0305703Y0206797D01*
X0305703Y0206797D01*
X0298826Y0199920D01*
X0287712Y0199920D01*
X0287099Y0199307D01*
X0278528Y0199307D01*
X0277356Y0198136D01*
X0276922Y0197701D01*
X0276691Y0197701D01*
X0276472Y0197920D01*
X0270627Y0197920D01*
X0267665Y0200882D01*
X0266780Y0200882D01*
X0266780Y0202415D01*
X0265960Y0203235D01*
X0259682Y0203235D01*
X0259475Y0203027D01*
X0259267Y0203235D01*
X0252989Y0203235D01*
X0252169Y0202415D01*
X0252169Y0197751D01*
X0252119Y0197701D01*
X0233563Y0197701D01*
X0233563Y0287156D01*
X0313608Y0287156D01*
X0313608Y0274231D01*
X0311310Y0274231D01*
X0310490Y0273411D01*
X0310490Y0247582D01*
X0311310Y0246761D01*
X0313608Y0246761D01*
X0313608Y0236692D01*
X0313439Y0236790D01*
X0313032Y0236899D01*
X0310862Y0236899D01*
X0310862Y0233143D01*
X0309662Y0233143D01*
X0309662Y0231943D01*
X0310862Y0231943D01*
X0310862Y0228187D01*
X0313032Y0228187D01*
X0313439Y0228296D01*
X0313608Y0228394D01*
X0313608Y0226269D01*
X0311649Y0226269D01*
X0311649Y0222317D01*
X0310449Y0222317D01*
X0310449Y0226269D01*
X0308280Y0226269D01*
X0307873Y0226160D01*
X0307508Y0225950D01*
X0307210Y0225652D01*
X0306999Y0225287D01*
X0306890Y0224880D01*
X0306890Y0222316D01*
X0310449Y0222316D01*
X0310449Y0221117D01*
X0306890Y0221117D01*
X0306890Y0218553D01*
X0306999Y0218146D01*
X0307210Y0217781D01*
X0306890Y0218892D02*
X0295523Y0218892D01*
X0295523Y0220091D02*
X0306890Y0220091D01*
X0306890Y0222488D02*
X0295523Y0222488D01*
X0295523Y0223686D02*
X0306890Y0223686D01*
X0306892Y0224885D02*
X0295523Y0224885D01*
X0295523Y0226083D02*
X0307740Y0226083D01*
X0307492Y0228187D02*
X0309662Y0228187D01*
X0309662Y0231943D01*
X0306103Y0231943D01*
X0306103Y0229577D01*
X0306212Y0229170D01*
X0306423Y0228805D01*
X0306720Y0228507D01*
X0307085Y0228296D01*
X0307492Y0228187D01*
X0306766Y0228480D02*
X0295523Y0228480D01*
X0295523Y0227282D02*
X0313608Y0227282D01*
X0311649Y0226083D02*
X0310449Y0226083D01*
X0310449Y0224885D02*
X0311649Y0224885D01*
X0311649Y0223686D02*
X0310449Y0223686D01*
X0310449Y0222488D02*
X0311649Y0222488D01*
X0311049Y0221717D02*
X0287230Y0221717D01*
X0282506Y0216992D01*
X0281906Y0216495D02*
X0233563Y0216495D01*
X0233563Y0215297D02*
X0269489Y0215297D01*
X0269489Y0216392D02*
X0269489Y0204183D01*
X0269598Y0203776D01*
X0269808Y0203411D01*
X0270106Y0203113D01*
X0270471Y0202903D01*
X0270878Y0202794D01*
X0281906Y0202794D01*
X0281906Y0216392D01*
X0283106Y0216392D01*
X0283106Y0217592D01*
X0281906Y0217592D01*
X0281906Y0216392D01*
X0269489Y0216392D01*
X0269489Y0217592D02*
X0281906Y0217592D01*
X0281906Y0231191D01*
X0270878Y0231191D01*
X0270471Y0231082D01*
X0270106Y0230871D01*
X0269808Y0230573D01*
X0269598Y0230208D01*
X0269489Y0229801D01*
X0269489Y0217592D01*
X0269489Y0217694D02*
X0233563Y0217694D01*
X0233563Y0218892D02*
X0269489Y0218892D01*
X0269489Y0220091D02*
X0233563Y0220091D01*
X0233563Y0221289D02*
X0269489Y0221289D01*
X0269489Y0222488D02*
X0233563Y0222488D01*
X0233563Y0223686D02*
X0269489Y0223686D01*
X0269489Y0224885D02*
X0233563Y0224885D01*
X0233563Y0226083D02*
X0269489Y0226083D01*
X0269489Y0227282D02*
X0233563Y0227282D01*
X0233563Y0228480D02*
X0269489Y0228480D01*
X0269489Y0229679D02*
X0233563Y0229679D01*
X0233563Y0230878D02*
X0270118Y0230878D01*
X0281906Y0230878D02*
X0283106Y0230878D01*
X0283106Y0229679D02*
X0281906Y0229679D01*
X0281906Y0228480D02*
X0283106Y0228480D01*
X0283106Y0227282D02*
X0281906Y0227282D01*
X0281906Y0226083D02*
X0283106Y0226083D01*
X0283106Y0224885D02*
X0281906Y0224885D01*
X0281906Y0223686D02*
X0283106Y0223686D01*
X0283106Y0222488D02*
X0281906Y0222488D01*
X0281906Y0221289D02*
X0283106Y0221289D01*
X0283106Y0220091D02*
X0281906Y0220091D01*
X0281906Y0218892D02*
X0283106Y0218892D01*
X0283106Y0217694D02*
X0281906Y0217694D01*
X0283106Y0216495D02*
X0307392Y0216495D01*
X0310449Y0217694D02*
X0311649Y0217694D01*
X0311649Y0218892D02*
X0310449Y0218892D01*
X0310449Y0220091D02*
X0311649Y0220091D01*
X0310449Y0221289D02*
X0295523Y0221289D01*
X0283106Y0215297D02*
X0281906Y0215297D01*
X0281906Y0214098D02*
X0283106Y0214098D01*
X0283106Y0212900D02*
X0281906Y0212900D01*
X0281906Y0211701D02*
X0283106Y0211701D01*
X0283106Y0210503D02*
X0281906Y0210503D01*
X0281906Y0209304D02*
X0283106Y0209304D01*
X0283106Y0208106D02*
X0281906Y0208106D01*
X0281906Y0206907D02*
X0283106Y0206907D01*
X0283106Y0205709D02*
X0281906Y0205709D01*
X0281906Y0204510D02*
X0283106Y0204510D01*
X0283106Y0203312D02*
X0281906Y0203312D01*
X0287508Y0199716D02*
X0268831Y0199716D01*
X0270029Y0198518D02*
X0277739Y0198518D01*
X0279356Y0197307D02*
X0287928Y0197307D01*
X0288540Y0197920D01*
X0299654Y0197920D01*
X0307703Y0205969D01*
X0309671Y0205969D01*
X0308980Y0208106D02*
X0295523Y0208106D01*
X0295523Y0209304D02*
X0307090Y0209304D01*
X0307090Y0210503D02*
X0295523Y0210503D01*
X0295523Y0211701D02*
X0307090Y0211701D01*
X0305813Y0206907D02*
X0295523Y0206907D01*
X0295523Y0205709D02*
X0304615Y0205709D01*
X0303416Y0204510D02*
X0295523Y0204510D01*
X0295104Y0203312D02*
X0302218Y0203312D01*
X0301019Y0202113D02*
X0266780Y0202113D01*
X0266780Y0200915D02*
X0299821Y0200915D01*
X0287520Y0193724D02*
X0279710Y0193724D01*
X0278511Y0192525D02*
X0290901Y0192525D01*
X0291482Y0192189D02*
X0330931Y0192189D01*
X0353766Y0215024D01*
X0358097Y0215024D01*
X0362034Y0218961D01*
X0362034Y0223685D01*
X0361522Y0224197D01*
X0354829Y0224197D02*
X0342467Y0224197D01*
X0341406Y0212900D02*
X0352346Y0212900D01*
X0352978Y0211701D02*
X0340207Y0211701D01*
X0339009Y0210503D02*
X0352978Y0210503D01*
X0352978Y0209304D02*
X0337810Y0209304D01*
X0336612Y0208106D02*
X0352978Y0208106D01*
X0352978Y0206907D02*
X0335413Y0206907D01*
X0334215Y0205709D02*
X0352978Y0205709D01*
X0361364Y0207937D02*
X0365971Y0207937D01*
X0371089Y0213055D01*
X0371089Y0224079D02*
X0370971Y0224197D01*
X0388963Y0223843D02*
X0388963Y0216756D01*
X0388963Y0223843D02*
X0389199Y0224079D01*
X0421876Y0217694D02*
X0432678Y0217694D01*
X0432678Y0216495D02*
X0421876Y0216495D01*
X0421876Y0215297D02*
X0432678Y0215297D01*
X0432678Y0214098D02*
X0421876Y0214098D01*
X0421876Y0212900D02*
X0432678Y0212900D01*
X0432678Y0211701D02*
X0421876Y0211701D01*
X0421876Y0210503D02*
X0432678Y0210503D01*
X0432678Y0209304D02*
X0421876Y0209304D01*
X0421876Y0208106D02*
X0432678Y0208106D01*
X0432678Y0206907D02*
X0422512Y0206907D01*
X0423711Y0205709D02*
X0432744Y0205709D01*
X0438044Y0203312D02*
X0426108Y0203312D01*
X0424909Y0204510D02*
X0468771Y0204510D01*
X0469969Y0205709D02*
X0458646Y0205709D01*
X0458712Y0206907D02*
X0471168Y0206907D01*
X0472366Y0208106D02*
X0458712Y0208106D01*
X0458712Y0209304D02*
X0473565Y0209304D01*
X0475419Y0208331D02*
X0469514Y0202425D01*
X0439986Y0202425D01*
X0436719Y0199157D01*
X0436719Y0193961D01*
X0432956Y0193724D02*
X0421089Y0193724D01*
X0421089Y0194922D02*
X0432956Y0194922D01*
X0432956Y0196121D02*
X0421089Y0196121D01*
X0421089Y0197319D02*
X0432956Y0197319D01*
X0432956Y0198518D02*
X0421089Y0198518D01*
X0421529Y0199716D02*
X0434719Y0199716D01*
X0435647Y0200915D02*
X0422728Y0200915D01*
X0421089Y0192525D02*
X0432956Y0192525D01*
X0432956Y0191327D02*
X0421557Y0191327D01*
X0422756Y0190128D02*
X0432956Y0190128D01*
X0433077Y0188930D02*
X0423451Y0188930D01*
X0423451Y0187731D02*
X0452671Y0187731D01*
X0452368Y0186533D02*
X0423451Y0186533D01*
X0423451Y0185334D02*
X0451169Y0185334D01*
X0449971Y0184136D02*
X0423451Y0184136D01*
X0423451Y0182937D02*
X0448772Y0182937D01*
X0447574Y0181739D02*
X0423451Y0181739D01*
X0423451Y0180540D02*
X0447435Y0180540D01*
X0447435Y0179342D02*
X0423451Y0179342D01*
X0423451Y0178143D02*
X0447435Y0178143D01*
X0447435Y0176945D02*
X0423451Y0176945D01*
X0423451Y0175746D02*
X0443434Y0175746D01*
X0443134Y0174547D02*
X0423451Y0174547D01*
X0423451Y0173349D02*
X0443134Y0173349D01*
X0443134Y0172150D02*
X0423451Y0172150D01*
X0423451Y0170952D02*
X0443134Y0170952D01*
X0443134Y0169753D02*
X0423451Y0169753D01*
X0424644Y0168555D02*
X0443134Y0168555D01*
X0443134Y0167356D02*
X0425843Y0167356D01*
X0427041Y0166158D02*
X0443134Y0166158D01*
X0443671Y0164959D02*
X0428240Y0164959D01*
X0426610Y0163761D02*
X0415889Y0163761D01*
X0417087Y0164959D02*
X0425411Y0164959D01*
X0424213Y0166158D02*
X0418286Y0166158D01*
X0418333Y0166205D02*
X0424166Y0166205D01*
X0428528Y0161843D01*
X0442934Y0161843D01*
X0442934Y0160876D01*
X0443043Y0160469D01*
X0443253Y0160104D01*
X0443551Y0159806D01*
X0443916Y0159596D01*
X0444323Y0159487D01*
X0445360Y0159487D01*
X0445360Y0161843D01*
X0445360Y0161843D01*
X0445360Y0159487D01*
X0446398Y0159487D01*
X0446640Y0159551D01*
X0446882Y0159487D01*
X0447919Y0159487D01*
X0447919Y0161843D01*
X0447919Y0161843D01*
X0447919Y0159487D01*
X0448957Y0159487D01*
X0449199Y0159551D01*
X0449441Y0159487D01*
X0450478Y0159487D01*
X0450478Y0161843D01*
X0450479Y0161843D01*
X0450479Y0159487D01*
X0451516Y0159487D01*
X0451923Y0159596D01*
X0452080Y0159687D01*
X0454444Y0159687D01*
X0455222Y0160465D01*
X0468301Y0160465D01*
X0468301Y0131124D01*
X0473810Y0125616D01*
X0473810Y0124626D01*
X0474295Y0123456D01*
X0475190Y0122560D01*
X0476361Y0122076D01*
X0477628Y0122076D01*
X0477761Y0122131D01*
X0474739Y0123012D02*
X0467825Y0123012D01*
X0466627Y0124210D02*
X0473982Y0124210D01*
X0473810Y0125409D02*
X0465428Y0125409D01*
X0464230Y0126607D02*
X0472819Y0126607D01*
X0471620Y0127806D02*
X0463031Y0127806D01*
X0461833Y0129004D02*
X0470422Y0129004D01*
X0469223Y0130203D02*
X0460634Y0130203D01*
X0459436Y0131401D02*
X0468301Y0131401D01*
X0468301Y0132600D02*
X0458237Y0132600D01*
X0457039Y0133798D02*
X0468301Y0133798D01*
X0468301Y0134997D02*
X0455840Y0134997D01*
X0453533Y0136195D02*
X0468301Y0136195D01*
X0468301Y0137394D02*
X0447197Y0137394D01*
X0447197Y0138592D02*
X0468301Y0138592D01*
X0468301Y0139791D02*
X0447010Y0139791D01*
X0444770Y0139791D02*
X0444770Y0139791D01*
X0444770Y0138592D02*
X0444770Y0138592D01*
X0445360Y0138252D02*
X0445360Y0162465D01*
X0447919Y0162465D01*
X0450478Y0162465D01*
X0450478Y0161364D02*
X0450479Y0161364D01*
X0450478Y0160165D02*
X0450479Y0160165D01*
X0447919Y0160165D02*
X0447919Y0160165D01*
X0447919Y0161364D02*
X0447919Y0161364D01*
X0445360Y0161364D02*
X0445360Y0161364D01*
X0445360Y0160165D02*
X0445360Y0160165D01*
X0443218Y0160165D02*
X0412293Y0160165D01*
X0411640Y0159512D02*
X0418333Y0166205D01*
X0414690Y0162562D02*
X0427808Y0162562D01*
X0413492Y0161364D02*
X0442934Y0161364D01*
X0453038Y0162465D02*
X0470104Y0162465D01*
X0470301Y0162661D01*
X0470301Y0131953D01*
X0476994Y0125260D01*
X0464655Y0119416D02*
X0425451Y0119416D01*
X0425451Y0120614D02*
X0463457Y0120614D01*
X0462258Y0121813D02*
X0425451Y0121813D01*
X0425451Y0123012D02*
X0461060Y0123012D01*
X0459861Y0124210D02*
X0446809Y0124210D01*
X0447197Y0125409D02*
X0458663Y0125409D01*
X0457464Y0126607D02*
X0447197Y0126607D01*
X0447197Y0127806D02*
X0456266Y0127806D01*
X0441531Y0127806D02*
X0440331Y0127806D01*
X0440331Y0129004D02*
X0424110Y0129004D01*
X0425308Y0127806D02*
X0434666Y0127806D01*
X0434666Y0126607D02*
X0425451Y0126607D01*
X0425451Y0125409D02*
X0434666Y0125409D01*
X0435053Y0124210D02*
X0425451Y0124210D01*
X0423451Y0124210D02*
X0337755Y0124210D01*
X0336557Y0123012D02*
X0423451Y0123012D01*
X0423451Y0121813D02*
X0343816Y0121813D01*
X0343870Y0120614D02*
X0423451Y0120614D01*
X0423451Y0119416D02*
X0343870Y0119416D01*
X0343870Y0117849D02*
X0340311Y0117849D01*
X0340311Y0113896D01*
X0342480Y0113896D01*
X0342887Y0114005D01*
X0343252Y0114216D01*
X0343550Y0114514D01*
X0343761Y0114878D01*
X0343870Y0115285D01*
X0343870Y0117849D01*
X0343870Y0117019D02*
X0423451Y0117019D01*
X0423451Y0118217D02*
X0340311Y0118217D01*
X0340311Y0117019D02*
X0339111Y0117019D01*
X0339111Y0115820D02*
X0340311Y0115820D01*
X0340311Y0114622D02*
X0339111Y0114622D01*
X0343613Y0114622D02*
X0423451Y0114622D01*
X0423451Y0115820D02*
X0343870Y0115820D01*
X0340311Y0119416D02*
X0339111Y0119416D01*
X0339111Y0120614D02*
X0340311Y0120614D01*
X0340311Y0121813D02*
X0339111Y0121813D01*
X0338954Y0125409D02*
X0423451Y0125409D01*
X0423451Y0126607D02*
X0339199Y0126607D01*
X0339199Y0127806D02*
X0422480Y0127806D01*
X0421281Y0129004D02*
X0339199Y0129004D01*
X0339199Y0130203D02*
X0420083Y0130203D01*
X0418884Y0131401D02*
X0339199Y0131401D01*
X0339199Y0132600D02*
X0417686Y0132600D01*
X0416487Y0133798D02*
X0339199Y0133798D01*
X0339199Y0134997D02*
X0415289Y0134997D01*
X0414090Y0136195D02*
X0339199Y0136195D01*
X0339199Y0137394D02*
X0412892Y0137394D01*
X0411693Y0138592D02*
X0339199Y0138592D01*
X0339199Y0139791D02*
X0410495Y0139791D01*
X0409296Y0140989D02*
X0339199Y0140989D01*
X0339199Y0142188D02*
X0408098Y0142188D01*
X0415115Y0146982D02*
X0468301Y0146982D01*
X0468301Y0148180D02*
X0413916Y0148180D01*
X0412718Y0149379D02*
X0468301Y0149379D01*
X0468301Y0150577D02*
X0411640Y0150577D01*
X0411640Y0150457D02*
X0411640Y0159512D01*
X0411640Y0158967D02*
X0468301Y0158967D01*
X0468301Y0160165D02*
X0454923Y0160165D01*
X0454727Y0164959D02*
X0459213Y0164959D01*
X0455264Y0170952D02*
X0466899Y0170952D01*
X0465700Y0172150D02*
X0455264Y0172150D01*
X0455264Y0173349D02*
X0464502Y0173349D01*
X0463303Y0174547D02*
X0455264Y0174547D01*
X0454964Y0175746D02*
X0462105Y0175746D01*
X0484615Y0167118D02*
X0486933Y0167118D01*
X0486933Y0166176D01*
X0487140Y0165968D01*
X0486983Y0165811D01*
X0484447Y0165811D01*
X0484615Y0165979D01*
X0484615Y0167118D01*
X0484615Y0166158D02*
X0486951Y0166158D01*
X0507900Y0158764D02*
X0512939Y0163803D01*
X0507900Y0158764D02*
X0507900Y0150260D01*
X0511640Y0141598D02*
X0511561Y0141520D01*
X0511561Y0139118D01*
X0516758Y0133921D01*
X0525026Y0126441D02*
X0531404Y0120063D01*
X0531404Y0113016D01*
X0522230Y0113016D01*
X0515971Y0106756D01*
X0515971Y0096323D01*
X0515734Y0096087D01*
X0517703Y0096087D02*
X0517703Y0099827D01*
X0521482Y0103606D01*
X0528687Y0103606D01*
X0531404Y0106323D01*
X0531404Y0113016D02*
X0530695Y0113724D01*
X0547467Y0112268D02*
X0548923Y0113724D01*
X0548923Y0120575D01*
X0552663Y0113961D02*
X0560656Y0105969D01*
X0568923Y0105969D02*
X0568923Y0114039D01*
X0568726Y0114236D01*
X0552663Y0113961D02*
X0552663Y0128843D01*
X0563136Y0128843D01*
X0563372Y0129079D01*
X0537230Y0130772D02*
X0522860Y0145142D01*
X0522860Y0160220D01*
X0529553Y0160220D02*
X0529553Y0170142D01*
X0529475Y0170220D01*
X0529750Y0170496D01*
X0529750Y0179984D01*
X0523372Y0186362D01*
X0523372Y0191047D01*
X0518429Y0193095D02*
X0518429Y0175986D01*
X0512939Y0170496D01*
X0512191Y0169748D01*
X0522663Y0170339D02*
X0522663Y0178016D01*
X0522663Y0170339D02*
X0522782Y0170220D01*
X0538412Y0178016D02*
X0552506Y0192110D01*
X0552506Y0209906D01*
X0552506Y0218173D02*
X0552506Y0222425D01*
X0554947Y0224866D01*
X0568451Y0218764D02*
X0568451Y0218055D01*
X0573451Y0213055D01*
X0521325Y0195991D02*
X0518429Y0193095D01*
X0498977Y0200915D02*
X0470832Y0200915D01*
X0450909Y0192525D02*
X0440481Y0192525D01*
X0440481Y0191327D02*
X0450909Y0191327D01*
X0450909Y0190128D02*
X0440481Y0190128D01*
X0440360Y0188930D02*
X0451030Y0188930D01*
X0419081Y0177346D02*
X0416347Y0174613D01*
X0416347Y0173007D01*
X0413348Y0170008D01*
X0410212Y0166872D01*
X0407871Y0166872D01*
X0407051Y0167692D01*
X0407051Y0168884D01*
X0406482Y0169453D01*
X0403923Y0176047D02*
X0405223Y0177346D01*
X0412388Y0177346D01*
X0394711Y0178803D02*
X0391010Y0182504D01*
X0386325Y0182504D01*
X0372152Y0182780D02*
X0372112Y0182740D01*
X0367152Y0182740D01*
X0365577Y0184315D01*
X0365577Y0193370D01*
X0373884Y0201677D01*
X0380144Y0201677D01*
X0361797Y0201677D01*
X0361364Y0201244D01*
X0339929Y0192525D02*
X0292064Y0192525D01*
X0292063Y0191327D02*
X0290901Y0191327D01*
X0290901Y0190128D02*
X0292063Y0190128D01*
X0292063Y0188930D02*
X0290901Y0188930D01*
X0290901Y0187731D02*
X0292063Y0187731D01*
X0292063Y0186533D02*
X0290901Y0186533D01*
X0288216Y0186533D02*
X0276546Y0186533D01*
X0277292Y0187731D02*
X0287520Y0187731D01*
X0287520Y0188930D02*
X0277292Y0188930D01*
X0277292Y0190128D02*
X0287520Y0190128D01*
X0287520Y0191327D02*
X0277313Y0191327D01*
X0274238Y0192189D02*
X0279356Y0197307D01*
X0274238Y0192189D02*
X0273530Y0192189D01*
X0266837Y0198882D01*
X0262821Y0198882D01*
X0256128Y0198882D02*
X0250538Y0193291D01*
X0250538Y0191638D01*
X0249199Y0192976D01*
X0242349Y0192976D01*
X0238215Y0188843D01*
X0236758Y0188843D01*
X0231719Y0183803D01*
X0231719Y0162268D01*
X0232775Y0161211D01*
X0232775Y0157274D01*
X0238057Y0151992D01*
X0239396Y0151992D01*
X0252479Y0156570D02*
X0270436Y0156570D01*
X0269238Y0155371D02*
X0256343Y0155371D01*
X0256741Y0154173D02*
X0264496Y0154173D01*
X0263577Y0152974D02*
X0256741Y0152974D01*
X0256741Y0151776D02*
X0263577Y0151776D01*
X0271635Y0157768D02*
X0252619Y0157768D01*
X0252292Y0158967D02*
X0272833Y0158967D01*
X0274032Y0160165D02*
X0251316Y0160165D01*
X0251496Y0161967D02*
X0251903Y0162076D01*
X0252268Y0162287D01*
X0252566Y0162584D01*
X0252777Y0162949D01*
X0252886Y0163356D01*
X0252886Y0165526D01*
X0248933Y0165526D01*
X0248933Y0161967D01*
X0251496Y0161967D01*
X0252544Y0162562D02*
X0276429Y0162562D01*
X0275230Y0161364D02*
X0235772Y0161364D01*
X0234574Y0162562D02*
X0244122Y0162562D01*
X0244100Y0162584D02*
X0244398Y0162287D01*
X0244762Y0162076D01*
X0245169Y0161967D01*
X0247733Y0161967D01*
X0247733Y0165526D01*
X0243780Y0165526D01*
X0243780Y0163356D01*
X0243889Y0162949D01*
X0244100Y0162584D01*
X0243780Y0163761D02*
X0233719Y0163761D01*
X0233719Y0164959D02*
X0234495Y0164959D01*
X0236374Y0164959D02*
X0237142Y0164959D01*
X0237142Y0166158D02*
X0236374Y0166158D01*
X0236374Y0167356D02*
X0237142Y0167356D01*
X0237142Y0168555D02*
X0236374Y0168555D01*
X0236758Y0169157D02*
X0239789Y0166126D01*
X0248333Y0166126D01*
X0248933Y0166158D02*
X0260317Y0166158D01*
X0260317Y0167356D02*
X0252886Y0167356D01*
X0252886Y0168555D02*
X0260317Y0168555D01*
X0256910Y0169753D02*
X0252686Y0169753D01*
X0252886Y0164959D02*
X0260850Y0164959D01*
X0262049Y0163761D02*
X0252886Y0163761D01*
X0248933Y0163761D02*
X0247733Y0163761D01*
X0247733Y0164959D02*
X0248933Y0164959D01*
X0247733Y0166158D02*
X0240219Y0166158D01*
X0241326Y0167356D02*
X0243780Y0167356D01*
X0243780Y0168555D02*
X0241326Y0168555D01*
X0241326Y0169542D02*
X0241326Y0171050D01*
X0238650Y0173726D01*
X0237142Y0173726D01*
X0237142Y0169542D01*
X0241326Y0169542D01*
X0241326Y0169753D02*
X0243980Y0169753D01*
X0243980Y0170952D02*
X0241326Y0170952D01*
X0240226Y0172150D02*
X0243096Y0172150D01*
X0241897Y0173349D02*
X0239027Y0173349D01*
X0237142Y0173349D02*
X0236374Y0173349D01*
X0236374Y0172150D02*
X0237142Y0172150D01*
X0237142Y0170952D02*
X0236374Y0170952D01*
X0236374Y0169753D02*
X0237142Y0169753D01*
X0234489Y0173349D02*
X0233719Y0173349D01*
X0234550Y0174547D02*
X0240699Y0174547D01*
X0243923Y0178803D02*
X0248333Y0178803D01*
X0248333Y0181835D01*
X0246797Y0183370D01*
X0244216Y0186458D02*
X0236758Y0179000D01*
X0248333Y0178803D02*
X0248333Y0172819D01*
X0254553Y0177622D02*
X0254553Y0183094D01*
X0254278Y0183370D01*
X0253530Y0183370D01*
X0249829Y0187071D01*
X0248817Y0187071D01*
X0248558Y0187329D01*
X0245036Y0187329D01*
X0244216Y0186509D01*
X0244216Y0186458D01*
X0254553Y0177622D02*
X0264317Y0167858D01*
X0264317Y0167150D01*
X0268317Y0167356D02*
X0281223Y0167356D01*
X0280024Y0166158D02*
X0268317Y0166158D01*
X0267784Y0164959D02*
X0278826Y0164959D01*
X0277627Y0163761D02*
X0266585Y0163761D01*
X0268317Y0168555D02*
X0282422Y0168555D01*
X0283620Y0169753D02*
X0267370Y0169753D01*
X0266172Y0170952D02*
X0284819Y0170952D01*
X0286017Y0172150D02*
X0262861Y0172150D01*
X0268317Y0175746D02*
X0290375Y0175746D01*
X0290375Y0176945D02*
X0268317Y0176945D01*
X0268854Y0178143D02*
X0290375Y0178143D01*
X0290388Y0179342D02*
X0270052Y0179342D01*
X0271251Y0180540D02*
X0291306Y0180540D01*
X0296040Y0180540D02*
X0297240Y0180540D01*
X0297240Y0179342D02*
X0296040Y0179342D01*
X0296040Y0178143D02*
X0297240Y0178143D01*
X0297240Y0176945D02*
X0296040Y0176945D01*
X0310101Y0169753D02*
X0346674Y0169753D01*
X0347872Y0168555D02*
X0310493Y0168555D01*
X0310417Y0167356D02*
X0349071Y0167356D01*
X0350269Y0166158D02*
X0309797Y0166158D01*
X0302705Y0164959D02*
X0351010Y0164959D01*
X0351010Y0163761D02*
X0299187Y0163761D01*
X0297919Y0163761D02*
X0297919Y0163761D01*
X0297919Y0164959D02*
X0297919Y0164959D01*
X0297919Y0166158D02*
X0297919Y0166158D01*
X0295360Y0166158D02*
X0295360Y0166158D01*
X0295360Y0164959D02*
X0295360Y0164959D01*
X0295360Y0163761D02*
X0295360Y0163761D01*
X0294093Y0163761D02*
X0294069Y0163761D01*
X0296628Y0163761D02*
X0296652Y0163761D01*
X0290409Y0164959D02*
X0281654Y0164959D01*
X0248933Y0162562D02*
X0247733Y0162562D01*
X0247554Y0160165D02*
X0244845Y0160165D01*
X0246043Y0158967D02*
X0246578Y0158967D01*
X0243780Y0164959D02*
X0239021Y0164959D01*
X0239396Y0143724D02*
X0239396Y0137661D01*
X0239199Y0137465D01*
X0249435Y0136195D02*
X0265577Y0136195D01*
X0265577Y0137394D02*
X0250152Y0137394D01*
X0251350Y0138592D02*
X0265577Y0138592D01*
X0265577Y0139791D02*
X0252191Y0139791D01*
X0318628Y0150577D02*
X0318628Y0150577D01*
X0318628Y0151776D02*
X0318628Y0151776D01*
X0380538Y0155575D02*
X0381089Y0155024D01*
X0403923Y0155024D01*
X0419514Y0139433D01*
X0422895Y0139202D02*
X0422895Y0140106D01*
X0422380Y0141348D01*
X0421429Y0142299D01*
X0420186Y0142814D01*
X0419282Y0142814D01*
X0411640Y0150457D01*
X0411640Y0151776D02*
X0468301Y0151776D01*
X0468301Y0152974D02*
X0411640Y0152974D01*
X0411640Y0154173D02*
X0468301Y0154173D01*
X0468301Y0155371D02*
X0411640Y0155371D01*
X0411640Y0156570D02*
X0468301Y0156570D01*
X0468301Y0157768D02*
X0411640Y0157768D01*
X0403923Y0155024D02*
X0403923Y0160594D01*
X0416313Y0145783D02*
X0468301Y0145783D01*
X0468301Y0144585D02*
X0417512Y0144585D01*
X0418710Y0143386D02*
X0468301Y0143386D01*
X0468301Y0142188D02*
X0421541Y0142188D01*
X0422529Y0140989D02*
X0468301Y0140989D01*
X0444770Y0137661D02*
X0444770Y0137661D01*
X0442211Y0137661D02*
X0439652Y0137661D01*
X0439652Y0137661D01*
X0442211Y0137661D01*
X0442211Y0137661D01*
X0442078Y0137661D01*
X0439652Y0137661D01*
X0439652Y0137662D02*
X0439652Y0137662D01*
X0439652Y0140639D01*
X0440689Y0140639D01*
X0440931Y0140574D01*
X0441173Y0140639D01*
X0442211Y0140639D01*
X0442211Y0137662D01*
X0442211Y0138592D02*
X0442211Y0138592D01*
X0442211Y0139791D02*
X0442211Y0139791D01*
X0439652Y0139791D02*
X0439652Y0139791D01*
X0439652Y0140639D02*
X0438614Y0140639D01*
X0438207Y0140530D01*
X0438050Y0140439D01*
X0435686Y0140439D01*
X0434866Y0139619D01*
X0434866Y0139039D01*
X0423057Y0139039D01*
X0422895Y0139202D01*
X0422895Y0139791D02*
X0435037Y0139791D01*
X0439652Y0140639D02*
X0439652Y0137662D01*
X0439652Y0138592D02*
X0439652Y0138592D01*
X0435193Y0134997D02*
X0421377Y0134997D01*
X0421089Y0133798D02*
X0434666Y0133798D01*
X0434666Y0132600D02*
X0421089Y0132600D01*
X0421713Y0131401D02*
X0434666Y0131401D01*
X0434666Y0130203D02*
X0422911Y0130203D01*
X0440331Y0126607D02*
X0441531Y0126607D01*
X0441531Y0125409D02*
X0440331Y0125409D01*
X0440331Y0124210D02*
X0441531Y0124210D01*
X0440931Y0116362D02*
X0425931Y0101362D01*
X0425451Y0102637D02*
X0426531Y0102637D01*
X0426531Y0103835D02*
X0425451Y0103835D01*
X0425451Y0105034D02*
X0426531Y0105034D01*
X0425451Y0106232D02*
X0477839Y0106232D01*
X0479037Y0105034D02*
X0429923Y0105034D01*
X0430090Y0103835D02*
X0480236Y0103835D01*
X0481434Y0102637D02*
X0430090Y0102637D01*
X0425451Y0107431D02*
X0476640Y0107431D01*
X0475442Y0108629D02*
X0425451Y0108629D01*
X0425451Y0109828D02*
X0474243Y0109828D01*
X0473045Y0111026D02*
X0425451Y0111026D01*
X0425451Y0112225D02*
X0471846Y0112225D01*
X0470648Y0113423D02*
X0425451Y0113423D01*
X0425451Y0114622D02*
X0469449Y0114622D01*
X0468251Y0115820D02*
X0425451Y0115820D01*
X0425451Y0117019D02*
X0467052Y0117019D01*
X0465854Y0118217D02*
X0425451Y0118217D01*
X0423451Y0113423D02*
X0326969Y0113423D01*
X0325770Y0112225D02*
X0423451Y0112225D01*
X0423451Y0111026D02*
X0324572Y0111026D01*
X0323373Y0109828D02*
X0423451Y0109828D01*
X0415247Y0105034D02*
X0299353Y0105034D01*
X0299785Y0103835D02*
X0415079Y0103835D01*
X0413215Y0075071D02*
X0342332Y0075071D01*
X0340065Y0077307D02*
X0339986Y0077228D01*
X0340065Y0077307D02*
X0340065Y0084433D01*
X0335712Y0084659D02*
X0326160Y0084659D01*
X0326160Y0083461D02*
X0335712Y0083461D01*
X0335712Y0082262D02*
X0327472Y0082262D01*
X0328671Y0081064D02*
X0335943Y0081064D01*
X0338065Y0079865D02*
X0329869Y0079865D01*
X0331068Y0078667D02*
X0337135Y0078667D01*
X0336802Y0077468D02*
X0331719Y0077468D01*
X0331719Y0076270D02*
X0336937Y0076270D01*
X0337640Y0075071D02*
X0331719Y0075071D01*
X0331719Y0073873D02*
X0413215Y0073873D01*
X0413215Y0072674D02*
X0331719Y0072674D01*
X0331719Y0071476D02*
X0413215Y0071476D01*
X0413215Y0070277D02*
X0331719Y0070277D01*
X0331719Y0069078D02*
X0413215Y0069078D01*
X0413215Y0067880D02*
X0331719Y0067880D01*
X0331719Y0066681D02*
X0413215Y0066681D01*
X0413215Y0065483D02*
X0331719Y0065483D01*
X0331719Y0064284D02*
X0413215Y0064284D01*
X0413215Y0063086D02*
X0331719Y0063086D01*
X0331719Y0061887D02*
X0413215Y0061887D01*
X0412161Y0060689D02*
X0410961Y0060689D01*
X0410961Y0061033D02*
X0408791Y0061033D01*
X0408384Y0060924D01*
X0408020Y0060713D01*
X0407722Y0060415D01*
X0407511Y0060051D01*
X0407402Y0059644D01*
X0407402Y0057277D01*
X0410961Y0057277D01*
X0410961Y0061033D01*
X0410961Y0059490D02*
X0412161Y0059490D01*
X0412161Y0058292D02*
X0410961Y0058292D01*
X0410961Y0057093D02*
X0331719Y0057093D01*
X0331719Y0055895D02*
X0407402Y0055895D01*
X0407402Y0056077D02*
X0407402Y0053711D01*
X0407511Y0053304D01*
X0407722Y0052939D01*
X0408020Y0052641D01*
X0408384Y0052430D01*
X0408791Y0052321D01*
X0410961Y0052321D01*
X0410961Y0056077D01*
X0407402Y0056077D01*
X0407402Y0054696D02*
X0331719Y0054696D01*
X0331719Y0053498D02*
X0407459Y0053498D01*
X0406384Y0052299D02*
X0413215Y0052299D01*
X0413215Y0051101D02*
X0408545Y0051101D01*
X0410101Y0049902D02*
X0413215Y0049902D01*
X0413215Y0048704D02*
X0411263Y0048704D01*
X0412192Y0047505D02*
X0413215Y0047505D01*
X0413215Y0046307D02*
X0412938Y0046307D01*
X0412161Y0053498D02*
X0410961Y0053498D01*
X0410961Y0054696D02*
X0412161Y0054696D01*
X0412161Y0055895D02*
X0410961Y0055895D01*
X0407402Y0058292D02*
X0331719Y0058292D01*
X0331719Y0059490D02*
X0407402Y0059490D01*
X0407995Y0060689D02*
X0331719Y0060689D01*
X0324356Y0058094D02*
X0324160Y0058291D01*
X0324160Y0070181D01*
X0323018Y0071323D01*
X0310852Y0071323D01*
X0298805Y0083370D01*
X0297585Y0083370D01*
X0295616Y0083370D02*
X0295616Y0085732D01*
X0295530Y0085818D01*
X0295616Y0085732D01*
X0295530Y0085818D02*
X0295530Y0087309D01*
X0295498Y0087340D01*
X0295498Y0088252D01*
X0297073Y0089827D01*
X0305419Y0089827D01*
X0309772Y0089453D02*
X0319807Y0089453D01*
X0319807Y0088255D02*
X0309772Y0088255D01*
X0309772Y0087056D02*
X0320186Y0087056D01*
X0322160Y0085858D02*
X0308129Y0085858D01*
X0309327Y0084659D02*
X0322160Y0084659D01*
X0322160Y0083461D02*
X0310526Y0083461D01*
X0324160Y0076874D02*
X0324160Y0090575D01*
X0319807Y0090652D02*
X0309772Y0090652D01*
X0309772Y0091850D02*
X0311971Y0091850D01*
X0313671Y0091850D02*
X0319807Y0091850D01*
X0319807Y0093049D02*
X0315428Y0093049D01*
X0315979Y0094247D02*
X0319674Y0094247D01*
X0319607Y0095446D02*
X0316005Y0095446D01*
X0315564Y0096644D02*
X0319607Y0096644D01*
X0319607Y0099041D02*
X0309772Y0099041D01*
X0309191Y0100240D02*
X0319661Y0100240D01*
X0323560Y0100240D02*
X0324760Y0100240D01*
X0324760Y0099041D02*
X0323560Y0099041D01*
X0323560Y0097843D02*
X0314146Y0097843D01*
X0312821Y0094945D02*
X0311246Y0096520D01*
X0305419Y0096520D01*
X0301067Y0096644D02*
X0297342Y0096644D01*
X0298541Y0095446D02*
X0301067Y0095446D01*
X0301067Y0094247D02*
X0299739Y0094247D01*
X0300938Y0093049D02*
X0301150Y0093049D01*
X0309689Y0093049D02*
X0310214Y0093049D01*
X0301067Y0097843D02*
X0296144Y0097843D01*
X0297585Y0098839D02*
X0297585Y0099827D01*
X0297585Y0098839D01*
X0297585Y0099041D02*
X0297585Y0099041D01*
X0297585Y0099827D02*
X0297585Y0099827D01*
X0298964Y0099041D02*
X0301067Y0099041D01*
X0301648Y0100240D02*
X0299785Y0100240D01*
X0297617Y0102189D02*
X0297617Y0102189D01*
X0295616Y0102189D02*
X0295498Y0102189D01*
X0297585Y0104551D02*
X0297585Y0104551D01*
X0297585Y0105034D02*
X0297585Y0105034D01*
X0295331Y0108629D02*
X0295199Y0108629D01*
X0328167Y0114622D02*
X0329353Y0114622D01*
X0328512Y0089453D02*
X0335512Y0089453D01*
X0335540Y0088255D02*
X0328512Y0088255D01*
X0328133Y0087056D02*
X0335712Y0087056D01*
X0335712Y0085858D02*
X0326160Y0085858D01*
X0311443Y0060102D02*
X0291679Y0079866D01*
X0291679Y0083370D01*
X0293530Y0083488D02*
X0293648Y0083370D01*
X0293530Y0083488D02*
X0293530Y0086480D01*
X0292624Y0087386D01*
X0261758Y0087386D01*
X0271758Y0081835D02*
X0271876Y0081953D01*
X0271758Y0081835D02*
X0271758Y0062780D01*
X0272270Y0062268D01*
X0279160Y0062268D01*
X0282309Y0057937D02*
X0282309Y0053764D01*
X0281837Y0053291D01*
X0281758Y0053370D01*
X0287742Y0054079D02*
X0288530Y0053291D01*
X0287742Y0054079D02*
X0287742Y0083370D01*
X0285774Y0083370D02*
X0285774Y0061402D01*
X0282309Y0057937D01*
X0307585Y0045614D02*
X0307900Y0045929D01*
X0307585Y0045614D02*
X0307585Y0041677D01*
X0281797Y0041677D01*
X0281719Y0041598D01*
X0283175Y0030850D02*
X0289199Y0030850D01*
X0294593Y0025457D01*
X0328569Y0025457D01*
X0338687Y0035575D01*
X0344986Y0035575D01*
X0344986Y0036835D01*
X0341475Y0040314D02*
X0331719Y0040314D01*
X0331719Y0039116D02*
X0340277Y0039116D01*
X0340043Y0037917D02*
X0331719Y0037917D01*
X0331719Y0036719D02*
X0337003Y0036719D01*
X0335804Y0035520D02*
X0331719Y0035520D01*
X0331719Y0034322D02*
X0334606Y0034322D01*
X0333407Y0033123D02*
X0331719Y0033123D01*
X0331719Y0031925D02*
X0332209Y0031925D01*
X0335468Y0029528D02*
X0371811Y0029528D01*
X0371490Y0030726D02*
X0336667Y0030726D01*
X0337865Y0031925D02*
X0342905Y0031925D01*
X0341707Y0033123D02*
X0339064Y0033123D01*
X0347067Y0031925D02*
X0371398Y0031925D01*
X0371398Y0033123D02*
X0348266Y0033123D01*
X0349464Y0034322D02*
X0371529Y0034322D01*
X0371850Y0035520D02*
X0349930Y0035520D01*
X0349930Y0036719D02*
X0372238Y0036719D01*
X0372930Y0037917D02*
X0349930Y0037917D01*
X0349696Y0039116D02*
X0373713Y0039116D01*
X0374912Y0040314D02*
X0348498Y0040314D01*
X0347299Y0041513D02*
X0376593Y0041513D01*
X0379620Y0042711D02*
X0347854Y0042711D01*
X0349052Y0043910D02*
X0387509Y0043910D01*
X0387169Y0042711D02*
X0384176Y0042711D01*
X0387967Y0045108D02*
X0349930Y0045108D01*
X0349930Y0046307D02*
X0388559Y0046307D01*
X0389304Y0047505D02*
X0349930Y0047505D01*
X0349930Y0048704D02*
X0390233Y0048704D01*
X0391396Y0049902D02*
X0348910Y0049902D01*
X0347711Y0051101D02*
X0392952Y0051101D01*
X0395112Y0052299D02*
X0342350Y0052299D01*
X0340419Y0051402D02*
X0344986Y0046835D01*
X0340043Y0046307D02*
X0331719Y0046307D01*
X0331719Y0047505D02*
X0340043Y0047505D01*
X0340043Y0048704D02*
X0331719Y0048704D01*
X0331719Y0045108D02*
X0340043Y0045108D01*
X0340920Y0043910D02*
X0331719Y0043910D01*
X0331719Y0042711D02*
X0342119Y0042711D01*
X0342674Y0041513D02*
X0331719Y0041513D01*
X0319514Y0038646D02*
X0319514Y0031126D01*
X0319278Y0030890D01*
X0312585Y0030890D02*
X0308471Y0035004D01*
X0308471Y0038921D01*
X0306699Y0038921D02*
X0305026Y0038921D01*
X0301601Y0035496D01*
X0301601Y0030890D01*
X0301561Y0030850D01*
X0294908Y0030811D02*
X0294868Y0030850D01*
X0289199Y0030850D01*
X0276482Y0030850D02*
X0276325Y0030693D01*
X0266955Y0030693D01*
X0258687Y0030693D02*
X0258687Y0031756D01*
X0253372Y0037071D01*
X0311443Y0032031D02*
X0312585Y0030890D01*
X0311443Y0032031D02*
X0311443Y0060102D01*
X0324356Y0051402D02*
X0340419Y0051402D01*
X0334270Y0028329D02*
X0372154Y0028329D01*
X0372846Y0027131D02*
X0333071Y0027131D01*
X0331873Y0025932D02*
X0373568Y0025932D01*
X0374766Y0024734D02*
X0331719Y0024734D01*
X0331719Y0023535D02*
X0376341Y0023535D01*
X0379078Y0022337D02*
X0331719Y0022337D01*
X0331903Y0021138D02*
X0417545Y0021138D01*
X0417545Y0019940D02*
X0333102Y0019940D01*
X0334300Y0018741D02*
X0417545Y0018741D01*
X0417545Y0017543D02*
X0335499Y0017543D01*
X0336697Y0016344D02*
X0416504Y0016344D01*
X0415305Y0015145D02*
X0337896Y0015145D01*
X0339094Y0013947D02*
X0414107Y0013947D01*
X0412908Y0012748D02*
X0340293Y0012748D01*
X0341491Y0011550D02*
X0411710Y0011550D01*
X0417545Y0022337D02*
X0384719Y0022337D01*
X0387455Y0023535D02*
X0417545Y0023535D01*
X0417545Y0024734D02*
X0389030Y0024734D01*
X0390228Y0025932D02*
X0397789Y0025932D01*
X0400148Y0025932D02*
X0401348Y0025932D01*
X0401348Y0027131D02*
X0400148Y0027131D01*
X0400148Y0028329D02*
X0401348Y0028329D01*
X0401348Y0029528D02*
X0400148Y0029528D01*
X0400148Y0030726D02*
X0401348Y0030726D01*
X0401348Y0031925D02*
X0400148Y0031925D01*
X0400148Y0033123D02*
X0401348Y0033123D01*
X0401348Y0034322D02*
X0400148Y0034322D01*
X0400148Y0035520D02*
X0401348Y0035520D01*
X0401348Y0036719D02*
X0400148Y0036719D01*
X0400148Y0037917D02*
X0401348Y0037917D01*
X0400748Y0039551D02*
X0402978Y0041781D01*
X0402978Y0051402D01*
X0402978Y0067386D01*
X0401348Y0052299D02*
X0400148Y0052299D01*
X0400148Y0051101D02*
X0401348Y0051101D01*
X0401348Y0049902D02*
X0400148Y0049902D01*
X0400148Y0048704D02*
X0401348Y0048704D01*
X0401348Y0047505D02*
X0400148Y0047505D01*
X0400148Y0046307D02*
X0401348Y0046307D01*
X0401348Y0045108D02*
X0400148Y0045108D01*
X0400148Y0043910D02*
X0401348Y0043910D01*
X0401348Y0042711D02*
X0400148Y0042711D01*
X0400148Y0041513D02*
X0401348Y0041513D01*
X0401348Y0040314D02*
X0400148Y0040314D01*
X0413113Y0033123D02*
X0413215Y0033123D01*
X0413215Y0031925D02*
X0412411Y0031925D01*
X0413215Y0030726D02*
X0411532Y0030726D01*
X0410431Y0029528D02*
X0414065Y0029528D01*
X0415264Y0028329D02*
X0409035Y0028329D01*
X0407071Y0027131D02*
X0416462Y0027131D01*
X0417218Y0025932D02*
X0403707Y0025932D01*
X0394425Y0027131D02*
X0390951Y0027131D01*
X0391643Y0028329D02*
X0392461Y0028329D01*
X0279750Y0075260D02*
X0279750Y0079315D01*
X0283773Y0083338D01*
X0258097Y0072898D02*
X0253293Y0072898D01*
X0487191Y0096087D02*
X0505892Y0096087D01*
X0507860Y0096087D02*
X0507860Y0105811D01*
X0503766Y0109906D01*
X0503766Y0115457D01*
X0503687Y0115535D01*
X0510380Y0115535D02*
X0510380Y0121402D01*
X0508490Y0123291D01*
X0537230Y0130772D02*
X0537230Y0101500D01*
X0533510Y0097780D01*
X0531738Y0097780D02*
X0530223Y0097780D01*
X0524632Y0092189D01*
X0528175Y0092189D01*
X0533963Y0086402D01*
X0540774Y0091795D02*
X0537545Y0095024D01*
X0532624Y0095024D01*
X0524546Y0096606D02*
X0520191Y0096606D01*
X0519703Y0096119D01*
X0524632Y0092189D02*
X0512427Y0092189D01*
X0497255Y0102637D02*
X0488387Y0102637D01*
X0499829Y0078409D02*
X0504750Y0078409D01*
X0505892Y0077268D01*
X0507860Y0077268D02*
X0507860Y0073055D01*
X0507703Y0072898D01*
X0564593Y0149669D02*
X0564593Y0149866D01*
X0554947Y0159512D01*
X0554947Y0167780D02*
X0564868Y0167780D01*
X0567624Y0170535D01*
X0567624Y0180378D02*
X0550223Y0180378D01*
X0544317Y0174472D01*
X0446295Y0205709D02*
X0445095Y0205709D01*
X0445095Y0206907D02*
X0446295Y0206907D01*
X0446295Y0208106D02*
X0445095Y0208106D01*
X0445095Y0209304D02*
X0446295Y0209304D01*
X0446295Y0210503D02*
X0445095Y0210503D01*
X0445095Y0211701D02*
X0446295Y0211701D01*
X0446295Y0212900D02*
X0445095Y0212900D01*
X0445095Y0214098D02*
X0446295Y0214098D01*
X0446295Y0215297D02*
X0445095Y0215297D01*
X0445095Y0216495D02*
X0446295Y0216495D01*
X0328963Y0232740D02*
X0328766Y0232543D01*
X0321679Y0232543D01*
X0321679Y0257951D01*
X0324225Y0260496D01*
X0310490Y0260840D02*
X0295325Y0260840D01*
X0295325Y0261096D02*
X0308659Y0261096D01*
X0308659Y0261181D01*
X0308525Y0262543D01*
X0308258Y0263886D01*
X0307860Y0265196D01*
X0307336Y0266461D01*
X0306691Y0267669D01*
X0305930Y0268807D01*
X0305062Y0269865D01*
X0304094Y0270833D01*
X0303035Y0271702D01*
X0301897Y0272463D01*
X0300690Y0273108D01*
X0299425Y0273632D01*
X0298114Y0274029D01*
X0296772Y0274296D01*
X0295409Y0274431D01*
X0295324Y0274431D01*
X0295324Y0261096D01*
X0294125Y0261096D01*
X0294125Y0274431D01*
X0294040Y0274431D01*
X0292677Y0274296D01*
X0291335Y0274029D01*
X0290024Y0273632D01*
X0288759Y0273108D01*
X0287552Y0272463D01*
X0286414Y0271702D01*
X0285355Y0270833D01*
X0284387Y0269865D01*
X0283519Y0268807D01*
X0282758Y0267669D01*
X0282113Y0266461D01*
X0281589Y0265196D01*
X0281191Y0263886D01*
X0280935Y0262599D01*
X0279927Y0263180D01*
X0277257Y0263896D01*
X0274492Y0263896D01*
X0271822Y0263180D01*
X0269427Y0261798D01*
X0267472Y0259843D01*
X0266090Y0257449D01*
X0265375Y0254778D01*
X0265375Y0252014D01*
X0266090Y0249343D01*
X0267472Y0246949D01*
X0269427Y0244994D01*
X0271822Y0243612D01*
X0274492Y0242896D01*
X0277257Y0242896D01*
X0279927Y0243612D01*
X0282322Y0244994D01*
X0284277Y0246949D01*
X0285659Y0249343D01*
X0285783Y0249807D01*
X0286414Y0249290D01*
X0287552Y0248530D01*
X0288759Y0247884D01*
X0290024Y0247360D01*
X0291335Y0246963D01*
X0292677Y0246696D01*
X0294040Y0246561D01*
X0294125Y0246561D01*
X0294125Y0259896D01*
X0295324Y0259896D01*
X0295324Y0246561D01*
X0295409Y0246561D01*
X0296772Y0246696D01*
X0298114Y0246963D01*
X0299425Y0247360D01*
X0300690Y0247884D01*
X0301897Y0248530D01*
X0303035Y0249290D01*
X0304094Y0250159D01*
X0305062Y0251127D01*
X0305930Y0252185D01*
X0306691Y0253324D01*
X0307336Y0254531D01*
X0307860Y0255796D01*
X0308258Y0257106D01*
X0308525Y0258449D01*
X0308659Y0259811D01*
X0308659Y0259896D01*
X0295325Y0259896D01*
X0295325Y0261096D01*
X0294725Y0260496D02*
X0294317Y0260089D01*
X0294317Y0243370D01*
X0305144Y0232543D01*
X0310262Y0232543D01*
X0311049Y0231756D01*
X0311049Y0221717D01*
X0310862Y0228480D02*
X0309662Y0228480D01*
X0309662Y0229679D02*
X0310862Y0229679D01*
X0310862Y0230878D02*
X0309662Y0230878D01*
X0309662Y0232076D02*
X0233563Y0232076D01*
X0233563Y0233275D02*
X0306103Y0233275D01*
X0306103Y0233143D02*
X0309662Y0233143D01*
X0309662Y0236899D01*
X0307492Y0236899D01*
X0307085Y0236790D01*
X0306720Y0236580D01*
X0306423Y0236282D01*
X0306212Y0235917D01*
X0306103Y0235510D01*
X0306103Y0233143D01*
X0306103Y0234473D02*
X0233563Y0234473D01*
X0233563Y0235672D02*
X0306146Y0235672D01*
X0307384Y0236870D02*
X0233563Y0236870D01*
X0233563Y0238069D02*
X0313608Y0238069D01*
X0313608Y0239267D02*
X0233563Y0239267D01*
X0233563Y0240466D02*
X0313608Y0240466D01*
X0313608Y0241664D02*
X0233563Y0241664D01*
X0233563Y0242863D02*
X0313608Y0242863D01*
X0313608Y0244061D02*
X0280706Y0244061D01*
X0282587Y0245260D02*
X0313608Y0245260D01*
X0313608Y0246458D02*
X0283786Y0246458D01*
X0284685Y0247657D02*
X0289309Y0247657D01*
X0287065Y0248855D02*
X0285377Y0248855D01*
X0294125Y0248855D02*
X0295324Y0248855D01*
X0295324Y0247657D02*
X0294125Y0247657D01*
X0294125Y0250054D02*
X0295324Y0250054D01*
X0295324Y0251252D02*
X0294125Y0251252D01*
X0294125Y0252451D02*
X0295324Y0252451D01*
X0295324Y0253649D02*
X0294125Y0253649D01*
X0294125Y0254848D02*
X0295324Y0254848D01*
X0295324Y0256046D02*
X0294125Y0256046D01*
X0294125Y0257245D02*
X0295324Y0257245D01*
X0295324Y0258443D02*
X0294125Y0258443D01*
X0294125Y0259642D02*
X0295324Y0259642D01*
X0295324Y0262039D02*
X0294125Y0262039D01*
X0294125Y0263237D02*
X0295324Y0263237D01*
X0295324Y0264436D02*
X0294125Y0264436D01*
X0294125Y0265634D02*
X0295324Y0265634D01*
X0295324Y0266833D02*
X0294125Y0266833D01*
X0294125Y0268031D02*
X0295324Y0268031D01*
X0295324Y0269230D02*
X0294125Y0269230D01*
X0294125Y0270428D02*
X0295324Y0270428D01*
X0295324Y0271627D02*
X0294125Y0271627D01*
X0294125Y0272825D02*
X0295324Y0272825D01*
X0295324Y0274024D02*
X0294125Y0274024D01*
X0291317Y0274024D02*
X0233563Y0274024D01*
X0233563Y0275222D02*
X0313608Y0275222D01*
X0313608Y0276421D02*
X0233563Y0276421D01*
X0233563Y0277619D02*
X0313608Y0277619D01*
X0313608Y0278818D02*
X0233563Y0278818D01*
X0233563Y0280016D02*
X0313608Y0280016D01*
X0313608Y0281215D02*
X0233563Y0281215D01*
X0233563Y0282414D02*
X0313608Y0282414D01*
X0313608Y0283612D02*
X0233563Y0283612D01*
X0233563Y0284811D02*
X0313608Y0284811D01*
X0313608Y0286009D02*
X0233563Y0286009D01*
X0233563Y0272825D02*
X0288231Y0272825D01*
X0286322Y0271627D02*
X0233563Y0271627D01*
X0233563Y0270428D02*
X0284950Y0270428D01*
X0283866Y0269230D02*
X0233563Y0269230D01*
X0233563Y0268031D02*
X0283000Y0268031D01*
X0282311Y0266833D02*
X0233563Y0266833D01*
X0233563Y0265634D02*
X0281770Y0265634D01*
X0281358Y0264436D02*
X0233563Y0264436D01*
X0233563Y0263237D02*
X0272034Y0263237D01*
X0269844Y0262039D02*
X0233563Y0262039D01*
X0233563Y0260840D02*
X0268470Y0260840D01*
X0267356Y0259642D02*
X0233563Y0259642D01*
X0233563Y0258443D02*
X0266664Y0258443D01*
X0266035Y0257245D02*
X0233563Y0257245D01*
X0233563Y0256046D02*
X0265714Y0256046D01*
X0265393Y0254848D02*
X0233563Y0254848D01*
X0233563Y0253649D02*
X0265375Y0253649D01*
X0265375Y0252451D02*
X0233563Y0252451D01*
X0233563Y0251252D02*
X0265579Y0251252D01*
X0265900Y0250054D02*
X0233563Y0250054D01*
X0233563Y0248855D02*
X0266372Y0248855D01*
X0267064Y0247657D02*
X0233563Y0247657D01*
X0233563Y0246458D02*
X0267963Y0246458D01*
X0269162Y0245260D02*
X0233563Y0245260D01*
X0233563Y0244061D02*
X0271043Y0244061D01*
X0294894Y0230878D02*
X0306103Y0230878D01*
X0306103Y0229679D02*
X0295523Y0229679D01*
X0309662Y0233275D02*
X0310862Y0233275D01*
X0310862Y0234473D02*
X0309662Y0234473D01*
X0309662Y0235672D02*
X0310862Y0235672D01*
X0310862Y0236870D02*
X0309662Y0236870D01*
X0313140Y0236870D02*
X0313608Y0236870D01*
X0310490Y0247657D02*
X0300140Y0247657D01*
X0302384Y0248855D02*
X0310490Y0248855D01*
X0310490Y0250054D02*
X0303966Y0250054D01*
X0305165Y0251252D02*
X0310490Y0251252D01*
X0310490Y0252451D02*
X0306108Y0252451D01*
X0306865Y0253649D02*
X0310490Y0253649D01*
X0310490Y0254848D02*
X0307468Y0254848D01*
X0307936Y0256046D02*
X0310490Y0256046D01*
X0310490Y0257245D02*
X0308285Y0257245D01*
X0308524Y0258443D02*
X0310490Y0258443D01*
X0310490Y0259642D02*
X0308642Y0259642D01*
X0308575Y0262039D02*
X0310490Y0262039D01*
X0310490Y0263237D02*
X0308387Y0263237D01*
X0308091Y0264436D02*
X0310490Y0264436D01*
X0310490Y0265634D02*
X0307679Y0265634D01*
X0307138Y0266833D02*
X0310490Y0266833D01*
X0310490Y0268031D02*
X0306449Y0268031D01*
X0305583Y0269230D02*
X0310490Y0269230D01*
X0310490Y0270428D02*
X0304499Y0270428D01*
X0303127Y0271627D02*
X0310490Y0271627D01*
X0310490Y0272825D02*
X0301218Y0272825D01*
X0298132Y0274024D02*
X0311103Y0274024D01*
X0281062Y0263237D02*
X0279715Y0263237D01*
X0269489Y0214098D02*
X0233563Y0214098D01*
X0233563Y0212900D02*
X0269489Y0212900D01*
X0269489Y0211701D02*
X0233563Y0211701D01*
X0233563Y0210503D02*
X0269489Y0210503D01*
X0269489Y0209304D02*
X0233563Y0209304D01*
X0233563Y0208106D02*
X0269489Y0208106D01*
X0269489Y0206907D02*
X0233563Y0206907D01*
X0233563Y0205709D02*
X0269489Y0205709D01*
X0269489Y0204510D02*
X0233563Y0204510D01*
X0233563Y0203312D02*
X0269908Y0203312D01*
X0252169Y0202113D02*
X0233563Y0202113D01*
X0233563Y0200915D02*
X0252169Y0200915D01*
X0252169Y0199716D02*
X0233563Y0199716D01*
X0233563Y0198518D02*
X0252169Y0198518D01*
D34*
X0250538Y0191638D02*
X0261797Y0191638D01*
X0264396Y0189039D01*
X0264396Y0177228D01*
X0264317Y0177150D01*
X0273451Y0160693D02*
X0287604Y0174846D01*
X0291482Y0174846D01*
X0291482Y0192189D01*
X0291482Y0174846D02*
X0296640Y0174846D01*
X0301975Y0168173D02*
X0300478Y0166677D01*
X0301975Y0168173D02*
X0307309Y0168173D01*
X0297919Y0166677D02*
X0295360Y0166677D01*
X0292801Y0166677D01*
X0273451Y0160693D02*
X0256522Y0160693D01*
X0262034Y0155181D01*
X0262034Y0140220D01*
X0252388Y0130575D01*
X0254160Y0128803D01*
X0254160Y0116795D01*
X0262427Y0127228D02*
X0272663Y0116992D01*
X0273175Y0116992D01*
X0254160Y0108528D02*
X0249947Y0104315D01*
X0249947Y0097465D01*
X0249947Y0090772D02*
X0249553Y0090378D01*
X0249553Y0081559D01*
X0258490Y0084118D02*
X0261758Y0087386D01*
X0261758Y0090772D01*
X0287974Y0083370D02*
X0289479Y0083370D01*
X0287974Y0083370D01*
X0287974Y0083370D01*
X0289479Y0083370D02*
X0289479Y0083370D01*
X0289479Y0079820D02*
X0289479Y0078955D01*
X0306522Y0061912D01*
X0306522Y0059512D01*
X0300223Y0053213D01*
X0298254Y0053213D01*
X0298254Y0049276D01*
X0292553Y0049276D01*
X0292766Y0049644D01*
X0292889Y0050102D01*
X0292889Y0052812D01*
X0289009Y0052812D01*
X0289009Y0053771D01*
X0288050Y0053771D01*
X0288050Y0058044D01*
X0287328Y0058044D01*
X0287348Y0059865D01*
X0287974Y0060490D01*
X0287974Y0079820D01*
X0288580Y0079820D01*
X0288726Y0079859D01*
X0288873Y0079820D01*
X0289479Y0079820D01*
X0289745Y0078689D02*
X0287974Y0078689D01*
X0287974Y0077090D02*
X0291344Y0077090D01*
X0292942Y0075492D02*
X0287974Y0075492D01*
X0287974Y0073893D02*
X0294541Y0073893D01*
X0296139Y0072295D02*
X0287974Y0072295D01*
X0287974Y0070696D02*
X0297738Y0070696D01*
X0299336Y0069098D02*
X0287974Y0069098D01*
X0287974Y0067499D02*
X0300935Y0067499D01*
X0302533Y0065901D02*
X0287974Y0065901D01*
X0287974Y0064302D02*
X0304132Y0064302D01*
X0305730Y0062704D02*
X0287974Y0062704D01*
X0287974Y0061105D02*
X0306522Y0061105D01*
X0306517Y0059507D02*
X0287344Y0059507D01*
X0288050Y0057908D02*
X0289009Y0057908D01*
X0289009Y0058044D02*
X0289009Y0053771D01*
X0292889Y0053771D01*
X0292889Y0056481D01*
X0292766Y0056939D01*
X0292529Y0057349D01*
X0292194Y0057684D01*
X0291783Y0057921D01*
X0291326Y0058044D01*
X0289009Y0058044D01*
X0289009Y0056310D02*
X0288050Y0056310D01*
X0288050Y0054711D02*
X0289009Y0054711D01*
X0289009Y0053113D02*
X0298254Y0053113D01*
X0298254Y0051514D02*
X0292889Y0051514D01*
X0292839Y0049916D02*
X0298254Y0049916D01*
X0301721Y0054711D02*
X0292889Y0054711D01*
X0292889Y0056310D02*
X0303320Y0056310D01*
X0304918Y0057908D02*
X0291806Y0057908D01*
X0281837Y0053291D02*
X0281758Y0053213D01*
X0271482Y0053213D01*
X0265065Y0059630D01*
X0265065Y0062780D01*
X0244120Y0065417D02*
X0244120Y0071205D01*
X0245813Y0072898D01*
X0402978Y0056677D02*
X0402978Y0051402D01*
X0402978Y0056677D02*
X0411561Y0056677D01*
X0422978Y0056677D02*
X0430248Y0056677D01*
X0430248Y0039551D01*
X0437230Y0065024D02*
X0472034Y0065024D01*
X0484002Y0076992D01*
X0437230Y0065024D02*
X0420616Y0081638D01*
X0418412Y0081638D01*
X0540498Y0133528D02*
X0545183Y0128843D01*
X0540498Y0133528D02*
X0540498Y0146441D01*
X0544317Y0150260D01*
X0544317Y0174472D01*
X0554947Y0167780D02*
X0550498Y0163331D01*
X0550498Y0146441D01*
X0554947Y0159315D02*
X0554947Y0159512D01*
X0515971Y0217386D02*
X0507703Y0217386D01*
X0515971Y0217386D02*
X0517939Y0219354D01*
X0563608Y0265024D01*
X0563608Y0281165D01*
X0542742Y0281165D02*
X0536443Y0274866D01*
X0536443Y0255575D01*
X0521876Y0241008D01*
X0501010Y0241008D01*
X0416640Y0216126D02*
X0416286Y0215772D01*
X0416286Y0192701D01*
X0407703Y0184118D01*
X0407703Y0183134D01*
X0403923Y0179354D01*
X0403923Y0176047D01*
X0403923Y0169453D01*
X0403707Y0169236D01*
X0403869Y0164683D02*
X0382473Y0164683D01*
X0381536Y0165621D01*
X0381536Y0173395D01*
X0372152Y0182780D01*
X0372427Y0189197D02*
X0372152Y0189472D01*
X0372427Y0189197D02*
X0386325Y0189197D01*
X0389829Y0192701D01*
X0404868Y0192701D01*
X0404868Y0214354D01*
X0406640Y0216126D01*
X0389199Y0224079D02*
X0389199Y0272701D01*
X0399632Y0283134D01*
X0378766Y0283134D02*
X0356128Y0260496D01*
X0356128Y0243764D01*
X0340380Y0228016D01*
X0331719Y0228016D01*
X0325419Y0221717D01*
X0317742Y0221717D01*
X0317742Y0212661D01*
X0369908Y0225260D02*
X0371089Y0224079D01*
X0403869Y0164683D02*
X0407958Y0160594D01*
X0408923Y0160594D01*
X0318628Y0149669D02*
X0316069Y0149669D01*
X0314396Y0149669D01*
X0256522Y0160693D02*
X0253766Y0160693D01*
X0248333Y0166126D01*
X0249435Y0157543D02*
X0249435Y0155575D01*
X0252978Y0152031D01*
X0239396Y0151992D02*
X0235889Y0151992D01*
X0233960Y0150063D01*
D35*
X0233960Y0150063D03*
X0249435Y0157543D03*
X0243923Y0178803D03*
X0307309Y0168173D03*
X0380538Y0155575D03*
X0413348Y0170008D03*
X0394711Y0178803D03*
X0371089Y0213055D03*
X0388963Y0216756D03*
X0342467Y0224197D03*
X0328963Y0232740D03*
X0497073Y0171717D03*
X0522663Y0178016D03*
X0538412Y0178016D03*
X0517939Y0219354D03*
X0554947Y0224866D03*
X0516758Y0133921D03*
X0525026Y0126441D03*
X0508490Y0123291D03*
X0476994Y0125260D03*
X0521482Y0103606D03*
X0524546Y0096606D03*
X0543923Y0093370D03*
X0511246Y0087465D03*
X0498254Y0088252D03*
X0491561Y0087858D03*
X0499829Y0078409D03*
X0507703Y0072898D03*
X0464002Y0092189D03*
X0487230Y0099669D03*
X0493923Y0101244D03*
X0502191Y0101638D03*
X0547467Y0112268D03*
X0568726Y0114236D03*
X0435852Y0084512D03*
X0339986Y0077228D03*
X0312821Y0094945D03*
X0271876Y0081953D03*
X0279750Y0075260D03*
X0258097Y0072898D03*
X0294317Y0064236D03*
X0253372Y0037071D03*
X0269120Y0096126D03*
X0262427Y0127228D03*
X0239199Y0137465D03*
D36*
X0258490Y0084118D03*
X0244120Y0065417D03*
X0279160Y0062268D03*
X0307900Y0045929D03*
X0319514Y0038646D03*
X0281719Y0041598D03*
X0419514Y0139433D03*
D37*
X0380144Y0201677D02*
X0380144Y0224079D01*
X0370971Y0224197D02*
X0361522Y0224197D01*
D38*
X0437093Y0137661D02*
X0437093Y0135102D01*
X0450223Y0135102D01*
X0291679Y0104551D02*
X0291561Y0104551D01*
M02*
