G75*
%MOIN*%
%OFA0B0*%
%FSLAX25Y25*%
%IPPOS*%
%LPD*%
%AMOC8*
5,1,8,0,0,1.08239X$1,22.5*
%
%ADD10C,0.13800*%
%ADD11R,0.06706X0.05918*%
%ADD12R,0.06706X0.06981*%
%ADD13R,0.05918X0.06706*%
%ADD14R,0.06981X0.06706*%
%ADD15C,0.12600*%
%ADD16C,0.25469*%
%ADD17C,0.06737*%
%ADD18R,0.01981X0.04737*%
%ADD19R,0.05800X0.05800*%
%ADD20R,0.04769X0.04769*%
%ADD21C,0.04100*%
%ADD22C,0.03778*%
D10*
X0029613Y0131000D03*
X0029613Y0321000D03*
X0429613Y0321000D03*
X0429613Y0131000D03*
D11*
X0338613Y0135346D03*
X0337613Y0147154D03*
X0337613Y0163846D03*
X0322613Y0161154D03*
X0309613Y0175154D03*
X0297613Y0185154D03*
X0309613Y0191846D03*
X0297613Y0201846D03*
X0322613Y0177846D03*
X0338613Y0118654D03*
D12*
X0338613Y0127000D03*
X0337613Y0155500D03*
X0322613Y0169500D03*
X0309613Y0183500D03*
X0297613Y0193500D03*
D13*
X0197459Y0090500D03*
X0180766Y0090500D03*
D14*
X0189113Y0090500D03*
D15*
X0064025Y0050659D03*
X0131225Y0050541D03*
D16*
X0112363Y0043474D03*
X0082863Y0043526D03*
D17*
X0185613Y0132531D02*
X0185613Y0138469D01*
X0195613Y0138469D02*
X0195613Y0132531D01*
D18*
X0217979Y0143598D03*
X0220538Y0143598D03*
X0223097Y0143598D03*
X0225656Y0143598D03*
X0228215Y0143598D03*
X0230774Y0143598D03*
X0233333Y0143598D03*
X0235892Y0143598D03*
X0238451Y0143598D03*
X0241010Y0143598D03*
X0243569Y0143598D03*
X0246128Y0143598D03*
X0248687Y0143598D03*
X0251246Y0143598D03*
X0251246Y0118402D03*
X0248687Y0118402D03*
X0246128Y0118402D03*
X0243569Y0118402D03*
X0241010Y0118402D03*
X0238451Y0118402D03*
X0235892Y0118402D03*
X0233333Y0118402D03*
X0230774Y0118402D03*
X0228215Y0118402D03*
X0225656Y0118402D03*
X0223097Y0118402D03*
X0220538Y0118402D03*
X0217979Y0118402D03*
D19*
X0189613Y0215000D03*
X0189613Y0225000D03*
X0159613Y0225000D03*
X0159613Y0215000D03*
X0159613Y0257000D03*
X0159613Y0267000D03*
X0189613Y0267000D03*
X0189613Y0257000D03*
X0313113Y0256500D03*
X0313113Y0266500D03*
X0343113Y0266500D03*
X0343113Y0256500D03*
X0343113Y0228000D03*
X0343113Y0218000D03*
X0313113Y0218000D03*
X0313113Y0228000D03*
D20*
X0287046Y0233929D03*
X0279172Y0233929D03*
X0271298Y0233929D03*
X0263424Y0233929D03*
X0255550Y0233929D03*
X0247676Y0233929D03*
X0239802Y0233929D03*
X0231927Y0233929D03*
X0224053Y0233929D03*
X0216179Y0233929D03*
X0216179Y0221786D03*
X0224053Y0221786D03*
X0231927Y0221786D03*
X0239802Y0221786D03*
X0247676Y0221786D03*
X0255550Y0221786D03*
X0263424Y0221786D03*
X0271298Y0221786D03*
X0279172Y0221786D03*
X0287046Y0221786D03*
X0287046Y0209643D03*
X0279172Y0209643D03*
X0271298Y0209643D03*
X0263424Y0209643D03*
X0255550Y0209643D03*
X0247676Y0209643D03*
X0239802Y0209643D03*
X0231927Y0209643D03*
X0224053Y0209643D03*
X0216179Y0209643D03*
X0216179Y0197500D03*
X0224053Y0197500D03*
X0231927Y0197500D03*
X0239802Y0197500D03*
X0247676Y0197500D03*
X0255550Y0197500D03*
X0263424Y0197500D03*
X0271298Y0197500D03*
X0279172Y0197500D03*
X0287046Y0197500D03*
D21*
X0289613Y0181000D03*
X0304613Y0171000D03*
X0304613Y0161000D03*
X0319613Y0146000D03*
X0319613Y0116000D03*
X0273613Y0112000D03*
X0238613Y0109500D03*
X0223113Y0091500D03*
D22*
X0229113Y0132000D03*
X0208449Y0143500D03*
M02*
