G75*
%MOIN*%
%OFA0B0*%
%FSLAX25Y25*%
%IPPOS*%
%LPD*%
%AMOC8*
5,1,8,0,0,1.08239X$1,22.5*
%
%ADD10C,0.06400*%
%ADD11C,0.01000*%
%ADD12C,0.04362*%
D10*
X0011500Y0011500D03*
X0011500Y0021500D03*
X0011500Y0069000D03*
X0011500Y0079000D03*
X0011500Y0089000D03*
X0011500Y0099000D03*
X0011500Y0109000D03*
X0011500Y0119000D03*
X0011500Y0129000D03*
X0011500Y0139000D03*
X0011500Y0159000D03*
X0011500Y0169000D03*
X0029000Y0169000D03*
X0039000Y0169000D03*
X0064000Y0161500D03*
X0064000Y0151500D03*
X0084000Y0151500D03*
X0084000Y0141500D03*
X0084000Y0131500D03*
X0084000Y0121500D03*
X0084000Y0111500D03*
X0084000Y0101500D03*
X0084000Y0091500D03*
X0084000Y0081500D03*
X0064000Y0081500D03*
X0064000Y0071500D03*
X0064000Y0061500D03*
X0064000Y0051500D03*
X0064000Y0041500D03*
X0064000Y0031500D03*
X0064000Y0021500D03*
X0064000Y0091500D03*
D11*
X0003200Y0176001D02*
X0003200Y0003200D01*
X0092221Y0003200D01*
X0092221Y0176001D01*
X0003200Y0176001D01*
X0003200Y0175241D02*
X0092221Y0175241D01*
X0092221Y0174242D02*
X0003200Y0174242D01*
X0003200Y0173244D02*
X0008941Y0173244D01*
X0008724Y0173154D02*
X0007346Y0171776D01*
X0006600Y0169975D01*
X0006600Y0168025D01*
X0007346Y0166224D01*
X0008724Y0164846D01*
X0010525Y0164100D01*
X0012475Y0164100D01*
X0014276Y0164846D01*
X0015654Y0166224D01*
X0016400Y0168025D01*
X0016400Y0169975D01*
X0015654Y0171776D01*
X0014276Y0173154D01*
X0012475Y0173900D01*
X0010525Y0173900D01*
X0008724Y0173154D01*
X0007816Y0172245D02*
X0003200Y0172245D01*
X0003200Y0171247D02*
X0007127Y0171247D01*
X0006713Y0170248D02*
X0003200Y0170248D01*
X0003200Y0169250D02*
X0006600Y0169250D01*
X0006600Y0168251D02*
X0003200Y0168251D01*
X0003200Y0167253D02*
X0006920Y0167253D01*
X0007334Y0166254D02*
X0003200Y0166254D01*
X0003200Y0165256D02*
X0008314Y0165256D01*
X0008977Y0163259D02*
X0003200Y0163259D01*
X0003200Y0164257D02*
X0010145Y0164257D01*
X0010525Y0163900D02*
X0008724Y0163154D01*
X0007346Y0161776D01*
X0006600Y0159975D01*
X0006600Y0158025D01*
X0007346Y0156224D01*
X0008724Y0154846D01*
X0010525Y0154100D01*
X0012475Y0154100D01*
X0014276Y0154846D01*
X0015654Y0156224D01*
X0016400Y0158025D01*
X0016400Y0159975D01*
X0015654Y0161776D01*
X0014276Y0163154D01*
X0012475Y0163900D01*
X0010525Y0163900D01*
X0012855Y0164257D02*
X0037645Y0164257D01*
X0038025Y0164100D02*
X0039975Y0164100D01*
X0041776Y0164846D01*
X0043154Y0166224D01*
X0043900Y0168025D01*
X0043900Y0169975D01*
X0043154Y0171776D01*
X0041776Y0173154D01*
X0039975Y0173900D01*
X0038025Y0173900D01*
X0036224Y0173154D01*
X0034846Y0171776D01*
X0034100Y0169975D01*
X0034100Y0168025D01*
X0034846Y0166224D01*
X0036224Y0164846D01*
X0038025Y0164100D01*
X0035814Y0165256D02*
X0031843Y0165256D01*
X0032062Y0165415D02*
X0032585Y0165938D01*
X0033020Y0166537D01*
X0033356Y0167196D01*
X0033584Y0167899D01*
X0033679Y0168500D01*
X0029500Y0168500D01*
X0029500Y0169500D01*
X0028500Y0169500D01*
X0028500Y0173679D01*
X0027899Y0173584D01*
X0027196Y0173356D01*
X0026537Y0173020D01*
X0025938Y0172585D01*
X0025415Y0172062D01*
X0024980Y0171463D01*
X0024644Y0170804D01*
X0024416Y0170101D01*
X0024321Y0169500D01*
X0028500Y0169500D01*
X0028500Y0168500D01*
X0024321Y0168500D01*
X0024416Y0167899D01*
X0024644Y0167196D01*
X0024980Y0166537D01*
X0025415Y0165938D01*
X0025938Y0165415D01*
X0026537Y0164980D01*
X0027196Y0164644D01*
X0027899Y0164416D01*
X0028500Y0164321D01*
X0028500Y0168500D01*
X0029500Y0168500D01*
X0029500Y0164321D01*
X0030101Y0164416D01*
X0030804Y0164644D01*
X0031463Y0164980D01*
X0032062Y0165415D01*
X0032815Y0166254D02*
X0034834Y0166254D01*
X0034420Y0167253D02*
X0033374Y0167253D01*
X0033640Y0168251D02*
X0034100Y0168251D01*
X0034100Y0169250D02*
X0029500Y0169250D01*
X0029500Y0169500D02*
X0033679Y0169500D01*
X0033584Y0170101D01*
X0033356Y0170804D01*
X0033020Y0171463D01*
X0032585Y0172062D01*
X0032062Y0172585D01*
X0031463Y0173020D01*
X0030804Y0173356D01*
X0030101Y0173584D01*
X0029500Y0173679D01*
X0029500Y0169500D01*
X0029500Y0170248D02*
X0028500Y0170248D01*
X0028500Y0169250D02*
X0016400Y0169250D01*
X0016400Y0168251D02*
X0024360Y0168251D01*
X0024626Y0167253D02*
X0016080Y0167253D01*
X0015666Y0166254D02*
X0025185Y0166254D01*
X0026157Y0165256D02*
X0014685Y0165256D01*
X0014023Y0163259D02*
X0059425Y0163259D01*
X0059100Y0162475D02*
X0059846Y0164276D01*
X0061224Y0165654D01*
X0063025Y0166400D01*
X0064975Y0166400D01*
X0066776Y0165654D01*
X0068154Y0164276D01*
X0068900Y0162475D01*
X0068900Y0160525D01*
X0068154Y0158724D01*
X0066776Y0157346D01*
X0064975Y0156600D01*
X0063025Y0156600D01*
X0061224Y0157346D01*
X0059846Y0158724D01*
X0059100Y0160525D01*
X0059100Y0162475D01*
X0059100Y0162260D02*
X0015169Y0162260D01*
X0015867Y0161262D02*
X0059100Y0161262D01*
X0059209Y0160263D02*
X0016280Y0160263D01*
X0016400Y0159265D02*
X0059622Y0159265D01*
X0060304Y0158266D02*
X0016400Y0158266D01*
X0016086Y0157268D02*
X0061413Y0157268D01*
X0061224Y0155654D02*
X0059846Y0154276D01*
X0059100Y0152475D01*
X0059100Y0150525D01*
X0059846Y0148724D01*
X0061224Y0147346D01*
X0063025Y0146600D01*
X0064975Y0146600D01*
X0066776Y0147346D01*
X0068154Y0148724D01*
X0068900Y0150525D01*
X0068900Y0152475D01*
X0068154Y0154276D01*
X0066776Y0155654D01*
X0064975Y0156400D01*
X0063025Y0156400D01*
X0061224Y0155654D01*
X0060841Y0155271D02*
X0014700Y0155271D01*
X0015673Y0156269D02*
X0062710Y0156269D01*
X0065290Y0156269D02*
X0082710Y0156269D01*
X0083025Y0156400D02*
X0081224Y0155654D01*
X0079846Y0154276D01*
X0079100Y0152475D01*
X0079100Y0150525D01*
X0079846Y0148724D01*
X0081224Y0147346D01*
X0083025Y0146600D01*
X0084975Y0146600D01*
X0086776Y0147346D01*
X0088154Y0148724D01*
X0088900Y0150525D01*
X0088900Y0152475D01*
X0088154Y0154276D01*
X0086776Y0155654D01*
X0084975Y0156400D01*
X0083025Y0156400D01*
X0080841Y0155271D02*
X0067159Y0155271D01*
X0068155Y0154272D02*
X0079845Y0154272D01*
X0079431Y0153274D02*
X0068569Y0153274D01*
X0068900Y0152275D02*
X0079100Y0152275D01*
X0079100Y0151277D02*
X0068900Y0151277D01*
X0068798Y0150278D02*
X0079202Y0150278D01*
X0079616Y0149280D02*
X0068384Y0149280D01*
X0067711Y0148281D02*
X0080289Y0148281D01*
X0081377Y0147283D02*
X0066623Y0147283D01*
X0061377Y0147283D02*
X0003200Y0147283D01*
X0003200Y0148281D02*
X0060289Y0148281D01*
X0059616Y0149280D02*
X0003200Y0149280D01*
X0003200Y0150278D02*
X0059202Y0150278D01*
X0059100Y0151277D02*
X0003200Y0151277D01*
X0003200Y0152275D02*
X0059100Y0152275D01*
X0059431Y0153274D02*
X0003200Y0153274D01*
X0003200Y0154272D02*
X0010110Y0154272D01*
X0008300Y0155271D02*
X0003200Y0155271D01*
X0003200Y0156269D02*
X0007327Y0156269D01*
X0006914Y0157268D02*
X0003200Y0157268D01*
X0003200Y0158266D02*
X0006600Y0158266D01*
X0006600Y0159265D02*
X0003200Y0159265D01*
X0003200Y0160263D02*
X0006720Y0160263D01*
X0007133Y0161262D02*
X0003200Y0161262D01*
X0003200Y0162260D02*
X0007831Y0162260D01*
X0012890Y0154272D02*
X0059845Y0154272D01*
X0059838Y0164257D02*
X0040355Y0164257D01*
X0042185Y0165256D02*
X0060826Y0165256D01*
X0062674Y0166254D02*
X0043166Y0166254D01*
X0043580Y0167253D02*
X0092221Y0167253D01*
X0092221Y0168251D02*
X0043900Y0168251D01*
X0043900Y0169250D02*
X0092221Y0169250D01*
X0092221Y0170248D02*
X0043787Y0170248D01*
X0043373Y0171247D02*
X0092221Y0171247D01*
X0092221Y0172245D02*
X0042684Y0172245D01*
X0041559Y0173244D02*
X0092221Y0173244D01*
X0092221Y0166254D02*
X0065326Y0166254D01*
X0067174Y0165256D02*
X0092221Y0165256D01*
X0092221Y0164257D02*
X0068162Y0164257D01*
X0068575Y0163259D02*
X0092221Y0163259D01*
X0092221Y0162260D02*
X0068900Y0162260D01*
X0068900Y0161262D02*
X0092221Y0161262D01*
X0092221Y0160263D02*
X0068791Y0160263D01*
X0068378Y0159265D02*
X0092221Y0159265D01*
X0092221Y0158266D02*
X0067696Y0158266D01*
X0066587Y0157268D02*
X0092221Y0157268D01*
X0092221Y0156269D02*
X0085290Y0156269D01*
X0087159Y0155271D02*
X0092221Y0155271D01*
X0092221Y0154272D02*
X0088155Y0154272D01*
X0088569Y0153274D02*
X0092221Y0153274D01*
X0092221Y0152275D02*
X0088900Y0152275D01*
X0088900Y0151277D02*
X0092221Y0151277D01*
X0092221Y0150278D02*
X0088798Y0150278D01*
X0088384Y0149280D02*
X0092221Y0149280D01*
X0092221Y0148281D02*
X0087711Y0148281D01*
X0086623Y0147283D02*
X0092221Y0147283D01*
X0092221Y0146284D02*
X0085254Y0146284D01*
X0084975Y0146400D02*
X0083025Y0146400D01*
X0081224Y0145654D01*
X0079846Y0144276D01*
X0079100Y0142475D01*
X0079100Y0140525D01*
X0079846Y0138724D01*
X0081224Y0137346D01*
X0083025Y0136600D01*
X0084975Y0136600D01*
X0086776Y0137346D01*
X0088154Y0138724D01*
X0088900Y0140525D01*
X0088900Y0142475D01*
X0088154Y0144276D01*
X0086776Y0145654D01*
X0084975Y0146400D01*
X0082746Y0146284D02*
X0003200Y0146284D01*
X0003200Y0145286D02*
X0080856Y0145286D01*
X0079857Y0144287D02*
X0003200Y0144287D01*
X0003200Y0143289D02*
X0009049Y0143289D01*
X0008724Y0143154D02*
X0007346Y0141776D01*
X0006600Y0139975D01*
X0006600Y0138025D01*
X0007346Y0136224D01*
X0008724Y0134846D01*
X0010525Y0134100D01*
X0012475Y0134100D01*
X0014276Y0134846D01*
X0015654Y0136224D01*
X0016400Y0138025D01*
X0016400Y0139975D01*
X0015654Y0141776D01*
X0014276Y0143154D01*
X0012475Y0143900D01*
X0010525Y0143900D01*
X0008724Y0143154D01*
X0007860Y0142290D02*
X0003200Y0142290D01*
X0003200Y0141292D02*
X0007145Y0141292D01*
X0006732Y0140293D02*
X0003200Y0140293D01*
X0003200Y0139295D02*
X0006600Y0139295D01*
X0006600Y0138296D02*
X0003200Y0138296D01*
X0003200Y0137298D02*
X0006901Y0137298D01*
X0007315Y0136299D02*
X0003200Y0136299D01*
X0003200Y0135301D02*
X0008270Y0135301D01*
X0009085Y0133303D02*
X0003200Y0133303D01*
X0003200Y0132305D02*
X0007875Y0132305D01*
X0007346Y0131776D02*
X0006600Y0129975D01*
X0006600Y0128025D01*
X0007346Y0126224D01*
X0008724Y0124846D01*
X0010525Y0124100D01*
X0012475Y0124100D01*
X0014276Y0124846D01*
X0015654Y0126224D01*
X0016400Y0128025D01*
X0016400Y0129975D01*
X0015654Y0131776D01*
X0014276Y0133154D01*
X0012475Y0133900D01*
X0010525Y0133900D01*
X0008724Y0133154D01*
X0007346Y0131776D01*
X0007152Y0131306D02*
X0003200Y0131306D01*
X0003200Y0130308D02*
X0006738Y0130308D01*
X0006600Y0129309D02*
X0003200Y0129309D01*
X0003200Y0128311D02*
X0006600Y0128311D01*
X0006895Y0127312D02*
X0003200Y0127312D01*
X0003200Y0126314D02*
X0007309Y0126314D01*
X0008255Y0125315D02*
X0003200Y0125315D01*
X0003200Y0124317D02*
X0010002Y0124317D01*
X0010525Y0123900D02*
X0008724Y0123154D01*
X0007346Y0121776D01*
X0006600Y0119975D01*
X0006600Y0118025D01*
X0007346Y0116224D01*
X0008724Y0114846D01*
X0010525Y0114100D01*
X0012475Y0114100D01*
X0014276Y0114846D01*
X0015654Y0116224D01*
X0016400Y0118025D01*
X0016400Y0119975D01*
X0015654Y0121776D01*
X0014276Y0123154D01*
X0012475Y0123900D01*
X0010525Y0123900D01*
X0009121Y0123318D02*
X0003200Y0123318D01*
X0003200Y0122320D02*
X0007890Y0122320D01*
X0007158Y0121321D02*
X0003200Y0121321D01*
X0003200Y0120323D02*
X0006744Y0120323D01*
X0006600Y0119324D02*
X0003200Y0119324D01*
X0003200Y0118326D02*
X0006600Y0118326D01*
X0006889Y0117327D02*
X0003200Y0117327D01*
X0003200Y0116329D02*
X0007303Y0116329D01*
X0008240Y0115330D02*
X0003200Y0115330D01*
X0003200Y0114332D02*
X0009966Y0114332D01*
X0010525Y0113900D02*
X0008724Y0113154D01*
X0007346Y0111776D01*
X0006600Y0109975D01*
X0006600Y0108025D01*
X0007346Y0106224D01*
X0008724Y0104846D01*
X0010525Y0104100D01*
X0012475Y0104100D01*
X0014276Y0104846D01*
X0015654Y0106224D01*
X0016400Y0108025D01*
X0016400Y0109975D01*
X0015654Y0111776D01*
X0014276Y0113154D01*
X0012475Y0113900D01*
X0010525Y0113900D01*
X0009157Y0113333D02*
X0003200Y0113333D01*
X0003200Y0112335D02*
X0007905Y0112335D01*
X0007164Y0111336D02*
X0003200Y0111336D01*
X0003200Y0110338D02*
X0006750Y0110338D01*
X0006600Y0109339D02*
X0003200Y0109339D01*
X0003200Y0108341D02*
X0006600Y0108341D01*
X0006883Y0107342D02*
X0003200Y0107342D01*
X0003200Y0106344D02*
X0007297Y0106344D01*
X0008225Y0105345D02*
X0003200Y0105345D01*
X0003200Y0104347D02*
X0009930Y0104347D01*
X0010525Y0103900D02*
X0008724Y0103154D01*
X0007346Y0101776D01*
X0006600Y0099975D01*
X0006600Y0098025D01*
X0007346Y0096224D01*
X0008724Y0094846D01*
X0010525Y0094100D01*
X0012475Y0094100D01*
X0014276Y0094846D01*
X0015654Y0096224D01*
X0016400Y0098025D01*
X0016400Y0099975D01*
X0015654Y0101776D01*
X0014276Y0103154D01*
X0012475Y0103900D01*
X0010525Y0103900D01*
X0009193Y0103348D02*
X0003200Y0103348D01*
X0003200Y0102350D02*
X0007920Y0102350D01*
X0007170Y0101351D02*
X0003200Y0101351D01*
X0003200Y0100353D02*
X0006757Y0100353D01*
X0006600Y0099354D02*
X0003200Y0099354D01*
X0003200Y0098356D02*
X0006600Y0098356D01*
X0006877Y0097357D02*
X0003200Y0097357D01*
X0003200Y0096359D02*
X0007290Y0096359D01*
X0008210Y0095360D02*
X0003200Y0095360D01*
X0003200Y0094362D02*
X0009894Y0094362D01*
X0010525Y0093900D02*
X0008724Y0093154D01*
X0007346Y0091776D01*
X0006600Y0089975D01*
X0006600Y0088025D01*
X0007346Y0086224D01*
X0008724Y0084846D01*
X0010525Y0084100D01*
X0012475Y0084100D01*
X0014276Y0084846D01*
X0015654Y0086224D01*
X0016400Y0088025D01*
X0016400Y0089975D01*
X0015654Y0091776D01*
X0014276Y0093154D01*
X0012475Y0093900D01*
X0010525Y0093900D01*
X0009229Y0093363D02*
X0003200Y0093363D01*
X0003200Y0092365D02*
X0007935Y0092365D01*
X0007176Y0091366D02*
X0003200Y0091366D01*
X0003200Y0090368D02*
X0006763Y0090368D01*
X0006600Y0089369D02*
X0003200Y0089369D01*
X0003200Y0088370D02*
X0006600Y0088370D01*
X0006871Y0087372D02*
X0003200Y0087372D01*
X0003200Y0086373D02*
X0007284Y0086373D01*
X0008195Y0085375D02*
X0003200Y0085375D01*
X0003200Y0084376D02*
X0009858Y0084376D01*
X0010525Y0083900D02*
X0008724Y0083154D01*
X0007346Y0081776D01*
X0006600Y0079975D01*
X0006600Y0078025D01*
X0007346Y0076224D01*
X0008724Y0074846D01*
X0010525Y0074100D01*
X0012475Y0074100D01*
X0014276Y0074846D01*
X0015654Y0076224D01*
X0016400Y0078025D01*
X0016400Y0079975D01*
X0015654Y0081776D01*
X0014276Y0083154D01*
X0012475Y0083900D01*
X0010525Y0083900D01*
X0009265Y0083378D02*
X0003200Y0083378D01*
X0003200Y0082379D02*
X0007950Y0082379D01*
X0007182Y0081381D02*
X0003200Y0081381D01*
X0003200Y0080382D02*
X0006769Y0080382D01*
X0006600Y0079384D02*
X0003200Y0079384D01*
X0003200Y0078385D02*
X0006600Y0078385D01*
X0006864Y0077387D02*
X0003200Y0077387D01*
X0003200Y0076388D02*
X0007278Y0076388D01*
X0008181Y0075390D02*
X0003200Y0075390D01*
X0003200Y0074391D02*
X0009822Y0074391D01*
X0010525Y0073900D02*
X0008724Y0073154D01*
X0007346Y0071776D01*
X0006600Y0069975D01*
X0006600Y0068025D01*
X0007346Y0066224D01*
X0008724Y0064846D01*
X0010525Y0064100D01*
X0012475Y0064100D01*
X0014276Y0064846D01*
X0015654Y0066224D01*
X0016400Y0068025D01*
X0016400Y0069975D01*
X0015654Y0071776D01*
X0014276Y0073154D01*
X0012475Y0073900D01*
X0010525Y0073900D01*
X0009301Y0073393D02*
X0003200Y0073393D01*
X0003200Y0072394D02*
X0007965Y0072394D01*
X0007189Y0071396D02*
X0003200Y0071396D01*
X0003200Y0070397D02*
X0006775Y0070397D01*
X0006600Y0069399D02*
X0003200Y0069399D01*
X0003200Y0068400D02*
X0006600Y0068400D01*
X0006858Y0067402D02*
X0003200Y0067402D01*
X0003200Y0066403D02*
X0007272Y0066403D01*
X0008166Y0065405D02*
X0003200Y0065405D01*
X0003200Y0064406D02*
X0009786Y0064406D01*
X0013214Y0064406D02*
X0059977Y0064406D01*
X0059846Y0064276D02*
X0059100Y0062475D01*
X0059100Y0060525D01*
X0059846Y0058724D01*
X0061224Y0057346D01*
X0063025Y0056600D01*
X0064975Y0056600D01*
X0066776Y0057346D01*
X0068154Y0058724D01*
X0068900Y0060525D01*
X0068900Y0062475D01*
X0068154Y0064276D01*
X0066776Y0065654D01*
X0064975Y0066400D01*
X0063025Y0066400D01*
X0061224Y0065654D01*
X0059846Y0064276D01*
X0059486Y0063408D02*
X0003200Y0063408D01*
X0003200Y0062409D02*
X0059100Y0062409D01*
X0059100Y0061411D02*
X0003200Y0061411D01*
X0003200Y0060412D02*
X0059147Y0060412D01*
X0059560Y0059414D02*
X0003200Y0059414D01*
X0003200Y0058415D02*
X0060155Y0058415D01*
X0060990Y0055420D02*
X0003200Y0055420D01*
X0003200Y0056418D02*
X0092221Y0056418D01*
X0092221Y0055420D02*
X0067010Y0055420D01*
X0066776Y0055654D02*
X0068154Y0054276D01*
X0068900Y0052475D01*
X0068900Y0050525D01*
X0068154Y0048724D01*
X0066776Y0047346D01*
X0064975Y0046600D01*
X0063025Y0046600D01*
X0061224Y0047346D01*
X0059846Y0048724D01*
X0059100Y0050525D01*
X0059100Y0052475D01*
X0059846Y0054276D01*
X0061224Y0055654D01*
X0063025Y0056400D01*
X0064975Y0056400D01*
X0066776Y0055654D01*
X0066846Y0057417D02*
X0092221Y0057417D01*
X0092221Y0058415D02*
X0067845Y0058415D01*
X0068440Y0059414D02*
X0092221Y0059414D01*
X0092221Y0060412D02*
X0068853Y0060412D01*
X0068900Y0061411D02*
X0092221Y0061411D01*
X0092221Y0062409D02*
X0068900Y0062409D01*
X0068514Y0063408D02*
X0092221Y0063408D01*
X0092221Y0064406D02*
X0068023Y0064406D01*
X0067025Y0065405D02*
X0092221Y0065405D01*
X0092221Y0066403D02*
X0015728Y0066403D01*
X0016142Y0067402D02*
X0061169Y0067402D01*
X0061224Y0067346D02*
X0063025Y0066600D01*
X0064975Y0066600D01*
X0066776Y0067346D01*
X0068154Y0068724D01*
X0068900Y0070525D01*
X0068900Y0072475D01*
X0068154Y0074276D01*
X0066776Y0075654D01*
X0064975Y0076400D01*
X0063025Y0076400D01*
X0061224Y0075654D01*
X0059846Y0074276D01*
X0059100Y0072475D01*
X0059100Y0070525D01*
X0059846Y0068724D01*
X0061224Y0067346D01*
X0060170Y0068400D02*
X0016400Y0068400D01*
X0016400Y0069399D02*
X0059567Y0069399D01*
X0059153Y0070397D02*
X0016225Y0070397D01*
X0015811Y0071396D02*
X0059100Y0071396D01*
X0059100Y0072394D02*
X0015035Y0072394D01*
X0013699Y0073393D02*
X0059480Y0073393D01*
X0059962Y0074391D02*
X0013178Y0074391D01*
X0014819Y0075390D02*
X0060960Y0075390D01*
X0061224Y0077346D02*
X0063025Y0076600D01*
X0064975Y0076600D01*
X0066776Y0077346D01*
X0068154Y0078724D01*
X0068900Y0080525D01*
X0068900Y0082475D01*
X0068154Y0084276D01*
X0066776Y0085654D01*
X0064975Y0086400D01*
X0063025Y0086400D01*
X0061224Y0085654D01*
X0059846Y0084276D01*
X0059100Y0082475D01*
X0059100Y0080525D01*
X0059846Y0078724D01*
X0061224Y0077346D01*
X0061183Y0077387D02*
X0016136Y0077387D01*
X0016400Y0078385D02*
X0060185Y0078385D01*
X0059573Y0079384D02*
X0016400Y0079384D01*
X0016231Y0080382D02*
X0059159Y0080382D01*
X0059100Y0081381D02*
X0015818Y0081381D01*
X0015050Y0082379D02*
X0059100Y0082379D01*
X0059474Y0083378D02*
X0013735Y0083378D01*
X0013142Y0084376D02*
X0059947Y0084376D01*
X0060945Y0085375D02*
X0014805Y0085375D01*
X0015716Y0086373D02*
X0062961Y0086373D01*
X0063025Y0086600D02*
X0064975Y0086600D01*
X0066776Y0087346D01*
X0068154Y0088724D01*
X0068900Y0090525D01*
X0068900Y0092475D01*
X0068154Y0094276D01*
X0066776Y0095654D01*
X0064975Y0096400D01*
X0063025Y0096400D01*
X0061224Y0095654D01*
X0059846Y0094276D01*
X0059100Y0092475D01*
X0059100Y0090525D01*
X0059846Y0088724D01*
X0061224Y0087346D01*
X0063025Y0086600D01*
X0061198Y0087372D02*
X0016129Y0087372D01*
X0016400Y0088370D02*
X0060200Y0088370D01*
X0059579Y0089369D02*
X0016400Y0089369D01*
X0016237Y0090368D02*
X0059165Y0090368D01*
X0059100Y0091366D02*
X0015824Y0091366D01*
X0015065Y0092365D02*
X0059100Y0092365D01*
X0059468Y0093363D02*
X0013771Y0093363D01*
X0013106Y0094362D02*
X0059932Y0094362D01*
X0060930Y0095360D02*
X0014790Y0095360D01*
X0015710Y0096359D02*
X0062925Y0096359D01*
X0065075Y0096359D02*
X0082925Y0096359D01*
X0083025Y0096400D02*
X0081224Y0095654D01*
X0079846Y0094276D01*
X0079100Y0092475D01*
X0079100Y0090525D01*
X0079846Y0088724D01*
X0081224Y0087346D01*
X0083025Y0086600D01*
X0084975Y0086600D01*
X0086776Y0087346D01*
X0088154Y0088724D01*
X0088900Y0090525D01*
X0088900Y0092475D01*
X0088154Y0094276D01*
X0086776Y0095654D01*
X0084975Y0096400D01*
X0083025Y0096400D01*
X0083025Y0096600D02*
X0081224Y0097346D01*
X0079846Y0098724D01*
X0079100Y0100525D01*
X0079100Y0102475D01*
X0079846Y0104276D01*
X0081224Y0105654D01*
X0083025Y0106400D01*
X0084975Y0106400D01*
X0086776Y0105654D01*
X0088154Y0104276D01*
X0088900Y0102475D01*
X0088900Y0100525D01*
X0088154Y0098724D01*
X0086776Y0097346D01*
X0084975Y0096600D01*
X0083025Y0096600D01*
X0081213Y0097357D02*
X0016123Y0097357D01*
X0016400Y0098356D02*
X0080215Y0098356D01*
X0079585Y0099354D02*
X0016400Y0099354D01*
X0016243Y0100353D02*
X0079172Y0100353D01*
X0079100Y0101351D02*
X0015830Y0101351D01*
X0015080Y0102350D02*
X0079100Y0102350D01*
X0079462Y0103348D02*
X0013807Y0103348D01*
X0013070Y0104347D02*
X0079917Y0104347D01*
X0080916Y0105345D02*
X0014775Y0105345D01*
X0015703Y0106344D02*
X0082889Y0106344D01*
X0083025Y0106600D02*
X0084975Y0106600D01*
X0086776Y0107346D01*
X0088154Y0108724D01*
X0088900Y0110525D01*
X0088900Y0112475D01*
X0088154Y0114276D01*
X0086776Y0115654D01*
X0084975Y0116400D01*
X0083025Y0116400D01*
X0081224Y0115654D01*
X0079846Y0114276D01*
X0079100Y0112475D01*
X0079100Y0110525D01*
X0079846Y0108724D01*
X0081224Y0107346D01*
X0083025Y0106600D01*
X0081233Y0107342D02*
X0016117Y0107342D01*
X0016400Y0108341D02*
X0080230Y0108341D01*
X0079591Y0109339D02*
X0016400Y0109339D01*
X0016250Y0110338D02*
X0079178Y0110338D01*
X0079100Y0111336D02*
X0015836Y0111336D01*
X0015095Y0112335D02*
X0079100Y0112335D01*
X0079456Y0113333D02*
X0013843Y0113333D01*
X0013034Y0114332D02*
X0079902Y0114332D01*
X0080901Y0115330D02*
X0014760Y0115330D01*
X0015697Y0116329D02*
X0082853Y0116329D01*
X0083025Y0116600D02*
X0084975Y0116600D01*
X0086776Y0117346D01*
X0088154Y0118724D01*
X0088900Y0120525D01*
X0088900Y0122475D01*
X0088154Y0124276D01*
X0086776Y0125654D01*
X0084975Y0126400D01*
X0083025Y0126400D01*
X0081224Y0125654D01*
X0079846Y0124276D01*
X0079100Y0122475D01*
X0079100Y0120525D01*
X0079846Y0118724D01*
X0081224Y0117346D01*
X0083025Y0116600D01*
X0081269Y0117327D02*
X0016111Y0117327D01*
X0016400Y0118326D02*
X0080245Y0118326D01*
X0079597Y0119324D02*
X0016400Y0119324D01*
X0016256Y0120323D02*
X0079184Y0120323D01*
X0079100Y0121321D02*
X0015842Y0121321D01*
X0015110Y0122320D02*
X0079100Y0122320D01*
X0079449Y0123318D02*
X0013879Y0123318D01*
X0012998Y0124317D02*
X0079887Y0124317D01*
X0080886Y0125315D02*
X0014745Y0125315D01*
X0015691Y0126314D02*
X0082818Y0126314D01*
X0083025Y0126600D02*
X0084975Y0126600D01*
X0086776Y0127346D01*
X0088154Y0128724D01*
X0088900Y0130525D01*
X0088900Y0132475D01*
X0088154Y0134276D01*
X0086776Y0135654D01*
X0084975Y0136400D01*
X0083025Y0136400D01*
X0081224Y0135654D01*
X0079846Y0134276D01*
X0079100Y0132475D01*
X0079100Y0130525D01*
X0079846Y0128724D01*
X0081224Y0127346D01*
X0083025Y0126600D01*
X0081305Y0127312D02*
X0016105Y0127312D01*
X0016400Y0128311D02*
X0080259Y0128311D01*
X0079604Y0129309D02*
X0016400Y0129309D01*
X0016262Y0130308D02*
X0079190Y0130308D01*
X0079100Y0131306D02*
X0015848Y0131306D01*
X0015125Y0132305D02*
X0079100Y0132305D01*
X0079443Y0133303D02*
X0013915Y0133303D01*
X0012962Y0134302D02*
X0079872Y0134302D01*
X0080871Y0135301D02*
X0014730Y0135301D01*
X0015685Y0136299D02*
X0082782Y0136299D01*
X0081341Y0137298D02*
X0016099Y0137298D01*
X0016400Y0138296D02*
X0080274Y0138296D01*
X0079610Y0139295D02*
X0016400Y0139295D01*
X0016268Y0140293D02*
X0079196Y0140293D01*
X0079100Y0141292D02*
X0015855Y0141292D01*
X0015140Y0142290D02*
X0079100Y0142290D01*
X0079437Y0143289D02*
X0013951Y0143289D01*
X0010038Y0134302D02*
X0003200Y0134302D01*
X0016287Y0170248D02*
X0024464Y0170248D01*
X0024870Y0171247D02*
X0015873Y0171247D01*
X0015184Y0172245D02*
X0025599Y0172245D01*
X0026977Y0173244D02*
X0014059Y0173244D01*
X0028500Y0173244D02*
X0029500Y0173244D01*
X0029500Y0172245D02*
X0028500Y0172245D01*
X0028500Y0171247D02*
X0029500Y0171247D01*
X0029500Y0168251D02*
X0028500Y0168251D01*
X0028500Y0167253D02*
X0029500Y0167253D01*
X0029500Y0166254D02*
X0028500Y0166254D01*
X0028500Y0165256D02*
X0029500Y0165256D01*
X0033130Y0171247D02*
X0034627Y0171247D01*
X0034213Y0170248D02*
X0033536Y0170248D01*
X0032401Y0172245D02*
X0035316Y0172245D01*
X0036441Y0173244D02*
X0031023Y0173244D01*
X0067070Y0095360D02*
X0080930Y0095360D01*
X0079932Y0094362D02*
X0068068Y0094362D01*
X0068532Y0093363D02*
X0079468Y0093363D01*
X0079100Y0092365D02*
X0068900Y0092365D01*
X0068900Y0091366D02*
X0079100Y0091366D01*
X0079165Y0090368D02*
X0068835Y0090368D01*
X0068421Y0089369D02*
X0079579Y0089369D01*
X0080200Y0088370D02*
X0067800Y0088370D01*
X0066802Y0087372D02*
X0081198Y0087372D01*
X0081224Y0085654D02*
X0079846Y0084276D01*
X0079100Y0082475D01*
X0079100Y0080525D01*
X0079846Y0078724D01*
X0081224Y0077346D01*
X0083025Y0076600D01*
X0084975Y0076600D01*
X0086776Y0077346D01*
X0088154Y0078724D01*
X0088900Y0080525D01*
X0088900Y0082475D01*
X0088154Y0084276D01*
X0086776Y0085654D01*
X0084975Y0086400D01*
X0083025Y0086400D01*
X0081224Y0085654D01*
X0080945Y0085375D02*
X0067055Y0085375D01*
X0068053Y0084376D02*
X0079947Y0084376D01*
X0079474Y0083378D02*
X0068526Y0083378D01*
X0068900Y0082379D02*
X0079100Y0082379D01*
X0079100Y0081381D02*
X0068900Y0081381D01*
X0068841Y0080382D02*
X0079159Y0080382D01*
X0079573Y0079384D02*
X0068427Y0079384D01*
X0067815Y0078385D02*
X0080185Y0078385D01*
X0081183Y0077387D02*
X0066816Y0077387D01*
X0067040Y0075390D02*
X0092221Y0075390D01*
X0092221Y0076388D02*
X0065003Y0076388D01*
X0062997Y0076388D02*
X0015722Y0076388D01*
X0014834Y0065405D02*
X0060975Y0065405D01*
X0061154Y0057417D02*
X0003200Y0057417D01*
X0003200Y0054421D02*
X0059991Y0054421D01*
X0059493Y0053423D02*
X0003200Y0053423D01*
X0003200Y0052424D02*
X0059100Y0052424D01*
X0059100Y0051426D02*
X0003200Y0051426D01*
X0003200Y0050427D02*
X0059141Y0050427D01*
X0059554Y0049429D02*
X0003200Y0049429D01*
X0003200Y0048430D02*
X0060140Y0048430D01*
X0061139Y0047432D02*
X0003200Y0047432D01*
X0003200Y0046433D02*
X0092221Y0046433D01*
X0092221Y0045434D02*
X0066995Y0045434D01*
X0066776Y0045654D02*
X0068154Y0044276D01*
X0068900Y0042475D01*
X0068900Y0040525D01*
X0068154Y0038724D01*
X0066776Y0037346D01*
X0064975Y0036600D01*
X0063025Y0036600D01*
X0061224Y0037346D01*
X0059846Y0038724D01*
X0059100Y0040525D01*
X0059100Y0042475D01*
X0059846Y0044276D01*
X0061224Y0045654D01*
X0063025Y0046400D01*
X0064975Y0046400D01*
X0066776Y0045654D01*
X0066861Y0047432D02*
X0092221Y0047432D01*
X0092221Y0048430D02*
X0067860Y0048430D01*
X0068446Y0049429D02*
X0092221Y0049429D01*
X0092221Y0050427D02*
X0068859Y0050427D01*
X0068900Y0051426D02*
X0092221Y0051426D01*
X0092221Y0052424D02*
X0068900Y0052424D01*
X0068507Y0053423D02*
X0092221Y0053423D01*
X0092221Y0054421D02*
X0068009Y0054421D01*
X0067994Y0044436D02*
X0092221Y0044436D01*
X0092221Y0043437D02*
X0068501Y0043437D01*
X0068900Y0042439D02*
X0092221Y0042439D01*
X0092221Y0041440D02*
X0068900Y0041440D01*
X0068865Y0040442D02*
X0092221Y0040442D01*
X0092221Y0039443D02*
X0068452Y0039443D01*
X0067875Y0038445D02*
X0092221Y0038445D01*
X0092221Y0037446D02*
X0066876Y0037446D01*
X0066776Y0035654D02*
X0064975Y0036400D01*
X0063025Y0036400D01*
X0061224Y0035654D01*
X0059846Y0034276D01*
X0059100Y0032475D01*
X0059100Y0030525D01*
X0059846Y0028724D01*
X0061224Y0027346D01*
X0063025Y0026600D01*
X0064975Y0026600D01*
X0066776Y0027346D01*
X0068154Y0028724D01*
X0068900Y0030525D01*
X0068900Y0032475D01*
X0068154Y0034276D01*
X0066776Y0035654D01*
X0066980Y0035449D02*
X0092221Y0035449D01*
X0092221Y0034451D02*
X0067979Y0034451D01*
X0068495Y0033452D02*
X0092221Y0033452D01*
X0092221Y0032454D02*
X0068900Y0032454D01*
X0068900Y0031455D02*
X0092221Y0031455D01*
X0092221Y0030457D02*
X0068872Y0030457D01*
X0068458Y0029458D02*
X0092221Y0029458D01*
X0092221Y0028460D02*
X0067889Y0028460D01*
X0066891Y0027461D02*
X0092221Y0027461D01*
X0092221Y0026463D02*
X0003200Y0026463D01*
X0003200Y0027461D02*
X0061109Y0027461D01*
X0060111Y0028460D02*
X0003200Y0028460D01*
X0003200Y0029458D02*
X0059542Y0029458D01*
X0059128Y0030457D02*
X0003200Y0030457D01*
X0003200Y0031455D02*
X0059100Y0031455D01*
X0059100Y0032454D02*
X0003200Y0032454D01*
X0003200Y0033452D02*
X0059505Y0033452D01*
X0060021Y0034451D02*
X0003200Y0034451D01*
X0003200Y0035449D02*
X0061020Y0035449D01*
X0061124Y0037446D02*
X0003200Y0037446D01*
X0003200Y0036448D02*
X0092221Y0036448D01*
X0092221Y0025464D02*
X0066965Y0025464D01*
X0066776Y0025654D02*
X0068154Y0024276D01*
X0068900Y0022475D01*
X0068900Y0020525D01*
X0068154Y0018724D01*
X0066776Y0017346D01*
X0064975Y0016600D01*
X0063025Y0016600D01*
X0061224Y0017346D01*
X0059846Y0018724D01*
X0059100Y0020525D01*
X0059100Y0022475D01*
X0059846Y0024276D01*
X0061224Y0025654D01*
X0063025Y0026400D01*
X0064975Y0026400D01*
X0066776Y0025654D01*
X0067964Y0024466D02*
X0092221Y0024466D01*
X0092221Y0023467D02*
X0068489Y0023467D01*
X0068900Y0022469D02*
X0092221Y0022469D01*
X0092221Y0021470D02*
X0068900Y0021470D01*
X0068878Y0020472D02*
X0092221Y0020472D01*
X0092221Y0019473D02*
X0068464Y0019473D01*
X0067904Y0018475D02*
X0092221Y0018475D01*
X0092221Y0017476D02*
X0066906Y0017476D01*
X0061094Y0017476D02*
X0014406Y0017476D01*
X0014276Y0017346D02*
X0015654Y0018724D01*
X0016400Y0020525D01*
X0016400Y0022475D01*
X0015654Y0024276D01*
X0014276Y0025654D01*
X0012475Y0026400D01*
X0010525Y0026400D01*
X0008724Y0025654D01*
X0007346Y0024276D01*
X0006600Y0022475D01*
X0006600Y0020525D01*
X0007346Y0018724D01*
X0008724Y0017346D01*
X0010525Y0016600D01*
X0012475Y0016600D01*
X0014276Y0017346D01*
X0014276Y0015654D02*
X0012475Y0016400D01*
X0010525Y0016400D01*
X0008724Y0015654D01*
X0007346Y0014276D01*
X0006600Y0012475D01*
X0006600Y0010525D01*
X0007346Y0008724D01*
X0008724Y0007346D01*
X0010525Y0006600D01*
X0012475Y0006600D01*
X0014276Y0007346D01*
X0015654Y0008724D01*
X0016400Y0010525D01*
X0016400Y0012475D01*
X0015654Y0014276D01*
X0014276Y0015654D01*
X0014450Y0015479D02*
X0092221Y0015479D01*
X0092221Y0014481D02*
X0015449Y0014481D01*
X0015983Y0013482D02*
X0092221Y0013482D01*
X0092221Y0012484D02*
X0016396Y0012484D01*
X0016400Y0011485D02*
X0092221Y0011485D01*
X0092221Y0010487D02*
X0016384Y0010487D01*
X0015970Y0009488D02*
X0092221Y0009488D01*
X0092221Y0008490D02*
X0015419Y0008490D01*
X0014421Y0007491D02*
X0092221Y0007491D01*
X0092221Y0006493D02*
X0003200Y0006493D01*
X0003200Y0007491D02*
X0008579Y0007491D01*
X0007581Y0008490D02*
X0003200Y0008490D01*
X0003200Y0009488D02*
X0007030Y0009488D01*
X0006616Y0010487D02*
X0003200Y0010487D01*
X0003200Y0011485D02*
X0006600Y0011485D01*
X0006604Y0012484D02*
X0003200Y0012484D01*
X0003200Y0013482D02*
X0007017Y0013482D01*
X0007551Y0014481D02*
X0003200Y0014481D01*
X0003200Y0015479D02*
X0008550Y0015479D01*
X0008594Y0017476D02*
X0003200Y0017476D01*
X0003200Y0016478D02*
X0092221Y0016478D01*
X0092221Y0005494D02*
X0003200Y0005494D01*
X0003200Y0004496D02*
X0092221Y0004496D01*
X0092221Y0003497D02*
X0003200Y0003497D01*
X0003200Y0018475D02*
X0007596Y0018475D01*
X0007036Y0019473D02*
X0003200Y0019473D01*
X0003200Y0020472D02*
X0006622Y0020472D01*
X0006600Y0021470D02*
X0003200Y0021470D01*
X0003200Y0022469D02*
X0006600Y0022469D01*
X0007011Y0023467D02*
X0003200Y0023467D01*
X0003200Y0024466D02*
X0007536Y0024466D01*
X0008535Y0025464D02*
X0003200Y0025464D01*
X0003200Y0038445D02*
X0060125Y0038445D01*
X0059548Y0039443D02*
X0003200Y0039443D01*
X0003200Y0040442D02*
X0059135Y0040442D01*
X0059100Y0041440D02*
X0003200Y0041440D01*
X0003200Y0042439D02*
X0059100Y0042439D01*
X0059499Y0043437D02*
X0003200Y0043437D01*
X0003200Y0044436D02*
X0060006Y0044436D01*
X0061005Y0045434D02*
X0003200Y0045434D01*
X0014465Y0025464D02*
X0061035Y0025464D01*
X0060036Y0024466D02*
X0015464Y0024466D01*
X0015989Y0023467D02*
X0059511Y0023467D01*
X0059100Y0022469D02*
X0016400Y0022469D01*
X0016400Y0021470D02*
X0059100Y0021470D01*
X0059122Y0020472D02*
X0016378Y0020472D01*
X0015964Y0019473D02*
X0059536Y0019473D01*
X0060096Y0018475D02*
X0015404Y0018475D01*
X0065039Y0086373D02*
X0082961Y0086373D01*
X0085039Y0086373D02*
X0092221Y0086373D01*
X0092221Y0085375D02*
X0087055Y0085375D01*
X0088053Y0084376D02*
X0092221Y0084376D01*
X0092221Y0083378D02*
X0088526Y0083378D01*
X0088900Y0082379D02*
X0092221Y0082379D01*
X0092221Y0081381D02*
X0088900Y0081381D01*
X0088841Y0080382D02*
X0092221Y0080382D01*
X0092221Y0079384D02*
X0088427Y0079384D01*
X0087815Y0078385D02*
X0092221Y0078385D01*
X0092221Y0077387D02*
X0086816Y0077387D01*
X0086802Y0087372D02*
X0092221Y0087372D01*
X0092221Y0088370D02*
X0087800Y0088370D01*
X0088421Y0089369D02*
X0092221Y0089369D01*
X0092221Y0090368D02*
X0088835Y0090368D01*
X0088900Y0091366D02*
X0092221Y0091366D01*
X0092221Y0092365D02*
X0088900Y0092365D01*
X0088532Y0093363D02*
X0092221Y0093363D01*
X0092221Y0094362D02*
X0088068Y0094362D01*
X0087070Y0095360D02*
X0092221Y0095360D01*
X0092221Y0096359D02*
X0085075Y0096359D01*
X0086787Y0097357D02*
X0092221Y0097357D01*
X0092221Y0098356D02*
X0087785Y0098356D01*
X0088415Y0099354D02*
X0092221Y0099354D01*
X0092221Y0100353D02*
X0088828Y0100353D01*
X0088900Y0101351D02*
X0092221Y0101351D01*
X0092221Y0102350D02*
X0088900Y0102350D01*
X0088538Y0103348D02*
X0092221Y0103348D01*
X0092221Y0104347D02*
X0088083Y0104347D01*
X0087084Y0105345D02*
X0092221Y0105345D01*
X0092221Y0106344D02*
X0085111Y0106344D01*
X0086766Y0107342D02*
X0092221Y0107342D01*
X0092221Y0108341D02*
X0087770Y0108341D01*
X0088409Y0109339D02*
X0092221Y0109339D01*
X0092221Y0110338D02*
X0088822Y0110338D01*
X0088900Y0111336D02*
X0092221Y0111336D01*
X0092221Y0112335D02*
X0088900Y0112335D01*
X0088544Y0113333D02*
X0092221Y0113333D01*
X0092221Y0114332D02*
X0088098Y0114332D01*
X0087099Y0115330D02*
X0092221Y0115330D01*
X0092221Y0116329D02*
X0085147Y0116329D01*
X0086731Y0117327D02*
X0092221Y0117327D01*
X0092221Y0118326D02*
X0087755Y0118326D01*
X0088403Y0119324D02*
X0092221Y0119324D01*
X0092221Y0120323D02*
X0088816Y0120323D01*
X0088900Y0121321D02*
X0092221Y0121321D01*
X0092221Y0122320D02*
X0088900Y0122320D01*
X0088551Y0123318D02*
X0092221Y0123318D01*
X0092221Y0124317D02*
X0088113Y0124317D01*
X0087114Y0125315D02*
X0092221Y0125315D01*
X0092221Y0126314D02*
X0085182Y0126314D01*
X0086695Y0127312D02*
X0092221Y0127312D01*
X0092221Y0128311D02*
X0087741Y0128311D01*
X0088396Y0129309D02*
X0092221Y0129309D01*
X0092221Y0130308D02*
X0088810Y0130308D01*
X0088900Y0131306D02*
X0092221Y0131306D01*
X0092221Y0132305D02*
X0088900Y0132305D01*
X0088557Y0133303D02*
X0092221Y0133303D01*
X0092221Y0134302D02*
X0088128Y0134302D01*
X0087129Y0135301D02*
X0092221Y0135301D01*
X0092221Y0136299D02*
X0085218Y0136299D01*
X0086659Y0137298D02*
X0092221Y0137298D01*
X0092221Y0138296D02*
X0087726Y0138296D01*
X0088390Y0139295D02*
X0092221Y0139295D01*
X0092221Y0140293D02*
X0088804Y0140293D01*
X0088900Y0141292D02*
X0092221Y0141292D01*
X0092221Y0142290D02*
X0088900Y0142290D01*
X0088563Y0143289D02*
X0092221Y0143289D01*
X0092221Y0144287D02*
X0088143Y0144287D01*
X0087144Y0145286D02*
X0092221Y0145286D01*
X0092221Y0074391D02*
X0068038Y0074391D01*
X0068520Y0073393D02*
X0092221Y0073393D01*
X0092221Y0072394D02*
X0068900Y0072394D01*
X0068900Y0071396D02*
X0092221Y0071396D01*
X0092221Y0070397D02*
X0068847Y0070397D01*
X0068433Y0069399D02*
X0092221Y0069399D01*
X0092221Y0068400D02*
X0067830Y0068400D01*
X0066831Y0067402D02*
X0092221Y0067402D01*
D12*
X0074000Y0009000D03*
X0041236Y0045295D03*
X0034000Y0059000D03*
X0034000Y0074000D03*
X0027243Y0084176D03*
X0016500Y0034000D03*
X0034000Y0009000D03*
X0024000Y0149000D03*
X0049000Y0166500D03*
M02*
