G75*
%MOIN*%
%OFA0B0*%
%FSLAX25Y25*%
%IPPOS*%
%LPD*%
%AMOC8*
5,1,8,0,0,1.08239X$1,22.5*
%
%ADD10C,0.00000*%
%ADD11R,0.05118X0.05906*%
%ADD12C,0.06400*%
%ADD13R,0.06890X0.02559*%
%ADD14R,0.05709X0.01772*%
%ADD15R,0.04724X0.01378*%
%ADD16R,0.04331X0.01772*%
%ADD17R,0.03937X0.01181*%
%ADD18C,0.01000*%
%ADD19C,0.04362*%
%ADD20C,0.02400*%
D10*
X0001500Y0001500D02*
X0001500Y0177701D01*
X0093921Y0177701D01*
X0093921Y0001500D01*
X0001500Y0001500D01*
D11*
X0058154Y0009000D03*
X0064846Y0009000D03*
X0053334Y0150913D03*
X0053350Y0159463D03*
X0046657Y0159463D03*
X0046641Y0150913D03*
D12*
X0039000Y0169000D03*
X0029000Y0169000D03*
X0011500Y0169000D03*
X0011500Y0159000D03*
X0011500Y0139000D03*
X0011500Y0129000D03*
X0011500Y0119000D03*
X0011500Y0109000D03*
X0011500Y0099000D03*
X0011500Y0089000D03*
X0011500Y0079000D03*
X0011500Y0069000D03*
X0011500Y0021500D03*
X0011500Y0011500D03*
X0064000Y0021500D03*
X0064000Y0031500D03*
X0064000Y0041500D03*
X0064000Y0051500D03*
X0064000Y0061500D03*
X0064000Y0071500D03*
X0064000Y0081500D03*
X0064000Y0091500D03*
X0084000Y0091500D03*
X0084000Y0101500D03*
X0084000Y0111500D03*
X0084000Y0121500D03*
X0084000Y0131500D03*
X0084000Y0141500D03*
X0084000Y0151500D03*
X0064000Y0151500D03*
X0064000Y0161500D03*
X0084000Y0081500D03*
D13*
X0045024Y0021500D03*
X0045024Y0016500D03*
X0045024Y0011500D03*
X0045024Y0006500D03*
X0022976Y0006500D03*
X0022976Y0011500D03*
X0022976Y0016500D03*
X0022976Y0021500D03*
D14*
X0022839Y0032661D03*
X0022839Y0035220D03*
X0022839Y0037780D03*
X0022839Y0040339D03*
X0040161Y0040339D03*
X0040161Y0037780D03*
X0040161Y0035220D03*
X0040161Y0032661D03*
D15*
X0050516Y0050043D03*
X0050516Y0052602D03*
X0050516Y0055161D03*
X0050516Y0057720D03*
X0050516Y0060280D03*
X0050516Y0062839D03*
X0050516Y0065398D03*
X0050516Y0067957D03*
X0027484Y0067957D03*
X0027484Y0065398D03*
X0027484Y0062839D03*
X0027484Y0060280D03*
X0027484Y0057720D03*
X0027484Y0055161D03*
X0027484Y0052602D03*
X0027484Y0050043D03*
D16*
X0028882Y0152661D03*
X0028882Y0155220D03*
X0028882Y0157780D03*
X0028882Y0160339D03*
X0039118Y0160339D03*
X0039118Y0157780D03*
X0039118Y0155220D03*
X0039118Y0152661D03*
D17*
X0028902Y0123134D03*
X0028902Y0120575D03*
X0028902Y0118016D03*
X0028902Y0115457D03*
X0028902Y0112898D03*
X0028902Y0110339D03*
X0028902Y0107780D03*
X0028902Y0105220D03*
X0028902Y0102661D03*
X0028902Y0100102D03*
X0028902Y0097543D03*
X0028902Y0094984D03*
X0028902Y0092425D03*
X0028902Y0089866D03*
X0054098Y0089866D03*
X0054098Y0092425D03*
X0054098Y0094984D03*
X0054098Y0097543D03*
X0054098Y0100102D03*
X0054098Y0102661D03*
X0054098Y0105220D03*
X0054098Y0107780D03*
X0054098Y0110339D03*
X0054098Y0112898D03*
X0054098Y0115457D03*
X0054098Y0118016D03*
X0054098Y0120575D03*
X0054098Y0123134D03*
D18*
X0054098Y0123134D01*
X0050630Y0123134D01*
X0050630Y0123922D01*
X0050732Y0124303D01*
X0050930Y0124645D01*
X0051209Y0124925D01*
X0051551Y0125122D01*
X0051932Y0125224D01*
X0052119Y0125224D01*
X0051777Y0125566D01*
X0031653Y0145690D01*
X0031653Y0150076D01*
X0028187Y0150076D01*
X0027881Y0149770D01*
X0027881Y0148228D01*
X0027290Y0146802D01*
X0026198Y0145710D01*
X0024772Y0145119D01*
X0023228Y0145119D01*
X0021802Y0145710D01*
X0020710Y0146802D01*
X0020119Y0148228D01*
X0020119Y0149772D01*
X0020710Y0151198D01*
X0021802Y0152290D01*
X0023228Y0152881D01*
X0024770Y0152881D01*
X0025017Y0153128D01*
X0025017Y0154251D01*
X0025217Y0154451D01*
X0025217Y0155220D01*
X0025986Y0155220D01*
X0025986Y0155220D01*
X0025986Y0155221D01*
X0025217Y0155221D01*
X0025217Y0155580D01*
X0015009Y0155580D01*
X0014276Y0154846D01*
X0012475Y0154100D01*
X0010525Y0154100D01*
X0008724Y0154846D01*
X0007346Y0156224D01*
X0006600Y0158025D01*
X0006600Y0159975D01*
X0007346Y0161776D01*
X0008724Y0163154D01*
X0010525Y0163900D01*
X0012475Y0163900D01*
X0014206Y0163183D01*
X0013050Y0164338D01*
X0012475Y0164100D01*
X0010525Y0164100D01*
X0008724Y0164846D01*
X0007346Y0166224D01*
X0006600Y0168025D01*
X0006600Y0169975D01*
X0007346Y0171776D01*
X0008724Y0173154D01*
X0010525Y0173900D01*
X0012475Y0173900D01*
X0014276Y0173154D01*
X0015654Y0171776D01*
X0016400Y0169975D01*
X0016400Y0168025D01*
X0016162Y0167450D01*
X0021073Y0162539D01*
X0025627Y0162539D01*
X0026012Y0162924D01*
X0031751Y0162924D01*
X0032137Y0162539D01*
X0033573Y0162539D01*
X0035453Y0160659D01*
X0035453Y0161422D01*
X0035555Y0161803D01*
X0035752Y0162145D01*
X0036032Y0162425D01*
X0036374Y0162622D01*
X0036755Y0162724D01*
X0039118Y0162724D01*
X0039118Y0160365D01*
X0039118Y0160365D01*
X0039118Y0162724D01*
X0040598Y0162724D01*
X0040598Y0163866D01*
X0041886Y0165155D01*
X0041886Y0165155D01*
X0042648Y0165916D01*
X0045119Y0165916D01*
X0045119Y0167272D01*
X0045710Y0168698D01*
X0046802Y0169790D01*
X0048228Y0170381D01*
X0049772Y0170381D01*
X0051198Y0169790D01*
X0052290Y0168698D01*
X0052881Y0167272D01*
X0052881Y0165728D01*
X0052290Y0164302D01*
X0052105Y0164116D01*
X0056613Y0164116D01*
X0057609Y0163120D01*
X0057609Y0161663D01*
X0059100Y0161663D01*
X0059100Y0162475D01*
X0059846Y0164276D01*
X0061224Y0165654D01*
X0063025Y0166400D01*
X0064975Y0166400D01*
X0066776Y0165654D01*
X0068154Y0164276D01*
X0068900Y0162475D01*
X0068900Y0160525D01*
X0068154Y0158724D01*
X0066776Y0157346D01*
X0064975Y0156600D01*
X0063025Y0156600D01*
X0061424Y0157263D01*
X0057609Y0157263D01*
X0057609Y0155806D01*
X0056983Y0155181D01*
X0057593Y0154570D01*
X0057593Y0153113D01*
X0059364Y0153113D01*
X0059846Y0154276D01*
X0061224Y0155654D01*
X0063025Y0156400D01*
X0064975Y0156400D01*
X0066776Y0155654D01*
X0068154Y0154276D01*
X0068900Y0152475D01*
X0068900Y0150525D01*
X0068154Y0148724D01*
X0066776Y0147346D01*
X0064975Y0146600D01*
X0063025Y0146600D01*
X0061224Y0147346D01*
X0059857Y0148713D01*
X0057593Y0148713D01*
X0057593Y0147256D01*
X0056597Y0146260D01*
X0050071Y0146260D01*
X0049988Y0146343D01*
X0049905Y0146260D01*
X0043378Y0146260D01*
X0042382Y0147256D01*
X0042382Y0150461D01*
X0042373Y0150461D01*
X0041988Y0150076D01*
X0037853Y0150076D01*
X0037853Y0148259D01*
X0055611Y0130500D01*
X0058157Y0130500D01*
X0059446Y0129211D01*
X0059446Y0129211D01*
X0062454Y0126202D01*
X0062454Y0130657D01*
X0063743Y0131946D01*
X0064254Y0132457D01*
X0064254Y0143501D01*
X0064073Y0143922D01*
X0064254Y0144377D01*
X0064254Y0144866D01*
X0064578Y0145190D01*
X0064748Y0145615D01*
X0065197Y0145809D01*
X0065543Y0146154D01*
X0066001Y0146154D01*
X0079100Y0151788D01*
X0079100Y0152475D01*
X0079846Y0154276D01*
X0081224Y0155654D01*
X0083025Y0156400D01*
X0084975Y0156400D01*
X0086776Y0155654D01*
X0088154Y0154276D01*
X0088900Y0152475D01*
X0088900Y0150525D01*
X0088154Y0148724D01*
X0086776Y0147346D01*
X0084975Y0146600D01*
X0083025Y0146600D01*
X0081224Y0147346D01*
X0080829Y0147741D01*
X0068654Y0142506D01*
X0068654Y0139221D01*
X0079100Y0142335D01*
X0079100Y0142475D01*
X0079846Y0144276D01*
X0081224Y0145654D01*
X0083025Y0146400D01*
X0084975Y0146400D01*
X0086776Y0145654D01*
X0088154Y0144276D01*
X0088900Y0142475D01*
X0088900Y0140525D01*
X0088154Y0138724D01*
X0086776Y0137346D01*
X0084975Y0136600D01*
X0083025Y0136600D01*
X0081224Y0137346D01*
X0080430Y0138140D01*
X0071005Y0135330D01*
X0071005Y0129651D01*
X0071026Y0129482D01*
X0079100Y0132181D01*
X0079100Y0132475D01*
X0079846Y0134276D01*
X0081224Y0135654D01*
X0083025Y0136400D01*
X0084975Y0136400D01*
X0086776Y0135654D01*
X0088154Y0134276D01*
X0088900Y0132475D01*
X0088900Y0130525D01*
X0088154Y0128724D01*
X0086776Y0127346D01*
X0084975Y0126600D01*
X0083025Y0126600D01*
X0081224Y0127346D01*
X0080545Y0128025D01*
X0071177Y0124893D01*
X0071177Y0120639D01*
X0079144Y0122581D01*
X0079846Y0124276D01*
X0081224Y0125654D01*
X0083025Y0126400D01*
X0084975Y0126400D01*
X0086776Y0125654D01*
X0088154Y0124276D01*
X0088900Y0122475D01*
X0088900Y0120525D01*
X0088154Y0118724D01*
X0086776Y0117346D01*
X0084975Y0116600D01*
X0083025Y0116600D01*
X0081224Y0117346D01*
X0080249Y0118321D01*
X0071897Y0116286D01*
X0070500Y0114889D01*
X0070500Y0113654D01*
X0073949Y0113654D01*
X0079599Y0113680D01*
X0079846Y0114276D01*
X0081224Y0115654D01*
X0083025Y0116400D01*
X0084975Y0116400D01*
X0086776Y0115654D01*
X0088154Y0114276D01*
X0088900Y0112475D01*
X0088900Y0110525D01*
X0088154Y0108724D01*
X0086776Y0107346D01*
X0084975Y0106600D01*
X0083025Y0106600D01*
X0081294Y0107317D01*
X0082450Y0106162D01*
X0083025Y0106400D01*
X0084975Y0106400D01*
X0086776Y0105654D01*
X0088154Y0104276D01*
X0088900Y0102475D01*
X0088900Y0100525D01*
X0088154Y0098724D01*
X0086776Y0097346D01*
X0084975Y0096600D01*
X0083025Y0096600D01*
X0081294Y0097317D01*
X0082450Y0096162D01*
X0083025Y0096400D01*
X0084975Y0096400D01*
X0086776Y0095654D01*
X0088154Y0094276D01*
X0088900Y0092475D01*
X0088900Y0090525D01*
X0088154Y0088724D01*
X0086776Y0087346D01*
X0084975Y0086600D01*
X0083025Y0086600D01*
X0081294Y0087317D01*
X0082450Y0086162D01*
X0083025Y0086400D01*
X0084975Y0086400D01*
X0086776Y0085654D01*
X0088154Y0084276D01*
X0088900Y0082475D01*
X0088900Y0080525D01*
X0088154Y0078724D01*
X0086776Y0077346D01*
X0084975Y0076600D01*
X0083025Y0076600D01*
X0081224Y0077346D01*
X0079846Y0078724D01*
X0079100Y0080525D01*
X0079100Y0082475D01*
X0079338Y0083050D01*
X0071800Y0090589D01*
X0071800Y0095589D01*
X0070703Y0096686D01*
X0065025Y0096686D01*
X0064739Y0096400D01*
X0064975Y0096400D01*
X0066776Y0095654D01*
X0068154Y0094276D01*
X0068900Y0092475D01*
X0068900Y0090525D01*
X0068154Y0088724D01*
X0066776Y0087346D01*
X0064975Y0086600D01*
X0063025Y0086600D01*
X0062450Y0086838D01*
X0061294Y0085683D01*
X0063025Y0086400D01*
X0064975Y0086400D01*
X0066776Y0085654D01*
X0068154Y0084276D01*
X0068900Y0082475D01*
X0068900Y0080525D01*
X0068154Y0078724D01*
X0066776Y0077346D01*
X0064975Y0076600D01*
X0063025Y0076600D01*
X0062450Y0076838D01*
X0061294Y0075683D01*
X0063025Y0076400D01*
X0064975Y0076400D01*
X0066776Y0075654D01*
X0068154Y0074276D01*
X0068900Y0072475D01*
X0068900Y0070525D01*
X0068154Y0068724D01*
X0066776Y0067346D01*
X0064975Y0066600D01*
X0063025Y0066600D01*
X0062450Y0066838D01*
X0061294Y0065683D01*
X0063025Y0066400D01*
X0064975Y0066400D01*
X0066776Y0065654D01*
X0068154Y0064276D01*
X0068900Y0062475D01*
X0068900Y0060525D01*
X0068154Y0058724D01*
X0066776Y0057346D01*
X0064975Y0056600D01*
X0063025Y0056600D01*
X0061224Y0057346D01*
X0060491Y0058080D01*
X0055599Y0058080D01*
X0058689Y0054989D01*
X0059716Y0053962D01*
X0059846Y0054276D01*
X0061224Y0055654D01*
X0063025Y0056400D01*
X0064975Y0056400D01*
X0066776Y0055654D01*
X0068154Y0054276D01*
X0068900Y0052475D01*
X0068900Y0050525D01*
X0068154Y0048724D01*
X0066776Y0047346D01*
X0064975Y0046600D01*
X0063025Y0046600D01*
X0061224Y0047346D01*
X0059846Y0048724D01*
X0059608Y0049300D01*
X0058178Y0049300D01*
X0058178Y0047933D01*
X0060841Y0045270D01*
X0061224Y0045654D01*
X0063025Y0046400D01*
X0064975Y0046400D01*
X0066776Y0045654D01*
X0068154Y0044276D01*
X0068900Y0042475D01*
X0068900Y0040525D01*
X0068154Y0038724D01*
X0066776Y0037346D01*
X0064975Y0036600D01*
X0063025Y0036600D01*
X0061294Y0037317D01*
X0062450Y0036162D01*
X0063025Y0036400D01*
X0064975Y0036400D01*
X0066776Y0035654D01*
X0068154Y0034276D01*
X0068900Y0032475D01*
X0068900Y0030525D01*
X0068154Y0028724D01*
X0066776Y0027346D01*
X0064975Y0026600D01*
X0063025Y0026600D01*
X0061294Y0027317D01*
X0062450Y0026162D01*
X0063025Y0026400D01*
X0064975Y0026400D01*
X0066776Y0025654D01*
X0068154Y0024276D01*
X0068900Y0022475D01*
X0068900Y0020525D01*
X0068154Y0018724D01*
X0066776Y0017346D01*
X0064975Y0016600D01*
X0063025Y0016600D01*
X0061224Y0017346D01*
X0059846Y0018724D01*
X0059100Y0020525D01*
X0059100Y0022475D01*
X0059338Y0023050D01*
X0050670Y0031719D01*
X0049381Y0033008D01*
X0049381Y0040193D01*
X0048316Y0041259D01*
X0048316Y0047654D01*
X0047449Y0047654D01*
X0046454Y0048650D01*
X0046454Y0069350D01*
X0047449Y0070346D01*
X0048316Y0070346D01*
X0048316Y0078927D01*
X0059338Y0089950D01*
X0059100Y0090525D01*
X0059100Y0090761D01*
X0058564Y0090225D01*
X0057767Y0090225D01*
X0057767Y0088571D01*
X0056771Y0087576D01*
X0051426Y0087576D01*
X0050430Y0088571D01*
X0050430Y0111633D01*
X0050688Y0111892D01*
X0050630Y0112110D01*
X0050630Y0112898D01*
X0053546Y0112898D01*
X0053546Y0112898D01*
X0050630Y0112898D01*
X0050630Y0113686D01*
X0050688Y0113904D01*
X0050430Y0114162D01*
X0050430Y0116575D01*
X0047186Y0116575D01*
X0045500Y0114889D01*
X0045500Y0114843D01*
X0038000Y0107343D01*
X0038000Y0100658D01*
X0036711Y0099369D01*
X0036281Y0098939D01*
X0036281Y0082043D01*
X0028515Y0074277D01*
X0024934Y0074277D01*
X0021223Y0070566D01*
X0021223Y0057434D01*
X0021295Y0057361D01*
X0023422Y0057361D01*
X0023422Y0064232D01*
X0023639Y0064449D01*
X0023622Y0064511D01*
X0023622Y0065398D01*
X0027484Y0065398D01*
X0027484Y0065398D01*
X0023622Y0065398D01*
X0023622Y0066284D01*
X0023639Y0066347D01*
X0023422Y0066564D01*
X0023422Y0069350D01*
X0024418Y0070346D01*
X0027234Y0070346D01*
X0030119Y0073230D01*
X0030119Y0074772D01*
X0030710Y0076198D01*
X0031802Y0077290D01*
X0033228Y0077881D01*
X0034772Y0077881D01*
X0036198Y0077290D01*
X0037290Y0076198D01*
X0037881Y0074772D01*
X0037881Y0073228D01*
X0037290Y0071802D01*
X0036198Y0070710D01*
X0034772Y0070119D01*
X0033230Y0070119D01*
X0031546Y0068435D01*
X0031546Y0066564D01*
X0031330Y0066347D01*
X0031346Y0066284D01*
X0031346Y0065398D01*
X0027484Y0065398D01*
X0027484Y0065398D01*
X0031346Y0065398D01*
X0031346Y0064765D01*
X0033230Y0062881D01*
X0034772Y0062881D01*
X0036198Y0062290D01*
X0037290Y0061198D01*
X0037881Y0059772D01*
X0037881Y0058228D01*
X0037290Y0056802D01*
X0036198Y0055710D01*
X0034772Y0055119D01*
X0033538Y0055119D01*
X0034211Y0054446D01*
X0035500Y0053157D01*
X0035500Y0044367D01*
X0035857Y0044724D01*
X0036794Y0044724D01*
X0037355Y0045143D01*
X0037355Y0046067D01*
X0037946Y0047494D01*
X0039037Y0048585D01*
X0040464Y0049176D01*
X0042008Y0049176D01*
X0043434Y0048585D01*
X0044526Y0047494D01*
X0045117Y0046067D01*
X0045117Y0044523D01*
X0044526Y0043097D01*
X0044037Y0042607D01*
X0044716Y0041929D01*
X0044716Y0041915D01*
X0045754Y0040877D01*
X0046516Y0040115D01*
X0046516Y0030326D01*
X0041200Y0025010D01*
X0041200Y0024231D01*
X0041381Y0024280D01*
X0044884Y0024280D01*
X0044884Y0021640D01*
X0045163Y0021640D01*
X0045163Y0024280D01*
X0048666Y0024280D01*
X0049047Y0024177D01*
X0049390Y0023980D01*
X0049669Y0023701D01*
X0049866Y0023359D01*
X0049968Y0022977D01*
X0049968Y0021640D01*
X0045163Y0021640D01*
X0045163Y0021360D01*
X0049968Y0021360D01*
X0049968Y0020023D01*
X0049866Y0019641D01*
X0049669Y0019299D01*
X0049511Y0019141D01*
X0050168Y0018484D01*
X0050168Y0014516D01*
X0049652Y0014000D01*
X0049952Y0013700D01*
X0056565Y0013700D01*
X0056612Y0013653D01*
X0061417Y0013653D01*
X0061500Y0013570D01*
X0061583Y0013653D01*
X0068110Y0013653D01*
X0069105Y0012657D01*
X0069105Y0011200D01*
X0070711Y0011200D01*
X0071802Y0012290D01*
X0073228Y0012881D01*
X0074772Y0012881D01*
X0076198Y0012290D01*
X0077290Y0011198D01*
X0077881Y0009772D01*
X0077881Y0008228D01*
X0077290Y0006802D01*
X0076198Y0005710D01*
X0074772Y0005119D01*
X0073228Y0005119D01*
X0071802Y0005710D01*
X0070711Y0006800D01*
X0069105Y0006800D01*
X0069105Y0005343D01*
X0068110Y0004347D01*
X0061583Y0004347D01*
X0061500Y0004430D01*
X0061417Y0004347D01*
X0054890Y0004347D01*
X0053894Y0005343D01*
X0053894Y0009300D01*
X0049952Y0009300D01*
X0049652Y0009000D01*
X0050168Y0008484D01*
X0050168Y0004516D01*
X0049173Y0003520D01*
X0040875Y0003520D01*
X0040095Y0004300D01*
X0035589Y0004300D01*
X0034770Y0005119D01*
X0033228Y0005119D01*
X0031802Y0005710D01*
X0030710Y0006802D01*
X0030119Y0008228D01*
X0030119Y0009772D01*
X0030710Y0011198D01*
X0031802Y0012290D01*
X0033228Y0012881D01*
X0034772Y0012881D01*
X0036198Y0012290D01*
X0037290Y0011198D01*
X0037881Y0009772D01*
X0037881Y0008700D01*
X0040095Y0008700D01*
X0040395Y0009000D01*
X0039879Y0009516D01*
X0039879Y0013484D01*
X0040395Y0014000D01*
X0039879Y0014516D01*
X0039879Y0015010D01*
X0039300Y0015589D01*
X0036800Y0018089D01*
X0036800Y0026833D01*
X0040043Y0030076D01*
X0036603Y0030076D01*
X0036217Y0030461D01*
X0034427Y0030461D01*
X0031100Y0033789D01*
X0031100Y0034792D01*
X0027393Y0031085D01*
X0027393Y0031071D01*
X0026397Y0030076D01*
X0019280Y0030076D01*
X0018661Y0030694D01*
X0017272Y0030119D01*
X0015728Y0030119D01*
X0014302Y0030710D01*
X0013210Y0031802D01*
X0012619Y0033228D01*
X0012619Y0034772D01*
X0013210Y0036198D01*
X0014302Y0037290D01*
X0015728Y0037881D01*
X0017272Y0037881D01*
X0018384Y0037420D01*
X0018484Y0037420D01*
X0018484Y0037779D01*
X0019253Y0037779D01*
X0019253Y0037780D01*
X0018484Y0037780D01*
X0018484Y0038863D01*
X0018537Y0039059D01*
X0018484Y0039255D01*
X0018484Y0040339D01*
X0022838Y0040339D01*
X0022838Y0040339D01*
X0022839Y0040339D02*
X0022839Y0042724D01*
X0022839Y0040339D01*
X0022839Y0040339D01*
X0027193Y0040339D01*
X0027193Y0041422D01*
X0027091Y0041803D01*
X0026893Y0042145D01*
X0026614Y0042425D01*
X0026272Y0042622D01*
X0025890Y0042724D01*
X0022839Y0042724D01*
X0019787Y0042724D01*
X0019405Y0042622D01*
X0019063Y0042425D01*
X0018784Y0042145D01*
X0018586Y0041803D01*
X0018484Y0041422D01*
X0018484Y0040339D01*
X0022838Y0040339D01*
X0022839Y0040338D02*
X0022839Y0040338D01*
X0022839Y0037806D01*
X0022839Y0037806D01*
X0022839Y0040165D01*
X0022839Y0040338D01*
X0022839Y0040339D02*
X0022839Y0040339D01*
X0027193Y0040339D01*
X0027193Y0039255D01*
X0027140Y0039059D01*
X0027193Y0038863D01*
X0027193Y0037780D01*
X0026424Y0037780D01*
X0026424Y0037779D01*
X0027193Y0037779D01*
X0027193Y0037107D01*
X0029300Y0039215D01*
X0029300Y0047854D01*
X0027484Y0047854D01*
X0027484Y0050043D01*
X0027484Y0050043D01*
X0023622Y0050043D01*
X0023622Y0049157D01*
X0023724Y0048775D01*
X0023922Y0048433D01*
X0024201Y0048154D01*
X0024543Y0047957D01*
X0024925Y0047854D01*
X0027484Y0047854D01*
X0027484Y0050043D01*
X0027484Y0050043D01*
X0023622Y0050043D01*
X0023622Y0050402D01*
X0019486Y0050402D01*
X0015589Y0054300D01*
X0015589Y0054300D01*
X0014300Y0055589D01*
X0014300Y0064870D01*
X0014276Y0064846D01*
X0012475Y0064100D01*
X0010525Y0064100D01*
X0008724Y0064846D01*
X0007346Y0066224D01*
X0006600Y0068025D01*
X0006600Y0069975D01*
X0007346Y0071776D01*
X0008724Y0073154D01*
X0010525Y0073900D01*
X0012475Y0073900D01*
X0012778Y0073774D01*
X0013405Y0074486D01*
X0012475Y0074100D01*
X0010525Y0074100D01*
X0008724Y0074846D01*
X0007346Y0076224D01*
X0006600Y0078025D01*
X0006600Y0079975D01*
X0007346Y0081776D01*
X0008724Y0083154D01*
X0010525Y0083900D01*
X0012475Y0083900D01*
X0013050Y0083662D01*
X0014206Y0084817D01*
X0012475Y0084100D01*
X0010525Y0084100D01*
X0008724Y0084846D01*
X0007346Y0086224D01*
X0006600Y0088025D01*
X0006600Y0089975D01*
X0007346Y0091776D01*
X0008724Y0093154D01*
X0010525Y0093900D01*
X0012475Y0093900D01*
X0013050Y0093662D01*
X0014206Y0094817D01*
X0012475Y0094100D01*
X0010525Y0094100D01*
X0008724Y0094846D01*
X0007346Y0096224D01*
X0006600Y0098025D01*
X0006600Y0099975D01*
X0007346Y0101776D01*
X0008724Y0103154D01*
X0010525Y0103900D01*
X0012475Y0103900D01*
X0014276Y0103154D01*
X0015127Y0102302D01*
X0022586Y0102302D01*
X0018089Y0106800D01*
X0015892Y0106800D01*
X0015654Y0106224D01*
X0014276Y0104846D01*
X0012475Y0104100D01*
X0010525Y0104100D01*
X0008724Y0104846D01*
X0007346Y0106224D01*
X0006600Y0108025D01*
X0006600Y0109975D01*
X0007346Y0111776D01*
X0008724Y0113154D01*
X0010525Y0113900D01*
X0012475Y0113900D01*
X0014276Y0113154D01*
X0015654Y0111776D01*
X0015892Y0111200D01*
X0019833Y0111200D01*
X0019833Y0112556D01*
X0015803Y0116585D01*
X0015654Y0116224D01*
X0014276Y0114846D01*
X0012475Y0114100D01*
X0010525Y0114100D01*
X0008724Y0114846D01*
X0007346Y0116224D01*
X0006600Y0118025D01*
X0006600Y0119975D01*
X0007346Y0121776D01*
X0008724Y0123154D01*
X0010525Y0123900D01*
X0012475Y0123900D01*
X0014206Y0123183D01*
X0013050Y0124338D01*
X0012475Y0124100D01*
X0010525Y0124100D01*
X0008724Y0124846D01*
X0007346Y0126224D01*
X0006600Y0128025D01*
X0006600Y0129975D01*
X0007346Y0131776D01*
X0008724Y0133154D01*
X0010525Y0133900D01*
X0012475Y0133900D01*
X0014206Y0133183D01*
X0013050Y0134338D01*
X0012475Y0134100D01*
X0010525Y0134100D01*
X0008724Y0134846D01*
X0007346Y0136224D01*
X0006600Y0138025D01*
X0006600Y0139975D01*
X0007346Y0141776D01*
X0008724Y0143154D01*
X0010525Y0143900D01*
X0012475Y0143900D01*
X0014276Y0143154D01*
X0015654Y0141776D01*
X0016400Y0139975D01*
X0016400Y0138025D01*
X0016162Y0137450D01*
X0026544Y0127067D01*
X0027833Y0125778D01*
X0027833Y0125224D01*
X0028902Y0125224D01*
X0028902Y0123134D01*
X0032370Y0123134D01*
X0032370Y0123922D01*
X0032268Y0124303D01*
X0032070Y0124645D01*
X0031791Y0124925D01*
X0031449Y0125122D01*
X0031068Y0125224D01*
X0028902Y0125224D01*
X0028902Y0123134D01*
X0028902Y0123134D01*
X0032370Y0123134D01*
X0032370Y0122346D01*
X0032268Y0121964D01*
X0032204Y0121854D01*
X0032268Y0121744D01*
X0032370Y0121363D01*
X0032370Y0120575D01*
X0028902Y0120575D01*
X0028902Y0120575D01*
X0028902Y0120575D01*
X0028902Y0123134D01*
X0028902Y0123134D01*
X0028902Y0123134D01*
X0028902Y0122665D01*
X0028902Y0120575D01*
X0032370Y0120575D01*
X0032370Y0119787D01*
X0032268Y0119405D01*
X0032204Y0119295D01*
X0032268Y0119185D01*
X0032370Y0118804D01*
X0032370Y0118016D01*
X0028902Y0118016D01*
X0028902Y0118016D01*
X0028902Y0118016D01*
X0028902Y0120575D01*
X0028902Y0120575D01*
X0028902Y0120106D01*
X0028902Y0118016D01*
X0032370Y0118016D01*
X0032370Y0117228D01*
X0032268Y0116846D01*
X0032204Y0116736D01*
X0032268Y0116626D01*
X0032370Y0116245D01*
X0032370Y0115457D01*
X0028902Y0115457D01*
X0028902Y0115457D01*
X0028902Y0115457D01*
X0028902Y0118016D01*
X0028902Y0118016D01*
X0028902Y0115925D01*
X0028902Y0115457D01*
X0032370Y0115457D01*
X0032370Y0114669D01*
X0032268Y0114287D01*
X0032204Y0114177D01*
X0032268Y0114067D01*
X0032370Y0113686D01*
X0032370Y0112898D01*
X0028902Y0112898D01*
X0028902Y0112898D01*
X0028902Y0112898D01*
X0028902Y0115457D01*
X0028902Y0115457D01*
X0028902Y0114988D01*
X0028902Y0112898D01*
X0032370Y0112898D01*
X0032370Y0112110D01*
X0032312Y0111892D01*
X0032570Y0111633D01*
X0032570Y0110681D01*
X0033089Y0111200D01*
X0039300Y0117411D01*
X0039300Y0119911D01*
X0040589Y0121200D01*
X0042164Y0122775D01*
X0050630Y0122775D01*
X0050630Y0123134D01*
X0054098Y0123134D01*
X0054098Y0120575D02*
X0043075Y0120575D01*
X0041500Y0119000D01*
X0041500Y0116500D01*
X0034000Y0109000D01*
X0034000Y0102315D01*
X0032281Y0100596D01*
X0032281Y0083700D01*
X0027581Y0079000D01*
X0024000Y0079000D01*
X0016500Y0071500D01*
X0016500Y0056500D01*
X0020398Y0052602D01*
X0027484Y0052602D01*
X0030398Y0052602D01*
X0031500Y0051500D01*
X0031500Y0038303D01*
X0026231Y0033035D01*
X0023212Y0033035D01*
X0022839Y0032661D01*
X0022839Y0035220D02*
X0017720Y0035220D01*
X0016500Y0034000D01*
X0018088Y0030457D02*
X0018899Y0030457D01*
X0018484Y0037446D02*
X0018321Y0037446D01*
X0017720Y0037780D02*
X0016500Y0039000D01*
X0017720Y0037780D02*
X0022839Y0037780D01*
X0027780Y0037780D01*
X0029000Y0039000D01*
X0029300Y0039443D02*
X0027193Y0039443D01*
X0027193Y0038445D02*
X0028530Y0038445D01*
X0027532Y0037446D02*
X0027193Y0037446D01*
X0027193Y0040442D02*
X0029300Y0040442D01*
X0029300Y0041440D02*
X0027188Y0041440D01*
X0026589Y0042439D02*
X0029300Y0042439D01*
X0029300Y0043437D02*
X0003200Y0043437D01*
X0003200Y0042439D02*
X0019088Y0042439D01*
X0018489Y0041440D02*
X0003200Y0041440D01*
X0003200Y0040442D02*
X0018484Y0040442D01*
X0018484Y0039443D02*
X0003200Y0039443D01*
X0003200Y0038445D02*
X0018484Y0038445D01*
X0014679Y0037446D02*
X0003200Y0037446D01*
X0003200Y0036448D02*
X0013459Y0036448D01*
X0012899Y0035449D02*
X0003200Y0035449D01*
X0003200Y0034451D02*
X0012619Y0034451D01*
X0012619Y0033452D02*
X0003200Y0033452D01*
X0003200Y0032454D02*
X0012940Y0032454D01*
X0013556Y0031455D02*
X0003200Y0031455D01*
X0003200Y0030457D02*
X0014912Y0030457D01*
X0012475Y0026400D02*
X0010525Y0026400D01*
X0008724Y0025654D01*
X0007346Y0024276D01*
X0006600Y0022475D01*
X0006600Y0020525D01*
X0007346Y0018724D01*
X0008724Y0017346D01*
X0010525Y0016600D01*
X0012299Y0016600D01*
X0012516Y0016383D01*
X0012475Y0016400D01*
X0010525Y0016400D01*
X0008724Y0015654D01*
X0007346Y0014276D01*
X0006600Y0012475D01*
X0006600Y0010525D01*
X0007346Y0008724D01*
X0008724Y0007346D01*
X0010525Y0006600D01*
X0012299Y0006600D01*
X0014857Y0004041D01*
X0015923Y0003600D01*
X0018748Y0003600D01*
X0018827Y0003520D01*
X0027125Y0003520D01*
X0028121Y0004516D01*
X0028121Y0008484D01*
X0027605Y0009000D01*
X0028121Y0009516D01*
X0028121Y0013484D01*
X0027605Y0014000D01*
X0028121Y0014516D01*
X0028121Y0018484D01*
X0027605Y0019000D01*
X0028121Y0019516D01*
X0028121Y0023484D01*
X0027125Y0024480D01*
X0018827Y0024480D01*
X0018748Y0024400D01*
X0015530Y0024400D01*
X0014276Y0025654D01*
X0012475Y0026400D01*
X0014465Y0025464D02*
X0036800Y0025464D01*
X0036800Y0024466D02*
X0027139Y0024466D01*
X0028121Y0023467D02*
X0036800Y0023467D01*
X0036800Y0022469D02*
X0028121Y0022469D01*
X0028121Y0021470D02*
X0036800Y0021470D01*
X0036800Y0020472D02*
X0028121Y0020472D01*
X0028078Y0019473D02*
X0036800Y0019473D01*
X0036800Y0018475D02*
X0028121Y0018475D01*
X0028121Y0017476D02*
X0037413Y0017476D01*
X0038411Y0016478D02*
X0028121Y0016478D01*
X0028121Y0015479D02*
X0039410Y0015479D01*
X0039914Y0014481D02*
X0028086Y0014481D01*
X0028121Y0013482D02*
X0039879Y0013482D01*
X0039879Y0012484D02*
X0035732Y0012484D01*
X0037004Y0011485D02*
X0039879Y0011485D01*
X0039879Y0010487D02*
X0037585Y0010487D01*
X0037881Y0009488D02*
X0039907Y0009488D01*
X0036500Y0006500D02*
X0034000Y0009000D01*
X0032322Y0005494D02*
X0028121Y0005494D01*
X0028121Y0006493D02*
X0031019Y0006493D01*
X0030424Y0007491D02*
X0028121Y0007491D01*
X0028115Y0008490D02*
X0030119Y0008490D01*
X0030119Y0009488D02*
X0028093Y0009488D01*
X0028121Y0010487D02*
X0030415Y0010487D01*
X0030996Y0011485D02*
X0028121Y0011485D01*
X0028121Y0012484D02*
X0032268Y0012484D01*
X0035393Y0004496D02*
X0028100Y0004496D01*
X0036500Y0006500D02*
X0045024Y0006500D01*
X0045024Y0011500D02*
X0055654Y0011500D01*
X0058154Y0009000D01*
X0054742Y0004496D02*
X0050148Y0004496D01*
X0050168Y0005494D02*
X0053894Y0005494D01*
X0053894Y0006493D02*
X0050168Y0006493D01*
X0050168Y0007491D02*
X0053894Y0007491D01*
X0053894Y0008490D02*
X0050163Y0008490D01*
X0050133Y0014481D02*
X0092221Y0014481D01*
X0092221Y0015479D02*
X0050168Y0015479D01*
X0050168Y0016478D02*
X0092221Y0016478D01*
X0092221Y0017476D02*
X0066906Y0017476D01*
X0067904Y0018475D02*
X0092221Y0018475D01*
X0092221Y0019473D02*
X0068464Y0019473D01*
X0068878Y0020472D02*
X0092221Y0020472D01*
X0092221Y0021470D02*
X0068900Y0021470D01*
X0068900Y0022469D02*
X0092221Y0022469D01*
X0092221Y0023467D02*
X0068489Y0023467D01*
X0067964Y0024466D02*
X0092221Y0024466D01*
X0092221Y0025464D02*
X0066965Y0025464D01*
X0066891Y0027461D02*
X0092221Y0027461D01*
X0092221Y0026463D02*
X0062148Y0026463D01*
X0064000Y0021500D02*
X0051581Y0033919D01*
X0051581Y0041105D01*
X0050516Y0042170D01*
X0050516Y0050043D01*
X0051086Y0052032D02*
X0050516Y0052602D01*
X0051086Y0052032D02*
X0053416Y0052032D01*
X0054178Y0051271D01*
X0054178Y0041322D01*
X0064000Y0031500D01*
X0066980Y0035449D02*
X0092221Y0035449D01*
X0092221Y0034451D02*
X0067979Y0034451D01*
X0068495Y0033452D02*
X0092221Y0033452D01*
X0092221Y0032454D02*
X0068900Y0032454D01*
X0068900Y0031455D02*
X0092221Y0031455D01*
X0092221Y0030457D02*
X0068872Y0030457D01*
X0068458Y0029458D02*
X0092221Y0029458D01*
X0092221Y0028460D02*
X0067889Y0028460D01*
X0066876Y0037446D02*
X0092221Y0037446D01*
X0092221Y0036448D02*
X0062163Y0036448D01*
X0061500Y0041500D02*
X0064000Y0041500D01*
X0061500Y0041500D02*
X0055978Y0047022D01*
X0055978Y0052030D01*
X0053416Y0054591D01*
X0051086Y0054591D01*
X0050516Y0055161D01*
X0050516Y0057720D02*
X0052846Y0057720D01*
X0057778Y0052789D01*
X0057778Y0052722D01*
X0059000Y0051500D01*
X0064000Y0051500D01*
X0067010Y0055420D02*
X0092221Y0055420D01*
X0092221Y0056418D02*
X0057260Y0056418D01*
X0056261Y0057417D02*
X0061154Y0057417D01*
X0060990Y0055420D02*
X0058258Y0055420D01*
X0059257Y0054421D02*
X0059991Y0054421D01*
X0060140Y0048430D02*
X0058178Y0048430D01*
X0058680Y0047432D02*
X0061139Y0047432D01*
X0061005Y0045434D02*
X0060677Y0045434D01*
X0059678Y0046433D02*
X0092221Y0046433D01*
X0092221Y0045434D02*
X0066995Y0045434D01*
X0067994Y0044436D02*
X0092221Y0044436D01*
X0092221Y0043437D02*
X0068501Y0043437D01*
X0068900Y0042439D02*
X0092221Y0042439D01*
X0092221Y0041440D02*
X0068900Y0041440D01*
X0068865Y0040442D02*
X0092221Y0040442D01*
X0092221Y0039443D02*
X0068452Y0039443D01*
X0067875Y0038445D02*
X0092221Y0038445D01*
X0092221Y0047432D02*
X0066861Y0047432D01*
X0067860Y0048430D02*
X0092221Y0048430D01*
X0092221Y0049429D02*
X0068446Y0049429D01*
X0068859Y0050427D02*
X0092221Y0050427D01*
X0092221Y0051426D02*
X0068900Y0051426D01*
X0068900Y0052424D02*
X0092221Y0052424D01*
X0092221Y0053423D02*
X0068507Y0053423D01*
X0068009Y0054421D02*
X0092221Y0054421D01*
X0092221Y0057417D02*
X0066846Y0057417D01*
X0067845Y0058415D02*
X0092221Y0058415D01*
X0092221Y0059414D02*
X0068440Y0059414D01*
X0068853Y0060412D02*
X0092221Y0060412D01*
X0092221Y0061411D02*
X0068900Y0061411D01*
X0068900Y0062409D02*
X0092221Y0062409D01*
X0092221Y0063408D02*
X0068514Y0063408D01*
X0068023Y0064406D02*
X0092221Y0064406D01*
X0092221Y0065405D02*
X0067025Y0065405D01*
X0066831Y0067402D02*
X0092221Y0067402D01*
X0092221Y0068400D02*
X0067830Y0068400D01*
X0068433Y0069399D02*
X0092221Y0069399D01*
X0092221Y0070397D02*
X0068847Y0070397D01*
X0068900Y0071396D02*
X0092221Y0071396D01*
X0092221Y0072394D02*
X0068900Y0072394D01*
X0068520Y0073393D02*
X0092221Y0073393D01*
X0092221Y0074391D02*
X0068038Y0074391D01*
X0067040Y0075390D02*
X0092221Y0075390D01*
X0092221Y0076388D02*
X0065003Y0076388D01*
X0066816Y0077387D02*
X0081183Y0077387D01*
X0080185Y0078385D02*
X0067815Y0078385D01*
X0068427Y0079384D02*
X0079573Y0079384D01*
X0079159Y0080382D02*
X0068841Y0080382D01*
X0068900Y0081381D02*
X0079100Y0081381D01*
X0079100Y0082379D02*
X0068900Y0082379D01*
X0068526Y0083378D02*
X0079011Y0083378D01*
X0078012Y0084376D02*
X0068053Y0084376D01*
X0067055Y0085375D02*
X0077014Y0085375D01*
X0076015Y0086373D02*
X0065039Y0086373D01*
X0066802Y0087372D02*
X0075017Y0087372D01*
X0074018Y0088370D02*
X0067800Y0088370D01*
X0068421Y0089369D02*
X0073020Y0089369D01*
X0072021Y0090368D02*
X0068835Y0090368D01*
X0068900Y0091366D02*
X0071800Y0091366D01*
X0071800Y0092365D02*
X0068900Y0092365D01*
X0068532Y0093363D02*
X0071800Y0093363D01*
X0071800Y0094362D02*
X0068068Y0094362D01*
X0067070Y0095360D02*
X0071800Y0095360D01*
X0071030Y0096359D02*
X0065075Y0096359D01*
X0064114Y0098886D02*
X0071614Y0098886D01*
X0074000Y0096500D01*
X0074000Y0091500D01*
X0084000Y0081500D01*
X0082961Y0086373D02*
X0082238Y0086373D01*
X0085039Y0086373D02*
X0092221Y0086373D01*
X0092221Y0085375D02*
X0087055Y0085375D01*
X0088053Y0084376D02*
X0092221Y0084376D01*
X0092221Y0083378D02*
X0088526Y0083378D01*
X0088900Y0082379D02*
X0092221Y0082379D01*
X0092221Y0081381D02*
X0088900Y0081381D01*
X0088841Y0080382D02*
X0092221Y0080382D01*
X0092221Y0079384D02*
X0088427Y0079384D01*
X0087815Y0078385D02*
X0092221Y0078385D01*
X0092221Y0077387D02*
X0086816Y0077387D01*
X0086802Y0087372D02*
X0092221Y0087372D01*
X0092221Y0088370D02*
X0087800Y0088370D01*
X0088421Y0089369D02*
X0092221Y0089369D01*
X0092221Y0090368D02*
X0088835Y0090368D01*
X0088900Y0091366D02*
X0092221Y0091366D01*
X0092221Y0092365D02*
X0088900Y0092365D01*
X0088532Y0093363D02*
X0092221Y0093363D01*
X0092221Y0094362D02*
X0088068Y0094362D01*
X0087070Y0095360D02*
X0092221Y0095360D01*
X0092221Y0096359D02*
X0085075Y0096359D01*
X0086787Y0097357D02*
X0092221Y0097357D01*
X0092221Y0098356D02*
X0087785Y0098356D01*
X0088415Y0099354D02*
X0092221Y0099354D01*
X0092221Y0100353D02*
X0088828Y0100353D01*
X0088900Y0101351D02*
X0092221Y0101351D01*
X0092221Y0102350D02*
X0088900Y0102350D01*
X0088538Y0103348D02*
X0092221Y0103348D01*
X0092221Y0104347D02*
X0088083Y0104347D01*
X0087084Y0105345D02*
X0092221Y0105345D01*
X0092221Y0106344D02*
X0085111Y0106344D01*
X0086766Y0107342D02*
X0092221Y0107342D01*
X0092221Y0108341D02*
X0087770Y0108341D01*
X0088409Y0109339D02*
X0092221Y0109339D01*
X0092221Y0110338D02*
X0088822Y0110338D01*
X0088900Y0111336D02*
X0092221Y0111336D01*
X0092221Y0112335D02*
X0088900Y0112335D01*
X0088544Y0113333D02*
X0092221Y0113333D01*
X0092221Y0114332D02*
X0088098Y0114332D01*
X0087099Y0115330D02*
X0092221Y0115330D01*
X0092221Y0116329D02*
X0085147Y0116329D01*
X0086731Y0117327D02*
X0092221Y0117327D01*
X0092221Y0118326D02*
X0087755Y0118326D01*
X0088403Y0119324D02*
X0092221Y0119324D01*
X0092221Y0120323D02*
X0088816Y0120323D01*
X0088900Y0121321D02*
X0092221Y0121321D01*
X0092221Y0122320D02*
X0088900Y0122320D01*
X0088551Y0123318D02*
X0092221Y0123318D01*
X0092221Y0124317D02*
X0088113Y0124317D01*
X0087114Y0125315D02*
X0092221Y0125315D01*
X0092221Y0126314D02*
X0085182Y0126314D01*
X0086695Y0127312D02*
X0092221Y0127312D01*
X0092221Y0128311D02*
X0087741Y0128311D01*
X0088396Y0129309D02*
X0092221Y0129309D01*
X0092221Y0130308D02*
X0088810Y0130308D01*
X0088900Y0131306D02*
X0092221Y0131306D01*
X0092221Y0132305D02*
X0088900Y0132305D01*
X0088557Y0133303D02*
X0092221Y0133303D01*
X0092221Y0134302D02*
X0088128Y0134302D01*
X0087129Y0135301D02*
X0092221Y0135301D01*
X0092221Y0136299D02*
X0085218Y0136299D01*
X0086659Y0137298D02*
X0092221Y0137298D01*
X0092221Y0138296D02*
X0087726Y0138296D01*
X0088390Y0139295D02*
X0092221Y0139295D01*
X0092221Y0140293D02*
X0088804Y0140293D01*
X0088900Y0141292D02*
X0092221Y0141292D01*
X0092221Y0142290D02*
X0088900Y0142290D01*
X0088563Y0143289D02*
X0092221Y0143289D01*
X0092221Y0144287D02*
X0088143Y0144287D01*
X0087144Y0145286D02*
X0092221Y0145286D01*
X0092221Y0146284D02*
X0085254Y0146284D01*
X0086623Y0147283D02*
X0092221Y0147283D01*
X0092221Y0148281D02*
X0087711Y0148281D01*
X0088384Y0149280D02*
X0092221Y0149280D01*
X0092221Y0150278D02*
X0088798Y0150278D01*
X0088900Y0151277D02*
X0092221Y0151277D01*
X0092221Y0152275D02*
X0088900Y0152275D01*
X0088569Y0153274D02*
X0092221Y0153274D01*
X0092221Y0154272D02*
X0088155Y0154272D01*
X0087159Y0155271D02*
X0092221Y0155271D01*
X0092221Y0156269D02*
X0085290Y0156269D01*
X0082710Y0156269D02*
X0065290Y0156269D01*
X0066587Y0157268D02*
X0092221Y0157268D01*
X0092221Y0158266D02*
X0067696Y0158266D01*
X0068378Y0159265D02*
X0092221Y0159265D01*
X0092221Y0160263D02*
X0068791Y0160263D01*
X0068900Y0161262D02*
X0092221Y0161262D01*
X0092221Y0162260D02*
X0068900Y0162260D01*
X0068575Y0163259D02*
X0092221Y0163259D01*
X0092221Y0164257D02*
X0068162Y0164257D01*
X0067174Y0165256D02*
X0092221Y0165256D01*
X0092221Y0166254D02*
X0065326Y0166254D01*
X0062674Y0166254D02*
X0052881Y0166254D01*
X0052881Y0167253D02*
X0092221Y0167253D01*
X0092221Y0168251D02*
X0052475Y0168251D01*
X0051739Y0169250D02*
X0092221Y0169250D01*
X0092221Y0170248D02*
X0050092Y0170248D01*
X0047908Y0170248D02*
X0043536Y0170248D01*
X0043584Y0170101D02*
X0043356Y0170804D01*
X0043020Y0171463D01*
X0042585Y0172062D01*
X0042062Y0172585D01*
X0041463Y0173020D01*
X0040804Y0173356D01*
X0040101Y0173584D01*
X0039500Y0173679D01*
X0039500Y0169500D01*
X0038500Y0169500D01*
X0038500Y0173679D01*
X0037899Y0173584D01*
X0037196Y0173356D01*
X0036537Y0173020D01*
X0035938Y0172585D01*
X0035415Y0172062D01*
X0034980Y0171463D01*
X0034644Y0170804D01*
X0034416Y0170101D01*
X0034321Y0169500D01*
X0038500Y0169500D01*
X0038500Y0168500D01*
X0034321Y0168500D01*
X0034416Y0167899D01*
X0034644Y0167196D01*
X0034980Y0166537D01*
X0035415Y0165938D01*
X0035938Y0165415D01*
X0036537Y0164980D01*
X0037196Y0164644D01*
X0037899Y0164416D01*
X0038500Y0164321D01*
X0038500Y0168500D01*
X0039500Y0168500D01*
X0039500Y0169500D01*
X0043679Y0169500D01*
X0043584Y0170101D01*
X0043130Y0171247D02*
X0092221Y0171247D01*
X0092221Y0172245D02*
X0042401Y0172245D01*
X0041023Y0173244D02*
X0092221Y0173244D01*
X0092221Y0174242D02*
X0003200Y0174242D01*
X0003200Y0173244D02*
X0008941Y0173244D01*
X0007816Y0172245D02*
X0003200Y0172245D01*
X0003200Y0171247D02*
X0007127Y0171247D01*
X0006713Y0170248D02*
X0003200Y0170248D01*
X0003200Y0169250D02*
X0006600Y0169250D01*
X0006600Y0168251D02*
X0003200Y0168251D01*
X0003200Y0167253D02*
X0006920Y0167253D01*
X0007334Y0166254D02*
X0003200Y0166254D01*
X0003200Y0165256D02*
X0008314Y0165256D01*
X0008977Y0163259D02*
X0003200Y0163259D01*
X0003200Y0164257D02*
X0010145Y0164257D01*
X0007831Y0162260D02*
X0003200Y0162260D01*
X0003200Y0161262D02*
X0007133Y0161262D01*
X0006720Y0160263D02*
X0003200Y0160263D01*
X0003200Y0159265D02*
X0006600Y0159265D01*
X0006600Y0158266D02*
X0003200Y0158266D01*
X0003200Y0157268D02*
X0006914Y0157268D01*
X0007327Y0156269D02*
X0003200Y0156269D01*
X0003200Y0155271D02*
X0008300Y0155271D01*
X0010110Y0154272D02*
X0003200Y0154272D01*
X0003200Y0153274D02*
X0025017Y0153274D01*
X0025037Y0154272D02*
X0012890Y0154272D01*
X0014700Y0155271D02*
X0025217Y0155271D01*
X0027661Y0152661D02*
X0024000Y0149000D01*
X0025175Y0145286D02*
X0032057Y0145286D01*
X0031653Y0146284D02*
X0026773Y0146284D01*
X0027490Y0147283D02*
X0031653Y0147283D01*
X0031653Y0148281D02*
X0027881Y0148281D01*
X0027881Y0149280D02*
X0031653Y0149280D01*
X0033853Y0146602D02*
X0053977Y0126477D01*
X0054000Y0126500D01*
X0056500Y0126500D01*
X0059000Y0124000D01*
X0059000Y0121500D01*
X0058300Y0120800D01*
X0058254Y0120800D01*
X0058029Y0120575D01*
X0054098Y0120575D01*
X0054008Y0118106D02*
X0052169Y0118106D01*
X0051501Y0118775D01*
X0046275Y0118775D01*
X0043300Y0115800D01*
X0043300Y0115754D01*
X0035800Y0108254D01*
X0035800Y0101569D01*
X0034081Y0099850D01*
X0034081Y0082954D01*
X0027604Y0076477D01*
X0024023Y0076477D01*
X0019023Y0071477D01*
X0019023Y0066500D01*
X0019023Y0067896D01*
X0019023Y0066500D02*
X0019023Y0056523D01*
X0020384Y0055161D01*
X0027484Y0055161D01*
X0028054Y0054591D01*
X0030954Y0054591D01*
X0033300Y0052246D01*
X0033300Y0034700D01*
X0035339Y0032661D01*
X0040161Y0032661D01*
X0039426Y0029458D02*
X0003200Y0029458D01*
X0003200Y0028460D02*
X0038427Y0028460D01*
X0037429Y0027461D02*
X0003200Y0027461D01*
X0003200Y0026463D02*
X0036800Y0026463D01*
X0039000Y0025921D02*
X0044316Y0031237D01*
X0044316Y0039204D01*
X0043554Y0039965D01*
X0040535Y0039965D01*
X0040161Y0040339D01*
X0039788Y0038153D02*
X0036769Y0038153D01*
X0036007Y0038914D01*
X0036007Y0041763D01*
X0036769Y0042524D01*
X0037524Y0042524D01*
X0041236Y0045295D01*
X0043590Y0048430D02*
X0046674Y0048430D01*
X0046454Y0049429D02*
X0035500Y0049429D01*
X0035500Y0050427D02*
X0046454Y0050427D01*
X0046454Y0051426D02*
X0035500Y0051426D01*
X0035500Y0052424D02*
X0046454Y0052424D01*
X0046454Y0053423D02*
X0035234Y0053423D01*
X0034236Y0054421D02*
X0046454Y0054421D01*
X0046454Y0055420D02*
X0035498Y0055420D01*
X0036907Y0056418D02*
X0046454Y0056418D01*
X0046454Y0057417D02*
X0037545Y0057417D01*
X0037881Y0058415D02*
X0046454Y0058415D01*
X0046454Y0059414D02*
X0037881Y0059414D01*
X0037616Y0060412D02*
X0046454Y0060412D01*
X0046454Y0061411D02*
X0037078Y0061411D01*
X0035911Y0062409D02*
X0046454Y0062409D01*
X0046454Y0063408D02*
X0032704Y0063408D01*
X0031705Y0064406D02*
X0046454Y0064406D01*
X0046454Y0065405D02*
X0031346Y0065405D01*
X0031386Y0066403D02*
X0046454Y0066403D01*
X0046454Y0067402D02*
X0031546Y0067402D01*
X0031546Y0068400D02*
X0046454Y0068400D01*
X0046502Y0069399D02*
X0032510Y0069399D01*
X0035444Y0070397D02*
X0048316Y0070397D01*
X0048316Y0071396D02*
X0036884Y0071396D01*
X0037536Y0072394D02*
X0048316Y0072394D01*
X0048316Y0073393D02*
X0037881Y0073393D01*
X0037881Y0074391D02*
X0048316Y0074391D01*
X0048316Y0075390D02*
X0037625Y0075390D01*
X0037100Y0076388D02*
X0048316Y0076388D01*
X0048316Y0077387D02*
X0035965Y0077387D01*
X0034620Y0080382D02*
X0049771Y0080382D01*
X0048773Y0079384D02*
X0033622Y0079384D01*
X0032623Y0078385D02*
X0048316Y0078385D01*
X0050516Y0078016D02*
X0064000Y0091500D01*
X0062961Y0086373D02*
X0061985Y0086373D01*
X0058758Y0089369D02*
X0057767Y0089369D01*
X0057759Y0088370D02*
X0057566Y0088370D01*
X0056761Y0087372D02*
X0036281Y0087372D01*
X0036281Y0088370D02*
X0050631Y0088370D01*
X0050430Y0089369D02*
X0036281Y0089369D01*
X0036281Y0090368D02*
X0050430Y0090368D01*
X0050430Y0091366D02*
X0036281Y0091366D01*
X0036281Y0092365D02*
X0050430Y0092365D01*
X0050430Y0093363D02*
X0036281Y0093363D01*
X0036281Y0094362D02*
X0050430Y0094362D01*
X0050430Y0095360D02*
X0036281Y0095360D01*
X0036281Y0096359D02*
X0050430Y0096359D01*
X0050430Y0097357D02*
X0036281Y0097357D01*
X0036281Y0098356D02*
X0050430Y0098356D01*
X0050430Y0099354D02*
X0036696Y0099354D01*
X0037695Y0100353D02*
X0050430Y0100353D01*
X0050430Y0101351D02*
X0038000Y0101351D01*
X0038000Y0102350D02*
X0050430Y0102350D01*
X0050430Y0103348D02*
X0038000Y0103348D01*
X0038000Y0104347D02*
X0050430Y0104347D01*
X0050430Y0105345D02*
X0038000Y0105345D01*
X0038000Y0106344D02*
X0050430Y0106344D01*
X0050430Y0107342D02*
X0038000Y0107342D01*
X0038998Y0108341D02*
X0050430Y0108341D01*
X0050430Y0109339D02*
X0039996Y0109339D01*
X0040995Y0110338D02*
X0050430Y0110338D01*
X0050430Y0111336D02*
X0041993Y0111336D01*
X0042992Y0112335D02*
X0050630Y0112335D01*
X0050630Y0113333D02*
X0043990Y0113333D01*
X0044989Y0114332D02*
X0050430Y0114332D01*
X0050430Y0115330D02*
X0045942Y0115330D01*
X0046940Y0116329D02*
X0050430Y0116329D01*
X0052260Y0118016D02*
X0054098Y0118016D01*
X0054008Y0118106D01*
X0054098Y0118016D02*
X0058016Y0118016D01*
X0059000Y0119000D01*
X0059046Y0119000D01*
X0060800Y0120754D01*
X0060800Y0124746D01*
X0057246Y0128300D01*
X0054700Y0128300D01*
X0035653Y0147347D01*
X0035653Y0157347D01*
X0032661Y0160339D01*
X0028882Y0160339D01*
X0020161Y0160339D01*
X0011500Y0169000D01*
X0014059Y0173244D02*
X0026441Y0173244D01*
X0026224Y0173154D02*
X0024846Y0171776D01*
X0024100Y0169975D01*
X0024100Y0168025D01*
X0024846Y0166224D01*
X0026224Y0164846D01*
X0028025Y0164100D01*
X0029975Y0164100D01*
X0031776Y0164846D01*
X0033154Y0166224D01*
X0033900Y0168025D01*
X0033900Y0169975D01*
X0033154Y0171776D01*
X0031776Y0173154D01*
X0029975Y0173900D01*
X0028025Y0173900D01*
X0026224Y0173154D01*
X0025316Y0172245D02*
X0015184Y0172245D01*
X0015873Y0171247D02*
X0024627Y0171247D01*
X0024213Y0170248D02*
X0016287Y0170248D01*
X0016400Y0169250D02*
X0024100Y0169250D01*
X0024100Y0168251D02*
X0016400Y0168251D01*
X0016358Y0167253D02*
X0024420Y0167253D01*
X0024834Y0166254D02*
X0017357Y0166254D01*
X0018355Y0165256D02*
X0025814Y0165256D01*
X0027645Y0164257D02*
X0019354Y0164257D01*
X0020352Y0163259D02*
X0040598Y0163259D01*
X0040989Y0164257D02*
X0030355Y0164257D01*
X0032185Y0165256D02*
X0036157Y0165256D01*
X0035185Y0166254D02*
X0033166Y0166254D01*
X0033580Y0167253D02*
X0034626Y0167253D01*
X0034360Y0168251D02*
X0033900Y0168251D01*
X0033900Y0169250D02*
X0038500Y0169250D01*
X0038500Y0170248D02*
X0039500Y0170248D01*
X0039500Y0169250D02*
X0046261Y0169250D01*
X0045525Y0168251D02*
X0043640Y0168251D01*
X0043679Y0168500D02*
X0039500Y0168500D01*
X0039500Y0164321D01*
X0040101Y0164416D01*
X0040804Y0164644D01*
X0041463Y0164980D01*
X0042062Y0165415D01*
X0042585Y0165938D01*
X0043020Y0166537D01*
X0043356Y0167196D01*
X0043584Y0167899D01*
X0043679Y0168500D01*
X0043374Y0167253D02*
X0045119Y0167253D01*
X0045119Y0166254D02*
X0042815Y0166254D01*
X0041987Y0165256D02*
X0041843Y0165256D01*
X0043559Y0163716D02*
X0042798Y0162955D01*
X0042798Y0159128D01*
X0041449Y0157780D01*
X0039118Y0157780D01*
X0039491Y0155594D02*
X0041822Y0155594D01*
X0045692Y0159463D01*
X0046657Y0159463D01*
X0046216Y0163716D02*
X0049000Y0166500D01*
X0046216Y0163716D02*
X0043559Y0163716D01*
X0039500Y0165256D02*
X0038500Y0165256D01*
X0038500Y0166254D02*
X0039500Y0166254D01*
X0039500Y0167253D02*
X0038500Y0167253D01*
X0038500Y0168251D02*
X0039500Y0168251D01*
X0039500Y0171247D02*
X0038500Y0171247D01*
X0038500Y0172245D02*
X0039500Y0172245D01*
X0039500Y0173244D02*
X0038500Y0173244D01*
X0036977Y0173244D02*
X0031559Y0173244D01*
X0032684Y0172245D02*
X0035599Y0172245D01*
X0034870Y0171247D02*
X0033373Y0171247D01*
X0033787Y0170248D02*
X0034464Y0170248D01*
X0033851Y0162260D02*
X0035867Y0162260D01*
X0035453Y0161262D02*
X0034849Y0161262D01*
X0031586Y0157406D02*
X0033853Y0155139D01*
X0033853Y0146602D01*
X0033056Y0144287D02*
X0003200Y0144287D01*
X0003200Y0143289D02*
X0009049Y0143289D01*
X0007860Y0142290D02*
X0003200Y0142290D01*
X0003200Y0141292D02*
X0007145Y0141292D01*
X0006732Y0140293D02*
X0003200Y0140293D01*
X0003200Y0139295D02*
X0006600Y0139295D01*
X0006600Y0138296D02*
X0003200Y0138296D01*
X0003200Y0137298D02*
X0006901Y0137298D01*
X0007315Y0136299D02*
X0003200Y0136299D01*
X0003200Y0135301D02*
X0008270Y0135301D01*
X0009085Y0133303D02*
X0003200Y0133303D01*
X0003200Y0132305D02*
X0007875Y0132305D01*
X0007152Y0131306D02*
X0003200Y0131306D01*
X0003200Y0130308D02*
X0006738Y0130308D01*
X0006600Y0129309D02*
X0003200Y0129309D01*
X0003200Y0128311D02*
X0006600Y0128311D01*
X0006895Y0127312D02*
X0003200Y0127312D01*
X0003200Y0126314D02*
X0007309Y0126314D01*
X0008255Y0125315D02*
X0003200Y0125315D01*
X0003200Y0124317D02*
X0010002Y0124317D01*
X0009121Y0123318D02*
X0003200Y0123318D01*
X0003200Y0122320D02*
X0007890Y0122320D01*
X0007158Y0121321D02*
X0003200Y0121321D01*
X0003200Y0120323D02*
X0006744Y0120323D01*
X0006600Y0119324D02*
X0003200Y0119324D01*
X0003200Y0118326D02*
X0006600Y0118326D01*
X0006889Y0117327D02*
X0003200Y0117327D01*
X0003200Y0116329D02*
X0007303Y0116329D01*
X0008240Y0115330D02*
X0003200Y0115330D01*
X0003200Y0114332D02*
X0009966Y0114332D01*
X0009157Y0113333D02*
X0003200Y0113333D01*
X0003200Y0112335D02*
X0007905Y0112335D01*
X0007164Y0111336D02*
X0003200Y0111336D01*
X0003200Y0110338D02*
X0006750Y0110338D01*
X0006600Y0109339D02*
X0003200Y0109339D01*
X0003200Y0108341D02*
X0006600Y0108341D01*
X0006883Y0107342D02*
X0003200Y0107342D01*
X0003200Y0106344D02*
X0007297Y0106344D01*
X0008225Y0105345D02*
X0003200Y0105345D01*
X0003200Y0104347D02*
X0009930Y0104347D01*
X0009193Y0103348D02*
X0003200Y0103348D01*
X0003200Y0102350D02*
X0007920Y0102350D01*
X0007170Y0101351D02*
X0003200Y0101351D01*
X0003200Y0100353D02*
X0006757Y0100353D01*
X0006600Y0099354D02*
X0003200Y0099354D01*
X0003200Y0098356D02*
X0006600Y0098356D01*
X0006877Y0097357D02*
X0003200Y0097357D01*
X0003200Y0096359D02*
X0007290Y0096359D01*
X0008210Y0095360D02*
X0003200Y0095360D01*
X0003200Y0094362D02*
X0009894Y0094362D01*
X0009229Y0093363D02*
X0003200Y0093363D01*
X0003200Y0092365D02*
X0007935Y0092365D01*
X0007176Y0091366D02*
X0003200Y0091366D01*
X0003200Y0090368D02*
X0006763Y0090368D01*
X0006600Y0089369D02*
X0003200Y0089369D01*
X0003200Y0088370D02*
X0006600Y0088370D01*
X0006871Y0087372D02*
X0003200Y0087372D01*
X0003200Y0086373D02*
X0007284Y0086373D01*
X0008195Y0085375D02*
X0003200Y0085375D01*
X0003200Y0084376D02*
X0009858Y0084376D01*
X0009265Y0083378D02*
X0003200Y0083378D01*
X0003200Y0082379D02*
X0007950Y0082379D01*
X0007182Y0081381D02*
X0003200Y0081381D01*
X0003200Y0080382D02*
X0006769Y0080382D01*
X0006600Y0079384D02*
X0003200Y0079384D01*
X0003200Y0078385D02*
X0006600Y0078385D01*
X0006864Y0077387D02*
X0003200Y0077387D01*
X0003200Y0076388D02*
X0007278Y0076388D01*
X0008181Y0075390D02*
X0003200Y0075390D01*
X0003200Y0074391D02*
X0009822Y0074391D01*
X0009301Y0073393D02*
X0003200Y0073393D01*
X0003200Y0072394D02*
X0007965Y0072394D01*
X0007189Y0071396D02*
X0003200Y0071396D01*
X0003200Y0070397D02*
X0006775Y0070397D01*
X0006600Y0069399D02*
X0003200Y0069399D01*
X0003200Y0068400D02*
X0006600Y0068400D01*
X0006858Y0067402D02*
X0003200Y0067402D01*
X0003200Y0066403D02*
X0007272Y0066403D01*
X0008166Y0065405D02*
X0003200Y0065405D01*
X0003200Y0064406D02*
X0009786Y0064406D01*
X0011500Y0069000D02*
X0022978Y0082011D01*
X0024000Y0091500D01*
X0024925Y0092425D01*
X0028902Y0092425D01*
X0028902Y0089866D02*
X0028902Y0086598D01*
X0027243Y0084176D01*
X0031625Y0077387D02*
X0032035Y0077387D01*
X0030900Y0076388D02*
X0030626Y0076388D01*
X0030375Y0075390D02*
X0029628Y0075390D01*
X0030119Y0074391D02*
X0028629Y0074391D01*
X0029283Y0072394D02*
X0023051Y0072394D01*
X0022053Y0071396D02*
X0028285Y0071396D01*
X0027286Y0070397D02*
X0021223Y0070397D01*
X0021223Y0069399D02*
X0023471Y0069399D01*
X0023422Y0068400D02*
X0021223Y0068400D01*
X0021223Y0067402D02*
X0023422Y0067402D01*
X0023582Y0066403D02*
X0021223Y0066403D01*
X0021223Y0065405D02*
X0023622Y0065405D01*
X0023597Y0064406D02*
X0021223Y0064406D01*
X0021223Y0063408D02*
X0023422Y0063408D01*
X0023422Y0062409D02*
X0021223Y0062409D01*
X0021223Y0061411D02*
X0023422Y0061411D01*
X0023422Y0060412D02*
X0021223Y0060412D01*
X0021223Y0059414D02*
X0023422Y0059414D01*
X0023422Y0058415D02*
X0021223Y0058415D01*
X0021240Y0057417D02*
X0023422Y0057417D01*
X0027484Y0057720D02*
X0032720Y0057720D01*
X0034000Y0059000D01*
X0032720Y0060280D01*
X0027484Y0060280D01*
X0027484Y0062839D01*
X0030161Y0062839D01*
X0034000Y0059000D01*
X0035500Y0048430D02*
X0038882Y0048430D01*
X0037920Y0047432D02*
X0035500Y0047432D01*
X0035500Y0046433D02*
X0037506Y0046433D01*
X0037355Y0045434D02*
X0035500Y0045434D01*
X0035500Y0044436D02*
X0035569Y0044436D01*
X0039788Y0038153D02*
X0040161Y0037780D01*
X0044205Y0042439D02*
X0048316Y0042439D01*
X0048316Y0043437D02*
X0044667Y0043437D01*
X0045081Y0044436D02*
X0048316Y0044436D01*
X0048316Y0045434D02*
X0045117Y0045434D01*
X0044965Y0046433D02*
X0048316Y0046433D01*
X0048316Y0047432D02*
X0044552Y0047432D01*
X0045190Y0041440D02*
X0048316Y0041440D01*
X0049133Y0040442D02*
X0046189Y0040442D01*
X0046516Y0039443D02*
X0049381Y0039443D01*
X0049381Y0038445D02*
X0046516Y0038445D01*
X0046516Y0037446D02*
X0049381Y0037446D01*
X0049381Y0036448D02*
X0046516Y0036448D01*
X0046516Y0035449D02*
X0049381Y0035449D01*
X0049381Y0034451D02*
X0046516Y0034451D01*
X0046516Y0033452D02*
X0049381Y0033452D01*
X0049935Y0032454D02*
X0046516Y0032454D01*
X0046516Y0031455D02*
X0050933Y0031455D01*
X0051932Y0030457D02*
X0046516Y0030457D01*
X0045648Y0029458D02*
X0052930Y0029458D01*
X0053929Y0028460D02*
X0044650Y0028460D01*
X0043651Y0027461D02*
X0054927Y0027461D01*
X0055926Y0026463D02*
X0042653Y0026463D01*
X0041654Y0025464D02*
X0056924Y0025464D01*
X0057923Y0024466D02*
X0041200Y0024466D01*
X0039000Y0025921D02*
X0039000Y0019000D01*
X0041500Y0016500D01*
X0045024Y0016500D01*
X0045163Y0021470D02*
X0059100Y0021470D01*
X0059122Y0020472D02*
X0049968Y0020472D01*
X0049769Y0019473D02*
X0059536Y0019473D01*
X0060096Y0018475D02*
X0050168Y0018475D01*
X0050168Y0017476D02*
X0061094Y0017476D01*
X0059100Y0022469D02*
X0049968Y0022469D01*
X0049803Y0023467D02*
X0058921Y0023467D01*
X0064846Y0009000D02*
X0074000Y0009000D01*
X0075678Y0005494D02*
X0092221Y0005494D01*
X0092221Y0004496D02*
X0068258Y0004496D01*
X0069105Y0005494D02*
X0072322Y0005494D01*
X0071019Y0006493D02*
X0069105Y0006493D01*
X0069105Y0011485D02*
X0070996Y0011485D01*
X0072268Y0012484D02*
X0069105Y0012484D01*
X0068280Y0013482D02*
X0092221Y0013482D01*
X0092221Y0012484D02*
X0075732Y0012484D01*
X0077004Y0011485D02*
X0092221Y0011485D01*
X0092221Y0010487D02*
X0077585Y0010487D01*
X0077881Y0009488D02*
X0092221Y0009488D01*
X0092221Y0008490D02*
X0077881Y0008490D01*
X0077576Y0007491D02*
X0092221Y0007491D01*
X0092221Y0006493D02*
X0076981Y0006493D01*
X0092221Y0003497D02*
X0003200Y0003497D01*
X0003200Y0003200D02*
X0003200Y0176001D01*
X0092221Y0176001D01*
X0092221Y0003200D01*
X0003200Y0003200D01*
X0003200Y0004496D02*
X0014403Y0004496D01*
X0013405Y0005494D02*
X0003200Y0005494D01*
X0003200Y0006493D02*
X0012406Y0006493D01*
X0008579Y0007491D02*
X0003200Y0007491D01*
X0003200Y0008490D02*
X0007581Y0008490D01*
X0007030Y0009488D02*
X0003200Y0009488D01*
X0003200Y0010487D02*
X0006616Y0010487D01*
X0006600Y0011485D02*
X0003200Y0011485D01*
X0003200Y0012484D02*
X0006604Y0012484D01*
X0007017Y0013482D02*
X0003200Y0013482D01*
X0003200Y0014481D02*
X0007551Y0014481D01*
X0008550Y0015479D02*
X0003200Y0015479D01*
X0003200Y0016478D02*
X0012421Y0016478D01*
X0015464Y0024466D02*
X0018814Y0024466D01*
X0022839Y0038445D02*
X0022839Y0038445D01*
X0022839Y0039443D02*
X0022839Y0039443D01*
X0022839Y0040442D02*
X0022839Y0040442D01*
X0022839Y0041440D02*
X0022839Y0041440D01*
X0022839Y0042439D02*
X0022839Y0042439D01*
X0023925Y0048430D02*
X0003200Y0048430D01*
X0003200Y0047432D02*
X0029300Y0047432D01*
X0029300Y0046433D02*
X0003200Y0046433D01*
X0003200Y0045434D02*
X0029300Y0045434D01*
X0029300Y0044436D02*
X0003200Y0044436D01*
X0003200Y0049429D02*
X0023622Y0049429D01*
X0027484Y0049429D02*
X0027484Y0049429D01*
X0027484Y0048430D02*
X0027484Y0048430D01*
X0027484Y0057720D02*
X0027484Y0060280D01*
X0027484Y0067957D02*
X0027957Y0067957D01*
X0034000Y0074000D01*
X0030119Y0073393D02*
X0024050Y0073393D01*
X0011500Y0079000D02*
X0021500Y0089000D01*
X0021500Y0094000D01*
X0022484Y0094984D01*
X0028902Y0094984D01*
X0028902Y0097543D02*
X0020043Y0097543D01*
X0011500Y0089000D01*
X0013142Y0084376D02*
X0013765Y0084376D01*
X0013750Y0094362D02*
X0013106Y0094362D01*
X0011500Y0099000D02*
X0012602Y0100102D01*
X0028902Y0100102D01*
X0028902Y0102661D02*
X0025339Y0102661D01*
X0019000Y0109000D01*
X0011500Y0109000D01*
X0013070Y0104347D02*
X0020542Y0104347D01*
X0019544Y0105345D02*
X0014775Y0105345D01*
X0015703Y0106344D02*
X0018545Y0106344D01*
X0021541Y0103348D02*
X0013807Y0103348D01*
X0015080Y0102350D02*
X0022539Y0102350D01*
X0027063Y0105220D02*
X0022033Y0110250D01*
X0022033Y0113467D01*
X0016500Y0119000D01*
X0011500Y0119000D01*
X0014760Y0115330D02*
X0017058Y0115330D01*
X0016060Y0116329D02*
X0015697Y0116329D01*
X0018057Y0114332D02*
X0013034Y0114332D01*
X0013843Y0113333D02*
X0019055Y0113333D01*
X0019833Y0112335D02*
X0015095Y0112335D01*
X0015836Y0111336D02*
X0019833Y0111336D01*
X0023833Y0111010D02*
X0027063Y0107780D01*
X0028902Y0107780D01*
X0028902Y0110339D02*
X0027063Y0110339D01*
X0025633Y0111769D01*
X0025633Y0124867D01*
X0011500Y0139000D01*
X0012962Y0134302D02*
X0013087Y0134302D01*
X0013915Y0133303D02*
X0014085Y0133303D01*
X0011500Y0129000D02*
X0023833Y0116667D01*
X0023833Y0111010D01*
X0027063Y0105220D02*
X0028902Y0105220D01*
X0032570Y0111336D02*
X0033225Y0111336D01*
X0032370Y0112335D02*
X0034223Y0112335D01*
X0035222Y0113333D02*
X0032370Y0113333D01*
X0032280Y0114332D02*
X0036221Y0114332D01*
X0037219Y0115330D02*
X0032370Y0115330D01*
X0032348Y0116329D02*
X0038218Y0116329D01*
X0039216Y0117327D02*
X0032370Y0117327D01*
X0032370Y0118326D02*
X0039300Y0118326D01*
X0039300Y0119324D02*
X0032221Y0119324D01*
X0032370Y0120323D02*
X0039712Y0120323D01*
X0040710Y0121321D02*
X0032370Y0121321D01*
X0032363Y0122320D02*
X0041709Y0122320D01*
X0046037Y0131306D02*
X0022305Y0131306D01*
X0023303Y0130308D02*
X0047035Y0130308D01*
X0048034Y0129309D02*
X0024302Y0129309D01*
X0025300Y0128311D02*
X0049032Y0128311D01*
X0050031Y0127312D02*
X0026299Y0127312D01*
X0027297Y0126314D02*
X0051029Y0126314D01*
X0052028Y0125315D02*
X0027833Y0125315D01*
X0028902Y0124317D02*
X0028902Y0124317D01*
X0028902Y0123318D02*
X0028902Y0123318D01*
X0028902Y0122320D02*
X0028902Y0122320D01*
X0028902Y0121321D02*
X0028902Y0121321D01*
X0028902Y0120323D02*
X0028902Y0120323D01*
X0028902Y0119324D02*
X0028902Y0119324D01*
X0028902Y0118326D02*
X0028902Y0118326D01*
X0028902Y0117327D02*
X0028902Y0117327D01*
X0028902Y0116329D02*
X0028902Y0116329D01*
X0028902Y0115330D02*
X0028902Y0115330D01*
X0028902Y0114332D02*
X0028902Y0114332D01*
X0028902Y0113333D02*
X0028902Y0113333D01*
X0032370Y0123318D02*
X0050630Y0123318D01*
X0050740Y0124317D02*
X0032260Y0124317D01*
X0040046Y0137298D02*
X0016314Y0137298D01*
X0016400Y0138296D02*
X0039047Y0138296D01*
X0038049Y0139295D02*
X0016400Y0139295D01*
X0016268Y0140293D02*
X0037050Y0140293D01*
X0036052Y0141292D02*
X0015855Y0141292D01*
X0015140Y0142290D02*
X0035053Y0142290D01*
X0034055Y0143289D02*
X0013951Y0143289D01*
X0017312Y0136299D02*
X0041044Y0136299D01*
X0042043Y0135301D02*
X0018311Y0135301D01*
X0019309Y0134302D02*
X0043041Y0134302D01*
X0044040Y0133303D02*
X0020308Y0133303D01*
X0021306Y0132305D02*
X0045038Y0132305D01*
X0047815Y0138296D02*
X0064254Y0138296D01*
X0064254Y0137298D02*
X0048814Y0137298D01*
X0049812Y0136299D02*
X0064254Y0136299D01*
X0064254Y0135301D02*
X0050811Y0135301D01*
X0051809Y0134302D02*
X0064254Y0134302D01*
X0064254Y0133303D02*
X0052808Y0133303D01*
X0053806Y0132305D02*
X0064103Y0132305D01*
X0063104Y0131306D02*
X0054805Y0131306D01*
X0058349Y0130308D02*
X0062454Y0130308D01*
X0062454Y0129309D02*
X0059347Y0129309D01*
X0060346Y0128311D02*
X0062454Y0128311D01*
X0062454Y0127312D02*
X0061344Y0127312D01*
X0062343Y0126314D02*
X0062454Y0126314D01*
X0064654Y0129746D02*
X0064654Y0122063D01*
X0057367Y0114776D01*
X0057367Y0111769D01*
X0056605Y0111007D01*
X0054767Y0111007D01*
X0054098Y0110339D01*
X0054098Y0107780D02*
X0055937Y0107780D01*
X0064700Y0116543D01*
X0064700Y0117291D01*
X0066454Y0119046D01*
X0066454Y0126500D01*
X0068805Y0129516D01*
X0068805Y0136970D01*
X0084000Y0141500D01*
X0082746Y0146284D02*
X0077440Y0146284D01*
X0079762Y0147283D02*
X0081377Y0147283D01*
X0080856Y0145286D02*
X0075118Y0145286D01*
X0072797Y0144287D02*
X0079857Y0144287D01*
X0079437Y0143289D02*
X0070475Y0143289D01*
X0068654Y0142290D02*
X0078950Y0142290D01*
X0075601Y0141292D02*
X0068654Y0141292D01*
X0068654Y0140293D02*
X0072252Y0140293D01*
X0074255Y0136299D02*
X0082782Y0136299D01*
X0081341Y0137298D02*
X0077604Y0137298D01*
X0079872Y0134302D02*
X0071005Y0134302D01*
X0071005Y0135301D02*
X0080871Y0135301D01*
X0079443Y0133303D02*
X0071005Y0133303D01*
X0071005Y0132305D02*
X0079100Y0132305D01*
X0076483Y0131306D02*
X0071005Y0131306D01*
X0071005Y0130308D02*
X0073497Y0130308D01*
X0075427Y0126314D02*
X0082818Y0126314D01*
X0081305Y0127312D02*
X0078413Y0127312D01*
X0080886Y0125315D02*
X0072440Y0125315D01*
X0071177Y0124317D02*
X0079887Y0124317D01*
X0079449Y0123318D02*
X0071177Y0123318D01*
X0071177Y0122320D02*
X0078073Y0122320D01*
X0076170Y0117327D02*
X0081269Y0117327D01*
X0082853Y0116329D02*
X0072074Y0116329D01*
X0070942Y0115330D02*
X0080901Y0115330D01*
X0079902Y0114332D02*
X0070500Y0114332D01*
X0069046Y0111454D02*
X0073954Y0111454D01*
X0084000Y0111500D01*
X0082889Y0106344D02*
X0082268Y0106344D01*
X0080318Y0105182D02*
X0084000Y0101500D01*
X0080318Y0105182D02*
X0065318Y0105182D01*
X0057680Y0097543D01*
X0054098Y0097543D01*
X0054098Y0094984D02*
X0057667Y0094984D01*
X0066064Y0103382D01*
X0072118Y0103382D01*
X0084000Y0091500D01*
X0082925Y0096359D02*
X0082253Y0096359D01*
X0068300Y0115800D02*
X0070777Y0118277D01*
X0070777Y0118277D01*
X0084000Y0121500D01*
X0084000Y0131500D02*
X0068977Y0126477D01*
X0068977Y0119023D01*
X0066500Y0116546D01*
X0066500Y0114000D01*
X0057720Y0105220D01*
X0054098Y0105220D01*
X0054767Y0103330D02*
X0054098Y0102661D01*
X0054767Y0103330D02*
X0058376Y0103330D01*
X0068300Y0113254D01*
X0068300Y0115800D01*
X0069046Y0111454D02*
X0057694Y0100102D01*
X0054098Y0100102D01*
X0054098Y0092425D02*
X0057653Y0092425D01*
X0064114Y0098886D01*
X0059165Y0090368D02*
X0058707Y0090368D01*
X0055762Y0086373D02*
X0036281Y0086373D01*
X0036281Y0085375D02*
X0054764Y0085375D01*
X0053765Y0084376D02*
X0036281Y0084376D01*
X0036281Y0083378D02*
X0052767Y0083378D01*
X0051768Y0082379D02*
X0036281Y0082379D01*
X0035619Y0081381D02*
X0050770Y0081381D01*
X0050516Y0078016D02*
X0050516Y0067957D01*
X0050516Y0065398D02*
X0052898Y0065398D01*
X0056500Y0069000D01*
X0056500Y0074000D01*
X0064000Y0081500D01*
X0062997Y0076388D02*
X0062000Y0076388D01*
X0064000Y0071500D02*
X0055339Y0062839D01*
X0050516Y0062839D01*
X0050516Y0060280D02*
X0062780Y0060280D01*
X0064000Y0061500D01*
X0062014Y0066403D02*
X0092221Y0066403D01*
X0073976Y0121321D02*
X0071177Y0121321D01*
X0064654Y0129746D02*
X0066454Y0131546D01*
X0066454Y0143954D01*
X0084000Y0151500D01*
X0080841Y0155271D02*
X0067159Y0155271D01*
X0068155Y0154272D02*
X0079845Y0154272D01*
X0079431Y0153274D02*
X0068569Y0153274D01*
X0068900Y0152275D02*
X0079100Y0152275D01*
X0077912Y0151277D02*
X0068900Y0151277D01*
X0068798Y0150278D02*
X0075590Y0150278D01*
X0073269Y0149280D02*
X0068384Y0149280D01*
X0067711Y0148281D02*
X0070947Y0148281D01*
X0068625Y0147283D02*
X0066623Y0147283D01*
X0066303Y0146284D02*
X0056621Y0146284D01*
X0057593Y0147283D02*
X0061377Y0147283D01*
X0060289Y0148281D02*
X0057593Y0148281D01*
X0057593Y0153274D02*
X0059431Y0153274D01*
X0059845Y0154272D02*
X0057593Y0154272D01*
X0057073Y0155271D02*
X0060841Y0155271D01*
X0062710Y0156269D02*
X0057609Y0156269D01*
X0057609Y0162260D02*
X0059100Y0162260D01*
X0059425Y0163259D02*
X0057470Y0163259D01*
X0059838Y0164257D02*
X0052246Y0164257D01*
X0052686Y0165256D02*
X0060826Y0165256D01*
X0064000Y0161500D02*
X0061963Y0159463D01*
X0053350Y0159463D01*
X0053334Y0150913D02*
X0063413Y0150913D01*
X0064000Y0151500D01*
X0064617Y0145286D02*
X0040826Y0145286D01*
X0041824Y0144287D02*
X0064219Y0144287D01*
X0064254Y0143289D02*
X0042823Y0143289D01*
X0043821Y0142290D02*
X0064254Y0142290D01*
X0064254Y0141292D02*
X0044820Y0141292D01*
X0045818Y0140293D02*
X0064254Y0140293D01*
X0064254Y0139295D02*
X0046817Y0139295D01*
X0049929Y0146284D02*
X0050047Y0146284D01*
X0046641Y0150913D02*
X0044893Y0152661D01*
X0039118Y0152661D01*
X0039118Y0155220D02*
X0039491Y0155594D01*
X0039118Y0161262D02*
X0039118Y0161262D01*
X0039118Y0162260D02*
X0039118Y0162260D01*
X0042190Y0150278D02*
X0042382Y0150278D01*
X0042382Y0149280D02*
X0037853Y0149280D01*
X0037853Y0148281D02*
X0042382Y0148281D01*
X0042382Y0147283D02*
X0038829Y0147283D01*
X0039827Y0146284D02*
X0043354Y0146284D01*
X0031586Y0157406D02*
X0029255Y0157406D01*
X0028882Y0157780D01*
X0012720Y0157780D01*
X0011500Y0159000D01*
X0014023Y0163259D02*
X0014130Y0163259D01*
X0013131Y0164257D02*
X0012855Y0164257D01*
X0020788Y0151277D02*
X0003200Y0151277D01*
X0003200Y0152275D02*
X0021787Y0152275D01*
X0021500Y0154000D02*
X0022720Y0155220D01*
X0028882Y0155220D01*
X0028882Y0152661D02*
X0027661Y0152661D01*
X0022825Y0145286D02*
X0003200Y0145286D01*
X0003200Y0146284D02*
X0021227Y0146284D01*
X0020510Y0147283D02*
X0003200Y0147283D01*
X0003200Y0148281D02*
X0020119Y0148281D01*
X0020119Y0149280D02*
X0003200Y0149280D01*
X0003200Y0150278D02*
X0020329Y0150278D01*
X0010038Y0134302D02*
X0003200Y0134302D01*
X0012998Y0124317D02*
X0013072Y0124317D01*
X0013879Y0123318D02*
X0014070Y0123318D01*
X0013322Y0074391D02*
X0013178Y0074391D01*
X0013214Y0064406D02*
X0014300Y0064406D01*
X0014300Y0063408D02*
X0003200Y0063408D01*
X0003200Y0062409D02*
X0014300Y0062409D01*
X0014300Y0061411D02*
X0003200Y0061411D01*
X0003200Y0060412D02*
X0014300Y0060412D01*
X0014300Y0059414D02*
X0003200Y0059414D01*
X0003200Y0058415D02*
X0014300Y0058415D01*
X0014300Y0057417D02*
X0003200Y0057417D01*
X0003200Y0056418D02*
X0014300Y0056418D01*
X0014469Y0055420D02*
X0003200Y0055420D01*
X0003200Y0054421D02*
X0015468Y0054421D01*
X0016466Y0053423D02*
X0003200Y0053423D01*
X0003200Y0052424D02*
X0017465Y0052424D01*
X0018463Y0051426D02*
X0003200Y0051426D01*
X0003200Y0050427D02*
X0019462Y0050427D01*
X0028762Y0032454D02*
X0032435Y0032454D01*
X0031436Y0033452D02*
X0029760Y0033452D01*
X0030759Y0034451D02*
X0031100Y0034451D01*
X0033433Y0031455D02*
X0027763Y0031455D01*
X0026778Y0030457D02*
X0036222Y0030457D01*
X0044884Y0023467D02*
X0045163Y0023467D01*
X0045163Y0022469D02*
X0044884Y0022469D01*
X0008535Y0025464D02*
X0003200Y0025464D01*
X0003200Y0024466D02*
X0007536Y0024466D01*
X0007011Y0023467D02*
X0003200Y0023467D01*
X0003200Y0022469D02*
X0006600Y0022469D01*
X0006600Y0021470D02*
X0003200Y0021470D01*
X0003200Y0020472D02*
X0006622Y0020472D01*
X0007036Y0019473D02*
X0003200Y0019473D01*
X0003200Y0018475D02*
X0007596Y0018475D01*
X0008594Y0017476D02*
X0003200Y0017476D01*
X0068654Y0139295D02*
X0068902Y0139295D01*
X0092221Y0175241D02*
X0003200Y0175241D01*
D19*
X0024000Y0149000D03*
X0049000Y0166500D03*
X0027243Y0084176D03*
X0034000Y0074000D03*
X0034000Y0059000D03*
X0041236Y0045295D03*
X0034000Y0009000D03*
X0016500Y0034000D03*
X0074000Y0009000D03*
D20*
X0022976Y0006500D02*
X0016500Y0006500D01*
X0011500Y0011500D01*
X0022976Y0011500D01*
X0022976Y0006500D01*
X0022976Y0016500D02*
X0016500Y0016500D01*
X0011500Y0021500D01*
X0022976Y0021500D01*
X0022976Y0016500D01*
M02*
