%
M48
M72
T01C0.02362
T02C0.04000
%
T01
X16500Y34000
X34000Y9000
X41236Y45295
X34000Y59000
X34000Y74000
X27243Y84176
X24000Y149000
X49000Y166500
X74000Y9000
T02
X11500Y11500
X11500Y21500
X11500Y69000
X11500Y79000
X11500Y89000
X11500Y99000
X11500Y109000
X11500Y119000
X11500Y129000
X11500Y139000
X11500Y159000
X11500Y169000
X29000Y169000
X39000Y169000
X64000Y161500
X64000Y151500
X84000Y151500
X84000Y141500
X84000Y131500
X84000Y121500
X84000Y111500
X84000Y101500
X84000Y91500
X84000Y81500
X64000Y81500
X64000Y71500
X64000Y61500
X64000Y51500
X64000Y41500
X64000Y31500
X64000Y21500
X64000Y91500
M30
