%
M48
M72
T01C0.04000
%
T01
X11000Y7984
X11000Y17984
X11000Y27984
X11000Y37984
X11000Y47984
X11000Y57984
X11000Y67984
X11000Y77984
X11000Y87984
X11000Y97984
X11000Y107984
X11000Y117984
X11000Y127984
X11000Y137984
X71000Y137984
X71000Y127984
X71000Y117984
X71000Y107984
X71000Y97984
X71000Y87984
X71000Y77984
X71000Y67984
X71000Y57984
X71000Y47984
X71000Y37984
X71000Y27984
X71000Y17984
X71000Y7984
M30
