G75*
%MOIN*%
%OFA0B0*%
%FSLAX25Y25*%
%IPPOS*%
%LPD*%
%AMOC8*
5,1,8,0,0,1.08239X$1,22.5*
%
%ADD10C,0.00000*%
%ADD11C,0.00600*%
%ADD12C,0.00500*%
%ADD13C,0.00400*%
D10*
X0001300Y0001000D02*
X0001300Y0099961D01*
X0141300Y0100961D01*
X0141300Y0001000D01*
X0001300Y0001000D01*
D11*
X0011300Y0011500D02*
X0013800Y0009000D01*
X0018800Y0009000D01*
X0021300Y0011500D01*
X0023800Y0009000D01*
X0028800Y0009000D01*
X0031300Y0011500D01*
X0031300Y0016500D01*
X0028800Y0019000D01*
X0023800Y0019000D01*
X0021300Y0016500D01*
X0021300Y0011500D01*
X0021300Y0016500D02*
X0018800Y0019000D01*
X0013800Y0019000D01*
X0011300Y0016500D01*
X0011300Y0011500D01*
X0031300Y0011500D02*
X0033800Y0009000D01*
X0038800Y0009000D01*
X0041300Y0011500D01*
X0043800Y0009000D01*
X0048800Y0009000D01*
X0051300Y0011500D01*
X0053800Y0009000D01*
X0058800Y0009000D01*
X0061300Y0011500D01*
X0061300Y0016500D01*
X0058800Y0019000D01*
X0053800Y0019000D01*
X0051300Y0016500D01*
X0051300Y0011500D01*
X0051300Y0016500D02*
X0048800Y0019000D01*
X0043800Y0019000D01*
X0041300Y0016500D01*
X0041300Y0011500D01*
X0041300Y0016500D02*
X0038800Y0019000D01*
X0033800Y0019000D01*
X0031300Y0016500D01*
X0061300Y0016500D02*
X0063800Y0019000D01*
X0068800Y0019000D01*
X0071300Y0016500D01*
X0073800Y0019000D01*
X0078800Y0019000D01*
X0081300Y0016500D01*
X0083800Y0019000D01*
X0088800Y0019000D01*
X0091300Y0016500D01*
X0091300Y0011500D01*
X0088800Y0009000D01*
X0083800Y0009000D01*
X0081300Y0011500D01*
X0078800Y0009000D01*
X0073800Y0009000D01*
X0071300Y0011500D01*
X0068800Y0009000D01*
X0063800Y0009000D01*
X0061300Y0011500D01*
X0071300Y0011500D02*
X0071300Y0016500D01*
X0081300Y0016500D02*
X0081300Y0011500D01*
X0091300Y0011500D02*
X0093800Y0009000D01*
X0098800Y0009000D01*
X0101300Y0011500D01*
X0103800Y0009000D01*
X0108800Y0009000D01*
X0111300Y0011500D01*
X0113800Y0009000D01*
X0118800Y0009000D01*
X0121300Y0011500D01*
X0123800Y0009000D01*
X0128800Y0009000D01*
X0131300Y0011500D01*
X0131300Y0016500D01*
X0128800Y0019000D01*
X0123800Y0019000D01*
X0121300Y0016500D01*
X0121300Y0011500D01*
X0121300Y0016500D02*
X0118800Y0019000D01*
X0113800Y0019000D01*
X0111300Y0016500D01*
X0111300Y0011500D01*
X0111300Y0016500D02*
X0108800Y0019000D01*
X0103800Y0019000D01*
X0101300Y0016500D01*
X0101300Y0011500D01*
X0101300Y0016500D02*
X0098800Y0019000D01*
X0093800Y0019000D01*
X0091300Y0016500D01*
X0088800Y0079000D02*
X0083800Y0079000D01*
X0081300Y0081500D01*
X0078800Y0079000D01*
X0073800Y0079000D01*
X0071300Y0081500D01*
X0068800Y0079000D01*
X0063800Y0079000D01*
X0061300Y0081500D01*
X0058800Y0079000D01*
X0053800Y0079000D01*
X0051300Y0081500D01*
X0048800Y0079000D01*
X0043800Y0079000D01*
X0041300Y0081500D01*
X0038800Y0079000D01*
X0033800Y0079000D01*
X0031300Y0081500D01*
X0028800Y0079000D01*
X0023800Y0079000D01*
X0021300Y0081500D01*
X0018800Y0079000D01*
X0013800Y0079000D01*
X0011300Y0081500D01*
X0011300Y0086500D01*
X0013800Y0089000D01*
X0018800Y0089000D01*
X0021300Y0086500D01*
X0023800Y0089000D01*
X0028800Y0089000D01*
X0031300Y0086500D01*
X0031300Y0081500D01*
X0031300Y0086500D02*
X0033800Y0089000D01*
X0038800Y0089000D01*
X0041300Y0086500D01*
X0043800Y0089000D01*
X0048800Y0089000D01*
X0051300Y0086500D01*
X0053800Y0089000D01*
X0058800Y0089000D01*
X0061300Y0086500D01*
X0061300Y0081500D01*
X0061300Y0086500D02*
X0063800Y0089000D01*
X0068800Y0089000D01*
X0071300Y0086500D01*
X0073800Y0089000D01*
X0078800Y0089000D01*
X0081300Y0086500D01*
X0083800Y0089000D01*
X0088800Y0089000D01*
X0091300Y0086500D01*
X0091300Y0081500D01*
X0088800Y0079000D01*
X0091300Y0081500D02*
X0093800Y0079000D01*
X0098800Y0079000D01*
X0101300Y0081500D01*
X0103800Y0079000D01*
X0108800Y0079000D01*
X0111300Y0081500D01*
X0113800Y0079000D01*
X0118800Y0079000D01*
X0121300Y0081500D01*
X0123800Y0079000D01*
X0128800Y0079000D01*
X0131300Y0081500D01*
X0131300Y0086500D01*
X0128800Y0089000D01*
X0123800Y0089000D01*
X0121300Y0086500D01*
X0121300Y0081500D01*
X0121300Y0086500D02*
X0118800Y0089000D01*
X0113800Y0089000D01*
X0111300Y0086500D01*
X0111300Y0081500D01*
X0111300Y0086500D02*
X0108800Y0089000D01*
X0103800Y0089000D01*
X0101300Y0086500D01*
X0101300Y0081500D01*
X0101300Y0086500D02*
X0098800Y0089000D01*
X0093800Y0089000D01*
X0091300Y0086500D01*
X0081300Y0086500D02*
X0081300Y0081500D01*
X0071300Y0081500D02*
X0071300Y0086500D01*
X0051300Y0086500D02*
X0051300Y0081500D01*
X0041300Y0081500D02*
X0041300Y0086500D01*
X0021300Y0086500D02*
X0021300Y0081500D01*
D12*
X0020458Y0091450D02*
X0023460Y0094453D01*
X0023460Y0095203D01*
X0022710Y0095954D01*
X0021208Y0095954D01*
X0020458Y0095203D01*
X0018856Y0095203D02*
X0018856Y0093702D01*
X0018106Y0092951D01*
X0015854Y0092951D01*
X0015854Y0091450D02*
X0015854Y0095954D01*
X0018106Y0095954D01*
X0018856Y0095203D01*
X0014253Y0095954D02*
X0012751Y0095954D01*
X0013502Y0095954D02*
X0013502Y0092201D01*
X0012751Y0091450D01*
X0012001Y0091450D01*
X0011250Y0092201D01*
X0020458Y0091450D02*
X0023460Y0091450D01*
X0055749Y0058858D02*
X0055749Y0041142D01*
X0086851Y0041142D01*
X0086851Y0058858D01*
X0055749Y0058858D01*
X0052008Y0039173D02*
X0052010Y0039252D01*
X0052016Y0039331D01*
X0052026Y0039410D01*
X0052040Y0039488D01*
X0052057Y0039565D01*
X0052079Y0039641D01*
X0052104Y0039716D01*
X0052134Y0039789D01*
X0052166Y0039861D01*
X0052203Y0039932D01*
X0052243Y0040000D01*
X0052286Y0040066D01*
X0052332Y0040130D01*
X0052382Y0040192D01*
X0052435Y0040251D01*
X0052490Y0040307D01*
X0052549Y0040361D01*
X0052610Y0040411D01*
X0052673Y0040459D01*
X0052739Y0040503D01*
X0052807Y0040544D01*
X0052877Y0040581D01*
X0052948Y0040615D01*
X0053022Y0040645D01*
X0053096Y0040671D01*
X0053172Y0040693D01*
X0053249Y0040712D01*
X0053327Y0040727D01*
X0053405Y0040738D01*
X0053484Y0040745D01*
X0053563Y0040748D01*
X0053642Y0040747D01*
X0053721Y0040742D01*
X0053800Y0040733D01*
X0053878Y0040720D01*
X0053955Y0040703D01*
X0054032Y0040683D01*
X0054107Y0040658D01*
X0054181Y0040630D01*
X0054254Y0040598D01*
X0054324Y0040563D01*
X0054393Y0040524D01*
X0054460Y0040481D01*
X0054525Y0040435D01*
X0054587Y0040387D01*
X0054647Y0040335D01*
X0054704Y0040280D01*
X0054758Y0040222D01*
X0054809Y0040162D01*
X0054857Y0040099D01*
X0054902Y0040034D01*
X0054944Y0039966D01*
X0054982Y0039897D01*
X0055016Y0039826D01*
X0055047Y0039753D01*
X0055075Y0039678D01*
X0055098Y0039603D01*
X0055118Y0039526D01*
X0055134Y0039449D01*
X0055146Y0039370D01*
X0055154Y0039292D01*
X0055158Y0039213D01*
X0055158Y0039133D01*
X0055154Y0039054D01*
X0055146Y0038976D01*
X0055134Y0038897D01*
X0055118Y0038820D01*
X0055098Y0038743D01*
X0055075Y0038668D01*
X0055047Y0038593D01*
X0055016Y0038520D01*
X0054982Y0038449D01*
X0054944Y0038380D01*
X0054902Y0038312D01*
X0054857Y0038247D01*
X0054809Y0038184D01*
X0054758Y0038124D01*
X0054704Y0038066D01*
X0054647Y0038011D01*
X0054587Y0037959D01*
X0054525Y0037911D01*
X0054460Y0037865D01*
X0054393Y0037822D01*
X0054324Y0037783D01*
X0054254Y0037748D01*
X0054181Y0037716D01*
X0054107Y0037688D01*
X0054032Y0037663D01*
X0053955Y0037643D01*
X0053878Y0037626D01*
X0053800Y0037613D01*
X0053721Y0037604D01*
X0053642Y0037599D01*
X0053563Y0037598D01*
X0053484Y0037601D01*
X0053405Y0037608D01*
X0053327Y0037619D01*
X0053249Y0037634D01*
X0053172Y0037653D01*
X0053096Y0037675D01*
X0053022Y0037701D01*
X0052948Y0037731D01*
X0052877Y0037765D01*
X0052807Y0037802D01*
X0052739Y0037843D01*
X0052673Y0037887D01*
X0052610Y0037935D01*
X0052549Y0037985D01*
X0052490Y0038039D01*
X0052435Y0038095D01*
X0052382Y0038154D01*
X0052332Y0038216D01*
X0052286Y0038280D01*
X0052243Y0038346D01*
X0052203Y0038414D01*
X0052166Y0038485D01*
X0052134Y0038557D01*
X0052104Y0038630D01*
X0052079Y0038705D01*
X0052057Y0038781D01*
X0052040Y0038858D01*
X0052026Y0038936D01*
X0052016Y0039015D01*
X0052010Y0039094D01*
X0052008Y0039173D01*
X0023460Y0021450D02*
X0020458Y0021450D01*
X0021959Y0021450D02*
X0021959Y0025954D01*
X0020458Y0024453D01*
X0018856Y0025203D02*
X0018856Y0023702D01*
X0018106Y0022951D01*
X0015854Y0022951D01*
X0015854Y0021450D02*
X0015854Y0025954D01*
X0018106Y0025954D01*
X0018856Y0025203D01*
X0014253Y0025954D02*
X0012751Y0025954D01*
X0013502Y0025954D02*
X0013502Y0022201D01*
X0012751Y0021450D01*
X0012001Y0021450D01*
X0011250Y0022201D01*
D13*
X0062639Y0064433D02*
X0062639Y0070571D01*
X0063406Y0069804D02*
X0064173Y0069037D01*
X0063406Y0069804D02*
X0061871Y0069804D01*
X0061104Y0069037D01*
X0061104Y0068269D01*
X0061871Y0067502D01*
X0063406Y0067502D01*
X0064173Y0066735D01*
X0064173Y0065967D01*
X0063406Y0065200D01*
X0061871Y0065200D01*
X0061104Y0065967D01*
X0059569Y0065967D02*
X0058802Y0065200D01*
X0057267Y0065200D01*
X0056500Y0065967D01*
X0056500Y0069804D01*
X0059569Y0069804D02*
X0059569Y0065967D01*
X0065708Y0065200D02*
X0068777Y0065200D01*
X0067242Y0065200D02*
X0067242Y0069804D01*
X0065708Y0068269D01*
M02*
