G75*
%MOIN*%
%OFA0B0*%
%FSLAX25Y25*%
%IPPOS*%
%LPD*%
%AMOC8*
5,1,8,0,0,1.08239X$1,22.5*
%
%ADD10C,0.06000*%
%ADD11R,0.05906X0.05118*%
%ADD12R,0.05118X0.05906*%
%ADD13R,0.06496X0.06496*%
%ADD14C,0.06496*%
%ADD15R,0.06000X0.06000*%
%ADD16R,0.05000X0.05000*%
%ADD17R,0.01969X0.01378*%
%ADD18C,0.24669*%
%ADD19C,0.01000*%
%ADD20C,0.02978*%
%ADD21C,0.06118*%
%ADD22C,0.06000*%
D10*
X0116000Y0068000D03*
X0126000Y0068000D03*
X0126000Y0078000D03*
X0116000Y0078000D03*
X0116000Y0088000D03*
X0116000Y0098000D03*
X0126000Y0098000D03*
X0126000Y0088000D03*
X0126000Y0108000D03*
X0116000Y0108000D03*
X0116000Y0118000D03*
X0126000Y0118000D03*
X0126000Y0128000D03*
X0126000Y0138000D03*
X0116000Y0138000D03*
X0116000Y0128000D03*
X0116000Y0148000D03*
X0126000Y0148000D03*
X0286000Y0148000D03*
X0286000Y0138000D03*
X0286000Y0128000D03*
X0286000Y0118000D03*
X0286000Y0108000D03*
X0286000Y0098000D03*
X0286000Y0088000D03*
X0286000Y0078000D03*
X0286000Y0068000D03*
X0296000Y0068000D03*
X0296000Y0078000D03*
X0296000Y0088000D03*
X0296000Y0098000D03*
X0296000Y0108000D03*
X0296000Y0118000D03*
X0296000Y0128000D03*
X0296000Y0138000D03*
X0296000Y0148000D03*
X0321000Y0023000D03*
X0331000Y0023000D03*
D11*
X0211000Y0049260D03*
X0211000Y0056740D03*
X0206000Y0069260D03*
X0206000Y0076740D03*
X0191000Y0076740D03*
X0191000Y0069260D03*
D12*
X0247260Y0053000D03*
X0254740Y0053000D03*
D13*
X0261000Y0033000D03*
X0366000Y0110500D03*
X0161000Y0303000D03*
X0251000Y0318000D03*
D14*
X0241000Y0318000D03*
X0231000Y0318000D03*
X0221000Y0318000D03*
X0211000Y0318000D03*
X0201000Y0318000D03*
X0191000Y0318000D03*
X0181000Y0318000D03*
X0171000Y0318000D03*
X0161000Y0318000D03*
X0171000Y0303000D03*
X0181000Y0303000D03*
X0191000Y0303000D03*
X0201000Y0303000D03*
X0211000Y0303000D03*
X0221000Y0303000D03*
X0231000Y0303000D03*
X0241000Y0303000D03*
X0251000Y0303000D03*
X0366000Y0100500D03*
X0366000Y0090500D03*
X0366000Y0080500D03*
X0366000Y0070500D03*
X0366000Y0060500D03*
X0366000Y0050500D03*
X0366000Y0040500D03*
X0366000Y0030500D03*
X0366000Y0020500D03*
X0251000Y0033000D03*
X0241000Y0033000D03*
X0231000Y0033000D03*
X0221000Y0033000D03*
X0211000Y0033000D03*
X0201000Y0033000D03*
X0191000Y0033000D03*
X0181000Y0033000D03*
X0171000Y0033000D03*
D15*
X0126000Y0158000D03*
X0116000Y0158000D03*
X0286000Y0158000D03*
X0296000Y0158000D03*
D16*
X0291000Y0286000D03*
X0291000Y0296000D03*
X0261000Y0296000D03*
X0261000Y0286000D03*
X0261000Y0328000D03*
X0261000Y0338000D03*
X0291000Y0338000D03*
X0291000Y0328000D03*
X0146000Y0328000D03*
X0146000Y0338000D03*
X0116000Y0338000D03*
X0116000Y0328000D03*
X0116000Y0296000D03*
X0116000Y0286000D03*
X0146000Y0286000D03*
X0146000Y0296000D03*
D17*
X0201965Y0156839D03*
X0201965Y0154280D03*
X0201965Y0151720D03*
X0201965Y0149161D03*
X0210035Y0149161D03*
X0210035Y0151720D03*
X0210035Y0154280D03*
X0210035Y0156839D03*
D18*
X0031250Y0038000D03*
X0060750Y0038000D03*
D19*
X0106000Y0053000D02*
X0126000Y0033000D01*
X0126000Y0023000D01*
X0131000Y0018000D01*
X0136000Y0018000D01*
X0341000Y0018000D01*
X0351000Y0028000D01*
X0351000Y0053000D01*
X0366000Y0050500D02*
X0371000Y0055500D01*
X0371000Y0113552D01*
X0369704Y0114848D01*
X0369152Y0114848D01*
X0366000Y0118000D01*
X0311000Y0118000D01*
X0306000Y0113000D01*
X0291000Y0113000D01*
X0286000Y0118000D01*
X0281000Y0113000D02*
X0281000Y0123000D01*
X0191000Y0213000D01*
X0191000Y0303000D01*
X0194000Y0310000D02*
X0201000Y0303000D01*
X0202000Y0312000D02*
X0172000Y0312000D01*
X0166000Y0306000D01*
X0166000Y0283000D01*
X0096000Y0213000D01*
X0096000Y0128000D01*
X0116000Y0108000D01*
X0116000Y0118000D02*
X0111000Y0118000D01*
X0106000Y0123000D01*
X0106000Y0208000D01*
X0176000Y0278000D01*
X0176000Y0308000D01*
X0178000Y0310000D01*
X0194000Y0310000D01*
X0202000Y0312000D02*
X0211000Y0303000D01*
X0221000Y0303000D02*
X0221000Y0193000D01*
X0281000Y0133000D01*
X0296000Y0133000D01*
X0296000Y0128000D01*
X0291000Y0123000D02*
X0366000Y0123000D01*
X0376000Y0113000D01*
X0376000Y0050500D01*
X0366000Y0040500D01*
X0366000Y0060500D02*
X0291000Y0060500D01*
X0288500Y0060500D01*
X0283500Y0060500D01*
X0281000Y0063000D01*
X0281000Y0083000D01*
X0286000Y0088000D01*
X0286000Y0078000D02*
X0291000Y0073000D01*
X0346000Y0073000D01*
X0349000Y0070000D01*
X0365500Y0070000D01*
X0366000Y0070500D01*
X0366000Y0080500D02*
X0303500Y0080500D01*
X0296000Y0088000D01*
X0296000Y0098000D02*
X0291000Y0103000D01*
X0281000Y0103000D01*
X0276000Y0108000D01*
X0276000Y0118000D01*
X0181000Y0213000D01*
X0181000Y0303000D01*
X0241000Y0303000D02*
X0241000Y0203000D01*
X0286000Y0158000D01*
X0291000Y0153000D02*
X0286000Y0148000D01*
X0291000Y0153000D02*
X0291000Y0168000D01*
X0286000Y0168000D01*
X0256000Y0198000D01*
X0256000Y0298000D01*
X0251000Y0303000D01*
X0211475Y0158628D02*
X0208596Y0158628D01*
X0206807Y0156839D01*
X0201965Y0156839D01*
X0196000Y0156839D01*
X0196000Y0153000D01*
X0197280Y0151720D01*
X0201965Y0151720D01*
X0201965Y0149161D01*
X0199839Y0149161D01*
X0197280Y0151720D01*
X0201965Y0154280D02*
X0204720Y0154280D01*
X0205764Y0153236D01*
X0204049Y0151522D01*
X0204049Y0148017D01*
X0199032Y0143000D01*
X0131000Y0143000D01*
X0126000Y0148000D01*
X0121000Y0153000D02*
X0132161Y0153000D01*
X0136000Y0156839D01*
X0196000Y0156839D01*
X0205764Y0153236D02*
X0208596Y0156069D01*
X0209265Y0156069D01*
X0210035Y0156839D01*
X0210806Y0155050D02*
X0210035Y0154280D01*
X0210806Y0155050D02*
X0211475Y0155050D01*
X0212120Y0155694D01*
X0212120Y0157983D01*
X0211475Y0158628D01*
X0210035Y0151720D02*
X0210806Y0150950D01*
X0211475Y0150950D01*
X0212120Y0150306D01*
X0212120Y0148017D01*
X0151000Y0086897D01*
X0151000Y0078000D01*
X0159740Y0069260D01*
X0191000Y0069260D01*
X0191000Y0033000D01*
X0196000Y0028000D02*
X0131000Y0028000D01*
X0131000Y0043000D01*
X0111000Y0063000D01*
X0111000Y0073000D01*
X0116000Y0078000D01*
X0120202Y0078000D01*
X0124302Y0073900D01*
X0134774Y0073900D01*
X0210035Y0149161D01*
X0246000Y0133000D02*
X0221000Y0108000D01*
X0221000Y0066740D01*
X0211000Y0056740D01*
X0211000Y0049260D02*
X0261000Y0099260D01*
X0261000Y0128000D01*
X0266000Y0118000D02*
X0266000Y0098000D01*
X0247260Y0079260D01*
X0247260Y0053000D01*
X0241000Y0053000D01*
X0221000Y0033000D01*
X0211000Y0033000D02*
X0211000Y0049260D01*
X0201000Y0064260D02*
X0201000Y0033000D01*
X0196000Y0028000D01*
X0201000Y0064260D02*
X0206000Y0069260D01*
X0206000Y0076740D02*
X0191000Y0076740D01*
X0171000Y0096740D01*
X0171000Y0098000D01*
X0151000Y0078000D02*
X0136000Y0063000D01*
X0121000Y0063000D01*
X0116000Y0068000D01*
X0106000Y0078000D02*
X0106000Y0053000D01*
X0106000Y0078000D02*
X0116000Y0088000D01*
X0121000Y0153000D02*
X0116000Y0158000D01*
X0254740Y0053000D02*
X0284740Y0023000D01*
X0321000Y0023000D01*
X0296000Y0108000D02*
X0291798Y0108000D01*
X0287698Y0112100D01*
X0281900Y0112100D01*
X0281000Y0113000D01*
X0291000Y0123000D02*
X0286000Y0128000D01*
D20*
X0266000Y0118000D03*
X0261000Y0128000D03*
X0351000Y0053000D03*
X0171000Y0098000D03*
D21*
X0246000Y0133000D03*
D22*
X0211000Y0168000D01*
X0136000Y0168000D01*
X0126000Y0158000D01*
M02*
