G75*
%MOIN*%
%OFA0B0*%
%FSLAX25Y25*%
%IPPOS*%
%LPD*%
%AMOC8*
5,1,8,0,0,1.08239X$1,22.5*
%
%ADD10C,0.13800*%
%ADD11C,0.06800*%
%ADD12R,0.06706X0.05918*%
%ADD13R,0.05918X0.06706*%
%ADD14R,0.07296X0.07296*%
%ADD15C,0.07296*%
%ADD16R,0.06800X0.06800*%
%ADD17R,0.05800X0.05800*%
%ADD18R,0.02769X0.02178*%
%ADD19C,0.12600*%
%ADD20C,0.25469*%
%ADD21C,0.03778*%
%ADD22C,0.06918*%
D10*
X0026000Y0143000D03*
X0026000Y0333000D03*
X0351000Y0333000D03*
X0351000Y0143000D03*
D11*
X0296000Y0138000D03*
X0296000Y0128000D03*
X0296000Y0118000D03*
X0296000Y0108000D03*
X0296000Y0098000D03*
X0296000Y0088000D03*
X0296000Y0078000D03*
X0296000Y0068000D03*
X0286000Y0068000D03*
X0286000Y0078000D03*
X0286000Y0088000D03*
X0286000Y0098000D03*
X0286000Y0108000D03*
X0286000Y0118000D03*
X0286000Y0128000D03*
X0286000Y0138000D03*
X0286000Y0148000D03*
X0296000Y0148000D03*
X0321000Y0023000D03*
X0331000Y0023000D03*
X0126000Y0068000D03*
X0116000Y0068000D03*
X0116000Y0078000D03*
X0126000Y0078000D03*
X0126000Y0088000D03*
X0126000Y0098000D03*
X0116000Y0098000D03*
X0116000Y0088000D03*
X0116000Y0108000D03*
X0126000Y0108000D03*
X0126000Y0118000D03*
X0116000Y0118000D03*
X0116000Y0128000D03*
X0116000Y0138000D03*
X0126000Y0138000D03*
X0126000Y0128000D03*
X0126000Y0148000D03*
X0116000Y0148000D03*
D12*
X0191000Y0076740D03*
X0191000Y0069260D03*
X0206000Y0069260D03*
X0206000Y0076740D03*
X0211000Y0056740D03*
X0211000Y0049260D03*
D13*
X0247260Y0053000D03*
X0254740Y0053000D03*
D14*
X0261000Y0033000D03*
X0366000Y0110500D03*
X0161000Y0303000D03*
X0251000Y0318000D03*
D15*
X0241000Y0318000D03*
X0231000Y0318000D03*
X0221000Y0318000D03*
X0211000Y0318000D03*
X0201000Y0318000D03*
X0191000Y0318000D03*
X0181000Y0318000D03*
X0171000Y0318000D03*
X0161000Y0318000D03*
X0171000Y0303000D03*
X0181000Y0303000D03*
X0191000Y0303000D03*
X0201000Y0303000D03*
X0211000Y0303000D03*
X0221000Y0303000D03*
X0231000Y0303000D03*
X0241000Y0303000D03*
X0251000Y0303000D03*
X0366000Y0100500D03*
X0366000Y0090500D03*
X0366000Y0080500D03*
X0366000Y0070500D03*
X0366000Y0060500D03*
X0366000Y0050500D03*
X0366000Y0040500D03*
X0366000Y0030500D03*
X0366000Y0020500D03*
X0251000Y0033000D03*
X0241000Y0033000D03*
X0231000Y0033000D03*
X0221000Y0033000D03*
X0211000Y0033000D03*
X0201000Y0033000D03*
X0191000Y0033000D03*
X0181000Y0033000D03*
X0171000Y0033000D03*
D16*
X0126000Y0158000D03*
X0116000Y0158000D03*
X0286000Y0158000D03*
X0296000Y0158000D03*
D17*
X0291000Y0286000D03*
X0291000Y0296000D03*
X0261000Y0296000D03*
X0261000Y0286000D03*
X0261000Y0328000D03*
X0261000Y0338000D03*
X0291000Y0338000D03*
X0291000Y0328000D03*
X0146000Y0328000D03*
X0146000Y0338000D03*
X0116000Y0338000D03*
X0116000Y0328000D03*
X0116000Y0296000D03*
X0116000Y0286000D03*
X0146000Y0286000D03*
X0146000Y0296000D03*
D18*
X0201965Y0156839D03*
X0201965Y0154280D03*
X0201965Y0151720D03*
X0201965Y0149161D03*
X0210035Y0149161D03*
X0210035Y0151720D03*
X0210035Y0154280D03*
X0210035Y0156839D03*
D19*
X0012400Y0030900D03*
X0079600Y0030900D03*
D20*
X0060750Y0038000D03*
X0031250Y0038000D03*
D21*
X0171000Y0098000D03*
X0261000Y0128000D03*
X0266000Y0118000D03*
X0351000Y0053000D03*
D22*
X0246000Y0133000D03*
M02*
