%
M48
M72
T01C0.01378
T02C0.03000
T03C0.04000
T04C0.04331
T05C0.11800
T06C0.13000
T07C0.20669
%
T01
X171000Y98000
X246000Y133000
X261000Y128000
X266000Y118000
X351000Y53000
T02
X291000Y286000
X291000Y296000
X261000Y296000
X261000Y286000
X261000Y328000
X261000Y338000
X291000Y338000
X291000Y328000
X146000Y328000
X146000Y338000
X116000Y338000
X116000Y328000
X116000Y296000
X116000Y286000
X146000Y286000
X146000Y296000
T03
X126000Y158000
X116000Y158000
X116000Y148000
X126000Y148000
X126000Y138000
X126000Y128000
X116000Y128000
X116000Y138000
X116000Y118000
X126000Y118000
X126000Y108000
X116000Y108000
X116000Y98000
X116000Y88000
X126000Y88000
X126000Y98000
X126000Y78000
X116000Y78000
X116000Y68000
X126000Y68000
X286000Y68000
X286000Y78000
X286000Y88000
X286000Y98000
X286000Y108000
X286000Y118000
X286000Y128000
X286000Y138000
X286000Y148000
X286000Y158000
X296000Y158000
X296000Y148000
X296000Y138000
X296000Y128000
X296000Y118000
X296000Y108000
X296000Y98000
X296000Y88000
X296000Y78000
X296000Y68000
X321000Y23000
X331000Y23000
T04
X366000Y20500
X366000Y30500
X366000Y40500
X366000Y50500
X366000Y60500
X366000Y70500
X366000Y80500
X366000Y90500
X366000Y100500
X366000Y110500
X261000Y33000
X251000Y33000
X241000Y33000
X231000Y33000
X221000Y33000
X211000Y33000
X201000Y33000
X191000Y33000
X181000Y33000
X171000Y33000
X171000Y303000
X161000Y303000
X161000Y318000
X171000Y318000
X181000Y318000
X191000Y318000
X201000Y318000
X211000Y318000
X221000Y318000
X231000Y318000
X241000Y318000
X251000Y318000
X251000Y303000
X241000Y303000
X231000Y303000
X221000Y303000
X211000Y303000
X201000Y303000
X191000Y303000
X181000Y303000
T05
X12400Y30900
X79600Y30900
T06
X26000Y143000
X26000Y333000
X351000Y333000
X351000Y143000
T07
X60750Y38000
X31250Y38000
M30
