%
M48
M72
T01C0.01378
T02C0.01700
T03C0.01969
T04C0.03000
T05C0.03937
T06C0.11800
T07C0.13000
T08C0.20669
%
T01
X208449Y143500
X229113Y132000
T02
X238613Y109500
X223113Y91500
X273613Y112000
X319613Y116000
X319613Y146000
X304613Y161000
X304613Y171000
X289613Y181000
T03
X287046Y197500
X279172Y197500
X271298Y197500
X263424Y197500
X255550Y197500
X247676Y197500
X239802Y197500
X231927Y197500
X224053Y197500
X216179Y197500
X216179Y209643
X224053Y209643
X231927Y209643
X239802Y209643
X247676Y209643
X255550Y209643
X263424Y209643
X271298Y209643
X279172Y209643
X287046Y209643
X287046Y221786
X279172Y221786
X271298Y221786
X263424Y221786
X255550Y221786
X247676Y221786
X239802Y221786
X231927Y221786
X224053Y221786
X216179Y221786
X216179Y233929
X224053Y233929
X231927Y233929
X239802Y233929
X247676Y233929
X255550Y233929
X263424Y233929
X271298Y233929
X279172Y233929
X287046Y233929
T04
X313113Y228000
X313113Y218000
X343113Y218000
X343113Y228000
X343113Y256500
X343113Y266500
X313113Y266500
X313113Y256500
X189613Y257000
X189613Y267000
X159613Y267000
X159613Y257000
X159613Y225000
X159613Y215000
X189613Y215000
X189613Y225000
T05
X185613Y135500
X195613Y135500
T06
X64025Y50659
X131225Y50541
T07
X29613Y131000
X29613Y321000
X429613Y321000
X429613Y131000
T08
X112363Y43474
X82863Y43526
M30
