%
M48
M72
T01C0.01772
T02C0.01969
T03C0.02165
T04C0.02362
T05C0.02559
T06C0.02756
T07C0.02953
T08C0.03150
T09C0.03346
T10C0.03600
T11C0.03937
T12C0.04000
T13C0.04724
T14C0.05500
T15C0.10000
T16C0.10118
T17C0.11800
T18C0.12500
T19C0.20669
%
T01
X1153000Y1173000
X1224873Y1094724
X1216324Y1093000
X1233000Y1103000
X1233000Y1108000
X1248000Y1114788
X1188000Y1083000
X1178000Y1093000
T02
X1144856Y1206144
T03
X1113000Y1193000
X1113000Y1233000
X1123000Y1233000
X1103000Y1233000
X1093000Y1233000
X1068000Y1223000
X1043000Y1248000
X1013000Y1378000
X993000Y1393000
X973000Y1403000
X963000Y1403000
X928000Y1388000
X883000Y1423000
X868000Y1428000
X833000Y1428000
X823000Y1428000
X813000Y1428000
X828000Y1373000
X783000Y1338000
X763000Y1333000
X753000Y1333000
X738000Y1353000
X743587Y1363587
X718000Y1363000
X728000Y1343036
X703000Y1303000
X688000Y1303000
X683000Y1293000
X715683Y1283000
X743000Y1213000
X723000Y1208000
X723000Y1198000
X748000Y1178000
X758000Y1183000
X778000Y1188000
X698000Y1168000
X650500Y1185500
X658000Y1338000
X878000Y1038000
X918000Y1048000
X943000Y1068000
X948000Y1023000
X1013000Y1073000
X1018000Y1068000
X1058000Y1078000
X1203000Y1218000
X1213000Y1223000
X1213000Y1208000
X1218000Y1208000
X1218000Y1243000
X1209609Y1324609
X1208000Y1333000
X1188000Y1328000
X1188104Y1322896
X1238000Y1323000
X1288000Y1343000
X1353000Y1348000
X1383000Y1368000
X1393000Y1368000
X1393000Y1313000
X1383000Y1313000
X1353000Y1293000
X1383000Y1258000
X1393000Y1258000
X1353000Y1238000
X1383000Y1203000
X1393000Y1203000
X1353000Y1183000
X1383000Y1148000
X1393000Y1148000
X1353000Y1128000
X1383000Y1093000
X1393000Y1093000
X1353000Y1073000
X1383000Y1038000
X1393000Y1038000
X1353000Y1018000
X1383000Y983000
X1393000Y983000
X1308000Y943000
X1248000Y1068000
X1278000Y1083000
X1253000Y1118000
X1253000Y1123000
X1245607Y1128000
X1213000Y1053000
X1033000Y1423000
T04
X753000Y1213000
X708000Y1363000
X898000Y1053000
X1243000Y1081680
X1358000Y1403000
T05
X1393000Y1403000
X1388000Y1363000
X1388000Y1308000
X1388000Y1253000
X1388000Y1198000
X1388000Y1143000
X1388000Y1088000
X1388000Y1033000
X1333000Y1030500
X1323000Y1030500
X1323000Y1038000
X1323000Y1045500
X1333000Y1045500
X1323006Y1068006
X1323000Y1085500
X1323000Y1093000
X1323000Y1100500
X1333000Y1100500
X1333000Y1085500
X1323000Y1123000
X1323000Y1140500
X1323000Y1148000
X1323000Y1155500
X1333000Y1155500
X1333000Y1140500
X1323000Y1178000
X1323000Y1195500
X1323000Y1203000
X1323000Y1210500
X1333000Y1210500
X1333000Y1195500
X1323000Y1233000
X1323000Y1250500
X1323000Y1258000
X1323000Y1265500
X1333000Y1265500
X1333000Y1250500
X1323000Y1288000
X1323000Y1305500
X1323000Y1313000
X1323000Y1320500
X1333000Y1320500
X1333000Y1305500
X1323000Y1343000
X1323000Y1360500
X1323000Y1368000
X1323000Y1375500
X1333000Y1375500
X1333000Y1360500
X1323000Y1398000
X1268000Y1238000
X1318000Y1013000
X1323000Y990500
X1323000Y983000
X1323000Y975500
X1333000Y975500
X1333000Y990500
T06
X1263000Y1008000
X1258000Y1348000
X1248000Y1353000
X1233000Y1353000
X683000Y983000
X673000Y1023000
T07
X1278000Y1133000
T08
X1280625Y1098000
X1190700Y1051643
X1190700Y1031957
X828000Y1017843
X828000Y998157
X828000Y968000
T09
X798079Y1053000
X757921Y1053000
X1033000Y1038000
X1053000Y1008000
X1120621Y1081800
X1160779Y1081800
T10
X728000Y963000
X738000Y963000
X1056800Y965300
X1056800Y955300
T11
X1323000Y963000
X1333000Y963000
T12
X1208000Y1068000
X1208000Y1088000
X1156200Y1116100
X1146200Y1116100
X1208000Y1168000
X1138000Y1233000
X1023000Y1398000
X1023000Y1408000
X943000Y1408000
X943000Y1418000
X898000Y1383000
X883000Y1383000
X848000Y1383000
X833000Y1383000
X773000Y1303000
X773000Y1293000
X716800Y1291900
X716800Y1301900
X708000Y1098000
X918000Y963000
X1118000Y948000
T13
X1091700Y956100
X1081700Y956100
X1156700Y951100
X1166700Y951100
X1201700Y951100
X1211700Y951100
X1241700Y951100
X1251700Y951100
X1281700Y951100
X1291700Y951100
X1413000Y978000
X1413000Y988000
X1413000Y998000
X1413000Y1008000
X1413000Y1033000
X1413000Y1043000
X1413000Y1053000
X1413000Y1063000
X1413000Y1088000
X1413000Y1098000
X1413000Y1108000
X1413000Y1118000
X1413000Y1143000
X1413000Y1153000
X1413000Y1163000
X1413000Y1173000
X1413000Y1198000
X1413000Y1208000
X1413000Y1218000
X1413000Y1228000
X1413000Y1253000
X1413000Y1263000
X1413000Y1273000
X1413000Y1283000
X1413000Y1308000
X1413000Y1318000
X1413000Y1328000
X1413000Y1338000
X1413000Y1363000
X1413000Y1373000
X1413000Y1383000
X1413000Y1393000
X1258000Y1393000
X1248000Y1393000
X1233000Y1393000
X1223000Y1393000
X1208000Y1393000
X1198000Y1393000
X1164300Y1234900
X1154300Y1234900
X1191100Y1214300
X1191100Y1204300
X1191100Y1194300
X1191100Y1184300
X993000Y1033000
X993000Y1023000
X993000Y993000
X993000Y983000
X993000Y973000
X993000Y963000
T14
X1071950Y1016800
X1109450Y1016800
X1121950Y1016800
X1134450Y1016800
X1159450Y1016800
X1159450Y1066800
X1071950Y1066800
X796750Y1038000
X796750Y988000
X771750Y988000
X759250Y988000
X746750Y988000
X709250Y988000
X709250Y1038000
T15
X1233000Y1165650
X1233000Y1195650
X1233000Y1270350
X1233000Y1300350
T16
X1161701Y1308709
X1141701Y1308709
X1118000Y1308709
X1098000Y1308709
X1074299Y1308709
X1074299Y1333000
X1098000Y1333000
X1118000Y1333000
X1141701Y1333000
X1161701Y1333000
X1161701Y1357016
X1141701Y1357016
X1141701Y1396701
X1161701Y1396701
X1074299Y1396701
X1054299Y1396701
X1054299Y1357016
X1054299Y1333000
X1054299Y1308709
X1074299Y1357016
T17
X685100Y1151600
X670900Y1194400
X670900Y1261600
X670900Y1344400
X670900Y1411600
X685100Y1084400
T18
X808000Y1158000
X998000Y1153000
X978000Y1358000
X868000Y1358000
T19
X678000Y1363250
X678000Y1392750
X678000Y1242750
X678000Y1213250
X678000Y1132750
X678000Y1103250
M30
