G75*
%MOIN*%
%OFA0B0*%
%FSLAX25Y25*%
%IPPOS*%
%LPD*%
%AMOC8*
5,1,8,0,0,1.08239X$1,22.5*
%
%ADD10R,0.06509X0.02454*%
%ADD11R,0.05524X0.05524*%
%ADD12OC8,0.07924*%
%ADD13R,0.02572X0.05131*%
%ADD14R,0.02454X0.06509*%
%ADD15R,0.02769X0.02178*%
%ADD16R,0.06706X0.05918*%
%ADD17R,0.05918X0.06706*%
%ADD18R,0.05315X0.01772*%
%ADD19R,0.06312X0.05918*%
%ADD20R,0.03359X0.07690*%
%ADD21R,0.17500X0.15800*%
%ADD22R,0.07690X0.03359*%
%ADD23R,0.15800X0.17500*%
%ADD24R,0.05918X0.06312*%
%ADD25C,0.14800*%
%ADD26R,0.04737X0.01981*%
%ADD27OC8,0.14918*%
%ADD28R,0.03162X0.02965*%
%ADD29R,0.11233X0.12611*%
%ADD30R,0.05328X0.02769*%
%ADD31R,0.14580X0.10643*%
%ADD32OC8,0.09050*%
%ADD33R,0.07099X0.11430*%
%ADD34C,0.06800*%
%ADD35R,0.06546X0.06546*%
%ADD36R,0.06350X0.06350*%
%ADD37C,0.06350*%
%ADD38R,0.02965X0.03162*%
%ADD39C,0.12600*%
%ADD40C,0.25469*%
%ADD41C,0.00300*%
%ADD42R,0.27178X0.27178*%
%ADD43R,0.12611X0.07099*%
%ADD44R,0.07099X0.12611*%
%ADD45R,0.03162X0.01981*%
%ADD46R,0.08674X0.06706*%
%ADD47R,0.08674X0.15761*%
%ADD48R,0.06312X0.04737*%
%ADD49R,0.04737X0.06312*%
%ADD50R,0.03162X0.05918*%
%ADD51R,0.03162X0.03950*%
%ADD52C,0.07200*%
%ADD53R,0.08674X0.05918*%
%ADD54R,0.08674X0.08674*%
%ADD55R,0.01981X0.07099*%
%ADD56C,0.13300*%
%ADD57C,0.05359*%
%ADD58C,0.05556*%
%ADD59C,0.05753*%
%ADD60OC8,0.06146*%
%ADD61OC8,0.05950*%
%ADD62C,0.06737*%
D10*
X0859339Y1049161D03*
X0859339Y1051720D03*
X0859339Y1054280D03*
X0859339Y1056839D03*
X0876661Y1056839D03*
X0876661Y1054280D03*
X0876661Y1051720D03*
X0876661Y1049161D03*
D11*
X0662134Y1168000D03*
X0653866Y1168000D03*
X0653866Y1178000D03*
X0662134Y1178000D03*
X0662134Y1313000D03*
X0653866Y1313000D03*
X0653866Y1328000D03*
X0662134Y1328000D03*
X0813000Y1413866D03*
X0813000Y1422134D03*
X0823000Y1422134D03*
X0823000Y1413866D03*
X0863000Y1413866D03*
X0863000Y1422134D03*
X0873000Y1422134D03*
X0873000Y1413866D03*
X1093000Y1227134D03*
X1093000Y1218866D03*
X1103000Y1218866D03*
X1103000Y1227134D03*
X1113000Y1227134D03*
X1113000Y1218866D03*
X1123000Y1218866D03*
X1123000Y1227134D03*
D12*
X1154300Y1234900D03*
X1164300Y1234900D03*
X1191100Y1214300D03*
X1191100Y1204300D03*
X1191100Y1194300D03*
X1191100Y1184300D03*
X1198000Y1393000D03*
X1208000Y1393000D03*
X1223000Y1393000D03*
X1233000Y1393000D03*
X1248000Y1393000D03*
X1258000Y1393000D03*
X1413000Y1393000D03*
X1413000Y1383000D03*
X1413000Y1373000D03*
X1413000Y1363000D03*
X1413000Y1338000D03*
X1413000Y1328000D03*
X1413000Y1318000D03*
X1413000Y1308000D03*
X1413000Y1283000D03*
X1413000Y1273000D03*
X1413000Y1263000D03*
X1413000Y1253000D03*
X1413000Y1228000D03*
X1413000Y1218000D03*
X1413000Y1208000D03*
X1413000Y1198000D03*
X1413000Y1173000D03*
X1413000Y1163000D03*
X1413000Y1153000D03*
X1413000Y1143000D03*
X1413000Y1118000D03*
X1413000Y1108000D03*
X1413000Y1098000D03*
X1413000Y1088000D03*
X1413000Y1063000D03*
X1413000Y1053000D03*
X1413000Y1043000D03*
X1413000Y1033000D03*
X1413000Y1008000D03*
X1413000Y0998000D03*
X1413000Y0988000D03*
X1413000Y0978000D03*
X1291700Y0951100D03*
X1281700Y0951100D03*
X1251700Y0951100D03*
X1241700Y0951100D03*
X1211700Y0951100D03*
X1201700Y0951100D03*
X1166700Y0951100D03*
X1156700Y0951100D03*
X1091700Y0956100D03*
X1081700Y0956100D03*
X0993000Y0963000D03*
X0993000Y0973000D03*
X0993000Y0983000D03*
X0993000Y0993000D03*
X0993000Y1023000D03*
X0993000Y1033000D03*
D13*
X0926839Y1027882D03*
X0924280Y1027882D03*
X0921720Y1027882D03*
X0919161Y1027882D03*
X0919161Y1038118D03*
X0921720Y1038118D03*
X0924280Y1038118D03*
X0926839Y1038118D03*
X1234161Y1117882D03*
X1236720Y1117882D03*
X1239280Y1117882D03*
X1241839Y1117882D03*
X1241839Y1128118D03*
X1239280Y1128118D03*
X1236720Y1128118D03*
X1234161Y1128118D03*
X1256861Y1076918D03*
X1259420Y1076918D03*
X1261980Y1076918D03*
X1264539Y1076918D03*
X1264539Y1066682D03*
X1261980Y1066682D03*
X1259420Y1066682D03*
X1256861Y1066682D03*
D14*
X1224539Y1068139D03*
X1221980Y1068139D03*
X1219420Y1068139D03*
X1216861Y1068139D03*
X1216861Y1085461D03*
X1219420Y1085461D03*
X1221980Y1085461D03*
X1224539Y1085461D03*
X1211839Y1229339D03*
X1209280Y1229339D03*
X1206720Y1229339D03*
X1204161Y1229339D03*
X1204161Y1246661D03*
X1206720Y1246661D03*
X1209280Y1246661D03*
X1211839Y1246661D03*
D15*
X1140135Y1198139D03*
X1140135Y1195580D03*
X1140135Y1193020D03*
X1140135Y1190461D03*
X1132065Y1190461D03*
X1132065Y1193020D03*
X1132065Y1195580D03*
X1132065Y1198139D03*
D16*
X1123000Y1204654D03*
X1123000Y1211346D03*
X1113000Y1211346D03*
X1113000Y1204654D03*
X1103000Y1204654D03*
X1103000Y1211346D03*
X1093000Y1211346D03*
X1093000Y1204654D03*
X1147106Y1198842D03*
X1147106Y1192149D03*
X1193000Y1234654D03*
X1193000Y1241346D03*
X1228000Y1319654D03*
X1228000Y1326346D03*
X1323000Y1329654D03*
X1323000Y1336346D03*
X1323000Y1384654D03*
X1323000Y1391346D03*
X1383000Y1381346D03*
X1383000Y1374654D03*
X1393000Y1374654D03*
X1393000Y1381346D03*
X1393000Y1326346D03*
X1393000Y1319654D03*
X1383000Y1319654D03*
X1383000Y1326346D03*
X1383000Y1271346D03*
X1383000Y1264654D03*
X1393000Y1264654D03*
X1393000Y1271346D03*
X1393000Y1216346D03*
X1393000Y1209654D03*
X1383000Y1209654D03*
X1383000Y1216346D03*
X1383000Y1161346D03*
X1383000Y1154654D03*
X1393000Y1154654D03*
X1393000Y1161346D03*
X1393000Y1106346D03*
X1393000Y1099654D03*
X1383000Y1099654D03*
X1383000Y1106346D03*
X1383000Y1051346D03*
X1383000Y1044654D03*
X1393000Y1044654D03*
X1393000Y1051346D03*
X1393000Y0996346D03*
X1393000Y0989654D03*
X1383000Y0989654D03*
X1383000Y0996346D03*
X1323000Y0999654D03*
X1323000Y1006346D03*
X1308000Y0956346D03*
X1308000Y0949654D03*
X1258200Y1048454D03*
X1258200Y1055146D03*
X1245700Y1055146D03*
X1245700Y1048454D03*
X1275700Y1068454D03*
X1275700Y1075146D03*
X1235700Y1078454D03*
X1235700Y1085146D03*
X1228000Y1124654D03*
X1228000Y1131346D03*
X1240500Y1137154D03*
X1240500Y1143846D03*
X1323000Y1164654D03*
X1323000Y1171346D03*
X1323000Y1219654D03*
X1323000Y1226346D03*
X1323000Y1274654D03*
X1323000Y1281346D03*
X1323000Y1116346D03*
X1323000Y1109654D03*
X1323000Y1061346D03*
X1323000Y1054654D03*
X1215300Y1042546D03*
X1215300Y1035854D03*
X1126100Y0972646D03*
X1126100Y0965954D03*
X1116100Y0965954D03*
X1116100Y0972646D03*
X1106100Y0972646D03*
X1106100Y0965954D03*
X0963000Y0974654D03*
X0963000Y0981346D03*
X0953000Y0981346D03*
X0953000Y0974654D03*
X0943000Y0974654D03*
X0943000Y0981346D03*
X0933000Y0981346D03*
X0933000Y0974654D03*
X0920500Y1014654D03*
X0920500Y1021346D03*
X0938000Y1024654D03*
X0938000Y1031346D03*
X0963000Y1031346D03*
X0963000Y1024654D03*
X0888000Y1044654D03*
X0888000Y1051346D03*
X0878000Y1021346D03*
X0878000Y1014654D03*
X0828000Y0981346D03*
X0828000Y0974654D03*
X0703000Y1174654D03*
X0703000Y1181346D03*
X0733000Y1199654D03*
X0733000Y1206346D03*
X0733000Y1214654D03*
X0733000Y1221346D03*
X0723000Y1221346D03*
X0723000Y1214654D03*
X0748000Y1191346D03*
X0748000Y1184654D03*
X0758000Y1189654D03*
X0758000Y1196346D03*
X0763000Y1204654D03*
X0763000Y1211346D03*
X0778000Y1209654D03*
X0778000Y1216346D03*
X0778000Y1201346D03*
X0778000Y1194654D03*
X0768000Y1196346D03*
X0768000Y1189654D03*
X0726759Y1280540D03*
X0726759Y1287233D03*
X0703800Y1288754D03*
X0703800Y1295446D03*
X0708000Y1339654D03*
X0708000Y1346346D03*
X0730499Y1352043D03*
X0730499Y1358736D03*
X0730400Y1372354D03*
X0730400Y1379046D03*
X0720100Y1378346D03*
X0720100Y1371654D03*
X0753000Y1346346D03*
X0753000Y1339654D03*
X0762278Y1340077D03*
X0762278Y1346770D03*
X0771004Y1345392D03*
X0771004Y1352085D03*
X0765918Y1360029D03*
X0765918Y1366722D03*
X0779100Y1369046D03*
X0779100Y1362354D03*
X0784745Y1353571D03*
X0784745Y1346878D03*
X0813000Y1399654D03*
X0813000Y1406346D03*
X0823000Y1406346D03*
X0823000Y1399654D03*
X0863000Y1399654D03*
X0863000Y1406346D03*
X0873000Y1406346D03*
X0873000Y1399654D03*
X0923000Y1376346D03*
X0923000Y1369654D03*
X0963000Y1409654D03*
X0963000Y1416346D03*
X0973000Y1416346D03*
X0973000Y1409654D03*
X0659300Y1290146D03*
X0659300Y1283454D03*
D17*
X0669654Y1308000D03*
X0676346Y1308000D03*
X0676346Y1318000D03*
X0669654Y1318000D03*
X0669654Y1328000D03*
X0676346Y1328000D03*
X0742789Y1299766D03*
X0749482Y1299766D03*
X0749203Y1289097D03*
X0742510Y1289097D03*
X0742329Y1279015D03*
X0749022Y1279015D03*
X0751346Y1238000D03*
X0744654Y1238000D03*
X0691346Y1168000D03*
X0684654Y1168000D03*
X0676346Y1168000D03*
X0669654Y1168000D03*
X0669654Y1178000D03*
X0676346Y1178000D03*
X0738040Y1388922D03*
X0744733Y1388922D03*
X0939654Y1393000D03*
X0946346Y1393000D03*
X0994654Y1403000D03*
X1001346Y1403000D03*
X1014654Y1423000D03*
X1021346Y1423000D03*
X1199654Y1363000D03*
X1206346Y1363000D03*
X1224654Y1363000D03*
X1231346Y1363000D03*
X1249654Y1363000D03*
X1256346Y1363000D03*
X1236346Y1338000D03*
X1229654Y1338000D03*
X1339654Y1348000D03*
X1346346Y1348000D03*
X1346346Y1293000D03*
X1339654Y1293000D03*
X1339654Y1238000D03*
X1346346Y1238000D03*
X1346346Y1183000D03*
X1339654Y1183000D03*
X1339654Y1128000D03*
X1346346Y1128000D03*
X1346346Y1073000D03*
X1339654Y1073000D03*
X1339654Y1018000D03*
X1346346Y1018000D03*
X1289868Y0978423D03*
X1283175Y0978423D03*
X1281346Y1008000D03*
X1274654Y1008000D03*
X1250150Y0978065D03*
X1243457Y0978065D03*
X1210563Y0977754D03*
X1203871Y0977754D03*
X1164451Y0977887D03*
X1157758Y0977887D03*
X1232354Y1066800D03*
X1239046Y1066800D03*
X1264654Y1098000D03*
X1271346Y1098000D03*
X1169546Y1131100D03*
X1162854Y1131100D03*
X1139546Y1131100D03*
X1132854Y1131100D03*
X1157754Y1159300D03*
X1164446Y1159300D03*
X1162646Y1189900D03*
X1155954Y1189900D03*
X1155954Y1199900D03*
X1162646Y1199900D03*
X1162646Y1209900D03*
X1155954Y1209900D03*
X1137646Y1182400D03*
X1130954Y1182400D03*
X1269654Y1213000D03*
X1276346Y1213000D03*
X1339654Y1403000D03*
X1346346Y1403000D03*
X0871346Y1038000D03*
X0864654Y1038000D03*
D18*
X1261484Y1109043D03*
X1261484Y1111602D03*
X1261484Y1114161D03*
X1261484Y1116720D03*
X1261484Y1119280D03*
X1261484Y1121839D03*
X1261484Y1124398D03*
X1261484Y1126957D03*
X1284516Y1126957D03*
X1284516Y1124398D03*
X1284516Y1121839D03*
X1284516Y1119280D03*
X1284516Y1116720D03*
X1284516Y1114161D03*
X1284516Y1111602D03*
X1284516Y1109043D03*
D19*
X1383000Y1122291D03*
X1383000Y1133709D03*
X1383000Y1177291D03*
X1383000Y1188709D03*
X1383000Y1232291D03*
X1383000Y1243709D03*
X1383000Y1287291D03*
X1383000Y1298709D03*
X1383000Y1342291D03*
X1383000Y1353709D03*
X1383000Y1392291D03*
X1383000Y1403709D03*
X1383000Y1078709D03*
X1383000Y1067291D03*
X1383000Y1023709D03*
X1383000Y1012291D03*
X1013000Y1387291D03*
X1013000Y1398709D03*
X0708977Y1382406D03*
X0708977Y1370989D03*
X0708000Y1223709D03*
X0708000Y1212291D03*
X0708000Y1123709D03*
X0708000Y1112291D03*
X0973000Y1033709D03*
X0973000Y1022291D03*
X0973000Y0983709D03*
X0973000Y0972291D03*
D20*
X0869459Y1004314D03*
X0864459Y1004314D03*
X0859459Y1004314D03*
X0854459Y1004314D03*
X0854459Y1026362D03*
X0859459Y1026362D03*
X0864459Y1026362D03*
X0869459Y1026362D03*
X1223200Y1035776D03*
X1228200Y1035776D03*
X1233200Y1035776D03*
X1238200Y1035776D03*
X1238200Y1057824D03*
X1233200Y1057824D03*
X1228200Y1057824D03*
X1223200Y1057824D03*
X1330500Y1059024D03*
X1335500Y1059024D03*
X1340500Y1059024D03*
X1345500Y1059024D03*
X1345500Y1036976D03*
X1340500Y1036976D03*
X1335500Y1036976D03*
X1330500Y1036976D03*
X1330500Y1004024D03*
X1335500Y1004024D03*
X1340500Y1004024D03*
X1345500Y1004024D03*
X1345500Y0981976D03*
X1340500Y0981976D03*
X1335500Y0981976D03*
X1330500Y0981976D03*
X1330500Y1091976D03*
X1335500Y1091976D03*
X1340500Y1091976D03*
X1345500Y1091976D03*
X1345500Y1114024D03*
X1340500Y1114024D03*
X1335500Y1114024D03*
X1330500Y1114024D03*
X1330500Y1146976D03*
X1335500Y1146976D03*
X1340500Y1146976D03*
X1345500Y1146976D03*
X1345500Y1169024D03*
X1340500Y1169024D03*
X1335500Y1169024D03*
X1330500Y1169024D03*
X1330500Y1201976D03*
X1335500Y1201976D03*
X1340500Y1201976D03*
X1345500Y1201976D03*
X1345500Y1224024D03*
X1340500Y1224024D03*
X1335500Y1224024D03*
X1330500Y1224024D03*
X1330500Y1256976D03*
X1335500Y1256976D03*
X1340500Y1256976D03*
X1345500Y1256976D03*
X1345500Y1279024D03*
X1340500Y1279024D03*
X1335500Y1279024D03*
X1330500Y1279024D03*
X1330500Y1311976D03*
X1335500Y1311976D03*
X1340500Y1311976D03*
X1345500Y1311976D03*
X1345500Y1334024D03*
X1340500Y1334024D03*
X1335500Y1334024D03*
X1330500Y1334024D03*
X1330500Y1366976D03*
X1335500Y1366976D03*
X1340500Y1366976D03*
X1345500Y1366976D03*
X1345500Y1389024D03*
X1340500Y1389024D03*
X1335500Y1389024D03*
X1330500Y1389024D03*
D21*
X1363000Y1390550D03*
X1363000Y1365450D03*
X1363000Y1335550D03*
X1363000Y1310450D03*
X1363000Y1280550D03*
X1363000Y1255450D03*
X1363000Y1225550D03*
X1363000Y1200450D03*
X1363000Y1170550D03*
X1363000Y1145450D03*
X1363000Y1115550D03*
X1363000Y1090450D03*
X1363000Y1060550D03*
X1363000Y1035450D03*
X1363000Y1005550D03*
X1363000Y0980450D03*
D22*
X1219024Y1320500D03*
X1219024Y1325500D03*
X1219024Y1330500D03*
X1219024Y1335500D03*
X1196976Y1335500D03*
X1196976Y1330500D03*
X1196976Y1325500D03*
X1196976Y1320500D03*
D23*
X1258150Y1026800D03*
X1283250Y1026800D03*
X0915550Y0998000D03*
X0890450Y0998000D03*
D24*
X1197291Y1373000D03*
X1208709Y1373000D03*
X1222291Y1373000D03*
X1233709Y1373000D03*
X1247291Y1373000D03*
X1258709Y1373000D03*
D25*
X1233000Y1300350D03*
X1233000Y1270350D03*
X1233000Y1195650D03*
X1233000Y1165650D03*
D26*
X1260402Y1221366D03*
X1260402Y1223925D03*
X1260402Y1226484D03*
X1260402Y1229043D03*
X1260402Y1231602D03*
X1260402Y1234161D03*
X1260402Y1236720D03*
X1260402Y1239280D03*
X1260402Y1241839D03*
X1260402Y1244398D03*
X1260402Y1246957D03*
X1260402Y1249516D03*
X1260402Y1252075D03*
X1260402Y1254634D03*
X1285598Y1254634D03*
X1285598Y1252075D03*
X1285598Y1249516D03*
X1285598Y1246957D03*
X1285598Y1244398D03*
X1285598Y1241839D03*
X1285598Y1239280D03*
X1285598Y1236720D03*
X1285598Y1234161D03*
X1285598Y1231602D03*
X1285598Y1229043D03*
X1285598Y1226484D03*
X1285598Y1223925D03*
X1285598Y1221366D03*
D27*
X1161701Y1308709D03*
X1141701Y1308709D03*
X1118000Y1308709D03*
X1098000Y1308709D03*
X1074299Y1308709D03*
X1074299Y1333000D03*
X1098000Y1333000D03*
X1118000Y1333000D03*
X1141701Y1333000D03*
X1161701Y1333000D03*
X1161701Y1357016D03*
X1141701Y1357016D03*
X1141701Y1396701D03*
X1161701Y1396701D03*
X1074299Y1396701D03*
X1054299Y1396701D03*
X1054299Y1357016D03*
X1054299Y1333000D03*
X1054299Y1308709D03*
X1074299Y1357016D03*
D28*
X1170674Y1211876D03*
X1175792Y1211876D03*
X1173233Y1204592D03*
X0955559Y1409358D03*
X0950441Y1409358D03*
X0953000Y1416642D03*
X0763600Y1301642D03*
X0766159Y1294358D03*
X0761041Y1294358D03*
D29*
X0993000Y1418000D03*
D30*
X0983000Y1415520D03*
X0983000Y1420520D03*
X0983000Y1425520D03*
X0983000Y1410520D03*
X1003000Y1410520D03*
X1003000Y1415520D03*
X1003000Y1420520D03*
X1003000Y1425520D03*
D31*
X1260205Y1183000D03*
X1285795Y1183000D03*
X1285795Y1148000D03*
X1260205Y1148000D03*
D32*
X1159450Y1066800D03*
X1159450Y1016800D03*
X1134450Y1016800D03*
X1121950Y1016800D03*
X1109450Y1016800D03*
X1071950Y1016800D03*
X1071950Y1066800D03*
X0796750Y1038000D03*
X0796750Y0988000D03*
X0771750Y0988000D03*
X0759250Y0988000D03*
X0746750Y0988000D03*
X0709250Y0988000D03*
X0709250Y1038000D03*
D33*
X0693512Y1013000D03*
X0682488Y1013000D03*
X0682488Y0998000D03*
X0693512Y0998000D03*
X1043688Y1020700D03*
X1054712Y1020700D03*
X1054712Y1035700D03*
X1043688Y1035700D03*
D34*
X0728000Y0966000D02*
X0728000Y0960000D01*
X0738000Y0960000D02*
X0738000Y0966000D01*
X1053800Y0965300D02*
X1059800Y0965300D01*
X1059800Y0955300D02*
X1053800Y0955300D01*
D35*
X1120621Y1081800D03*
X1160779Y1081800D03*
X0798079Y1053000D03*
X0757921Y1053000D03*
D36*
X0828000Y0998157D03*
X1190700Y1031957D03*
D37*
X1190700Y1051643D03*
X0828000Y1017843D03*
D38*
X1157423Y0971750D03*
X1157423Y0966632D03*
X1164706Y0969191D03*
X1203634Y0971696D03*
X1203634Y0966578D03*
X1210918Y0969137D03*
X1243221Y0966672D03*
X1243221Y0971790D03*
X1250505Y0969231D03*
X1283025Y0966778D03*
X1283025Y0971896D03*
X1290308Y0969337D03*
D39*
X0685100Y1084400D03*
X0685100Y1151600D03*
X0670900Y1194400D03*
X0670900Y1261600D03*
X0670900Y1344400D03*
X0670900Y1411600D03*
D40*
X0678000Y1392750D03*
X0678000Y1363250D03*
X0678000Y1242750D03*
X0678000Y1213250D03*
X0678000Y1132750D03*
X0678000Y1103250D03*
D41*
X0741220Y1201750D02*
X0741220Y1206038D01*
X0756980Y1206038D01*
X0756980Y1201750D01*
X0741220Y1201750D01*
X0741220Y1201959D02*
X0756980Y1201959D01*
X0756980Y1202257D02*
X0741220Y1202257D01*
X0741220Y1202556D02*
X0756980Y1202556D01*
X0756980Y1202854D02*
X0741220Y1202854D01*
X0741220Y1203153D02*
X0756980Y1203153D01*
X0756980Y1203451D02*
X0741220Y1203451D01*
X0741220Y1203750D02*
X0756980Y1203750D01*
X0756980Y1204048D02*
X0741220Y1204048D01*
X0741220Y1204347D02*
X0756980Y1204347D01*
X0756980Y1204645D02*
X0741220Y1204645D01*
X0741220Y1204944D02*
X0756980Y1204944D01*
X0756980Y1205242D02*
X0741220Y1205242D01*
X0741220Y1205541D02*
X0756980Y1205541D01*
X0756980Y1205839D02*
X0741220Y1205839D01*
X0741227Y1220554D02*
X0741227Y1224841D01*
X0756986Y1224841D01*
X0756986Y1220554D01*
X0741227Y1220554D01*
X0741227Y1220765D02*
X0756986Y1220765D01*
X0756986Y1221063D02*
X0741227Y1221063D01*
X0741227Y1221362D02*
X0756986Y1221362D01*
X0756986Y1221660D02*
X0741227Y1221660D01*
X0741227Y1221959D02*
X0756986Y1221959D01*
X0756986Y1222257D02*
X0741227Y1222257D01*
X0741227Y1222556D02*
X0756986Y1222556D01*
X0756986Y1222854D02*
X0741227Y1222854D01*
X0741227Y1223153D02*
X0756986Y1223153D01*
X0756986Y1223452D02*
X0741227Y1223452D01*
X0741227Y1223750D02*
X0756986Y1223750D01*
X0756986Y1224049D02*
X0741227Y1224049D01*
X0741227Y1224347D02*
X0756986Y1224347D01*
X0756986Y1224646D02*
X0741227Y1224646D01*
X0739320Y1355750D02*
X0739320Y1360038D01*
X0755080Y1360038D01*
X0755080Y1355750D01*
X0739320Y1355750D01*
X0739320Y1355991D02*
X0755080Y1355991D01*
X0755080Y1356289D02*
X0739320Y1356289D01*
X0739320Y1356588D02*
X0755080Y1356588D01*
X0755080Y1356886D02*
X0739320Y1356886D01*
X0739320Y1357185D02*
X0755080Y1357185D01*
X0755080Y1357483D02*
X0739320Y1357483D01*
X0739320Y1357782D02*
X0755080Y1357782D01*
X0755080Y1358080D02*
X0739320Y1358080D01*
X0739320Y1358379D02*
X0755080Y1358379D01*
X0755080Y1358677D02*
X0739320Y1358677D01*
X0739320Y1358976D02*
X0755080Y1358976D01*
X0755080Y1359274D02*
X0739320Y1359274D01*
X0739320Y1359573D02*
X0755080Y1359573D01*
X0755080Y1359871D02*
X0739320Y1359871D01*
X0739327Y1374554D02*
X0739327Y1378841D01*
X0755086Y1378841D01*
X0755086Y1374554D01*
X0739327Y1374554D01*
X0739327Y1374797D02*
X0755086Y1374797D01*
X0755086Y1375095D02*
X0739327Y1375095D01*
X0739327Y1375394D02*
X0755086Y1375394D01*
X0755086Y1375692D02*
X0739327Y1375692D01*
X0739327Y1375991D02*
X0755086Y1375991D01*
X0755086Y1376289D02*
X0739327Y1376289D01*
X0739327Y1376588D02*
X0755086Y1376588D01*
X0755086Y1376886D02*
X0739327Y1376886D01*
X0739327Y1377185D02*
X0755086Y1377185D01*
X0755086Y1377483D02*
X0739327Y1377483D01*
X0739327Y1377782D02*
X0755086Y1377782D01*
X0755086Y1378080D02*
X0739327Y1378080D01*
X0739327Y1378379D02*
X0755086Y1378379D01*
X0755086Y1378677D02*
X0739327Y1378677D01*
D42*
X0722700Y1409100D03*
X0778400Y1388100D03*
X0723000Y1258000D03*
X0778000Y1238000D03*
D43*
X0749181Y1248945D03*
X0749181Y1267055D03*
X0748881Y1400045D03*
X0748881Y1418155D03*
D44*
X0769345Y1414281D03*
X0787455Y1414281D03*
X0787055Y1264181D03*
X0768945Y1264181D03*
D45*
X0735629Y1297141D03*
X0735629Y1299700D03*
X0735629Y1302259D03*
X0726771Y1302259D03*
X0726771Y1297259D03*
D46*
X0670098Y1295455D03*
X0670098Y1286400D03*
X0670098Y1277345D03*
X0935598Y1363945D03*
X0935598Y1373000D03*
X0935598Y1382055D03*
D47*
X0958000Y1373000D03*
X0692500Y1286400D03*
D48*
X0683669Y1309260D03*
X0683669Y1316740D03*
X0692331Y1313000D03*
D49*
X0704260Y1167331D03*
X0711740Y1167331D03*
X0708000Y1158669D03*
D50*
X0839260Y1418866D03*
X0846740Y1418866D03*
X0843000Y1427134D03*
X0889260Y1418866D03*
X0896740Y1418866D03*
X0893000Y1427134D03*
D51*
X0691740Y1331937D03*
X0684260Y1331937D03*
X0688000Y1324063D03*
X0684260Y1181937D03*
X0691740Y1181937D03*
X0688000Y1174063D03*
D52*
X0708000Y1098000D03*
X0716800Y1291900D03*
X0716800Y1301900D03*
X0773000Y1303000D03*
X0773000Y1293000D03*
X0833000Y1383000D03*
X0848000Y1383000D03*
X0883000Y1383000D03*
X0898000Y1383000D03*
X0943000Y1408000D03*
X0943000Y1418000D03*
X1023000Y1408000D03*
X1023000Y1398000D03*
X1138000Y1233000D03*
X1208000Y1168000D03*
X1156200Y1116100D03*
X1146200Y1116100D03*
X1208000Y1088000D03*
X1208000Y1068000D03*
X1118000Y0948000D03*
X0918000Y0963000D03*
D53*
X0885126Y1395913D03*
X0885126Y1410087D03*
X0835126Y1410087D03*
X0835126Y1395913D03*
D54*
X0850874Y1403000D03*
X0900874Y1403000D03*
D55*
X1141239Y1173393D03*
X1143739Y1173393D03*
X1146239Y1173393D03*
X1148739Y1173393D03*
X1148739Y1160007D03*
X1146239Y1160007D03*
X1143739Y1160007D03*
X1141239Y1160007D03*
D56*
X0998000Y1153000D03*
X0808000Y1158000D03*
X0868000Y1358000D03*
X0978000Y1358000D03*
D57*
X1268000Y1238000D03*
X1323000Y1233000D03*
X1323000Y1250500D03*
X1323000Y1258000D03*
X1323000Y1265500D03*
X1333000Y1265500D03*
X1333000Y1250500D03*
X1323000Y1288000D03*
X1323000Y1305500D03*
X1323000Y1313000D03*
X1323000Y1320500D03*
X1333000Y1320500D03*
X1333000Y1305500D03*
X1323000Y1343000D03*
X1323000Y1360500D03*
X1323000Y1368000D03*
X1323000Y1375500D03*
X1333000Y1375500D03*
X1333000Y1360500D03*
X1323000Y1398000D03*
X1393000Y1403000D03*
X1388000Y1363000D03*
X1388000Y1308000D03*
X1388000Y1253000D03*
X1388000Y1198000D03*
X1388000Y1143000D03*
X1388000Y1088000D03*
X1388000Y1033000D03*
X1333000Y1030500D03*
X1323000Y1030500D03*
X1323000Y1038000D03*
X1323000Y1045500D03*
X1333000Y1045500D03*
X1323006Y1068006D03*
X1323000Y1085500D03*
X1323000Y1093000D03*
X1323000Y1100500D03*
X1333000Y1100500D03*
X1333000Y1085500D03*
X1323000Y1123000D03*
X1323000Y1140500D03*
X1323000Y1148000D03*
X1323000Y1155500D03*
X1333000Y1155500D03*
X1333000Y1140500D03*
X1323000Y1178000D03*
X1323000Y1195500D03*
X1323000Y1203000D03*
X1323000Y1210500D03*
X1333000Y1210500D03*
X1333000Y1195500D03*
X1318000Y1013000D03*
X1323000Y0990500D03*
X1323000Y0983000D03*
X1323000Y0975500D03*
X1333000Y0975500D03*
X1333000Y0990500D03*
D58*
X1263000Y1008000D03*
X1258000Y1348000D03*
X1248000Y1353000D03*
X1233000Y1353000D03*
X0683000Y0983000D03*
X0673000Y1023000D03*
D59*
X1278000Y1133000D03*
D60*
X1053000Y1008000D03*
X1033000Y1038000D03*
D61*
X0828000Y0968000D03*
X1280625Y1098000D03*
D62*
X1323000Y0963000D03*
X1333000Y0963000D03*
M02*
