G75*
%MOIN*%
%OFA0B0*%
%FSLAX25Y25*%
%IPPOS*%
%LPD*%
%AMOC8*
5,1,8,0,0,1.08239X$1,22.5*
%
%ADD10C,0.00000*%
%ADD11C,0.06000*%
%ADD12R,0.05709X0.01772*%
%ADD13C,0.01200*%
D10*
X0001000Y0001000D02*
X0001000Y0049701D01*
X0060921Y0049701D01*
X0060921Y0001000D01*
X0001000Y0001000D01*
D11*
X0011000Y0011000D03*
X0011000Y0021000D03*
X0011000Y0031000D03*
X0011000Y0041000D03*
X0051000Y0041000D03*
X0051000Y0031000D03*
X0051000Y0021000D03*
X0051000Y0011000D03*
D12*
X0039661Y0022161D03*
X0039661Y0024720D03*
X0039661Y0027280D03*
X0039661Y0029839D03*
X0022339Y0029839D03*
X0022339Y0027280D03*
X0022339Y0024720D03*
X0022339Y0022161D03*
D13*
X0017161Y0022161D01*
X0016000Y0021000D01*
X0016000Y0016000D01*
X0011000Y0011000D01*
X0011000Y0021000D02*
X0014720Y0024720D01*
X0022339Y0024720D01*
X0022339Y0027280D02*
X0022065Y0027553D01*
X0016619Y0027553D01*
X0013172Y0031000D01*
X0011000Y0031000D01*
X0016000Y0031000D02*
X0016000Y0036000D01*
X0011000Y0041000D01*
X0016000Y0031000D02*
X0017161Y0029839D01*
X0022339Y0029839D01*
X0039661Y0029839D02*
X0044839Y0029839D01*
X0046000Y0031000D01*
X0046000Y0036000D01*
X0051000Y0041000D01*
X0051000Y0031000D02*
X0048828Y0031000D01*
X0045381Y0027553D01*
X0039935Y0027553D01*
X0039661Y0027280D01*
X0039661Y0024720D02*
X0047280Y0024720D01*
X0051000Y0021000D01*
X0046000Y0021000D02*
X0046000Y0016000D01*
X0051000Y0011000D01*
X0046000Y0021000D02*
X0044839Y0022161D01*
X0039661Y0022161D01*
M02*
