G75*
%MOIN*%
%OFA0B0*%
%FSLAX25Y25*%
%IPPOS*%
%LPD*%
%AMOC8*
5,1,8,0,0,1.08239X$1,22.5*
%
%ADD10C,0.24669*%
%ADD11R,0.07087X0.07087*%
%ADD12OC8,0.07087*%
%ADD13OC8,0.06300*%
%ADD14C,0.06300*%
%ADD15R,0.05937X0.05937*%
%ADD16OC8,0.05937*%
%ADD17C,0.03575*%
%ADD18C,0.03569*%
%ADD19C,0.01200*%
%ADD20C,0.04159*%
%ADD21C,0.04553*%
%ADD22C,0.05906*%
%ADD23C,0.03962*%
%ADD24C,0.01600*%
D10*
X0078250Y0063000D03*
X0107750Y0063000D03*
X0068000Y0340750D03*
X0068000Y0370250D03*
X0223000Y0370250D03*
X0223000Y0340750D03*
D11*
X0053000Y0265067D03*
X0178433Y0053000D03*
D12*
X0157567Y0053000D03*
X0155500Y0103000D03*
X0145500Y0103000D03*
X0080500Y0178000D03*
X0070500Y0178000D03*
X0053000Y0285933D03*
D13*
X0228000Y0151000D03*
D14*
X0228000Y0165000D03*
D15*
X0213689Y0245500D03*
D16*
X0237311Y0245500D03*
D17*
X0163000Y0195500D03*
X0163000Y0185500D03*
D18*
X0119000Y0252000D03*
X0119000Y0257000D03*
D19*
X0040100Y0399601D02*
X0040100Y0037600D01*
X0250821Y0037600D01*
X0250821Y0399601D01*
X0040100Y0399601D01*
X0040100Y0398649D02*
X0250821Y0398649D01*
X0250821Y0397450D02*
X0040100Y0397450D01*
X0040100Y0396252D02*
X0071461Y0396252D01*
X0070568Y0395882D02*
X0068318Y0393632D01*
X0067100Y0390691D01*
X0067100Y0387509D01*
X0068318Y0384568D01*
X0068704Y0384183D01*
X0068685Y0384185D01*
X0068600Y0384185D01*
X0068600Y0370850D01*
X0067400Y0370850D01*
X0067400Y0384185D01*
X0067315Y0384185D01*
X0065953Y0384050D01*
X0064610Y0383783D01*
X0063300Y0383386D01*
X0062035Y0382862D01*
X0060828Y0382217D01*
X0059689Y0381456D01*
X0058631Y0380587D01*
X0057663Y0379619D01*
X0056794Y0378561D01*
X0056033Y0377422D01*
X0055388Y0376215D01*
X0054864Y0374950D01*
X0054467Y0373640D01*
X0054200Y0372297D01*
X0054065Y0370935D01*
X0054065Y0370850D01*
X0067400Y0370850D01*
X0067400Y0369650D01*
X0054065Y0369650D01*
X0054065Y0369565D01*
X0054200Y0368203D01*
X0054467Y0366860D01*
X0054864Y0365550D01*
X0055388Y0364285D01*
X0056033Y0363078D01*
X0056794Y0361939D01*
X0057663Y0360881D01*
X0058631Y0359913D01*
X0059689Y0359044D01*
X0060828Y0358283D01*
X0062035Y0357638D01*
X0063300Y0357114D01*
X0064610Y0356717D01*
X0065953Y0356450D01*
X0067315Y0356315D01*
X0067400Y0356315D01*
X0067400Y0369650D01*
X0068600Y0369650D01*
X0068600Y0370850D01*
X0081935Y0370850D01*
X0081935Y0370935D01*
X0081800Y0372297D01*
X0081533Y0373640D01*
X0081136Y0374950D01*
X0080612Y0376215D01*
X0079967Y0377422D01*
X0079206Y0378561D01*
X0078337Y0379619D01*
X0077369Y0380587D01*
X0076727Y0381115D01*
X0079632Y0382318D01*
X0081882Y0384568D01*
X0083100Y0387509D01*
X0083100Y0390691D01*
X0081882Y0393632D01*
X0079632Y0395882D01*
X0076691Y0397100D01*
X0073509Y0397100D01*
X0070568Y0395882D01*
X0069740Y0395053D02*
X0040100Y0395053D01*
X0040100Y0393855D02*
X0068541Y0393855D01*
X0067914Y0392656D02*
X0040100Y0392656D01*
X0040100Y0391458D02*
X0067418Y0391458D01*
X0067100Y0390259D02*
X0040100Y0390259D01*
X0040100Y0389061D02*
X0067100Y0389061D01*
X0067100Y0387862D02*
X0040100Y0387862D01*
X0040100Y0386664D02*
X0067450Y0386664D01*
X0067946Y0385465D02*
X0040100Y0385465D01*
X0040100Y0384267D02*
X0068619Y0384267D01*
X0068600Y0383068D02*
X0067400Y0383068D01*
X0067400Y0381870D02*
X0068600Y0381870D01*
X0068600Y0380671D02*
X0067400Y0380671D01*
X0067400Y0379473D02*
X0068600Y0379473D01*
X0068600Y0378274D02*
X0067400Y0378274D01*
X0067400Y0377076D02*
X0068600Y0377076D01*
X0068600Y0375877D02*
X0067400Y0375877D01*
X0067400Y0374679D02*
X0068600Y0374679D01*
X0068600Y0373480D02*
X0067400Y0373480D01*
X0067400Y0372282D02*
X0068600Y0372282D01*
X0068600Y0371083D02*
X0067400Y0371083D01*
X0067400Y0369885D02*
X0040100Y0369885D01*
X0040100Y0371083D02*
X0054080Y0371083D01*
X0054198Y0372282D02*
X0040100Y0372282D01*
X0040100Y0373480D02*
X0054435Y0373480D01*
X0054782Y0374679D02*
X0040100Y0374679D01*
X0040100Y0375877D02*
X0055248Y0375877D01*
X0055848Y0377076D02*
X0040100Y0377076D01*
X0040100Y0378274D02*
X0056603Y0378274D01*
X0057542Y0379473D02*
X0040100Y0379473D01*
X0040100Y0380671D02*
X0058733Y0380671D01*
X0060309Y0381870D02*
X0040100Y0381870D01*
X0040100Y0383068D02*
X0062533Y0383068D01*
X0068600Y0369885D02*
X0208865Y0369885D01*
X0208865Y0371083D02*
X0081920Y0371083D01*
X0081802Y0372282D02*
X0208911Y0372282D01*
X0208865Y0372111D02*
X0208865Y0368389D01*
X0209829Y0364794D01*
X0211689Y0361571D01*
X0214321Y0358939D01*
X0217544Y0357079D01*
X0221139Y0356115D01*
X0224861Y0356115D01*
X0228456Y0357079D01*
X0231679Y0358939D01*
X0234311Y0361571D01*
X0236171Y0364794D01*
X0237135Y0368389D01*
X0237135Y0372111D01*
X0236171Y0375706D01*
X0234311Y0378929D01*
X0231679Y0381561D01*
X0228456Y0383421D01*
X0224861Y0384385D01*
X0222498Y0384385D01*
X0222682Y0384568D01*
X0223900Y0387509D01*
X0223900Y0390691D01*
X0222682Y0393632D01*
X0220432Y0395882D01*
X0217491Y0397100D01*
X0214309Y0397100D01*
X0211368Y0395882D01*
X0209118Y0393632D01*
X0207900Y0390691D01*
X0207900Y0387509D01*
X0209118Y0384568D01*
X0211368Y0382318D01*
X0213992Y0381231D01*
X0211689Y0378929D01*
X0209829Y0375706D01*
X0208865Y0372111D01*
X0209232Y0373480D02*
X0081565Y0373480D01*
X0081218Y0374679D02*
X0209553Y0374679D01*
X0209928Y0375877D02*
X0080752Y0375877D01*
X0080152Y0377076D02*
X0210620Y0377076D01*
X0211312Y0378274D02*
X0079397Y0378274D01*
X0078458Y0379473D02*
X0212233Y0379473D01*
X0213432Y0380671D02*
X0077267Y0380671D01*
X0078550Y0381870D02*
X0212450Y0381870D01*
X0210618Y0383068D02*
X0080382Y0383068D01*
X0081580Y0384267D02*
X0209419Y0384267D01*
X0208746Y0385465D02*
X0082254Y0385465D01*
X0082750Y0386664D02*
X0208250Y0386664D01*
X0207900Y0387862D02*
X0083100Y0387862D01*
X0083100Y0389061D02*
X0207900Y0389061D01*
X0207900Y0390259D02*
X0083100Y0390259D01*
X0082782Y0391458D02*
X0208218Y0391458D01*
X0208714Y0392656D02*
X0082286Y0392656D01*
X0081659Y0393855D02*
X0209341Y0393855D01*
X0210540Y0395053D02*
X0080460Y0395053D01*
X0078739Y0396252D02*
X0212261Y0396252D01*
X0219539Y0396252D02*
X0250821Y0396252D01*
X0250821Y0395053D02*
X0221260Y0395053D01*
X0222459Y0393855D02*
X0250821Y0393855D01*
X0250821Y0392656D02*
X0223086Y0392656D01*
X0223582Y0391458D02*
X0250821Y0391458D01*
X0250821Y0390259D02*
X0223900Y0390259D01*
X0223900Y0389061D02*
X0250821Y0389061D01*
X0250821Y0387862D02*
X0223900Y0387862D01*
X0223550Y0386664D02*
X0250821Y0386664D01*
X0250821Y0385465D02*
X0223054Y0385465D01*
X0225301Y0384267D02*
X0250821Y0384267D01*
X0250821Y0383068D02*
X0229067Y0383068D01*
X0231143Y0381870D02*
X0250821Y0381870D01*
X0250821Y0380671D02*
X0232568Y0380671D01*
X0233767Y0379473D02*
X0250821Y0379473D01*
X0250821Y0378274D02*
X0234688Y0378274D01*
X0235380Y0377076D02*
X0250821Y0377076D01*
X0250821Y0375877D02*
X0236072Y0375877D01*
X0236447Y0374679D02*
X0250821Y0374679D01*
X0250821Y0373480D02*
X0236768Y0373480D01*
X0237089Y0372282D02*
X0250821Y0372282D01*
X0250821Y0371083D02*
X0237135Y0371083D01*
X0237135Y0369885D02*
X0250821Y0369885D01*
X0250821Y0368686D02*
X0237135Y0368686D01*
X0236893Y0367488D02*
X0250821Y0367488D01*
X0250821Y0366289D02*
X0236572Y0366289D01*
X0236251Y0365091D02*
X0250821Y0365091D01*
X0250821Y0363892D02*
X0235651Y0363892D01*
X0234959Y0362694D02*
X0250821Y0362694D01*
X0250821Y0361495D02*
X0234234Y0361495D01*
X0233036Y0360297D02*
X0250821Y0360297D01*
X0250821Y0359098D02*
X0231837Y0359098D01*
X0229878Y0357900D02*
X0250821Y0357900D01*
X0250821Y0356701D02*
X0227047Y0356701D01*
X0226390Y0354283D02*
X0225047Y0354550D01*
X0223685Y0354685D01*
X0223600Y0354685D01*
X0223600Y0341350D01*
X0222400Y0341350D01*
X0222400Y0354685D01*
X0222315Y0354685D01*
X0220953Y0354550D01*
X0219610Y0354283D01*
X0218300Y0353886D01*
X0217035Y0353362D01*
X0215828Y0352717D01*
X0214689Y0351956D01*
X0213631Y0351087D01*
X0212663Y0350119D01*
X0211794Y0349061D01*
X0211033Y0347922D01*
X0210388Y0346715D01*
X0209864Y0345450D01*
X0209467Y0344140D01*
X0209200Y0342797D01*
X0209065Y0341435D01*
X0209065Y0341350D01*
X0222400Y0341350D01*
X0222400Y0340150D01*
X0209065Y0340150D01*
X0209065Y0340065D01*
X0209200Y0338703D01*
X0209467Y0337360D01*
X0209864Y0336050D01*
X0210388Y0334785D01*
X0211033Y0333578D01*
X0211794Y0332439D01*
X0212663Y0331381D01*
X0213631Y0330413D01*
X0214273Y0329885D01*
X0211368Y0328682D01*
X0209118Y0326432D01*
X0207900Y0323491D01*
X0207900Y0320309D01*
X0209118Y0317368D01*
X0211368Y0315118D01*
X0214309Y0313900D01*
X0217491Y0313900D01*
X0220432Y0315118D01*
X0222682Y0317368D01*
X0223900Y0320309D01*
X0223900Y0323491D01*
X0222682Y0326432D01*
X0222296Y0326817D01*
X0222315Y0326815D01*
X0222400Y0326815D01*
X0222400Y0340150D01*
X0223600Y0340150D01*
X0223600Y0341350D01*
X0236935Y0341350D01*
X0236935Y0341435D01*
X0236800Y0342797D01*
X0236533Y0344140D01*
X0236136Y0345450D01*
X0235612Y0346715D01*
X0234967Y0347922D01*
X0234206Y0349061D01*
X0233337Y0350119D01*
X0232369Y0351087D01*
X0231311Y0351956D01*
X0230172Y0352717D01*
X0228965Y0353362D01*
X0227700Y0353886D01*
X0226390Y0354283D01*
X0226286Y0354304D02*
X0250821Y0354304D01*
X0250821Y0353105D02*
X0229445Y0353105D01*
X0231370Y0351907D02*
X0250821Y0351907D01*
X0250821Y0350708D02*
X0232748Y0350708D01*
X0233837Y0349510D02*
X0250821Y0349510D01*
X0250821Y0348311D02*
X0234707Y0348311D01*
X0235399Y0347113D02*
X0250821Y0347113D01*
X0250821Y0345914D02*
X0235944Y0345914D01*
X0236359Y0344716D02*
X0250821Y0344716D01*
X0250821Y0343517D02*
X0236657Y0343517D01*
X0236848Y0342319D02*
X0250821Y0342319D01*
X0250821Y0341120D02*
X0223600Y0341120D01*
X0223600Y0340150D02*
X0236935Y0340150D01*
X0236935Y0340065D01*
X0236800Y0338703D01*
X0236533Y0337360D01*
X0236136Y0336050D01*
X0235612Y0334785D01*
X0234967Y0333578D01*
X0234206Y0332439D01*
X0233337Y0331381D01*
X0232369Y0330413D01*
X0231311Y0329544D01*
X0230172Y0328783D01*
X0228965Y0328138D01*
X0227700Y0327614D01*
X0226390Y0327217D01*
X0225047Y0326950D01*
X0223685Y0326815D01*
X0223600Y0326815D01*
X0223600Y0340150D01*
X0223600Y0339922D02*
X0222400Y0339922D01*
X0222400Y0341120D02*
X0082135Y0341120D01*
X0082135Y0339922D02*
X0209079Y0339922D01*
X0209198Y0338723D02*
X0082090Y0338723D01*
X0082135Y0338889D02*
X0082135Y0342611D01*
X0081171Y0346206D01*
X0079311Y0349429D01*
X0076679Y0352061D01*
X0073456Y0353921D01*
X0069861Y0354885D01*
X0066139Y0354885D01*
X0062544Y0353921D01*
X0059321Y0352061D01*
X0056689Y0349429D01*
X0054829Y0346206D01*
X0053865Y0342611D01*
X0053865Y0338889D01*
X0054829Y0335294D01*
X0056689Y0332071D01*
X0059321Y0329439D01*
X0062544Y0327579D01*
X0066139Y0326615D01*
X0068502Y0326615D01*
X0068318Y0326432D01*
X0067100Y0323491D01*
X0067100Y0320309D01*
X0068318Y0317368D01*
X0070568Y0315118D01*
X0073509Y0313900D01*
X0076691Y0313900D01*
X0079632Y0315118D01*
X0081882Y0317368D01*
X0083100Y0320309D01*
X0083100Y0323491D01*
X0081882Y0326432D01*
X0079632Y0328682D01*
X0077008Y0329769D01*
X0079311Y0332071D01*
X0081171Y0335294D01*
X0082135Y0338889D01*
X0081769Y0337525D02*
X0209434Y0337525D01*
X0209780Y0336326D02*
X0081448Y0336326D01*
X0081075Y0335128D02*
X0210246Y0335128D01*
X0210845Y0333929D02*
X0080383Y0333929D01*
X0079691Y0332731D02*
X0211599Y0332731D01*
X0212538Y0331532D02*
X0078772Y0331532D01*
X0077573Y0330334D02*
X0213727Y0330334D01*
X0212463Y0329135D02*
X0078537Y0329135D01*
X0080377Y0327937D02*
X0210623Y0327937D01*
X0209425Y0326738D02*
X0081575Y0326738D01*
X0082252Y0325540D02*
X0208748Y0325540D01*
X0208252Y0324341D02*
X0082748Y0324341D01*
X0083100Y0323143D02*
X0207900Y0323143D01*
X0207900Y0321944D02*
X0083100Y0321944D01*
X0083100Y0320746D02*
X0207900Y0320746D01*
X0208215Y0319547D02*
X0082785Y0319547D01*
X0082288Y0318349D02*
X0208712Y0318349D01*
X0209336Y0317150D02*
X0081664Y0317150D01*
X0080465Y0315952D02*
X0210535Y0315952D01*
X0212249Y0314753D02*
X0078751Y0314753D01*
X0071449Y0314753D02*
X0040100Y0314753D01*
X0040100Y0313555D02*
X0250821Y0313555D01*
X0250821Y0314753D02*
X0219551Y0314753D01*
X0221265Y0315952D02*
X0250821Y0315952D01*
X0250821Y0317150D02*
X0222464Y0317150D01*
X0223088Y0318349D02*
X0250821Y0318349D01*
X0250821Y0319547D02*
X0223585Y0319547D01*
X0223900Y0320746D02*
X0250821Y0320746D01*
X0250821Y0321944D02*
X0223900Y0321944D01*
X0223900Y0323143D02*
X0250821Y0323143D01*
X0250821Y0324341D02*
X0223548Y0324341D01*
X0223052Y0325540D02*
X0250821Y0325540D01*
X0250821Y0326738D02*
X0222375Y0326738D01*
X0222400Y0327937D02*
X0223600Y0327937D01*
X0223600Y0329135D02*
X0222400Y0329135D01*
X0222400Y0330334D02*
X0223600Y0330334D01*
X0223600Y0331532D02*
X0222400Y0331532D01*
X0222400Y0332731D02*
X0223600Y0332731D01*
X0223600Y0333929D02*
X0222400Y0333929D01*
X0222400Y0335128D02*
X0223600Y0335128D01*
X0223600Y0336326D02*
X0222400Y0336326D01*
X0222400Y0337525D02*
X0223600Y0337525D01*
X0223600Y0338723D02*
X0222400Y0338723D01*
X0222400Y0342319D02*
X0223600Y0342319D01*
X0223600Y0343517D02*
X0222400Y0343517D01*
X0222400Y0344716D02*
X0223600Y0344716D01*
X0223600Y0345914D02*
X0222400Y0345914D01*
X0222400Y0347113D02*
X0223600Y0347113D01*
X0223600Y0348311D02*
X0222400Y0348311D01*
X0222400Y0349510D02*
X0223600Y0349510D01*
X0223600Y0350708D02*
X0222400Y0350708D01*
X0222400Y0351907D02*
X0223600Y0351907D01*
X0223600Y0353105D02*
X0222400Y0353105D01*
X0222400Y0354304D02*
X0223600Y0354304D01*
X0219714Y0354304D02*
X0072028Y0354304D01*
X0071390Y0356717D02*
X0070047Y0356450D01*
X0068685Y0356315D01*
X0068600Y0356315D01*
X0068600Y0369650D01*
X0081935Y0369650D01*
X0081935Y0369565D01*
X0081800Y0368203D01*
X0081533Y0366860D01*
X0081136Y0365550D01*
X0080612Y0364285D01*
X0079967Y0363078D01*
X0079206Y0361939D01*
X0078337Y0360881D01*
X0077369Y0359913D01*
X0076311Y0359044D01*
X0075172Y0358283D01*
X0073965Y0357638D01*
X0072700Y0357114D01*
X0071390Y0356717D01*
X0071311Y0356701D02*
X0218953Y0356701D01*
X0216122Y0357900D02*
X0074454Y0357900D01*
X0076377Y0359098D02*
X0214163Y0359098D01*
X0212964Y0360297D02*
X0077753Y0360297D01*
X0078841Y0361495D02*
X0211766Y0361495D01*
X0211041Y0362694D02*
X0079710Y0362694D01*
X0080402Y0363892D02*
X0210349Y0363892D01*
X0209749Y0365091D02*
X0080946Y0365091D01*
X0081360Y0366289D02*
X0209428Y0366289D01*
X0209107Y0367488D02*
X0081658Y0367488D01*
X0081848Y0368686D02*
X0208865Y0368686D01*
X0216555Y0353105D02*
X0074869Y0353105D01*
X0076832Y0351907D02*
X0214630Y0351907D01*
X0213252Y0350708D02*
X0078031Y0350708D01*
X0079229Y0349510D02*
X0212163Y0349510D01*
X0211293Y0348311D02*
X0079956Y0348311D01*
X0080648Y0347113D02*
X0210601Y0347113D01*
X0210056Y0345914D02*
X0081249Y0345914D01*
X0081571Y0344716D02*
X0209641Y0344716D01*
X0209343Y0343517D02*
X0081892Y0343517D01*
X0082135Y0342319D02*
X0209152Y0342319D01*
X0228479Y0327937D02*
X0250821Y0327937D01*
X0250821Y0329135D02*
X0230699Y0329135D01*
X0232273Y0330334D02*
X0250821Y0330334D01*
X0250821Y0331532D02*
X0233462Y0331532D01*
X0234401Y0332731D02*
X0250821Y0332731D01*
X0250821Y0333929D02*
X0235155Y0333929D01*
X0235754Y0335128D02*
X0250821Y0335128D01*
X0250821Y0336326D02*
X0236220Y0336326D01*
X0236566Y0337525D02*
X0250821Y0337525D01*
X0250821Y0338723D02*
X0236802Y0338723D01*
X0236920Y0339922D02*
X0250821Y0339922D01*
X0250821Y0355503D02*
X0040100Y0355503D01*
X0040100Y0356701D02*
X0064689Y0356701D01*
X0063972Y0354304D02*
X0040100Y0354304D01*
X0040100Y0353105D02*
X0061131Y0353105D01*
X0059168Y0351907D02*
X0040100Y0351907D01*
X0040100Y0350708D02*
X0057969Y0350708D01*
X0056771Y0349510D02*
X0040100Y0349510D01*
X0040100Y0348311D02*
X0056044Y0348311D01*
X0055352Y0347113D02*
X0040100Y0347113D01*
X0040100Y0345914D02*
X0054751Y0345914D01*
X0054429Y0344716D02*
X0040100Y0344716D01*
X0040100Y0343517D02*
X0054108Y0343517D01*
X0053865Y0342319D02*
X0040100Y0342319D01*
X0040100Y0341120D02*
X0053865Y0341120D01*
X0053865Y0339922D02*
X0040100Y0339922D01*
X0040100Y0338723D02*
X0053910Y0338723D01*
X0054231Y0337525D02*
X0040100Y0337525D01*
X0040100Y0336326D02*
X0054552Y0336326D01*
X0054925Y0335128D02*
X0040100Y0335128D01*
X0040100Y0333929D02*
X0055617Y0333929D01*
X0056309Y0332731D02*
X0040100Y0332731D01*
X0040100Y0331532D02*
X0057228Y0331532D01*
X0058427Y0330334D02*
X0040100Y0330334D01*
X0040100Y0329135D02*
X0059848Y0329135D01*
X0061924Y0327937D02*
X0040100Y0327937D01*
X0040100Y0326738D02*
X0065680Y0326738D01*
X0067948Y0325540D02*
X0040100Y0325540D01*
X0040100Y0324341D02*
X0067452Y0324341D01*
X0067100Y0323143D02*
X0040100Y0323143D01*
X0040100Y0321944D02*
X0067100Y0321944D01*
X0067100Y0320746D02*
X0040100Y0320746D01*
X0040100Y0319547D02*
X0067415Y0319547D01*
X0067912Y0318349D02*
X0040100Y0318349D01*
X0040100Y0317150D02*
X0068536Y0317150D01*
X0069735Y0315952D02*
X0040100Y0315952D01*
X0040100Y0312356D02*
X0250821Y0312356D01*
X0250821Y0311158D02*
X0040100Y0311158D01*
X0040100Y0309959D02*
X0250821Y0309959D01*
X0250821Y0308761D02*
X0040100Y0308761D01*
X0040100Y0307562D02*
X0250821Y0307562D01*
X0250821Y0306364D02*
X0040100Y0306364D01*
X0040100Y0305165D02*
X0250821Y0305165D01*
X0250821Y0303967D02*
X0040100Y0303967D01*
X0040100Y0302768D02*
X0250821Y0302768D01*
X0250821Y0301570D02*
X0040100Y0301570D01*
X0040100Y0300371D02*
X0250821Y0300371D01*
X0250821Y0299172D02*
X0040100Y0299172D01*
X0040100Y0297974D02*
X0250821Y0297974D01*
X0250821Y0296775D02*
X0040100Y0296775D01*
X0040100Y0295577D02*
X0250821Y0295577D01*
X0250821Y0294378D02*
X0040100Y0294378D01*
X0040100Y0293180D02*
X0250821Y0293180D01*
X0250821Y0291981D02*
X0040100Y0291981D01*
X0040100Y0290783D02*
X0050293Y0290783D01*
X0050787Y0291276D02*
X0047657Y0288146D01*
X0047657Y0283720D01*
X0050787Y0280590D01*
X0055213Y0280590D01*
X0058343Y0283720D01*
X0058343Y0288146D01*
X0055213Y0291276D01*
X0050787Y0291276D01*
X0049095Y0289584D02*
X0040100Y0289584D01*
X0040100Y0288386D02*
X0047896Y0288386D01*
X0047657Y0287187D02*
X0040100Y0287187D01*
X0040100Y0285989D02*
X0047657Y0285989D01*
X0047657Y0284790D02*
X0040100Y0284790D01*
X0040100Y0283592D02*
X0047785Y0283592D01*
X0048983Y0282393D02*
X0040100Y0282393D01*
X0040100Y0281195D02*
X0050182Y0281195D01*
X0055818Y0281195D02*
X0250821Y0281195D01*
X0250821Y0282393D02*
X0057017Y0282393D01*
X0058215Y0283592D02*
X0250821Y0283592D01*
X0250821Y0284790D02*
X0058343Y0284790D01*
X0058343Y0285989D02*
X0250821Y0285989D01*
X0250821Y0287187D02*
X0058343Y0287187D01*
X0058104Y0288386D02*
X0250821Y0288386D01*
X0250821Y0289584D02*
X0056905Y0289584D01*
X0055707Y0290783D02*
X0250821Y0290783D01*
X0250821Y0279996D02*
X0040100Y0279996D01*
X0040100Y0278798D02*
X0250821Y0278798D01*
X0250821Y0277599D02*
X0040100Y0277599D01*
X0040100Y0276401D02*
X0250821Y0276401D01*
X0250821Y0275202D02*
X0040100Y0275202D01*
X0040100Y0274004D02*
X0250821Y0274004D01*
X0250821Y0272805D02*
X0040100Y0272805D01*
X0040100Y0271607D02*
X0250821Y0271607D01*
X0250821Y0270408D02*
X0040100Y0270408D01*
X0040100Y0269210D02*
X0047961Y0269210D01*
X0047966Y0269228D02*
X0047857Y0268821D01*
X0047857Y0265648D01*
X0052419Y0265648D01*
X0052419Y0270210D01*
X0049246Y0270210D01*
X0048839Y0270101D01*
X0048474Y0269891D01*
X0048176Y0269593D01*
X0047966Y0269228D01*
X0047857Y0268011D02*
X0040100Y0268011D01*
X0040100Y0266813D02*
X0047857Y0266813D01*
X0047857Y0264486D02*
X0047857Y0261313D01*
X0047966Y0260906D01*
X0048176Y0260541D01*
X0048474Y0260243D01*
X0048839Y0260033D01*
X0049246Y0259924D01*
X0052419Y0259924D01*
X0052419Y0264486D01*
X0047857Y0264486D01*
X0047857Y0264416D02*
X0040100Y0264416D01*
X0040100Y0265614D02*
X0052419Y0265614D01*
X0052419Y0265648D02*
X0052419Y0264486D01*
X0053581Y0264486D01*
X0053581Y0265648D01*
X0052419Y0265648D01*
X0053581Y0265648D02*
X0053581Y0270210D01*
X0056754Y0270210D01*
X0057161Y0270101D01*
X0057526Y0269891D01*
X0057824Y0269593D01*
X0058034Y0269228D01*
X0058143Y0268821D01*
X0058143Y0265648D01*
X0053581Y0265648D01*
X0053581Y0265614D02*
X0250821Y0265614D01*
X0250821Y0264416D02*
X0058143Y0264416D01*
X0058143Y0264486D02*
X0053581Y0264486D01*
X0053581Y0259924D01*
X0056754Y0259924D01*
X0057161Y0260033D01*
X0057526Y0260243D01*
X0057824Y0260541D01*
X0058034Y0260906D01*
X0058143Y0261313D01*
X0058143Y0264486D01*
X0058143Y0263217D02*
X0250821Y0263217D01*
X0250821Y0262019D02*
X0058143Y0262019D01*
X0057985Y0260820D02*
X0250821Y0260820D01*
X0250821Y0259622D02*
X0121447Y0259622D01*
X0121704Y0259365D02*
X0121030Y0260039D01*
X0119713Y0260584D01*
X0118287Y0260584D01*
X0116970Y0260039D01*
X0115961Y0259030D01*
X0115416Y0257713D01*
X0115416Y0256287D01*
X0115961Y0254970D01*
X0116970Y0253961D01*
X0118287Y0253416D01*
X0119713Y0253416D01*
X0121030Y0253961D01*
X0121253Y0254184D01*
X0123327Y0253996D01*
X0143296Y0234027D01*
X0144027Y0233296D01*
X0144983Y0232900D01*
X0152414Y0232900D01*
X0152211Y0232698D01*
X0151620Y0231272D01*
X0151620Y0229728D01*
X0152211Y0228302D01*
X0152231Y0228283D01*
X0151270Y0225400D01*
X0141494Y0225400D01*
X0129359Y0237535D01*
X0128477Y0237900D01*
X0096494Y0237900D01*
X0095400Y0238994D01*
X0095400Y0240170D01*
X0097989Y0249418D01*
X0098698Y0249711D01*
X0099789Y0250802D01*
X0100380Y0252228D01*
X0100380Y0253772D01*
X0099789Y0255198D01*
X0098698Y0256289D01*
X0097272Y0256880D01*
X0095728Y0256880D01*
X0094302Y0256289D01*
X0093211Y0255198D01*
X0092620Y0253772D01*
X0092620Y0252228D01*
X0093211Y0250802D01*
X0093353Y0250661D01*
X0090728Y0241286D01*
X0090600Y0240977D01*
X0090600Y0240830D01*
X0090560Y0240687D01*
X0090600Y0240356D01*
X0090600Y0237523D01*
X0090965Y0236641D01*
X0093465Y0234141D01*
X0094141Y0233465D01*
X0095023Y0233100D01*
X0127006Y0233100D01*
X0138465Y0221641D01*
X0139141Y0220965D01*
X0140023Y0220600D01*
X0152611Y0220600D01*
X0152694Y0220572D01*
X0153085Y0220600D01*
X0153477Y0220600D01*
X0153559Y0220634D01*
X0153646Y0220640D01*
X0153997Y0220815D01*
X0154359Y0220965D01*
X0154422Y0221028D01*
X0154500Y0221067D01*
X0154757Y0221363D01*
X0155035Y0221641D01*
X0155068Y0221722D01*
X0155126Y0221788D01*
X0155250Y0222160D01*
X0155400Y0222523D01*
X0155400Y0222611D01*
X0156811Y0226844D01*
X0157698Y0227211D01*
X0158789Y0228302D01*
X0158857Y0228466D01*
X0160400Y0226923D01*
X0160400Y0197973D01*
X0159959Y0197532D01*
X0159413Y0196214D01*
X0159413Y0194786D01*
X0159959Y0193468D01*
X0160968Y0192459D01*
X0162286Y0191913D01*
X0163714Y0191913D01*
X0165032Y0192459D01*
X0166041Y0193468D01*
X0166587Y0194786D01*
X0166587Y0196214D01*
X0166041Y0197532D01*
X0165600Y0197973D01*
X0165600Y0228517D01*
X0165204Y0229473D01*
X0164473Y0230204D01*
X0156973Y0237704D01*
X0156017Y0238100D01*
X0146577Y0238100D01*
X0126422Y0258255D01*
X0126166Y0258562D01*
X0126059Y0258618D01*
X0125973Y0258704D01*
X0125604Y0258857D01*
X0125250Y0259042D01*
X0125129Y0259053D01*
X0125017Y0259100D01*
X0124618Y0259100D01*
X0121704Y0259365D01*
X0126282Y0258423D02*
X0250821Y0258423D01*
X0250821Y0257225D02*
X0127452Y0257225D01*
X0128651Y0256026D02*
X0250821Y0256026D01*
X0250821Y0254828D02*
X0129849Y0254828D01*
X0131048Y0253629D02*
X0250821Y0253629D01*
X0250821Y0252431D02*
X0132246Y0252431D01*
X0133445Y0251232D02*
X0250821Y0251232D01*
X0250821Y0250034D02*
X0239521Y0250034D01*
X0239286Y0250268D02*
X0235336Y0250268D01*
X0232543Y0247475D01*
X0232543Y0243525D01*
X0235336Y0240731D01*
X0239286Y0240731D01*
X0242080Y0243525D01*
X0242080Y0247475D01*
X0239286Y0250268D01*
X0240720Y0248835D02*
X0250821Y0248835D01*
X0250821Y0247637D02*
X0241918Y0247637D01*
X0242080Y0246438D02*
X0250821Y0246438D01*
X0250821Y0245239D02*
X0242080Y0245239D01*
X0242080Y0244041D02*
X0250821Y0244041D01*
X0250821Y0242842D02*
X0241397Y0242842D01*
X0240199Y0241644D02*
X0250821Y0241644D01*
X0250821Y0240445D02*
X0144231Y0240445D01*
X0143033Y0241644D02*
X0209062Y0241644D01*
X0208920Y0241786D02*
X0209975Y0240731D01*
X0217403Y0240731D01*
X0218457Y0241786D01*
X0218457Y0249214D01*
X0217403Y0250268D01*
X0209975Y0250268D01*
X0208920Y0249214D01*
X0208920Y0241786D01*
X0208920Y0242842D02*
X0141834Y0242842D01*
X0140636Y0244041D02*
X0208920Y0244041D01*
X0208920Y0245239D02*
X0139437Y0245239D01*
X0138239Y0246438D02*
X0208920Y0246438D01*
X0208920Y0247637D02*
X0137040Y0247637D01*
X0135842Y0248835D02*
X0208920Y0248835D01*
X0209740Y0250034D02*
X0134643Y0250034D01*
X0130885Y0246438D02*
X0097155Y0246438D01*
X0097491Y0247637D02*
X0129687Y0247637D01*
X0128488Y0248835D02*
X0097826Y0248835D01*
X0099020Y0250034D02*
X0127290Y0250034D01*
X0126091Y0251232D02*
X0099967Y0251232D01*
X0100380Y0252431D02*
X0124892Y0252431D01*
X0123694Y0253629D02*
X0120228Y0253629D01*
X0117772Y0253629D02*
X0100380Y0253629D01*
X0099942Y0254828D02*
X0116104Y0254828D01*
X0115524Y0256026D02*
X0098960Y0256026D01*
X0096500Y0253000D02*
X0093000Y0240500D01*
X0093000Y0238000D01*
X0095500Y0235500D01*
X0128000Y0235500D01*
X0140500Y0223000D01*
X0153000Y0223000D01*
X0155500Y0230500D01*
X0158854Y0228460D02*
X0158863Y0228460D01*
X0157748Y0227262D02*
X0160061Y0227262D01*
X0160400Y0226063D02*
X0156551Y0226063D01*
X0156151Y0224865D02*
X0160400Y0224865D01*
X0160400Y0223666D02*
X0155752Y0223666D01*
X0155377Y0222468D02*
X0160400Y0222468D01*
X0160400Y0221269D02*
X0154676Y0221269D01*
X0151491Y0226063D02*
X0140831Y0226063D01*
X0139632Y0227262D02*
X0151891Y0227262D01*
X0152146Y0228460D02*
X0138434Y0228460D01*
X0137235Y0229659D02*
X0151649Y0229659D01*
X0151620Y0230857D02*
X0136037Y0230857D01*
X0134838Y0232056D02*
X0151945Y0232056D01*
X0156142Y0238048D02*
X0250821Y0238048D01*
X0250821Y0236850D02*
X0157827Y0236850D01*
X0159026Y0235651D02*
X0250821Y0235651D01*
X0250821Y0234453D02*
X0160224Y0234453D01*
X0161423Y0233254D02*
X0250821Y0233254D01*
X0250821Y0232056D02*
X0162621Y0232056D01*
X0163820Y0230857D02*
X0250821Y0230857D01*
X0250821Y0229659D02*
X0165018Y0229659D01*
X0165600Y0228460D02*
X0250821Y0228460D01*
X0250821Y0227262D02*
X0165600Y0227262D01*
X0165600Y0226063D02*
X0250821Y0226063D01*
X0250821Y0224865D02*
X0165600Y0224865D01*
X0165600Y0223666D02*
X0250821Y0223666D01*
X0250821Y0222468D02*
X0165600Y0222468D01*
X0165600Y0221269D02*
X0250821Y0221269D01*
X0250821Y0220071D02*
X0165600Y0220071D01*
X0165600Y0218872D02*
X0250821Y0218872D01*
X0250821Y0217674D02*
X0165600Y0217674D01*
X0165600Y0216475D02*
X0250821Y0216475D01*
X0250821Y0215277D02*
X0165600Y0215277D01*
X0165600Y0214078D02*
X0250821Y0214078D01*
X0250821Y0212880D02*
X0165600Y0212880D01*
X0165600Y0211681D02*
X0250821Y0211681D01*
X0250821Y0210483D02*
X0165600Y0210483D01*
X0165600Y0209284D02*
X0250821Y0209284D01*
X0250821Y0208086D02*
X0165600Y0208086D01*
X0165600Y0206887D02*
X0250821Y0206887D01*
X0250821Y0205689D02*
X0165600Y0205689D01*
X0165600Y0204490D02*
X0250821Y0204490D01*
X0250821Y0203292D02*
X0165600Y0203292D01*
X0165600Y0202093D02*
X0250821Y0202093D01*
X0250821Y0200895D02*
X0165600Y0200895D01*
X0165600Y0199696D02*
X0250821Y0199696D01*
X0250821Y0198498D02*
X0165600Y0198498D01*
X0166138Y0197299D02*
X0250821Y0197299D01*
X0250821Y0196101D02*
X0166587Y0196101D01*
X0166587Y0194902D02*
X0250821Y0194902D01*
X0250821Y0193703D02*
X0166139Y0193703D01*
X0165078Y0192505D02*
X0250821Y0192505D01*
X0250821Y0191306D02*
X0040100Y0191306D01*
X0040100Y0190108D02*
X0250821Y0190108D01*
X0250821Y0188909D02*
X0040100Y0188909D01*
X0040100Y0187711D02*
X0160420Y0187711D01*
X0160369Y0187659D02*
X0159998Y0187105D01*
X0159743Y0186488D01*
X0159613Y0185834D01*
X0159613Y0185500D01*
X0159613Y0185166D01*
X0159743Y0184512D01*
X0159998Y0183895D01*
X0160369Y0183341D01*
X0160841Y0182869D01*
X0161395Y0182498D01*
X0162012Y0182243D01*
X0162666Y0182113D01*
X0163000Y0182113D01*
X0163334Y0182113D01*
X0163988Y0182243D01*
X0164605Y0182498D01*
X0165159Y0182869D01*
X0165631Y0183341D01*
X0166002Y0183895D01*
X0166257Y0184512D01*
X0166387Y0185166D01*
X0166387Y0185500D01*
X0166387Y0185834D01*
X0166257Y0186488D01*
X0166002Y0187105D01*
X0165631Y0187659D01*
X0165159Y0188131D01*
X0164605Y0188502D01*
X0163988Y0188757D01*
X0163334Y0188887D01*
X0163000Y0188887D01*
X0163000Y0185500D01*
X0163000Y0185500D01*
X0166387Y0185500D01*
X0163000Y0185500D01*
X0163000Y0185500D01*
X0163000Y0185500D01*
X0159613Y0185500D01*
X0163000Y0185500D01*
X0163000Y0188887D01*
X0162666Y0188887D01*
X0162012Y0188757D01*
X0161395Y0188502D01*
X0160841Y0188131D01*
X0160369Y0187659D01*
X0159753Y0186512D02*
X0040100Y0186512D01*
X0040100Y0185314D02*
X0159613Y0185314D01*
X0159907Y0184115D02*
X0040100Y0184115D01*
X0040100Y0182917D02*
X0068143Y0182917D01*
X0068370Y0183143D02*
X0065357Y0180130D01*
X0065357Y0178581D01*
X0069919Y0178581D01*
X0069919Y0183143D01*
X0068370Y0183143D01*
X0069919Y0182917D02*
X0071081Y0182917D01*
X0071081Y0183143D02*
X0071081Y0178581D01*
X0069919Y0178581D01*
X0069919Y0177419D01*
X0071081Y0177419D01*
X0071081Y0172857D01*
X0072630Y0172857D01*
X0075359Y0175585D01*
X0078287Y0172657D01*
X0082713Y0172657D01*
X0085843Y0175787D01*
X0085843Y0180213D01*
X0082713Y0183343D01*
X0078287Y0183343D01*
X0075359Y0180415D01*
X0072630Y0183143D01*
X0071081Y0183143D01*
X0071081Y0181718D02*
X0069919Y0181718D01*
X0069919Y0180520D02*
X0071081Y0180520D01*
X0071081Y0179321D02*
X0069919Y0179321D01*
X0069919Y0178123D02*
X0040100Y0178123D01*
X0040100Y0179321D02*
X0065357Y0179321D01*
X0065746Y0180520D02*
X0040100Y0180520D01*
X0040100Y0181718D02*
X0066945Y0181718D01*
X0065357Y0177419D02*
X0065357Y0175870D01*
X0068370Y0172857D01*
X0069919Y0172857D01*
X0069919Y0177419D01*
X0065357Y0177419D01*
X0065357Y0176924D02*
X0040100Y0176924D01*
X0040100Y0175726D02*
X0065500Y0175726D01*
X0066699Y0174527D02*
X0040100Y0174527D01*
X0040100Y0173329D02*
X0067897Y0173329D01*
X0069919Y0173329D02*
X0071081Y0173329D01*
X0071081Y0174527D02*
X0069919Y0174527D01*
X0069919Y0175726D02*
X0071081Y0175726D01*
X0071081Y0176924D02*
X0069919Y0176924D01*
X0073103Y0173329D02*
X0077615Y0173329D01*
X0076416Y0174527D02*
X0074301Y0174527D01*
X0075254Y0180520D02*
X0075463Y0180520D01*
X0076662Y0181718D02*
X0074055Y0181718D01*
X0072857Y0182917D02*
X0077860Y0182917D01*
X0083140Y0182917D02*
X0160793Y0182917D01*
X0163000Y0182917D02*
X0163000Y0182917D01*
X0163000Y0182113D02*
X0163000Y0185500D01*
X0163000Y0185500D01*
X0163000Y0182113D01*
X0163000Y0184115D02*
X0163000Y0184115D01*
X0163000Y0185314D02*
X0163000Y0185314D01*
X0163000Y0186512D02*
X0163000Y0186512D01*
X0163000Y0187711D02*
X0163000Y0187711D01*
X0165580Y0187711D02*
X0250821Y0187711D01*
X0250821Y0186512D02*
X0166247Y0186512D01*
X0166387Y0185314D02*
X0250821Y0185314D01*
X0250821Y0184115D02*
X0166093Y0184115D01*
X0165207Y0182917D02*
X0250821Y0182917D01*
X0250821Y0181718D02*
X0084338Y0181718D01*
X0085537Y0180520D02*
X0250821Y0180520D01*
X0250821Y0179321D02*
X0085843Y0179321D01*
X0085843Y0178123D02*
X0250821Y0178123D01*
X0250821Y0176924D02*
X0085843Y0176924D01*
X0085782Y0175726D02*
X0250821Y0175726D01*
X0250821Y0174527D02*
X0084584Y0174527D01*
X0083385Y0173329D02*
X0250821Y0173329D01*
X0250821Y0172130D02*
X0040100Y0172130D01*
X0040100Y0170932D02*
X0250821Y0170932D01*
X0250821Y0169733D02*
X0229508Y0169733D01*
X0228985Y0169950D02*
X0227015Y0169950D01*
X0225196Y0169196D01*
X0223804Y0167804D01*
X0223050Y0165985D01*
X0223050Y0164015D01*
X0223804Y0162196D01*
X0225196Y0160804D01*
X0227015Y0160050D01*
X0228985Y0160050D01*
X0230804Y0160804D01*
X0232196Y0162196D01*
X0232950Y0164015D01*
X0232950Y0165985D01*
X0232196Y0167804D01*
X0230804Y0169196D01*
X0228985Y0169950D01*
X0226492Y0169733D02*
X0040100Y0169733D01*
X0040100Y0168535D02*
X0224534Y0168535D01*
X0223610Y0167336D02*
X0040100Y0167336D01*
X0040100Y0166138D02*
X0223113Y0166138D01*
X0223050Y0164939D02*
X0040100Y0164939D01*
X0040100Y0163741D02*
X0223164Y0163741D01*
X0223660Y0162542D02*
X0040100Y0162542D01*
X0040100Y0161344D02*
X0224656Y0161344D01*
X0226786Y0160145D02*
X0040100Y0160145D01*
X0040100Y0158947D02*
X0250821Y0158947D01*
X0250821Y0160145D02*
X0229214Y0160145D01*
X0231344Y0161344D02*
X0250821Y0161344D01*
X0250821Y0162542D02*
X0232340Y0162542D01*
X0232836Y0163741D02*
X0250821Y0163741D01*
X0250821Y0164939D02*
X0232950Y0164939D01*
X0232887Y0166138D02*
X0250821Y0166138D01*
X0250821Y0167336D02*
X0232390Y0167336D01*
X0231466Y0168535D02*
X0250821Y0168535D01*
X0250821Y0157748D02*
X0040100Y0157748D01*
X0040100Y0156550D02*
X0250821Y0156550D01*
X0250821Y0155351D02*
X0230366Y0155351D01*
X0229968Y0155750D02*
X0228200Y0155750D01*
X0228200Y0151200D01*
X0227800Y0151200D01*
X0227800Y0155750D01*
X0226032Y0155750D01*
X0223250Y0152968D01*
X0223250Y0151200D01*
X0227800Y0151200D01*
X0227800Y0150800D01*
X0223250Y0150800D01*
X0223250Y0149032D01*
X0226032Y0146250D01*
X0227800Y0146250D01*
X0227800Y0150800D01*
X0228200Y0150800D01*
X0228200Y0151200D01*
X0232750Y0151200D01*
X0232750Y0152968D01*
X0229968Y0155750D01*
X0228200Y0155351D02*
X0227800Y0155351D01*
X0227800Y0154153D02*
X0228200Y0154153D01*
X0228200Y0152954D02*
X0227800Y0152954D01*
X0227800Y0151756D02*
X0228200Y0151756D01*
X0228200Y0150800D02*
X0232750Y0150800D01*
X0232750Y0149032D01*
X0229968Y0146250D01*
X0228200Y0146250D01*
X0228200Y0150800D01*
X0228200Y0150557D02*
X0227800Y0150557D01*
X0227800Y0149359D02*
X0228200Y0149359D01*
X0228200Y0148160D02*
X0227800Y0148160D01*
X0227800Y0146962D02*
X0228200Y0146962D01*
X0230679Y0146962D02*
X0250821Y0146962D01*
X0250821Y0148160D02*
X0231878Y0148160D01*
X0232750Y0149359D02*
X0250821Y0149359D01*
X0250821Y0150557D02*
X0232750Y0150557D01*
X0232750Y0151756D02*
X0250821Y0151756D01*
X0250821Y0152954D02*
X0232750Y0152954D01*
X0231565Y0154153D02*
X0250821Y0154153D01*
X0250821Y0145763D02*
X0040100Y0145763D01*
X0040100Y0144565D02*
X0250821Y0144565D01*
X0250821Y0143366D02*
X0040100Y0143366D01*
X0040100Y0142168D02*
X0250821Y0142168D01*
X0250821Y0140969D02*
X0040100Y0140969D01*
X0040100Y0139770D02*
X0250821Y0139770D01*
X0250821Y0138572D02*
X0040100Y0138572D01*
X0040100Y0137373D02*
X0250821Y0137373D01*
X0250821Y0136175D02*
X0040100Y0136175D01*
X0040100Y0134976D02*
X0250821Y0134976D01*
X0250821Y0133778D02*
X0040100Y0133778D01*
X0040100Y0132579D02*
X0250821Y0132579D01*
X0250821Y0131381D02*
X0040100Y0131381D01*
X0040100Y0130182D02*
X0250821Y0130182D01*
X0250821Y0128984D02*
X0040100Y0128984D01*
X0040100Y0127785D02*
X0250821Y0127785D01*
X0250821Y0126587D02*
X0040100Y0126587D01*
X0040100Y0125388D02*
X0250821Y0125388D01*
X0250821Y0124190D02*
X0040100Y0124190D01*
X0040100Y0122991D02*
X0250821Y0122991D01*
X0250821Y0121793D02*
X0040100Y0121793D01*
X0040100Y0120594D02*
X0250821Y0120594D01*
X0250821Y0119396D02*
X0040100Y0119396D01*
X0040100Y0118197D02*
X0250821Y0118197D01*
X0250821Y0116999D02*
X0040100Y0116999D01*
X0040100Y0115800D02*
X0250821Y0115800D01*
X0250821Y0114602D02*
X0040100Y0114602D01*
X0040100Y0113403D02*
X0250821Y0113403D01*
X0250821Y0112205D02*
X0040100Y0112205D01*
X0040100Y0111006D02*
X0250821Y0111006D01*
X0250821Y0109808D02*
X0040100Y0109808D01*
X0040100Y0108609D02*
X0250821Y0108609D01*
X0250821Y0107411D02*
X0158363Y0107411D01*
X0157630Y0108143D02*
X0156081Y0108143D01*
X0156081Y0103581D01*
X0160643Y0103581D01*
X0160643Y0105130D01*
X0157630Y0108143D01*
X0156081Y0107411D02*
X0154919Y0107411D01*
X0154919Y0108143D02*
X0153370Y0108143D01*
X0150641Y0105415D01*
X0147713Y0108343D01*
X0143287Y0108343D01*
X0140157Y0105213D01*
X0140157Y0100787D01*
X0143287Y0097657D01*
X0147713Y0097657D01*
X0150641Y0100585D01*
X0153370Y0097857D01*
X0154919Y0097857D01*
X0154919Y0102419D01*
X0156081Y0102419D01*
X0156081Y0103581D01*
X0154919Y0103581D01*
X0154919Y0108143D01*
X0154919Y0106212D02*
X0156081Y0106212D01*
X0156081Y0105014D02*
X0154919Y0105014D01*
X0154919Y0103815D02*
X0156081Y0103815D01*
X0156081Y0102617D02*
X0250821Y0102617D01*
X0250821Y0103815D02*
X0160643Y0103815D01*
X0160643Y0105014D02*
X0250821Y0105014D01*
X0250821Y0106212D02*
X0159562Y0106212D01*
X0160643Y0102419D02*
X0156081Y0102419D01*
X0156081Y0097857D01*
X0157630Y0097857D01*
X0160643Y0100870D01*
X0160643Y0102419D01*
X0160643Y0101418D02*
X0250821Y0101418D01*
X0250821Y0100220D02*
X0159993Y0100220D01*
X0158795Y0099021D02*
X0250821Y0099021D01*
X0250821Y0097823D02*
X0147879Y0097823D01*
X0149078Y0099021D02*
X0152205Y0099021D01*
X0151007Y0100220D02*
X0150276Y0100220D01*
X0154919Y0100220D02*
X0156081Y0100220D01*
X0156081Y0101418D02*
X0154919Y0101418D01*
X0154919Y0099021D02*
X0156081Y0099021D01*
X0151438Y0106212D02*
X0149844Y0106212D01*
X0148646Y0107411D02*
X0152637Y0107411D01*
X0142354Y0107411D02*
X0040100Y0107411D01*
X0040100Y0106212D02*
X0141156Y0106212D01*
X0140157Y0105014D02*
X0040100Y0105014D01*
X0040100Y0103815D02*
X0140157Y0103815D01*
X0140157Y0102617D02*
X0040100Y0102617D01*
X0040100Y0101418D02*
X0140157Y0101418D01*
X0140724Y0100220D02*
X0040100Y0100220D01*
X0040100Y0099021D02*
X0141922Y0099021D01*
X0143121Y0097823D02*
X0040100Y0097823D01*
X0040100Y0096624D02*
X0250821Y0096624D01*
X0250821Y0095426D02*
X0040100Y0095426D01*
X0040100Y0094227D02*
X0250821Y0094227D01*
X0250821Y0093029D02*
X0040100Y0093029D01*
X0040100Y0091830D02*
X0250821Y0091830D01*
X0250821Y0090632D02*
X0040100Y0090632D01*
X0040100Y0089433D02*
X0250821Y0089433D01*
X0250821Y0088234D02*
X0040100Y0088234D01*
X0040100Y0087036D02*
X0250821Y0087036D01*
X0250821Y0085837D02*
X0040100Y0085837D01*
X0040100Y0084639D02*
X0250821Y0084639D01*
X0250821Y0083440D02*
X0040100Y0083440D01*
X0040100Y0082242D02*
X0250821Y0082242D01*
X0250821Y0081043D02*
X0040100Y0081043D01*
X0040100Y0079845D02*
X0250821Y0079845D01*
X0250821Y0078646D02*
X0040100Y0078646D01*
X0040100Y0077448D02*
X0056234Y0077448D01*
X0054868Y0076882D02*
X0052618Y0074632D01*
X0051400Y0071691D01*
X0051400Y0068509D01*
X0052618Y0065568D01*
X0054868Y0063318D01*
X0057809Y0062100D01*
X0060991Y0062100D01*
X0063932Y0063318D01*
X0064317Y0063704D01*
X0064315Y0063685D01*
X0064315Y0063600D01*
X0077650Y0063600D01*
X0077650Y0076935D01*
X0077565Y0076935D01*
X0076203Y0076800D01*
X0074860Y0076533D01*
X0073550Y0076136D01*
X0072285Y0075612D01*
X0071078Y0074967D01*
X0069939Y0074206D01*
X0068881Y0073337D01*
X0067913Y0072369D01*
X0067385Y0071727D01*
X0066182Y0074632D01*
X0063932Y0076882D01*
X0060991Y0078100D01*
X0057809Y0078100D01*
X0054868Y0076882D01*
X0054236Y0076249D02*
X0040100Y0076249D01*
X0040100Y0075051D02*
X0053037Y0075051D01*
X0052295Y0073852D02*
X0040100Y0073852D01*
X0040100Y0072654D02*
X0051799Y0072654D01*
X0051400Y0071455D02*
X0040100Y0071455D01*
X0040100Y0070257D02*
X0051400Y0070257D01*
X0051400Y0069058D02*
X0040100Y0069058D01*
X0040100Y0067860D02*
X0051669Y0067860D01*
X0052165Y0066661D02*
X0040100Y0066661D01*
X0040100Y0065463D02*
X0052723Y0065463D01*
X0053922Y0064264D02*
X0040100Y0064264D01*
X0040100Y0063066D02*
X0055477Y0063066D01*
X0063323Y0063066D02*
X0077650Y0063066D01*
X0077650Y0063600D02*
X0077650Y0062400D01*
X0078850Y0062400D01*
X0078850Y0063600D01*
X0092185Y0063600D01*
X0092185Y0063685D01*
X0092050Y0065047D01*
X0091783Y0066390D01*
X0091386Y0067700D01*
X0090862Y0068965D01*
X0090217Y0070172D01*
X0089456Y0071311D01*
X0088587Y0072369D01*
X0087619Y0073337D01*
X0086561Y0074206D01*
X0085422Y0074967D01*
X0084215Y0075612D01*
X0082950Y0076136D01*
X0081640Y0076533D01*
X0080297Y0076800D01*
X0078935Y0076935D01*
X0078850Y0076935D01*
X0078850Y0063600D01*
X0077650Y0063600D01*
X0077650Y0064264D02*
X0078850Y0064264D01*
X0078850Y0063066D02*
X0093615Y0063066D01*
X0093615Y0064264D02*
X0092128Y0064264D01*
X0091968Y0065463D02*
X0093777Y0065463D01*
X0093615Y0064861D02*
X0093615Y0061139D01*
X0094579Y0057544D01*
X0096439Y0054321D01*
X0099071Y0051689D01*
X0102294Y0049829D01*
X0105889Y0048865D01*
X0109611Y0048865D01*
X0113206Y0049829D01*
X0116429Y0051689D01*
X0119061Y0054321D01*
X0120921Y0057544D01*
X0121885Y0061139D01*
X0121885Y0063502D01*
X0122068Y0063318D01*
X0125009Y0062100D01*
X0128191Y0062100D01*
X0131132Y0063318D01*
X0133382Y0065568D01*
X0134600Y0068509D01*
X0134600Y0071691D01*
X0133382Y0074632D01*
X0131132Y0076882D01*
X0128191Y0078100D01*
X0125009Y0078100D01*
X0122068Y0076882D01*
X0119818Y0074632D01*
X0118731Y0072008D01*
X0116429Y0074311D01*
X0113206Y0076171D01*
X0109611Y0077135D01*
X0105889Y0077135D01*
X0102294Y0076171D01*
X0099071Y0074311D01*
X0096439Y0071679D01*
X0094579Y0068456D01*
X0093615Y0064861D01*
X0094098Y0066661D02*
X0091701Y0066661D01*
X0091320Y0067860D02*
X0094419Y0067860D01*
X0094926Y0069058D02*
X0090812Y0069058D01*
X0090160Y0070257D02*
X0095618Y0070257D01*
X0096310Y0071455D02*
X0089337Y0071455D01*
X0088303Y0072654D02*
X0097414Y0072654D01*
X0098613Y0073852D02*
X0086992Y0073852D01*
X0085265Y0075051D02*
X0100353Y0075051D01*
X0102585Y0076249D02*
X0082576Y0076249D01*
X0078850Y0076249D02*
X0077650Y0076249D01*
X0077650Y0075051D02*
X0078850Y0075051D01*
X0078850Y0073852D02*
X0077650Y0073852D01*
X0077650Y0072654D02*
X0078850Y0072654D01*
X0078850Y0071455D02*
X0077650Y0071455D01*
X0077650Y0070257D02*
X0078850Y0070257D01*
X0078850Y0069058D02*
X0077650Y0069058D01*
X0077650Y0067860D02*
X0078850Y0067860D01*
X0078850Y0066661D02*
X0077650Y0066661D01*
X0077650Y0065463D02*
X0078850Y0065463D01*
X0078850Y0062400D02*
X0092185Y0062400D01*
X0092185Y0062315D01*
X0092050Y0060953D01*
X0091783Y0059610D01*
X0091386Y0058300D01*
X0090862Y0057035D01*
X0090217Y0055828D01*
X0089456Y0054689D01*
X0088587Y0053631D01*
X0087619Y0052663D01*
X0086561Y0051794D01*
X0085422Y0051033D01*
X0084215Y0050388D01*
X0082950Y0049864D01*
X0081640Y0049467D01*
X0080297Y0049200D01*
X0078935Y0049065D01*
X0078850Y0049065D01*
X0078850Y0062400D01*
X0078850Y0061867D02*
X0077650Y0061867D01*
X0077650Y0062400D02*
X0077650Y0049065D01*
X0077565Y0049065D01*
X0076203Y0049200D01*
X0074860Y0049467D01*
X0073550Y0049864D01*
X0072285Y0050388D01*
X0071078Y0051033D01*
X0069939Y0051794D01*
X0068881Y0052663D01*
X0067913Y0053631D01*
X0067044Y0054689D01*
X0066283Y0055828D01*
X0065638Y0057035D01*
X0065114Y0058300D01*
X0064717Y0059610D01*
X0064450Y0060953D01*
X0064315Y0062315D01*
X0064315Y0062400D01*
X0077650Y0062400D01*
X0077650Y0060669D02*
X0078850Y0060669D01*
X0078850Y0059470D02*
X0077650Y0059470D01*
X0077650Y0058272D02*
X0078850Y0058272D01*
X0078850Y0057073D02*
X0077650Y0057073D01*
X0077650Y0055875D02*
X0078850Y0055875D01*
X0078850Y0054676D02*
X0077650Y0054676D01*
X0077650Y0053478D02*
X0078850Y0053478D01*
X0078850Y0052279D02*
X0077650Y0052279D01*
X0077650Y0051081D02*
X0078850Y0051081D01*
X0078850Y0049882D02*
X0077650Y0049882D01*
X0073506Y0049882D02*
X0040100Y0049882D01*
X0040100Y0048684D02*
X0154327Y0048684D01*
X0155354Y0047657D02*
X0152224Y0050787D01*
X0152224Y0055213D01*
X0155354Y0058343D01*
X0159780Y0058343D01*
X0162910Y0055213D01*
X0162910Y0050787D01*
X0159780Y0047657D01*
X0155354Y0047657D01*
X0153128Y0049882D02*
X0113298Y0049882D01*
X0115374Y0051081D02*
X0152224Y0051081D01*
X0152224Y0052279D02*
X0117019Y0052279D01*
X0118217Y0053478D02*
X0152224Y0053478D01*
X0152224Y0054676D02*
X0119266Y0054676D01*
X0119957Y0055875D02*
X0152885Y0055875D01*
X0154084Y0057073D02*
X0120649Y0057073D01*
X0121116Y0058272D02*
X0155282Y0058272D01*
X0159852Y0058272D02*
X0250821Y0058272D01*
X0250821Y0059470D02*
X0121437Y0059470D01*
X0121759Y0060669D02*
X0250821Y0060669D01*
X0250821Y0061867D02*
X0121885Y0061867D01*
X0121885Y0063066D02*
X0122677Y0063066D01*
X0130523Y0063066D02*
X0250821Y0063066D01*
X0250821Y0064264D02*
X0132078Y0064264D01*
X0133276Y0065463D02*
X0250821Y0065463D01*
X0250821Y0066661D02*
X0133835Y0066661D01*
X0134331Y0067860D02*
X0250821Y0067860D01*
X0250821Y0069058D02*
X0134600Y0069058D01*
X0134600Y0070257D02*
X0250821Y0070257D01*
X0250821Y0071455D02*
X0134600Y0071455D01*
X0134201Y0072654D02*
X0250821Y0072654D01*
X0250821Y0073852D02*
X0133705Y0073852D01*
X0132963Y0075051D02*
X0250821Y0075051D01*
X0250821Y0076249D02*
X0131764Y0076249D01*
X0129766Y0077448D02*
X0250821Y0077448D01*
X0250821Y0057073D02*
X0183491Y0057073D01*
X0183467Y0057161D02*
X0183576Y0056754D01*
X0183576Y0053581D01*
X0179014Y0053581D01*
X0177852Y0053581D01*
X0177852Y0052419D01*
X0173290Y0052419D01*
X0173290Y0049246D01*
X0173399Y0048839D01*
X0173609Y0048474D01*
X0173907Y0048176D01*
X0174272Y0047966D01*
X0174679Y0047857D01*
X0177852Y0047857D01*
X0177852Y0052419D01*
X0179014Y0052419D01*
X0179014Y0047857D01*
X0182187Y0047857D01*
X0182594Y0047966D01*
X0182959Y0048176D01*
X0183257Y0048474D01*
X0183467Y0048839D01*
X0183576Y0049246D01*
X0183576Y0052419D01*
X0179014Y0052419D01*
X0179014Y0053581D01*
X0179014Y0058143D01*
X0182187Y0058143D01*
X0182594Y0058034D01*
X0182959Y0057824D01*
X0183257Y0057526D01*
X0183467Y0057161D01*
X0183576Y0055875D02*
X0250821Y0055875D01*
X0250821Y0054676D02*
X0183576Y0054676D01*
X0183576Y0052279D02*
X0250821Y0052279D01*
X0250821Y0051081D02*
X0183576Y0051081D01*
X0183576Y0049882D02*
X0250821Y0049882D01*
X0250821Y0048684D02*
X0183378Y0048684D01*
X0179014Y0048684D02*
X0177852Y0048684D01*
X0177852Y0049882D02*
X0179014Y0049882D01*
X0179014Y0051081D02*
X0177852Y0051081D01*
X0177852Y0052279D02*
X0179014Y0052279D01*
X0179014Y0053478D02*
X0250821Y0053478D01*
X0250821Y0047485D02*
X0040100Y0047485D01*
X0040100Y0046287D02*
X0250821Y0046287D01*
X0250821Y0045088D02*
X0040100Y0045088D01*
X0040100Y0043890D02*
X0250821Y0043890D01*
X0250821Y0042691D02*
X0040100Y0042691D01*
X0040100Y0041493D02*
X0250821Y0041493D01*
X0250821Y0040294D02*
X0040100Y0040294D01*
X0040100Y0039096D02*
X0250821Y0039096D01*
X0250821Y0037897D02*
X0040100Y0037897D01*
X0040100Y0051081D02*
X0071007Y0051081D01*
X0069348Y0052279D02*
X0040100Y0052279D01*
X0040100Y0053478D02*
X0068066Y0053478D01*
X0067055Y0054676D02*
X0040100Y0054676D01*
X0040100Y0055875D02*
X0066258Y0055875D01*
X0065622Y0057073D02*
X0040100Y0057073D01*
X0040100Y0058272D02*
X0065126Y0058272D01*
X0064759Y0059470D02*
X0040100Y0059470D01*
X0040100Y0060669D02*
X0064506Y0060669D01*
X0064359Y0061867D02*
X0040100Y0061867D01*
X0062566Y0077448D02*
X0123434Y0077448D01*
X0121436Y0076249D02*
X0112915Y0076249D01*
X0115147Y0075051D02*
X0120237Y0075051D01*
X0119495Y0073852D02*
X0116887Y0073852D01*
X0118086Y0072654D02*
X0118999Y0072654D01*
X0102201Y0049882D02*
X0082994Y0049882D01*
X0085493Y0051081D02*
X0100126Y0051081D01*
X0098481Y0052279D02*
X0087152Y0052279D01*
X0088434Y0053478D02*
X0097283Y0053478D01*
X0096234Y0054676D02*
X0089445Y0054676D01*
X0090242Y0055875D02*
X0095543Y0055875D01*
X0094851Y0057073D02*
X0090878Y0057073D01*
X0091374Y0058272D02*
X0094384Y0058272D01*
X0094063Y0059470D02*
X0091741Y0059470D01*
X0091994Y0060669D02*
X0093741Y0060669D01*
X0093615Y0061867D02*
X0092140Y0061867D01*
X0073924Y0076249D02*
X0064564Y0076249D01*
X0065763Y0075051D02*
X0071235Y0075051D01*
X0069508Y0073852D02*
X0066505Y0073852D01*
X0067001Y0072654D02*
X0068197Y0072654D01*
X0040100Y0146962D02*
X0225321Y0146962D01*
X0224122Y0148160D02*
X0040100Y0148160D01*
X0040100Y0149359D02*
X0223250Y0149359D01*
X0223250Y0150557D02*
X0040100Y0150557D01*
X0040100Y0151756D02*
X0223250Y0151756D01*
X0223250Y0152954D02*
X0040100Y0152954D01*
X0040100Y0154153D02*
X0224435Y0154153D01*
X0225634Y0155351D02*
X0040100Y0155351D01*
X0040100Y0192505D02*
X0160922Y0192505D01*
X0159861Y0193703D02*
X0040100Y0193703D01*
X0040100Y0194902D02*
X0159413Y0194902D01*
X0159413Y0196101D02*
X0040100Y0196101D01*
X0040100Y0197299D02*
X0159862Y0197299D01*
X0160400Y0198498D02*
X0040100Y0198498D01*
X0040100Y0199696D02*
X0160400Y0199696D01*
X0160400Y0200895D02*
X0040100Y0200895D01*
X0040100Y0202093D02*
X0160400Y0202093D01*
X0160400Y0203292D02*
X0040100Y0203292D01*
X0040100Y0204490D02*
X0160400Y0204490D01*
X0160400Y0205689D02*
X0040100Y0205689D01*
X0040100Y0206887D02*
X0160400Y0206887D01*
X0160400Y0208086D02*
X0040100Y0208086D01*
X0040100Y0209284D02*
X0160400Y0209284D01*
X0160400Y0210483D02*
X0040100Y0210483D01*
X0040100Y0211681D02*
X0160400Y0211681D01*
X0160400Y0212880D02*
X0040100Y0212880D01*
X0040100Y0214078D02*
X0160400Y0214078D01*
X0160400Y0215277D02*
X0040100Y0215277D01*
X0040100Y0216475D02*
X0160400Y0216475D01*
X0160400Y0217674D02*
X0040100Y0217674D01*
X0040100Y0218872D02*
X0160400Y0218872D01*
X0160400Y0220071D02*
X0040100Y0220071D01*
X0040100Y0221269D02*
X0138837Y0221269D01*
X0137638Y0222468D02*
X0040100Y0222468D01*
X0040100Y0223666D02*
X0136440Y0223666D01*
X0135241Y0224865D02*
X0040100Y0224865D01*
X0040100Y0226063D02*
X0134043Y0226063D01*
X0132844Y0227262D02*
X0040100Y0227262D01*
X0040100Y0228460D02*
X0131646Y0228460D01*
X0130447Y0229659D02*
X0040100Y0229659D01*
X0040100Y0230857D02*
X0129249Y0230857D01*
X0128050Y0232056D02*
X0040100Y0232056D01*
X0040100Y0233254D02*
X0094650Y0233254D01*
X0093153Y0234453D02*
X0040100Y0234453D01*
X0040100Y0235651D02*
X0091954Y0235651D01*
X0090879Y0236850D02*
X0040100Y0236850D01*
X0040100Y0238048D02*
X0090600Y0238048D01*
X0090600Y0239247D02*
X0040100Y0239247D01*
X0040100Y0240445D02*
X0090589Y0240445D01*
X0090828Y0241644D02*
X0040100Y0241644D01*
X0040100Y0242842D02*
X0091164Y0242842D01*
X0091499Y0244041D02*
X0040100Y0244041D01*
X0040100Y0245239D02*
X0091835Y0245239D01*
X0092170Y0246438D02*
X0040100Y0246438D01*
X0040100Y0247637D02*
X0092506Y0247637D01*
X0092842Y0248835D02*
X0040100Y0248835D01*
X0040100Y0250034D02*
X0093177Y0250034D01*
X0093033Y0251232D02*
X0040100Y0251232D01*
X0040100Y0252431D02*
X0092620Y0252431D01*
X0092620Y0253629D02*
X0040100Y0253629D01*
X0040100Y0254828D02*
X0093058Y0254828D01*
X0094040Y0256026D02*
X0040100Y0256026D01*
X0040100Y0257225D02*
X0115416Y0257225D01*
X0115710Y0258423D02*
X0040100Y0258423D01*
X0040100Y0259622D02*
X0116553Y0259622D01*
X0132084Y0245239D02*
X0096819Y0245239D01*
X0096484Y0244041D02*
X0133282Y0244041D01*
X0134481Y0242842D02*
X0096148Y0242842D01*
X0095813Y0241644D02*
X0135679Y0241644D01*
X0136878Y0240445D02*
X0095477Y0240445D01*
X0095400Y0239247D02*
X0138076Y0239247D01*
X0139275Y0238048D02*
X0096346Y0238048D01*
X0130044Y0236850D02*
X0140473Y0236850D01*
X0141672Y0235651D02*
X0131243Y0235651D01*
X0132441Y0234453D02*
X0142870Y0234453D01*
X0144127Y0233254D02*
X0133640Y0233254D01*
X0145430Y0239247D02*
X0250821Y0239247D01*
X0234423Y0241644D02*
X0218316Y0241644D01*
X0218457Y0242842D02*
X0233225Y0242842D01*
X0232543Y0244041D02*
X0218457Y0244041D01*
X0218457Y0245239D02*
X0232543Y0245239D01*
X0232543Y0246438D02*
X0218457Y0246438D01*
X0218457Y0247637D02*
X0232704Y0247637D01*
X0233902Y0248835D02*
X0218457Y0248835D01*
X0217638Y0250034D02*
X0235101Y0250034D01*
X0250821Y0266813D02*
X0058143Y0266813D01*
X0058143Y0268011D02*
X0250821Y0268011D01*
X0250821Y0269210D02*
X0058039Y0269210D01*
X0053581Y0269210D02*
X0052419Y0269210D01*
X0052419Y0268011D02*
X0053581Y0268011D01*
X0053581Y0266813D02*
X0052419Y0266813D01*
X0052419Y0264416D02*
X0053581Y0264416D01*
X0053581Y0263217D02*
X0052419Y0263217D01*
X0052419Y0262019D02*
X0053581Y0262019D01*
X0053581Y0260820D02*
X0052419Y0260820D01*
X0048015Y0260820D02*
X0040100Y0260820D01*
X0040100Y0262019D02*
X0047857Y0262019D01*
X0047857Y0263217D02*
X0040100Y0263217D01*
X0040100Y0357900D02*
X0061546Y0357900D01*
X0059623Y0359098D02*
X0040100Y0359098D01*
X0040100Y0360297D02*
X0058247Y0360297D01*
X0057158Y0361495D02*
X0040100Y0361495D01*
X0040100Y0362694D02*
X0056290Y0362694D01*
X0055598Y0363892D02*
X0040100Y0363892D01*
X0040100Y0365091D02*
X0055054Y0365091D01*
X0054640Y0366289D02*
X0040100Y0366289D01*
X0040100Y0367488D02*
X0054342Y0367488D01*
X0054152Y0368686D02*
X0040100Y0368686D01*
X0067400Y0368686D02*
X0068600Y0368686D01*
X0068600Y0367488D02*
X0067400Y0367488D01*
X0067400Y0366289D02*
X0068600Y0366289D01*
X0068600Y0365091D02*
X0067400Y0365091D01*
X0067400Y0363892D02*
X0068600Y0363892D01*
X0068600Y0362694D02*
X0067400Y0362694D01*
X0067400Y0361495D02*
X0068600Y0361495D01*
X0068600Y0360297D02*
X0067400Y0360297D01*
X0067400Y0359098D02*
X0068600Y0359098D01*
X0068600Y0357900D02*
X0067400Y0357900D01*
X0067400Y0356701D02*
X0068600Y0356701D01*
X0161050Y0057073D02*
X0173375Y0057073D01*
X0173399Y0057161D02*
X0173290Y0056754D01*
X0173290Y0053581D01*
X0177852Y0053581D01*
X0177852Y0058143D01*
X0174679Y0058143D01*
X0174272Y0058034D01*
X0173907Y0057824D01*
X0173609Y0057526D01*
X0173399Y0057161D01*
X0173290Y0055875D02*
X0162249Y0055875D01*
X0162910Y0054676D02*
X0173290Y0054676D01*
X0173290Y0052279D02*
X0162910Y0052279D01*
X0162910Y0051081D02*
X0173290Y0051081D01*
X0173290Y0049882D02*
X0162006Y0049882D01*
X0160807Y0048684D02*
X0173489Y0048684D01*
X0177852Y0053478D02*
X0162910Y0053478D01*
X0177852Y0054676D02*
X0179014Y0054676D01*
X0179014Y0055875D02*
X0177852Y0055875D01*
X0177852Y0057073D02*
X0179014Y0057073D01*
D20*
X0155500Y0230500D03*
X0143000Y0248000D03*
X0096500Y0253000D03*
X0096500Y0259000D03*
X0078000Y0278000D03*
D21*
X0129500Y0279000D03*
D22*
X0103000Y0303000D03*
D23*
X0095500Y0278000D03*
X0083000Y0243000D03*
X0068000Y0218000D03*
X0075500Y0215500D03*
X0085500Y0215500D03*
X0090500Y0213000D03*
X0095500Y0188000D03*
X0098000Y0173000D03*
X0108000Y0175500D03*
X0115500Y0210500D03*
X0108000Y0215500D03*
X0133000Y0220500D03*
X0063000Y0253000D03*
X0060500Y0248000D03*
X0053000Y0210500D03*
X0048000Y0210500D03*
X0048000Y0163000D03*
X0048000Y0150500D03*
X0048000Y0138000D03*
X0048000Y0125500D03*
X0048000Y0113000D03*
X0048000Y0100500D03*
X0140500Y0088000D03*
X0220500Y0123000D03*
D24*
X0163000Y0195500D02*
X0163000Y0228000D01*
X0155500Y0235500D01*
X0145500Y0235500D01*
X0124500Y0256500D01*
X0119000Y0257000D01*
X0119000Y0256503D01*
M02*
