%
M48
M72
T01C0.01378
T02C0.03000
T03C0.04000
T04C0.04331
T05C0.11800
T06C0.13000
T07C0.20669
%
T01
X96000Y93000
X76000Y113000
X76000Y128000
X81000Y138000
X71000Y188000
X36000Y223000
X51000Y238000
X86000Y243000
X91000Y253000
X101000Y258000
X16000Y323000
X11000Y238000
X161000Y88000
X211000Y168000
T02
X266000Y278000
X276000Y278000
X276000Y308000
X276000Y318000
X266000Y318000
X266000Y308000
X266000Y348000
X276000Y348000
X136000Y348000
X126000Y348000
X126000Y318000
X126000Y308000
X136000Y308000
X136000Y318000
X136000Y278000
X126000Y278000
T03
X126000Y158000
X126000Y148000
X116000Y148000
X116000Y158000
X116000Y138000
X126000Y138000
X126000Y128000
X126000Y118000
X116000Y118000
X116000Y128000
X116000Y108000
X126000Y108000
X126000Y98000
X116000Y98000
X116000Y88000
X116000Y78000
X126000Y78000
X126000Y88000
X126000Y68000
X116000Y68000
X286000Y68000
X286000Y78000
X286000Y88000
X286000Y98000
X286000Y108000
X286000Y118000
X286000Y128000
X286000Y138000
X286000Y148000
X286000Y158000
X296000Y158000
X296000Y148000
X296000Y138000
X296000Y128000
X296000Y118000
X296000Y108000
X296000Y98000
X296000Y88000
X296000Y78000
X296000Y68000
X321000Y23000
X331000Y23000
T04
X251000Y303000
X241000Y303000
X231000Y303000
X221000Y303000
X211000Y303000
X201000Y303000
X191000Y303000
X181000Y303000
X171000Y303000
X161000Y303000
X161000Y318000
X171000Y318000
X181000Y318000
X191000Y318000
X201000Y318000
X211000Y318000
X221000Y318000
X231000Y318000
X241000Y318000
X251000Y318000
X251000Y355500
X241000Y355500
X231000Y355500
X221000Y355500
X211000Y355500
X201000Y355500
X191000Y355500
X181000Y355500
X171000Y355500
X161000Y355500
X106000Y353000
X96000Y353000
X86000Y353000
X76000Y353000
X66000Y353000
X56000Y353000
X46000Y353000
X36000Y353000
X26000Y353000
X16000Y353000
T05
X12400Y30900
X79600Y30900
T06
X26000Y143000
X26000Y333000
X351000Y333000
X351000Y143000
T07
X60750Y38000
X31250Y38000
M30
