M48
;GenerationSoftware,Autodesk,EAGLE,8.6.0*%
;CreationDate,2019-04-25T23:54:25Z*%
FMAT,2
ICI,OFF
METRIC,TZ,000.000
T4C0.350
T3C1.016
T2C1.100
T1C3.302
%
G90
M71
T1
X6350Y81280
X6350Y33020
X88900Y33020
X88900Y81280
T2
X65024Y10160
X62484Y10160
X59944Y10160
X57404Y10160
X54864Y10160
X52324Y10160
X49784Y10160
X47244Y10160
X42149Y18489
X44689Y18489
X47229Y18489
X49769Y18489
X52309Y18489
X54849Y18489
X57389Y18489
X59929Y18489
X62469Y18489
X65009Y18489
X42164Y10160
X44704Y10160
T3
X20320Y76708
X34925Y49657
X20320Y74168
X78105Y44577
X75565Y44577
X78105Y47117
X75565Y47117
X32385Y54737
X32385Y67437
X32385Y64897
X32385Y62357
X32385Y59817
X32385Y57277
X78105Y49657
X32385Y52197
X32385Y49657
X32385Y47117
X32385Y44577
X34925Y67437
X34925Y64897
X34925Y62357
X34925Y59817
X34925Y57277
X34925Y54737
X34925Y52197
X75565Y49657
X34925Y47117
X34925Y44577
X75565Y67437
X78105Y67437
X75565Y64897
X78105Y64897
X75565Y62357
X78105Y62357
X75565Y59817
X78105Y59817
X75565Y57277
X78105Y57277
X75565Y54737
X78105Y54737
X75565Y52197
X78105Y52197
T4
X80518Y45466
X80010Y42926
X29210Y70648
X48260Y76200
X37846Y54610
X54102Y70866
X55118Y70866
X50800Y74930
M30