G75*
%MOIN*%
%OFA0B0*%
%FSLAX25Y25*%
%IPPOS*%
%LPD*%
%AMOC8*
5,1,8,0,0,1.08239X$1,22.5*
%
%ADD10C,0.13800*%
%ADD11R,0.02769X0.02178*%
%ADD12R,0.07296X0.07296*%
%ADD13C,0.07296*%
%ADD14R,0.06800X0.06800*%
%ADD15C,0.06800*%
%ADD16R,0.05918X0.06706*%
%ADD17C,0.03778*%
D10*
X0026300Y0133333D03*
X0026300Y0323333D03*
X0351300Y0323333D03*
X0351300Y0133333D03*
D11*
X0213657Y0298599D03*
X0213657Y0301159D03*
X0213657Y0303718D03*
X0213657Y0306277D03*
X0205586Y0306277D03*
X0205586Y0303718D03*
X0205586Y0301159D03*
X0205586Y0298599D03*
D12*
X0167240Y0076125D03*
X0167300Y0043333D03*
D13*
X0177300Y0043333D03*
X0187300Y0043333D03*
X0197300Y0043333D03*
X0207300Y0043333D03*
X0217300Y0043333D03*
X0227300Y0043333D03*
X0237300Y0043333D03*
X0247300Y0043333D03*
X0257300Y0043333D03*
X0257240Y0076125D03*
X0247240Y0076125D03*
X0237240Y0076125D03*
X0227240Y0076125D03*
X0217240Y0076125D03*
X0207240Y0076125D03*
X0197240Y0076125D03*
X0187240Y0076125D03*
X0177240Y0076125D03*
D14*
X0138800Y0268833D03*
X0128800Y0268833D03*
X0298800Y0268833D03*
X0308800Y0268833D03*
D15*
X0308800Y0258833D03*
X0308800Y0248833D03*
X0308800Y0238833D03*
X0308800Y0228833D03*
X0308800Y0218833D03*
X0308800Y0208833D03*
X0308800Y0198833D03*
X0308800Y0188833D03*
X0308800Y0178833D03*
X0298800Y0178833D03*
X0298800Y0188833D03*
X0298800Y0198833D03*
X0298800Y0208833D03*
X0298800Y0218833D03*
X0298800Y0228833D03*
X0298800Y0238833D03*
X0298800Y0248833D03*
X0298800Y0258833D03*
X0138800Y0258833D03*
X0138800Y0248833D03*
X0138800Y0238833D03*
X0138800Y0228833D03*
X0138800Y0218833D03*
X0138800Y0208833D03*
X0138800Y0198833D03*
X0138800Y0188833D03*
X0138800Y0178833D03*
X0128800Y0178833D03*
X0128800Y0188833D03*
X0128800Y0198833D03*
X0128800Y0208833D03*
X0128800Y0218833D03*
X0128800Y0228833D03*
X0128800Y0238833D03*
X0128800Y0248833D03*
X0128800Y0258833D03*
X0081300Y0295333D03*
X0081300Y0305333D03*
D16*
X0077560Y0274833D03*
X0085040Y0274833D03*
X0085540Y0258833D03*
X0078060Y0258833D03*
X0076060Y0242333D03*
X0083540Y0242333D03*
X0085540Y0225833D03*
X0078060Y0225833D03*
X0076060Y0198833D03*
X0083540Y0198833D03*
X0084540Y0182333D03*
X0077060Y0182333D03*
X0330060Y0193833D03*
X0337540Y0193833D03*
X0338540Y0171833D03*
X0331060Y0171833D03*
D17*
X0316300Y0172333D03*
X0318300Y0182333D03*
X0218300Y0282333D03*
X0214300Y0282333D03*
X0201300Y0298333D03*
X0191300Y0303333D03*
X0116300Y0281475D03*
X0150300Y0218333D03*
M02*
