G75*
%MOIN*%
%OFA0B0*%
%FSLAX25Y25*%
%IPPOS*%
%LPD*%
%AMOC8*
5,1,8,0,0,1.08239X$1,22.5*
%
%ADD10R,0.01969X0.01378*%
%ADD11R,0.06496X0.06496*%
%ADD12C,0.06496*%
%ADD13R,0.06000X0.06000*%
%ADD14C,0.06000*%
%ADD15R,0.05118X0.05906*%
%ADD16C,0.01000*%
%ADD17C,0.02978*%
%ADD18C,0.00600*%
D10*
X0205586Y0298599D03*
X0205586Y0301159D03*
X0205586Y0303718D03*
X0205586Y0306277D03*
X0213657Y0306277D03*
X0213657Y0303718D03*
X0213657Y0301159D03*
X0213657Y0298599D03*
D11*
X0167240Y0076125D03*
X0167300Y0043333D03*
D12*
X0177300Y0043333D03*
X0187300Y0043333D03*
X0197300Y0043333D03*
X0207300Y0043333D03*
X0217300Y0043333D03*
X0227300Y0043333D03*
X0237300Y0043333D03*
X0247300Y0043333D03*
X0257300Y0043333D03*
X0257240Y0076125D03*
X0247240Y0076125D03*
X0237240Y0076125D03*
X0227240Y0076125D03*
X0217240Y0076125D03*
X0207240Y0076125D03*
X0197240Y0076125D03*
X0187240Y0076125D03*
X0177240Y0076125D03*
D13*
X0138800Y0268833D03*
X0128800Y0268833D03*
X0298800Y0268833D03*
X0308800Y0268833D03*
D14*
X0308800Y0258833D03*
X0308800Y0248833D03*
X0308800Y0238833D03*
X0308800Y0228833D03*
X0308800Y0218833D03*
X0308800Y0208833D03*
X0308800Y0198833D03*
X0308800Y0188833D03*
X0308800Y0178833D03*
X0298800Y0178833D03*
X0298800Y0188833D03*
X0298800Y0198833D03*
X0298800Y0208833D03*
X0298800Y0218833D03*
X0298800Y0228833D03*
X0298800Y0238833D03*
X0298800Y0248833D03*
X0298800Y0258833D03*
X0138800Y0258833D03*
X0138800Y0248833D03*
X0138800Y0238833D03*
X0138800Y0228833D03*
X0138800Y0218833D03*
X0138800Y0208833D03*
X0138800Y0198833D03*
X0138800Y0188833D03*
X0138800Y0178833D03*
X0128800Y0178833D03*
X0128800Y0188833D03*
X0128800Y0198833D03*
X0128800Y0208833D03*
X0128800Y0218833D03*
X0128800Y0228833D03*
X0128800Y0238833D03*
X0128800Y0248833D03*
X0128800Y0258833D03*
X0081300Y0295333D03*
X0081300Y0305333D03*
D15*
X0077560Y0274833D03*
X0085040Y0274833D03*
X0085540Y0258833D03*
X0078060Y0258833D03*
X0076060Y0242333D03*
X0083540Y0242333D03*
X0085540Y0225833D03*
X0078060Y0225833D03*
X0076060Y0198833D03*
X0083540Y0198833D03*
X0084540Y0182333D03*
X0077060Y0182333D03*
X0330060Y0193833D03*
X0337540Y0193833D03*
X0338540Y0171833D03*
X0331060Y0171833D03*
D16*
X0051300Y0153333D02*
X0051300Y0279333D01*
X0068300Y0303333D01*
X0076933Y0296457D01*
X0076911Y0296387D01*
X0076823Y0295833D01*
X0080800Y0295833D01*
X0080800Y0294833D01*
X0081800Y0294833D01*
X0081800Y0290856D01*
X0082354Y0290944D01*
X0083027Y0291163D01*
X0083659Y0291485D01*
X0084232Y0291901D01*
X0084732Y0292402D01*
X0085149Y0292975D01*
X0085470Y0293606D01*
X0085689Y0294280D01*
X0085777Y0294833D01*
X0081800Y0294833D01*
X0081800Y0295833D01*
X0085777Y0295833D01*
X0085689Y0296387D01*
X0085470Y0297061D01*
X0085149Y0297692D01*
X0084732Y0298265D01*
X0084232Y0298766D01*
X0083659Y0299182D01*
X0083027Y0299504D01*
X0082354Y0299723D01*
X0081800Y0299810D01*
X0081800Y0295833D01*
X0080800Y0295833D01*
X0080800Y0299810D01*
X0080246Y0299723D01*
X0079573Y0299504D01*
X0078941Y0299182D01*
X0078368Y0298766D01*
X0077868Y0298265D01*
X0077451Y0297692D01*
X0077130Y0297061D01*
X0076911Y0296387D01*
X0076823Y0295833D01*
X0077716Y0295833D01*
X0078971Y0294833D01*
X0076823Y0294833D01*
X0076911Y0294280D01*
X0077130Y0293606D01*
X0077451Y0292975D01*
X0077868Y0292402D01*
X0078368Y0291901D01*
X0078941Y0291485D01*
X0079573Y0291163D01*
X0080246Y0290944D01*
X0080800Y0290856D01*
X0080800Y0294833D01*
X0076823Y0294833D01*
X0076911Y0294280D01*
X0077130Y0293606D01*
X0077451Y0292975D01*
X0077868Y0292402D01*
X0078368Y0291901D01*
X0078941Y0291485D01*
X0079573Y0291163D01*
X0080246Y0290944D01*
X0080800Y0290856D01*
X0080800Y0293377D01*
X0081800Y0292580D01*
X0081800Y0290856D01*
X0082354Y0290944D01*
X0083027Y0291163D01*
X0083364Y0291334D01*
X0092655Y0283933D01*
X0070637Y0283933D01*
X0069700Y0282996D01*
X0069700Y0281671D01*
X0069700Y0202930D01*
X0070637Y0201993D01*
X0072401Y0200230D01*
X0072401Y0195425D01*
X0073045Y0194781D01*
X0074460Y0194781D01*
X0074460Y0186386D01*
X0074045Y0186386D01*
X0073401Y0185742D01*
X0073401Y0178925D01*
X0074045Y0178281D01*
X0078850Y0178281D01*
X0103797Y0153333D01*
X0051300Y0153333D01*
X0051300Y0154109D02*
X0103022Y0154109D01*
X0102023Y0155107D02*
X0051300Y0155107D01*
X0051300Y0156106D02*
X0101025Y0156106D01*
X0100026Y0157104D02*
X0051300Y0157104D01*
X0051300Y0158103D02*
X0099028Y0158103D01*
X0098029Y0159101D02*
X0051300Y0159101D01*
X0051300Y0160100D02*
X0097031Y0160100D01*
X0096032Y0161098D02*
X0051300Y0161098D01*
X0051300Y0162097D02*
X0095034Y0162097D01*
X0094035Y0163095D02*
X0051300Y0163095D01*
X0051300Y0164094D02*
X0093037Y0164094D01*
X0092038Y0165092D02*
X0051300Y0165092D01*
X0051300Y0166091D02*
X0091040Y0166091D01*
X0090041Y0167089D02*
X0051300Y0167089D01*
X0051300Y0168088D02*
X0089043Y0168088D01*
X0088044Y0169086D02*
X0051300Y0169086D01*
X0051300Y0170085D02*
X0087046Y0170085D01*
X0086047Y0171083D02*
X0051300Y0171083D01*
X0051300Y0172082D02*
X0085049Y0172082D01*
X0084050Y0173080D02*
X0051300Y0173080D01*
X0051300Y0174079D02*
X0083052Y0174079D01*
X0082053Y0175077D02*
X0051300Y0175077D01*
X0051300Y0176076D02*
X0081055Y0176076D01*
X0080056Y0177074D02*
X0051300Y0177074D01*
X0051300Y0178073D02*
X0079058Y0178073D01*
X0080881Y0180775D02*
X0080719Y0180937D01*
X0080719Y0185742D01*
X0080075Y0186386D01*
X0077660Y0186386D01*
X0077660Y0194781D01*
X0079075Y0194781D01*
X0079719Y0195425D01*
X0079719Y0202242D01*
X0079075Y0202886D01*
X0074270Y0202886D01*
X0072900Y0204256D01*
X0072900Y0237995D01*
X0072922Y0237983D01*
X0073303Y0237881D01*
X0075560Y0237881D01*
X0075560Y0241833D01*
X0076560Y0241833D01*
X0076560Y0237881D01*
X0078816Y0237881D01*
X0079198Y0237983D01*
X0079540Y0238180D01*
X0079819Y0238460D01*
X0080012Y0238794D01*
X0080525Y0238281D01*
X0085330Y0238281D01*
X0095700Y0227911D01*
X0095700Y0227671D01*
X0096637Y0226733D01*
X0125232Y0226733D01*
X0125324Y0226511D01*
X0126478Y0225358D01*
X0127984Y0224733D01*
X0129616Y0224733D01*
X0131122Y0225358D01*
X0132276Y0226511D01*
X0132900Y0228018D01*
X0132900Y0229649D01*
X0132276Y0231156D01*
X0131122Y0232309D01*
X0129616Y0232933D01*
X0127984Y0232933D01*
X0126478Y0232309D01*
X0125324Y0231156D01*
X0124818Y0229933D01*
X0098203Y0229933D01*
X0097963Y0230173D01*
X0087199Y0240937D01*
X0087199Y0245742D01*
X0086555Y0246386D01*
X0080525Y0246386D01*
X0080012Y0245873D01*
X0079819Y0246207D01*
X0079540Y0246486D01*
X0079198Y0246684D01*
X0078816Y0246786D01*
X0076560Y0246786D01*
X0076560Y0242833D01*
X0075560Y0242833D01*
X0075560Y0246786D01*
X0073303Y0246786D01*
X0072922Y0246684D01*
X0072900Y0246671D01*
X0072900Y0280733D01*
X0096673Y0280733D01*
X0124700Y0258409D01*
X0124700Y0258018D01*
X0125324Y0256511D01*
X0126478Y0255358D01*
X0127984Y0254733D01*
X0129616Y0254733D01*
X0131122Y0255358D01*
X0132276Y0256511D01*
X0132900Y0258018D01*
X0132900Y0259649D01*
X0132276Y0261156D01*
X0131122Y0262309D01*
X0129616Y0262933D01*
X0127984Y0262933D01*
X0126478Y0262309D01*
X0125324Y0261156D01*
X0124700Y0259649D01*
X0124700Y0258018D01*
X0125324Y0256511D01*
X0126478Y0255358D01*
X0127984Y0254733D01*
X0129314Y0254733D01*
X0129565Y0254533D01*
X0107603Y0254533D01*
X0088699Y0273437D01*
X0088699Y0278242D01*
X0088055Y0278886D01*
X0082025Y0278886D01*
X0081512Y0278373D01*
X0081319Y0278707D01*
X0081040Y0278986D01*
X0080698Y0279184D01*
X0080316Y0279286D01*
X0078060Y0279286D01*
X0078060Y0276574D01*
X0077060Y0277573D01*
X0077060Y0279286D01*
X0075347Y0279286D01*
X0073900Y0280733D01*
X0111637Y0280733D01*
X0112547Y0279823D01*
X0113484Y0278886D01*
X0116815Y0278886D01*
X0117767Y0279280D01*
X0118495Y0280009D01*
X0118889Y0280960D01*
X0118889Y0281990D01*
X0118495Y0282942D01*
X0117767Y0283670D01*
X0116815Y0284064D01*
X0115785Y0284064D01*
X0114833Y0283670D01*
X0114105Y0282942D01*
X0114061Y0282835D01*
X0112963Y0283933D01*
X0070700Y0283933D01*
X0051300Y0303333D01*
X0077691Y0303333D01*
X0077824Y0303011D01*
X0078978Y0301858D01*
X0080484Y0301233D01*
X0082116Y0301233D01*
X0083622Y0301858D01*
X0084776Y0303011D01*
X0084909Y0303333D01*
X0151300Y0303333D01*
X0170300Y0284333D01*
X0170300Y0221333D01*
X0168563Y0221333D01*
X0142601Y0247295D01*
X0142900Y0248018D01*
X0142900Y0249649D01*
X0142276Y0251156D01*
X0141122Y0252309D01*
X0139616Y0252933D01*
X0137984Y0252933D01*
X0136478Y0252309D01*
X0135324Y0251156D01*
X0135094Y0250600D01*
X0132098Y0253596D01*
X0131161Y0254533D01*
X0107603Y0254533D01*
X0088699Y0273437D01*
X0088699Y0278242D01*
X0088055Y0278886D01*
X0082025Y0278886D01*
X0081512Y0278373D01*
X0081319Y0278707D01*
X0081040Y0278986D01*
X0080698Y0279184D01*
X0080316Y0279286D01*
X0078060Y0279286D01*
X0078060Y0275333D01*
X0077060Y0275333D01*
X0077060Y0274333D01*
X0078060Y0274333D01*
X0078060Y0270381D01*
X0080316Y0270381D01*
X0080698Y0270483D01*
X0081040Y0270680D01*
X0081319Y0270960D01*
X0081512Y0271294D01*
X0082025Y0270781D01*
X0086830Y0270781D01*
X0105340Y0252271D01*
X0106277Y0251333D01*
X0125502Y0251333D01*
X0125324Y0251156D01*
X0124700Y0249649D01*
X0124700Y0248018D01*
X0125324Y0246511D01*
X0126478Y0245358D01*
X0127984Y0244733D01*
X0129616Y0244733D01*
X0131122Y0245358D01*
X0132276Y0246511D01*
X0132900Y0248018D01*
X0132900Y0248269D01*
X0133936Y0247233D01*
X0135025Y0247233D01*
X0135324Y0246511D01*
X0136478Y0245358D01*
X0137984Y0244733D01*
X0139616Y0244733D01*
X0140338Y0245033D01*
X0225640Y0159731D01*
X0225640Y0080168D01*
X0224777Y0079811D01*
X0224492Y0079526D01*
X0224492Y0091135D01*
X0223554Y0092073D01*
X0208900Y0106727D01*
X0208900Y0170996D01*
X0207963Y0171933D01*
X0142601Y0237295D01*
X0142900Y0238018D01*
X0142900Y0239649D01*
X0142276Y0241156D01*
X0141122Y0242309D01*
X0139616Y0242933D01*
X0137984Y0242933D01*
X0136478Y0242309D01*
X0135324Y0241156D01*
X0134700Y0239649D01*
X0134700Y0239433D01*
X0132936Y0239433D01*
X0132900Y0239398D01*
X0132900Y0239649D01*
X0132276Y0241156D01*
X0131122Y0242309D01*
X0129616Y0242933D01*
X0127984Y0242933D01*
X0126478Y0242309D01*
X0125324Y0241156D01*
X0124700Y0239649D01*
X0124700Y0238018D01*
X0125324Y0236511D01*
X0125502Y0236333D01*
X0110303Y0236333D01*
X0089199Y0257437D01*
X0089199Y0262242D01*
X0088555Y0262886D01*
X0082525Y0262886D01*
X0082012Y0262373D01*
X0081819Y0262707D01*
X0081540Y0262986D01*
X0081198Y0263184D01*
X0080816Y0263286D01*
X0078560Y0263286D01*
X0078560Y0259333D01*
X0077560Y0259333D01*
X0077560Y0258333D01*
X0078560Y0258333D01*
X0078560Y0254381D01*
X0080816Y0254381D01*
X0081198Y0254483D01*
X0081540Y0254680D01*
X0081819Y0254960D01*
X0082012Y0255294D01*
X0082525Y0254781D01*
X0087330Y0254781D01*
X0108040Y0234071D01*
X0108977Y0233133D01*
X0131161Y0233133D01*
X0132098Y0234071D01*
X0134261Y0236233D01*
X0135602Y0236233D01*
X0136478Y0235358D01*
X0137984Y0234733D01*
X0139616Y0234733D01*
X0140338Y0235033D01*
X0205700Y0169671D01*
X0205700Y0105402D01*
X0206637Y0104464D01*
X0221292Y0089810D01*
X0221292Y0077704D01*
X0220926Y0078588D01*
X0219703Y0079811D01*
X0218105Y0080473D01*
X0216375Y0080473D01*
X0214777Y0079811D01*
X0213554Y0078588D01*
X0212892Y0076989D01*
X0212892Y0075260D01*
X0213554Y0073662D01*
X0214777Y0072438D01*
X0215640Y0072081D01*
X0215640Y0047352D01*
X0214837Y0047019D01*
X0213614Y0045796D01*
X0212952Y0044198D01*
X0212952Y0042468D01*
X0213614Y0040870D01*
X0214837Y0039647D01*
X0216435Y0038985D01*
X0218165Y0038985D01*
X0219763Y0039647D01*
X0220986Y0040870D01*
X0221648Y0042468D01*
X0221648Y0044198D01*
X0220986Y0045796D01*
X0219763Y0047019D01*
X0218840Y0047402D01*
X0218840Y0072081D01*
X0219703Y0072438D01*
X0220926Y0073662D01*
X0221292Y0074545D01*
X0221292Y0073661D01*
X0222229Y0072724D01*
X0224776Y0070177D01*
X0229704Y0070177D01*
X0233447Y0073920D01*
X0233554Y0073662D01*
X0234777Y0072438D01*
X0235700Y0072056D01*
X0235700Y0047377D01*
X0234837Y0047019D01*
X0233614Y0045796D01*
X0232952Y0044198D01*
X0232952Y0042468D01*
X0233614Y0040870D01*
X0234837Y0039647D01*
X0236435Y0038985D01*
X0238165Y0038985D01*
X0239763Y0039647D01*
X0240986Y0040870D01*
X0241648Y0042468D01*
X0241648Y0044198D01*
X0240986Y0045796D01*
X0239763Y0047019D01*
X0238900Y0047377D01*
X0238900Y0072106D01*
X0239703Y0072438D01*
X0240926Y0073662D01*
X0241588Y0075260D01*
X0241588Y0076989D01*
X0240926Y0078588D01*
X0239703Y0079811D01*
X0238105Y0080473D01*
X0236375Y0080473D01*
X0234777Y0079811D01*
X0233554Y0078588D01*
X0233196Y0077725D01*
X0232726Y0077725D01*
X0231588Y0076586D01*
X0231588Y0076989D01*
X0230926Y0078588D01*
X0229703Y0079811D01*
X0228840Y0080168D01*
X0228840Y0161056D01*
X0158059Y0231837D01*
X0299300Y0119333D01*
X0299300Y0051333D01*
X0294871Y0046905D01*
X0259704Y0082073D01*
X0254776Y0082073D01*
X0251033Y0078329D01*
X0250926Y0078588D01*
X0249703Y0079811D01*
X0248105Y0080473D01*
X0246375Y0080473D01*
X0244777Y0079811D01*
X0243554Y0078588D01*
X0242892Y0076989D01*
X0242892Y0075260D01*
X0243554Y0073662D01*
X0244777Y0072438D01*
X0246375Y0071777D01*
X0248105Y0071777D01*
X0249703Y0072438D01*
X0250926Y0073662D01*
X0251283Y0074525D01*
X0251753Y0074525D01*
X0252691Y0075462D01*
X0252892Y0075663D01*
X0252892Y0075260D01*
X0253554Y0073662D01*
X0254777Y0072438D01*
X0255640Y0072081D01*
X0255640Y0047352D01*
X0254837Y0047019D01*
X0253614Y0045796D01*
X0252952Y0044198D01*
X0252952Y0042468D01*
X0253614Y0040870D01*
X0254837Y0039647D01*
X0256435Y0038985D01*
X0258165Y0038985D01*
X0259763Y0039647D01*
X0260986Y0040870D01*
X0261648Y0042468D01*
X0261648Y0044198D01*
X0260986Y0045796D01*
X0259763Y0047019D01*
X0258840Y0047402D01*
X0258840Y0072081D01*
X0259703Y0072438D01*
X0260926Y0073662D01*
X0261588Y0075260D01*
X0261588Y0075663D01*
X0292609Y0044642D01*
X0273300Y0025333D01*
X0158900Y0025333D01*
X0158900Y0102756D01*
X0157963Y0103693D01*
X0151300Y0110356D01*
X0151300Y0153333D01*
X0108323Y0153333D01*
X0083375Y0178281D01*
X0086330Y0178281D01*
X0087377Y0177233D01*
X0125025Y0177233D01*
X0125324Y0176511D01*
X0126478Y0175358D01*
X0127984Y0174733D01*
X0129616Y0174733D01*
X0131122Y0175358D01*
X0132276Y0176511D01*
X0132700Y0177535D01*
X0132700Y0176671D01*
X0133637Y0175733D01*
X0185640Y0123731D01*
X0185640Y0080168D01*
X0184777Y0079811D01*
X0183554Y0078588D01*
X0182892Y0076989D01*
X0182892Y0075260D01*
X0183554Y0073662D01*
X0184777Y0072438D01*
X0185640Y0072081D01*
X0185640Y0047352D01*
X0184837Y0047019D01*
X0183614Y0045796D01*
X0182952Y0044198D01*
X0182952Y0042468D01*
X0183614Y0040870D01*
X0184837Y0039647D01*
X0186435Y0038985D01*
X0188165Y0038985D01*
X0189763Y0039647D01*
X0190986Y0040870D01*
X0191648Y0042468D01*
X0191648Y0044198D01*
X0190986Y0045796D01*
X0189763Y0047019D01*
X0188840Y0047402D01*
X0188840Y0072081D01*
X0189703Y0072438D01*
X0190926Y0073662D01*
X0191588Y0075260D01*
X0191588Y0076989D01*
X0190926Y0078588D01*
X0189703Y0079811D01*
X0188840Y0080168D01*
X0188840Y0123610D01*
X0188900Y0123671D01*
X0188900Y0124996D01*
X0139163Y0174733D01*
X0139616Y0174733D01*
X0141122Y0175358D01*
X0142276Y0176511D01*
X0142900Y0178018D01*
X0142900Y0179649D01*
X0142276Y0181156D01*
X0141122Y0182309D01*
X0139616Y0182933D01*
X0137984Y0182933D01*
X0136478Y0182309D01*
X0135900Y0181732D01*
X0135900Y0183996D01*
X0134963Y0184933D01*
X0132601Y0187295D01*
X0132900Y0188018D01*
X0132900Y0189649D01*
X0132276Y0191156D01*
X0131122Y0192309D01*
X0129616Y0192933D01*
X0127984Y0192933D01*
X0127262Y0192634D01*
X0121063Y0198833D01*
X0125363Y0203133D01*
X0126300Y0204071D01*
X0126300Y0205535D01*
X0126478Y0205358D01*
X0127984Y0204733D01*
X0129616Y0204733D01*
X0131122Y0205358D01*
X0132276Y0206511D01*
X0132900Y0208018D01*
X0132900Y0209649D01*
X0132276Y0211156D01*
X0131122Y0212309D01*
X0129616Y0212933D01*
X0129364Y0212933D01*
X0129564Y0213133D01*
X0141161Y0213133D01*
X0142098Y0214071D01*
X0144761Y0216733D01*
X0148239Y0216733D01*
X0148833Y0216138D01*
X0149785Y0215744D01*
X0150815Y0215744D01*
X0151767Y0216138D01*
X0152495Y0216867D01*
X0152889Y0217818D01*
X0152889Y0218848D01*
X0152495Y0219800D01*
X0151767Y0220528D01*
X0150815Y0220922D01*
X0149785Y0220922D01*
X0148833Y0220528D01*
X0148239Y0219933D01*
X0143436Y0219933D01*
X0142900Y0219398D01*
X0142900Y0219649D01*
X0142276Y0221156D01*
X0141122Y0222309D01*
X0139616Y0222933D01*
X0137984Y0222933D01*
X0136478Y0222309D01*
X0135324Y0221156D01*
X0134700Y0219649D01*
X0134700Y0218018D01*
X0135324Y0216511D01*
X0135502Y0216333D01*
X0132098Y0216333D01*
X0132276Y0216511D01*
X0132900Y0218018D01*
X0132900Y0219649D01*
X0132276Y0221156D01*
X0131122Y0222309D01*
X0129616Y0222933D01*
X0127984Y0222933D01*
X0126478Y0222309D01*
X0125324Y0221156D01*
X0125025Y0220433D01*
X0093203Y0220433D01*
X0089199Y0224437D01*
X0089199Y0229242D01*
X0088555Y0229886D01*
X0082525Y0229886D01*
X0082012Y0229373D01*
X0081819Y0229707D01*
X0081540Y0229986D01*
X0081198Y0230184D01*
X0080816Y0230286D01*
X0078560Y0230286D01*
X0078560Y0226333D01*
X0077560Y0226333D01*
X0077560Y0225333D01*
X0078560Y0225333D01*
X0078560Y0221381D01*
X0080816Y0221381D01*
X0081198Y0221483D01*
X0081540Y0221680D01*
X0081819Y0221960D01*
X0082012Y0222294D01*
X0082525Y0221781D01*
X0087330Y0221781D01*
X0090940Y0218171D01*
X0091877Y0217233D01*
X0125025Y0217233D01*
X0125324Y0216511D01*
X0126478Y0215358D01*
X0127033Y0215127D01*
X0123100Y0211194D01*
X0123100Y0205396D01*
X0118137Y0200433D01*
X0087199Y0200433D01*
X0087199Y0202242D01*
X0086555Y0202886D01*
X0080525Y0202886D01*
X0079881Y0202242D01*
X0079881Y0195425D01*
X0080525Y0194781D01*
X0086555Y0194781D01*
X0087199Y0195425D01*
X0087199Y0197233D01*
X0118137Y0197233D01*
X0124999Y0190371D01*
X0124700Y0189649D01*
X0124700Y0188018D01*
X0125324Y0186511D01*
X0126478Y0185358D01*
X0127984Y0184733D01*
X0129616Y0184733D01*
X0130338Y0185033D01*
X0132700Y0182671D01*
X0132700Y0180132D01*
X0132276Y0181156D01*
X0131122Y0182309D01*
X0129616Y0182933D01*
X0127984Y0182933D01*
X0126478Y0182309D01*
X0125324Y0181156D01*
X0125025Y0180433D01*
X0088703Y0180433D01*
X0088199Y0180937D01*
X0088199Y0185742D01*
X0087555Y0186386D01*
X0081525Y0186386D01*
X0080881Y0185742D01*
X0080881Y0180775D01*
X0080881Y0181068D02*
X0080719Y0181068D01*
X0080719Y0182067D02*
X0080881Y0182067D01*
X0080881Y0183065D02*
X0080719Y0183065D01*
X0080719Y0184064D02*
X0080881Y0184064D01*
X0080881Y0185062D02*
X0080719Y0185062D01*
X0080400Y0186061D02*
X0081200Y0186061D01*
X0077660Y0187059D02*
X0125097Y0187059D01*
X0124700Y0188058D02*
X0077660Y0188058D01*
X0077660Y0189056D02*
X0124700Y0189056D01*
X0124868Y0190055D02*
X0077660Y0190055D01*
X0077660Y0191053D02*
X0124317Y0191053D01*
X0123319Y0192052D02*
X0077660Y0192052D01*
X0077660Y0193050D02*
X0122320Y0193050D01*
X0121322Y0194049D02*
X0077660Y0194049D01*
X0079341Y0195048D02*
X0080259Y0195048D01*
X0079881Y0196046D02*
X0079719Y0196046D01*
X0079719Y0197045D02*
X0079881Y0197045D01*
X0079881Y0198043D02*
X0079719Y0198043D01*
X0079719Y0199042D02*
X0079881Y0199042D01*
X0079881Y0200040D02*
X0079719Y0200040D01*
X0079719Y0201039D02*
X0079881Y0201039D01*
X0079881Y0202037D02*
X0079719Y0202037D01*
X0076060Y0198833D02*
X0071300Y0203593D01*
X0071300Y0282333D01*
X0112300Y0282333D01*
X0114147Y0280486D01*
X0115311Y0280486D01*
X0116300Y0281475D01*
X0117175Y0283915D02*
X0170300Y0283915D01*
X0170300Y0282916D02*
X0118505Y0282916D01*
X0118889Y0281918D02*
X0170300Y0281918D01*
X0170300Y0280919D02*
X0118872Y0280919D01*
X0118407Y0279921D02*
X0170300Y0279921D01*
X0170300Y0278922D02*
X0116903Y0278922D01*
X0113448Y0278922D02*
X0081104Y0278922D01*
X0098946Y0278922D01*
X0100200Y0277924D02*
X0088699Y0277924D01*
X0170300Y0277924D01*
X0170300Y0276925D02*
X0088699Y0276925D01*
X0101453Y0276925D01*
X0102707Y0275927D02*
X0088699Y0275927D01*
X0170300Y0275927D01*
X0170300Y0274928D02*
X0088699Y0274928D01*
X0103961Y0274928D01*
X0105214Y0273930D02*
X0088699Y0273930D01*
X0170300Y0273930D01*
X0170300Y0272931D02*
X0142823Y0272931D01*
X0142721Y0273034D02*
X0142379Y0273231D01*
X0141997Y0273333D01*
X0139300Y0273333D01*
X0139300Y0269333D01*
X0143300Y0269333D01*
X0143300Y0272031D01*
X0143198Y0272412D01*
X0143000Y0272754D01*
X0142721Y0273034D01*
X0143300Y0271933D02*
X0170300Y0271933D01*
X0170300Y0270934D02*
X0143300Y0270934D01*
X0143300Y0269936D02*
X0170300Y0269936D01*
X0170300Y0268937D02*
X0139300Y0268937D01*
X0139300Y0269333D02*
X0139300Y0268333D01*
X0139300Y0264333D01*
X0141997Y0264333D01*
X0142379Y0264436D01*
X0142721Y0264633D01*
X0143000Y0264912D01*
X0143198Y0265254D01*
X0143300Y0265636D01*
X0143300Y0268333D01*
X0139300Y0268333D01*
X0138300Y0268333D01*
X0138300Y0264333D01*
X0135603Y0264333D01*
X0135221Y0264436D01*
X0134879Y0264633D01*
X0134600Y0264912D01*
X0134402Y0265254D01*
X0134300Y0265636D01*
X0134300Y0268333D01*
X0138300Y0268333D01*
X0138300Y0269333D01*
X0134300Y0269333D01*
X0134300Y0272031D01*
X0134402Y0272412D01*
X0134600Y0272754D01*
X0134879Y0273034D01*
X0135221Y0273231D01*
X0135603Y0273333D01*
X0138300Y0273333D01*
X0138300Y0269333D01*
X0181900Y0312933D01*
X0218963Y0312933D01*
X0223563Y0308333D01*
X0322300Y0308333D01*
X0322300Y0209073D01*
X0337540Y0193833D01*
X0338540Y0192833D01*
X0338540Y0171833D01*
X0337540Y0172833D01*
X0331060Y0171833D02*
X0321598Y0171833D01*
X0316800Y0171833D01*
X0316300Y0172333D01*
X0321598Y0171833D02*
X0310498Y0182933D01*
X0308700Y0182933D01*
X0302900Y0188733D01*
X0302900Y0190532D01*
X0300498Y0192933D01*
X0298700Y0192933D01*
X0272800Y0218833D01*
X0272800Y0222833D01*
X0298800Y0248833D01*
X0308800Y0258833D02*
X0319300Y0248333D01*
X0319300Y0206333D01*
X0330060Y0195573D01*
X0330060Y0193833D01*
X0318560Y0182333D01*
X0318300Y0182333D01*
X0308800Y0182833D02*
X0308700Y0182933D01*
X0272800Y0218833D02*
X0204300Y0287333D01*
X0204300Y0292472D01*
X0212217Y0300388D01*
X0212887Y0300388D01*
X0213657Y0301159D02*
X0218300Y0296515D01*
X0218300Y0282333D01*
X0219961Y0280333D02*
X0220495Y0280867D01*
X0220889Y0281818D01*
X0220889Y0282848D01*
X0220495Y0283800D01*
X0219900Y0284395D01*
X0219900Y0297178D01*
X0218963Y0298115D01*
X0215741Y0301337D01*
X0215741Y0302007D01*
X0215841Y0302108D01*
X0216039Y0302450D01*
X0216141Y0302831D01*
X0216141Y0303718D01*
X0216141Y0304604D01*
X0216106Y0304733D01*
X0231300Y0304733D01*
X0231300Y0283333D01*
X0228300Y0280333D01*
X0219961Y0280333D01*
X0220517Y0280919D02*
X0228886Y0280919D01*
X0229885Y0281918D02*
X0220889Y0281918D01*
X0220861Y0282916D02*
X0230883Y0282916D01*
X0231300Y0283915D02*
X0220380Y0283915D01*
X0219900Y0284914D02*
X0231300Y0284914D01*
X0231300Y0285912D02*
X0219900Y0285912D01*
X0219900Y0286911D02*
X0231300Y0286911D01*
X0231300Y0287909D02*
X0219900Y0287909D01*
X0219900Y0288908D02*
X0231300Y0288908D01*
X0231300Y0289906D02*
X0219900Y0289906D01*
X0219900Y0290905D02*
X0231300Y0290905D01*
X0231300Y0291903D02*
X0219900Y0291903D01*
X0219900Y0292902D02*
X0231300Y0292902D01*
X0231300Y0293900D02*
X0219900Y0293900D01*
X0219900Y0294899D02*
X0231300Y0294899D01*
X0231300Y0295897D02*
X0219900Y0295897D01*
X0219900Y0296896D02*
X0231300Y0296896D01*
X0231300Y0297894D02*
X0219184Y0297894D01*
X0218185Y0298893D02*
X0231300Y0298893D01*
X0231300Y0299891D02*
X0217187Y0299891D01*
X0216188Y0300890D02*
X0231300Y0300890D01*
X0231300Y0301888D02*
X0215741Y0301888D01*
X0216141Y0302887D02*
X0231300Y0302887D01*
X0231300Y0303885D02*
X0216141Y0303885D01*
X0216141Y0303718D02*
X0213657Y0303718D01*
X0213657Y0303718D01*
X0216141Y0303718D01*
X0213657Y0303718D02*
X0208815Y0303718D01*
X0206256Y0301159D01*
X0205586Y0301159D01*
X0208070Y0301159D01*
X0208070Y0302045D01*
X0207968Y0302426D01*
X0207770Y0302769D01*
X0207670Y0302869D01*
X0207670Y0304566D01*
X0207770Y0304667D01*
X0207968Y0305009D01*
X0208070Y0305390D01*
X0208070Y0306277D01*
X0208070Y0307163D01*
X0207968Y0307545D01*
X0207770Y0307887D01*
X0207491Y0308166D01*
X0207149Y0308363D01*
X0206768Y0308466D01*
X0205586Y0308466D01*
X0205586Y0306277D01*
X0205586Y0306277D01*
X0208070Y0306277D01*
X0205586Y0306277D01*
X0205586Y0306277D01*
X0205586Y0308466D01*
X0204404Y0308466D01*
X0204023Y0308363D01*
X0203681Y0308166D01*
X0203401Y0307887D01*
X0203204Y0307545D01*
X0203102Y0307163D01*
X0203102Y0306277D01*
X0205586Y0306277D01*
X0206356Y0305507D01*
X0207026Y0305507D01*
X0208815Y0303718D01*
X0207670Y0303885D02*
X0211172Y0303885D01*
X0211172Y0303718D02*
X0213657Y0303718D01*
X0213657Y0303718D01*
X0211172Y0303718D01*
X0211172Y0304604D01*
X0211275Y0304986D01*
X0211472Y0305328D01*
X0211572Y0305428D01*
X0211572Y0307421D01*
X0212217Y0308066D01*
X0215097Y0308066D01*
X0215229Y0307933D01*
X0216700Y0307933D01*
X0216700Y0309733D01*
X0202900Y0309733D01*
X0202900Y0305318D01*
X0203121Y0305318D01*
X0203102Y0305390D01*
X0203102Y0306277D01*
X0205586Y0306277D01*
X0205586Y0306277D01*
X0205586Y0306881D02*
X0205586Y0306881D01*
X0205586Y0307879D02*
X0205586Y0307879D01*
X0207775Y0307879D02*
X0212030Y0307879D01*
X0211572Y0306881D02*
X0208070Y0306881D01*
X0208070Y0305882D02*
X0211572Y0305882D01*
X0211247Y0304884D02*
X0207896Y0304884D01*
X0207670Y0302887D02*
X0211172Y0302887D01*
X0211172Y0302831D02*
X0211275Y0302450D01*
X0211472Y0302108D01*
X0211572Y0302007D01*
X0211572Y0301988D01*
X0211554Y0301988D01*
X0208070Y0298504D01*
X0208070Y0298599D01*
X0205586Y0298599D01*
X0205586Y0296410D01*
X0205976Y0296410D01*
X0203637Y0294072D01*
X0202700Y0293134D01*
X0202700Y0286671D01*
X0209037Y0280333D01*
X0187300Y0280333D01*
X0187300Y0311333D01*
X0199700Y0311333D01*
X0199700Y0305318D01*
X0192977Y0305318D01*
X0192767Y0305528D01*
X0191815Y0305922D01*
X0190785Y0305922D01*
X0189833Y0305528D01*
X0189105Y0304800D01*
X0188711Y0303848D01*
X0188711Y0302818D01*
X0189105Y0301867D01*
X0189833Y0301138D01*
X0190785Y0300744D01*
X0191815Y0300744D01*
X0192767Y0301138D01*
X0193495Y0301867D01*
X0193599Y0302118D01*
X0203121Y0302118D01*
X0203102Y0302045D01*
X0203102Y0301159D01*
X0205586Y0301159D01*
X0205586Y0301158D01*
X0205586Y0298970D01*
X0205586Y0298600D01*
X0205586Y0298600D01*
X0205586Y0301158D01*
X0205586Y0301158D01*
X0208070Y0301158D01*
X0208070Y0300272D01*
X0207968Y0299891D01*
X0209457Y0299891D01*
X0208458Y0298893D02*
X0208070Y0298893D01*
X0208070Y0298600D02*
X0208070Y0299486D01*
X0207968Y0299867D01*
X0207961Y0299879D01*
X0207968Y0299891D01*
X0208070Y0300890D02*
X0210455Y0300890D01*
X0211454Y0301888D02*
X0208070Y0301888D01*
X0205586Y0301159D02*
X0205586Y0298619D01*
X0205300Y0298333D01*
X0201300Y0298333D01*
X0200300Y0298333D01*
X0203102Y0298599D02*
X0203102Y0297713D01*
X0203204Y0297332D01*
X0203401Y0296989D01*
X0203681Y0296710D01*
X0204023Y0296513D01*
X0204404Y0296410D01*
X0205586Y0296410D01*
X0205586Y0298599D01*
X0205586Y0298599D01*
X0205586Y0298600D01*
X0208070Y0298600D01*
X0205586Y0298599D02*
X0205320Y0298333D01*
X0205300Y0298333D01*
X0205586Y0298599D02*
X0203102Y0298599D01*
X0203102Y0298600D02*
X0205586Y0298600D01*
X0205586Y0298599D01*
X0205586Y0298893D02*
X0205586Y0298893D01*
X0205586Y0299891D02*
X0205586Y0299891D01*
X0205586Y0300890D02*
X0205586Y0300890D01*
X0205586Y0301158D02*
X0203102Y0301158D01*
X0203102Y0300272D01*
X0203204Y0299891D01*
X0187300Y0299891D01*
X0187300Y0298893D02*
X0203102Y0298893D01*
X0203102Y0298600D02*
X0203102Y0299486D01*
X0203204Y0299867D01*
X0203210Y0299879D01*
X0203204Y0299891D01*
X0203102Y0300890D02*
X0192166Y0300890D01*
X0193504Y0301888D02*
X0203102Y0301888D01*
X0201300Y0303718D02*
X0191684Y0303718D01*
X0191300Y0303333D01*
X0190434Y0300890D02*
X0187300Y0300890D01*
X0187300Y0301888D02*
X0189096Y0301888D01*
X0188711Y0302887D02*
X0187300Y0302887D01*
X0187300Y0303885D02*
X0188726Y0303885D01*
X0189189Y0304884D02*
X0187300Y0304884D01*
X0187300Y0305882D02*
X0190688Y0305882D01*
X0191912Y0305882D02*
X0199700Y0305882D01*
X0199700Y0306881D02*
X0187300Y0306881D01*
X0187300Y0307879D02*
X0199700Y0307879D01*
X0199700Y0308878D02*
X0187300Y0308878D01*
X0187300Y0309876D02*
X0199700Y0309876D01*
X0199700Y0310875D02*
X0187300Y0310875D01*
X0187300Y0297894D02*
X0203102Y0297894D01*
X0203495Y0296896D02*
X0187300Y0296896D01*
X0187300Y0295897D02*
X0205463Y0295897D01*
X0205586Y0296896D02*
X0205586Y0296896D01*
X0205586Y0297894D02*
X0205586Y0297894D01*
X0204464Y0294899D02*
X0187300Y0294899D01*
X0187300Y0293900D02*
X0203466Y0293900D01*
X0202700Y0292902D02*
X0187300Y0292902D01*
X0187300Y0291903D02*
X0202700Y0291903D01*
X0202700Y0290905D02*
X0187300Y0290905D01*
X0187300Y0289906D02*
X0202700Y0289906D01*
X0202700Y0288908D02*
X0187300Y0288908D01*
X0187300Y0287909D02*
X0202700Y0287909D01*
X0202700Y0286911D02*
X0187300Y0286911D01*
X0187300Y0285912D02*
X0203459Y0285912D01*
X0204457Y0284914D02*
X0187300Y0284914D01*
X0187300Y0283915D02*
X0205456Y0283915D01*
X0206454Y0282916D02*
X0187300Y0282916D01*
X0187300Y0281918D02*
X0207453Y0281918D01*
X0208451Y0280919D02*
X0187300Y0280919D01*
X0169720Y0284914D02*
X0069720Y0284914D01*
X0070619Y0283915D02*
X0054545Y0283915D01*
X0053838Y0282916D02*
X0069700Y0282916D01*
X0069700Y0281918D02*
X0053131Y0281918D01*
X0052424Y0280919D02*
X0069700Y0280919D01*
X0069700Y0279921D02*
X0051716Y0279921D01*
X0051300Y0278922D02*
X0069700Y0278922D01*
X0069700Y0277924D02*
X0051300Y0277924D01*
X0051300Y0276925D02*
X0069700Y0276925D01*
X0069700Y0275927D02*
X0051300Y0275927D01*
X0051300Y0274928D02*
X0069700Y0274928D01*
X0069700Y0273930D02*
X0051300Y0273930D01*
X0051300Y0272931D02*
X0069700Y0272931D01*
X0069700Y0271933D02*
X0051300Y0271933D01*
X0051300Y0270934D02*
X0069700Y0270934D01*
X0069700Y0269936D02*
X0051300Y0269936D01*
X0051300Y0268937D02*
X0069700Y0268937D01*
X0069700Y0267939D02*
X0051300Y0267939D01*
X0051300Y0266940D02*
X0069700Y0266940D01*
X0069700Y0265942D02*
X0051300Y0265942D01*
X0051300Y0264943D02*
X0069700Y0264943D01*
X0069700Y0263945D02*
X0051300Y0263945D01*
X0051300Y0262946D02*
X0069700Y0262946D01*
X0069700Y0261948D02*
X0051300Y0261948D01*
X0051300Y0260949D02*
X0069700Y0260949D01*
X0069700Y0259951D02*
X0051300Y0259951D01*
X0051300Y0258952D02*
X0069700Y0258952D01*
X0069700Y0257954D02*
X0051300Y0257954D01*
X0051300Y0256955D02*
X0069700Y0256955D01*
X0069700Y0255957D02*
X0051300Y0255957D01*
X0051300Y0254958D02*
X0069700Y0254958D01*
X0069700Y0253960D02*
X0051300Y0253960D01*
X0051300Y0252961D02*
X0069700Y0252961D01*
X0069700Y0251963D02*
X0051300Y0251963D01*
X0051300Y0250964D02*
X0069700Y0250964D01*
X0069700Y0249966D02*
X0051300Y0249966D01*
X0051300Y0248967D02*
X0069700Y0248967D01*
X0069700Y0247969D02*
X0051300Y0247969D01*
X0051300Y0246970D02*
X0069700Y0246970D01*
X0069700Y0245972D02*
X0051300Y0245972D01*
X0051300Y0244973D02*
X0069700Y0244973D01*
X0069700Y0243975D02*
X0051300Y0243975D01*
X0051300Y0242976D02*
X0069700Y0242976D01*
X0069700Y0241978D02*
X0051300Y0241978D01*
X0051300Y0240979D02*
X0069700Y0240979D01*
X0069700Y0239981D02*
X0051300Y0239981D01*
X0051300Y0238982D02*
X0069700Y0238982D01*
X0069700Y0237983D02*
X0051300Y0237983D01*
X0051300Y0236985D02*
X0069700Y0236985D01*
X0069700Y0235986D02*
X0051300Y0235986D01*
X0051300Y0234988D02*
X0069700Y0234988D01*
X0069700Y0233989D02*
X0051300Y0233989D01*
X0051300Y0232991D02*
X0069700Y0232991D01*
X0069700Y0231992D02*
X0051300Y0231992D01*
X0051300Y0230994D02*
X0069700Y0230994D01*
X0069700Y0229995D02*
X0051300Y0229995D01*
X0051300Y0228997D02*
X0069700Y0228997D01*
X0069700Y0227998D02*
X0051300Y0227998D01*
X0051300Y0227000D02*
X0069700Y0227000D01*
X0069700Y0226001D02*
X0051300Y0226001D01*
X0051300Y0225003D02*
X0069700Y0225003D01*
X0069700Y0224004D02*
X0051300Y0224004D01*
X0051300Y0223006D02*
X0069700Y0223006D01*
X0069700Y0222007D02*
X0051300Y0222007D01*
X0051300Y0221009D02*
X0069700Y0221009D01*
X0069700Y0220010D02*
X0051300Y0220010D01*
X0051300Y0219012D02*
X0069700Y0219012D01*
X0069700Y0218013D02*
X0051300Y0218013D01*
X0051300Y0217015D02*
X0069700Y0217015D01*
X0069700Y0216016D02*
X0051300Y0216016D01*
X0051300Y0215018D02*
X0069700Y0215018D01*
X0069700Y0214019D02*
X0051300Y0214019D01*
X0051300Y0213021D02*
X0069700Y0213021D01*
X0069700Y0212022D02*
X0051300Y0212022D01*
X0051300Y0211024D02*
X0069700Y0211024D01*
X0069700Y0210025D02*
X0051300Y0210025D01*
X0051300Y0209027D02*
X0069700Y0209027D01*
X0069700Y0208028D02*
X0051300Y0208028D01*
X0051300Y0207030D02*
X0069700Y0207030D01*
X0069700Y0206031D02*
X0051300Y0206031D01*
X0051300Y0205033D02*
X0069700Y0205033D01*
X0069700Y0204034D02*
X0051300Y0204034D01*
X0051300Y0203036D02*
X0069700Y0203036D01*
X0070593Y0202037D02*
X0051300Y0202037D01*
X0051300Y0201039D02*
X0071592Y0201039D01*
X0072401Y0200040D02*
X0051300Y0200040D01*
X0051300Y0199042D02*
X0072401Y0199042D01*
X0072401Y0198043D02*
X0051300Y0198043D01*
X0051300Y0197045D02*
X0072401Y0197045D01*
X0072401Y0196046D02*
X0051300Y0196046D01*
X0051300Y0195048D02*
X0072778Y0195048D01*
X0074460Y0194049D02*
X0051300Y0194049D01*
X0051300Y0193050D02*
X0074460Y0193050D01*
X0074460Y0192052D02*
X0051300Y0192052D01*
X0051300Y0191053D02*
X0074460Y0191053D01*
X0074460Y0190055D02*
X0051300Y0190055D01*
X0051300Y0189056D02*
X0074460Y0189056D01*
X0074460Y0188058D02*
X0051300Y0188058D01*
X0051300Y0187059D02*
X0074460Y0187059D01*
X0073720Y0186061D02*
X0051300Y0186061D01*
X0051300Y0185062D02*
X0073401Y0185062D01*
X0073401Y0184064D02*
X0051300Y0184064D01*
X0051300Y0183065D02*
X0073401Y0183065D01*
X0073401Y0182067D02*
X0051300Y0182067D01*
X0051300Y0181068D02*
X0073401Y0181068D01*
X0073401Y0180070D02*
X0051300Y0180070D01*
X0051300Y0179071D02*
X0073401Y0179071D01*
X0077060Y0182333D02*
X0076060Y0183333D01*
X0076060Y0198833D01*
X0074120Y0203036D02*
X0120740Y0203036D01*
X0121738Y0204034D02*
X0073122Y0204034D01*
X0072900Y0205033D02*
X0122737Y0205033D01*
X0123100Y0206031D02*
X0072900Y0206031D01*
X0072900Y0207030D02*
X0123100Y0207030D01*
X0123100Y0208028D02*
X0072900Y0208028D01*
X0072900Y0209027D02*
X0123100Y0209027D01*
X0123100Y0210025D02*
X0072900Y0210025D01*
X0072900Y0211024D02*
X0123100Y0211024D01*
X0123928Y0212022D02*
X0072900Y0212022D01*
X0072900Y0213021D02*
X0124926Y0213021D01*
X0125925Y0214019D02*
X0072900Y0214019D01*
X0072900Y0215018D02*
X0126923Y0215018D01*
X0125819Y0216016D02*
X0072900Y0216016D01*
X0072900Y0217015D02*
X0125115Y0217015D01*
X0125263Y0221009D02*
X0092627Y0221009D01*
X0091629Y0222007D02*
X0126176Y0222007D01*
X0127334Y0225003D02*
X0089199Y0225003D01*
X0089199Y0226001D02*
X0125834Y0226001D01*
X0128300Y0228333D02*
X0128800Y0228833D01*
X0128300Y0228333D02*
X0097300Y0228333D01*
X0097300Y0228573D01*
X0083540Y0242333D01*
X0087199Y0241978D02*
X0100133Y0241978D01*
X0099135Y0242976D02*
X0087199Y0242976D01*
X0087199Y0243975D02*
X0098136Y0243975D01*
X0097138Y0244973D02*
X0087199Y0244973D01*
X0086969Y0245972D02*
X0096139Y0245972D01*
X0095141Y0246970D02*
X0072900Y0246970D01*
X0072900Y0247969D02*
X0094142Y0247969D01*
X0093144Y0248967D02*
X0072900Y0248967D01*
X0072900Y0249966D02*
X0092145Y0249966D01*
X0091147Y0250964D02*
X0072900Y0250964D01*
X0072900Y0251963D02*
X0090148Y0251963D01*
X0089150Y0252961D02*
X0072900Y0252961D01*
X0072900Y0253960D02*
X0088151Y0253960D01*
X0090680Y0255957D02*
X0101654Y0255957D01*
X0100656Y0256955D02*
X0089681Y0256955D01*
X0089199Y0257954D02*
X0099657Y0257954D01*
X0098659Y0258952D02*
X0089199Y0258952D01*
X0089199Y0259951D02*
X0097660Y0259951D01*
X0096661Y0260949D02*
X0089199Y0260949D01*
X0089199Y0261948D02*
X0095663Y0261948D01*
X0094664Y0262946D02*
X0081580Y0262946D01*
X0078560Y0262946D02*
X0077560Y0262946D01*
X0077560Y0263286D02*
X0075303Y0263286D01*
X0074922Y0263184D01*
X0074580Y0262986D01*
X0074300Y0262707D01*
X0074103Y0262365D01*
X0074001Y0261984D01*
X0074001Y0259333D01*
X0077560Y0259333D01*
X0077560Y0263286D01*
X0077560Y0261948D02*
X0078560Y0261948D01*
X0078560Y0260949D02*
X0077560Y0260949D01*
X0077560Y0259951D02*
X0078560Y0259951D01*
X0078060Y0258833D02*
X0077930Y0258703D01*
X0077560Y0259073D01*
X0077560Y0258952D02*
X0072900Y0258952D01*
X0072900Y0257954D02*
X0074001Y0257954D01*
X0074001Y0258333D02*
X0074001Y0255683D01*
X0074103Y0255302D01*
X0074300Y0254960D01*
X0074580Y0254680D01*
X0074922Y0254483D01*
X0075303Y0254381D01*
X0077560Y0254381D01*
X0077560Y0258333D01*
X0074001Y0258333D01*
X0074001Y0256955D02*
X0072900Y0256955D01*
X0072900Y0255957D02*
X0074001Y0255957D01*
X0074302Y0254958D02*
X0072900Y0254958D01*
X0076060Y0256833D02*
X0077930Y0258703D01*
X0077560Y0257954D02*
X0078560Y0257954D01*
X0078560Y0256955D02*
X0077560Y0256955D01*
X0077560Y0255957D02*
X0078560Y0255957D01*
X0078560Y0254958D02*
X0077560Y0254958D01*
X0081818Y0254958D02*
X0082348Y0254958D01*
X0085540Y0258833D02*
X0109640Y0234733D01*
X0130498Y0234733D01*
X0133598Y0237833D01*
X0139800Y0237833D01*
X0138800Y0238833D01*
X0139800Y0237833D02*
X0207300Y0170333D01*
X0207300Y0106064D01*
X0222892Y0090473D01*
X0222892Y0074324D01*
X0225439Y0071777D01*
X0229041Y0071777D01*
X0233389Y0076125D01*
X0237240Y0076125D01*
X0237300Y0076064D01*
X0237300Y0043333D01*
X0240394Y0040278D02*
X0244206Y0040278D01*
X0243614Y0040870D02*
X0244837Y0039647D01*
X0246435Y0038985D01*
X0248165Y0038985D01*
X0249763Y0039647D01*
X0250986Y0040870D01*
X0251648Y0042468D01*
X0251648Y0044198D01*
X0250986Y0045796D01*
X0249763Y0047019D01*
X0248165Y0047681D01*
X0246435Y0047681D01*
X0244837Y0047019D01*
X0243614Y0045796D01*
X0242952Y0044198D01*
X0242952Y0042468D01*
X0243614Y0040870D01*
X0243446Y0041277D02*
X0241154Y0041277D01*
X0241568Y0042275D02*
X0243032Y0042275D01*
X0242952Y0043274D02*
X0241648Y0043274D01*
X0241617Y0044272D02*
X0242983Y0044272D01*
X0243396Y0045271D02*
X0241204Y0045271D01*
X0240513Y0046269D02*
X0244087Y0046269D01*
X0245437Y0047268D02*
X0239163Y0047268D01*
X0238900Y0048266D02*
X0255640Y0048266D01*
X0255640Y0049265D02*
X0238900Y0049265D01*
X0238900Y0050263D02*
X0255640Y0050263D01*
X0255640Y0051262D02*
X0238900Y0051262D01*
X0238900Y0052260D02*
X0255640Y0052260D01*
X0255640Y0053259D02*
X0238900Y0053259D01*
X0238900Y0054257D02*
X0255640Y0054257D01*
X0255640Y0055256D02*
X0238900Y0055256D01*
X0238900Y0056254D02*
X0255640Y0056254D01*
X0255640Y0057253D02*
X0238900Y0057253D01*
X0238900Y0058251D02*
X0255640Y0058251D01*
X0255640Y0059250D02*
X0238900Y0059250D01*
X0238900Y0060248D02*
X0255640Y0060248D01*
X0255640Y0061247D02*
X0238900Y0061247D01*
X0238900Y0062245D02*
X0255640Y0062245D01*
X0255640Y0063244D02*
X0238900Y0063244D01*
X0238900Y0064243D02*
X0255640Y0064243D01*
X0255640Y0065241D02*
X0238900Y0065241D01*
X0238900Y0066240D02*
X0255640Y0066240D01*
X0255640Y0067238D02*
X0238900Y0067238D01*
X0238900Y0068237D02*
X0255640Y0068237D01*
X0255640Y0069235D02*
X0238900Y0069235D01*
X0238900Y0070234D02*
X0255640Y0070234D01*
X0255640Y0071232D02*
X0238900Y0071232D01*
X0239201Y0072231D02*
X0245279Y0072231D01*
X0243986Y0073229D02*
X0240493Y0073229D01*
X0241160Y0074228D02*
X0243319Y0074228D01*
X0242906Y0075226D02*
X0241574Y0075226D01*
X0241588Y0076225D02*
X0242892Y0076225D01*
X0242989Y0077223D02*
X0241491Y0077223D01*
X0241077Y0078222D02*
X0243402Y0078222D01*
X0244186Y0079220D02*
X0240293Y0079220D01*
X0238718Y0080219D02*
X0245762Y0080219D01*
X0248718Y0080219D02*
X0252922Y0080219D01*
X0253921Y0081217D02*
X0228840Y0081217D01*
X0228840Y0080219D02*
X0235762Y0080219D01*
X0234186Y0079220D02*
X0230293Y0079220D01*
X0231077Y0078222D02*
X0233402Y0078222D01*
X0232225Y0077223D02*
X0231491Y0077223D01*
X0232756Y0073229D02*
X0233986Y0073229D01*
X0235279Y0072231D02*
X0231758Y0072231D01*
X0230759Y0071232D02*
X0235700Y0071232D01*
X0235700Y0070234D02*
X0229761Y0070234D01*
X0224719Y0070234D02*
X0218840Y0070234D01*
X0218840Y0071232D02*
X0223720Y0071232D01*
X0222722Y0072231D02*
X0219201Y0072231D01*
X0220493Y0073229D02*
X0221723Y0073229D01*
X0221292Y0074228D02*
X0221160Y0074228D01*
X0221077Y0078222D02*
X0221292Y0078222D01*
X0221292Y0079220D02*
X0220293Y0079220D01*
X0221292Y0080219D02*
X0218718Y0080219D01*
X0221292Y0081217D02*
X0188840Y0081217D01*
X0188840Y0080219D02*
X0195762Y0080219D01*
X0196375Y0080473D02*
X0194777Y0079811D01*
X0193554Y0078588D01*
X0192892Y0076989D01*
X0192892Y0075260D01*
X0193554Y0073662D01*
X0194777Y0072438D01*
X0195640Y0072081D01*
X0195640Y0047352D01*
X0194837Y0047019D01*
X0193614Y0045796D01*
X0192952Y0044198D01*
X0192952Y0042468D01*
X0193614Y0040870D01*
X0194837Y0039647D01*
X0196435Y0038985D01*
X0198165Y0038985D01*
X0199763Y0039647D01*
X0200986Y0040870D01*
X0201648Y0042468D01*
X0201648Y0044198D01*
X0200986Y0045796D01*
X0199763Y0047019D01*
X0198840Y0047402D01*
X0198840Y0072081D01*
X0199703Y0072438D01*
X0200926Y0073662D01*
X0201588Y0075260D01*
X0201588Y0076989D01*
X0200926Y0078588D01*
X0199703Y0079811D01*
X0198105Y0080473D01*
X0196375Y0080473D01*
X0198718Y0080219D02*
X0205762Y0080219D01*
X0206375Y0080473D02*
X0204777Y0079811D01*
X0203554Y0078588D01*
X0202892Y0076989D01*
X0202892Y0075260D01*
X0203554Y0073662D01*
X0204777Y0072438D01*
X0206375Y0071777D01*
X0208105Y0071777D01*
X0209703Y0072438D01*
X0210926Y0073662D01*
X0211588Y0075260D01*
X0211588Y0076989D01*
X0210926Y0078588D01*
X0209703Y0079811D01*
X0208105Y0080473D01*
X0206375Y0080473D01*
X0208718Y0080219D02*
X0215762Y0080219D01*
X0214186Y0079220D02*
X0210293Y0079220D01*
X0211077Y0078222D02*
X0213402Y0078222D01*
X0212989Y0077223D02*
X0211491Y0077223D01*
X0211588Y0076225D02*
X0212892Y0076225D01*
X0212906Y0075226D02*
X0211574Y0075226D01*
X0211160Y0074228D02*
X0213319Y0074228D01*
X0213986Y0073229D02*
X0210493Y0073229D01*
X0209201Y0072231D02*
X0215279Y0072231D01*
X0215640Y0071232D02*
X0198840Y0071232D01*
X0198840Y0070234D02*
X0215640Y0070234D01*
X0215640Y0069235D02*
X0198840Y0069235D01*
X0198840Y0068237D02*
X0215640Y0068237D01*
X0215640Y0067238D02*
X0198840Y0067238D01*
X0198840Y0066240D02*
X0215640Y0066240D01*
X0215640Y0065241D02*
X0198840Y0065241D01*
X0198840Y0064243D02*
X0215640Y0064243D01*
X0215640Y0063244D02*
X0198840Y0063244D01*
X0198840Y0062245D02*
X0215640Y0062245D01*
X0215640Y0061247D02*
X0198840Y0061247D01*
X0198840Y0060248D02*
X0215640Y0060248D01*
X0215640Y0059250D02*
X0198840Y0059250D01*
X0198840Y0058251D02*
X0215640Y0058251D01*
X0215640Y0057253D02*
X0198840Y0057253D01*
X0198840Y0056254D02*
X0215640Y0056254D01*
X0215640Y0055256D02*
X0198840Y0055256D01*
X0198840Y0054257D02*
X0215640Y0054257D01*
X0215640Y0053259D02*
X0198840Y0053259D01*
X0198840Y0052260D02*
X0215640Y0052260D01*
X0215640Y0051262D02*
X0198840Y0051262D01*
X0198840Y0050263D02*
X0215640Y0050263D01*
X0215640Y0049265D02*
X0198840Y0049265D01*
X0198840Y0048266D02*
X0215640Y0048266D01*
X0215437Y0047268D02*
X0209163Y0047268D01*
X0209763Y0047019D02*
X0208165Y0047681D01*
X0206435Y0047681D01*
X0204837Y0047019D01*
X0203614Y0045796D01*
X0202952Y0044198D01*
X0202952Y0042468D01*
X0203614Y0040870D01*
X0204837Y0039647D01*
X0206435Y0038985D01*
X0208165Y0038985D01*
X0209763Y0039647D01*
X0210986Y0040870D01*
X0211648Y0042468D01*
X0211648Y0044198D01*
X0210986Y0045796D01*
X0209763Y0047019D01*
X0210513Y0046269D02*
X0214087Y0046269D01*
X0213396Y0045271D02*
X0211204Y0045271D01*
X0211617Y0044272D02*
X0212983Y0044272D01*
X0212952Y0043274D02*
X0211648Y0043274D01*
X0211568Y0042275D02*
X0213032Y0042275D01*
X0213446Y0041277D02*
X0211154Y0041277D01*
X0210394Y0040278D02*
X0214206Y0040278D01*
X0215724Y0039280D02*
X0208876Y0039280D01*
X0205724Y0039280D02*
X0198876Y0039280D01*
X0200394Y0040278D02*
X0204206Y0040278D01*
X0203446Y0041277D02*
X0201154Y0041277D01*
X0201568Y0042275D02*
X0203032Y0042275D01*
X0202952Y0043274D02*
X0201648Y0043274D01*
X0201617Y0044272D02*
X0202983Y0044272D01*
X0203396Y0045271D02*
X0201204Y0045271D01*
X0200513Y0046269D02*
X0204087Y0046269D01*
X0205437Y0047268D02*
X0199163Y0047268D01*
X0197300Y0046333D02*
X0197240Y0046394D01*
X0197300Y0046333D02*
X0197300Y0043333D01*
X0197300Y0042333D01*
X0197240Y0042394D01*
X0197240Y0076125D01*
X0200293Y0079220D02*
X0204186Y0079220D01*
X0203402Y0078222D02*
X0201077Y0078222D01*
X0201491Y0077223D02*
X0202989Y0077223D01*
X0202892Y0076225D02*
X0201588Y0076225D01*
X0201574Y0075226D02*
X0202906Y0075226D01*
X0203319Y0074228D02*
X0201160Y0074228D01*
X0200493Y0073229D02*
X0203986Y0073229D01*
X0205279Y0072231D02*
X0199201Y0072231D01*
X0195640Y0071232D02*
X0188840Y0071232D01*
X0188840Y0070234D02*
X0195640Y0070234D01*
X0195640Y0069235D02*
X0188840Y0069235D01*
X0188840Y0068237D02*
X0195640Y0068237D01*
X0195640Y0067238D02*
X0188840Y0067238D01*
X0188840Y0066240D02*
X0195640Y0066240D01*
X0195640Y0065241D02*
X0188840Y0065241D01*
X0188840Y0064243D02*
X0195640Y0064243D01*
X0195640Y0063244D02*
X0188840Y0063244D01*
X0188840Y0062245D02*
X0195640Y0062245D01*
X0195640Y0061247D02*
X0188840Y0061247D01*
X0188840Y0060248D02*
X0195640Y0060248D01*
X0195640Y0059250D02*
X0188840Y0059250D01*
X0188840Y0058251D02*
X0195640Y0058251D01*
X0195640Y0057253D02*
X0188840Y0057253D01*
X0188840Y0056254D02*
X0195640Y0056254D01*
X0195640Y0055256D02*
X0188840Y0055256D01*
X0188840Y0054257D02*
X0195640Y0054257D01*
X0195640Y0053259D02*
X0188840Y0053259D01*
X0188840Y0052260D02*
X0195640Y0052260D01*
X0195640Y0051262D02*
X0188840Y0051262D01*
X0188840Y0050263D02*
X0195640Y0050263D01*
X0195640Y0049265D02*
X0188840Y0049265D01*
X0188840Y0048266D02*
X0195640Y0048266D01*
X0195437Y0047268D02*
X0189163Y0047268D01*
X0190513Y0046269D02*
X0194087Y0046269D01*
X0193396Y0045271D02*
X0191204Y0045271D01*
X0191617Y0044272D02*
X0192983Y0044272D01*
X0192952Y0043274D02*
X0191648Y0043274D01*
X0191568Y0042275D02*
X0193032Y0042275D01*
X0193446Y0041277D02*
X0191154Y0041277D01*
X0190394Y0040278D02*
X0194206Y0040278D01*
X0195724Y0039280D02*
X0188876Y0039280D01*
X0185724Y0039280D02*
X0178876Y0039280D01*
X0178165Y0038985D02*
X0179763Y0039647D01*
X0180986Y0040870D01*
X0181648Y0042468D01*
X0181648Y0044198D01*
X0180986Y0045796D01*
X0179763Y0047019D01*
X0178900Y0047377D01*
X0178900Y0072106D01*
X0179703Y0072438D01*
X0180926Y0073662D01*
X0181588Y0075260D01*
X0181588Y0076989D01*
X0180926Y0078588D01*
X0179703Y0079811D01*
X0178105Y0080473D01*
X0176375Y0080473D01*
X0174777Y0079811D01*
X0173554Y0078588D01*
X0172892Y0076989D01*
X0172892Y0075260D01*
X0173554Y0073662D01*
X0174777Y0072438D01*
X0175700Y0072056D01*
X0175700Y0047377D01*
X0174837Y0047019D01*
X0173614Y0045796D01*
X0172952Y0044198D01*
X0172952Y0042468D01*
X0173614Y0040870D01*
X0174837Y0039647D01*
X0176435Y0038985D01*
X0178165Y0038985D01*
X0175724Y0039280D02*
X0171298Y0039280D01*
X0171004Y0038985D02*
X0171648Y0039630D01*
X0171648Y0047037D01*
X0171004Y0047681D01*
X0168840Y0047681D01*
X0168840Y0071777D01*
X0170943Y0071777D01*
X0171588Y0072421D01*
X0171588Y0079828D01*
X0170943Y0080473D01*
X0163536Y0080473D01*
X0162892Y0079828D01*
X0162892Y0072421D01*
X0163536Y0071777D01*
X0165640Y0071777D01*
X0165640Y0047681D01*
X0163596Y0047681D01*
X0162952Y0047037D01*
X0162952Y0039630D01*
X0163596Y0038985D01*
X0171004Y0038985D01*
X0171648Y0040278D02*
X0174206Y0040278D01*
X0173446Y0041277D02*
X0171648Y0041277D01*
X0171648Y0042275D02*
X0173032Y0042275D01*
X0172952Y0043274D02*
X0171648Y0043274D01*
X0171648Y0044272D02*
X0172983Y0044272D01*
X0173396Y0045271D02*
X0171648Y0045271D01*
X0171648Y0046269D02*
X0174087Y0046269D01*
X0175437Y0047268D02*
X0171417Y0047268D01*
X0168840Y0048266D02*
X0175700Y0048266D01*
X0175700Y0049265D02*
X0168840Y0049265D01*
X0168840Y0050263D02*
X0175700Y0050263D01*
X0175700Y0051262D02*
X0168840Y0051262D01*
X0168840Y0052260D02*
X0175700Y0052260D01*
X0175700Y0053259D02*
X0168840Y0053259D01*
X0168840Y0054257D02*
X0175700Y0054257D01*
X0175700Y0055256D02*
X0168840Y0055256D01*
X0168840Y0056254D02*
X0175700Y0056254D01*
X0175700Y0057253D02*
X0168840Y0057253D01*
X0168840Y0058251D02*
X0175700Y0058251D01*
X0175700Y0059250D02*
X0168840Y0059250D01*
X0168840Y0060248D02*
X0175700Y0060248D01*
X0175700Y0061247D02*
X0168840Y0061247D01*
X0168840Y0062245D02*
X0175700Y0062245D01*
X0175700Y0063244D02*
X0168840Y0063244D01*
X0168840Y0064243D02*
X0175700Y0064243D01*
X0175700Y0065241D02*
X0168840Y0065241D01*
X0168840Y0066240D02*
X0175700Y0066240D01*
X0175700Y0067238D02*
X0168840Y0067238D01*
X0168840Y0068237D02*
X0175700Y0068237D01*
X0175700Y0069235D02*
X0168840Y0069235D01*
X0168840Y0070234D02*
X0175700Y0070234D01*
X0175700Y0071232D02*
X0168840Y0071232D01*
X0171398Y0072231D02*
X0175279Y0072231D01*
X0173986Y0073229D02*
X0171588Y0073229D01*
X0171588Y0074228D02*
X0173319Y0074228D01*
X0172906Y0075226D02*
X0171588Y0075226D01*
X0171588Y0076225D02*
X0172892Y0076225D01*
X0172989Y0077223D02*
X0171588Y0077223D01*
X0171588Y0078222D02*
X0173402Y0078222D01*
X0174186Y0079220D02*
X0171588Y0079220D01*
X0171197Y0080219D02*
X0175762Y0080219D01*
X0178718Y0080219D02*
X0185640Y0080219D01*
X0185640Y0081217D02*
X0158900Y0081217D01*
X0158900Y0080219D02*
X0163282Y0080219D01*
X0162892Y0079220D02*
X0158900Y0079220D01*
X0158900Y0078222D02*
X0162892Y0078222D01*
X0162892Y0077223D02*
X0158900Y0077223D01*
X0158900Y0076225D02*
X0162892Y0076225D01*
X0162892Y0075226D02*
X0158900Y0075226D01*
X0158900Y0074228D02*
X0162892Y0074228D01*
X0162892Y0073229D02*
X0158900Y0073229D01*
X0158900Y0072231D02*
X0163082Y0072231D01*
X0165640Y0071232D02*
X0158900Y0071232D01*
X0158900Y0070234D02*
X0165640Y0070234D01*
X0165640Y0069235D02*
X0158900Y0069235D01*
X0158900Y0068237D02*
X0165640Y0068237D01*
X0165640Y0067238D02*
X0158900Y0067238D01*
X0158900Y0066240D02*
X0165640Y0066240D01*
X0165640Y0065241D02*
X0158900Y0065241D01*
X0158900Y0064243D02*
X0165640Y0064243D01*
X0165640Y0063244D02*
X0158900Y0063244D01*
X0158900Y0062245D02*
X0165640Y0062245D01*
X0165640Y0061247D02*
X0158900Y0061247D01*
X0158900Y0060248D02*
X0165640Y0060248D01*
X0165640Y0059250D02*
X0158900Y0059250D01*
X0158900Y0058251D02*
X0165640Y0058251D01*
X0165640Y0057253D02*
X0158900Y0057253D01*
X0158900Y0056254D02*
X0165640Y0056254D01*
X0165640Y0055256D02*
X0158900Y0055256D01*
X0158900Y0054257D02*
X0165640Y0054257D01*
X0165640Y0053259D02*
X0158900Y0053259D01*
X0158900Y0052260D02*
X0165640Y0052260D01*
X0165640Y0051262D02*
X0158900Y0051262D01*
X0158900Y0050263D02*
X0165640Y0050263D01*
X0165640Y0049265D02*
X0158900Y0049265D01*
X0158900Y0048266D02*
X0165640Y0048266D01*
X0163183Y0047268D02*
X0158900Y0047268D01*
X0158900Y0046269D02*
X0162952Y0046269D01*
X0162952Y0045271D02*
X0158900Y0045271D01*
X0158900Y0044272D02*
X0162952Y0044272D01*
X0162952Y0043274D02*
X0158900Y0043274D01*
X0158900Y0042275D02*
X0162952Y0042275D01*
X0162952Y0041277D02*
X0158900Y0041277D01*
X0158900Y0040278D02*
X0162952Y0040278D01*
X0163302Y0039280D02*
X0158900Y0039280D01*
X0158900Y0038281D02*
X0286248Y0038281D01*
X0285249Y0037283D02*
X0158900Y0037283D01*
X0158900Y0036284D02*
X0284251Y0036284D01*
X0283252Y0035286D02*
X0158900Y0035286D01*
X0158900Y0034287D02*
X0282254Y0034287D01*
X0281255Y0033289D02*
X0158900Y0033289D01*
X0158900Y0032290D02*
X0280257Y0032290D01*
X0279258Y0031292D02*
X0158900Y0031292D01*
X0158900Y0030293D02*
X0278260Y0030293D01*
X0277261Y0029295D02*
X0158900Y0029295D01*
X0158900Y0028296D02*
X0276263Y0028296D01*
X0275264Y0027298D02*
X0158900Y0027298D01*
X0158900Y0026299D02*
X0274266Y0026299D01*
X0287246Y0039280D02*
X0258876Y0039280D01*
X0260394Y0040278D02*
X0288245Y0040278D01*
X0289243Y0041277D02*
X0261154Y0041277D01*
X0261568Y0042275D02*
X0290242Y0042275D01*
X0291240Y0043274D02*
X0261648Y0043274D01*
X0261617Y0044272D02*
X0292239Y0044272D01*
X0291980Y0045271D02*
X0261204Y0045271D01*
X0260513Y0046269D02*
X0290981Y0046269D01*
X0289983Y0047268D02*
X0259163Y0047268D01*
X0258840Y0048266D02*
X0288984Y0048266D01*
X0287986Y0049265D02*
X0258840Y0049265D01*
X0258840Y0050263D02*
X0286987Y0050263D01*
X0285989Y0051262D02*
X0258840Y0051262D01*
X0258840Y0052260D02*
X0284990Y0052260D01*
X0283992Y0053259D02*
X0258840Y0053259D01*
X0258840Y0054257D02*
X0282993Y0054257D01*
X0281995Y0055256D02*
X0258840Y0055256D01*
X0258840Y0056254D02*
X0280996Y0056254D01*
X0279998Y0057253D02*
X0258840Y0057253D01*
X0258840Y0058251D02*
X0278999Y0058251D01*
X0278001Y0059250D02*
X0258840Y0059250D01*
X0258840Y0060248D02*
X0277002Y0060248D01*
X0276004Y0061247D02*
X0258840Y0061247D01*
X0258840Y0062245D02*
X0275005Y0062245D01*
X0274007Y0063244D02*
X0258840Y0063244D01*
X0258840Y0064243D02*
X0273008Y0064243D01*
X0272010Y0065241D02*
X0258840Y0065241D01*
X0258840Y0066240D02*
X0271011Y0066240D01*
X0270013Y0067238D02*
X0258840Y0067238D01*
X0258840Y0068237D02*
X0269014Y0068237D01*
X0268016Y0069235D02*
X0258840Y0069235D01*
X0258840Y0070234D02*
X0267017Y0070234D01*
X0266019Y0071232D02*
X0258840Y0071232D01*
X0259201Y0072231D02*
X0265020Y0072231D01*
X0264022Y0073229D02*
X0260493Y0073229D01*
X0261160Y0074228D02*
X0263023Y0074228D01*
X0262025Y0075226D02*
X0261574Y0075226D01*
X0264553Y0077223D02*
X0299300Y0077223D01*
X0299300Y0076225D02*
X0265551Y0076225D01*
X0266550Y0075226D02*
X0299300Y0075226D01*
X0299300Y0074228D02*
X0267548Y0074228D01*
X0268547Y0073229D02*
X0299300Y0073229D01*
X0299300Y0072231D02*
X0269546Y0072231D01*
X0270544Y0071232D02*
X0299300Y0071232D01*
X0299300Y0070234D02*
X0271543Y0070234D01*
X0272541Y0069235D02*
X0299300Y0069235D01*
X0299300Y0068237D02*
X0273540Y0068237D01*
X0274538Y0067238D02*
X0299300Y0067238D01*
X0299300Y0066240D02*
X0275537Y0066240D01*
X0276535Y0065241D02*
X0299300Y0065241D01*
X0299300Y0064243D02*
X0277534Y0064243D01*
X0278532Y0063244D02*
X0299300Y0063244D01*
X0299300Y0062245D02*
X0279531Y0062245D01*
X0280529Y0061247D02*
X0299300Y0061247D01*
X0299300Y0060248D02*
X0281528Y0060248D01*
X0282526Y0059250D02*
X0299300Y0059250D01*
X0299300Y0058251D02*
X0283525Y0058251D01*
X0284523Y0057253D02*
X0299300Y0057253D01*
X0299300Y0056254D02*
X0285522Y0056254D01*
X0286520Y0055256D02*
X0299300Y0055256D01*
X0299300Y0054257D02*
X0287519Y0054257D01*
X0288517Y0053259D02*
X0299300Y0053259D01*
X0299300Y0052260D02*
X0289516Y0052260D01*
X0290514Y0051262D02*
X0299229Y0051262D01*
X0298230Y0050263D02*
X0291513Y0050263D01*
X0292511Y0049265D02*
X0297232Y0049265D01*
X0296233Y0048266D02*
X0293510Y0048266D01*
X0294508Y0047268D02*
X0295234Y0047268D01*
X0298300Y0041213D02*
X0259041Y0080473D01*
X0255439Y0080473D01*
X0251091Y0076125D01*
X0247240Y0076125D01*
X0250293Y0079220D02*
X0251924Y0079220D01*
X0252455Y0075226D02*
X0252906Y0075226D01*
X0253319Y0074228D02*
X0251160Y0074228D01*
X0250493Y0073229D02*
X0253986Y0073229D01*
X0255279Y0072231D02*
X0249201Y0072231D01*
X0257240Y0076125D02*
X0257240Y0043394D01*
X0257300Y0043333D01*
X0254206Y0040278D02*
X0250394Y0040278D01*
X0251154Y0041277D02*
X0253446Y0041277D01*
X0253032Y0042275D02*
X0251568Y0042275D01*
X0251648Y0043274D02*
X0252952Y0043274D01*
X0252983Y0044272D02*
X0251617Y0044272D01*
X0251204Y0045271D02*
X0253396Y0045271D01*
X0254087Y0046269D02*
X0250513Y0046269D01*
X0249163Y0047268D02*
X0255437Y0047268D01*
X0255724Y0039280D02*
X0248876Y0039280D01*
X0245724Y0039280D02*
X0238876Y0039280D01*
X0235724Y0039280D02*
X0228876Y0039280D01*
X0228165Y0038985D02*
X0229763Y0039647D01*
X0230986Y0040870D01*
X0231648Y0042468D01*
X0231648Y0044198D01*
X0230986Y0045796D01*
X0229763Y0047019D01*
X0228165Y0047681D01*
X0226435Y0047681D01*
X0224837Y0047019D01*
X0223614Y0045796D01*
X0222952Y0044198D01*
X0222952Y0042468D01*
X0223614Y0040870D01*
X0224837Y0039647D01*
X0226435Y0038985D01*
X0228165Y0038985D01*
X0225724Y0039280D02*
X0218876Y0039280D01*
X0220394Y0040278D02*
X0224206Y0040278D01*
X0223446Y0041277D02*
X0221154Y0041277D01*
X0221568Y0042275D02*
X0223032Y0042275D01*
X0222952Y0043274D02*
X0221648Y0043274D01*
X0221617Y0044272D02*
X0222983Y0044272D01*
X0223396Y0045271D02*
X0221204Y0045271D01*
X0220513Y0046269D02*
X0224087Y0046269D01*
X0225437Y0047268D02*
X0219163Y0047268D01*
X0218840Y0048266D02*
X0235700Y0048266D01*
X0235700Y0049265D02*
X0218840Y0049265D01*
X0218840Y0050263D02*
X0235700Y0050263D01*
X0235700Y0051262D02*
X0218840Y0051262D01*
X0218840Y0052260D02*
X0235700Y0052260D01*
X0235700Y0053259D02*
X0218840Y0053259D01*
X0218840Y0054257D02*
X0235700Y0054257D01*
X0235700Y0055256D02*
X0218840Y0055256D01*
X0218840Y0056254D02*
X0235700Y0056254D01*
X0235700Y0057253D02*
X0218840Y0057253D01*
X0218840Y0058251D02*
X0235700Y0058251D01*
X0235700Y0059250D02*
X0218840Y0059250D01*
X0218840Y0060248D02*
X0235700Y0060248D01*
X0235700Y0061247D02*
X0218840Y0061247D01*
X0218840Y0062245D02*
X0235700Y0062245D01*
X0235700Y0063244D02*
X0218840Y0063244D01*
X0218840Y0064243D02*
X0235700Y0064243D01*
X0235700Y0065241D02*
X0218840Y0065241D01*
X0218840Y0066240D02*
X0235700Y0066240D01*
X0235700Y0067238D02*
X0218840Y0067238D01*
X0218840Y0068237D02*
X0235700Y0068237D01*
X0235700Y0069235D02*
X0218840Y0069235D01*
X0217240Y0076125D02*
X0217240Y0043394D01*
X0217300Y0043333D01*
X0227240Y0043394D02*
X0227300Y0043333D01*
X0230394Y0040278D02*
X0234206Y0040278D01*
X0233446Y0041277D02*
X0231154Y0041277D01*
X0231568Y0042275D02*
X0233032Y0042275D01*
X0232952Y0043274D02*
X0231648Y0043274D01*
X0231617Y0044272D02*
X0232983Y0044272D01*
X0233396Y0045271D02*
X0231204Y0045271D01*
X0230513Y0046269D02*
X0234087Y0046269D01*
X0235437Y0047268D02*
X0229163Y0047268D01*
X0247240Y0043394D02*
X0247300Y0043333D01*
X0227240Y0076125D02*
X0227240Y0160394D01*
X0138800Y0248833D01*
X0134598Y0248833D01*
X0130498Y0252933D01*
X0106940Y0252933D01*
X0085040Y0274833D01*
X0089205Y0272931D02*
X0125342Y0272931D01*
X0125344Y0272933D02*
X0124700Y0272289D01*
X0124700Y0265378D01*
X0125344Y0264733D01*
X0132256Y0264733D01*
X0132900Y0265378D01*
X0132900Y0272289D01*
X0132256Y0272933D01*
X0125344Y0272933D01*
X0124700Y0271933D02*
X0090203Y0271933D01*
X0107721Y0271933D01*
X0106468Y0272931D02*
X0089205Y0272931D01*
X0091202Y0270934D02*
X0124700Y0270934D01*
X0124700Y0269936D02*
X0092200Y0269936D01*
X0110228Y0269936D01*
X0108975Y0270934D02*
X0091202Y0270934D01*
X0093199Y0268937D02*
X0124700Y0268937D01*
X0124700Y0267939D02*
X0094197Y0267939D01*
X0112735Y0267939D01*
X0111482Y0268937D02*
X0093199Y0268937D01*
X0095196Y0266940D02*
X0124700Y0266940D01*
X0124700Y0265942D02*
X0096194Y0265942D01*
X0115243Y0265942D01*
X0116496Y0264943D02*
X0097193Y0264943D01*
X0125134Y0264943D01*
X0126116Y0261948D02*
X0100188Y0261948D01*
X0120257Y0261948D01*
X0119003Y0262946D02*
X0099190Y0262946D01*
X0170300Y0262946D01*
X0170300Y0261948D02*
X0141484Y0261948D01*
X0141122Y0262309D02*
X0139616Y0262933D01*
X0137984Y0262933D01*
X0136478Y0262309D01*
X0135324Y0261156D01*
X0134700Y0259649D01*
X0134700Y0258018D01*
X0135324Y0256511D01*
X0136478Y0255358D01*
X0137984Y0254733D01*
X0139616Y0254733D01*
X0141122Y0255358D01*
X0142276Y0256511D01*
X0142900Y0258018D01*
X0142900Y0259649D01*
X0142276Y0261156D01*
X0141122Y0262309D01*
X0142361Y0260949D02*
X0170300Y0260949D01*
X0170300Y0259951D02*
X0142775Y0259951D01*
X0142900Y0258952D02*
X0170300Y0258952D01*
X0170300Y0257954D02*
X0142873Y0257954D01*
X0142460Y0256955D02*
X0170300Y0256955D01*
X0170300Y0255957D02*
X0141722Y0255957D01*
X0140158Y0254958D02*
X0170300Y0254958D01*
X0170300Y0253960D02*
X0131735Y0253960D01*
X0132733Y0252961D02*
X0170300Y0252961D01*
X0170300Y0251963D02*
X0141469Y0251963D01*
X0142355Y0250964D02*
X0170300Y0250964D01*
X0170300Y0249966D02*
X0142769Y0249966D01*
X0142900Y0248967D02*
X0170300Y0248967D01*
X0170300Y0247969D02*
X0142880Y0247969D01*
X0142926Y0246970D02*
X0170300Y0246970D01*
X0170300Y0245972D02*
X0143924Y0245972D01*
X0144923Y0244973D02*
X0170300Y0244973D01*
X0170300Y0243975D02*
X0145921Y0243975D01*
X0146920Y0242976D02*
X0170300Y0242976D01*
X0170300Y0241978D02*
X0147919Y0241978D01*
X0148917Y0240979D02*
X0170300Y0240979D01*
X0170300Y0239981D02*
X0149916Y0239981D01*
X0150914Y0238982D02*
X0170300Y0238982D01*
X0170300Y0237983D02*
X0151913Y0237983D01*
X0152911Y0236985D02*
X0170300Y0236985D01*
X0170300Y0235986D02*
X0153910Y0235986D01*
X0154908Y0234988D02*
X0170300Y0234988D01*
X0170300Y0233989D02*
X0155907Y0233989D01*
X0156905Y0232991D02*
X0170300Y0232991D01*
X0170300Y0231992D02*
X0157904Y0231992D01*
X0158902Y0230994D02*
X0170300Y0230994D01*
X0170300Y0229995D02*
X0159901Y0229995D01*
X0160371Y0229995D01*
X0160899Y0228997D02*
X0170300Y0228997D01*
X0170300Y0227998D02*
X0161898Y0227998D01*
X0162878Y0227998D01*
X0162896Y0227000D02*
X0170300Y0227000D01*
X0170300Y0226001D02*
X0163895Y0226001D01*
X0165385Y0226001D01*
X0164893Y0225003D02*
X0166639Y0225003D01*
X0165892Y0224004D02*
X0170300Y0224004D01*
X0170300Y0223006D02*
X0166890Y0223006D01*
X0169146Y0223006D01*
X0170300Y0222007D02*
X0167889Y0222007D01*
X0170399Y0222007D01*
X0171653Y0221009D02*
X0168887Y0221009D01*
X0169886Y0220010D02*
X0172907Y0220010D01*
X0174160Y0219012D02*
X0170884Y0219012D01*
X0171883Y0218013D02*
X0175414Y0218013D01*
X0176667Y0217015D02*
X0172881Y0217015D01*
X0173880Y0216016D02*
X0177921Y0216016D01*
X0179174Y0215018D02*
X0174878Y0215018D01*
X0175877Y0214019D02*
X0180428Y0214019D01*
X0181682Y0213021D02*
X0176875Y0213021D01*
X0177874Y0212022D02*
X0182935Y0212022D01*
X0184189Y0211024D02*
X0178872Y0211024D01*
X0179871Y0210025D02*
X0185442Y0210025D01*
X0186696Y0209027D02*
X0180869Y0209027D01*
X0181868Y0208028D02*
X0187949Y0208028D01*
X0189203Y0207030D02*
X0182866Y0207030D01*
X0183865Y0206031D02*
X0190457Y0206031D01*
X0191710Y0205033D02*
X0184863Y0205033D01*
X0185862Y0204034D02*
X0192964Y0204034D01*
X0194217Y0203036D02*
X0186860Y0203036D01*
X0187859Y0202037D02*
X0195471Y0202037D01*
X0196724Y0201039D02*
X0188857Y0201039D01*
X0189856Y0200040D02*
X0197978Y0200040D01*
X0199232Y0199042D02*
X0190855Y0199042D01*
X0191853Y0198043D02*
X0200485Y0198043D01*
X0201739Y0197045D02*
X0192852Y0197045D01*
X0193850Y0196046D02*
X0202992Y0196046D01*
X0204246Y0195048D02*
X0194849Y0195048D01*
X0195847Y0194049D02*
X0205499Y0194049D01*
X0206753Y0193050D02*
X0196846Y0193050D01*
X0197844Y0192052D02*
X0208006Y0192052D01*
X0209260Y0191053D02*
X0198843Y0191053D01*
X0199841Y0190055D02*
X0210514Y0190055D01*
X0211767Y0189056D02*
X0200840Y0189056D01*
X0201838Y0188058D02*
X0213021Y0188058D01*
X0214274Y0187059D02*
X0202837Y0187059D01*
X0203835Y0186061D02*
X0215528Y0186061D01*
X0216781Y0185062D02*
X0204834Y0185062D01*
X0205832Y0184064D02*
X0218035Y0184064D01*
X0219289Y0183065D02*
X0206831Y0183065D01*
X0207829Y0182067D02*
X0220542Y0182067D01*
X0221796Y0181068D02*
X0208828Y0181068D01*
X0209826Y0180070D02*
X0223049Y0180070D01*
X0224303Y0179071D02*
X0210825Y0179071D01*
X0211823Y0178073D02*
X0225556Y0178073D01*
X0226810Y0177074D02*
X0212822Y0177074D01*
X0213820Y0176076D02*
X0228064Y0176076D01*
X0229317Y0175077D02*
X0214819Y0175077D01*
X0215817Y0174079D02*
X0230571Y0174079D01*
X0231824Y0173080D02*
X0216816Y0173080D01*
X0217814Y0172082D02*
X0233078Y0172082D01*
X0234331Y0171083D02*
X0218813Y0171083D01*
X0219811Y0170085D02*
X0235585Y0170085D01*
X0236838Y0169086D02*
X0220810Y0169086D01*
X0221808Y0168088D02*
X0238092Y0168088D01*
X0239346Y0167089D02*
X0222807Y0167089D01*
X0223805Y0166091D02*
X0240599Y0166091D01*
X0241853Y0165092D02*
X0224804Y0165092D01*
X0225802Y0164094D02*
X0243106Y0164094D01*
X0244360Y0163095D02*
X0226801Y0163095D01*
X0227799Y0162097D02*
X0245613Y0162097D01*
X0246867Y0161098D02*
X0228798Y0161098D01*
X0228840Y0160100D02*
X0248121Y0160100D01*
X0249374Y0159101D02*
X0228840Y0159101D01*
X0228840Y0158103D02*
X0250628Y0158103D01*
X0251881Y0157104D02*
X0228840Y0157104D01*
X0228840Y0156106D02*
X0253135Y0156106D01*
X0254388Y0155107D02*
X0228840Y0155107D01*
X0228840Y0154109D02*
X0255642Y0154109D01*
X0256896Y0153110D02*
X0228840Y0153110D01*
X0228840Y0152112D02*
X0258149Y0152112D01*
X0259403Y0151113D02*
X0228840Y0151113D01*
X0228840Y0150114D02*
X0260656Y0150114D01*
X0261910Y0149116D02*
X0228840Y0149116D01*
X0228840Y0148117D02*
X0263163Y0148117D01*
X0264417Y0147119D02*
X0228840Y0147119D01*
X0228840Y0146120D02*
X0265671Y0146120D01*
X0266924Y0145122D02*
X0228840Y0145122D01*
X0228840Y0144123D02*
X0268178Y0144123D01*
X0269431Y0143125D02*
X0228840Y0143125D01*
X0228840Y0142126D02*
X0270685Y0142126D01*
X0271938Y0141128D02*
X0228840Y0141128D01*
X0228840Y0140129D02*
X0273192Y0140129D01*
X0274445Y0139131D02*
X0228840Y0139131D01*
X0228840Y0138132D02*
X0275699Y0138132D01*
X0276953Y0137134D02*
X0228840Y0137134D01*
X0228840Y0136135D02*
X0278206Y0136135D01*
X0279460Y0135137D02*
X0228840Y0135137D01*
X0228840Y0134138D02*
X0280713Y0134138D01*
X0281967Y0133140D02*
X0228840Y0133140D01*
X0228840Y0132141D02*
X0283220Y0132141D01*
X0284474Y0131143D02*
X0228840Y0131143D01*
X0228840Y0130144D02*
X0285728Y0130144D01*
X0286981Y0129146D02*
X0228840Y0129146D01*
X0228840Y0128147D02*
X0288235Y0128147D01*
X0289488Y0127149D02*
X0228840Y0127149D01*
X0228840Y0126150D02*
X0290742Y0126150D01*
X0291995Y0125152D02*
X0228840Y0125152D01*
X0228840Y0124153D02*
X0293249Y0124153D01*
X0294503Y0123155D02*
X0228840Y0123155D01*
X0228840Y0122156D02*
X0295756Y0122156D01*
X0297010Y0121158D02*
X0228840Y0121158D01*
X0228840Y0120159D02*
X0298263Y0120159D01*
X0299300Y0119161D02*
X0228840Y0119161D01*
X0228840Y0118162D02*
X0299300Y0118162D01*
X0299300Y0117164D02*
X0228840Y0117164D01*
X0228840Y0116165D02*
X0299300Y0116165D01*
X0299300Y0115167D02*
X0228840Y0115167D01*
X0228840Y0114168D02*
X0299300Y0114168D01*
X0299300Y0113170D02*
X0228840Y0113170D01*
X0228840Y0112171D02*
X0299300Y0112171D01*
X0299300Y0111173D02*
X0228840Y0111173D01*
X0228840Y0110174D02*
X0299300Y0110174D01*
X0299300Y0109176D02*
X0228840Y0109176D01*
X0228840Y0108177D02*
X0299300Y0108177D01*
X0299300Y0107179D02*
X0228840Y0107179D01*
X0228840Y0106180D02*
X0299300Y0106180D01*
X0299300Y0105181D02*
X0228840Y0105181D01*
X0228840Y0104183D02*
X0299300Y0104183D01*
X0299300Y0103184D02*
X0228840Y0103184D01*
X0228840Y0102186D02*
X0299300Y0102186D01*
X0299300Y0101187D02*
X0228840Y0101187D01*
X0228840Y0100189D02*
X0299300Y0100189D01*
X0299300Y0099190D02*
X0228840Y0099190D01*
X0228840Y0098192D02*
X0299300Y0098192D01*
X0299300Y0097193D02*
X0228840Y0097193D01*
X0228840Y0096195D02*
X0299300Y0096195D01*
X0299300Y0095196D02*
X0228840Y0095196D01*
X0228840Y0094198D02*
X0299300Y0094198D01*
X0299300Y0093199D02*
X0228840Y0093199D01*
X0228840Y0092201D02*
X0299300Y0092201D01*
X0299300Y0091202D02*
X0228840Y0091202D01*
X0228840Y0090204D02*
X0299300Y0090204D01*
X0299300Y0089205D02*
X0228840Y0089205D01*
X0228840Y0088207D02*
X0299300Y0088207D01*
X0299300Y0087208D02*
X0228840Y0087208D01*
X0228840Y0086210D02*
X0299300Y0086210D01*
X0299300Y0085211D02*
X0228840Y0085211D01*
X0228840Y0084213D02*
X0299300Y0084213D01*
X0299300Y0083214D02*
X0228840Y0083214D01*
X0228840Y0082216D02*
X0299300Y0082216D01*
X0299300Y0081217D02*
X0260559Y0081217D01*
X0261557Y0080219D02*
X0299300Y0080219D01*
X0299300Y0079220D02*
X0262556Y0079220D01*
X0263554Y0078222D02*
X0299300Y0078222D01*
X0298300Y0041213D02*
X0298300Y0017333D01*
X0157300Y0017333D01*
X0157300Y0102093D01*
X0077060Y0182333D01*
X0083583Y0178073D02*
X0086538Y0178073D01*
X0088040Y0178833D02*
X0084540Y0182333D01*
X0088199Y0182067D02*
X0126235Y0182067D01*
X0125288Y0181068D02*
X0088199Y0181068D01*
X0088199Y0183065D02*
X0132305Y0183065D01*
X0132700Y0182067D02*
X0131365Y0182067D01*
X0132312Y0181068D02*
X0132700Y0181068D01*
X0134300Y0183333D02*
X0134300Y0177333D01*
X0187300Y0124333D01*
X0187240Y0124273D01*
X0187240Y0076125D01*
X0187240Y0043394D01*
X0187300Y0043333D01*
X0184206Y0040278D02*
X0180394Y0040278D01*
X0181154Y0041277D02*
X0183446Y0041277D01*
X0183032Y0042275D02*
X0181568Y0042275D01*
X0181648Y0043274D02*
X0182952Y0043274D01*
X0182983Y0044272D02*
X0181617Y0044272D01*
X0181204Y0045271D02*
X0183396Y0045271D01*
X0184087Y0046269D02*
X0180513Y0046269D01*
X0179163Y0047268D02*
X0185437Y0047268D01*
X0185640Y0048266D02*
X0178900Y0048266D01*
X0178900Y0049265D02*
X0185640Y0049265D01*
X0185640Y0050263D02*
X0178900Y0050263D01*
X0178900Y0051262D02*
X0185640Y0051262D01*
X0185640Y0052260D02*
X0178900Y0052260D01*
X0178900Y0053259D02*
X0185640Y0053259D01*
X0185640Y0054257D02*
X0178900Y0054257D01*
X0178900Y0055256D02*
X0185640Y0055256D01*
X0185640Y0056254D02*
X0178900Y0056254D01*
X0178900Y0057253D02*
X0185640Y0057253D01*
X0185640Y0058251D02*
X0178900Y0058251D01*
X0178900Y0059250D02*
X0185640Y0059250D01*
X0185640Y0060248D02*
X0178900Y0060248D01*
X0178900Y0061247D02*
X0185640Y0061247D01*
X0185640Y0062245D02*
X0178900Y0062245D01*
X0178900Y0063244D02*
X0185640Y0063244D01*
X0185640Y0064243D02*
X0178900Y0064243D01*
X0178900Y0065241D02*
X0185640Y0065241D01*
X0185640Y0066240D02*
X0178900Y0066240D01*
X0178900Y0067238D02*
X0185640Y0067238D01*
X0185640Y0068237D02*
X0178900Y0068237D01*
X0178900Y0069235D02*
X0185640Y0069235D01*
X0185640Y0070234D02*
X0178900Y0070234D01*
X0178900Y0071232D02*
X0185640Y0071232D01*
X0185279Y0072231D02*
X0179201Y0072231D01*
X0180493Y0073229D02*
X0183986Y0073229D01*
X0183319Y0074228D02*
X0181160Y0074228D01*
X0181574Y0075226D02*
X0182906Y0075226D01*
X0182892Y0076225D02*
X0181588Y0076225D01*
X0181491Y0077223D02*
X0182989Y0077223D01*
X0183402Y0078222D02*
X0181077Y0078222D01*
X0180293Y0079220D02*
X0184186Y0079220D01*
X0185640Y0082216D02*
X0158900Y0082216D01*
X0158900Y0083214D02*
X0185640Y0083214D01*
X0185640Y0084213D02*
X0158900Y0084213D01*
X0158900Y0085211D02*
X0185640Y0085211D01*
X0185640Y0086210D02*
X0158900Y0086210D01*
X0158900Y0087208D02*
X0185640Y0087208D01*
X0185640Y0088207D02*
X0158900Y0088207D01*
X0158900Y0089205D02*
X0185640Y0089205D01*
X0185640Y0090204D02*
X0158900Y0090204D01*
X0158900Y0091202D02*
X0185640Y0091202D01*
X0185640Y0092201D02*
X0158900Y0092201D01*
X0158900Y0093199D02*
X0185640Y0093199D01*
X0185640Y0094198D02*
X0158900Y0094198D01*
X0158900Y0095196D02*
X0185640Y0095196D01*
X0185640Y0096195D02*
X0158900Y0096195D01*
X0158900Y0097193D02*
X0185640Y0097193D01*
X0185640Y0098192D02*
X0158900Y0098192D01*
X0158900Y0099190D02*
X0185640Y0099190D01*
X0185640Y0100189D02*
X0158900Y0100189D01*
X0158900Y0101187D02*
X0185640Y0101187D01*
X0185640Y0102186D02*
X0158900Y0102186D01*
X0158471Y0103184D02*
X0185640Y0103184D01*
X0185640Y0104183D02*
X0157473Y0104183D01*
X0156474Y0105181D02*
X0185640Y0105181D01*
X0185640Y0106180D02*
X0155476Y0106180D01*
X0154477Y0107179D02*
X0185640Y0107179D01*
X0185640Y0108177D02*
X0153479Y0108177D01*
X0152480Y0109176D02*
X0185640Y0109176D01*
X0185640Y0110174D02*
X0151482Y0110174D01*
X0151300Y0111173D02*
X0185640Y0111173D01*
X0185640Y0112171D02*
X0151300Y0112171D01*
X0151300Y0113170D02*
X0185640Y0113170D01*
X0185640Y0114168D02*
X0151300Y0114168D01*
X0151300Y0115167D02*
X0185640Y0115167D01*
X0185640Y0116165D02*
X0151300Y0116165D01*
X0151300Y0117164D02*
X0185640Y0117164D01*
X0185640Y0118162D02*
X0151300Y0118162D01*
X0151300Y0119161D02*
X0185640Y0119161D01*
X0185640Y0120159D02*
X0151300Y0120159D01*
X0151300Y0121158D02*
X0185640Y0121158D01*
X0185640Y0122156D02*
X0151300Y0122156D01*
X0151300Y0123155D02*
X0185640Y0123155D01*
X0185217Y0124153D02*
X0151300Y0124153D01*
X0151300Y0125152D02*
X0184219Y0125152D01*
X0183220Y0126150D02*
X0151300Y0126150D01*
X0151300Y0127149D02*
X0182222Y0127149D01*
X0181223Y0128147D02*
X0151300Y0128147D01*
X0151300Y0129146D02*
X0180225Y0129146D01*
X0179226Y0130144D02*
X0151300Y0130144D01*
X0151300Y0131143D02*
X0178228Y0131143D01*
X0177229Y0132141D02*
X0151300Y0132141D01*
X0151300Y0133140D02*
X0176231Y0133140D01*
X0175232Y0134138D02*
X0151300Y0134138D01*
X0151300Y0135137D02*
X0174234Y0135137D01*
X0173235Y0136135D02*
X0151300Y0136135D01*
X0151300Y0137134D02*
X0172237Y0137134D01*
X0171238Y0138132D02*
X0151300Y0138132D01*
X0151300Y0139131D02*
X0170240Y0139131D01*
X0169241Y0140129D02*
X0151300Y0140129D01*
X0151300Y0141128D02*
X0168243Y0141128D01*
X0167244Y0142126D02*
X0151300Y0142126D01*
X0151300Y0143125D02*
X0166246Y0143125D01*
X0165247Y0144123D02*
X0151300Y0144123D01*
X0151300Y0145122D02*
X0164249Y0145122D01*
X0163250Y0146120D02*
X0151300Y0146120D01*
X0151300Y0147119D02*
X0162252Y0147119D01*
X0161253Y0148117D02*
X0151300Y0148117D01*
X0151300Y0149116D02*
X0160255Y0149116D01*
X0159256Y0150114D02*
X0151300Y0150114D01*
X0151300Y0151113D02*
X0158258Y0151113D01*
X0157259Y0152112D02*
X0151300Y0152112D01*
X0151300Y0153110D02*
X0156261Y0153110D01*
X0155262Y0154109D02*
X0107547Y0154109D01*
X0106549Y0155107D02*
X0154264Y0155107D01*
X0153265Y0156106D02*
X0105550Y0156106D01*
X0104552Y0157104D02*
X0152267Y0157104D01*
X0151268Y0158103D02*
X0103553Y0158103D01*
X0102555Y0159101D02*
X0150269Y0159101D01*
X0149271Y0160100D02*
X0101556Y0160100D01*
X0100558Y0161098D02*
X0148272Y0161098D01*
X0147274Y0162097D02*
X0099559Y0162097D01*
X0098561Y0163095D02*
X0146275Y0163095D01*
X0145277Y0164094D02*
X0097562Y0164094D01*
X0096564Y0165092D02*
X0144278Y0165092D01*
X0143280Y0166091D02*
X0095565Y0166091D01*
X0094567Y0167089D02*
X0142281Y0167089D01*
X0141283Y0168088D02*
X0093568Y0168088D01*
X0092570Y0169086D02*
X0140284Y0169086D01*
X0139286Y0170085D02*
X0091571Y0170085D01*
X0090573Y0171083D02*
X0138287Y0171083D01*
X0137289Y0172082D02*
X0089574Y0172082D01*
X0088576Y0173080D02*
X0136290Y0173080D01*
X0135292Y0174079D02*
X0087577Y0174079D01*
X0086579Y0175077D02*
X0127154Y0175077D01*
X0125759Y0176076D02*
X0085580Y0176076D01*
X0084582Y0177074D02*
X0125091Y0177074D01*
X0128800Y0178833D02*
X0088040Y0178833D01*
X0088199Y0184064D02*
X0131307Y0184064D01*
X0134300Y0183333D02*
X0128800Y0188833D01*
X0118800Y0198833D01*
X0124700Y0204733D01*
X0124700Y0210532D01*
X0128902Y0214733D01*
X0140498Y0214733D01*
X0144098Y0218333D01*
X0150300Y0218333D01*
X0151471Y0216016D02*
X0159354Y0216016D01*
X0158356Y0217015D02*
X0152556Y0217015D01*
X0152889Y0218013D02*
X0157357Y0218013D01*
X0156359Y0219012D02*
X0152821Y0219012D01*
X0152284Y0220010D02*
X0155360Y0220010D01*
X0154362Y0221009D02*
X0142337Y0221009D01*
X0142750Y0220010D02*
X0148316Y0220010D01*
X0149129Y0216016D02*
X0144044Y0216016D01*
X0143045Y0215018D02*
X0160353Y0215018D01*
X0161351Y0214019D02*
X0142047Y0214019D01*
X0141122Y0212309D02*
X0139616Y0212933D01*
X0137984Y0212933D01*
X0136478Y0212309D01*
X0135324Y0211156D01*
X0134700Y0209649D01*
X0134700Y0208018D01*
X0135324Y0206511D01*
X0136478Y0205358D01*
X0137984Y0204733D01*
X0139616Y0204733D01*
X0141122Y0205358D01*
X0142276Y0206511D01*
X0142900Y0208018D01*
X0142900Y0209649D01*
X0142276Y0211156D01*
X0141122Y0212309D01*
X0141409Y0212022D02*
X0163348Y0212022D01*
X0162350Y0213021D02*
X0129452Y0213021D01*
X0131409Y0212022D02*
X0136191Y0212022D01*
X0135269Y0211024D02*
X0132331Y0211024D01*
X0132744Y0210025D02*
X0134856Y0210025D01*
X0134700Y0209027D02*
X0132900Y0209027D01*
X0132900Y0208028D02*
X0134700Y0208028D01*
X0135109Y0207030D02*
X0132491Y0207030D01*
X0131796Y0206031D02*
X0135804Y0206031D01*
X0137262Y0205033D02*
X0130338Y0205033D01*
X0129616Y0202933D02*
X0127984Y0202933D01*
X0126478Y0202309D01*
X0125324Y0201156D01*
X0124700Y0199649D01*
X0124700Y0198018D01*
X0125324Y0196511D01*
X0126478Y0195358D01*
X0127984Y0194733D01*
X0129616Y0194733D01*
X0131122Y0195358D01*
X0132276Y0196511D01*
X0132900Y0198018D01*
X0132900Y0199649D01*
X0132276Y0201156D01*
X0131122Y0202309D01*
X0129616Y0202933D01*
X0131395Y0202037D02*
X0136205Y0202037D01*
X0136478Y0202309D02*
X0135324Y0201156D01*
X0134700Y0199649D01*
X0134700Y0198018D01*
X0135324Y0196511D01*
X0136478Y0195358D01*
X0137984Y0194733D01*
X0139616Y0194733D01*
X0141122Y0195358D01*
X0142276Y0196511D01*
X0142900Y0198018D01*
X0142900Y0199649D01*
X0142276Y0201156D01*
X0141122Y0202309D01*
X0139616Y0202933D01*
X0137984Y0202933D01*
X0136478Y0202309D01*
X0135276Y0201039D02*
X0132324Y0201039D01*
X0132738Y0200040D02*
X0134862Y0200040D01*
X0134700Y0199042D02*
X0132900Y0199042D01*
X0132900Y0198043D02*
X0134700Y0198043D01*
X0135103Y0197045D02*
X0132497Y0197045D01*
X0131811Y0196046D02*
X0135789Y0196046D01*
X0137226Y0195048D02*
X0130374Y0195048D01*
X0127226Y0195048D02*
X0124849Y0195048D01*
X0125789Y0196046D02*
X0123850Y0196046D01*
X0122852Y0197045D02*
X0125103Y0197045D01*
X0124700Y0198043D02*
X0121853Y0198043D01*
X0121271Y0199042D02*
X0124700Y0199042D01*
X0124862Y0200040D02*
X0122269Y0200040D01*
X0123268Y0201039D02*
X0125276Y0201039D01*
X0126205Y0202037D02*
X0124266Y0202037D01*
X0125265Y0203036D02*
X0172335Y0203036D01*
X0171336Y0204034D02*
X0126264Y0204034D01*
X0126300Y0205033D02*
X0127262Y0205033D01*
X0119741Y0202037D02*
X0087199Y0202037D01*
X0087199Y0201039D02*
X0118743Y0201039D01*
X0118800Y0198833D02*
X0083540Y0198833D01*
X0087199Y0197045D02*
X0118326Y0197045D01*
X0119325Y0196046D02*
X0087199Y0196046D01*
X0086822Y0195048D02*
X0120323Y0195048D01*
X0125847Y0194049D02*
X0181322Y0194049D01*
X0182320Y0193050D02*
X0126846Y0193050D01*
X0131380Y0192052D02*
X0136220Y0192052D01*
X0136478Y0192309D02*
X0135324Y0191156D01*
X0134700Y0189649D01*
X0134700Y0188018D01*
X0135324Y0186511D01*
X0136478Y0185358D01*
X0137984Y0184733D01*
X0139616Y0184733D01*
X0141122Y0185358D01*
X0142276Y0186511D01*
X0142900Y0188018D01*
X0142900Y0189649D01*
X0142276Y0191156D01*
X0141122Y0192309D01*
X0139616Y0192933D01*
X0137984Y0192933D01*
X0136478Y0192309D01*
X0135282Y0191053D02*
X0132318Y0191053D01*
X0132732Y0190055D02*
X0134868Y0190055D01*
X0134700Y0189056D02*
X0132900Y0189056D01*
X0132900Y0188058D02*
X0134700Y0188058D01*
X0135097Y0187059D02*
X0132837Y0187059D01*
X0133835Y0186061D02*
X0135774Y0186061D01*
X0134834Y0185062D02*
X0137190Y0185062D01*
X0135832Y0184064D02*
X0191307Y0184064D01*
X0192305Y0183065D02*
X0135900Y0183065D01*
X0135900Y0182067D02*
X0136235Y0182067D01*
X0141365Y0182067D02*
X0193304Y0182067D01*
X0194302Y0181068D02*
X0142312Y0181068D01*
X0142726Y0180070D02*
X0195301Y0180070D01*
X0196299Y0179071D02*
X0142900Y0179071D01*
X0142900Y0178073D02*
X0197298Y0178073D01*
X0198296Y0177074D02*
X0142509Y0177074D01*
X0141841Y0176076D02*
X0199295Y0176076D01*
X0200293Y0175077D02*
X0140446Y0175077D01*
X0139817Y0174079D02*
X0201292Y0174079D01*
X0202290Y0173080D02*
X0140816Y0173080D01*
X0141814Y0172082D02*
X0203289Y0172082D01*
X0204287Y0171083D02*
X0142813Y0171083D01*
X0143811Y0170085D02*
X0205286Y0170085D01*
X0205700Y0169086D02*
X0144810Y0169086D01*
X0145808Y0168088D02*
X0205700Y0168088D01*
X0205700Y0167089D02*
X0146807Y0167089D01*
X0147805Y0166091D02*
X0205700Y0166091D01*
X0205700Y0165092D02*
X0148804Y0165092D01*
X0149802Y0164094D02*
X0205700Y0164094D01*
X0205700Y0163095D02*
X0150801Y0163095D01*
X0151799Y0162097D02*
X0205700Y0162097D01*
X0205700Y0161098D02*
X0152798Y0161098D01*
X0153796Y0160100D02*
X0205700Y0160100D01*
X0205700Y0159101D02*
X0154795Y0159101D01*
X0155793Y0158103D02*
X0205700Y0158103D01*
X0205700Y0157104D02*
X0156792Y0157104D01*
X0157790Y0156106D02*
X0205700Y0156106D01*
X0205700Y0155107D02*
X0158789Y0155107D01*
X0159788Y0154109D02*
X0205700Y0154109D01*
X0205700Y0153110D02*
X0160786Y0153110D01*
X0161785Y0152112D02*
X0205700Y0152112D01*
X0205700Y0151113D02*
X0162783Y0151113D01*
X0163782Y0150114D02*
X0205700Y0150114D01*
X0205700Y0149116D02*
X0164780Y0149116D01*
X0165779Y0148117D02*
X0205700Y0148117D01*
X0205700Y0147119D02*
X0166777Y0147119D01*
X0167776Y0146120D02*
X0205700Y0146120D01*
X0205700Y0145122D02*
X0168774Y0145122D01*
X0169773Y0144123D02*
X0205700Y0144123D01*
X0205700Y0143125D02*
X0170771Y0143125D01*
X0171770Y0142126D02*
X0205700Y0142126D01*
X0205700Y0141128D02*
X0172768Y0141128D01*
X0173767Y0140129D02*
X0205700Y0140129D01*
X0205700Y0139131D02*
X0174765Y0139131D01*
X0175764Y0138132D02*
X0205700Y0138132D01*
X0205700Y0137134D02*
X0176762Y0137134D01*
X0177761Y0136135D02*
X0205700Y0136135D01*
X0205700Y0135137D02*
X0178759Y0135137D01*
X0179758Y0134138D02*
X0205700Y0134138D01*
X0205700Y0133140D02*
X0180756Y0133140D01*
X0181755Y0132141D02*
X0205700Y0132141D01*
X0205700Y0131143D02*
X0182753Y0131143D01*
X0183752Y0130144D02*
X0205700Y0130144D01*
X0205700Y0129146D02*
X0184750Y0129146D01*
X0185749Y0128147D02*
X0205700Y0128147D01*
X0205700Y0127149D02*
X0186747Y0127149D01*
X0187746Y0126150D02*
X0205700Y0126150D01*
X0205700Y0125152D02*
X0188744Y0125152D01*
X0188900Y0124153D02*
X0205700Y0124153D01*
X0205700Y0123155D02*
X0188840Y0123155D01*
X0188840Y0122156D02*
X0205700Y0122156D01*
X0205700Y0121158D02*
X0188840Y0121158D01*
X0188840Y0120159D02*
X0205700Y0120159D01*
X0205700Y0119161D02*
X0188840Y0119161D01*
X0188840Y0118162D02*
X0205700Y0118162D01*
X0205700Y0117164D02*
X0188840Y0117164D01*
X0188840Y0116165D02*
X0205700Y0116165D01*
X0205700Y0115167D02*
X0188840Y0115167D01*
X0188840Y0114168D02*
X0205700Y0114168D01*
X0205700Y0113170D02*
X0188840Y0113170D01*
X0188840Y0112171D02*
X0205700Y0112171D01*
X0205700Y0111173D02*
X0188840Y0111173D01*
X0188840Y0110174D02*
X0205700Y0110174D01*
X0205700Y0109176D02*
X0188840Y0109176D01*
X0188840Y0108177D02*
X0205700Y0108177D01*
X0205700Y0107179D02*
X0188840Y0107179D01*
X0188840Y0106180D02*
X0205700Y0106180D01*
X0205920Y0105181D02*
X0188840Y0105181D01*
X0188840Y0104183D02*
X0206919Y0104183D01*
X0206637Y0104464D02*
X0206637Y0104464D01*
X0207917Y0103184D02*
X0188840Y0103184D01*
X0188840Y0102186D02*
X0208916Y0102186D01*
X0209914Y0101187D02*
X0188840Y0101187D01*
X0188840Y0100189D02*
X0210913Y0100189D01*
X0211911Y0099190D02*
X0188840Y0099190D01*
X0188840Y0098192D02*
X0212910Y0098192D01*
X0213908Y0097193D02*
X0188840Y0097193D01*
X0188840Y0096195D02*
X0214907Y0096195D01*
X0215905Y0095196D02*
X0188840Y0095196D01*
X0188840Y0094198D02*
X0216904Y0094198D01*
X0217902Y0093199D02*
X0188840Y0093199D01*
X0188840Y0092201D02*
X0218901Y0092201D01*
X0219899Y0091202D02*
X0188840Y0091202D01*
X0188840Y0090204D02*
X0220898Y0090204D01*
X0221292Y0089205D02*
X0188840Y0089205D01*
X0188840Y0088207D02*
X0221292Y0088207D01*
X0221292Y0087208D02*
X0188840Y0087208D01*
X0188840Y0086210D02*
X0221292Y0086210D01*
X0221292Y0085211D02*
X0188840Y0085211D01*
X0188840Y0084213D02*
X0221292Y0084213D01*
X0221292Y0083214D02*
X0188840Y0083214D01*
X0188840Y0082216D02*
X0221292Y0082216D01*
X0224492Y0082216D02*
X0225640Y0082216D01*
X0225640Y0083214D02*
X0224492Y0083214D01*
X0224492Y0084213D02*
X0225640Y0084213D01*
X0225640Y0085211D02*
X0224492Y0085211D01*
X0224492Y0086210D02*
X0225640Y0086210D01*
X0225640Y0087208D02*
X0224492Y0087208D01*
X0224492Y0088207D02*
X0225640Y0088207D01*
X0225640Y0089205D02*
X0224492Y0089205D01*
X0224492Y0090204D02*
X0225640Y0090204D01*
X0225640Y0091202D02*
X0224425Y0091202D01*
X0223426Y0092201D02*
X0225640Y0092201D01*
X0225640Y0093199D02*
X0222428Y0093199D01*
X0221429Y0094198D02*
X0225640Y0094198D01*
X0225640Y0095196D02*
X0220431Y0095196D01*
X0219432Y0096195D02*
X0225640Y0096195D01*
X0225640Y0097193D02*
X0218434Y0097193D01*
X0217435Y0098192D02*
X0225640Y0098192D01*
X0225640Y0099190D02*
X0216437Y0099190D01*
X0215438Y0100189D02*
X0225640Y0100189D01*
X0225640Y0101187D02*
X0214440Y0101187D01*
X0213441Y0102186D02*
X0225640Y0102186D01*
X0225640Y0103184D02*
X0212443Y0103184D01*
X0211444Y0104183D02*
X0225640Y0104183D01*
X0225640Y0105181D02*
X0210446Y0105181D01*
X0209447Y0106180D02*
X0225640Y0106180D01*
X0225640Y0107179D02*
X0208900Y0107179D01*
X0208900Y0108177D02*
X0225640Y0108177D01*
X0225640Y0109176D02*
X0208900Y0109176D01*
X0208900Y0110174D02*
X0225640Y0110174D01*
X0225640Y0111173D02*
X0208900Y0111173D01*
X0208900Y0112171D02*
X0225640Y0112171D01*
X0225640Y0113170D02*
X0208900Y0113170D01*
X0208900Y0114168D02*
X0225640Y0114168D01*
X0225640Y0115167D02*
X0208900Y0115167D01*
X0208900Y0116165D02*
X0225640Y0116165D01*
X0225640Y0117164D02*
X0208900Y0117164D01*
X0208900Y0118162D02*
X0225640Y0118162D01*
X0225640Y0119161D02*
X0208900Y0119161D01*
X0208900Y0120159D02*
X0225640Y0120159D01*
X0225640Y0121158D02*
X0208900Y0121158D01*
X0208900Y0122156D02*
X0225640Y0122156D01*
X0225640Y0123155D02*
X0208900Y0123155D01*
X0208900Y0124153D02*
X0225640Y0124153D01*
X0225640Y0125152D02*
X0208900Y0125152D01*
X0208900Y0126150D02*
X0225640Y0126150D01*
X0225640Y0127149D02*
X0208900Y0127149D01*
X0208900Y0128147D02*
X0225640Y0128147D01*
X0225640Y0129146D02*
X0208900Y0129146D01*
X0208900Y0130144D02*
X0225640Y0130144D01*
X0225640Y0131143D02*
X0208900Y0131143D01*
X0208900Y0132141D02*
X0225640Y0132141D01*
X0225640Y0133140D02*
X0208900Y0133140D01*
X0208900Y0134138D02*
X0225640Y0134138D01*
X0225640Y0135137D02*
X0208900Y0135137D01*
X0208900Y0136135D02*
X0225640Y0136135D01*
X0225640Y0137134D02*
X0208900Y0137134D01*
X0208900Y0138132D02*
X0225640Y0138132D01*
X0225640Y0139131D02*
X0208900Y0139131D01*
X0208900Y0140129D02*
X0225640Y0140129D01*
X0225640Y0141128D02*
X0208900Y0141128D01*
X0208900Y0142126D02*
X0225640Y0142126D01*
X0225640Y0143125D02*
X0208900Y0143125D01*
X0208900Y0144123D02*
X0225640Y0144123D01*
X0225640Y0145122D02*
X0208900Y0145122D01*
X0208900Y0146120D02*
X0225640Y0146120D01*
X0225640Y0147119D02*
X0208900Y0147119D01*
X0208900Y0148117D02*
X0225640Y0148117D01*
X0225640Y0149116D02*
X0208900Y0149116D01*
X0208900Y0150114D02*
X0225640Y0150114D01*
X0225640Y0151113D02*
X0208900Y0151113D01*
X0208900Y0152112D02*
X0225640Y0152112D01*
X0225640Y0153110D02*
X0208900Y0153110D01*
X0208900Y0154109D02*
X0225640Y0154109D01*
X0225640Y0155107D02*
X0208900Y0155107D01*
X0208900Y0156106D02*
X0225640Y0156106D01*
X0225640Y0157104D02*
X0208900Y0157104D01*
X0208900Y0158103D02*
X0225640Y0158103D01*
X0225640Y0159101D02*
X0208900Y0159101D01*
X0208900Y0160100D02*
X0225271Y0160100D01*
X0224272Y0161098D02*
X0208900Y0161098D01*
X0208900Y0162097D02*
X0223274Y0162097D01*
X0222275Y0163095D02*
X0208900Y0163095D01*
X0208900Y0164094D02*
X0221277Y0164094D01*
X0220278Y0165092D02*
X0208900Y0165092D01*
X0208900Y0166091D02*
X0219280Y0166091D01*
X0218281Y0167089D02*
X0208900Y0167089D01*
X0208900Y0168088D02*
X0217283Y0168088D01*
X0216284Y0169086D02*
X0208900Y0169086D01*
X0208900Y0170085D02*
X0215286Y0170085D01*
X0214287Y0171083D02*
X0208813Y0171083D01*
X0207814Y0172082D02*
X0213289Y0172082D01*
X0212290Y0173080D02*
X0206816Y0173080D01*
X0205817Y0174079D02*
X0211292Y0174079D01*
X0210293Y0175077D02*
X0204819Y0175077D01*
X0203820Y0176076D02*
X0209295Y0176076D01*
X0208296Y0177074D02*
X0202822Y0177074D01*
X0201823Y0178073D02*
X0207298Y0178073D01*
X0206299Y0179071D02*
X0200825Y0179071D01*
X0199826Y0180070D02*
X0205301Y0180070D01*
X0204302Y0181068D02*
X0198828Y0181068D01*
X0197829Y0182067D02*
X0203304Y0182067D01*
X0202305Y0183065D02*
X0196831Y0183065D01*
X0195832Y0184064D02*
X0201307Y0184064D01*
X0200308Y0185062D02*
X0194834Y0185062D01*
X0193835Y0186061D02*
X0199310Y0186061D01*
X0198311Y0187059D02*
X0192837Y0187059D01*
X0191838Y0188058D02*
X0197313Y0188058D01*
X0196314Y0189056D02*
X0190840Y0189056D01*
X0189841Y0190055D02*
X0195316Y0190055D01*
X0194317Y0191053D02*
X0188843Y0191053D01*
X0187844Y0192052D02*
X0193319Y0192052D01*
X0192320Y0193050D02*
X0186846Y0193050D01*
X0185847Y0194049D02*
X0191322Y0194049D01*
X0190323Y0195048D02*
X0184849Y0195048D01*
X0183850Y0196046D02*
X0189325Y0196046D01*
X0188326Y0197045D02*
X0182852Y0197045D01*
X0181853Y0198043D02*
X0187328Y0198043D01*
X0186329Y0199042D02*
X0180855Y0199042D01*
X0179856Y0200040D02*
X0185331Y0200040D01*
X0184332Y0201039D02*
X0178857Y0201039D01*
X0177859Y0202037D02*
X0183334Y0202037D01*
X0182335Y0203036D02*
X0176860Y0203036D01*
X0175862Y0204034D02*
X0181336Y0204034D01*
X0180338Y0205033D02*
X0174863Y0205033D01*
X0173865Y0206031D02*
X0179339Y0206031D01*
X0178341Y0207030D02*
X0172866Y0207030D01*
X0171868Y0208028D02*
X0177342Y0208028D01*
X0176344Y0209027D02*
X0170869Y0209027D01*
X0169871Y0210025D02*
X0175345Y0210025D01*
X0174347Y0211024D02*
X0168872Y0211024D01*
X0167874Y0212022D02*
X0173348Y0212022D01*
X0172350Y0213021D02*
X0166875Y0213021D01*
X0165877Y0214019D02*
X0171351Y0214019D01*
X0170353Y0215018D02*
X0164878Y0215018D01*
X0163880Y0216016D02*
X0169354Y0216016D01*
X0168356Y0217015D02*
X0162881Y0217015D01*
X0161883Y0218013D02*
X0167357Y0218013D01*
X0166359Y0219012D02*
X0160884Y0219012D01*
X0159886Y0220010D02*
X0165360Y0220010D01*
X0164362Y0221009D02*
X0158887Y0221009D01*
X0157889Y0222007D02*
X0163363Y0222007D01*
X0162365Y0223006D02*
X0156890Y0223006D01*
X0155892Y0224004D02*
X0161366Y0224004D01*
X0160368Y0225003D02*
X0154893Y0225003D01*
X0153895Y0226001D02*
X0159369Y0226001D01*
X0158371Y0227000D02*
X0152896Y0227000D01*
X0151898Y0227998D02*
X0157372Y0227998D01*
X0156374Y0228997D02*
X0150899Y0228997D01*
X0149901Y0229995D02*
X0155375Y0229995D01*
X0154377Y0230994D02*
X0148902Y0230994D01*
X0147904Y0231992D02*
X0153378Y0231992D01*
X0152380Y0232991D02*
X0146905Y0232991D01*
X0145907Y0233989D02*
X0151381Y0233989D01*
X0150383Y0234988D02*
X0144908Y0234988D01*
X0143910Y0235986D02*
X0149384Y0235986D01*
X0148386Y0236985D02*
X0142911Y0236985D01*
X0142886Y0237983D02*
X0147387Y0237983D01*
X0146389Y0238982D02*
X0142900Y0238982D01*
X0142763Y0239981D02*
X0145390Y0239981D01*
X0144392Y0240979D02*
X0142349Y0240979D01*
X0141454Y0241978D02*
X0143393Y0241978D01*
X0142395Y0242976D02*
X0103660Y0242976D01*
X0102662Y0243975D02*
X0141396Y0243975D01*
X0140398Y0244973D02*
X0140194Y0244973D01*
X0137406Y0244973D02*
X0130194Y0244973D01*
X0131737Y0245972D02*
X0135863Y0245972D01*
X0135134Y0246970D02*
X0132466Y0246970D01*
X0132880Y0247969D02*
X0133200Y0247969D01*
X0134730Y0250964D02*
X0135245Y0250964D01*
X0136131Y0251963D02*
X0133732Y0251963D01*
X0131722Y0255957D02*
X0135878Y0255957D01*
X0135140Y0256955D02*
X0132460Y0256955D01*
X0132873Y0257954D02*
X0134727Y0257954D01*
X0134700Y0258952D02*
X0132900Y0258952D01*
X0132775Y0259951D02*
X0134825Y0259951D01*
X0135239Y0260949D02*
X0132361Y0260949D01*
X0131484Y0261948D02*
X0136116Y0261948D01*
X0134582Y0264943D02*
X0132466Y0264943D01*
X0132900Y0265942D02*
X0134300Y0265942D01*
X0134300Y0266940D02*
X0132900Y0266940D01*
X0132900Y0267939D02*
X0134300Y0267939D01*
X0132900Y0268937D02*
X0138300Y0268937D01*
X0138300Y0269333D02*
X0138800Y0268833D01*
X0138300Y0269333D02*
X0128747Y0278886D01*
X0082025Y0278886D01*
X0077973Y0274833D01*
X0077560Y0274833D01*
X0074800Y0274833D01*
X0073501Y0274333D02*
X0073501Y0271683D01*
X0073603Y0271302D01*
X0073800Y0270960D01*
X0074080Y0270680D01*
X0074422Y0270483D01*
X0074803Y0270381D01*
X0077060Y0270381D01*
X0077060Y0274333D01*
X0073501Y0274333D01*
X0073501Y0273930D02*
X0072900Y0273930D01*
X0072900Y0274928D02*
X0077060Y0274928D01*
X0077060Y0275333D02*
X0073501Y0275333D01*
X0073501Y0277984D01*
X0073603Y0278365D01*
X0073800Y0278707D01*
X0074080Y0278986D01*
X0074422Y0279184D01*
X0074803Y0279286D01*
X0077060Y0279286D01*
X0077060Y0275333D01*
X0077060Y0275927D02*
X0078060Y0275927D01*
X0078060Y0276925D02*
X0077708Y0276925D01*
X0078060Y0276925D02*
X0077060Y0276925D01*
X0077060Y0277924D02*
X0078060Y0277924D01*
X0077060Y0277924D01*
X0077060Y0278922D02*
X0078060Y0278922D01*
X0077060Y0278922D01*
X0074712Y0279921D02*
X0112450Y0279921D01*
X0113980Y0282916D02*
X0114095Y0282916D01*
X0112981Y0283915D02*
X0115425Y0283915D01*
X0113989Y0266940D02*
X0095196Y0266940D01*
X0092667Y0264943D02*
X0072900Y0264943D01*
X0072900Y0263945D02*
X0093666Y0263945D01*
X0091669Y0265942D02*
X0072900Y0265942D01*
X0072900Y0266940D02*
X0090670Y0266940D01*
X0089672Y0267939D02*
X0072900Y0267939D01*
X0072900Y0268937D02*
X0088673Y0268937D01*
X0087675Y0269936D02*
X0072900Y0269936D01*
X0072900Y0270934D02*
X0073826Y0270934D01*
X0073501Y0271933D02*
X0072900Y0271933D01*
X0072900Y0272931D02*
X0073501Y0272931D01*
X0073501Y0275927D02*
X0072900Y0275927D01*
X0072900Y0276925D02*
X0073501Y0276925D01*
X0073501Y0277924D02*
X0072900Y0277924D01*
X0072900Y0278922D02*
X0074016Y0278922D01*
X0072900Y0279921D02*
X0097693Y0279921D01*
X0091425Y0284914D02*
X0055253Y0284914D01*
X0055960Y0285912D02*
X0090171Y0285912D01*
X0088918Y0286911D02*
X0056667Y0286911D01*
X0057374Y0287909D02*
X0087664Y0287909D01*
X0086411Y0288908D02*
X0058082Y0288908D01*
X0058789Y0289906D02*
X0085157Y0289906D01*
X0083903Y0290905D02*
X0082104Y0290905D01*
X0163729Y0290905D01*
X0162730Y0291903D02*
X0084234Y0291903D01*
X0085096Y0292902D02*
X0161732Y0292902D01*
X0160733Y0293900D02*
X0085566Y0293900D01*
X0085767Y0295897D02*
X0158736Y0295897D01*
X0157738Y0296896D02*
X0085524Y0296896D01*
X0085002Y0297894D02*
X0156739Y0297894D01*
X0155741Y0298893D02*
X0084057Y0298893D01*
X0081800Y0298893D02*
X0080800Y0298893D01*
X0080800Y0297894D02*
X0081800Y0297894D01*
X0081800Y0296896D02*
X0080800Y0296896D01*
X0080800Y0295897D02*
X0081800Y0295897D01*
X0081300Y0295333D02*
X0077560Y0291593D01*
X0078366Y0291903D02*
X0062730Y0291903D01*
X0061732Y0292902D02*
X0077504Y0292902D01*
X0060911Y0292902D01*
X0060733Y0293900D02*
X0077034Y0293900D01*
X0061618Y0293900D01*
X0062325Y0294899D02*
X0078889Y0294899D01*
X0080800Y0294899D02*
X0059735Y0294899D01*
X0058736Y0295897D02*
X0076833Y0295897D01*
X0063033Y0295897D01*
X0063740Y0296896D02*
X0076382Y0296896D01*
X0077076Y0296896D02*
X0057738Y0296896D01*
X0056739Y0297894D02*
X0077598Y0297894D01*
X0078543Y0298893D02*
X0055741Y0298893D01*
X0054742Y0299891D02*
X0154742Y0299891D01*
X0153744Y0300890D02*
X0053744Y0300890D01*
X0052745Y0301888D02*
X0078947Y0301888D01*
X0077948Y0302887D02*
X0051747Y0302887D01*
X0064447Y0297894D02*
X0075128Y0297894D01*
X0073875Y0298893D02*
X0065155Y0298893D01*
X0065862Y0299891D02*
X0072621Y0299891D01*
X0071368Y0300890D02*
X0066569Y0300890D01*
X0067276Y0301888D02*
X0070114Y0301888D01*
X0068861Y0302887D02*
X0067984Y0302887D01*
X0063729Y0290905D02*
X0080496Y0290905D01*
X0059496Y0290905D01*
X0060204Y0291903D02*
X0078366Y0291903D01*
X0080800Y0291903D02*
X0081800Y0291903D01*
X0080800Y0291903D01*
X0080800Y0290905D02*
X0081800Y0290905D01*
X0080800Y0290905D01*
X0080800Y0292902D02*
X0081800Y0292902D01*
X0081396Y0292902D02*
X0080800Y0292902D01*
X0080800Y0293900D02*
X0081800Y0293900D01*
X0081800Y0294899D02*
X0159735Y0294899D01*
X0164727Y0289906D02*
X0064727Y0289906D01*
X0065726Y0288908D02*
X0165726Y0288908D01*
X0166724Y0287909D02*
X0066724Y0287909D01*
X0067723Y0286911D02*
X0167723Y0286911D01*
X0168721Y0285912D02*
X0068721Y0285912D01*
X0077060Y0273930D02*
X0078060Y0273930D01*
X0078060Y0272931D02*
X0077060Y0272931D01*
X0077060Y0271933D02*
X0078060Y0271933D01*
X0078060Y0270934D02*
X0077060Y0270934D01*
X0081294Y0270934D02*
X0081872Y0270934D01*
X0074540Y0262946D02*
X0072900Y0262946D01*
X0072900Y0261948D02*
X0074001Y0261948D01*
X0074001Y0260949D02*
X0072900Y0260949D01*
X0072900Y0259951D02*
X0074001Y0259951D01*
X0075560Y0245972D02*
X0076560Y0245972D01*
X0076560Y0244973D02*
X0075560Y0244973D01*
X0075560Y0243975D02*
X0076560Y0243975D01*
X0076560Y0242976D02*
X0075560Y0242976D01*
X0075560Y0240979D02*
X0076560Y0240979D01*
X0076560Y0239981D02*
X0075560Y0239981D01*
X0075560Y0238982D02*
X0076560Y0238982D01*
X0076560Y0237983D02*
X0075560Y0237983D01*
X0072921Y0237983D02*
X0072900Y0237983D01*
X0072900Y0236985D02*
X0086626Y0236985D01*
X0087624Y0235986D02*
X0072900Y0235986D01*
X0072900Y0234988D02*
X0088623Y0234988D01*
X0089621Y0233989D02*
X0072900Y0233989D01*
X0072900Y0232991D02*
X0090620Y0232991D01*
X0091618Y0231992D02*
X0072900Y0231992D01*
X0072900Y0230994D02*
X0092617Y0230994D01*
X0093615Y0229995D02*
X0081524Y0229995D01*
X0078560Y0229995D02*
X0077560Y0229995D01*
X0077560Y0230286D02*
X0077560Y0226333D01*
X0074001Y0226333D01*
X0074001Y0228984D01*
X0074103Y0229365D01*
X0074300Y0229707D01*
X0074580Y0229986D01*
X0074922Y0230184D01*
X0075303Y0230286D01*
X0077560Y0230286D01*
X0077560Y0228997D02*
X0078560Y0228997D01*
X0078560Y0227998D02*
X0077560Y0227998D01*
X0077560Y0227000D02*
X0078560Y0227000D01*
X0078060Y0225833D02*
X0076060Y0227833D01*
X0074001Y0227998D02*
X0072900Y0227998D01*
X0072900Y0227000D02*
X0074001Y0227000D01*
X0072900Y0226001D02*
X0077560Y0226001D01*
X0077560Y0225333D02*
X0074001Y0225333D01*
X0074001Y0222683D01*
X0074103Y0222302D01*
X0074300Y0221960D01*
X0074580Y0221680D01*
X0074922Y0221483D01*
X0075303Y0221381D01*
X0077560Y0221381D01*
X0077560Y0225333D01*
X0077560Y0225003D02*
X0078560Y0225003D01*
X0078560Y0224004D02*
X0077560Y0224004D01*
X0077560Y0223006D02*
X0078560Y0223006D01*
X0078560Y0222007D02*
X0077560Y0222007D01*
X0074273Y0222007D02*
X0072900Y0222007D01*
X0072900Y0221009D02*
X0088102Y0221009D01*
X0089100Y0220010D02*
X0072900Y0220010D01*
X0072900Y0219012D02*
X0090099Y0219012D01*
X0091097Y0218013D02*
X0072900Y0218013D01*
X0072900Y0223006D02*
X0074001Y0223006D01*
X0074001Y0224004D02*
X0072900Y0224004D01*
X0072900Y0225003D02*
X0074001Y0225003D01*
X0074004Y0228997D02*
X0072900Y0228997D01*
X0072900Y0229995D02*
X0074595Y0229995D01*
X0079199Y0237983D02*
X0085627Y0237983D01*
X0088156Y0239981D02*
X0102130Y0239981D01*
X0101132Y0240979D02*
X0087199Y0240979D01*
X0089154Y0238982D02*
X0103129Y0238982D01*
X0104127Y0237983D02*
X0090153Y0237983D01*
X0091151Y0236985D02*
X0105126Y0236985D01*
X0106124Y0235986D02*
X0092150Y0235986D01*
X0093148Y0234988D02*
X0107123Y0234988D01*
X0108121Y0233989D02*
X0094147Y0233989D01*
X0095145Y0232991D02*
X0142380Y0232991D01*
X0141439Y0231992D02*
X0143378Y0231992D01*
X0142276Y0231156D02*
X0141122Y0232309D01*
X0139616Y0232933D01*
X0137984Y0232933D01*
X0136478Y0232309D01*
X0135324Y0231156D01*
X0134700Y0229649D01*
X0134700Y0228018D01*
X0135324Y0226511D01*
X0136478Y0225358D01*
X0137984Y0224733D01*
X0139616Y0224733D01*
X0141122Y0225358D01*
X0142276Y0226511D01*
X0142900Y0228018D01*
X0142900Y0229649D01*
X0142276Y0231156D01*
X0142343Y0230994D02*
X0144377Y0230994D01*
X0145375Y0229995D02*
X0142756Y0229995D01*
X0142900Y0228997D02*
X0146374Y0228997D01*
X0147372Y0227998D02*
X0142892Y0227998D01*
X0142478Y0227000D02*
X0148371Y0227000D01*
X0149369Y0226001D02*
X0141766Y0226001D01*
X0140266Y0225003D02*
X0150368Y0225003D01*
X0151366Y0224004D02*
X0089632Y0224004D01*
X0090630Y0223006D02*
X0152365Y0223006D01*
X0153363Y0222007D02*
X0141424Y0222007D01*
X0137334Y0225003D02*
X0130266Y0225003D01*
X0131766Y0226001D02*
X0135834Y0226001D01*
X0135122Y0227000D02*
X0132478Y0227000D01*
X0132892Y0227998D02*
X0134708Y0227998D01*
X0134700Y0228997D02*
X0132900Y0228997D01*
X0132756Y0229995D02*
X0134844Y0229995D01*
X0135257Y0230994D02*
X0132343Y0230994D01*
X0131439Y0231992D02*
X0136161Y0231992D01*
X0137370Y0234988D02*
X0133016Y0234988D01*
X0134014Y0235986D02*
X0135849Y0235986D01*
X0134837Y0239981D02*
X0132763Y0239981D01*
X0132349Y0240979D02*
X0135251Y0240979D01*
X0136146Y0241978D02*
X0131454Y0241978D01*
X0127406Y0244973D02*
X0101663Y0244973D01*
X0100665Y0245972D02*
X0125863Y0245972D01*
X0125134Y0246970D02*
X0099666Y0246970D01*
X0098668Y0247969D02*
X0124720Y0247969D01*
X0124700Y0248967D02*
X0097669Y0248967D01*
X0096671Y0249966D02*
X0124831Y0249966D01*
X0125245Y0250964D02*
X0095672Y0250964D01*
X0094674Y0251963D02*
X0105648Y0251963D01*
X0104650Y0252961D02*
X0093675Y0252961D01*
X0092677Y0253960D02*
X0103651Y0253960D01*
X0102653Y0254958D02*
X0091678Y0254958D01*
X0098191Y0263945D02*
X0170300Y0263945D01*
X0170300Y0264943D02*
X0143018Y0264943D01*
X0143300Y0265942D02*
X0170300Y0265942D01*
X0170300Y0266940D02*
X0143300Y0266940D01*
X0143300Y0267939D02*
X0170300Y0267939D01*
X0139300Y0267939D02*
X0138300Y0267939D01*
X0138300Y0266940D02*
X0139300Y0266940D01*
X0139300Y0265942D02*
X0138300Y0265942D01*
X0138300Y0264943D02*
X0139300Y0264943D01*
X0139300Y0269333D02*
X0138300Y0269333D01*
X0138300Y0269936D02*
X0139300Y0269936D01*
X0139300Y0270934D02*
X0138300Y0270934D01*
X0138300Y0271933D02*
X0139300Y0271933D01*
X0139300Y0272931D02*
X0138300Y0272931D01*
X0134777Y0272931D02*
X0132258Y0272931D01*
X0132900Y0271933D02*
X0134300Y0271933D01*
X0134300Y0270934D02*
X0132900Y0270934D01*
X0132900Y0269936D02*
X0134300Y0269936D01*
X0125239Y0260949D02*
X0101187Y0260949D01*
X0121510Y0260949D01*
X0122764Y0259951D02*
X0102185Y0259951D01*
X0124825Y0259951D01*
X0124700Y0258952D02*
X0103184Y0258952D01*
X0124018Y0258952D01*
X0124727Y0257954D02*
X0104182Y0257954D01*
X0124727Y0257954D01*
X0125140Y0256955D02*
X0105181Y0256955D01*
X0125140Y0256955D01*
X0125878Y0255957D02*
X0106180Y0255957D01*
X0125878Y0255957D01*
X0127442Y0254958D02*
X0107178Y0254958D01*
X0127442Y0254958D01*
X0130158Y0254958D02*
X0137442Y0254958D01*
X0126146Y0241978D02*
X0104659Y0241978D01*
X0105657Y0240979D02*
X0125251Y0240979D01*
X0124837Y0239981D02*
X0106656Y0239981D01*
X0107654Y0238982D02*
X0124700Y0238982D01*
X0124714Y0237983D02*
X0108653Y0237983D01*
X0109651Y0236985D02*
X0125128Y0236985D01*
X0126161Y0231992D02*
X0096144Y0231992D01*
X0097142Y0230994D02*
X0125257Y0230994D01*
X0124844Y0229995D02*
X0098141Y0229995D01*
X0095612Y0227998D02*
X0089199Y0227998D01*
X0089199Y0227000D02*
X0096371Y0227000D01*
X0094614Y0228997D02*
X0089199Y0228997D01*
X0085540Y0225833D02*
X0092540Y0218833D01*
X0128800Y0218833D01*
X0132900Y0219012D02*
X0134700Y0219012D01*
X0134702Y0218013D02*
X0132898Y0218013D01*
X0132485Y0217015D02*
X0135115Y0217015D01*
X0134850Y0220010D02*
X0132750Y0220010D01*
X0132337Y0221009D02*
X0135263Y0221009D01*
X0136176Y0222007D02*
X0131424Y0222007D01*
X0132017Y0233989D02*
X0141381Y0233989D01*
X0140383Y0234988D02*
X0140230Y0234988D01*
X0158902Y0230994D02*
X0159117Y0230994D01*
X0160899Y0228997D02*
X0161625Y0228997D01*
X0162896Y0227000D02*
X0164132Y0227000D01*
X0164893Y0225003D02*
X0170300Y0225003D01*
X0167892Y0224004D02*
X0165892Y0224004D01*
X0164347Y0211024D02*
X0142331Y0211024D01*
X0142744Y0210025D02*
X0165345Y0210025D01*
X0166344Y0209027D02*
X0142900Y0209027D01*
X0142900Y0208028D02*
X0167342Y0208028D01*
X0168341Y0207030D02*
X0142491Y0207030D01*
X0141796Y0206031D02*
X0169339Y0206031D01*
X0170338Y0205033D02*
X0140338Y0205033D01*
X0141395Y0202037D02*
X0173334Y0202037D01*
X0174332Y0201039D02*
X0142324Y0201039D01*
X0142738Y0200040D02*
X0175331Y0200040D01*
X0176329Y0199042D02*
X0142900Y0199042D01*
X0142900Y0198043D02*
X0177328Y0198043D01*
X0178326Y0197045D02*
X0142497Y0197045D01*
X0141811Y0196046D02*
X0179325Y0196046D01*
X0180323Y0195048D02*
X0140374Y0195048D01*
X0141380Y0192052D02*
X0183319Y0192052D01*
X0184317Y0191053D02*
X0142318Y0191053D01*
X0142732Y0190055D02*
X0185316Y0190055D01*
X0186314Y0189056D02*
X0142900Y0189056D01*
X0142900Y0188058D02*
X0187313Y0188058D01*
X0188311Y0187059D02*
X0142503Y0187059D01*
X0141826Y0186061D02*
X0189310Y0186061D01*
X0190308Y0185062D02*
X0140410Y0185062D01*
X0132700Y0177074D02*
X0132509Y0177074D01*
X0131841Y0176076D02*
X0133295Y0176076D01*
X0134293Y0175077D02*
X0130446Y0175077D01*
X0127190Y0185062D02*
X0088199Y0185062D01*
X0087880Y0186061D02*
X0125774Y0186061D01*
X0082299Y0222007D02*
X0081847Y0222007D01*
X0080111Y0245972D02*
X0079955Y0245972D01*
X0098191Y0263945D02*
X0117750Y0263945D01*
X0083653Y0301888D02*
X0152745Y0301888D01*
X0151747Y0302887D02*
X0084652Y0302887D01*
X0201300Y0303718D02*
X0201300Y0311333D01*
X0218300Y0311333D01*
X0218300Y0306333D01*
X0271300Y0306333D01*
X0308800Y0268833D01*
X0218300Y0306333D02*
X0213713Y0306333D01*
X0213657Y0306277D01*
X0211172Y0303718D02*
X0211172Y0302831D01*
X0213657Y0298599D02*
X0214300Y0297956D01*
X0214300Y0282333D01*
X0205586Y0301159D02*
X0205586Y0301158D01*
X0205586Y0303718D02*
X0201300Y0303718D01*
X0202900Y0305882D02*
X0203102Y0305882D01*
X0203102Y0306881D02*
X0202900Y0306881D01*
X0202900Y0307879D02*
X0203397Y0307879D01*
X0202900Y0308878D02*
X0216700Y0308878D01*
X0224492Y0081217D02*
X0225640Y0081217D01*
X0225640Y0080219D02*
X0224492Y0080219D01*
X0195279Y0072231D02*
X0189201Y0072231D01*
X0190493Y0073229D02*
X0193986Y0073229D01*
X0193319Y0074228D02*
X0191160Y0074228D01*
X0191574Y0075226D02*
X0192906Y0075226D01*
X0192892Y0076225D02*
X0191588Y0076225D01*
X0191491Y0077223D02*
X0192989Y0077223D01*
X0193402Y0078222D02*
X0191077Y0078222D01*
X0190293Y0079220D02*
X0194186Y0079220D01*
X0187300Y0076064D02*
X0187240Y0076125D01*
X0177300Y0076064D02*
X0177240Y0076125D01*
X0177300Y0076064D02*
X0177300Y0043333D01*
X0167300Y0043333D02*
X0167240Y0043394D01*
X0167240Y0076125D01*
X0167300Y0076064D01*
D17*
X0150300Y0218333D03*
X0116300Y0281475D03*
X0191300Y0303333D03*
X0201300Y0298333D03*
X0214300Y0282333D03*
X0218300Y0282333D03*
X0318300Y0182333D03*
X0316300Y0172333D03*
D18*
X0237240Y0043394D02*
X0237300Y0043333D01*
M02*
