%
M48
M72
T01C0.02362
T02C0.03386
T03C0.03937
T04C0.04000
T05C0.04331
T06C0.04724
T07C0.09055
%
T01
X65000Y80950
X80000Y70950
X80000Y55950
X85000Y95950
X75000Y110950
X80000Y115950
X86375Y116275
X100000Y125950
X100000Y130950
X90000Y140950
X85250Y141700
X75000Y140950
X70000Y140950
X61800Y145950
X85250Y155200
X85000Y160950
X75000Y170950
X61575Y175950
X65000Y185950
X75000Y190950
X75000Y200950
X80000Y205950
X90000Y210950
X95000Y220950
X105000Y230950
X108200Y235525
X111350Y240025
X118425Y240900
X112250Y251725
X105275Y262075
X110000Y275950
X108875Y281200
X121925Y282100
X130025Y285925
X139025Y298525
X133850Y302125
X124775Y305500
X134075Y315625
X142400Y315850
X150725Y319900
X167600Y322600
X177275Y320575
X182225Y319675
X182000Y311350
X191225Y319450
X192350Y305950
X197750Y305950
X203375Y305950
X205400Y316750
X204725Y321700
X211475Y315850
X215075Y319450
X215000Y310950
X227000Y313600
X236225Y300100
X234650Y279850
X231500Y270850
X241625Y268825
X252200Y278500
X257375Y270400
X269750Y268375
X276050Y276700
X284375Y288850
X270725Y311625
X271775Y321025
X280325Y318100
X259400Y285700
X255000Y250950
X261425Y246325
X274850Y231175
X288650Y240700
X250675Y208325
X259625Y198400
X247925Y185125
X238475Y187600
X233300Y196150
X229025Y203125
X224300Y206275
X213950Y200650
X212375Y191650
X218425Y188875
X208775Y183550
X202250Y186700
X200000Y191650
X197525Y196825
X193025Y205375
X188525Y206500
X184250Y199750
X177975Y192075
X182900Y190300
X182900Y181525
X163875Y178700
X160400Y185125
X167825Y206725
X171425Y211675
X173450Y223600
X168500Y230575
X170175Y235725
X173225Y239575
X172775Y247000
X165800Y245650
X159050Y244075
X163775Y235300
X164675Y223150
X147350Y229900
X150050Y235300
X143975Y238450
X137450Y238900
X132500Y239125
X130250Y227200
X125525Y223600
X112475Y222925
X105000Y210950
X120000Y180950
X128000Y184450
X134075Y188050
X134750Y193450
X139250Y195700
X147125Y213925
X142850Y217975
X143750Y222700
X161525Y255775
X161125Y265225
X164675Y271300
X173000Y272425
X185000Y275950
X189875Y267925
X193025Y283675
X197525Y284800
X187625Y297625
X169775Y300725
X161525Y298975
X150400Y284600
X145325Y281875
X120350Y262525
X93125Y253525
X85000Y250950
X80000Y260950
X79625Y268375
X85000Y275950
X71750Y285700
X65000Y265950
X65000Y260950
X50000Y265950
X45000Y260950
X65000Y220950
X70000Y210950
X75000Y220950
X55000Y205950
X50000Y200950
X101000Y150700
X119000Y155200
X133175Y149575
X140000Y150950
X143875Y160050
X150500Y139450
X162425Y141250
X175250Y155200
X171650Y161275
X181125Y150950
X185375Y161275
X205000Y149375
X208100Y156550
X218000Y150700
X222500Y157450
X220025Y165325
X230600Y166900
X228350Y184000
X239150Y206275
X243650Y220900
X240500Y227200
X236450Y238675
X245450Y251050
X220475Y249475
X213500Y245200
X213500Y236200
X219350Y262525
X217325Y270850
X207875Y267250
X208775Y287050
X181325Y248575
X184250Y236200
X186500Y220450
X190100Y215950
X229475Y150025
X240725Y131800
X247250Y116950
X248700Y108525
X236675Y98475
X230550Y104825
X230550Y75725
X202250Y87700
X185000Y70950
X175000Y65950
X170000Y85950
X150000Y70950
X135000Y65950
X125000Y75950
X125000Y80950
X125000Y100950
X120000Y105950
X135000Y115950
X150000Y115950
X140000Y100950
X130000Y130950
X100000Y95950
X65000Y100950
X175250Y121450
X184025Y121450
X190000Y115950
X202475Y110875
X205000Y135950
X109100Y301225
X110000Y308200
X101000Y312700
X103250Y317200
X93575Y304375
X89075Y300775
X89525Y312700
X83000Y314950
X89075Y339025
X124175Y319675
X191450Y339250
X191450Y346900
X215075Y346900
X230825Y339250
T02
X234803Y342997
X234803Y350871
X226929Y350871
X226929Y342997
X219055Y342997
X219055Y350871
X211181Y350871
X211181Y342997
X203307Y342997
X195433Y342997
X195433Y350871
X203307Y350871
X203307Y335123
X203307Y327249
X195433Y327249
X195433Y335123
X187559Y335123
X187559Y327249
X179685Y327249
X179685Y335123
X171811Y335123
X171811Y327249
X163937Y327249
X163937Y335123
X156063Y335123
X156063Y327249
X148189Y327249
X148189Y335123
X140315Y335123
X140315Y327249
X132441Y327249
X132441Y335123
X124567Y335123
X124567Y327249
X116693Y327249
X108819Y327249
X108819Y335123
X116693Y335123
X116693Y342997
X124567Y342997
X124567Y350871
X116693Y350871
X108819Y350871
X108819Y342997
X100945Y342997
X93071Y342997
X93071Y350871
X100945Y350871
X100945Y335123
X100945Y327249
X93071Y327249
X93071Y335123
X85197Y335123
X85197Y327249
X85197Y342997
X85197Y350871
X132441Y350871
X132441Y342997
X140315Y342997
X140315Y350871
X148189Y350871
X148189Y342997
X156063Y342997
X156063Y350871
X163937Y350871
X163937Y342997
X171811Y342997
X171811Y350871
X179685Y350871
X179685Y342997
X187559Y342997
X187559Y350871
X211181Y335123
X211181Y327249
X219055Y327249
X226929Y327249
X226929Y335123
X219055Y335123
X234803Y335123
X234803Y327249
T03
X174230Y56142
X164387Y56142
X156513Y56142
X146670Y56142
T04
X55000Y90950
X55000Y100950
X55000Y110950
X55000Y120950
X55000Y130950
X55000Y140950
X55000Y150950
X55000Y160950
X55000Y170950
X55000Y180950
X45000Y180950
X45000Y170950
X45000Y160950
X45000Y150950
X45000Y140950
X45000Y130950
X45000Y120950
X45000Y110950
X45000Y100950
X45000Y90950
X265000Y85950
X265000Y95950
X265000Y105950
X265000Y115950
X265000Y125950
X265000Y135950
X265000Y145950
X265000Y155950
X265000Y165950
X265000Y175950
X275000Y175950
X275000Y165950
X275000Y155950
X275000Y145950
X275000Y135950
X275000Y125950
X275000Y115950
X275000Y105950
X275000Y95950
X275000Y85950
T05
X256004Y329056
X256004Y339056
X248602Y339056
X248602Y329056
X248602Y349056
X256004Y349056
X71398Y349060
X63996Y349060
X63996Y339060
X63996Y329060
X71398Y329060
X71398Y339060
T06
X53130Y338942
X266870Y338942
T07
X186316Y45472
X134584Y45472
M30
