G75*
%MOIN*%
%OFA0B0*%
%FSLAX25Y25*%
%IPPOS*%
%LPD*%
%AMOC8*
5,1,8,0,0,1.08239X$1,22.5*
%
%ADD10R,0.05906X0.05118*%
%ADD11R,0.05118X0.05906*%
%ADD12R,0.06890X0.02559*%
%ADD13R,0.05709X0.01772*%
%ADD14R,0.04724X0.01378*%
%ADD15R,0.04331X0.01772*%
%ADD16R,0.03937X0.01181*%
D10*
X0052583Y0005154D03*
X0052583Y0011846D03*
D11*
X0020487Y0048500D03*
X0027180Y0048500D03*
X0027987Y0028500D03*
X0034680Y0028500D03*
X0034680Y0079750D03*
X0027987Y0079750D03*
X0025487Y0129750D03*
X0032180Y0129750D03*
X0046475Y0145413D03*
X0046490Y0153963D03*
X0053183Y0153963D03*
X0053168Y0145413D03*
X0039680Y0163500D03*
X0037180Y0171000D03*
X0032987Y0163500D03*
X0030487Y0171000D03*
D12*
X0022810Y0021000D03*
X0022810Y0016000D03*
X0022810Y0011000D03*
X0022810Y0006000D03*
X0044857Y0006000D03*
X0044857Y0011000D03*
X0044857Y0016000D03*
X0044857Y0021000D03*
D13*
X0044995Y0034661D03*
X0044995Y0037220D03*
X0044995Y0039780D03*
X0044995Y0042339D03*
X0027672Y0042339D03*
X0027672Y0039780D03*
X0027672Y0037220D03*
X0027672Y0034661D03*
D14*
X0027318Y0054543D03*
X0027318Y0057102D03*
X0027318Y0059661D03*
X0027318Y0062220D03*
X0027318Y0064780D03*
X0027318Y0067339D03*
X0027318Y0069898D03*
X0027318Y0072457D03*
X0050349Y0072457D03*
X0050349Y0069898D03*
X0050349Y0067339D03*
X0050349Y0064780D03*
X0050349Y0062220D03*
X0050349Y0059661D03*
X0050349Y0057102D03*
X0050349Y0054543D03*
D15*
X0038951Y0147161D03*
X0038951Y0149720D03*
X0038951Y0152280D03*
X0038951Y0154839D03*
X0028715Y0154839D03*
X0028715Y0152280D03*
X0028715Y0149720D03*
X0028715Y0147161D03*
D16*
X0026235Y0122634D03*
X0026235Y0120075D03*
X0026235Y0117516D03*
X0026235Y0114957D03*
X0026235Y0112398D03*
X0026235Y0109839D03*
X0026235Y0107280D03*
X0026235Y0104720D03*
X0026235Y0102161D03*
X0026235Y0099602D03*
X0026235Y0097043D03*
X0026235Y0094484D03*
X0026235Y0091925D03*
X0026235Y0089366D03*
X0051432Y0089366D03*
X0051432Y0091925D03*
X0051432Y0094484D03*
X0051432Y0097043D03*
X0051432Y0099602D03*
X0051432Y0102161D03*
X0051432Y0104720D03*
X0051432Y0107280D03*
X0051432Y0109839D03*
X0051432Y0112398D03*
X0051432Y0114957D03*
X0051432Y0117516D03*
X0051432Y0120075D03*
X0051432Y0122634D03*
M02*
