G75*
%MOIN*%
%OFA0B0*%
%FSLAX25Y25*%
%IPPOS*%
%LPD*%
%AMOC8*
5,1,8,0,0,1.08239X$1,22.5*
%
%ADD10C,0.06400*%
%ADD11C,0.01600*%
%ADD12C,0.05543*%
%ADD13C,0.04362*%
%ADD14C,0.04165*%
%ADD15C,0.01200*%
D10*
X0011333Y0011000D03*
X0011333Y0021000D03*
X0011333Y0068500D03*
X0011333Y0078500D03*
X0011333Y0088500D03*
X0011333Y0098500D03*
X0011333Y0108500D03*
X0011333Y0118500D03*
X0011333Y0128500D03*
X0011333Y0138500D03*
X0016333Y0158500D03*
X0016333Y0168500D03*
X0028833Y0181000D03*
X0038833Y0181000D03*
X0073833Y0182250D03*
X0073833Y0172250D03*
X0073833Y0161000D03*
X0073833Y0151000D03*
X0073833Y0141000D03*
X0073833Y0131000D03*
X0073833Y0121000D03*
X0073833Y0111000D03*
X0073833Y0101000D03*
X0073833Y0091000D03*
X0073833Y0079750D03*
X0073833Y0069750D03*
X0073833Y0059750D03*
X0073833Y0049750D03*
X0073833Y0039750D03*
X0073833Y0029750D03*
X0073833Y0019750D03*
X0073833Y0009750D03*
D11*
X0063833Y0008993D02*
X0053833Y0008993D01*
X0053833Y0010591D02*
X0063833Y0010591D01*
X0063833Y0012190D02*
X0053833Y0012190D01*
X0053833Y0013788D02*
X0063833Y0013788D01*
X0063833Y0015387D02*
X0053833Y0015387D01*
X0053833Y0016985D02*
X0063833Y0016985D01*
X0063833Y0018584D02*
X0053833Y0018584D01*
X0053833Y0020182D02*
X0063833Y0020182D01*
X0063833Y0021781D02*
X0053833Y0021781D01*
X0053833Y0023379D02*
X0063833Y0023379D01*
X0063833Y0024978D02*
X0053833Y0024978D01*
X0053833Y0026000D02*
X0046158Y0026000D01*
X0046364Y0026498D01*
X0046364Y0028002D01*
X0045789Y0029392D01*
X0044725Y0030455D01*
X0043335Y0031031D01*
X0041831Y0031031D01*
X0040441Y0030455D01*
X0039378Y0029392D01*
X0038802Y0028002D01*
X0038802Y0026950D01*
X0018495Y0026950D01*
X0011333Y0034111D01*
X0011333Y0056000D01*
X0025083Y0056000D01*
X0025083Y0060173D01*
X0025114Y0060248D01*
X0025114Y0061752D01*
X0025083Y0061827D01*
X0025083Y0143500D01*
X0010083Y0143500D01*
X0010522Y0159295D01*
X0012135Y0160908D01*
X0011533Y0159455D01*
X0011533Y0157545D01*
X0012264Y0155781D01*
X0013614Y0154431D01*
X0015379Y0153700D01*
X0017288Y0153700D01*
X0019052Y0154431D01*
X0020403Y0155781D01*
X0021133Y0157545D01*
X0021133Y0159455D01*
X0020403Y0161219D01*
X0019052Y0162569D01*
X0017288Y0163300D01*
X0015379Y0163300D01*
X0013926Y0162698D01*
X0015060Y0163832D01*
X0015379Y0163700D01*
X0017288Y0163700D01*
X0019052Y0164431D01*
X0020403Y0165781D01*
X0021133Y0167545D01*
X0021133Y0169455D01*
X0020403Y0171219D01*
X0019052Y0172569D01*
X0017288Y0173300D01*
X0015379Y0173300D01*
X0013614Y0172569D01*
X0012264Y0171219D01*
X0011533Y0169455D01*
X0011533Y0167545D01*
X0011665Y0167226D01*
X0010716Y0166277D01*
X0011303Y0187401D01*
X0053103Y0187401D01*
X0058833Y0187250D01*
X0058833Y0069750D01*
X0063833Y0071000D01*
X0063833Y0003500D01*
X0053833Y0003500D01*
X0053833Y0026000D01*
X0046364Y0026576D02*
X0063833Y0026576D01*
X0063833Y0028175D02*
X0046293Y0028175D01*
X0045407Y0029773D02*
X0063833Y0029773D01*
X0063833Y0031372D02*
X0014073Y0031372D01*
X0012474Y0032970D02*
X0063833Y0032970D01*
X0063833Y0034569D02*
X0011333Y0034569D01*
X0011333Y0036167D02*
X0063833Y0036167D01*
X0063833Y0037766D02*
X0011333Y0037766D01*
X0011333Y0039364D02*
X0063833Y0039364D01*
X0063833Y0040963D02*
X0011333Y0040963D01*
X0011333Y0042561D02*
X0063833Y0042561D01*
X0063833Y0044160D02*
X0011333Y0044160D01*
X0011333Y0045758D02*
X0063833Y0045758D01*
X0063833Y0047357D02*
X0011333Y0047357D01*
X0011333Y0048955D02*
X0063833Y0048955D01*
X0063833Y0050554D02*
X0011333Y0050554D01*
X0011333Y0052152D02*
X0063833Y0052152D01*
X0063833Y0053751D02*
X0011333Y0053751D01*
X0011333Y0055349D02*
X0063833Y0055349D01*
X0063833Y0056948D02*
X0025083Y0056948D01*
X0025083Y0058546D02*
X0063833Y0058546D01*
X0063833Y0060145D02*
X0025083Y0060145D01*
X0025114Y0061743D02*
X0063833Y0061743D01*
X0063833Y0063342D02*
X0025083Y0063342D01*
X0025083Y0064940D02*
X0063833Y0064940D01*
X0063833Y0066539D02*
X0025083Y0066539D01*
X0025083Y0068137D02*
X0063833Y0068137D01*
X0063833Y0069736D02*
X0025083Y0069736D01*
X0025083Y0071334D02*
X0058833Y0071334D01*
X0058833Y0072933D02*
X0025083Y0072933D01*
X0025083Y0074532D02*
X0058833Y0074532D01*
X0058833Y0076130D02*
X0025083Y0076130D01*
X0025083Y0077729D02*
X0058833Y0077729D01*
X0058833Y0079327D02*
X0025083Y0079327D01*
X0025083Y0080926D02*
X0058833Y0080926D01*
X0058833Y0082524D02*
X0025083Y0082524D01*
X0025083Y0084123D02*
X0058833Y0084123D01*
X0058833Y0085721D02*
X0025083Y0085721D01*
X0025083Y0087320D02*
X0058833Y0087320D01*
X0058833Y0088918D02*
X0025083Y0088918D01*
X0025083Y0090517D02*
X0058833Y0090517D01*
X0058833Y0092115D02*
X0025083Y0092115D01*
X0025083Y0093714D02*
X0058833Y0093714D01*
X0058833Y0095312D02*
X0025083Y0095312D01*
X0025083Y0096911D02*
X0058833Y0096911D01*
X0058833Y0098509D02*
X0025083Y0098509D01*
X0025083Y0100108D02*
X0058833Y0100108D01*
X0058833Y0101706D02*
X0025083Y0101706D01*
X0025083Y0103305D02*
X0058833Y0103305D01*
X0058833Y0104903D02*
X0025083Y0104903D01*
X0025083Y0106502D02*
X0058833Y0106502D01*
X0058833Y0108100D02*
X0025083Y0108100D01*
X0025083Y0109699D02*
X0058833Y0109699D01*
X0058833Y0111297D02*
X0025083Y0111297D01*
X0025083Y0112896D02*
X0058833Y0112896D01*
X0058833Y0114494D02*
X0025083Y0114494D01*
X0025083Y0116093D02*
X0058833Y0116093D01*
X0058833Y0117691D02*
X0025083Y0117691D01*
X0025083Y0119290D02*
X0058833Y0119290D01*
X0058833Y0120888D02*
X0025083Y0120888D01*
X0025083Y0122487D02*
X0058833Y0122487D01*
X0058833Y0124085D02*
X0025083Y0124085D01*
X0025083Y0125684D02*
X0058833Y0125684D01*
X0058833Y0127282D02*
X0025083Y0127282D01*
X0025083Y0128881D02*
X0058833Y0128881D01*
X0058833Y0130479D02*
X0025083Y0130479D01*
X0025083Y0132078D02*
X0058833Y0132078D01*
X0058833Y0133676D02*
X0025083Y0133676D01*
X0025083Y0135275D02*
X0058833Y0135275D01*
X0058833Y0136873D02*
X0025083Y0136873D01*
X0025083Y0138472D02*
X0058833Y0138472D01*
X0058833Y0140070D02*
X0025083Y0140070D01*
X0025083Y0141669D02*
X0058833Y0141669D01*
X0058833Y0143268D02*
X0025083Y0143268D01*
X0020516Y0156056D02*
X0058833Y0156056D01*
X0058833Y0157654D02*
X0021133Y0157654D01*
X0021133Y0159253D02*
X0058833Y0159253D01*
X0058833Y0160851D02*
X0020555Y0160851D01*
X0019172Y0162450D02*
X0058833Y0162450D01*
X0058833Y0164048D02*
X0018129Y0164048D01*
X0016333Y0168500D02*
X0003833Y0156000D01*
X0003833Y0074750D01*
X0003833Y0063500D01*
X0006333Y0061000D01*
X0003833Y0063500D02*
X0003833Y0043500D01*
X0015671Y0029773D02*
X0039759Y0029773D01*
X0038874Y0028175D02*
X0017270Y0028175D01*
X0053833Y0007394D02*
X0063833Y0007394D01*
X0063833Y0005796D02*
X0053833Y0005796D01*
X0053833Y0004197D02*
X0063833Y0004197D01*
X0058833Y0144866D02*
X0010121Y0144866D01*
X0010166Y0146465D02*
X0058833Y0146465D01*
X0058833Y0148063D02*
X0010210Y0148063D01*
X0010254Y0149662D02*
X0058833Y0149662D01*
X0058833Y0151260D02*
X0010299Y0151260D01*
X0010343Y0152859D02*
X0058833Y0152859D01*
X0058833Y0154457D02*
X0019079Y0154457D01*
X0013588Y0154457D02*
X0010388Y0154457D01*
X0010432Y0156056D02*
X0012150Y0156056D01*
X0011533Y0157654D02*
X0010476Y0157654D01*
X0010521Y0159253D02*
X0011533Y0159253D01*
X0012079Y0160851D02*
X0012112Y0160851D01*
X0011658Y0167245D02*
X0010743Y0167245D01*
X0010787Y0168844D02*
X0011533Y0168844D01*
X0011942Y0170442D02*
X0010832Y0170442D01*
X0010876Y0172041D02*
X0013086Y0172041D01*
X0010921Y0173639D02*
X0058833Y0173639D01*
X0058833Y0172041D02*
X0019581Y0172041D01*
X0020724Y0170442D02*
X0058833Y0170442D01*
X0058833Y0168844D02*
X0021133Y0168844D01*
X0021009Y0167245D02*
X0058833Y0167245D01*
X0058833Y0165647D02*
X0020268Y0165647D01*
X0026114Y0176931D02*
X0024764Y0178281D01*
X0024033Y0180045D01*
X0024033Y0181955D01*
X0024764Y0183719D01*
X0026114Y0185069D01*
X0027879Y0185800D01*
X0029788Y0185800D01*
X0031552Y0185069D01*
X0032903Y0183719D01*
X0033633Y0181955D01*
X0033633Y0180045D01*
X0032903Y0178281D01*
X0031552Y0176931D01*
X0029788Y0176200D01*
X0027879Y0176200D01*
X0026114Y0176931D01*
X0026343Y0176836D02*
X0011009Y0176836D01*
X0010965Y0175238D02*
X0058833Y0175238D01*
X0058833Y0176836D02*
X0041609Y0176836D01*
X0041454Y0176724D02*
X0042091Y0177186D01*
X0042647Y0177743D01*
X0043110Y0178379D01*
X0043467Y0179081D01*
X0043710Y0179829D01*
X0043833Y0180606D01*
X0043833Y0180800D01*
X0039033Y0180800D01*
X0039033Y0176000D01*
X0039227Y0176000D01*
X0040004Y0176123D01*
X0040753Y0176366D01*
X0041454Y0176724D01*
X0043138Y0178435D02*
X0058833Y0178435D01*
X0058833Y0180033D02*
X0043743Y0180033D01*
X0043833Y0181200D02*
X0043833Y0181394D01*
X0043710Y0182171D01*
X0043467Y0182919D01*
X0043110Y0183621D01*
X0042647Y0184257D01*
X0042091Y0184814D01*
X0041454Y0185276D01*
X0040753Y0185634D01*
X0040004Y0185877D01*
X0039227Y0186000D01*
X0039033Y0186000D01*
X0039033Y0181200D01*
X0038633Y0181200D01*
X0038633Y0180800D01*
X0033833Y0180800D01*
X0033833Y0180606D01*
X0033956Y0179829D01*
X0034200Y0179081D01*
X0034557Y0178379D01*
X0035020Y0177743D01*
X0035576Y0177186D01*
X0036213Y0176724D01*
X0036914Y0176366D01*
X0037662Y0176123D01*
X0038440Y0176000D01*
X0038633Y0176000D01*
X0038633Y0180800D01*
X0039033Y0180800D01*
X0039033Y0181200D01*
X0043833Y0181200D01*
X0043796Y0181632D02*
X0058833Y0181632D01*
X0058833Y0183230D02*
X0043309Y0183230D01*
X0042070Y0184829D02*
X0058833Y0184829D01*
X0058833Y0186427D02*
X0011276Y0186427D01*
X0011231Y0184829D02*
X0025874Y0184829D01*
X0024562Y0183230D02*
X0011187Y0183230D01*
X0011143Y0181632D02*
X0024033Y0181632D01*
X0024038Y0180033D02*
X0011098Y0180033D01*
X0011054Y0178435D02*
X0024700Y0178435D01*
X0031324Y0176836D02*
X0036058Y0176836D01*
X0034529Y0178435D02*
X0032966Y0178435D01*
X0033628Y0180033D02*
X0033924Y0180033D01*
X0033833Y0181200D02*
X0038633Y0181200D01*
X0038633Y0186000D01*
X0038440Y0186000D01*
X0037662Y0185877D01*
X0036914Y0185634D01*
X0036213Y0185276D01*
X0035576Y0184814D01*
X0035020Y0184257D01*
X0034557Y0183621D01*
X0034200Y0182919D01*
X0033956Y0182171D01*
X0033833Y0181394D01*
X0033833Y0181200D01*
X0033871Y0181632D02*
X0033633Y0181632D01*
X0033105Y0183230D02*
X0034358Y0183230D01*
X0035597Y0184829D02*
X0031793Y0184829D01*
X0038633Y0184829D02*
X0039033Y0184829D01*
X0039033Y0183230D02*
X0038633Y0183230D01*
X0038633Y0181632D02*
X0039033Y0181632D01*
X0039033Y0180033D02*
X0038633Y0180033D01*
X0038633Y0178435D02*
X0039033Y0178435D01*
X0039033Y0176836D02*
X0038633Y0176836D01*
D12*
X0018833Y0031000D03*
D13*
X0013833Y0048500D03*
X0021333Y0061000D03*
X0017583Y0073500D03*
X0042583Y0027250D03*
X0043833Y0048500D03*
X0058833Y0007250D03*
X0053833Y0127250D03*
X0046333Y0161000D03*
X0048833Y0168500D03*
X0043833Y0171000D03*
X0027583Y0136000D03*
X0021333Y0148500D03*
D14*
X0026358Y0085734D03*
D15*
X0026333Y0088500D01*
X0017583Y0073500D02*
X0005083Y0073500D01*
X0003833Y0074750D01*
X0006333Y0061000D02*
X0021333Y0061000D01*
X0003833Y0038500D02*
X0017583Y0024750D01*
X0040083Y0024750D01*
X0042583Y0027250D01*
X0003833Y0038500D02*
X0003833Y0043500D01*
M02*
