G75*
%MOIN*%
%OFA0B0*%
%FSLAX25Y25*%
%IPPOS*%
%LPD*%
%AMOC8*
5,1,8,0,0,1.08239X$1,22.5*
%
%ADD10C,0.07200*%
%ADD11C,0.06343*%
%ADD12C,0.05162*%
%ADD13C,0.04965*%
D10*
X0011333Y0011000D03*
X0011333Y0021000D03*
X0011333Y0068500D03*
X0011333Y0078500D03*
X0011333Y0088500D03*
X0011333Y0098500D03*
X0011333Y0108500D03*
X0011333Y0118500D03*
X0011333Y0128500D03*
X0011333Y0138500D03*
X0016333Y0158500D03*
X0016333Y0168500D03*
X0028833Y0181000D03*
X0038833Y0181000D03*
X0073833Y0182250D03*
X0073833Y0172250D03*
X0073833Y0161000D03*
X0073833Y0151000D03*
X0073833Y0141000D03*
X0073833Y0131000D03*
X0073833Y0121000D03*
X0073833Y0111000D03*
X0073833Y0101000D03*
X0073833Y0091000D03*
X0073833Y0079750D03*
X0073833Y0069750D03*
X0073833Y0059750D03*
X0073833Y0049750D03*
X0073833Y0039750D03*
X0073833Y0029750D03*
X0073833Y0019750D03*
X0073833Y0009750D03*
D11*
X0018833Y0031000D03*
D12*
X0013833Y0048500D03*
X0021333Y0061000D03*
X0017583Y0073500D03*
X0042583Y0027250D03*
X0043833Y0048500D03*
X0058833Y0007250D03*
X0053833Y0127250D03*
X0046333Y0161000D03*
X0048833Y0168500D03*
X0043833Y0171000D03*
X0027583Y0136000D03*
X0021333Y0148500D03*
D13*
X0026358Y0085734D03*
M02*
