%
M48
M72
T01C0.02165
T02C0.02362
T03C0.03543
T04C0.04000
%
T01
X26358Y85734
T02
X17583Y73500
X21333Y61000
X13833Y48500
X42583Y27250
X43833Y48500
X58833Y7250
X53833Y127250
X46333Y161000
X48833Y168500
X43833Y171000
X27583Y136000
X21333Y148500
T03
X18833Y31000
T04
X11333Y11000
X11333Y21000
X11333Y68500
X11333Y78500
X11333Y88500
X11333Y98500
X11333Y108500
X11333Y118500
X11333Y128500
X11333Y138500
X16333Y158500
X16333Y168500
X28833Y181000
X38833Y181000
X73833Y182250
X73833Y172250
X73833Y161000
X73833Y151000
X73833Y141000
X73833Y131000
X73833Y121000
X73833Y111000
X73833Y101000
X73833Y91000
X73833Y79750
X73833Y69750
X73833Y59750
X73833Y49750
X73833Y39750
X73833Y29750
X73833Y19750
X73833Y9750
M30
