%
M48
M72
T01C0.02165
T02C0.02362
T03C0.03543
T04C0.04000
%
T01
X26955Y85734
T02
X18181Y73500
X21931Y61000
X14431Y48500
X43181Y27250
X44431Y48500
X59431Y7250
X54431Y127250
X46931Y161000
X49431Y168500
X44431Y171000
X28181Y136000
X21931Y148500
T03
X19431Y31000
T04
X11931Y11000
X11931Y21000
X11931Y68500
X11931Y78500
X11931Y88500
X11931Y98500
X11931Y108500
X11931Y118500
X11931Y128500
X11931Y138500
X16931Y158500
X16931Y168500
X29431Y181000
X39431Y181000
X74431Y182250
X74431Y172250
X74431Y161000
X74431Y151000
X74431Y141000
X74431Y131000
X74431Y121000
X74431Y111000
X74431Y101000
X74431Y91000
X74431Y79750
X74431Y69750
X74431Y59750
X74431Y49750
X74431Y39750
X74431Y29750
X74431Y19750
X74431Y9750
M30
