%
M48
M72
T01C0.02362
T02C0.03386
T03C0.03937
T04C0.04000
T05C0.04331
T06C0.04724
T07C0.09055
%
T01
X65000Y85000
X80000Y75000
X80000Y60000
X85000Y100000
X75000Y115000
X80000Y120000
X86375Y120325
X100000Y130000
X100000Y135000
X90000Y145000
X85250Y145750
X75000Y145000
X70000Y145000
X61800Y150000
X75000Y175000
X85000Y165000
X85250Y159250
X101000Y154750
X119000Y159250
X133175Y153625
X140000Y155000
X145000Y165000
X150500Y143500
X166250Y145750
X175250Y159250
X180000Y155000
X173000Y166000
X163875Y182750
X164900Y188500
X177750Y195000
X184250Y195250
X186500Y202000
X190100Y207850
X195950Y206950
X197750Y199750
X200000Y195250
X206750Y195250
X209675Y191425
X206750Y186250
X195950Y172750
X182450Y187600
X168275Y213925
X173450Y219325
X173450Y227650
X168500Y234625
X170175Y239775
X173225Y243625
X172775Y251050
X165800Y249700
X159050Y248125
X163775Y239350
X164675Y227200
X147350Y233950
X150050Y239350
X143975Y242500
X137450Y242950
X132500Y243175
X130250Y231250
X125525Y227650
X112475Y226975
X105000Y235000
X110900Y239350
X113150Y244075
X118425Y244950
X112250Y253075
X105275Y266125
X93125Y257575
X85000Y255000
X80000Y265000
X79625Y272425
X85000Y280000
X71750Y289750
X65000Y270000
X65000Y265000
X50000Y270000
X45000Y265000
X65000Y225000
X75000Y225000
X70000Y215000
X75000Y205000
X80000Y210000
X90000Y215000
X95000Y225000
X105000Y215000
X120000Y185000
X128000Y188500
X134075Y192100
X134750Y197500
X139250Y199750
X147125Y217975
X142850Y222025
X143750Y226750
X161525Y259825
X161125Y269275
X164675Y275350
X173000Y276475
X185000Y280000
X189875Y271975
X193025Y287725
X197525Y288850
X187625Y301675
X192350Y310000
X197750Y310000
X203375Y310000
X205400Y320800
X204725Y325750
X211475Y319900
X215075Y323500
X215000Y315000
X227000Y317650
X236225Y304150
X234650Y283900
X231500Y274900
X241625Y272875
X252200Y282550
X257375Y274450
X269750Y272425
X276050Y280750
X284375Y292900
X270725Y315675
X271775Y325075
X280325Y322150
X259400Y289750
X255000Y255000
X245450Y255100
X236450Y242725
X240500Y231250
X243650Y224950
X224750Y208750
X227675Y203800
X231275Y195250
X231500Y186250
X241175Y177475
X244100Y186025
X252875Y181750
X258725Y187375
X259325Y193150
X250000Y200000
X240500Y197500
X219100Y190450
X216425Y203350
X190100Y220000
X186500Y224500
X184250Y240250
X181325Y252625
X207875Y271300
X217325Y274900
X219350Y266575
X218900Y256000
X213500Y249250
X213500Y240250
X208775Y291100
X191225Y323500
X182225Y323725
X177275Y324625
X167600Y326650
X182000Y315400
X169775Y304775
X161525Y303025
X150400Y288650
X145325Y285925
X130025Y289975
X121925Y286150
X108875Y285250
X110000Y280000
X120350Y266575
X109100Y305275
X110000Y312250
X101000Y316750
X103250Y321250
X93575Y308425
X89075Y304825
X89525Y316750
X83000Y319000
X89075Y343075
X124175Y323725
X134075Y319675
X142400Y319900
X150725Y323950
X139025Y302575
X133850Y306175
X124775Y309550
X191450Y343300
X191450Y350950
X215075Y350950
X230825Y343300
X264800Y250375
X290000Y244750
X224750Y166000
X222500Y161500
X218000Y154750
X211475Y165100
X205000Y155000
X205000Y140000
X190000Y120000
X188750Y127750
X175250Y125500
X150000Y120000
X135000Y120000
X130000Y135000
X120000Y110000
X125000Y105000
X140000Y105000
X125000Y85000
X125000Y80000
X135000Y70000
X150000Y75000
X170000Y90000
X185000Y75000
X175000Y70000
X202250Y91750
X202250Y116500
X233750Y157000
X249500Y136750
X254000Y127750
X252750Y120000
X240000Y110000
X245000Y105000
X240000Y80000
X100000Y100000
X65000Y105000
X61575Y180000
X65000Y190000
X75000Y195000
X55000Y210000
X50000Y205000
T02
X85197Y331299
X93071Y331299
X100945Y331299
X108819Y331299
X116693Y331299
X124567Y331299
X132441Y331299
X140315Y331299
X148189Y331299
X156063Y331299
X163937Y331299
X171811Y331299
X179685Y331299
X187559Y331299
X195433Y331299
X203307Y331299
X211181Y331299
X219055Y331299
X226929Y331299
X234803Y331299
X234803Y339173
X234803Y347047
X234803Y354921
X226929Y354921
X226929Y347047
X226929Y339173
X219055Y339173
X219055Y347047
X219055Y354921
X211181Y354921
X211181Y347047
X211181Y339173
X203307Y339173
X195433Y339173
X195433Y347047
X203307Y347047
X203307Y354921
X195433Y354921
X187559Y354921
X187559Y347047
X187559Y339173
X179685Y339173
X179685Y347047
X179685Y354921
X171811Y354921
X171811Y347047
X171811Y339173
X163937Y339173
X163937Y347047
X163937Y354921
X156063Y354921
X156063Y347047
X156063Y339173
X148189Y339173
X148189Y347047
X148189Y354921
X140315Y354921
X140315Y347047
X140315Y339173
X132441Y339173
X132441Y347047
X132441Y354921
X124567Y354921
X124567Y347047
X124567Y339173
X116693Y339173
X108819Y339173
X108819Y347047
X116693Y347047
X116693Y354921
X108819Y354921
X100945Y354921
X100945Y347047
X100945Y339173
X93071Y339173
X93071Y347047
X93071Y354921
X85197Y354921
X85197Y347047
X85197Y339173
T03
X146220Y56142
X156063Y56142
X163937Y56142
X173780Y56142
T04
X265000Y90000
X265000Y100000
X265000Y110000
X265000Y120000
X265000Y130000
X265000Y140000
X265000Y150000
X265000Y160000
X265000Y170000
X265000Y180000
X275000Y180000
X275000Y170000
X275000Y160000
X275000Y150000
X275000Y140000
X275000Y130000
X275000Y120000
X275000Y110000
X275000Y100000
X275000Y90000
X55000Y95000
X55000Y105000
X55000Y115000
X55000Y125000
X55000Y135000
X55000Y145000
X55000Y155000
X55000Y165000
X55000Y175000
X55000Y185000
X45000Y185000
X45000Y175000
X45000Y165000
X45000Y155000
X45000Y145000
X45000Y135000
X45000Y125000
X45000Y115000
X45000Y105000
X45000Y95000
T05
X63996Y333110
X71398Y333110
X71398Y343110
X71398Y353110
X63996Y353110
X63996Y343110
X248602Y343106
X248602Y353106
X256004Y353106
X256004Y343106
X256004Y333106
X248602Y333106
T06
X266870Y342992
X53130Y342992
T07
X134134Y45472
X185866Y45472
M30
