G75*
%MOIN*%
%OFA0B0*%
%FSLAX25Y25*%
%IPPOS*%
%LPD*%
%AMOC8*
5,1,8,0,0,1.08239X$1,22.5*
%
%ADD10C,0.00000*%
%ADD11C,0.06000*%
%ADD12R,0.04724X0.01378*%
%ADD13C,0.01600*%
%ADD14C,0.01000*%
D10*
X0001000Y0001000D02*
X0001000Y0089701D01*
X0070921Y0089701D01*
X0070921Y0001000D01*
X0001000Y0001000D01*
D11*
X0008000Y0011000D02*
X0014000Y0011000D01*
X0014000Y0021000D02*
X0008000Y0021000D01*
X0008000Y0031000D02*
X0014000Y0031000D01*
X0014000Y0041000D02*
X0008000Y0041000D01*
X0008000Y0051000D02*
X0014000Y0051000D01*
X0014000Y0061000D02*
X0008000Y0061000D01*
X0008000Y0071000D02*
X0014000Y0071000D01*
X0014000Y0081000D02*
X0008000Y0081000D01*
X0058000Y0081000D02*
X0064000Y0081000D01*
X0064000Y0071000D02*
X0058000Y0071000D01*
X0058000Y0061000D02*
X0064000Y0061000D01*
X0064000Y0051000D02*
X0058000Y0051000D01*
X0058000Y0041000D02*
X0064000Y0041000D01*
X0064000Y0031000D02*
X0058000Y0031000D01*
X0058000Y0021000D02*
X0064000Y0021000D01*
X0064000Y0011000D02*
X0058000Y0011000D01*
D12*
X0047516Y0037043D03*
X0047516Y0039602D03*
X0047516Y0042161D03*
X0047516Y0044720D03*
X0047516Y0047280D03*
X0047516Y0049839D03*
X0047516Y0052398D03*
X0047516Y0054957D03*
X0024484Y0054957D03*
X0024484Y0052398D03*
X0024484Y0049839D03*
X0024484Y0047280D03*
X0024484Y0044720D03*
X0024484Y0042161D03*
X0024484Y0039602D03*
X0024484Y0037043D03*
D13*
X0041000Y0036000D02*
X0041000Y0016000D01*
X0046000Y0011000D01*
X0061000Y0011000D01*
X0041000Y0036000D02*
X0042043Y0037043D01*
X0047516Y0037043D01*
X0047516Y0054957D02*
X0042043Y0054957D01*
X0041000Y0056000D01*
X0041000Y0076000D01*
X0046000Y0081000D01*
X0061000Y0081000D01*
D14*
X0061000Y0071000D02*
X0051178Y0061178D01*
X0051178Y0053729D01*
X0050305Y0052857D01*
X0047975Y0052857D01*
X0047516Y0052398D01*
X0047516Y0049839D02*
X0049846Y0049839D01*
X0051178Y0051170D01*
X0051178Y0051178D01*
X0061000Y0061000D01*
X0061000Y0051000D02*
X0057280Y0047280D01*
X0047516Y0047280D01*
X0047516Y0044720D02*
X0048086Y0044150D01*
X0050416Y0044150D01*
X0053567Y0041000D01*
X0061000Y0041000D01*
X0060994Y0031013D02*
X0050416Y0041591D01*
X0048086Y0041591D01*
X0047516Y0042161D01*
X0047516Y0039602D02*
X0047975Y0039143D01*
X0050305Y0039143D01*
X0051178Y0038271D01*
X0051178Y0030822D01*
X0061000Y0021000D01*
X0061000Y0031000D02*
X0060994Y0031006D01*
X0060994Y0031013D01*
X0024484Y0037043D02*
X0022140Y0037043D01*
X0021048Y0035952D01*
X0021048Y0021048D01*
X0011000Y0011000D01*
X0011000Y0021000D02*
X0018300Y0028300D01*
X0018300Y0035749D01*
X0021584Y0039032D01*
X0023914Y0039032D01*
X0024484Y0039602D01*
X0023914Y0041591D02*
X0024484Y0042161D01*
X0023914Y0041591D02*
X0021584Y0041591D01*
X0011006Y0031013D01*
X0011006Y0031006D01*
X0011000Y0031000D01*
X0011000Y0041000D02*
X0018433Y0041000D01*
X0021584Y0044150D01*
X0023914Y0044150D01*
X0024484Y0044720D01*
X0024484Y0047280D02*
X0023914Y0047850D01*
X0021584Y0047850D01*
X0018433Y0051000D01*
X0011000Y0051000D01*
X0018300Y0056246D02*
X0018300Y0062781D01*
X0011000Y0070081D01*
X0011000Y0071000D01*
X0011000Y0061000D02*
X0020822Y0051178D01*
X0020822Y0051170D01*
X0021584Y0050409D01*
X0023914Y0050409D01*
X0024484Y0049839D01*
X0024359Y0052273D02*
X0024484Y0052398D01*
X0024359Y0052273D02*
X0022273Y0052273D01*
X0018300Y0056246D01*
X0021046Y0056046D02*
X0021046Y0070954D01*
X0011000Y0081000D01*
X0021046Y0056046D02*
X0022134Y0054957D01*
X0024484Y0054957D01*
M02*
