G75*
%MOIN*%
%OFA0B0*%
%FSLAX25Y25*%
%IPPOS*%
%LPD*%
%AMOC8*
5,1,8,0,0,1.08239X$1,22.5*
%
%ADD10C,0.06000*%
D10*
X0008000Y0021000D02*
X0014000Y0021000D01*
X0021000Y0014000D02*
X0021000Y0008000D01*
X0031000Y0008000D02*
X0031000Y0014000D01*
X0041000Y0014000D02*
X0041000Y0008000D01*
X0051000Y0008000D02*
X0051000Y0014000D01*
X0061000Y0014000D02*
X0061000Y0008000D01*
X0071000Y0008000D02*
X0071000Y0014000D01*
X0081000Y0014000D02*
X0081000Y0008000D01*
X0088000Y0021000D02*
X0094000Y0021000D01*
X0094000Y0031000D02*
X0088000Y0031000D01*
X0088000Y0041000D02*
X0094000Y0041000D01*
X0094000Y0051000D02*
X0088000Y0051000D01*
X0088000Y0061000D02*
X0094000Y0061000D01*
X0094000Y0071000D02*
X0088000Y0071000D01*
X0088000Y0081000D02*
X0094000Y0081000D01*
X0081000Y0088000D02*
X0081000Y0094000D01*
X0071000Y0094000D02*
X0071000Y0088000D01*
X0061000Y0088000D02*
X0061000Y0094000D01*
X0051000Y0094000D02*
X0051000Y0088000D01*
X0041000Y0088000D02*
X0041000Y0094000D01*
X0031000Y0094000D02*
X0031000Y0088000D01*
X0021000Y0088000D02*
X0021000Y0094000D01*
X0014000Y0081000D02*
X0008000Y0081000D01*
X0008000Y0071000D02*
X0014000Y0071000D01*
X0014000Y0061000D02*
X0008000Y0061000D01*
X0008000Y0051000D02*
X0014000Y0051000D01*
X0014000Y0041000D02*
X0008000Y0041000D01*
X0008000Y0031000D02*
X0014000Y0031000D01*
M02*
