%
M48
M72
T01C0.04000
%
T01
X11000Y21000
X11000Y31000
X11000Y41000
X11000Y51000
X11000Y61000
X11000Y71000
X11000Y81000
X21000Y91000
X31000Y91000
X41000Y91000
X51000Y91000
X61000Y91000
X71000Y91000
X81000Y91000
X91000Y81000
X91000Y71000
X91000Y61000
X91000Y51000
X91000Y41000
X91000Y31000
X91000Y21000
X81000Y11000
X71000Y11000
X61000Y11000
X51000Y11000
X41000Y11000
X31000Y11000
X21000Y11000
M30
