%
M48
M72
T01C0.01969
T02C0.02362
T03C0.03200
T04C0.03937
T05C0.04724
T06C0.08661
T07C0.11800
T08C0.20669
%
T01
X253372Y37071
X294317Y64236
X279750Y75260
X271876Y81953
X258097Y72898
X269120Y96126
X312821Y94945
X339986Y77228
X435852Y84512
X464002Y92189
X487230Y99669
X493923Y101244
X502191Y101638
X521482Y103606
X524546Y96606
X543923Y93370
X511246Y87465
X498254Y88252
X491561Y87858
X499829Y78409
X507703Y72898
X547467Y112268
X568726Y114236
X525026Y126441
X516758Y133921
X508490Y123291
X476994Y125260
X380538Y155575
X413348Y170008
X394711Y178803
X371089Y213055
X388963Y216756
X342467Y224197
X328963Y232740
X243923Y178803
X249435Y157543
X233960Y150063
X239199Y137465
X262427Y127228
X307309Y168173
X497073Y171717
X522663Y178016
X538412Y178016
X517939Y219354
X554947Y224866
T02
X244120Y65417
X279160Y62268
X307900Y45929
X319514Y38646
X281719Y41598
X258490Y84118
X419514Y139433
T03
X540498Y146441
X550498Y146441
X264317Y167150
X264317Y177150
T04
X236758Y179000
X236758Y169157
X236758Y188843
X567624Y190220
X567624Y180378
X567624Y170535
T05
X523372Y191047
X523372Y201047
X416640Y216126
X406640Y216126
X542742Y281165
X563608Y281165
X399632Y283134
X378766Y283134
X344986Y46835
X344986Y36835
T06
X209199Y161677
X209199Y196323
X595183Y197701
X595183Y163055
T07
X515122Y254577
X447922Y254577
X343075Y253396
X275875Y253396
X381898Y32451
X449098Y32451
T08
X430248Y39551
X400748Y39551
X466772Y261677
X496272Y261677
X324225Y260496
X294725Y260496
M30
