G75*
%MOIN*%
%OFA0B0*%
%FSLAX25Y25*%
%IPPOS*%
%LPD*%
%AMOC8*
5,1,8,0,0,1.08239X$1,22.5*
%
%ADD10R,0.05118X0.05906*%
%ADD11R,0.05906X0.05118*%
%ADD12R,0.04724X0.04724*%
%ADD13R,0.01201X0.03500*%
%ADD14R,0.03937X0.05512*%
%ADD15R,0.02362X0.05118*%
%ADD16R,0.09331X0.08465*%
%ADD17R,0.01654X0.02756*%
%ADD18R,0.01181X0.02362*%
%ADD19R,0.05906X0.07874*%
%ADD20R,0.14961X0.07874*%
%ADD21R,0.05118X0.05512*%
%ADD22R,0.00984X0.01575*%
%ADD23R,0.02756X0.01575*%
%ADD24R,0.22835X0.25197*%
%ADD25R,0.04724X0.08661*%
D10*
X0265065Y0062780D03*
X0271758Y0062780D03*
X0281837Y0053291D03*
X0288530Y0053291D03*
X0283175Y0030850D03*
X0276482Y0030850D03*
X0294868Y0030850D03*
X0301561Y0030850D03*
X0312585Y0030890D03*
X0319278Y0030890D03*
X0419238Y0101362D03*
X0425931Y0101362D03*
X0503687Y0115535D03*
X0510380Y0115535D03*
X0563372Y0129079D03*
X0570065Y0129079D03*
X0571286Y0149669D03*
X0564593Y0149669D03*
X0529553Y0160220D03*
X0522860Y0160220D03*
X0522782Y0170220D03*
X0529475Y0170220D03*
X0419081Y0177346D03*
X0412388Y0177346D03*
X0478372Y0217386D03*
X0485065Y0217386D03*
X0501010Y0217386D03*
X0507703Y0217386D03*
X0507112Y0231953D03*
X0500419Y0231953D03*
X0361522Y0224197D03*
X0354829Y0224197D03*
X0317742Y0221717D03*
X0311049Y0221717D03*
X0311049Y0212661D03*
X0317742Y0212661D03*
X0262821Y0198882D03*
X0256128Y0198882D03*
X0252388Y0130575D03*
X0245695Y0130575D03*
X0333018Y0118449D03*
X0339711Y0118449D03*
X0507506Y0064748D03*
X0514199Y0064748D03*
X0533963Y0086402D03*
X0540656Y0086402D03*
D11*
X0531404Y0106323D03*
X0531404Y0113016D03*
X0484002Y0083685D03*
X0468215Y0083488D03*
X0468215Y0076795D03*
X0484002Y0076992D03*
X0451915Y0077189D03*
X0451915Y0083882D03*
X0418412Y0081638D03*
X0418412Y0088331D03*
X0340065Y0091126D03*
X0340065Y0084433D03*
X0324160Y0090575D03*
X0324160Y0097268D03*
X0305419Y0096520D03*
X0305419Y0089827D03*
X0324160Y0076874D03*
X0324160Y0070181D03*
X0324356Y0058094D03*
X0324356Y0051402D03*
X0261758Y0090772D03*
X0261758Y0097465D03*
X0249947Y0097465D03*
X0249947Y0090772D03*
X0273175Y0110299D03*
X0273175Y0116992D03*
X0248333Y0166126D03*
X0248333Y0172819D03*
X0361364Y0201244D03*
X0361364Y0207937D03*
X0372152Y0189472D03*
X0372152Y0182780D03*
X0386325Y0182504D03*
X0386325Y0189197D03*
X0480262Y0169118D03*
X0491286Y0169315D03*
X0491286Y0162622D03*
X0480262Y0162425D03*
X0512939Y0163803D03*
X0512939Y0170496D03*
D12*
X0554947Y0167780D03*
X0554947Y0159512D03*
X0552506Y0209906D03*
X0552506Y0218173D03*
X0568451Y0218764D03*
X0568451Y0210496D03*
X0568923Y0105969D03*
X0560656Y0105969D03*
X0266955Y0030693D03*
X0258687Y0030693D03*
X0254160Y0108528D03*
X0254160Y0116795D03*
X0252978Y0143764D03*
X0239396Y0143724D03*
X0239396Y0151992D03*
X0252978Y0152031D03*
D13*
X0283805Y0102189D03*
X0285774Y0102189D03*
X0287742Y0102189D03*
X0289711Y0102189D03*
X0291679Y0102189D03*
X0293648Y0102189D03*
X0295616Y0102189D03*
X0297585Y0102189D03*
X0297585Y0083370D03*
X0295616Y0083370D03*
X0293648Y0083370D03*
X0291679Y0083370D03*
X0289711Y0083370D03*
X0287742Y0083370D03*
X0285774Y0083370D03*
X0283805Y0083370D03*
X0505892Y0077268D03*
X0507860Y0077268D03*
X0509829Y0077268D03*
X0511797Y0077268D03*
X0513766Y0077268D03*
X0515734Y0077268D03*
X0517703Y0077268D03*
X0519671Y0077268D03*
X0519671Y0096087D03*
X0517703Y0096087D03*
X0515734Y0096087D03*
X0513766Y0096087D03*
X0511797Y0096087D03*
X0509829Y0096087D03*
X0507860Y0096087D03*
X0505892Y0096087D03*
D14*
X0245813Y0072898D03*
X0253293Y0072898D03*
X0249553Y0081559D03*
X0504160Y0141598D03*
X0511640Y0141598D03*
X0507900Y0150260D03*
D15*
X0545183Y0128843D03*
X0552663Y0128843D03*
X0548923Y0120575D03*
X0254278Y0183370D03*
X0246797Y0183370D03*
X0250538Y0191638D03*
D16*
X0296640Y0174846D03*
X0314789Y0141500D03*
X0440931Y0129492D03*
X0449199Y0170634D03*
D17*
X0450478Y0162465D03*
X0447919Y0162465D03*
X0445360Y0162465D03*
X0453038Y0162465D03*
X0444770Y0137661D03*
X0442211Y0137661D03*
X0439652Y0137661D03*
X0437093Y0137661D03*
X0318628Y0149669D03*
X0316069Y0149669D03*
X0313510Y0149669D03*
X0310951Y0149669D03*
X0300478Y0166677D03*
X0297919Y0166677D03*
X0295360Y0166677D03*
X0292801Y0166677D03*
D18*
X0403923Y0169453D03*
X0406482Y0169453D03*
X0409041Y0169453D03*
X0408923Y0160594D03*
X0403923Y0160594D03*
D19*
X0389199Y0224079D03*
X0380144Y0224079D03*
X0371089Y0224079D03*
D20*
X0380144Y0201677D03*
D21*
X0404868Y0192701D03*
X0416286Y0192701D03*
X0476207Y0232150D03*
X0487624Y0232150D03*
X0321679Y0232543D03*
X0310262Y0232543D03*
X0411561Y0056677D03*
X0422978Y0056677D03*
D22*
X0308471Y0038921D03*
X0306699Y0038921D03*
X0531738Y0097780D03*
X0533510Y0097780D03*
D23*
X0532624Y0095024D03*
X0307585Y0041677D03*
D24*
X0282506Y0216992D03*
X0445695Y0218764D03*
D25*
X0454671Y0193961D03*
X0436719Y0193961D03*
X0291482Y0192189D03*
X0273530Y0192189D03*
M02*
