G75*
%MOIN*%
%OFA0B0*%
%FSLAX25Y25*%
%IPPOS*%
%LPD*%
%AMOC8*
5,1,8,0,0,1.08239X$1,22.5*
%
%ADD10C,0.00600*%
%ADD11C,0.00300*%
%ADD12C,0.00400*%
%ADD13C,0.00500*%
%ADD14C,0.01000*%
%ADD15R,0.00787X0.00787*%
%ADD16C,0.00256*%
D10*
X0259317Y0163150D02*
X0259317Y0181150D01*
X0259319Y0181210D01*
X0259324Y0181271D01*
X0259333Y0181330D01*
X0259346Y0181389D01*
X0259362Y0181448D01*
X0259382Y0181505D01*
X0259405Y0181560D01*
X0259432Y0181615D01*
X0259461Y0181667D01*
X0259494Y0181718D01*
X0259530Y0181767D01*
X0259568Y0181813D01*
X0259610Y0181857D01*
X0259654Y0181899D01*
X0259700Y0181937D01*
X0259749Y0181973D01*
X0259800Y0182006D01*
X0259852Y0182035D01*
X0259907Y0182062D01*
X0259962Y0182085D01*
X0260019Y0182105D01*
X0260078Y0182121D01*
X0260137Y0182134D01*
X0260196Y0182143D01*
X0260257Y0182148D01*
X0260317Y0182150D01*
X0268317Y0182150D01*
X0268377Y0182148D01*
X0268438Y0182143D01*
X0268497Y0182134D01*
X0268556Y0182121D01*
X0268615Y0182105D01*
X0268672Y0182085D01*
X0268727Y0182062D01*
X0268782Y0182035D01*
X0268834Y0182006D01*
X0268885Y0181973D01*
X0268934Y0181937D01*
X0268980Y0181899D01*
X0269024Y0181857D01*
X0269066Y0181813D01*
X0269104Y0181767D01*
X0269140Y0181718D01*
X0269173Y0181667D01*
X0269202Y0181615D01*
X0269229Y0181560D01*
X0269252Y0181505D01*
X0269272Y0181448D01*
X0269288Y0181389D01*
X0269301Y0181330D01*
X0269310Y0181271D01*
X0269315Y0181210D01*
X0269317Y0181150D01*
X0269317Y0163150D01*
X0269315Y0163090D01*
X0269310Y0163029D01*
X0269301Y0162970D01*
X0269288Y0162911D01*
X0269272Y0162852D01*
X0269252Y0162795D01*
X0269229Y0162740D01*
X0269202Y0162685D01*
X0269173Y0162633D01*
X0269140Y0162582D01*
X0269104Y0162533D01*
X0269066Y0162487D01*
X0269024Y0162443D01*
X0268980Y0162401D01*
X0268934Y0162363D01*
X0268885Y0162327D01*
X0268834Y0162294D01*
X0268782Y0162265D01*
X0268727Y0162238D01*
X0268672Y0162215D01*
X0268615Y0162195D01*
X0268556Y0162179D01*
X0268497Y0162166D01*
X0268438Y0162157D01*
X0268377Y0162152D01*
X0268317Y0162150D01*
X0260317Y0162150D01*
X0260257Y0162152D01*
X0260196Y0162157D01*
X0260137Y0162166D01*
X0260078Y0162179D01*
X0260019Y0162195D01*
X0259962Y0162215D01*
X0259907Y0162238D01*
X0259852Y0162265D01*
X0259800Y0162294D01*
X0259749Y0162327D01*
X0259700Y0162363D01*
X0259654Y0162401D01*
X0259610Y0162443D01*
X0259568Y0162487D01*
X0259530Y0162533D01*
X0259494Y0162582D01*
X0259461Y0162633D01*
X0259432Y0162685D01*
X0259405Y0162740D01*
X0259382Y0162795D01*
X0259362Y0162852D01*
X0259346Y0162911D01*
X0259333Y0162970D01*
X0259324Y0163029D01*
X0259319Y0163090D01*
X0259317Y0163150D01*
X0376901Y0072516D02*
X0376901Y0068246D01*
X0379036Y0066111D01*
X0381171Y0068246D01*
X0381171Y0072516D01*
X0389791Y0071449D02*
X0389791Y0067179D01*
X0390859Y0066111D01*
X0392994Y0066111D01*
X0394062Y0067179D01*
X0394062Y0071449D01*
X0392994Y0072516D01*
X0390859Y0072516D01*
X0389791Y0071449D01*
X0396237Y0072516D02*
X0396237Y0067179D01*
X0397305Y0066111D01*
X0399440Y0066111D01*
X0400507Y0067179D01*
X0400507Y0072516D01*
X0402682Y0072516D02*
X0406953Y0072516D01*
X0404818Y0072516D02*
X0404818Y0066111D01*
X0387616Y0065043D02*
X0383346Y0065043D01*
X0485011Y0044642D02*
X0485011Y0038237D01*
X0488213Y0038237D01*
X0489281Y0039305D01*
X0489281Y0043575D01*
X0488213Y0044642D01*
X0485011Y0044642D01*
X0491456Y0041440D02*
X0492524Y0042507D01*
X0494659Y0042507D01*
X0495727Y0041440D01*
X0495727Y0040372D01*
X0491456Y0040372D01*
X0491456Y0039305D02*
X0491456Y0041440D01*
X0491456Y0039305D02*
X0492524Y0038237D01*
X0494659Y0038237D01*
X0497902Y0038237D02*
X0501104Y0038237D01*
X0502172Y0039305D01*
X0501104Y0040372D01*
X0498969Y0040372D01*
X0497902Y0041440D01*
X0498969Y0042507D01*
X0502172Y0042507D01*
X0504347Y0042507D02*
X0505415Y0042507D01*
X0505415Y0038237D01*
X0506482Y0038237D02*
X0504347Y0038237D01*
X0508644Y0039305D02*
X0509712Y0038237D01*
X0512915Y0038237D01*
X0512915Y0037169D02*
X0512915Y0042507D01*
X0509712Y0042507D01*
X0508644Y0041440D01*
X0508644Y0039305D01*
X0510779Y0036102D02*
X0511847Y0036102D01*
X0512915Y0037169D01*
X0515090Y0038237D02*
X0515090Y0042507D01*
X0518292Y0042507D01*
X0519360Y0041440D01*
X0519360Y0038237D01*
X0517920Y0032280D02*
X0517920Y0025875D01*
X0513650Y0025875D02*
X0513650Y0032280D01*
X0515785Y0030145D01*
X0517920Y0032280D01*
X0511475Y0031213D02*
X0511475Y0029078D01*
X0510407Y0028010D01*
X0510407Y0030145D01*
X0508272Y0030145D01*
X0508272Y0028010D01*
X0510407Y0028010D01*
X0511475Y0026942D02*
X0510407Y0025875D01*
X0508272Y0025875D01*
X0507204Y0026942D01*
X0507204Y0031213D01*
X0508272Y0032280D01*
X0510407Y0032280D01*
X0511475Y0031213D01*
X0505029Y0031213D02*
X0503962Y0032280D01*
X0500759Y0032280D01*
X0500759Y0025875D01*
X0500759Y0028010D02*
X0503962Y0028010D01*
X0505029Y0029078D01*
X0505029Y0031213D01*
X0502894Y0028010D02*
X0505029Y0025875D01*
X0526541Y0025875D02*
X0530811Y0030145D01*
X0530811Y0031213D01*
X0529743Y0032280D01*
X0527608Y0032280D01*
X0526541Y0031213D01*
X0526541Y0025875D02*
X0530811Y0025875D01*
X0532986Y0026942D02*
X0537257Y0031213D01*
X0537257Y0026942D01*
X0536189Y0025875D01*
X0534054Y0025875D01*
X0532986Y0026942D01*
X0532986Y0031213D01*
X0534054Y0032280D01*
X0536189Y0032280D01*
X0537257Y0031213D01*
X0539432Y0030145D02*
X0541567Y0032280D01*
X0541567Y0025875D01*
X0539432Y0025875D02*
X0543702Y0025875D01*
X0545877Y0025875D02*
X0545877Y0026942D01*
X0550148Y0031213D01*
X0550148Y0032280D01*
X0545877Y0032280D01*
X0547317Y0038237D02*
X0547317Y0042507D01*
X0549452Y0044642D01*
X0551588Y0042507D01*
X0551588Y0038237D01*
X0553763Y0038237D02*
X0555898Y0038237D01*
X0554830Y0038237D02*
X0554830Y0044642D01*
X0553763Y0044642D01*
X0551588Y0041440D02*
X0547317Y0041440D01*
X0538697Y0042507D02*
X0538697Y0037169D01*
X0537629Y0036102D01*
X0536561Y0036102D01*
X0535494Y0038237D02*
X0538697Y0038237D01*
X0535494Y0038237D02*
X0534426Y0039305D01*
X0534426Y0042507D01*
X0532251Y0041440D02*
X0531183Y0042507D01*
X0527981Y0042507D01*
X0527981Y0044642D02*
X0527981Y0038237D01*
X0531183Y0038237D01*
X0532251Y0039305D01*
X0532251Y0041440D01*
X0558060Y0041440D02*
X0559127Y0042507D01*
X0561262Y0042507D01*
X0562330Y0041440D01*
X0562330Y0040372D01*
X0558060Y0040372D01*
X0558060Y0039305D02*
X0558060Y0041440D01*
X0558060Y0039305D02*
X0559127Y0038237D01*
X0561262Y0038237D01*
X0564505Y0038237D02*
X0568776Y0042507D01*
X0568776Y0038237D02*
X0564505Y0042507D01*
X0577396Y0039305D02*
X0578464Y0038237D01*
X0579531Y0038237D01*
X0580599Y0039305D01*
X0580599Y0044642D01*
X0579531Y0044642D02*
X0581667Y0044642D01*
X0583842Y0042507D02*
X0584909Y0042507D01*
X0584909Y0038237D01*
X0583842Y0038237D02*
X0585977Y0038237D01*
X0588139Y0039305D02*
X0589206Y0038237D01*
X0592409Y0038237D01*
X0592409Y0041440D01*
X0591341Y0042507D01*
X0589206Y0042507D01*
X0589206Y0040372D02*
X0592409Y0040372D01*
X0594584Y0039305D02*
X0595652Y0038237D01*
X0597787Y0038237D01*
X0598855Y0039305D01*
X0598855Y0041440D01*
X0597787Y0042507D01*
X0595652Y0042507D01*
X0594584Y0041440D01*
X0594584Y0039305D01*
X0589206Y0040372D02*
X0588139Y0039305D01*
X0584909Y0044642D02*
X0584909Y0045710D01*
X0505415Y0045710D02*
X0505415Y0044642D01*
X0536498Y0141441D02*
X0554498Y0141441D01*
X0554558Y0141443D01*
X0554619Y0141448D01*
X0554678Y0141457D01*
X0554737Y0141470D01*
X0554796Y0141486D01*
X0554853Y0141506D01*
X0554908Y0141529D01*
X0554963Y0141556D01*
X0555015Y0141585D01*
X0555066Y0141618D01*
X0555115Y0141654D01*
X0555161Y0141692D01*
X0555205Y0141734D01*
X0555247Y0141778D01*
X0555285Y0141824D01*
X0555321Y0141873D01*
X0555354Y0141924D01*
X0555383Y0141976D01*
X0555410Y0142031D01*
X0555433Y0142086D01*
X0555453Y0142143D01*
X0555469Y0142202D01*
X0555482Y0142261D01*
X0555491Y0142320D01*
X0555496Y0142381D01*
X0555498Y0142441D01*
X0555498Y0150441D01*
X0555496Y0150501D01*
X0555491Y0150562D01*
X0555482Y0150621D01*
X0555469Y0150680D01*
X0555453Y0150739D01*
X0555433Y0150796D01*
X0555410Y0150851D01*
X0555383Y0150906D01*
X0555354Y0150958D01*
X0555321Y0151009D01*
X0555285Y0151058D01*
X0555247Y0151104D01*
X0555205Y0151148D01*
X0555161Y0151190D01*
X0555115Y0151228D01*
X0555066Y0151264D01*
X0555015Y0151297D01*
X0554963Y0151326D01*
X0554908Y0151353D01*
X0554853Y0151376D01*
X0554796Y0151396D01*
X0554737Y0151412D01*
X0554678Y0151425D01*
X0554619Y0151434D01*
X0554558Y0151439D01*
X0554498Y0151441D01*
X0536498Y0151441D01*
X0536438Y0151439D01*
X0536377Y0151434D01*
X0536318Y0151425D01*
X0536259Y0151412D01*
X0536200Y0151396D01*
X0536143Y0151376D01*
X0536088Y0151353D01*
X0536033Y0151326D01*
X0535981Y0151297D01*
X0535930Y0151264D01*
X0535881Y0151228D01*
X0535835Y0151190D01*
X0535791Y0151148D01*
X0535749Y0151104D01*
X0535711Y0151058D01*
X0535675Y0151009D01*
X0535642Y0150958D01*
X0535613Y0150906D01*
X0535586Y0150851D01*
X0535563Y0150796D01*
X0535543Y0150739D01*
X0535527Y0150680D01*
X0535514Y0150621D01*
X0535505Y0150562D01*
X0535500Y0150501D01*
X0535498Y0150441D01*
X0535498Y0142441D01*
X0535500Y0142381D01*
X0535505Y0142320D01*
X0535514Y0142261D01*
X0535527Y0142202D01*
X0535543Y0142143D01*
X0535563Y0142086D01*
X0535586Y0142031D01*
X0535613Y0141976D01*
X0535642Y0141924D01*
X0535675Y0141873D01*
X0535711Y0141824D01*
X0535749Y0141778D01*
X0535791Y0141734D01*
X0535835Y0141692D01*
X0535881Y0141654D01*
X0535930Y0141618D01*
X0535981Y0141585D01*
X0536033Y0141556D01*
X0536088Y0141529D01*
X0536143Y0141506D01*
X0536200Y0141486D01*
X0536259Y0141470D01*
X0536318Y0141457D01*
X0536377Y0141448D01*
X0536438Y0141443D01*
X0536498Y0141441D01*
X0551785Y0171229D02*
X0551785Y0174432D01*
X0552852Y0175499D01*
X0553920Y0175499D01*
X0554988Y0174432D01*
X0554988Y0171229D01*
X0558190Y0171229D02*
X0558190Y0174432D01*
X0557123Y0175499D01*
X0556055Y0175499D01*
X0554988Y0174432D01*
X0554988Y0177675D02*
X0554988Y0181945D01*
X0553920Y0181945D02*
X0558190Y0181945D01*
X0553920Y0181945D02*
X0551785Y0179810D01*
X0553920Y0177675D01*
X0558190Y0177675D01*
X0558190Y0171229D02*
X0551785Y0171229D01*
X0551785Y0184120D02*
X0551785Y0188390D01*
X0551785Y0186255D02*
X0558190Y0186255D01*
X0558190Y0190566D02*
X0553920Y0194836D01*
X0552852Y0194836D01*
X0551785Y0193768D01*
X0551785Y0191633D01*
X0552852Y0190566D01*
X0558190Y0190566D02*
X0558190Y0194836D01*
D11*
X0573598Y0204716D02*
X0574215Y0204098D01*
X0576684Y0204098D01*
X0577301Y0204716D01*
X0577301Y0205950D01*
X0576684Y0206567D01*
X0574215Y0206567D01*
X0573598Y0205950D01*
X0573598Y0204716D01*
X0573598Y0207782D02*
X0573598Y0209633D01*
X0574215Y0210250D01*
X0575449Y0210250D01*
X0576067Y0209633D01*
X0576067Y0207782D01*
X0577301Y0207782D02*
X0573598Y0207782D01*
X0576067Y0209016D02*
X0577301Y0210250D01*
X0577301Y0211465D02*
X0574832Y0213933D01*
X0574215Y0213933D01*
X0573598Y0213316D01*
X0573598Y0212082D01*
X0574215Y0211465D01*
X0577301Y0211465D02*
X0577301Y0213933D01*
X0577301Y0218831D02*
X0573598Y0218831D01*
X0573598Y0221300D01*
X0573598Y0222514D02*
X0577301Y0224983D01*
X0573598Y0224983D01*
X0573598Y0222514D02*
X0577301Y0222514D01*
X0577301Y0221300D02*
X0577301Y0218831D01*
X0575449Y0218831D02*
X0575449Y0220065D01*
X0560702Y0220851D02*
X0556999Y0220851D01*
X0556999Y0223320D01*
X0556999Y0224534D02*
X0560702Y0224534D01*
X0560702Y0227003D01*
X0560702Y0229452D02*
X0556999Y0229452D01*
X0556999Y0230686D02*
X0556999Y0228217D01*
X0558851Y0222085D02*
X0558851Y0220851D01*
X0558234Y0215954D02*
X0557617Y0215954D01*
X0556999Y0215336D01*
X0556999Y0214102D01*
X0557617Y0213485D01*
X0557617Y0212270D02*
X0558851Y0212270D01*
X0559468Y0211653D01*
X0559468Y0209802D01*
X0559468Y0211036D02*
X0560702Y0212270D01*
X0560702Y0213485D02*
X0558234Y0215954D01*
X0560702Y0215954D02*
X0560702Y0213485D01*
X0557617Y0212270D02*
X0556999Y0211653D01*
X0556999Y0209802D01*
X0560702Y0209802D01*
X0560085Y0208587D02*
X0557617Y0208587D01*
X0556999Y0207970D01*
X0556999Y0206736D01*
X0557617Y0206119D01*
X0560085Y0206119D01*
X0560702Y0206736D01*
X0560702Y0207970D01*
X0560085Y0208587D01*
X0559542Y0099192D02*
X0560776Y0097957D01*
X0560776Y0095489D01*
X0560776Y0097340D02*
X0558308Y0097340D01*
X0558308Y0097957D02*
X0559542Y0099192D01*
X0558308Y0097957D02*
X0558308Y0095489D01*
X0557093Y0096106D02*
X0556476Y0095489D01*
X0554625Y0095489D01*
X0554625Y0099192D01*
X0556476Y0099192D01*
X0557093Y0098575D01*
X0557093Y0097957D01*
X0556476Y0097340D01*
X0554625Y0097340D01*
X0556476Y0097340D02*
X0557093Y0096723D01*
X0557093Y0096106D01*
X0561991Y0099192D02*
X0564460Y0099192D01*
X0563225Y0099192D02*
X0563225Y0095489D01*
X0565674Y0095489D02*
X0568143Y0097957D01*
X0568143Y0098575D01*
X0567526Y0099192D01*
X0566291Y0099192D01*
X0565674Y0098575D01*
X0565674Y0095489D02*
X0568143Y0095489D01*
X0573040Y0096106D02*
X0573657Y0095489D01*
X0574892Y0095489D01*
X0575509Y0096106D01*
X0575509Y0099192D01*
X0576723Y0099192D02*
X0576723Y0096723D01*
X0577958Y0095489D01*
X0579192Y0096723D01*
X0579192Y0099192D01*
X0573040Y0099192D02*
X0573040Y0096106D01*
X0262277Y0104767D02*
X0262277Y0106002D01*
X0261660Y0106619D01*
X0259191Y0106619D01*
X0258574Y0106002D01*
X0258574Y0104767D01*
X0259191Y0104150D01*
X0261660Y0104150D01*
X0262277Y0104767D01*
X0262277Y0107833D02*
X0258574Y0107833D01*
X0258574Y0109685D01*
X0259191Y0110302D01*
X0260426Y0110302D01*
X0261043Y0109685D01*
X0261043Y0107833D01*
X0261043Y0109068D02*
X0262277Y0110302D01*
X0262277Y0111516D02*
X0262277Y0113985D01*
X0262277Y0112751D02*
X0258574Y0112751D01*
X0259809Y0111516D01*
X0260426Y0118883D02*
X0260426Y0120117D01*
X0262277Y0118883D02*
X0262277Y0121351D01*
X0262277Y0122566D02*
X0258574Y0122566D01*
X0262277Y0125034D01*
X0258574Y0125034D01*
X0258574Y0121351D02*
X0258574Y0118883D01*
X0262277Y0118883D01*
X0246923Y0139583D02*
X0244020Y0139583D01*
X0244020Y0141034D01*
X0244504Y0141518D01*
X0244988Y0141518D01*
X0245472Y0141034D01*
X0245472Y0139583D01*
X0246923Y0139583D02*
X0246923Y0141034D01*
X0246439Y0141518D01*
X0245955Y0141518D01*
X0245472Y0141034D01*
X0245472Y0142530D02*
X0245472Y0144465D01*
X0244988Y0144465D02*
X0246923Y0144465D01*
X0244988Y0144465D02*
X0244020Y0143497D01*
X0244988Y0142530D01*
X0246923Y0142530D01*
X0246923Y0146444D02*
X0244020Y0146444D01*
X0244020Y0147411D02*
X0244020Y0145476D01*
X0244988Y0148423D02*
X0244020Y0149390D01*
X0246923Y0149390D01*
X0246923Y0148423D02*
X0246923Y0150358D01*
X0246439Y0154316D02*
X0246923Y0154799D01*
X0246923Y0155767D01*
X0246439Y0156251D01*
X0244020Y0156251D01*
X0244020Y0157262D02*
X0245955Y0157262D01*
X0246923Y0158230D01*
X0245955Y0159197D01*
X0244020Y0159197D01*
X0244020Y0154316D02*
X0246439Y0154316D01*
D12*
X0250423Y0022290D02*
X0251190Y0021523D01*
X0252725Y0021523D01*
X0253492Y0022290D01*
X0253492Y0025359D01*
X0252725Y0026127D01*
X0251190Y0026127D01*
X0250423Y0025359D01*
X0250423Y0022290D01*
X0255026Y0021523D02*
X0255026Y0026127D01*
X0257328Y0026127D01*
X0258096Y0025359D01*
X0258096Y0023825D01*
X0257328Y0023057D01*
X0255026Y0023057D01*
X0256561Y0023057D02*
X0258096Y0021523D01*
X0259630Y0021523D02*
X0262700Y0021523D01*
X0264234Y0021523D02*
X0264234Y0026127D01*
X0267304Y0026127D01*
X0268838Y0026127D02*
X0268838Y0021523D01*
X0271908Y0021523D01*
X0274977Y0021523D02*
X0274977Y0026127D01*
X0276511Y0026127D02*
X0273442Y0026127D01*
X0265769Y0023825D02*
X0264234Y0023825D01*
X0261165Y0026127D02*
X0261165Y0021523D01*
X0259630Y0024592D02*
X0261165Y0026127D01*
X0261834Y0139633D02*
X0257230Y0139633D01*
X0257230Y0141935D01*
X0257997Y0142702D01*
X0258764Y0142702D01*
X0259532Y0141935D01*
X0259532Y0139633D01*
X0261834Y0139633D02*
X0261834Y0141935D01*
X0261066Y0142702D01*
X0260299Y0142702D01*
X0259532Y0141935D01*
X0259532Y0144237D02*
X0259532Y0147306D01*
X0258764Y0147306D02*
X0261834Y0147306D01*
X0261834Y0144237D02*
X0258764Y0144237D01*
X0257230Y0145772D01*
X0258764Y0147306D01*
X0257230Y0148841D02*
X0257230Y0151910D01*
X0257230Y0150376D02*
X0261834Y0150376D01*
X0261834Y0153445D02*
X0261834Y0156514D01*
X0261834Y0154979D02*
X0257230Y0154979D01*
X0258764Y0153445D01*
D13*
X0255439Y0151835D02*
X0255439Y0143961D01*
X0250518Y0143961D01*
X0250518Y0151835D01*
X0255439Y0151835D01*
X0241856Y0151795D02*
X0241856Y0143921D01*
X0236935Y0143921D01*
X0236935Y0151795D01*
X0241856Y0151795D01*
X0240695Y0156559D02*
X0187545Y0156559D01*
X0187545Y0201441D01*
X0240695Y0201441D01*
X0240695Y0156559D01*
X0290735Y0167071D02*
X0290737Y0167127D01*
X0290743Y0167182D01*
X0290753Y0167236D01*
X0290766Y0167290D01*
X0290784Y0167343D01*
X0290805Y0167394D01*
X0290829Y0167444D01*
X0290857Y0167492D01*
X0290889Y0167538D01*
X0290923Y0167582D01*
X0290961Y0167623D01*
X0291001Y0167661D01*
X0291044Y0167696D01*
X0291089Y0167728D01*
X0291137Y0167757D01*
X0291186Y0167783D01*
X0291237Y0167805D01*
X0291289Y0167823D01*
X0291343Y0167837D01*
X0291398Y0167848D01*
X0291453Y0167855D01*
X0291508Y0167858D01*
X0291564Y0167857D01*
X0291619Y0167852D01*
X0291674Y0167843D01*
X0291728Y0167831D01*
X0291781Y0167814D01*
X0291833Y0167794D01*
X0291883Y0167770D01*
X0291931Y0167743D01*
X0291978Y0167713D01*
X0292022Y0167679D01*
X0292064Y0167642D01*
X0292102Y0167602D01*
X0292139Y0167560D01*
X0292172Y0167515D01*
X0292201Y0167469D01*
X0292228Y0167420D01*
X0292250Y0167369D01*
X0292270Y0167317D01*
X0292285Y0167263D01*
X0292297Y0167209D01*
X0292305Y0167154D01*
X0292309Y0167099D01*
X0292309Y0167043D01*
X0292305Y0166988D01*
X0292297Y0166933D01*
X0292285Y0166879D01*
X0292270Y0166825D01*
X0292250Y0166773D01*
X0292228Y0166722D01*
X0292201Y0166673D01*
X0292172Y0166627D01*
X0292139Y0166582D01*
X0292102Y0166540D01*
X0292064Y0166500D01*
X0292022Y0166463D01*
X0291978Y0166429D01*
X0291931Y0166399D01*
X0291883Y0166372D01*
X0291833Y0166348D01*
X0291781Y0166328D01*
X0291728Y0166311D01*
X0291674Y0166299D01*
X0291619Y0166290D01*
X0291564Y0166285D01*
X0291508Y0166284D01*
X0291453Y0166287D01*
X0291398Y0166294D01*
X0291343Y0166305D01*
X0291289Y0166319D01*
X0291237Y0166337D01*
X0291186Y0166359D01*
X0291137Y0166385D01*
X0291089Y0166414D01*
X0291044Y0166446D01*
X0291001Y0166481D01*
X0290961Y0166519D01*
X0290923Y0166560D01*
X0290889Y0166604D01*
X0290857Y0166650D01*
X0290829Y0166698D01*
X0290805Y0166748D01*
X0290784Y0166799D01*
X0290766Y0166852D01*
X0290753Y0166906D01*
X0290743Y0166960D01*
X0290737Y0167015D01*
X0290735Y0167071D01*
X0319121Y0149276D02*
X0319123Y0149332D01*
X0319129Y0149387D01*
X0319139Y0149441D01*
X0319152Y0149495D01*
X0319170Y0149548D01*
X0319191Y0149599D01*
X0319215Y0149649D01*
X0319243Y0149697D01*
X0319275Y0149743D01*
X0319309Y0149787D01*
X0319347Y0149828D01*
X0319387Y0149866D01*
X0319430Y0149901D01*
X0319475Y0149933D01*
X0319523Y0149962D01*
X0319572Y0149988D01*
X0319623Y0150010D01*
X0319675Y0150028D01*
X0319729Y0150042D01*
X0319784Y0150053D01*
X0319839Y0150060D01*
X0319894Y0150063D01*
X0319950Y0150062D01*
X0320005Y0150057D01*
X0320060Y0150048D01*
X0320114Y0150036D01*
X0320167Y0150019D01*
X0320219Y0149999D01*
X0320269Y0149975D01*
X0320317Y0149948D01*
X0320364Y0149918D01*
X0320408Y0149884D01*
X0320450Y0149847D01*
X0320488Y0149807D01*
X0320525Y0149765D01*
X0320558Y0149720D01*
X0320587Y0149674D01*
X0320614Y0149625D01*
X0320636Y0149574D01*
X0320656Y0149522D01*
X0320671Y0149468D01*
X0320683Y0149414D01*
X0320691Y0149359D01*
X0320695Y0149304D01*
X0320695Y0149248D01*
X0320691Y0149193D01*
X0320683Y0149138D01*
X0320671Y0149084D01*
X0320656Y0149030D01*
X0320636Y0148978D01*
X0320614Y0148927D01*
X0320587Y0148878D01*
X0320558Y0148832D01*
X0320525Y0148787D01*
X0320488Y0148745D01*
X0320450Y0148705D01*
X0320408Y0148668D01*
X0320364Y0148634D01*
X0320317Y0148604D01*
X0320269Y0148577D01*
X0320219Y0148553D01*
X0320167Y0148533D01*
X0320114Y0148516D01*
X0320060Y0148504D01*
X0320005Y0148495D01*
X0319950Y0148490D01*
X0319894Y0148489D01*
X0319839Y0148492D01*
X0319784Y0148499D01*
X0319729Y0148510D01*
X0319675Y0148524D01*
X0319623Y0148542D01*
X0319572Y0148564D01*
X0319523Y0148590D01*
X0319475Y0148619D01*
X0319430Y0148651D01*
X0319387Y0148686D01*
X0319347Y0148724D01*
X0319309Y0148765D01*
X0319275Y0148809D01*
X0319243Y0148855D01*
X0319215Y0148903D01*
X0319191Y0148953D01*
X0319170Y0149004D01*
X0319152Y0149057D01*
X0319139Y0149111D01*
X0319129Y0149165D01*
X0319123Y0149220D01*
X0319121Y0149276D01*
X0256443Y0184748D02*
X0244632Y0184748D01*
X0244632Y0190260D01*
X0256443Y0190260D01*
X0256443Y0184748D01*
X0269711Y0191008D02*
X0269711Y0230378D01*
X0295301Y0230378D01*
X0295301Y0191008D01*
X0269711Y0191008D01*
X0310262Y0228803D02*
X0310262Y0236087D01*
X0321679Y0236087D01*
X0321679Y0228803D01*
X0310262Y0228803D01*
X0363608Y0231953D02*
X0363608Y0283134D01*
X0414789Y0283134D01*
X0414789Y0231953D01*
X0363608Y0231953D01*
X0366955Y0218961D02*
X0366955Y0204394D01*
X0393333Y0204394D01*
X0393333Y0218961D01*
X0366955Y0218961D01*
X0396640Y0226126D02*
X0396640Y0206126D01*
X0426640Y0206126D01*
X0426640Y0226126D01*
X0396640Y0226126D01*
X0432900Y0232150D02*
X0432900Y0192780D01*
X0458490Y0192780D01*
X0458490Y0232150D01*
X0432900Y0232150D01*
X0476207Y0235693D02*
X0476207Y0228409D01*
X0487624Y0228409D01*
X0487624Y0235693D01*
X0476207Y0235693D01*
X0527585Y0229984D02*
X0527585Y0281165D01*
X0578766Y0281165D01*
X0578766Y0229984D01*
X0527585Y0229984D01*
X0533372Y0211047D02*
X0513372Y0211047D01*
X0513372Y0181047D01*
X0533372Y0181047D01*
X0533372Y0211047D01*
X0563687Y0202819D02*
X0616837Y0202819D01*
X0616837Y0157937D01*
X0563687Y0157937D01*
X0563687Y0202819D01*
X0557408Y0167583D02*
X0552486Y0167583D01*
X0552486Y0159709D01*
X0557408Y0159709D01*
X0557408Y0167583D01*
X0554829Y0127465D02*
X0543018Y0127465D01*
X0543018Y0121953D01*
X0554829Y0121953D01*
X0554829Y0127465D01*
X0560852Y0108429D02*
X0560852Y0103508D01*
X0568726Y0103508D01*
X0568726Y0108429D01*
X0560852Y0108429D01*
X0520656Y0092583D02*
X0520656Y0080772D01*
X0504908Y0080772D01*
X0504908Y0092583D01*
X0520656Y0092583D01*
X0506246Y0083134D02*
X0506248Y0083192D01*
X0506254Y0083251D01*
X0506264Y0083308D01*
X0506277Y0083365D01*
X0506295Y0083421D01*
X0506316Y0083476D01*
X0506341Y0083528D01*
X0506369Y0083580D01*
X0506401Y0083629D01*
X0506436Y0083676D01*
X0506474Y0083720D01*
X0506515Y0083762D01*
X0506559Y0083801D01*
X0506605Y0083836D01*
X0506654Y0083869D01*
X0506705Y0083898D01*
X0506757Y0083924D01*
X0506811Y0083946D01*
X0506867Y0083965D01*
X0506923Y0083979D01*
X0506981Y0083990D01*
X0507039Y0083997D01*
X0507097Y0084000D01*
X0507156Y0083999D01*
X0507214Y0083994D01*
X0507272Y0083985D01*
X0507329Y0083972D01*
X0507385Y0083956D01*
X0507440Y0083935D01*
X0507493Y0083911D01*
X0507545Y0083884D01*
X0507595Y0083853D01*
X0507642Y0083819D01*
X0507687Y0083781D01*
X0507730Y0083741D01*
X0507769Y0083698D01*
X0507806Y0083652D01*
X0507839Y0083604D01*
X0507869Y0083554D01*
X0507896Y0083502D01*
X0507919Y0083448D01*
X0507938Y0083393D01*
X0507954Y0083337D01*
X0507966Y0083280D01*
X0507974Y0083222D01*
X0507978Y0083163D01*
X0507978Y0083105D01*
X0507974Y0083046D01*
X0507966Y0082988D01*
X0507954Y0082931D01*
X0507938Y0082875D01*
X0507919Y0082820D01*
X0507896Y0082766D01*
X0507869Y0082714D01*
X0507839Y0082664D01*
X0507806Y0082616D01*
X0507769Y0082570D01*
X0507730Y0082527D01*
X0507687Y0082487D01*
X0507642Y0082449D01*
X0507595Y0082415D01*
X0507545Y0082384D01*
X0507493Y0082357D01*
X0507440Y0082333D01*
X0507385Y0082312D01*
X0507329Y0082296D01*
X0507272Y0082283D01*
X0507214Y0082274D01*
X0507156Y0082269D01*
X0507097Y0082268D01*
X0507039Y0082271D01*
X0506981Y0082278D01*
X0506923Y0082289D01*
X0506867Y0082303D01*
X0506811Y0082322D01*
X0506757Y0082344D01*
X0506705Y0082370D01*
X0506654Y0082399D01*
X0506605Y0082432D01*
X0506559Y0082467D01*
X0506515Y0082506D01*
X0506474Y0082548D01*
X0506436Y0082592D01*
X0506401Y0082639D01*
X0506369Y0082688D01*
X0506341Y0082740D01*
X0506316Y0082792D01*
X0506295Y0082847D01*
X0506277Y0082903D01*
X0506264Y0082960D01*
X0506254Y0083017D01*
X0506248Y0083076D01*
X0506246Y0083134D01*
X0422978Y0060220D02*
X0422978Y0052937D01*
X0411561Y0052937D01*
X0411561Y0060220D01*
X0422978Y0060220D01*
X0354986Y0056835D02*
X0334986Y0056835D01*
X0334986Y0026835D01*
X0354986Y0026835D01*
X0354986Y0056835D01*
X0298569Y0086874D02*
X0282821Y0086874D01*
X0282821Y0098685D01*
X0298569Y0098685D01*
X0298569Y0086874D01*
X0295498Y0096323D02*
X0295500Y0096381D01*
X0295506Y0096440D01*
X0295516Y0096497D01*
X0295529Y0096554D01*
X0295547Y0096610D01*
X0295568Y0096665D01*
X0295593Y0096717D01*
X0295621Y0096769D01*
X0295653Y0096818D01*
X0295688Y0096865D01*
X0295726Y0096909D01*
X0295767Y0096951D01*
X0295811Y0096990D01*
X0295857Y0097025D01*
X0295906Y0097058D01*
X0295957Y0097087D01*
X0296009Y0097113D01*
X0296063Y0097135D01*
X0296119Y0097154D01*
X0296175Y0097168D01*
X0296233Y0097179D01*
X0296291Y0097186D01*
X0296349Y0097189D01*
X0296408Y0097188D01*
X0296466Y0097183D01*
X0296524Y0097174D01*
X0296581Y0097161D01*
X0296637Y0097145D01*
X0296692Y0097124D01*
X0296745Y0097100D01*
X0296797Y0097073D01*
X0296847Y0097042D01*
X0296894Y0097008D01*
X0296939Y0096970D01*
X0296982Y0096930D01*
X0297021Y0096887D01*
X0297058Y0096841D01*
X0297091Y0096793D01*
X0297121Y0096743D01*
X0297148Y0096691D01*
X0297171Y0096637D01*
X0297190Y0096582D01*
X0297206Y0096526D01*
X0297218Y0096469D01*
X0297226Y0096411D01*
X0297230Y0096352D01*
X0297230Y0096294D01*
X0297226Y0096235D01*
X0297218Y0096177D01*
X0297206Y0096120D01*
X0297190Y0096064D01*
X0297171Y0096009D01*
X0297148Y0095955D01*
X0297121Y0095903D01*
X0297091Y0095853D01*
X0297058Y0095805D01*
X0297021Y0095759D01*
X0296982Y0095716D01*
X0296939Y0095676D01*
X0296894Y0095638D01*
X0296847Y0095604D01*
X0296797Y0095573D01*
X0296745Y0095546D01*
X0296692Y0095522D01*
X0296637Y0095501D01*
X0296581Y0095485D01*
X0296524Y0095472D01*
X0296466Y0095463D01*
X0296408Y0095458D01*
X0296349Y0095457D01*
X0296291Y0095460D01*
X0296233Y0095467D01*
X0296175Y0095478D01*
X0296119Y0095492D01*
X0296063Y0095511D01*
X0296009Y0095533D01*
X0295957Y0095559D01*
X0295906Y0095588D01*
X0295857Y0095621D01*
X0295811Y0095656D01*
X0295767Y0095695D01*
X0295726Y0095737D01*
X0295688Y0095781D01*
X0295653Y0095828D01*
X0295621Y0095877D01*
X0295593Y0095929D01*
X0295568Y0095981D01*
X0295547Y0096036D01*
X0295529Y0096092D01*
X0295516Y0096149D01*
X0295506Y0096206D01*
X0295500Y0096265D01*
X0295498Y0096323D01*
X0445262Y0137268D02*
X0445264Y0137324D01*
X0445270Y0137379D01*
X0445280Y0137433D01*
X0445293Y0137487D01*
X0445311Y0137540D01*
X0445332Y0137591D01*
X0445356Y0137641D01*
X0445384Y0137689D01*
X0445416Y0137735D01*
X0445450Y0137779D01*
X0445488Y0137820D01*
X0445528Y0137858D01*
X0445571Y0137893D01*
X0445616Y0137925D01*
X0445664Y0137954D01*
X0445713Y0137980D01*
X0445764Y0138002D01*
X0445816Y0138020D01*
X0445870Y0138034D01*
X0445925Y0138045D01*
X0445980Y0138052D01*
X0446035Y0138055D01*
X0446091Y0138054D01*
X0446146Y0138049D01*
X0446201Y0138040D01*
X0446255Y0138028D01*
X0446308Y0138011D01*
X0446360Y0137991D01*
X0446410Y0137967D01*
X0446458Y0137940D01*
X0446505Y0137910D01*
X0446549Y0137876D01*
X0446591Y0137839D01*
X0446629Y0137799D01*
X0446666Y0137757D01*
X0446699Y0137712D01*
X0446728Y0137666D01*
X0446755Y0137617D01*
X0446777Y0137566D01*
X0446797Y0137514D01*
X0446812Y0137460D01*
X0446824Y0137406D01*
X0446832Y0137351D01*
X0446836Y0137296D01*
X0446836Y0137240D01*
X0446832Y0137185D01*
X0446824Y0137130D01*
X0446812Y0137076D01*
X0446797Y0137022D01*
X0446777Y0136970D01*
X0446755Y0136919D01*
X0446728Y0136870D01*
X0446699Y0136824D01*
X0446666Y0136779D01*
X0446629Y0136737D01*
X0446591Y0136697D01*
X0446549Y0136660D01*
X0446505Y0136626D01*
X0446458Y0136596D01*
X0446410Y0136569D01*
X0446360Y0136545D01*
X0446308Y0136525D01*
X0446255Y0136508D01*
X0446201Y0136496D01*
X0446146Y0136487D01*
X0446091Y0136482D01*
X0446035Y0136481D01*
X0445980Y0136484D01*
X0445925Y0136491D01*
X0445870Y0136502D01*
X0445816Y0136516D01*
X0445764Y0136534D01*
X0445713Y0136556D01*
X0445664Y0136582D01*
X0445616Y0136611D01*
X0445571Y0136643D01*
X0445528Y0136678D01*
X0445488Y0136716D01*
X0445450Y0136757D01*
X0445416Y0136801D01*
X0445384Y0136847D01*
X0445356Y0136895D01*
X0445332Y0136945D01*
X0445311Y0136996D01*
X0445293Y0137049D01*
X0445280Y0137103D01*
X0445270Y0137157D01*
X0445264Y0137212D01*
X0445262Y0137268D01*
X0443294Y0162858D02*
X0443296Y0162914D01*
X0443302Y0162969D01*
X0443312Y0163023D01*
X0443325Y0163077D01*
X0443343Y0163130D01*
X0443364Y0163181D01*
X0443388Y0163231D01*
X0443416Y0163279D01*
X0443448Y0163325D01*
X0443482Y0163369D01*
X0443520Y0163410D01*
X0443560Y0163448D01*
X0443603Y0163483D01*
X0443648Y0163515D01*
X0443696Y0163544D01*
X0443745Y0163570D01*
X0443796Y0163592D01*
X0443848Y0163610D01*
X0443902Y0163624D01*
X0443957Y0163635D01*
X0444012Y0163642D01*
X0444067Y0163645D01*
X0444123Y0163644D01*
X0444178Y0163639D01*
X0444233Y0163630D01*
X0444287Y0163618D01*
X0444340Y0163601D01*
X0444392Y0163581D01*
X0444442Y0163557D01*
X0444490Y0163530D01*
X0444537Y0163500D01*
X0444581Y0163466D01*
X0444623Y0163429D01*
X0444661Y0163389D01*
X0444698Y0163347D01*
X0444731Y0163302D01*
X0444760Y0163256D01*
X0444787Y0163207D01*
X0444809Y0163156D01*
X0444829Y0163104D01*
X0444844Y0163050D01*
X0444856Y0162996D01*
X0444864Y0162941D01*
X0444868Y0162886D01*
X0444868Y0162830D01*
X0444864Y0162775D01*
X0444856Y0162720D01*
X0444844Y0162666D01*
X0444829Y0162612D01*
X0444809Y0162560D01*
X0444787Y0162509D01*
X0444760Y0162460D01*
X0444731Y0162414D01*
X0444698Y0162369D01*
X0444661Y0162327D01*
X0444623Y0162287D01*
X0444581Y0162250D01*
X0444537Y0162216D01*
X0444490Y0162186D01*
X0444442Y0162159D01*
X0444392Y0162135D01*
X0444340Y0162115D01*
X0444287Y0162098D01*
X0444233Y0162086D01*
X0444178Y0162077D01*
X0444123Y0162072D01*
X0444067Y0162071D01*
X0444012Y0162074D01*
X0443957Y0162081D01*
X0443902Y0162092D01*
X0443848Y0162106D01*
X0443796Y0162124D01*
X0443745Y0162146D01*
X0443696Y0162172D01*
X0443648Y0162201D01*
X0443603Y0162233D01*
X0443560Y0162268D01*
X0443520Y0162306D01*
X0443482Y0162347D01*
X0443448Y0162391D01*
X0443416Y0162437D01*
X0443388Y0162485D01*
X0443364Y0162535D01*
X0443343Y0162586D01*
X0443325Y0162639D01*
X0443312Y0162693D01*
X0443302Y0162747D01*
X0443296Y0162802D01*
X0443294Y0162858D01*
X0410912Y0162366D02*
X0410912Y0167681D01*
X0402053Y0167681D01*
X0402053Y0162366D01*
X0410912Y0162366D01*
X0416286Y0188961D02*
X0404868Y0188961D01*
X0404868Y0196244D01*
X0416286Y0196244D01*
X0416286Y0188961D01*
D14*
X0350975Y0237796D02*
X0267975Y0237796D01*
X0267975Y0283196D01*
X0350975Y0283196D01*
X0350975Y0237796D01*
X0440022Y0238977D02*
X0523022Y0238977D01*
X0523022Y0284377D01*
X0440022Y0284377D01*
X0440022Y0238977D01*
X0456998Y0062251D02*
X0373998Y0062251D01*
X0373998Y0016851D01*
X0456998Y0016851D01*
X0456998Y0062251D01*
D15*
X0262427Y0030693D03*
X0254160Y0112268D03*
X0552506Y0214433D03*
X0568451Y0214236D03*
D16*
X0533805Y0098370D02*
X0531443Y0098370D01*
X0531443Y0094433D01*
X0533805Y0094433D01*
X0533805Y0098370D01*
X0308766Y0042268D02*
X0308766Y0038331D01*
X0306404Y0038331D01*
X0306404Y0042268D01*
X0308766Y0042268D01*
M02*
