G75*
%MOIN*%
%OFA0B0*%
%FSLAX25Y25*%
%IPPOS*%
%LPD*%
%AMOC8*
5,1,8,0,0,1.08239X$1,22.5*
%
%ADD10OC8,0.07887*%
%ADD11C,0.12600*%
%ADD12R,0.25469X0.25469*%
%ADD13C,0.25469*%
%ADD14OC8,0.06737*%
%ADD15C,0.09461*%
%ADD16OC8,0.06000*%
%ADD17R,0.07887X0.07887*%
%ADD18C,0.04369*%
%ADD19C,0.04762*%
D10*
X0344986Y0036835D03*
X0344986Y0046835D03*
X0523372Y0191047D03*
X0523372Y0201047D03*
X0416640Y0216126D03*
X0406640Y0216126D03*
X0542742Y0281165D03*
X0378766Y0283134D03*
D11*
X0447922Y0254577D03*
X0515122Y0254577D03*
X0343075Y0253396D03*
X0275875Y0253396D03*
X0381898Y0032451D03*
X0449098Y0032451D03*
D12*
X0430248Y0039551D03*
X0496272Y0261677D03*
X0324225Y0260496D03*
D13*
X0294725Y0260496D03*
X0466772Y0261677D03*
X0400748Y0039551D03*
D14*
X0236758Y0169157D03*
X0236758Y0179000D03*
X0236758Y0188843D03*
X0567624Y0190220D03*
X0567624Y0180378D03*
X0567624Y0170535D03*
D15*
X0595183Y0163055D03*
X0595183Y0197701D03*
X0209199Y0196323D03*
X0209199Y0161677D03*
D16*
X0264317Y0167150D03*
X0264317Y0177150D03*
X0540498Y0146441D03*
X0550498Y0146441D03*
D17*
X0563608Y0281165D03*
X0399632Y0283134D03*
D18*
X0328963Y0232740D03*
X0342467Y0224197D03*
X0371089Y0213055D03*
X0388963Y0216756D03*
X0394711Y0178803D03*
X0413348Y0170008D03*
X0380538Y0155575D03*
X0307309Y0168173D03*
X0249435Y0157543D03*
X0233960Y0150063D03*
X0239199Y0137465D03*
X0262427Y0127228D03*
X0269120Y0096126D03*
X0271876Y0081953D03*
X0279750Y0075260D03*
X0258097Y0072898D03*
X0294317Y0064236D03*
X0339986Y0077228D03*
X0312821Y0094945D03*
X0435852Y0084512D03*
X0464002Y0092189D03*
X0487230Y0099669D03*
X0493923Y0101244D03*
X0502191Y0101638D03*
X0521482Y0103606D03*
X0524546Y0096606D03*
X0543923Y0093370D03*
X0511246Y0087465D03*
X0498254Y0088252D03*
X0491561Y0087858D03*
X0499829Y0078409D03*
X0507703Y0072898D03*
X0547467Y0112268D03*
X0568726Y0114236D03*
X0525026Y0126441D03*
X0516758Y0133921D03*
X0508490Y0123291D03*
X0476994Y0125260D03*
X0497073Y0171717D03*
X0522663Y0178016D03*
X0538412Y0178016D03*
X0517939Y0219354D03*
X0554947Y0224866D03*
X0243923Y0178803D03*
X0253372Y0037071D03*
D19*
X0244120Y0065417D03*
X0279160Y0062268D03*
X0307900Y0045929D03*
X0319514Y0038646D03*
X0281719Y0041598D03*
X0258490Y0084118D03*
X0419514Y0139433D03*
M02*
