%
M48
M72
T01C0.01575
T02C0.01969
T03C0.02362
T04C0.02559
T05C0.02953
T06C0.03200
T07C0.03937
T08C0.04724
T09C0.11800
T10C0.20669
%
T01
X163000Y185500
X163000Y195500
T02
X119000Y252000
X119000Y257000
T03
X95500Y278000
X83000Y243000
X68000Y218000
X75500Y215500
X85500Y215500
X90500Y213000
X95500Y188000
X98000Y173000
X108000Y175500
X115500Y210500
X108000Y215500
X133000Y220500
X63000Y253000
X60500Y248000
X53000Y210500
X48000Y210500
X48000Y163000
X48000Y150500
X48000Y138000
X48000Y125500
X48000Y113000
X48000Y100500
X140500Y88000
X220500Y123000
T04
X155500Y230500
X143000Y248000
X96500Y253000
X96500Y259000
X78000Y278000
T05
X129500Y279000
T06
X228000Y165000
X228000Y151000
T07
X237311Y245500
X213689Y245500
X103000Y303000
T08
X53000Y285933
X53000Y265067
X70500Y178000
X80500Y178000
X145500Y103000
X155500Y103000
X157567Y53000
X178433Y53000
T09
X59400Y70100
X126600Y70100
X75100Y321900
X75100Y389100
X215900Y389100
X215900Y321900
T10
X223000Y340750
X223000Y370250
X68000Y370250
X68000Y340750
X78250Y63000
X107750Y63000
M30
