G75*
%MOIN*%
%OFA0B0*%
%FSLAX25Y25*%
%IPPOS*%
%LPD*%
%AMOC8*
5,1,8,0,0,1.08239X$1,22.5*
%
%ADD10R,0.05512X0.05118*%
%ADD11R,0.08268X0.06299*%
%ADD12R,0.16700X0.15000*%
%ADD13R,0.06300X0.01400*%
%ADD14R,0.05906X0.05118*%
%ADD15R,0.05118X0.05906*%
%ADD16R,0.05512X0.05512*%
%ADD17R,0.04724X0.04724*%
%ADD18R,0.12598X0.07087*%
%ADD19R,0.22835X0.25197*%
%ADD20R,0.04724X0.08661*%
%ADD21R,0.01181X0.02362*%
%ADD22R,0.07874X0.05906*%
%ADD23R,0.07874X0.14961*%
%ADD24R,0.02362X0.03150*%
%ADD25R,0.26378X0.26378*%
%ADD26R,0.06299X0.11811*%
%ADD27R,0.03150X0.01969*%
D10*
X0143000Y0069791D03*
X0143000Y0081209D03*
X0193000Y0354791D03*
X0193000Y0366209D03*
X0098000Y0368709D03*
X0098000Y0357291D03*
D11*
X0120500Y0294358D03*
X0120500Y0276642D03*
D12*
X0188000Y0158050D03*
X0188000Y0132950D03*
D13*
X0133450Y0234250D03*
X0133450Y0236750D03*
X0133450Y0239250D03*
X0133450Y0241750D03*
X0133450Y0244250D03*
X0133450Y0246750D03*
X0133450Y0249250D03*
X0133450Y0251750D03*
X0133450Y0254250D03*
X0133450Y0256750D03*
X0133450Y0259250D03*
X0133450Y0261750D03*
X0133450Y0264250D03*
X0133450Y0266750D03*
X0112550Y0266750D03*
X0112550Y0264250D03*
X0112550Y0261750D03*
X0112550Y0259250D03*
X0112550Y0256750D03*
X0112550Y0254250D03*
X0112550Y0251750D03*
X0112550Y0249250D03*
X0112550Y0246750D03*
X0112550Y0244250D03*
X0112550Y0241750D03*
X0112550Y0239250D03*
X0112550Y0236750D03*
X0112550Y0234250D03*
D14*
X0108000Y0228846D03*
X0108000Y0222154D03*
X0098000Y0222154D03*
X0098000Y0228846D03*
X0088000Y0228846D03*
X0088000Y0222154D03*
X0078000Y0222154D03*
X0078000Y0228846D03*
X0070000Y0234654D03*
X0070000Y0241346D03*
X0061000Y0241346D03*
X0061000Y0234654D03*
X0050500Y0201346D03*
X0050500Y0194654D03*
X0090000Y0250654D03*
X0090000Y0257346D03*
X0085500Y0272154D03*
X0085500Y0278846D03*
X0088000Y0302154D03*
X0088000Y0308846D03*
X0075500Y0308846D03*
X0075500Y0302154D03*
X0063000Y0302154D03*
X0063000Y0308846D03*
X0103000Y0278846D03*
X0103000Y0272154D03*
X0103000Y0258846D03*
X0103000Y0252154D03*
X0100500Y0206346D03*
X0100500Y0199654D03*
X0093000Y0199654D03*
X0093000Y0206346D03*
X0113000Y0190346D03*
X0113000Y0183654D03*
X0145500Y0227154D03*
X0145500Y0233846D03*
X0150500Y0244654D03*
X0150500Y0251346D03*
X0138500Y0271154D03*
X0138500Y0277846D03*
X0158000Y0168846D03*
X0158000Y0162154D03*
X0158000Y0148846D03*
X0158000Y0142154D03*
X0158000Y0126346D03*
X0158000Y0119654D03*
X0223000Y0068846D03*
X0223000Y0062154D03*
X0228000Y0092154D03*
X0228000Y0098846D03*
X0228000Y0114654D03*
X0228000Y0121346D03*
D15*
X0136346Y0118000D03*
X0129654Y0118000D03*
X0076346Y0123000D03*
X0069654Y0123000D03*
X0069654Y0110500D03*
X0076346Y0110500D03*
X0076346Y0098000D03*
X0069654Y0098000D03*
X0069654Y0135500D03*
X0076346Y0135500D03*
X0076346Y0148000D03*
X0069654Y0148000D03*
X0069654Y0160500D03*
X0076346Y0160500D03*
X0107154Y0198000D03*
X0113846Y0198000D03*
X0081346Y0252500D03*
X0080346Y0261500D03*
X0073654Y0261500D03*
X0074654Y0252500D03*
X0068846Y0226000D03*
X0062154Y0226000D03*
X0142154Y0258000D03*
X0148846Y0258000D03*
D16*
X0158000Y0260480D03*
X0158000Y0245520D03*
D17*
X0053866Y0098000D03*
X0062134Y0098000D03*
X0062134Y0110500D03*
X0053866Y0110500D03*
X0053866Y0123000D03*
X0062134Y0123000D03*
X0062134Y0135500D03*
X0053866Y0135500D03*
X0053866Y0148000D03*
X0062134Y0148000D03*
X0062134Y0160500D03*
X0053866Y0160500D03*
D18*
X0215500Y0184476D03*
X0215500Y0206524D03*
X0238000Y0206524D03*
X0238000Y0184476D03*
D19*
X0195500Y0083000D03*
X0118000Y0338000D03*
D20*
X0109024Y0313197D03*
X0126976Y0313197D03*
X0186524Y0107803D03*
X0204476Y0107803D03*
D21*
X0118059Y0206071D03*
X0115500Y0206071D03*
X0112941Y0206071D03*
X0113059Y0214929D03*
X0118059Y0214929D03*
D22*
X0060598Y0212055D03*
X0060598Y0203000D03*
X0060598Y0193945D03*
D23*
X0083000Y0203000D03*
D24*
X0144260Y0169437D03*
X0151740Y0169437D03*
X0148000Y0161563D03*
X0144260Y0149437D03*
X0151740Y0149437D03*
X0148000Y0141563D03*
X0144260Y0126937D03*
X0151740Y0126937D03*
X0148000Y0119063D03*
D25*
X0183000Y0235500D03*
X0183000Y0290500D03*
D26*
X0173945Y0264319D03*
X0192055Y0264319D03*
X0192055Y0209319D03*
X0173945Y0209319D03*
D27*
X0102528Y0179240D03*
X0102528Y0175500D03*
X0102528Y0171760D03*
X0093472Y0171760D03*
X0093472Y0175500D03*
X0093472Y0179240D03*
M02*
