%
M48
M72
T01C0.01969
T02C0.02362
T03C0.03200
T04C0.03600
T05C0.03937
T06C0.04000
T07C0.04724
T08C0.10000
T09C0.10118
T10C0.11800
T11C0.12500
T12C0.20669
%
T01
X323682Y161174
X396282Y144874
X443682Y128674
X496182Y162874
X492532Y169044
X484280Y176509
X479682Y177274
X476382Y180574
X464973Y180068
X456312Y177312
X454024Y196678
X470485Y197784
X491745Y204477
X506705Y215894
X529934Y209595
X529934Y198572
X550482Y201574
X588882Y191674
X593982Y197674
X575982Y157474
X568682Y145674
X533682Y142674
X507582Y160174
X511823Y163532
X493319Y179674
X492282Y187174
X497682Y192874
X505182Y184174
X556182Y257674
X521382Y265774
X499782Y259174
X494682Y271474
X476682Y268774
X465282Y301174
X575682Y357674
X604808Y350547
X613682Y346674
X648132Y348124
X589182Y381274
X587682Y395674
X599682Y403674
X598682Y422674
X579682Y430674
X555670Y444680
X537536Y449801
X521682Y429674
X514182Y433174
X502482Y466474
X487782Y475733
X500682Y484174
X527682Y497674
X519682Y505174
X509682Y513174
X506682Y504174
X505682Y523674
X505182Y530674
X493182Y523674
X487682Y533174
X479682Y544243
X473182Y533674
X451682Y529174
X443682Y516674
X498282Y544174
X502911Y550403
X509682Y539674
X518432Y539924
X531282Y544774
X543282Y542974
X547182Y549674
X564682Y556174
X527382Y570574
X520182Y569674
X509082Y570274
X504282Y566974
X502375Y562351
X495288Y567469
X491682Y563674
X468682Y572674
X452758Y554751
X441682Y553674
X523482Y525874
X546182Y528174
X575603Y514320
X656982Y447874
X704082Y454174
X769782Y472174
X778182Y464074
X776682Y481774
X790182Y491674
X827982Y495574
X795582Y469474
X877182Y439674
X878182Y389674
X877182Y382674
X963582Y396274
X974682Y382774
X978182Y374174
X960682Y350174
X984897Y396874
X875182Y328174
X865182Y323374
X876182Y279674
X874416Y274674
X875182Y269174
X874682Y212674
X862782Y207574
X849882Y169774
X844782Y161374
X873182Y139674
X772782Y151174
X565482Y89674
X267282Y231874
X245982Y232174
X234582Y238474
X223482Y242674
X223782Y252274
X264282Y260074
X236382Y280474
X227682Y292474
X214482Y293074
X208482Y302074
X203682Y312274
X195582Y301174
X226122Y332074
X240582Y326374
X255882Y321274
X263082Y351574
X234582Y354574
X222582Y358174
X223482Y365974
X211482Y355174
X204282Y383374
X204282Y394774
X244482Y414274
X228882Y419374
X259182Y438274
X251982Y453874
X237282Y455674
X216582Y456574
X243882Y491374
X353182Y498174
X422847Y393060
X500682Y383674
X549882Y389883
X706482Y400174
X707082Y407074
X878682Y496174
X866982Y550474
X878682Y553674
X906282Y568774
X834882Y553474
X227382Y229474
X246282Y206974
X204282Y185674
T02
X491082Y302074
X496782Y302374
X518982Y277174
X560982Y301774
X647232Y340924
X584082Y368374
X537882Y465574
X527382Y464974
X544182Y558574
X544182Y569074
X864182Y489174
X879182Y501674
X879182Y506674
X886682Y481674
X878182Y445674
X863182Y433174
X885682Y425674
X878182Y394674
X863182Y377174
X885682Y369674
X876182Y338674
X876182Y333674
X883682Y313674
X861182Y259674
X883682Y254674
X875182Y223174
X873416Y218174
X882682Y198174
X874182Y150674
X872416Y145674
X859182Y130674
X881682Y125674
X886682Y540174
X879182Y560174
X879182Y565174
T03
X407461Y252965
X407461Y238965
T04
X209382Y258374
X199382Y258374
X199082Y221074
X209082Y221074
X238582Y363574
X248582Y363574
X248382Y378174
X238382Y378174
T05
X225977Y140032
X246386Y139032
X271977Y139032
X271977Y121316
X246386Y121316
X225977Y122316
X200386Y122316
X200386Y140032
T06
X206682Y106174
X216682Y106174
X252682Y106174
X262682Y106174
X209182Y200674
X199182Y200674
X199682Y242074
X209682Y242074
X238682Y393274
X248682Y393274
X198682Y404674
X198682Y414674
X483682Y414674
X493682Y414674
X503682Y414674
X513682Y414674
X523682Y414674
X533682Y414674
X543682Y414674
X553682Y414674
X563682Y414674
X573682Y414674
X573682Y404674
X563682Y404674
X553682Y404674
X543682Y404674
X533682Y404674
X523682Y404674
X513682Y404674
X503682Y404674
X493682Y404674
X483682Y404674
X483682Y244674
X493682Y244674
X503682Y244674
X513682Y244674
X523682Y244674
X533682Y244674
X543682Y244674
X553682Y244674
X563682Y244674
X573682Y244674
X573682Y234674
X563682Y234674
X553682Y234674
X543682Y234674
X533682Y234674
X523682Y234674
X513682Y234674
X503682Y234674
X493682Y234674
X483682Y234674
T07
X319615Y135174
X298749Y135174
X672182Y134174
X682182Y134174
X721682Y129174
X731682Y129174
X741682Y129174
X751682Y129174
X756682Y174674
X746682Y174674
X719682Y174674
X709682Y174674
X682682Y175174
X672682Y175174
X929182Y143174
X929182Y133174
X929182Y123174
X929182Y113174
X930182Y185674
X930182Y195674
X930182Y205674
X930182Y215674
X931182Y242174
X931182Y252174
X931182Y262174
X931182Y272174
X931182Y298674
X931182Y308674
X931182Y318674
X931182Y328674
X933182Y354674
X933182Y364674
X933182Y374674
X933182Y384674
X933182Y410674
X933182Y420674
X933182Y430674
X933182Y440674
X934182Y466674
X934182Y476674
X934182Y486674
X934182Y496674
X934182Y525174
X934182Y535174
X934182Y545174
X934182Y555174
X815682Y537674
X805682Y537674
X780682Y537674
X770682Y537674
X745682Y537674
X735682Y537674
X665586Y491565
X655586Y491565
X645586Y491565
X635586Y491565
X644182Y538674
X654182Y538674
X450182Y484174
X450182Y474174
X380115Y522174
X359249Y522174
T08
X724682Y431024
X724682Y401024
X724682Y326324
X724682Y296324
T09
X390882Y290383
X370882Y290383
X347182Y290383
X327182Y290383
X303481Y290383
X283481Y290383
X283481Y314674
X303481Y314674
X327182Y314674
X347182Y314674
X370882Y314674
X390882Y314674
X390882Y338690
X370882Y338690
X303481Y338690
X283481Y338690
X283481Y378375
X303481Y378375
X370882Y378375
X390882Y378375
T10
X324782Y558774
X257582Y558774
X350082Y102574
X417282Y102574
T11
X233282Y99674
X965682Y99674
X965682Y559674
X233282Y559674
T12
X276432Y551674
X305932Y551674
X368932Y109674
X398432Y109674
M30
