G75*
%MOIN*%
%OFA0B0*%
%FSLAX25Y25*%
%IPPOS*%
%LPD*%
%AMOC8*
5,1,8,0,0,1.08239X$1,22.5*
%
%ADD10C,0.01600*%
%ADD11C,0.00000*%
D10*
X0001800Y0001800D02*
X0001800Y0273454D01*
X0312824Y0273454D01*
X0312824Y0001800D01*
X0001800Y0001800D01*
D11*
X0046918Y0239167D02*
X0046920Y0239264D01*
X0046926Y0239361D01*
X0046936Y0239457D01*
X0046950Y0239553D01*
X0046968Y0239649D01*
X0046989Y0239743D01*
X0047015Y0239837D01*
X0047044Y0239929D01*
X0047078Y0240020D01*
X0047114Y0240110D01*
X0047155Y0240198D01*
X0047199Y0240284D01*
X0047247Y0240369D01*
X0047298Y0240451D01*
X0047352Y0240532D01*
X0047410Y0240610D01*
X0047471Y0240685D01*
X0047534Y0240758D01*
X0047601Y0240829D01*
X0047671Y0240896D01*
X0047743Y0240961D01*
X0047818Y0241022D01*
X0047896Y0241081D01*
X0047975Y0241136D01*
X0048057Y0241188D01*
X0048141Y0241236D01*
X0048227Y0241281D01*
X0048315Y0241323D01*
X0048404Y0241361D01*
X0048495Y0241395D01*
X0048587Y0241425D01*
X0048680Y0241452D01*
X0048775Y0241474D01*
X0048870Y0241493D01*
X0048966Y0241508D01*
X0049062Y0241519D01*
X0049159Y0241526D01*
X0049256Y0241529D01*
X0049353Y0241528D01*
X0049450Y0241523D01*
X0049546Y0241514D01*
X0049642Y0241501D01*
X0049738Y0241484D01*
X0049833Y0241463D01*
X0049926Y0241439D01*
X0050019Y0241410D01*
X0050111Y0241378D01*
X0050201Y0241342D01*
X0050289Y0241303D01*
X0050376Y0241259D01*
X0050461Y0241213D01*
X0050544Y0241162D01*
X0050625Y0241109D01*
X0050703Y0241052D01*
X0050780Y0240992D01*
X0050853Y0240929D01*
X0050924Y0240863D01*
X0050992Y0240794D01*
X0051058Y0240722D01*
X0051120Y0240648D01*
X0051179Y0240571D01*
X0051235Y0240492D01*
X0051288Y0240410D01*
X0051338Y0240327D01*
X0051383Y0240241D01*
X0051426Y0240154D01*
X0051465Y0240065D01*
X0051500Y0239975D01*
X0051531Y0239883D01*
X0051558Y0239790D01*
X0051582Y0239696D01*
X0051602Y0239601D01*
X0051618Y0239505D01*
X0051630Y0239409D01*
X0051638Y0239312D01*
X0051642Y0239215D01*
X0051642Y0239119D01*
X0051638Y0239022D01*
X0051630Y0238925D01*
X0051618Y0238829D01*
X0051602Y0238733D01*
X0051582Y0238638D01*
X0051558Y0238544D01*
X0051531Y0238451D01*
X0051500Y0238359D01*
X0051465Y0238269D01*
X0051426Y0238180D01*
X0051383Y0238093D01*
X0051338Y0238007D01*
X0051288Y0237924D01*
X0051235Y0237842D01*
X0051179Y0237763D01*
X0051120Y0237686D01*
X0051058Y0237612D01*
X0050992Y0237540D01*
X0050924Y0237471D01*
X0050853Y0237405D01*
X0050780Y0237342D01*
X0050703Y0237282D01*
X0050625Y0237225D01*
X0050544Y0237172D01*
X0050461Y0237121D01*
X0050376Y0237075D01*
X0050289Y0237031D01*
X0050201Y0236992D01*
X0050111Y0236956D01*
X0050019Y0236924D01*
X0049926Y0236895D01*
X0049833Y0236871D01*
X0049738Y0236850D01*
X0049642Y0236833D01*
X0049546Y0236820D01*
X0049450Y0236811D01*
X0049353Y0236806D01*
X0049256Y0236805D01*
X0049159Y0236808D01*
X0049062Y0236815D01*
X0048966Y0236826D01*
X0048870Y0236841D01*
X0048775Y0236860D01*
X0048680Y0236882D01*
X0048587Y0236909D01*
X0048495Y0236939D01*
X0048404Y0236973D01*
X0048315Y0237011D01*
X0048227Y0237053D01*
X0048141Y0237098D01*
X0048057Y0237146D01*
X0047975Y0237198D01*
X0047896Y0237253D01*
X0047818Y0237312D01*
X0047743Y0237373D01*
X0047671Y0237438D01*
X0047601Y0237505D01*
X0047534Y0237576D01*
X0047471Y0237649D01*
X0047410Y0237724D01*
X0047352Y0237802D01*
X0047298Y0237883D01*
X0047247Y0237965D01*
X0047199Y0238050D01*
X0047155Y0238136D01*
X0047114Y0238224D01*
X0047078Y0238314D01*
X0047044Y0238405D01*
X0047015Y0238497D01*
X0046989Y0238591D01*
X0046968Y0238685D01*
X0046950Y0238781D01*
X0046936Y0238877D01*
X0046926Y0238973D01*
X0046920Y0239070D01*
X0046918Y0239167D01*
X0260658Y0239167D02*
X0260660Y0239264D01*
X0260666Y0239361D01*
X0260676Y0239457D01*
X0260690Y0239553D01*
X0260708Y0239649D01*
X0260729Y0239743D01*
X0260755Y0239837D01*
X0260784Y0239929D01*
X0260818Y0240020D01*
X0260854Y0240110D01*
X0260895Y0240198D01*
X0260939Y0240284D01*
X0260987Y0240369D01*
X0261038Y0240451D01*
X0261092Y0240532D01*
X0261150Y0240610D01*
X0261211Y0240685D01*
X0261274Y0240758D01*
X0261341Y0240829D01*
X0261411Y0240896D01*
X0261483Y0240961D01*
X0261558Y0241022D01*
X0261636Y0241081D01*
X0261715Y0241136D01*
X0261797Y0241188D01*
X0261881Y0241236D01*
X0261967Y0241281D01*
X0262055Y0241323D01*
X0262144Y0241361D01*
X0262235Y0241395D01*
X0262327Y0241425D01*
X0262420Y0241452D01*
X0262515Y0241474D01*
X0262610Y0241493D01*
X0262706Y0241508D01*
X0262802Y0241519D01*
X0262899Y0241526D01*
X0262996Y0241529D01*
X0263093Y0241528D01*
X0263190Y0241523D01*
X0263286Y0241514D01*
X0263382Y0241501D01*
X0263478Y0241484D01*
X0263573Y0241463D01*
X0263666Y0241439D01*
X0263759Y0241410D01*
X0263851Y0241378D01*
X0263941Y0241342D01*
X0264029Y0241303D01*
X0264116Y0241259D01*
X0264201Y0241213D01*
X0264284Y0241162D01*
X0264365Y0241109D01*
X0264443Y0241052D01*
X0264520Y0240992D01*
X0264593Y0240929D01*
X0264664Y0240863D01*
X0264732Y0240794D01*
X0264798Y0240722D01*
X0264860Y0240648D01*
X0264919Y0240571D01*
X0264975Y0240492D01*
X0265028Y0240410D01*
X0265078Y0240327D01*
X0265123Y0240241D01*
X0265166Y0240154D01*
X0265205Y0240065D01*
X0265240Y0239975D01*
X0265271Y0239883D01*
X0265298Y0239790D01*
X0265322Y0239696D01*
X0265342Y0239601D01*
X0265358Y0239505D01*
X0265370Y0239409D01*
X0265378Y0239312D01*
X0265382Y0239215D01*
X0265382Y0239119D01*
X0265378Y0239022D01*
X0265370Y0238925D01*
X0265358Y0238829D01*
X0265342Y0238733D01*
X0265322Y0238638D01*
X0265298Y0238544D01*
X0265271Y0238451D01*
X0265240Y0238359D01*
X0265205Y0238269D01*
X0265166Y0238180D01*
X0265123Y0238093D01*
X0265078Y0238007D01*
X0265028Y0237924D01*
X0264975Y0237842D01*
X0264919Y0237763D01*
X0264860Y0237686D01*
X0264798Y0237612D01*
X0264732Y0237540D01*
X0264664Y0237471D01*
X0264593Y0237405D01*
X0264520Y0237342D01*
X0264443Y0237282D01*
X0264365Y0237225D01*
X0264284Y0237172D01*
X0264201Y0237121D01*
X0264116Y0237075D01*
X0264029Y0237031D01*
X0263941Y0236992D01*
X0263851Y0236956D01*
X0263759Y0236924D01*
X0263666Y0236895D01*
X0263573Y0236871D01*
X0263478Y0236850D01*
X0263382Y0236833D01*
X0263286Y0236820D01*
X0263190Y0236811D01*
X0263093Y0236806D01*
X0262996Y0236805D01*
X0262899Y0236808D01*
X0262802Y0236815D01*
X0262706Y0236826D01*
X0262610Y0236841D01*
X0262515Y0236860D01*
X0262420Y0236882D01*
X0262327Y0236909D01*
X0262235Y0236939D01*
X0262144Y0236973D01*
X0262055Y0237011D01*
X0261967Y0237053D01*
X0261881Y0237098D01*
X0261797Y0237146D01*
X0261715Y0237198D01*
X0261636Y0237253D01*
X0261558Y0237312D01*
X0261483Y0237373D01*
X0261411Y0237438D01*
X0261341Y0237505D01*
X0261274Y0237576D01*
X0261211Y0237649D01*
X0261150Y0237724D01*
X0261092Y0237802D01*
X0261038Y0237883D01*
X0260987Y0237965D01*
X0260939Y0238050D01*
X0260895Y0238136D01*
X0260854Y0238224D01*
X0260818Y0238314D01*
X0260784Y0238405D01*
X0260755Y0238497D01*
X0260729Y0238591D01*
X0260708Y0238685D01*
X0260690Y0238781D01*
X0260676Y0238877D01*
X0260666Y0238973D01*
X0260660Y0239070D01*
X0260658Y0239167D01*
X0294500Y0230941D02*
X0294502Y0231075D01*
X0294508Y0231209D01*
X0294518Y0231343D01*
X0294532Y0231477D01*
X0294550Y0231610D01*
X0294571Y0231742D01*
X0294597Y0231874D01*
X0294627Y0232005D01*
X0294660Y0232135D01*
X0294697Y0232263D01*
X0294739Y0232391D01*
X0294783Y0232518D01*
X0294832Y0232643D01*
X0294884Y0232766D01*
X0294940Y0232888D01*
X0295000Y0233009D01*
X0295063Y0233127D01*
X0295129Y0233244D01*
X0295199Y0233358D01*
X0295272Y0233471D01*
X0295349Y0233581D01*
X0295429Y0233689D01*
X0295512Y0233794D01*
X0295598Y0233897D01*
X0295687Y0233997D01*
X0295779Y0234095D01*
X0295874Y0234190D01*
X0295972Y0234282D01*
X0296072Y0234371D01*
X0296175Y0234457D01*
X0296280Y0234540D01*
X0296388Y0234620D01*
X0296498Y0234697D01*
X0296611Y0234770D01*
X0296725Y0234840D01*
X0296842Y0234906D01*
X0296960Y0234969D01*
X0297081Y0235029D01*
X0297203Y0235085D01*
X0297326Y0235137D01*
X0297451Y0235186D01*
X0297578Y0235230D01*
X0297706Y0235272D01*
X0297834Y0235309D01*
X0297964Y0235342D01*
X0298095Y0235372D01*
X0298227Y0235398D01*
X0298359Y0235419D01*
X0298492Y0235437D01*
X0298626Y0235451D01*
X0298760Y0235461D01*
X0298894Y0235467D01*
X0299028Y0235469D01*
X0299162Y0235467D01*
X0299296Y0235461D01*
X0299430Y0235451D01*
X0299564Y0235437D01*
X0299697Y0235419D01*
X0299829Y0235398D01*
X0299961Y0235372D01*
X0300092Y0235342D01*
X0300222Y0235309D01*
X0300350Y0235272D01*
X0300478Y0235230D01*
X0300605Y0235186D01*
X0300730Y0235137D01*
X0300853Y0235085D01*
X0300975Y0235029D01*
X0301096Y0234969D01*
X0301214Y0234906D01*
X0301331Y0234840D01*
X0301445Y0234770D01*
X0301558Y0234697D01*
X0301668Y0234620D01*
X0301776Y0234540D01*
X0301881Y0234457D01*
X0301984Y0234371D01*
X0302084Y0234282D01*
X0302182Y0234190D01*
X0302277Y0234095D01*
X0302369Y0233997D01*
X0302458Y0233897D01*
X0302544Y0233794D01*
X0302627Y0233689D01*
X0302707Y0233581D01*
X0302784Y0233471D01*
X0302857Y0233358D01*
X0302927Y0233244D01*
X0302993Y0233127D01*
X0303056Y0233009D01*
X0303116Y0232888D01*
X0303172Y0232766D01*
X0303224Y0232643D01*
X0303273Y0232518D01*
X0303317Y0232391D01*
X0303359Y0232263D01*
X0303396Y0232135D01*
X0303429Y0232005D01*
X0303459Y0231874D01*
X0303485Y0231742D01*
X0303506Y0231610D01*
X0303524Y0231477D01*
X0303538Y0231343D01*
X0303548Y0231209D01*
X0303554Y0231075D01*
X0303556Y0230941D01*
X0303554Y0230807D01*
X0303548Y0230673D01*
X0303538Y0230539D01*
X0303524Y0230405D01*
X0303506Y0230272D01*
X0303485Y0230140D01*
X0303459Y0230008D01*
X0303429Y0229877D01*
X0303396Y0229747D01*
X0303359Y0229619D01*
X0303317Y0229491D01*
X0303273Y0229364D01*
X0303224Y0229239D01*
X0303172Y0229116D01*
X0303116Y0228994D01*
X0303056Y0228873D01*
X0302993Y0228755D01*
X0302927Y0228638D01*
X0302857Y0228524D01*
X0302784Y0228411D01*
X0302707Y0228301D01*
X0302627Y0228193D01*
X0302544Y0228088D01*
X0302458Y0227985D01*
X0302369Y0227885D01*
X0302277Y0227787D01*
X0302182Y0227692D01*
X0302084Y0227600D01*
X0301984Y0227511D01*
X0301881Y0227425D01*
X0301776Y0227342D01*
X0301668Y0227262D01*
X0301558Y0227185D01*
X0301445Y0227112D01*
X0301331Y0227042D01*
X0301214Y0226976D01*
X0301096Y0226913D01*
X0300975Y0226853D01*
X0300853Y0226797D01*
X0300730Y0226745D01*
X0300605Y0226696D01*
X0300478Y0226652D01*
X0300350Y0226610D01*
X0300222Y0226573D01*
X0300092Y0226540D01*
X0299961Y0226510D01*
X0299829Y0226484D01*
X0299697Y0226463D01*
X0299564Y0226445D01*
X0299430Y0226431D01*
X0299296Y0226421D01*
X0299162Y0226415D01*
X0299028Y0226413D01*
X0298894Y0226415D01*
X0298760Y0226421D01*
X0298626Y0226431D01*
X0298492Y0226445D01*
X0298359Y0226463D01*
X0298227Y0226484D01*
X0298095Y0226510D01*
X0297964Y0226540D01*
X0297834Y0226573D01*
X0297706Y0226610D01*
X0297578Y0226652D01*
X0297451Y0226696D01*
X0297326Y0226745D01*
X0297203Y0226797D01*
X0297081Y0226853D01*
X0296960Y0226913D01*
X0296842Y0226976D01*
X0296725Y0227042D01*
X0296611Y0227112D01*
X0296498Y0227185D01*
X0296388Y0227262D01*
X0296280Y0227342D01*
X0296175Y0227425D01*
X0296072Y0227511D01*
X0295972Y0227600D01*
X0295874Y0227692D01*
X0295779Y0227787D01*
X0295687Y0227885D01*
X0295598Y0227985D01*
X0295512Y0228088D01*
X0295429Y0228193D01*
X0295349Y0228301D01*
X0295272Y0228411D01*
X0295199Y0228524D01*
X0295129Y0228638D01*
X0295063Y0228755D01*
X0295000Y0228873D01*
X0294940Y0228994D01*
X0294884Y0229116D01*
X0294832Y0229239D01*
X0294783Y0229364D01*
X0294739Y0229491D01*
X0294697Y0229619D01*
X0294660Y0229747D01*
X0294627Y0229877D01*
X0294597Y0230008D01*
X0294571Y0230140D01*
X0294550Y0230272D01*
X0294532Y0230405D01*
X0294518Y0230539D01*
X0294508Y0230673D01*
X0294502Y0230807D01*
X0294500Y0230941D01*
X0294500Y0179209D02*
X0294502Y0179343D01*
X0294508Y0179477D01*
X0294518Y0179611D01*
X0294532Y0179745D01*
X0294550Y0179878D01*
X0294571Y0180010D01*
X0294597Y0180142D01*
X0294627Y0180273D01*
X0294660Y0180403D01*
X0294697Y0180531D01*
X0294739Y0180659D01*
X0294783Y0180786D01*
X0294832Y0180911D01*
X0294884Y0181034D01*
X0294940Y0181156D01*
X0295000Y0181277D01*
X0295063Y0181395D01*
X0295129Y0181512D01*
X0295199Y0181626D01*
X0295272Y0181739D01*
X0295349Y0181849D01*
X0295429Y0181957D01*
X0295512Y0182062D01*
X0295598Y0182165D01*
X0295687Y0182265D01*
X0295779Y0182363D01*
X0295874Y0182458D01*
X0295972Y0182550D01*
X0296072Y0182639D01*
X0296175Y0182725D01*
X0296280Y0182808D01*
X0296388Y0182888D01*
X0296498Y0182965D01*
X0296611Y0183038D01*
X0296725Y0183108D01*
X0296842Y0183174D01*
X0296960Y0183237D01*
X0297081Y0183297D01*
X0297203Y0183353D01*
X0297326Y0183405D01*
X0297451Y0183454D01*
X0297578Y0183498D01*
X0297706Y0183540D01*
X0297834Y0183577D01*
X0297964Y0183610D01*
X0298095Y0183640D01*
X0298227Y0183666D01*
X0298359Y0183687D01*
X0298492Y0183705D01*
X0298626Y0183719D01*
X0298760Y0183729D01*
X0298894Y0183735D01*
X0299028Y0183737D01*
X0299162Y0183735D01*
X0299296Y0183729D01*
X0299430Y0183719D01*
X0299564Y0183705D01*
X0299697Y0183687D01*
X0299829Y0183666D01*
X0299961Y0183640D01*
X0300092Y0183610D01*
X0300222Y0183577D01*
X0300350Y0183540D01*
X0300478Y0183498D01*
X0300605Y0183454D01*
X0300730Y0183405D01*
X0300853Y0183353D01*
X0300975Y0183297D01*
X0301096Y0183237D01*
X0301214Y0183174D01*
X0301331Y0183108D01*
X0301445Y0183038D01*
X0301558Y0182965D01*
X0301668Y0182888D01*
X0301776Y0182808D01*
X0301881Y0182725D01*
X0301984Y0182639D01*
X0302084Y0182550D01*
X0302182Y0182458D01*
X0302277Y0182363D01*
X0302369Y0182265D01*
X0302458Y0182165D01*
X0302544Y0182062D01*
X0302627Y0181957D01*
X0302707Y0181849D01*
X0302784Y0181739D01*
X0302857Y0181626D01*
X0302927Y0181512D01*
X0302993Y0181395D01*
X0303056Y0181277D01*
X0303116Y0181156D01*
X0303172Y0181034D01*
X0303224Y0180911D01*
X0303273Y0180786D01*
X0303317Y0180659D01*
X0303359Y0180531D01*
X0303396Y0180403D01*
X0303429Y0180273D01*
X0303459Y0180142D01*
X0303485Y0180010D01*
X0303506Y0179878D01*
X0303524Y0179745D01*
X0303538Y0179611D01*
X0303548Y0179477D01*
X0303554Y0179343D01*
X0303556Y0179209D01*
X0303554Y0179075D01*
X0303548Y0178941D01*
X0303538Y0178807D01*
X0303524Y0178673D01*
X0303506Y0178540D01*
X0303485Y0178408D01*
X0303459Y0178276D01*
X0303429Y0178145D01*
X0303396Y0178015D01*
X0303359Y0177887D01*
X0303317Y0177759D01*
X0303273Y0177632D01*
X0303224Y0177507D01*
X0303172Y0177384D01*
X0303116Y0177262D01*
X0303056Y0177141D01*
X0302993Y0177023D01*
X0302927Y0176906D01*
X0302857Y0176792D01*
X0302784Y0176679D01*
X0302707Y0176569D01*
X0302627Y0176461D01*
X0302544Y0176356D01*
X0302458Y0176253D01*
X0302369Y0176153D01*
X0302277Y0176055D01*
X0302182Y0175960D01*
X0302084Y0175868D01*
X0301984Y0175779D01*
X0301881Y0175693D01*
X0301776Y0175610D01*
X0301668Y0175530D01*
X0301558Y0175453D01*
X0301445Y0175380D01*
X0301331Y0175310D01*
X0301214Y0175244D01*
X0301096Y0175181D01*
X0300975Y0175121D01*
X0300853Y0175065D01*
X0300730Y0175013D01*
X0300605Y0174964D01*
X0300478Y0174920D01*
X0300350Y0174878D01*
X0300222Y0174841D01*
X0300092Y0174808D01*
X0299961Y0174778D01*
X0299829Y0174752D01*
X0299697Y0174731D01*
X0299564Y0174713D01*
X0299430Y0174699D01*
X0299296Y0174689D01*
X0299162Y0174683D01*
X0299028Y0174681D01*
X0298894Y0174683D01*
X0298760Y0174689D01*
X0298626Y0174699D01*
X0298492Y0174713D01*
X0298359Y0174731D01*
X0298227Y0174752D01*
X0298095Y0174778D01*
X0297964Y0174808D01*
X0297834Y0174841D01*
X0297706Y0174878D01*
X0297578Y0174920D01*
X0297451Y0174964D01*
X0297326Y0175013D01*
X0297203Y0175065D01*
X0297081Y0175121D01*
X0296960Y0175181D01*
X0296842Y0175244D01*
X0296725Y0175310D01*
X0296611Y0175380D01*
X0296498Y0175453D01*
X0296388Y0175530D01*
X0296280Y0175610D01*
X0296175Y0175693D01*
X0296072Y0175779D01*
X0295972Y0175868D01*
X0295874Y0175960D01*
X0295779Y0176055D01*
X0295687Y0176153D01*
X0295598Y0176253D01*
X0295512Y0176356D01*
X0295429Y0176461D01*
X0295349Y0176569D01*
X0295272Y0176679D01*
X0295199Y0176792D01*
X0295129Y0176906D01*
X0295063Y0177023D01*
X0295000Y0177141D01*
X0294940Y0177262D01*
X0294884Y0177384D01*
X0294832Y0177507D01*
X0294783Y0177632D01*
X0294739Y0177759D01*
X0294697Y0177887D01*
X0294660Y0178015D01*
X0294627Y0178145D01*
X0294597Y0178276D01*
X0294571Y0178408D01*
X0294550Y0178540D01*
X0294532Y0178673D01*
X0294518Y0178807D01*
X0294508Y0178941D01*
X0294502Y0179075D01*
X0294500Y0179209D01*
M02*
