G75*
%MOIN*%
%OFA0B0*%
%FSLAX25Y25*%
%IPPOS*%
%LPD*%
%AMOC8*
5,1,8,0,0,1.08239X$1,22.5*
%
%ADD10R,0.07500X0.02400*%
%ADD11R,0.05906X0.05118*%
%ADD12R,0.05118X0.05906*%
%ADD13R,0.02362X0.08661*%
%ADD14R,0.08661X0.02362*%
%ADD15R,0.01969X0.01378*%
D10*
X0236075Y0169800D03*
X0236075Y0174800D03*
X0236075Y0179800D03*
X0236075Y0184800D03*
X0256675Y0184800D03*
X0256675Y0179800D03*
X0256675Y0174800D03*
X0256675Y0169800D03*
D11*
X0106375Y0074135D03*
X0106375Y0081615D03*
X0114725Y0112585D03*
X0114725Y0120065D03*
X0157700Y0136835D03*
X0157700Y0144315D03*
X0168500Y0146365D03*
X0168500Y0138885D03*
X0178700Y0108965D03*
X0178700Y0101485D03*
X0180425Y0063665D03*
X0180425Y0056185D03*
X0144875Y0044740D03*
X0144875Y0037260D03*
X0209050Y0146460D03*
X0209050Y0153940D03*
X0260575Y0195885D03*
X0260575Y0203365D03*
X0236275Y0205890D03*
X0236275Y0198410D03*
X0299050Y0126665D03*
X0299050Y0119185D03*
X0120550Y0176685D03*
X0120550Y0184165D03*
X0105100Y0170265D03*
X0105100Y0162785D03*
X0091850Y0182335D03*
X0091850Y0189815D03*
D12*
X0138660Y0205625D03*
X0146140Y0205625D03*
X0160785Y0205600D03*
X0168265Y0205600D03*
X0210310Y0189000D03*
X0217790Y0189000D03*
X0123840Y0091750D03*
X0116360Y0091750D03*
D13*
X0140725Y0085611D03*
X0145725Y0085611D03*
X0150725Y0085611D03*
X0155725Y0085611D03*
X0155725Y0065139D03*
X0150725Y0065139D03*
X0145725Y0065139D03*
X0140725Y0065139D03*
X0135875Y0140514D03*
X0130875Y0140514D03*
X0125875Y0140514D03*
X0120875Y0140514D03*
X0120875Y0160986D03*
X0125875Y0160986D03*
X0130875Y0160986D03*
X0135875Y0160986D03*
X0148500Y0169764D03*
X0153500Y0169764D03*
X0158500Y0169764D03*
X0163500Y0169764D03*
X0163500Y0190236D03*
X0158500Y0190236D03*
X0153500Y0190236D03*
X0148500Y0190236D03*
D14*
X0201239Y0110750D03*
X0201239Y0105750D03*
X0201239Y0100750D03*
X0201239Y0095750D03*
X0221711Y0095750D03*
X0221711Y0100750D03*
X0221711Y0105750D03*
X0221711Y0110750D03*
D15*
X0168660Y0121686D03*
X0168660Y0124245D03*
X0168660Y0126805D03*
X0168660Y0129364D03*
X0160590Y0129364D03*
X0160590Y0126805D03*
X0160590Y0124245D03*
X0160590Y0121686D03*
M02*
