G75*
%MOIN*%
%OFA0B0*%
%FSLAX25Y25*%
%IPPOS*%
%LPD*%
%AMOC8*
5,1,8,0,0,1.08239X$1,22.5*
%
%ADD10C,0.00600*%
%ADD11C,0.00500*%
%ADD12C,0.01000*%
D10*
X0239277Y0168001D02*
X0253473Y0168001D01*
X0253473Y0186599D02*
X0239277Y0186599D01*
D11*
X0066446Y0042292D02*
X0057154Y0042292D01*
X0057154Y0141308D01*
X0066446Y0141308D01*
X0066446Y0042292D01*
X0067154Y0042292D02*
X0076446Y0042292D01*
X0076446Y0141308D01*
X0067154Y0141308D01*
X0067154Y0042292D01*
X0157600Y0118650D02*
X0157602Y0118674D01*
X0157608Y0118698D01*
X0157617Y0118720D01*
X0157630Y0118740D01*
X0157646Y0118758D01*
X0157665Y0118773D01*
X0157686Y0118786D01*
X0157708Y0118794D01*
X0157732Y0118799D01*
X0157756Y0118800D01*
X0157780Y0118797D01*
X0157803Y0118790D01*
X0157825Y0118780D01*
X0157845Y0118766D01*
X0157862Y0118749D01*
X0157877Y0118730D01*
X0157888Y0118709D01*
X0157896Y0118686D01*
X0157900Y0118662D01*
X0157900Y0118638D01*
X0157896Y0118614D01*
X0157888Y0118591D01*
X0157877Y0118570D01*
X0157862Y0118551D01*
X0157845Y0118534D01*
X0157825Y0118520D01*
X0157803Y0118510D01*
X0157780Y0118503D01*
X0157756Y0118500D01*
X0157732Y0118501D01*
X0157708Y0118506D01*
X0157686Y0118514D01*
X0157665Y0118527D01*
X0157646Y0118542D01*
X0157630Y0118560D01*
X0157617Y0118580D01*
X0157608Y0118602D01*
X0157602Y0118626D01*
X0157600Y0118650D01*
X0157437Y0118650D02*
X0157439Y0118685D01*
X0157445Y0118720D01*
X0157455Y0118753D01*
X0157468Y0118786D01*
X0157485Y0118817D01*
X0157505Y0118845D01*
X0157529Y0118871D01*
X0157555Y0118895D01*
X0157583Y0118915D01*
X0157614Y0118932D01*
X0157647Y0118945D01*
X0157680Y0118955D01*
X0157715Y0118961D01*
X0157750Y0118963D01*
X0157785Y0118961D01*
X0157820Y0118955D01*
X0157853Y0118945D01*
X0157886Y0118932D01*
X0157917Y0118915D01*
X0157945Y0118895D01*
X0157971Y0118871D01*
X0157995Y0118845D01*
X0158015Y0118817D01*
X0158032Y0118786D01*
X0158045Y0118753D01*
X0158055Y0118720D01*
X0158061Y0118685D01*
X0158063Y0118650D01*
X0158061Y0118615D01*
X0158055Y0118580D01*
X0158045Y0118547D01*
X0158032Y0118514D01*
X0158015Y0118483D01*
X0157995Y0118455D01*
X0157971Y0118429D01*
X0157945Y0118405D01*
X0157917Y0118385D01*
X0157886Y0118368D01*
X0157853Y0118355D01*
X0157820Y0118345D01*
X0157785Y0118339D01*
X0157750Y0118337D01*
X0157715Y0118339D01*
X0157680Y0118345D01*
X0157647Y0118355D01*
X0157614Y0118368D01*
X0157583Y0118385D01*
X0157555Y0118405D01*
X0157529Y0118429D01*
X0157505Y0118455D01*
X0157485Y0118483D01*
X0157468Y0118514D01*
X0157455Y0118547D01*
X0157445Y0118580D01*
X0157439Y0118615D01*
X0157437Y0118650D01*
X0157125Y0118650D02*
X0157127Y0118700D01*
X0157133Y0118749D01*
X0157143Y0118798D01*
X0157156Y0118845D01*
X0157174Y0118892D01*
X0157195Y0118937D01*
X0157219Y0118980D01*
X0157247Y0119021D01*
X0157278Y0119060D01*
X0157312Y0119096D01*
X0157349Y0119130D01*
X0157389Y0119160D01*
X0157430Y0119187D01*
X0157474Y0119211D01*
X0157519Y0119231D01*
X0157566Y0119247D01*
X0157614Y0119260D01*
X0157663Y0119269D01*
X0157713Y0119274D01*
X0157762Y0119275D01*
X0157812Y0119272D01*
X0157861Y0119265D01*
X0157910Y0119254D01*
X0157957Y0119240D01*
X0158003Y0119221D01*
X0158048Y0119199D01*
X0158091Y0119174D01*
X0158131Y0119145D01*
X0158169Y0119113D01*
X0158205Y0119079D01*
X0158238Y0119041D01*
X0158267Y0119001D01*
X0158293Y0118959D01*
X0158316Y0118915D01*
X0158335Y0118869D01*
X0158351Y0118822D01*
X0158363Y0118773D01*
X0158371Y0118724D01*
X0158375Y0118675D01*
X0158375Y0118625D01*
X0158371Y0118576D01*
X0158363Y0118527D01*
X0158351Y0118478D01*
X0158335Y0118431D01*
X0158316Y0118385D01*
X0158293Y0118341D01*
X0158267Y0118299D01*
X0158238Y0118259D01*
X0158205Y0118221D01*
X0158169Y0118187D01*
X0158131Y0118155D01*
X0158091Y0118126D01*
X0158048Y0118101D01*
X0158003Y0118079D01*
X0157957Y0118060D01*
X0157910Y0118046D01*
X0157861Y0118035D01*
X0157812Y0118028D01*
X0157762Y0118025D01*
X0157713Y0118026D01*
X0157663Y0118031D01*
X0157614Y0118040D01*
X0157566Y0118053D01*
X0157519Y0118069D01*
X0157474Y0118089D01*
X0157430Y0118113D01*
X0157389Y0118140D01*
X0157349Y0118170D01*
X0157312Y0118204D01*
X0157278Y0118240D01*
X0157247Y0118279D01*
X0157219Y0118320D01*
X0157195Y0118363D01*
X0157174Y0118408D01*
X0157156Y0118455D01*
X0157143Y0118502D01*
X0157133Y0118551D01*
X0157127Y0118600D01*
X0157125Y0118650D01*
X0247154Y0141308D02*
X0256446Y0141308D01*
X0256446Y0042292D01*
X0247154Y0042292D01*
X0247154Y0141308D01*
X0257154Y0141308D02*
X0266446Y0141308D01*
X0266446Y0042292D01*
X0257154Y0042292D01*
X0257154Y0141308D01*
X0248875Y0170200D02*
X0248877Y0170275D01*
X0248883Y0170349D01*
X0248893Y0170423D01*
X0248907Y0170496D01*
X0248924Y0170568D01*
X0248946Y0170640D01*
X0248971Y0170710D01*
X0249000Y0170778D01*
X0249033Y0170846D01*
X0249069Y0170911D01*
X0249108Y0170974D01*
X0249151Y0171035D01*
X0249197Y0171094D01*
X0249246Y0171150D01*
X0249298Y0171203D01*
X0249353Y0171254D01*
X0249410Y0171301D01*
X0249470Y0171346D01*
X0249532Y0171387D01*
X0249597Y0171425D01*
X0249663Y0171459D01*
X0249731Y0171490D01*
X0249800Y0171517D01*
X0249871Y0171540D01*
X0249943Y0171560D01*
X0250016Y0171576D01*
X0250089Y0171588D01*
X0250163Y0171596D01*
X0250238Y0171600D01*
X0250312Y0171600D01*
X0250387Y0171596D01*
X0250461Y0171588D01*
X0250534Y0171576D01*
X0250607Y0171560D01*
X0250679Y0171540D01*
X0250750Y0171517D01*
X0250819Y0171490D01*
X0250887Y0171459D01*
X0250953Y0171425D01*
X0251018Y0171387D01*
X0251080Y0171346D01*
X0251140Y0171301D01*
X0251197Y0171254D01*
X0251252Y0171203D01*
X0251304Y0171150D01*
X0251353Y0171094D01*
X0251399Y0171035D01*
X0251442Y0170974D01*
X0251481Y0170911D01*
X0251517Y0170846D01*
X0251550Y0170778D01*
X0251579Y0170710D01*
X0251604Y0170640D01*
X0251626Y0170568D01*
X0251643Y0170496D01*
X0251657Y0170423D01*
X0251667Y0170349D01*
X0251673Y0170275D01*
X0251675Y0170200D01*
X0251673Y0170125D01*
X0251667Y0170051D01*
X0251657Y0169977D01*
X0251643Y0169904D01*
X0251626Y0169832D01*
X0251604Y0169760D01*
X0251579Y0169690D01*
X0251550Y0169622D01*
X0251517Y0169554D01*
X0251481Y0169489D01*
X0251442Y0169426D01*
X0251399Y0169365D01*
X0251353Y0169306D01*
X0251304Y0169250D01*
X0251252Y0169197D01*
X0251197Y0169146D01*
X0251140Y0169099D01*
X0251080Y0169054D01*
X0251018Y0169013D01*
X0250953Y0168975D01*
X0250887Y0168941D01*
X0250819Y0168910D01*
X0250750Y0168883D01*
X0250679Y0168860D01*
X0250607Y0168840D01*
X0250534Y0168824D01*
X0250461Y0168812D01*
X0250387Y0168804D01*
X0250312Y0168800D01*
X0250238Y0168800D01*
X0250163Y0168804D01*
X0250089Y0168812D01*
X0250016Y0168824D01*
X0249943Y0168840D01*
X0249871Y0168860D01*
X0249800Y0168883D01*
X0249731Y0168910D01*
X0249663Y0168941D01*
X0249597Y0168975D01*
X0249532Y0169013D01*
X0249470Y0169054D01*
X0249410Y0169099D01*
X0249353Y0169146D01*
X0249298Y0169197D01*
X0249246Y0169250D01*
X0249197Y0169306D01*
X0249151Y0169365D01*
X0249108Y0169426D01*
X0249069Y0169489D01*
X0249033Y0169554D01*
X0249000Y0169622D01*
X0248971Y0169690D01*
X0248946Y0169760D01*
X0248924Y0169832D01*
X0248907Y0169904D01*
X0248893Y0169977D01*
X0248883Y0170051D01*
X0248877Y0170125D01*
X0248875Y0170200D01*
X0263020Y0221490D02*
X0049280Y0221490D01*
X0049280Y0255821D01*
X0263020Y0255821D01*
X0263020Y0221490D01*
X0258650Y0223675D02*
X0258650Y0253675D01*
X0238650Y0253675D01*
X0238650Y0223675D01*
X0258650Y0223675D01*
X0073650Y0223675D02*
X0073650Y0253675D01*
X0053650Y0253675D01*
X0053650Y0223675D01*
X0073650Y0223675D01*
D12*
X0159000Y0131150D02*
X0170250Y0131150D01*
X0170250Y0119900D01*
X0159000Y0119900D01*
X0159000Y0131150D01*
M02*
