%
M48
M72
T01C0.02362
T02C0.03386
T03C0.03937
T04C0.04331
T05C0.04724
T06C0.09055
%
T01
X69525Y34425
X89550Y18225
X45000Y62775
X50400Y75825
X30375Y93825
X32850Y102825
X50850Y113625
X53550Y120825
X83925Y121500
X83025Y103950
X79875Y94500
X77175Y69525
X121050Y104400
X136800Y90000
X132525Y81675
X166725Y55350
X156825Y45900
X188100Y76725
X221400Y83025
X220500Y89100
X237375Y92250
X245250Y80550
X236250Y70425
X244800Y60525
X271125Y65925
X286425Y60750
X284175Y104400
X272475Y112050
X279675Y114975
X277650Y126000
X291150Y127575
X255375Y145350
X231075Y148050
X230625Y156600
X220275Y170100
X224100Y174375
X227925Y179100
X212850Y198000
X208125Y202725
X204075Y204525
X210375Y212175
X214650Y210150
X222525Y198675
X194625Y194850
X170775Y193500
X142425Y193950
X139950Y175050
X116550Y165375
X112050Y160200
X85725Y156375
X109350Y192375
X166500Y162450
X167625Y156600
X175500Y155700
X189675Y136350
X187650Y130050
X183150Y127350
X175500Y124650
X175275Y134100
X155925Y121500
X159750Y116100
X149625Y113175
X148950Y121950
X153000Y129825
X147150Y132300
X139275Y121725
X132525Y130725
X170100Y111150
X188100Y118125
X203850Y116775
X207000Y132075
X210150Y138825
X220725Y133200
X230400Y129825
X231750Y125100
X229500Y120600
X224100Y116100
X228825Y105750
X231975Y137250
X273600Y162900
X273825Y199350
X261450Y211500
X262125Y222525
X267975Y223200
X276525Y222525
X282825Y224325
X252000Y222075
X196875Y261225
X180450Y263700
X173250Y266625
T02
X175835Y251096
X183709Y251096
X191583Y251096
X199457Y251096
X199457Y243222
X191583Y243222
X183709Y243222
X175835Y243222
X175835Y235348
X183709Y235348
X191583Y235348
X199457Y235348
X199457Y227474
X191583Y227474
X183709Y227474
X175835Y227474
X167961Y227474
X160087Y227474
X152213Y227474
X144339Y227474
X136465Y227474
X128591Y227474
X120717Y227474
X112843Y227474
X104969Y227474
X97095Y227474
X89221Y227474
X81347Y227474
X81347Y235348
X89221Y235348
X97095Y235348
X104969Y235348
X112843Y235348
X120717Y235348
X128591Y235348
X136465Y235348
X144339Y235348
X152213Y235348
X160087Y235348
X167961Y235348
X167961Y243222
X160087Y243222
X152213Y243222
X144339Y243222
X136465Y243222
X128591Y243222
X120717Y243222
X112843Y243222
X104969Y243222
X97095Y243222
X89221Y243222
X81347Y243222
X81347Y251096
X89221Y251096
X97095Y251096
X104969Y251096
X112843Y251096
X120717Y251096
X128591Y251096
X136465Y251096
X144339Y251096
X152213Y251096
X160087Y251096
X167961Y251096
X207331Y251096
X215205Y251096
X223079Y251096
X223079Y243222
X215205Y243222
X207331Y243222
X207331Y235348
X215205Y235348
X223079Y235348
X223079Y227474
X215205Y227474
X207331Y227474
X230953Y227474
X230953Y235348
X230953Y243222
X230953Y251096
T03
X288358Y218855
X288358Y209012
X288358Y201138
X288358Y191295
T04
X61800Y46800
X61800Y56800
X71800Y56800
X71800Y46800
X71800Y66800
X71800Y76800
X61800Y76800
X61800Y66800
X61800Y86800
X71800Y86800
X71800Y96800
X71800Y106800
X61800Y106800
X61800Y96800
X61800Y116800
X71800Y116800
X71800Y126800
X71800Y136800
X61800Y136800
X61800Y126800
X60146Y229285
X67548Y229285
X67548Y239285
X60146Y239285
X60146Y249285
X67548Y249285
X244752Y249281
X252154Y249281
X252154Y239281
X244752Y239281
X244752Y229281
X252154Y229281
X251800Y136800
X261800Y136800
X261800Y126800
X251800Y126800
X251800Y116800
X261800Y116800
X261800Y106800
X251800Y106800
X251800Y96800
X261800Y96800
X261800Y86800
X251800Y86800
X251800Y76800
X261800Y76800
X261800Y66800
X251800Y66800
X251800Y56800
X261800Y56800
X261800Y46800
X251800Y46800
T05
X263020Y239167
X49280Y239167
T06
X299028Y230941
X299028Y179209
M30
