G75*
%MOIN*%
%OFA0B0*%
%FSLAX25Y25*%
%IPPOS*%
%LPD*%
%AMOC8*
5,1,8,0,0,1.08239X$1,22.5*
%
%ADD10R,0.07500X0.02400*%
%ADD11R,0.06496X0.06496*%
%ADD12C,0.06496*%
%ADD13OC8,0.06496*%
%ADD14R,0.05079X0.05079*%
%ADD15OC8,0.05079*%
%ADD16R,0.05906X0.05118*%
%ADD17R,0.05118X0.05906*%
%ADD18R,0.02362X0.08661*%
%ADD19R,0.08661X0.02362*%
%ADD20R,0.01969X0.01378*%
%ADD21C,0.05906*%
%ADD22C,0.00600*%
%ADD23C,0.03762*%
%ADD24C,0.01000*%
%ADD25C,0.01600*%
D10*
X0236075Y0169800D03*
X0236075Y0174800D03*
X0236075Y0179800D03*
X0236075Y0184800D03*
X0256675Y0184800D03*
X0256675Y0179800D03*
X0256675Y0174800D03*
X0256675Y0169800D03*
D11*
X0251800Y0136800D03*
X0261800Y0136800D03*
X0071800Y0136800D03*
X0061800Y0136800D03*
D12*
X0061800Y0126800D03*
X0071800Y0126800D03*
X0071800Y0116800D03*
X0061800Y0116800D03*
X0061800Y0106800D03*
X0061800Y0096800D03*
X0071800Y0096800D03*
X0071800Y0106800D03*
X0071800Y0086800D03*
X0061800Y0086800D03*
X0061800Y0076800D03*
X0061800Y0066800D03*
X0071800Y0066800D03*
X0071800Y0076800D03*
X0071800Y0056800D03*
X0071800Y0046800D03*
X0061800Y0046800D03*
X0061800Y0056800D03*
X0251800Y0056800D03*
X0261800Y0056800D03*
X0261800Y0046800D03*
X0251800Y0046800D03*
X0251800Y0066800D03*
X0261800Y0066800D03*
X0261800Y0076800D03*
X0251800Y0076800D03*
X0251800Y0086800D03*
X0261800Y0086800D03*
X0261800Y0096800D03*
X0251800Y0096800D03*
X0251800Y0106800D03*
X0261800Y0106800D03*
X0261800Y0116800D03*
X0251800Y0116800D03*
X0251800Y0126800D03*
X0261800Y0126800D03*
D13*
X0252154Y0229281D03*
X0244752Y0229281D03*
X0244752Y0239281D03*
X0252154Y0239281D03*
X0252154Y0249281D03*
X0244752Y0249281D03*
X0067548Y0249285D03*
X0060146Y0249285D03*
X0060146Y0239285D03*
X0067548Y0239285D03*
X0067548Y0229285D03*
X0060146Y0229285D03*
D14*
X0230953Y0227474D03*
D15*
X0223079Y0227474D03*
X0215205Y0227474D03*
X0207331Y0227474D03*
X0199457Y0227474D03*
X0191583Y0227474D03*
X0183709Y0227474D03*
X0175835Y0227474D03*
X0167961Y0227474D03*
X0160087Y0227474D03*
X0152213Y0227474D03*
X0144339Y0227474D03*
X0136465Y0227474D03*
X0128591Y0227474D03*
X0120717Y0227474D03*
X0112843Y0227474D03*
X0104969Y0227474D03*
X0097095Y0227474D03*
X0089221Y0227474D03*
X0081347Y0227474D03*
X0081347Y0235348D03*
X0089221Y0235348D03*
X0097095Y0235348D03*
X0104969Y0235348D03*
X0112843Y0235348D03*
X0120717Y0235348D03*
X0128591Y0235348D03*
X0136465Y0235348D03*
X0144339Y0235348D03*
X0152213Y0235348D03*
X0160087Y0235348D03*
X0167961Y0235348D03*
X0175835Y0235348D03*
X0183709Y0235348D03*
X0191583Y0235348D03*
X0199457Y0235348D03*
X0207331Y0235348D03*
X0215205Y0235348D03*
X0223079Y0235348D03*
X0230953Y0235348D03*
X0230953Y0243222D03*
X0223079Y0243222D03*
X0215205Y0243222D03*
X0207331Y0243222D03*
X0199457Y0243222D03*
X0191583Y0243222D03*
X0183709Y0243222D03*
X0175835Y0243222D03*
X0167961Y0243222D03*
X0160087Y0243222D03*
X0152213Y0243222D03*
X0144339Y0243222D03*
X0136465Y0243222D03*
X0128591Y0243222D03*
X0120717Y0243222D03*
X0112843Y0243222D03*
X0104969Y0243222D03*
X0097095Y0243222D03*
X0089221Y0243222D03*
X0081347Y0243222D03*
X0081347Y0251096D03*
X0089221Y0251096D03*
X0097095Y0251096D03*
X0104969Y0251096D03*
X0112843Y0251096D03*
X0120717Y0251096D03*
X0128591Y0251096D03*
X0136465Y0251096D03*
X0144339Y0251096D03*
X0152213Y0251096D03*
X0160087Y0251096D03*
X0167961Y0251096D03*
X0175835Y0251096D03*
X0183709Y0251096D03*
X0191583Y0251096D03*
X0199457Y0251096D03*
X0207331Y0251096D03*
X0215205Y0251096D03*
X0223079Y0251096D03*
X0230953Y0251096D03*
D16*
X0236275Y0205890D03*
X0236275Y0198410D03*
X0260575Y0195885D03*
X0260575Y0203365D03*
X0209050Y0153940D03*
X0209050Y0146460D03*
X0168500Y0146365D03*
X0168500Y0138885D03*
X0157700Y0136835D03*
X0157700Y0144315D03*
X0120550Y0176685D03*
X0120550Y0184165D03*
X0105100Y0170265D03*
X0105100Y0162785D03*
X0091850Y0182335D03*
X0091850Y0189815D03*
X0114725Y0120065D03*
X0114725Y0112585D03*
X0106375Y0081615D03*
X0106375Y0074135D03*
X0144875Y0044740D03*
X0144875Y0037260D03*
X0180425Y0056185D03*
X0180425Y0063665D03*
X0178700Y0101485D03*
X0178700Y0108965D03*
X0299050Y0119185D03*
X0299050Y0126665D03*
D17*
X0217790Y0189000D03*
X0210310Y0189000D03*
X0168265Y0205600D03*
X0160785Y0205600D03*
X0146140Y0205625D03*
X0138660Y0205625D03*
X0123840Y0091750D03*
X0116360Y0091750D03*
D18*
X0140725Y0085611D03*
X0145725Y0085611D03*
X0150725Y0085611D03*
X0155725Y0085611D03*
X0155725Y0065139D03*
X0150725Y0065139D03*
X0145725Y0065139D03*
X0140725Y0065139D03*
X0135875Y0140514D03*
X0130875Y0140514D03*
X0125875Y0140514D03*
X0120875Y0140514D03*
X0120875Y0160986D03*
X0125875Y0160986D03*
X0130875Y0160986D03*
X0135875Y0160986D03*
X0148500Y0169764D03*
X0153500Y0169764D03*
X0158500Y0169764D03*
X0163500Y0169764D03*
X0163500Y0190236D03*
X0158500Y0190236D03*
X0153500Y0190236D03*
X0148500Y0190236D03*
D19*
X0201239Y0110750D03*
X0201239Y0105750D03*
X0201239Y0100750D03*
X0201239Y0095750D03*
X0221711Y0095750D03*
X0221711Y0100750D03*
X0221711Y0105750D03*
X0221711Y0110750D03*
D20*
X0168660Y0121686D03*
X0168660Y0124245D03*
X0168660Y0126805D03*
X0168660Y0129364D03*
X0160590Y0129364D03*
X0160590Y0126805D03*
X0160590Y0124245D03*
X0160590Y0121686D03*
D21*
X0288358Y0191295D03*
X0288358Y0201138D03*
X0288358Y0209012D03*
X0288358Y0218855D03*
D22*
X0282825Y0224325D02*
X0283275Y0225900D01*
X0283275Y0265500D01*
X0278775Y0270675D01*
X0165825Y0270225D01*
X0160087Y0264937D01*
X0160087Y0251096D01*
X0152213Y0251096D02*
X0152213Y0264712D01*
X0147375Y0269550D01*
X0026100Y0269550D01*
X0014850Y0258300D01*
X0014850Y0083025D01*
X0028350Y0069525D01*
X0059075Y0069525D01*
X0061800Y0066800D01*
X0061800Y0067425D01*
X0067050Y0072675D01*
X0067050Y0082050D01*
X0071800Y0086800D01*
X0074100Y0094500D02*
X0071800Y0096800D01*
X0066450Y0102150D01*
X0058950Y0102150D01*
X0052875Y0108225D01*
X0039600Y0108225D01*
X0024525Y0123300D01*
X0024525Y0255600D01*
X0034875Y0265950D01*
X0142200Y0265950D01*
X0144339Y0263811D01*
X0144339Y0251096D01*
X0136465Y0235348D02*
X0140790Y0231023D01*
X0138660Y0205625D01*
X0137865Y0199065D01*
X0136800Y0194850D01*
X0136800Y0178200D01*
X0139950Y0175050D01*
X0130950Y0170325D02*
X0130950Y0161061D01*
X0130875Y0160986D01*
X0125875Y0160986D02*
X0125875Y0163475D01*
X0119700Y0170325D01*
X0116550Y0170325D01*
X0111375Y0167400D01*
X0111825Y0163125D01*
X0112050Y0160200D01*
X0116550Y0165375D02*
X0120875Y0161725D01*
X0120875Y0160986D01*
X0125325Y0161536D02*
X0125875Y0160986D01*
X0125875Y0167075D01*
X0125325Y0167625D01*
X0125325Y0161536D01*
X0125325Y0167625D02*
X0120550Y0172400D01*
X0120550Y0176685D01*
X0129600Y0171675D02*
X0130950Y0170325D01*
X0129600Y0171675D02*
X0129600Y0191475D01*
X0116325Y0204750D01*
X0111600Y0204750D01*
X0099000Y0204750D01*
X0092475Y0198225D01*
X0092475Y0190440D01*
X0091850Y0189815D01*
X0105100Y0188125D02*
X0109350Y0192375D01*
X0105100Y0188125D02*
X0105100Y0170265D01*
X0099615Y0170265D01*
X0085725Y0156375D01*
X0083925Y0121500D02*
X0076500Y0121500D01*
X0071800Y0116800D01*
X0061800Y0116800D02*
X0057775Y0120825D01*
X0053550Y0120825D01*
X0054975Y0113625D02*
X0050850Y0113625D01*
X0054975Y0113625D02*
X0061800Y0106800D01*
X0055775Y0102825D02*
X0061800Y0096800D01*
X0054775Y0093825D02*
X0061800Y0086800D01*
X0054775Y0093825D02*
X0030375Y0093825D01*
X0032850Y0102825D02*
X0055775Y0102825D01*
X0071800Y0106800D02*
X0074650Y0103950D01*
X0083025Y0103950D01*
X0079875Y0094500D02*
X0074100Y0094500D01*
X0071800Y0076800D02*
X0077175Y0071425D01*
X0077175Y0069525D01*
X0066875Y0061875D02*
X0061800Y0056800D01*
X0066875Y0061875D02*
X0088650Y0061875D01*
X0099115Y0072340D01*
X0106375Y0074135D01*
X0116665Y0072340D01*
X0136350Y0094275D01*
X0145125Y0093825D01*
X0146025Y0092925D01*
X0145800Y0085686D01*
X0145725Y0085611D01*
X0150725Y0085611D02*
X0150975Y0085861D01*
X0150975Y0094050D01*
X0149400Y0096975D01*
X0134550Y0097425D01*
X0130675Y0093550D01*
X0123840Y0091750D01*
X0125325Y0103275D02*
X0121050Y0104400D01*
X0125325Y0103275D02*
X0144675Y0103275D01*
X0149625Y0107775D01*
X0154800Y0107775D01*
X0158625Y0112725D01*
X0156600Y0115200D01*
X0147375Y0117675D01*
X0143550Y0119925D01*
X0143550Y0124425D01*
X0151650Y0132525D01*
X0151650Y0149175D01*
X0153225Y0150750D01*
X0155250Y0150750D01*
X0157950Y0148050D01*
X0157950Y0147809D01*
X0157700Y0144315D01*
X0157950Y0147809D02*
X0158000Y0148515D01*
X0153500Y0169764D01*
X0158500Y0169764D02*
X0162550Y0158300D01*
X0167625Y0156600D01*
X0170100Y0149315D01*
X0168500Y0146365D01*
X0175500Y0155700D02*
X0173025Y0158175D01*
X0173025Y0184050D01*
X0175725Y0186750D01*
X0175725Y0209925D01*
X0167850Y0217800D01*
X0159525Y0217800D01*
X0152213Y0225112D01*
X0152213Y0227474D01*
X0167961Y0243222D02*
X0167961Y0243561D01*
X0172350Y0247275D01*
X0170775Y0262350D01*
X0173250Y0266625D01*
X0180450Y0263700D02*
X0179100Y0259875D01*
X0180225Y0247050D01*
X0175947Y0243222D01*
X0175835Y0243222D01*
X0175835Y0235348D02*
X0175835Y0235240D01*
X0179775Y0231300D01*
X0179100Y0130950D01*
X0183150Y0127350D01*
X0187650Y0130050D02*
X0185175Y0134325D01*
X0187875Y0231300D01*
X0183709Y0235016D01*
X0183709Y0235348D01*
X0191583Y0227474D02*
X0191583Y0196083D01*
X0191475Y0195525D01*
X0190350Y0188775D01*
X0188775Y0184500D01*
X0188775Y0137250D01*
X0189675Y0136350D01*
X0192825Y0129825D02*
X0181575Y0119250D01*
X0170100Y0117000D01*
X0150975Y0094050D01*
X0140725Y0085850D02*
X0136800Y0090000D01*
X0136461Y0085611D02*
X0132525Y0081675D01*
X0136461Y0085611D02*
X0140725Y0085611D01*
X0140725Y0085850D01*
X0145725Y0065139D02*
X0144875Y0064289D01*
X0144875Y0044740D01*
X0144390Y0045225D01*
X0122850Y0045225D01*
X0105300Y0027675D01*
X0070200Y0027675D01*
X0061800Y0036075D01*
X0061800Y0046800D01*
X0069525Y0044525D02*
X0071800Y0046800D01*
X0069525Y0044525D02*
X0069525Y0034425D01*
X0048600Y0022725D02*
X0027000Y0044325D01*
X0027000Y0056700D01*
X0029475Y0059175D01*
X0041400Y0059175D01*
X0045000Y0062775D01*
X0050400Y0075825D02*
X0060825Y0075825D01*
X0061800Y0076800D01*
X0114725Y0120065D02*
X0125875Y0124915D01*
X0134510Y0124915D01*
X0136125Y0123300D01*
X0136125Y0117450D01*
X0138375Y0115200D01*
X0146700Y0115200D01*
X0149625Y0113175D01*
X0148950Y0121950D02*
X0150075Y0124650D01*
X0153225Y0126675D01*
X0155700Y0127125D01*
X0157050Y0127125D01*
X0160460Y0126675D01*
X0160590Y0126805D01*
X0160590Y0129364D02*
X0156078Y0130050D01*
X0153000Y0129825D01*
X0147150Y0132300D02*
X0139725Y0132300D01*
X0139275Y0131850D01*
X0139275Y0121725D01*
X0132525Y0130725D02*
X0132525Y0138864D01*
X0130875Y0140514D01*
X0125875Y0140514D02*
X0125875Y0124915D01*
X0136350Y0134550D02*
X0136350Y0140039D01*
X0135875Y0140514D01*
X0136350Y0134550D02*
X0138600Y0132300D01*
X0139725Y0132300D01*
X0155925Y0121500D02*
X0157686Y0122361D01*
X0160590Y0121686D01*
X0168660Y0124245D02*
X0175095Y0124245D01*
X0175500Y0124650D01*
X0169864Y0129364D02*
X0175275Y0134100D01*
X0169864Y0129364D02*
X0168660Y0129364D01*
X0188100Y0118125D02*
X0184265Y0102590D01*
X0178700Y0101485D01*
X0190125Y0103725D02*
X0192600Y0101250D01*
X0200739Y0101250D01*
X0201239Y0100750D01*
X0201239Y0095750D02*
X0194300Y0095750D01*
X0192600Y0094050D01*
X0192600Y0081225D01*
X0188100Y0076725D01*
X0180450Y0074215D02*
X0180450Y0081450D01*
X0194850Y0125775D01*
X0195750Y0186975D01*
X0206325Y0200475D01*
X0208125Y0202725D01*
X0204075Y0204525D02*
X0204075Y0200250D01*
X0192825Y0189000D01*
X0192825Y0129825D01*
X0197775Y0125100D02*
X0190125Y0105975D01*
X0190125Y0103725D01*
X0193050Y0107100D02*
X0194175Y0105975D01*
X0201014Y0105975D01*
X0201239Y0105750D01*
X0193050Y0107100D02*
X0193050Y0108900D01*
X0198225Y0116775D01*
X0199143Y0120039D01*
X0200158Y0119025D01*
X0202725Y0119025D01*
X0203850Y0117900D01*
X0203850Y0116775D01*
X0199143Y0120039D02*
X0200250Y0123975D01*
X0199800Y0129825D01*
X0202725Y0132300D01*
X0207000Y0132075D01*
X0216675Y0134100D02*
X0216675Y0157950D01*
X0222750Y0164025D01*
X0250900Y0164025D01*
X0256675Y0169800D01*
X0256675Y0174800D02*
X0256700Y0174825D01*
X0279675Y0174825D01*
X0288358Y0183508D01*
X0288358Y0191295D01*
X0288358Y0201138D02*
X0288358Y0203094D01*
X0273576Y0217875D01*
X0243426Y0217875D01*
X0237900Y0223401D01*
X0237900Y0245001D01*
X0235551Y0247350D01*
X0232500Y0247350D01*
X0230625Y0245475D01*
X0230625Y0243550D01*
X0230953Y0243222D01*
X0233100Y0248550D02*
X0230953Y0250697D01*
X0230953Y0251096D01*
X0233100Y0248550D02*
X0236049Y0248550D01*
X0239100Y0245499D01*
X0239100Y0223899D01*
X0243924Y0219075D01*
X0274074Y0219075D01*
X0284137Y0209012D01*
X0288358Y0209012D01*
X0273825Y0199350D02*
X0269810Y0203365D01*
X0260575Y0203365D01*
X0261675Y0211490D01*
X0261450Y0211500D01*
X0262125Y0222525D02*
X0262125Y0225675D01*
X0277200Y0240525D01*
X0277200Y0257625D01*
X0272475Y0262350D01*
X0202950Y0262350D01*
X0199457Y0258857D01*
X0199457Y0251096D01*
X0195300Y0247050D02*
X0195300Y0257625D01*
X0196875Y0261225D01*
X0194625Y0265050D02*
X0274500Y0265050D01*
X0278775Y0260775D01*
X0278775Y0238275D01*
X0275175Y0234675D01*
X0275175Y0234450D01*
X0267975Y0227250D01*
X0267975Y0223200D01*
X0275850Y0224100D02*
X0276525Y0222525D01*
X0275850Y0224100D02*
X0275850Y0229050D01*
X0280800Y0234000D01*
X0280800Y0263250D01*
X0276525Y0267525D01*
X0189450Y0267525D01*
X0183709Y0261784D01*
X0183709Y0251096D01*
X0191583Y0251096D02*
X0191583Y0262008D01*
X0194625Y0265050D01*
X0207331Y0257731D02*
X0209250Y0259650D01*
X0271575Y0258975D01*
X0274950Y0256500D01*
X0274950Y0241875D01*
X0272025Y0239175D01*
X0270000Y0239175D01*
X0252000Y0222075D01*
X0236275Y0198410D02*
X0236275Y0185000D01*
X0236075Y0184800D01*
X0236000Y0184725D01*
X0227025Y0184725D01*
X0223875Y0181575D01*
X0220050Y0181575D01*
X0212400Y0173925D01*
X0212400Y0166050D01*
X0211075Y0162475D01*
X0209050Y0153940D01*
X0209050Y0146460D02*
X0209050Y0139925D01*
X0210150Y0138825D01*
X0216675Y0134100D02*
X0217350Y0133425D01*
X0220725Y0133200D01*
X0226350Y0136125D02*
X0226350Y0118350D01*
X0231975Y0112725D01*
X0231975Y0107325D01*
X0234225Y0105075D01*
X0234225Y0102825D01*
X0231750Y0100350D01*
X0222111Y0100350D01*
X0221711Y0100750D01*
X0221711Y0105750D02*
X0228825Y0105750D01*
X0221711Y0110750D02*
X0221711Y0113711D01*
X0224100Y0116100D01*
X0229500Y0120600D02*
X0234225Y0117225D01*
X0236250Y0112050D01*
X0239400Y0105075D01*
X0245025Y0099450D01*
X0249150Y0099450D01*
X0251800Y0096800D01*
X0248625Y0093825D02*
X0244575Y0093825D01*
X0241875Y0096525D01*
X0234900Y0096525D01*
X0228825Y0090450D01*
X0221850Y0090450D01*
X0220500Y0089100D01*
X0223875Y0085500D02*
X0221400Y0083025D01*
X0223875Y0085500D02*
X0246825Y0085500D01*
X0251325Y0081000D01*
X0256500Y0081000D01*
X0260700Y0076800D01*
X0261800Y0076800D01*
X0251800Y0076800D02*
X0248050Y0080550D01*
X0245250Y0080550D01*
X0251800Y0086800D02*
X0246350Y0092250D01*
X0237375Y0092250D01*
X0248625Y0093825D02*
X0250425Y0092025D01*
X0256050Y0092025D01*
X0261275Y0086800D01*
X0261800Y0086800D01*
X0275175Y0095175D02*
X0275175Y0057150D01*
X0267750Y0049725D01*
X0264725Y0049725D01*
X0261800Y0046800D01*
X0261800Y0037700D01*
X0246825Y0022725D01*
X0048600Y0022725D01*
X0089550Y0018225D02*
X0092025Y0015750D01*
X0261450Y0015750D01*
X0286425Y0040725D01*
X0286425Y0060750D01*
X0271125Y0065925D02*
X0270250Y0066800D01*
X0261800Y0066800D01*
X0251800Y0066800D02*
X0248175Y0070425D01*
X0236250Y0070425D01*
X0244800Y0060525D02*
X0248075Y0060525D01*
X0251800Y0056800D01*
X0275175Y0095175D02*
X0267975Y0102375D01*
X0258750Y0102375D01*
X0257625Y0103725D01*
X0257175Y0130950D01*
X0251800Y0136325D01*
X0251800Y0136800D01*
X0255375Y0140375D01*
X0255375Y0145350D01*
X0252450Y0150525D02*
X0263700Y0150525D01*
X0276525Y0137700D01*
X0278325Y0137700D01*
X0285075Y0130950D01*
X0285075Y0113625D01*
X0278775Y0107325D01*
X0262325Y0107325D01*
X0261800Y0106800D01*
X0251800Y0106800D02*
X0244575Y0114025D01*
X0242325Y0116100D01*
X0235800Y0123750D01*
X0231750Y0125100D01*
X0230850Y0129375D02*
X0230400Y0129825D01*
X0230850Y0129375D02*
X0234450Y0129375D01*
X0241875Y0121950D01*
X0244350Y0121950D01*
X0249500Y0116800D01*
X0251800Y0116800D01*
X0261800Y0116800D02*
X0262050Y0116550D01*
X0269775Y0116550D01*
X0272475Y0113850D01*
X0272475Y0112050D01*
X0279675Y0114975D02*
X0274050Y0120600D01*
X0265275Y0120600D01*
X0261800Y0124075D01*
X0261800Y0126800D01*
X0262600Y0126000D01*
X0277650Y0126000D01*
X0289810Y0127340D02*
X0291150Y0127575D01*
X0289810Y0127340D02*
X0299050Y0126665D01*
X0287100Y0141525D02*
X0287100Y0107325D01*
X0284175Y0104400D01*
X0251800Y0126800D02*
X0242425Y0126800D01*
X0231975Y0137250D01*
X0226350Y0136125D02*
X0222300Y0140175D01*
X0222300Y0155025D01*
X0227025Y0159750D01*
X0254475Y0159750D01*
X0257625Y0162900D01*
X0273600Y0162900D01*
X0272025Y0156600D02*
X0287100Y0141525D01*
X0272025Y0156600D02*
X0230625Y0156600D01*
X0231075Y0148050D02*
X0249975Y0148050D01*
X0252450Y0150525D01*
X0236075Y0169800D02*
X0220575Y0169800D01*
X0220275Y0170100D01*
X0224100Y0174375D02*
X0235375Y0175500D01*
X0236075Y0174800D01*
X0235375Y0179100D02*
X0227925Y0179100D01*
X0235375Y0179100D02*
X0236075Y0179800D01*
X0222525Y0198675D02*
X0220500Y0198675D01*
X0216000Y0203175D01*
X0213750Y0203175D01*
X0207900Y0209025D01*
X0202050Y0209025D01*
X0196425Y0203400D01*
X0196425Y0196875D01*
X0194625Y0194850D01*
X0210310Y0189000D02*
X0210310Y0168460D01*
X0200925Y0159075D01*
X0200925Y0158625D01*
X0197325Y0155025D01*
X0197775Y0125100D01*
X0201239Y0095750D02*
X0201239Y0057689D01*
X0184950Y0041400D01*
X0168750Y0041400D01*
X0155700Y0054450D01*
X0155700Y0065114D01*
X0155725Y0065139D01*
X0150750Y0065114D02*
X0150725Y0065139D01*
X0150750Y0065114D02*
X0150750Y0050850D01*
X0155700Y0045900D01*
X0156825Y0045900D01*
X0166725Y0055350D02*
X0175040Y0063665D01*
X0180425Y0063665D01*
X0180450Y0074215D01*
X0166500Y0162450D02*
X0163500Y0165450D01*
X0163500Y0169764D01*
X0158500Y0190236D02*
X0159857Y0191593D01*
X0158625Y0192825D01*
X0158400Y0197325D01*
X0166015Y0199090D01*
X0168265Y0205600D01*
X0166500Y0195525D02*
X0161550Y0195525D01*
X0160425Y0194400D01*
X0160425Y0192161D01*
X0159857Y0191593D01*
X0153500Y0190236D02*
X0153225Y0190511D01*
X0153225Y0195525D01*
X0150300Y0198450D01*
X0145800Y0198450D01*
X0142425Y0195075D01*
X0142425Y0193950D01*
X0166500Y0195525D02*
X0167175Y0194850D01*
X0170775Y0193500D01*
X0210310Y0189000D02*
X0211050Y0189740D01*
X0212850Y0198000D01*
X0214650Y0210150D02*
X0219375Y0215775D01*
X0219375Y0230625D01*
X0215205Y0234795D01*
X0215205Y0235348D01*
X0211725Y0230625D02*
X0211725Y0213525D01*
X0210375Y0212175D01*
X0211725Y0230625D02*
X0207331Y0235019D01*
X0207331Y0235348D01*
X0195300Y0247050D02*
X0191583Y0243333D01*
X0191583Y0243222D01*
X0207331Y0251096D02*
X0207331Y0257731D01*
X0128591Y0235348D02*
X0128591Y0232991D01*
X0125550Y0229950D01*
X0125550Y0229725D01*
X0124425Y0228600D01*
X0124425Y0217575D01*
X0111600Y0204750D01*
X0089221Y0227474D02*
X0089221Y0235348D01*
X0089221Y0243222D01*
X0089221Y0251096D01*
X0081347Y0251096D01*
X0081347Y0243222D01*
X0081347Y0235348D01*
X0081347Y0227474D01*
D23*
X0109350Y0192375D03*
X0116550Y0165375D03*
X0112050Y0160200D03*
X0085725Y0156375D03*
X0083925Y0121500D03*
X0083025Y0103950D03*
X0079875Y0094500D03*
X0077175Y0069525D03*
X0050400Y0075825D03*
X0045000Y0062775D03*
X0069525Y0034425D03*
X0089550Y0018225D03*
X0156825Y0045900D03*
X0166725Y0055350D03*
X0188100Y0076725D03*
X0221400Y0083025D03*
X0220500Y0089100D03*
X0237375Y0092250D03*
X0245250Y0080550D03*
X0236250Y0070425D03*
X0244800Y0060525D03*
X0271125Y0065925D03*
X0286425Y0060750D03*
X0284175Y0104400D03*
X0272475Y0112050D03*
X0279675Y0114975D03*
X0277650Y0126000D03*
X0291150Y0127575D03*
X0255375Y0145350D03*
X0231075Y0148050D03*
X0230625Y0156600D03*
X0220275Y0170100D03*
X0224100Y0174375D03*
X0227925Y0179100D03*
X0212850Y0198000D03*
X0208125Y0202725D03*
X0204075Y0204525D03*
X0210375Y0212175D03*
X0214650Y0210150D03*
X0222525Y0198675D03*
X0194625Y0194850D03*
X0170775Y0193500D03*
X0142425Y0193950D03*
X0139950Y0175050D03*
X0166500Y0162450D03*
X0167625Y0156600D03*
X0175500Y0155700D03*
X0189675Y0136350D03*
X0187650Y0130050D03*
X0183150Y0127350D03*
X0175500Y0124650D03*
X0175275Y0134100D03*
X0155925Y0121500D03*
X0159750Y0116100D03*
X0149625Y0113175D03*
X0148950Y0121950D03*
X0153000Y0129825D03*
X0147150Y0132300D03*
X0139275Y0121725D03*
X0132525Y0130725D03*
X0121050Y0104400D03*
X0136800Y0090000D03*
X0132525Y0081675D03*
X0170100Y0111150D03*
X0188100Y0118125D03*
X0203850Y0116775D03*
X0207000Y0132075D03*
X0210150Y0138825D03*
X0220725Y0133200D03*
X0230400Y0129825D03*
X0231750Y0125100D03*
X0229500Y0120600D03*
X0224100Y0116100D03*
X0228825Y0105750D03*
X0231975Y0137250D03*
X0273600Y0162900D03*
X0273825Y0199350D03*
X0261450Y0211500D03*
X0262125Y0222525D03*
X0267975Y0223200D03*
X0276525Y0222525D03*
X0282825Y0224325D03*
X0252000Y0222075D03*
X0196875Y0261225D03*
X0180450Y0263700D03*
X0173250Y0266625D03*
X0053550Y0120825D03*
X0050850Y0113625D03*
X0032850Y0102825D03*
X0030375Y0093825D03*
D24*
X0061800Y0136800D02*
X0063000Y0136800D01*
X0076500Y0150300D01*
X0088650Y0150300D01*
X0103275Y0135675D01*
X0103275Y0112275D01*
X0116100Y0099450D01*
X0152049Y0099450D01*
X0168660Y0121686D01*
X0179736Y0121236D01*
X0181125Y0122625D01*
X0181125Y0124875D01*
X0179550Y0126450D01*
X0174156Y0129825D01*
X0168660Y0126805D01*
X0160590Y0124245D02*
X0154845Y0125370D01*
X0152100Y0123525D01*
X0152325Y0119475D01*
X0153900Y0117900D01*
X0158175Y0117225D01*
X0159750Y0116100D01*
X0170100Y0111150D02*
X0176515Y0111150D01*
X0178700Y0108965D01*
X0236075Y0169800D02*
X0243825Y0169800D01*
X0249075Y0175050D01*
X0256425Y0175050D01*
X0256675Y0174800D01*
X0112843Y0227474D02*
X0112843Y0235348D01*
X0112843Y0243222D01*
X0112843Y0251096D01*
X0097095Y0251096D02*
X0097095Y0243222D01*
X0097095Y0235348D01*
X0097095Y0227474D01*
X0061800Y0192179D01*
X0061800Y0136800D01*
D25*
X0004900Y0004900D02*
X0004900Y0270354D01*
X0024499Y0270354D01*
X0014146Y0260000D01*
X0013150Y0259004D01*
X0013150Y0082321D01*
X0026650Y0068821D01*
X0027646Y0067825D01*
X0057194Y0067825D01*
X0057152Y0067725D01*
X0057152Y0065875D01*
X0057860Y0064167D01*
X0059167Y0062860D01*
X0060875Y0062152D01*
X0062725Y0062152D01*
X0064433Y0062860D01*
X0065740Y0064167D01*
X0066448Y0065875D01*
X0066448Y0067725D01*
X0065879Y0069099D01*
X0067754Y0070975D01*
X0068750Y0071971D01*
X0068750Y0073277D01*
X0069167Y0072860D01*
X0070875Y0072152D01*
X0072725Y0072152D01*
X0073657Y0072538D01*
X0074603Y0071593D01*
X0074393Y0071384D01*
X0074172Y0070849D01*
X0072725Y0071448D01*
X0070875Y0071448D01*
X0069167Y0070740D01*
X0067860Y0069433D01*
X0067152Y0067725D01*
X0067152Y0065875D01*
X0067860Y0064167D01*
X0068452Y0063575D01*
X0066171Y0063575D01*
X0063657Y0061062D01*
X0062725Y0061448D01*
X0060875Y0061448D01*
X0059167Y0060740D01*
X0057860Y0059433D01*
X0057152Y0057725D01*
X0057152Y0055875D01*
X0057860Y0054167D01*
X0059167Y0052860D01*
X0060875Y0052152D01*
X0062725Y0052152D01*
X0064433Y0052860D01*
X0065740Y0054167D01*
X0066448Y0055875D01*
X0066448Y0057725D01*
X0066062Y0058657D01*
X0067579Y0060175D01*
X0068602Y0060175D01*
X0067860Y0059433D01*
X0067152Y0057725D01*
X0067152Y0055875D01*
X0067860Y0054167D01*
X0069167Y0052860D01*
X0070875Y0052152D01*
X0072725Y0052152D01*
X0074433Y0052860D01*
X0075740Y0054167D01*
X0076448Y0055875D01*
X0076448Y0057725D01*
X0075740Y0059433D01*
X0074998Y0060175D01*
X0089354Y0060175D01*
X0090350Y0061171D01*
X0099983Y0070803D01*
X0102022Y0071308D01*
X0102022Y0070996D01*
X0102842Y0070176D01*
X0109908Y0070176D01*
X0110728Y0070996D01*
X0110728Y0071650D01*
X0115893Y0070749D01*
X0116054Y0070605D01*
X0116564Y0070632D01*
X0117067Y0070544D01*
X0117244Y0070669D01*
X0117460Y0070681D01*
X0117801Y0071061D01*
X0118219Y0071354D01*
X0118256Y0071568D01*
X0133738Y0088819D01*
X0134018Y0088141D01*
X0134941Y0087218D01*
X0135453Y0087007D01*
X0133336Y0084890D01*
X0133178Y0084956D01*
X0131872Y0084956D01*
X0130666Y0084457D01*
X0129743Y0083534D01*
X0129244Y0082328D01*
X0129244Y0081022D01*
X0129743Y0079816D01*
X0130666Y0078893D01*
X0131872Y0078394D01*
X0133178Y0078394D01*
X0134384Y0078893D01*
X0135307Y0079816D01*
X0135806Y0081022D01*
X0135806Y0082328D01*
X0135740Y0082486D01*
X0137165Y0083911D01*
X0138144Y0083911D01*
X0138144Y0080701D01*
X0138964Y0079881D01*
X0142486Y0079881D01*
X0143225Y0080620D01*
X0143964Y0079881D01*
X0147486Y0079881D01*
X0148225Y0080620D01*
X0148964Y0079881D01*
X0152486Y0079881D01*
X0153225Y0080620D01*
X0153964Y0079881D01*
X0157486Y0079881D01*
X0158306Y0080701D01*
X0158306Y0090522D01*
X0157486Y0091342D01*
X0153964Y0091342D01*
X0153225Y0090603D01*
X0152675Y0091153D01*
X0152675Y0093435D01*
X0171019Y0115448D01*
X0181714Y0117545D01*
X0182226Y0117529D01*
X0182383Y0117676D01*
X0182593Y0117717D01*
X0182879Y0118143D01*
X0193180Y0127826D01*
X0193154Y0126056D01*
X0191049Y0119578D01*
X0190882Y0119984D01*
X0189959Y0120907D01*
X0188753Y0121406D01*
X0187447Y0121406D01*
X0186241Y0120907D01*
X0185318Y0119984D01*
X0184819Y0118778D01*
X0184819Y0117472D01*
X0185318Y0116266D01*
X0185777Y0115808D01*
X0183453Y0106392D01*
X0183453Y0108486D01*
X0179180Y0108486D01*
X0179180Y0109445D01*
X0183453Y0109445D01*
X0183453Y0111761D01*
X0183330Y0112219D01*
X0183093Y0112629D01*
X0182758Y0112965D01*
X0182348Y0113202D01*
X0181890Y0113324D01*
X0179180Y0113324D01*
X0179180Y0109445D01*
X0178220Y0109445D01*
X0178220Y0108486D01*
X0173947Y0108486D01*
X0173947Y0106169D01*
X0174070Y0105711D01*
X0174307Y0105301D01*
X0174642Y0104966D01*
X0174672Y0104948D01*
X0174347Y0104624D01*
X0174347Y0098346D01*
X0175167Y0097526D01*
X0182233Y0097526D01*
X0183053Y0098346D01*
X0183053Y0100616D01*
X0184225Y0100849D01*
X0184541Y0100771D01*
X0184889Y0100981D01*
X0185016Y0101006D01*
X0178959Y0082363D01*
X0178750Y0082154D01*
X0178750Y0081719D01*
X0178616Y0081306D01*
X0178750Y0081042D01*
X0178750Y0074217D01*
X0178734Y0067624D01*
X0176892Y0067624D01*
X0176072Y0066804D01*
X0176072Y0065365D01*
X0174336Y0065365D01*
X0167536Y0058565D01*
X0167378Y0058631D01*
X0166072Y0058631D01*
X0164866Y0058132D01*
X0163943Y0057209D01*
X0163444Y0056003D01*
X0163444Y0054697D01*
X0163943Y0053491D01*
X0164866Y0052568D01*
X0166072Y0052069D01*
X0167378Y0052069D01*
X0168584Y0052568D01*
X0169507Y0053491D01*
X0170006Y0054697D01*
X0170006Y0056003D01*
X0169940Y0056161D01*
X0175744Y0061965D01*
X0176072Y0061965D01*
X0176072Y0060526D01*
X0176397Y0060202D01*
X0176367Y0060184D01*
X0176032Y0059849D01*
X0175795Y0059439D01*
X0175672Y0058981D01*
X0175672Y0056664D01*
X0179945Y0056664D01*
X0179945Y0055705D01*
X0175672Y0055705D01*
X0175672Y0053389D01*
X0175795Y0052931D01*
X0176032Y0052521D01*
X0176367Y0052185D01*
X0176777Y0051948D01*
X0177235Y0051826D01*
X0179945Y0051826D01*
X0179945Y0055705D01*
X0180905Y0055705D01*
X0180905Y0056664D01*
X0185178Y0056664D01*
X0185178Y0058981D01*
X0185055Y0059439D01*
X0184818Y0059849D01*
X0184483Y0060184D01*
X0184453Y0060202D01*
X0184778Y0060526D01*
X0184778Y0066804D01*
X0183958Y0067624D01*
X0182134Y0067624D01*
X0182148Y0073509D01*
X0182150Y0073511D01*
X0182150Y0074214D01*
X0182152Y0074915D01*
X0182150Y0074917D01*
X0182150Y0081181D01*
X0189044Y0102402D01*
X0190900Y0100546D01*
X0191896Y0099550D01*
X0195508Y0099550D01*
X0195508Y0098989D01*
X0196247Y0098250D01*
X0195508Y0097511D01*
X0195508Y0097450D01*
X0193596Y0097450D01*
X0191896Y0095750D01*
X0190900Y0094754D01*
X0190900Y0081929D01*
X0188911Y0079940D01*
X0188753Y0080006D01*
X0187447Y0080006D01*
X0186241Y0079507D01*
X0185318Y0078584D01*
X0184819Y0077378D01*
X0184819Y0076072D01*
X0185318Y0074866D01*
X0186241Y0073943D01*
X0187447Y0073444D01*
X0188753Y0073444D01*
X0189959Y0073943D01*
X0190882Y0074866D01*
X0191381Y0076072D01*
X0191381Y0077378D01*
X0191315Y0077536D01*
X0194300Y0080521D01*
X0194300Y0093346D01*
X0195004Y0094050D01*
X0195508Y0094050D01*
X0195508Y0093989D01*
X0196328Y0093169D01*
X0199539Y0093169D01*
X0199539Y0058393D01*
X0184246Y0043100D01*
X0169454Y0043100D01*
X0157400Y0055154D01*
X0157400Y0059408D01*
X0157486Y0059408D01*
X0158306Y0060228D01*
X0158306Y0070049D01*
X0157486Y0070869D01*
X0153964Y0070869D01*
X0153225Y0070130D01*
X0152486Y0070869D01*
X0148964Y0070869D01*
X0148225Y0070130D01*
X0147486Y0070869D01*
X0143964Y0070869D01*
X0143225Y0070130D01*
X0142486Y0070869D01*
X0138964Y0070869D01*
X0138144Y0070049D01*
X0138144Y0060228D01*
X0138964Y0059408D01*
X0142486Y0059408D01*
X0143175Y0060097D01*
X0143175Y0048699D01*
X0141342Y0048699D01*
X0140522Y0047879D01*
X0140522Y0046925D01*
X0122146Y0046925D01*
X0121150Y0045929D01*
X0104596Y0029375D01*
X0070904Y0029375D01*
X0069135Y0031144D01*
X0070178Y0031144D01*
X0071384Y0031643D01*
X0072307Y0032566D01*
X0072806Y0033772D01*
X0072806Y0035078D01*
X0072307Y0036284D01*
X0071384Y0037207D01*
X0071225Y0037272D01*
X0071225Y0042152D01*
X0072725Y0042152D01*
X0074433Y0042860D01*
X0075740Y0044167D01*
X0076448Y0045875D01*
X0076448Y0047725D01*
X0075740Y0049433D01*
X0074433Y0050740D01*
X0072725Y0051448D01*
X0070875Y0051448D01*
X0069167Y0050740D01*
X0067860Y0049433D01*
X0067152Y0047725D01*
X0067152Y0045875D01*
X0067825Y0044251D01*
X0067825Y0037272D01*
X0067666Y0037207D01*
X0066743Y0036284D01*
X0066244Y0035078D01*
X0066244Y0034035D01*
X0063500Y0036779D01*
X0063500Y0042473D01*
X0064433Y0042860D01*
X0065740Y0044167D01*
X0066448Y0045875D01*
X0066448Y0047725D01*
X0065740Y0049433D01*
X0064433Y0050740D01*
X0062725Y0051448D01*
X0060875Y0051448D01*
X0059167Y0050740D01*
X0057860Y0049433D01*
X0057152Y0047725D01*
X0057152Y0045875D01*
X0057860Y0044167D01*
X0059167Y0042860D01*
X0060100Y0042473D01*
X0060100Y0035371D01*
X0068500Y0026971D01*
X0069496Y0025975D01*
X0106004Y0025975D01*
X0123554Y0043525D01*
X0140522Y0043525D01*
X0140522Y0041601D01*
X0140847Y0041277D01*
X0140817Y0041259D01*
X0140482Y0040924D01*
X0140245Y0040514D01*
X0140122Y0040056D01*
X0140122Y0037739D01*
X0144395Y0037739D01*
X0144395Y0036780D01*
X0140122Y0036780D01*
X0140122Y0034464D01*
X0140245Y0034006D01*
X0140482Y0033596D01*
X0140817Y0033260D01*
X0141227Y0033023D01*
X0141685Y0032901D01*
X0144395Y0032901D01*
X0144395Y0036780D01*
X0145355Y0036780D01*
X0145355Y0037739D01*
X0149628Y0037739D01*
X0149628Y0040056D01*
X0149505Y0040514D01*
X0149268Y0040924D01*
X0148933Y0041259D01*
X0148903Y0041277D01*
X0149228Y0041601D01*
X0149228Y0047879D01*
X0148408Y0048699D01*
X0146575Y0048699D01*
X0146575Y0059408D01*
X0147486Y0059408D01*
X0148225Y0060147D01*
X0148964Y0059408D01*
X0149050Y0059408D01*
X0149050Y0050146D01*
X0150046Y0049150D01*
X0153544Y0045652D01*
X0153544Y0045247D01*
X0154043Y0044041D01*
X0154966Y0043118D01*
X0156172Y0042619D01*
X0157478Y0042619D01*
X0158684Y0043118D01*
X0159607Y0044041D01*
X0160106Y0045247D01*
X0160106Y0046553D01*
X0159607Y0047759D01*
X0158684Y0048682D01*
X0157478Y0049181D01*
X0156172Y0049181D01*
X0155218Y0048786D01*
X0152450Y0051554D01*
X0152450Y0059408D01*
X0152486Y0059408D01*
X0153225Y0060147D01*
X0153964Y0059408D01*
X0154000Y0059408D01*
X0154000Y0053746D01*
X0154996Y0052750D01*
X0168046Y0039700D01*
X0185654Y0039700D01*
X0186650Y0040696D01*
X0202939Y0056985D01*
X0202939Y0093169D01*
X0206149Y0093169D01*
X0206969Y0093989D01*
X0206969Y0097511D01*
X0206230Y0098250D01*
X0206969Y0098989D01*
X0206969Y0102511D01*
X0206230Y0103250D01*
X0206969Y0103989D01*
X0206969Y0107511D01*
X0206230Y0108250D01*
X0206969Y0108989D01*
X0206969Y0112511D01*
X0206149Y0113331D01*
X0197996Y0113331D01*
X0199418Y0115495D01*
X0199671Y0115637D01*
X0199790Y0116061D01*
X0200032Y0116430D01*
X0199974Y0116714D01*
X0200146Y0117325D01*
X0200569Y0117325D01*
X0200569Y0116122D01*
X0201068Y0114916D01*
X0201991Y0113993D01*
X0203197Y0113494D01*
X0204503Y0113494D01*
X0205709Y0113993D01*
X0206632Y0114916D01*
X0207131Y0116122D01*
X0207131Y0117428D01*
X0206632Y0118634D01*
X0205709Y0119557D01*
X0204503Y0120056D01*
X0204098Y0120056D01*
X0203429Y0120725D01*
X0201102Y0120725D01*
X0201785Y0123154D01*
X0201999Y0123403D01*
X0201968Y0123805D01*
X0202077Y0124193D01*
X0201916Y0124479D01*
X0201562Y0129089D01*
X0203309Y0130567D01*
X0204090Y0130526D01*
X0204218Y0130216D01*
X0205141Y0129293D01*
X0206347Y0128794D01*
X0207653Y0128794D01*
X0208859Y0129293D01*
X0209782Y0130216D01*
X0210281Y0131422D01*
X0210281Y0132728D01*
X0209782Y0133934D01*
X0208859Y0134857D01*
X0207653Y0135356D01*
X0206347Y0135356D01*
X0205141Y0134857D01*
X0204218Y0133934D01*
X0204214Y0133924D01*
X0202840Y0133996D01*
X0202164Y0134053D01*
X0202141Y0134033D01*
X0202111Y0134035D01*
X0201607Y0133581D01*
X0199376Y0131693D01*
X0199036Y0154331D01*
X0202625Y0157921D01*
X0202625Y0158371D01*
X0210700Y0166446D01*
X0210700Y0166355D01*
X0209684Y0163615D01*
X0209583Y0163553D01*
X0209445Y0162968D01*
X0209236Y0162406D01*
X0209286Y0162298D01*
X0208242Y0157899D01*
X0205517Y0157899D01*
X0204697Y0157079D01*
X0204697Y0150801D01*
X0205298Y0150200D01*
X0204697Y0149599D01*
X0204697Y0143321D01*
X0205517Y0142501D01*
X0207350Y0142501D01*
X0207350Y0140639D01*
X0206869Y0139478D01*
X0206869Y0138172D01*
X0207368Y0136966D01*
X0208291Y0136043D01*
X0209497Y0135544D01*
X0210803Y0135544D01*
X0212009Y0136043D01*
X0212932Y0136966D01*
X0213431Y0138172D01*
X0213431Y0139478D01*
X0212932Y0140684D01*
X0212009Y0141607D01*
X0210803Y0142106D01*
X0210750Y0142106D01*
X0210750Y0142501D01*
X0212583Y0142501D01*
X0213403Y0143321D01*
X0213403Y0149599D01*
X0212802Y0150200D01*
X0213403Y0150801D01*
X0213403Y0157079D01*
X0212583Y0157899D01*
X0211737Y0157899D01*
X0212705Y0161982D01*
X0213865Y0165111D01*
X0214100Y0165346D01*
X0214100Y0165745D01*
X0214239Y0166119D01*
X0214100Y0166422D01*
X0214100Y0173221D01*
X0220754Y0179875D01*
X0224579Y0179875D01*
X0224776Y0180072D01*
X0224644Y0179753D01*
X0224644Y0178447D01*
X0225017Y0177547D01*
X0224753Y0177656D01*
X0223447Y0177656D01*
X0222241Y0177157D01*
X0221318Y0176234D01*
X0220819Y0175028D01*
X0220819Y0173722D01*
X0220967Y0173365D01*
X0220928Y0173381D01*
X0219622Y0173381D01*
X0218416Y0172882D01*
X0217493Y0171959D01*
X0216994Y0170753D01*
X0216994Y0169447D01*
X0217493Y0168241D01*
X0218416Y0167318D01*
X0219622Y0166819D01*
X0220928Y0166819D01*
X0222134Y0167318D01*
X0222915Y0168100D01*
X0230925Y0168100D01*
X0230925Y0168020D01*
X0231745Y0167200D01*
X0240405Y0167200D01*
X0241105Y0167900D01*
X0244612Y0167900D01*
X0249862Y0173150D01*
X0251525Y0173150D01*
X0251525Y0173020D01*
X0252245Y0172300D01*
X0251525Y0171580D01*
X0251525Y0168020D01*
X0252008Y0167537D01*
X0250196Y0165725D01*
X0222046Y0165725D01*
X0221050Y0164729D01*
X0214975Y0158654D01*
X0214975Y0133396D01*
X0215971Y0132400D01*
X0216108Y0132263D01*
X0216534Y0131776D01*
X0216600Y0131771D01*
X0216646Y0131725D01*
X0217293Y0131725D01*
X0217798Y0131691D01*
X0217943Y0131341D01*
X0218866Y0130418D01*
X0220072Y0129919D01*
X0221378Y0129919D01*
X0222584Y0130418D01*
X0223507Y0131341D01*
X0224006Y0132547D01*
X0224006Y0133853D01*
X0223507Y0135059D01*
X0222584Y0135982D01*
X0221378Y0136481D01*
X0220072Y0136481D01*
X0218866Y0135982D01*
X0218375Y0135490D01*
X0218375Y0157246D01*
X0223454Y0162325D01*
X0251604Y0162325D01*
X0256479Y0167200D01*
X0261005Y0167200D01*
X0261825Y0168020D01*
X0261825Y0171580D01*
X0261105Y0172300D01*
X0261825Y0173020D01*
X0261825Y0173125D01*
X0280379Y0173125D01*
X0281375Y0174121D01*
X0290058Y0182804D01*
X0290058Y0187288D01*
X0290824Y0187605D01*
X0292048Y0188829D01*
X0292711Y0190429D01*
X0292711Y0192161D01*
X0292048Y0193761D01*
X0290824Y0194985D01*
X0289224Y0195648D01*
X0287492Y0195648D01*
X0285892Y0194985D01*
X0284668Y0193761D01*
X0284005Y0192161D01*
X0284005Y0190429D01*
X0284668Y0188829D01*
X0285892Y0187605D01*
X0286658Y0187288D01*
X0286658Y0184212D01*
X0278971Y0176525D01*
X0261825Y0176525D01*
X0261825Y0176580D01*
X0261350Y0177055D01*
X0261530Y0177160D01*
X0261865Y0177495D01*
X0262102Y0177905D01*
X0262225Y0178363D01*
X0262225Y0179800D01*
X0262225Y0181237D01*
X0262102Y0181695D01*
X0261865Y0182105D01*
X0261530Y0182440D01*
X0261350Y0182545D01*
X0261825Y0183020D01*
X0261825Y0186580D01*
X0261005Y0187400D01*
X0252345Y0187400D01*
X0251525Y0186580D01*
X0251525Y0183020D01*
X0252000Y0182545D01*
X0251820Y0182440D01*
X0251485Y0182105D01*
X0251248Y0181695D01*
X0251125Y0181237D01*
X0251125Y0179800D01*
X0256675Y0179800D01*
X0262225Y0179800D01*
X0256675Y0179800D01*
X0256675Y0179800D01*
X0256675Y0179800D01*
X0251125Y0179800D01*
X0251125Y0178363D01*
X0251248Y0177905D01*
X0251485Y0177495D01*
X0251820Y0177160D01*
X0252000Y0177055D01*
X0251895Y0176950D01*
X0248288Y0176950D01*
X0247175Y0175837D01*
X0243038Y0171700D01*
X0241105Y0171700D01*
X0240505Y0172300D01*
X0241225Y0173020D01*
X0241225Y0176580D01*
X0240505Y0177300D01*
X0241225Y0178020D01*
X0241225Y0181580D01*
X0240505Y0182300D01*
X0241225Y0183020D01*
X0241225Y0186580D01*
X0240405Y0187400D01*
X0237975Y0187400D01*
X0237975Y0194451D01*
X0239808Y0194451D01*
X0240628Y0195271D01*
X0240628Y0201549D01*
X0240303Y0201873D01*
X0240333Y0201891D01*
X0240668Y0202226D01*
X0240905Y0202636D01*
X0241028Y0203094D01*
X0241028Y0205411D01*
X0236755Y0205411D01*
X0236755Y0206370D01*
X0241028Y0206370D01*
X0241028Y0208686D01*
X0240905Y0209144D01*
X0240668Y0209554D01*
X0240333Y0209890D01*
X0239923Y0210127D01*
X0239465Y0210249D01*
X0236755Y0210249D01*
X0236755Y0206370D01*
X0235795Y0206370D01*
X0235795Y0205411D01*
X0231522Y0205411D01*
X0231522Y0203094D01*
X0231645Y0202636D01*
X0231882Y0202226D01*
X0232217Y0201891D01*
X0232247Y0201873D01*
X0231922Y0201549D01*
X0231922Y0195271D01*
X0232742Y0194451D01*
X0234575Y0194451D01*
X0234575Y0187400D01*
X0231745Y0187400D01*
X0230925Y0186580D01*
X0230925Y0186425D01*
X0226321Y0186425D01*
X0225325Y0185429D01*
X0223171Y0183275D01*
X0219346Y0183275D01*
X0218350Y0182279D01*
X0212010Y0175939D01*
X0212010Y0184647D01*
X0213449Y0184647D01*
X0213773Y0184972D01*
X0213791Y0184942D01*
X0214126Y0184607D01*
X0214536Y0184370D01*
X0214994Y0184247D01*
X0217311Y0184247D01*
X0217311Y0188520D01*
X0218270Y0188520D01*
X0218270Y0184247D01*
X0220586Y0184247D01*
X0221044Y0184370D01*
X0221454Y0184607D01*
X0221790Y0184942D01*
X0222027Y0185352D01*
X0222149Y0185810D01*
X0222149Y0188520D01*
X0218270Y0188520D01*
X0218270Y0189480D01*
X0217311Y0189480D01*
X0217311Y0193753D01*
X0214994Y0193753D01*
X0214536Y0193630D01*
X0214126Y0193393D01*
X0213791Y0193058D01*
X0213773Y0193028D01*
X0213554Y0193247D01*
X0213912Y0194888D01*
X0214709Y0195218D01*
X0215632Y0196141D01*
X0216131Y0197347D01*
X0216131Y0198653D01*
X0215632Y0199859D01*
X0214709Y0200782D01*
X0213503Y0201281D01*
X0212197Y0201281D01*
X0210991Y0200782D01*
X0210068Y0199859D01*
X0209569Y0198653D01*
X0209569Y0197347D01*
X0210068Y0196141D01*
X0210591Y0195619D01*
X0210097Y0193353D01*
X0207171Y0193353D01*
X0206351Y0192533D01*
X0206351Y0185467D01*
X0207171Y0184647D01*
X0208610Y0184647D01*
X0208610Y0169164D01*
X0200221Y0160775D01*
X0199225Y0159779D01*
X0199225Y0159329D01*
X0197011Y0157115D01*
X0197441Y0186377D01*
X0207658Y0199420D01*
X0207677Y0199444D01*
X0208778Y0199444D01*
X0209984Y0199943D01*
X0210907Y0200866D01*
X0211406Y0202072D01*
X0211406Y0203115D01*
X0213046Y0201475D01*
X0215296Y0201475D01*
X0219594Y0197177D01*
X0219743Y0196816D01*
X0220666Y0195893D01*
X0221872Y0195394D01*
X0223178Y0195394D01*
X0224384Y0195893D01*
X0225307Y0196816D01*
X0225806Y0198022D01*
X0225806Y0199328D01*
X0225307Y0200534D01*
X0224384Y0201457D01*
X0223178Y0201956D01*
X0221872Y0201956D01*
X0220666Y0201457D01*
X0220394Y0201185D01*
X0217700Y0203879D01*
X0216704Y0204875D01*
X0214454Y0204875D01*
X0210435Y0208894D01*
X0211028Y0208894D01*
X0211532Y0209103D01*
X0211868Y0208291D01*
X0212791Y0207368D01*
X0213997Y0206869D01*
X0215303Y0206869D01*
X0216509Y0207368D01*
X0217432Y0208291D01*
X0217931Y0209497D01*
X0217931Y0210803D01*
X0217762Y0211211D01*
X0220629Y0214625D01*
X0221075Y0215071D01*
X0221075Y0215156D01*
X0221130Y0215221D01*
X0221075Y0215849D01*
X0221075Y0223907D01*
X0221447Y0223535D01*
X0224711Y0223535D01*
X0227014Y0225838D01*
X0227014Y0224355D01*
X0227834Y0223535D01*
X0234072Y0223535D01*
X0234893Y0224355D01*
X0234893Y0230593D01*
X0234072Y0231414D01*
X0232590Y0231414D01*
X0234893Y0233716D01*
X0234893Y0236980D01*
X0232587Y0239285D01*
X0234893Y0241591D01*
X0234893Y0244854D01*
X0234096Y0245650D01*
X0234847Y0245650D01*
X0236200Y0244297D01*
X0236200Y0222697D01*
X0237196Y0221701D01*
X0242722Y0216175D01*
X0272872Y0216175D01*
X0285056Y0203992D01*
X0284668Y0203604D01*
X0284005Y0202004D01*
X0284005Y0200272D01*
X0284668Y0198672D01*
X0285892Y0197448D01*
X0287492Y0196785D01*
X0289224Y0196785D01*
X0290824Y0197448D01*
X0292048Y0198672D01*
X0292711Y0200272D01*
X0292711Y0202004D01*
X0292048Y0203604D01*
X0290824Y0204828D01*
X0290227Y0205075D01*
X0290824Y0205322D01*
X0292048Y0206546D01*
X0292711Y0208146D01*
X0292711Y0209878D01*
X0292048Y0211478D01*
X0290824Y0212702D01*
X0289224Y0213365D01*
X0287492Y0213365D01*
X0285892Y0212702D01*
X0284668Y0211478D01*
X0284494Y0211059D01*
X0276309Y0219244D01*
X0277178Y0219244D01*
X0278384Y0219743D01*
X0279307Y0220666D01*
X0279806Y0221872D01*
X0279806Y0223039D01*
X0280043Y0222466D01*
X0280966Y0221543D01*
X0282172Y0221044D01*
X0283478Y0221044D01*
X0284330Y0221397D01*
X0284293Y0221346D01*
X0283953Y0220679D01*
X0283722Y0219968D01*
X0283605Y0219229D01*
X0283605Y0219039D01*
X0288174Y0219039D01*
X0288174Y0223608D01*
X0287984Y0223608D01*
X0287245Y0223491D01*
X0286533Y0223259D01*
X0285867Y0222920D01*
X0285763Y0222844D01*
X0286106Y0223672D01*
X0286106Y0224978D01*
X0285607Y0226184D01*
X0284975Y0226815D01*
X0284975Y0265441D01*
X0285020Y0266084D01*
X0284975Y0266136D01*
X0284975Y0266204D01*
X0284519Y0266660D01*
X0281307Y0270354D01*
X0309724Y0270354D01*
X0309724Y0004900D01*
X0004900Y0004900D01*
X0004900Y0004997D02*
X0309724Y0004997D01*
X0309724Y0006596D02*
X0004900Y0006596D01*
X0004900Y0008194D02*
X0309724Y0008194D01*
X0309724Y0009793D02*
X0004900Y0009793D01*
X0004900Y0011391D02*
X0309724Y0011391D01*
X0309724Y0012990D02*
X0004900Y0012990D01*
X0004900Y0014588D02*
X0090783Y0014588D01*
X0090361Y0015010D02*
X0091321Y0014050D01*
X0262154Y0014050D01*
X0263150Y0015046D01*
X0288125Y0040021D01*
X0288125Y0057903D01*
X0288284Y0057968D01*
X0289207Y0058891D01*
X0289706Y0060097D01*
X0289706Y0061403D01*
X0289207Y0062609D01*
X0288284Y0063532D01*
X0287078Y0064031D01*
X0285772Y0064031D01*
X0284566Y0063532D01*
X0283643Y0062609D01*
X0283144Y0061403D01*
X0283144Y0060097D01*
X0283643Y0058891D01*
X0284566Y0057968D01*
X0284725Y0057903D01*
X0284725Y0041429D01*
X0260746Y0017450D01*
X0092780Y0017450D01*
X0092831Y0017572D01*
X0092831Y0018878D01*
X0092332Y0020084D01*
X0091409Y0021007D01*
X0091364Y0021025D01*
X0247529Y0021025D01*
X0248525Y0022021D01*
X0263500Y0036996D01*
X0263500Y0042473D01*
X0264433Y0042860D01*
X0265740Y0044167D01*
X0266448Y0045875D01*
X0266448Y0047725D01*
X0266324Y0048025D01*
X0268454Y0048025D01*
X0269450Y0049021D01*
X0276875Y0056446D01*
X0276875Y0095879D01*
X0275879Y0096875D01*
X0268679Y0104075D01*
X0265648Y0104075D01*
X0265740Y0104167D01*
X0266344Y0105625D01*
X0279479Y0105625D01*
X0280475Y0106621D01*
X0285400Y0111546D01*
X0285400Y0108029D01*
X0284986Y0107615D01*
X0284828Y0107681D01*
X0283522Y0107681D01*
X0282316Y0107182D01*
X0281393Y0106259D01*
X0280894Y0105053D01*
X0280894Y0103747D01*
X0281393Y0102541D01*
X0282316Y0101618D01*
X0283522Y0101119D01*
X0284828Y0101119D01*
X0286034Y0101618D01*
X0286957Y0102541D01*
X0287456Y0103747D01*
X0287456Y0105053D01*
X0287390Y0105211D01*
X0288800Y0106621D01*
X0288800Y0125285D01*
X0289291Y0124793D01*
X0290497Y0124294D01*
X0291803Y0124294D01*
X0293009Y0124793D01*
X0293576Y0125361D01*
X0294697Y0125279D01*
X0294697Y0123526D01*
X0295022Y0123202D01*
X0294992Y0123184D01*
X0294657Y0122849D01*
X0294420Y0122439D01*
X0294297Y0121981D01*
X0294297Y0119664D01*
X0298570Y0119664D01*
X0298570Y0118705D01*
X0294297Y0118705D01*
X0294297Y0116389D01*
X0294420Y0115931D01*
X0294657Y0115521D01*
X0294992Y0115185D01*
X0295402Y0114948D01*
X0295860Y0114826D01*
X0298570Y0114826D01*
X0298570Y0118705D01*
X0299530Y0118705D01*
X0299530Y0119664D01*
X0303803Y0119664D01*
X0303803Y0121981D01*
X0303680Y0122439D01*
X0303443Y0122849D01*
X0303108Y0123184D01*
X0303078Y0123202D01*
X0303403Y0123526D01*
X0303403Y0129804D01*
X0302583Y0130624D01*
X0295517Y0130624D01*
X0294697Y0129804D01*
X0294697Y0128688D01*
X0294226Y0128722D01*
X0293932Y0129434D01*
X0293009Y0130357D01*
X0291803Y0130856D01*
X0290497Y0130856D01*
X0289291Y0130357D01*
X0288800Y0129865D01*
X0288800Y0142229D01*
X0287804Y0143225D01*
X0272729Y0158300D01*
X0255429Y0158300D01*
X0256175Y0159046D01*
X0258329Y0161200D01*
X0270753Y0161200D01*
X0270818Y0161041D01*
X0271741Y0160118D01*
X0272947Y0159619D01*
X0274253Y0159619D01*
X0275459Y0160118D01*
X0276382Y0161041D01*
X0276881Y0162247D01*
X0276881Y0163553D01*
X0276382Y0164759D01*
X0275459Y0165682D01*
X0274253Y0166181D01*
X0272947Y0166181D01*
X0271741Y0165682D01*
X0270818Y0164759D01*
X0270753Y0164600D01*
X0256921Y0164600D01*
X0253771Y0161450D01*
X0226321Y0161450D01*
X0221596Y0156725D01*
X0220600Y0155729D01*
X0220600Y0139471D01*
X0224650Y0135421D01*
X0224650Y0119381D01*
X0223447Y0119381D01*
X0222241Y0118882D01*
X0221318Y0117959D01*
X0220819Y0116753D01*
X0220819Y0115447D01*
X0220885Y0115289D01*
X0220011Y0114415D01*
X0220011Y0113331D01*
X0216801Y0113331D01*
X0215981Y0112511D01*
X0215981Y0108989D01*
X0216720Y0108250D01*
X0215981Y0107511D01*
X0215981Y0103989D01*
X0216720Y0103250D01*
X0215981Y0102511D01*
X0215981Y0098989D01*
X0216720Y0098250D01*
X0215981Y0097511D01*
X0215981Y0093989D01*
X0216801Y0093169D01*
X0226622Y0093169D01*
X0227442Y0093989D01*
X0227442Y0097511D01*
X0226703Y0098250D01*
X0227103Y0098650D01*
X0232454Y0098650D01*
X0233450Y0099646D01*
X0235925Y0102121D01*
X0235925Y0105779D01*
X0234929Y0106775D01*
X0233675Y0108029D01*
X0233675Y0113429D01*
X0232679Y0114425D01*
X0229785Y0117319D01*
X0230153Y0117319D01*
X0230796Y0117585D01*
X0232826Y0116135D01*
X0234429Y0112039D01*
X0234411Y0111992D01*
X0234683Y0111390D01*
X0234923Y0110775D01*
X0234970Y0110755D01*
X0237700Y0104709D01*
X0237700Y0104371D01*
X0237978Y0104092D01*
X0238140Y0103734D01*
X0238457Y0103614D01*
X0243325Y0098746D01*
X0244321Y0097750D01*
X0247163Y0097750D01*
X0247152Y0097725D01*
X0247152Y0095875D01*
X0247297Y0095525D01*
X0245279Y0095525D01*
X0243575Y0097229D01*
X0242579Y0098225D01*
X0234196Y0098225D01*
X0228121Y0092150D01*
X0221711Y0092150D01*
X0221153Y0092381D01*
X0219847Y0092381D01*
X0218641Y0091882D01*
X0217718Y0090959D01*
X0217219Y0089753D01*
X0217219Y0088447D01*
X0217718Y0087241D01*
X0218641Y0086318D01*
X0219709Y0085876D01*
X0219541Y0085807D01*
X0218618Y0084884D01*
X0218119Y0083678D01*
X0218119Y0082372D01*
X0218618Y0081166D01*
X0219541Y0080243D01*
X0220747Y0079744D01*
X0222053Y0079744D01*
X0223259Y0080243D01*
X0224182Y0081166D01*
X0224681Y0082372D01*
X0224681Y0083678D01*
X0224630Y0083800D01*
X0244522Y0083800D01*
X0243391Y0083332D01*
X0242468Y0082409D01*
X0241969Y0081203D01*
X0241969Y0079897D01*
X0242468Y0078691D01*
X0243391Y0077768D01*
X0244597Y0077269D01*
X0245903Y0077269D01*
X0247109Y0077768D01*
X0247214Y0077874D01*
X0247152Y0077725D01*
X0247152Y0075875D01*
X0247860Y0074167D01*
X0249167Y0072860D01*
X0250875Y0072152D01*
X0252725Y0072152D01*
X0254433Y0072860D01*
X0255740Y0074167D01*
X0256448Y0075875D01*
X0256448Y0077725D01*
X0255795Y0079300D01*
X0255796Y0079300D01*
X0257216Y0077880D01*
X0257152Y0077725D01*
X0257152Y0075875D01*
X0257860Y0074167D01*
X0259167Y0072860D01*
X0260875Y0072152D01*
X0262725Y0072152D01*
X0264433Y0072860D01*
X0265740Y0074167D01*
X0266448Y0075875D01*
X0266448Y0077725D01*
X0265740Y0079433D01*
X0264433Y0080740D01*
X0262725Y0081448D01*
X0260875Y0081448D01*
X0259167Y0080740D01*
X0259165Y0080739D01*
X0258200Y0081704D01*
X0257204Y0082700D01*
X0254048Y0082700D01*
X0254433Y0082860D01*
X0255740Y0084167D01*
X0256448Y0085875D01*
X0256448Y0087725D01*
X0255740Y0089433D01*
X0254848Y0090325D01*
X0255346Y0090325D01*
X0257385Y0088286D01*
X0257152Y0087725D01*
X0257152Y0085875D01*
X0257860Y0084167D01*
X0259167Y0082860D01*
X0260875Y0082152D01*
X0262725Y0082152D01*
X0264433Y0082860D01*
X0265740Y0084167D01*
X0266448Y0085875D01*
X0266448Y0087725D01*
X0265740Y0089433D01*
X0264433Y0090740D01*
X0262725Y0091448D01*
X0260875Y0091448D01*
X0259571Y0090908D01*
X0257750Y0092729D01*
X0256754Y0093725D01*
X0255298Y0093725D01*
X0255740Y0094167D01*
X0256448Y0095875D01*
X0256448Y0097725D01*
X0255740Y0099433D01*
X0254433Y0100740D01*
X0252725Y0101448D01*
X0250875Y0101448D01*
X0249943Y0101062D01*
X0249854Y0101150D01*
X0245729Y0101150D01*
X0240822Y0106058D01*
X0237817Y0112710D01*
X0235873Y0117679D01*
X0235786Y0118199D01*
X0235624Y0118315D01*
X0235552Y0118500D01*
X0235069Y0118711D01*
X0232781Y0120345D01*
X0232781Y0121253D01*
X0232525Y0121870D01*
X0233609Y0122318D01*
X0233886Y0122596D01*
X0234814Y0122287D01*
X0240650Y0115444D01*
X0240655Y0115328D01*
X0241098Y0114919D01*
X0241489Y0114461D01*
X0241605Y0114452D01*
X0243397Y0112799D01*
X0247538Y0108657D01*
X0247152Y0107725D01*
X0247152Y0105875D01*
X0247860Y0104167D01*
X0249167Y0102860D01*
X0250875Y0102152D01*
X0252725Y0102152D01*
X0254433Y0102860D01*
X0255740Y0104167D01*
X0255911Y0104578D01*
X0255924Y0103788D01*
X0255868Y0103178D01*
X0255935Y0103097D01*
X0255937Y0102993D01*
X0256377Y0102567D01*
X0257050Y0101760D01*
X0257050Y0101671D01*
X0257493Y0101227D01*
X0257895Y0100746D01*
X0257983Y0100738D01*
X0258046Y0100675D01*
X0258673Y0100675D01*
X0259066Y0100639D01*
X0257860Y0099433D01*
X0257152Y0097725D01*
X0257152Y0095875D01*
X0257860Y0094167D01*
X0259167Y0092860D01*
X0260875Y0092152D01*
X0262725Y0092152D01*
X0264433Y0092860D01*
X0265740Y0094167D01*
X0266448Y0095875D01*
X0266448Y0097725D01*
X0265740Y0099433D01*
X0264498Y0100675D01*
X0267271Y0100675D01*
X0273475Y0094471D01*
X0273475Y0068215D01*
X0272984Y0068707D01*
X0271778Y0069206D01*
X0270472Y0069206D01*
X0269266Y0068707D01*
X0269060Y0068500D01*
X0266127Y0068500D01*
X0265740Y0069433D01*
X0264433Y0070740D01*
X0262725Y0071448D01*
X0260875Y0071448D01*
X0259167Y0070740D01*
X0257860Y0069433D01*
X0257152Y0067725D01*
X0257152Y0065875D01*
X0257860Y0064167D01*
X0259167Y0062860D01*
X0260875Y0062152D01*
X0262725Y0062152D01*
X0264433Y0062860D01*
X0265740Y0064167D01*
X0266127Y0065100D01*
X0267915Y0065100D01*
X0268343Y0064066D01*
X0269266Y0063143D01*
X0270472Y0062644D01*
X0271778Y0062644D01*
X0272984Y0063143D01*
X0273475Y0063635D01*
X0273475Y0057854D01*
X0267046Y0051425D01*
X0264021Y0051425D01*
X0263657Y0051062D01*
X0262725Y0051448D01*
X0260875Y0051448D01*
X0259167Y0050740D01*
X0257860Y0049433D01*
X0257152Y0047725D01*
X0257152Y0045875D01*
X0257860Y0044167D01*
X0259167Y0042860D01*
X0260100Y0042473D01*
X0260100Y0038404D01*
X0246121Y0024425D01*
X0049304Y0024425D01*
X0028700Y0045029D01*
X0028700Y0055996D01*
X0030179Y0057475D01*
X0042104Y0057475D01*
X0044189Y0059560D01*
X0044347Y0059494D01*
X0045653Y0059494D01*
X0046859Y0059993D01*
X0047782Y0060916D01*
X0048281Y0062122D01*
X0048281Y0063428D01*
X0047782Y0064634D01*
X0046859Y0065557D01*
X0045653Y0066056D01*
X0044347Y0066056D01*
X0043141Y0065557D01*
X0042218Y0064634D01*
X0041719Y0063428D01*
X0041719Y0062122D01*
X0041785Y0061964D01*
X0040696Y0060875D01*
X0028771Y0060875D01*
X0027775Y0059879D01*
X0025300Y0057404D01*
X0025300Y0043621D01*
X0026296Y0042625D01*
X0047896Y0021025D01*
X0087736Y0021025D01*
X0087691Y0021007D01*
X0086768Y0020084D01*
X0086269Y0018878D01*
X0086269Y0017572D01*
X0086768Y0016366D01*
X0087691Y0015443D01*
X0088897Y0014944D01*
X0090203Y0014944D01*
X0090361Y0015010D01*
X0086948Y0016187D02*
X0004900Y0016187D01*
X0004900Y0017785D02*
X0086269Y0017785D01*
X0086478Y0019384D02*
X0004900Y0019384D01*
X0004900Y0020982D02*
X0087667Y0020982D01*
X0091433Y0020982D02*
X0264278Y0020982D01*
X0262679Y0019384D02*
X0092622Y0019384D01*
X0092831Y0017785D02*
X0261081Y0017785D01*
X0263150Y0015046D02*
X0263150Y0015046D01*
X0262692Y0014588D02*
X0309724Y0014588D01*
X0309724Y0016187D02*
X0264291Y0016187D01*
X0265889Y0017785D02*
X0309724Y0017785D01*
X0309724Y0019384D02*
X0267488Y0019384D01*
X0269086Y0020982D02*
X0309724Y0020982D01*
X0309724Y0022581D02*
X0270685Y0022581D01*
X0272283Y0024179D02*
X0309724Y0024179D01*
X0309724Y0025778D02*
X0273882Y0025778D01*
X0275480Y0027376D02*
X0309724Y0027376D01*
X0309724Y0028975D02*
X0277079Y0028975D01*
X0278677Y0030573D02*
X0309724Y0030573D01*
X0309724Y0032172D02*
X0280276Y0032172D01*
X0281874Y0033770D02*
X0309724Y0033770D01*
X0309724Y0035369D02*
X0283473Y0035369D01*
X0285071Y0036967D02*
X0309724Y0036967D01*
X0309724Y0038566D02*
X0286670Y0038566D01*
X0288125Y0040164D02*
X0309724Y0040164D01*
X0309724Y0041763D02*
X0288125Y0041763D01*
X0288125Y0043361D02*
X0309724Y0043361D01*
X0309724Y0044960D02*
X0288125Y0044960D01*
X0288125Y0046558D02*
X0309724Y0046558D01*
X0309724Y0048157D02*
X0288125Y0048157D01*
X0288125Y0049755D02*
X0309724Y0049755D01*
X0309724Y0051354D02*
X0288125Y0051354D01*
X0288125Y0052952D02*
X0309724Y0052952D01*
X0309724Y0054551D02*
X0288125Y0054551D01*
X0288125Y0056149D02*
X0309724Y0056149D01*
X0309724Y0057748D02*
X0288125Y0057748D01*
X0289395Y0059346D02*
X0309724Y0059346D01*
X0309724Y0060945D02*
X0289706Y0060945D01*
X0289234Y0062543D02*
X0309724Y0062543D01*
X0309724Y0064142D02*
X0276875Y0064142D01*
X0276875Y0065740D02*
X0309724Y0065740D01*
X0309724Y0067339D02*
X0276875Y0067339D01*
X0276875Y0068937D02*
X0309724Y0068937D01*
X0309724Y0070536D02*
X0276875Y0070536D01*
X0276875Y0072134D02*
X0309724Y0072134D01*
X0309724Y0073733D02*
X0276875Y0073733D01*
X0276875Y0075332D02*
X0309724Y0075332D01*
X0309724Y0076930D02*
X0276875Y0076930D01*
X0276875Y0078529D02*
X0309724Y0078529D01*
X0309724Y0080127D02*
X0276875Y0080127D01*
X0276875Y0081726D02*
X0309724Y0081726D01*
X0309724Y0083324D02*
X0276875Y0083324D01*
X0276875Y0084923D02*
X0309724Y0084923D01*
X0309724Y0086521D02*
X0276875Y0086521D01*
X0276875Y0088120D02*
X0309724Y0088120D01*
X0309724Y0089718D02*
X0276875Y0089718D01*
X0276875Y0091317D02*
X0309724Y0091317D01*
X0309724Y0092915D02*
X0276875Y0092915D01*
X0276875Y0094514D02*
X0309724Y0094514D01*
X0309724Y0096112D02*
X0276642Y0096112D01*
X0275043Y0097711D02*
X0309724Y0097711D01*
X0309724Y0099309D02*
X0273445Y0099309D01*
X0271846Y0100908D02*
X0309724Y0100908D01*
X0309724Y0102506D02*
X0286921Y0102506D01*
X0287456Y0104105D02*
X0309724Y0104105D01*
X0309724Y0105703D02*
X0287882Y0105703D01*
X0288800Y0107302D02*
X0309724Y0107302D01*
X0309724Y0108900D02*
X0288800Y0108900D01*
X0288800Y0110499D02*
X0309724Y0110499D01*
X0309724Y0112097D02*
X0288800Y0112097D01*
X0288800Y0113696D02*
X0309724Y0113696D01*
X0309724Y0115294D02*
X0303217Y0115294D01*
X0303108Y0115185D02*
X0303443Y0115521D01*
X0303680Y0115931D01*
X0303803Y0116389D01*
X0303803Y0118705D01*
X0299530Y0118705D01*
X0299530Y0114826D01*
X0302240Y0114826D01*
X0302698Y0114948D01*
X0303108Y0115185D01*
X0303803Y0116893D02*
X0309724Y0116893D01*
X0309724Y0118491D02*
X0303803Y0118491D01*
X0303803Y0120090D02*
X0309724Y0120090D01*
X0309724Y0121688D02*
X0303803Y0121688D01*
X0303163Y0123287D02*
X0309724Y0123287D01*
X0309724Y0124885D02*
X0303403Y0124885D01*
X0303403Y0126484D02*
X0309724Y0126484D01*
X0309724Y0128082D02*
X0303403Y0128082D01*
X0303403Y0129681D02*
X0309724Y0129681D01*
X0309724Y0131279D02*
X0288800Y0131279D01*
X0288800Y0132878D02*
X0309724Y0132878D01*
X0309724Y0134476D02*
X0288800Y0134476D01*
X0288800Y0136075D02*
X0309724Y0136075D01*
X0309724Y0137673D02*
X0288800Y0137673D01*
X0288800Y0139272D02*
X0309724Y0139272D01*
X0309724Y0140870D02*
X0288800Y0140870D01*
X0288560Y0142469D02*
X0309724Y0142469D01*
X0309724Y0144068D02*
X0286962Y0144068D01*
X0285363Y0145666D02*
X0309724Y0145666D01*
X0309724Y0147265D02*
X0283765Y0147265D01*
X0282166Y0148863D02*
X0309724Y0148863D01*
X0309724Y0150462D02*
X0280568Y0150462D01*
X0278969Y0152060D02*
X0309724Y0152060D01*
X0309724Y0153659D02*
X0277371Y0153659D01*
X0275772Y0155257D02*
X0309724Y0155257D01*
X0309724Y0156856D02*
X0274174Y0156856D01*
X0275300Y0160053D02*
X0309724Y0160053D01*
X0309724Y0161651D02*
X0276634Y0161651D01*
X0276881Y0163250D02*
X0309724Y0163250D01*
X0309724Y0164848D02*
X0276292Y0164848D01*
X0270908Y0164848D02*
X0254127Y0164848D01*
X0255570Y0163250D02*
X0252529Y0163250D01*
X0253972Y0161651D02*
X0222780Y0161651D01*
X0221182Y0160053D02*
X0224923Y0160053D01*
X0223325Y0158454D02*
X0219583Y0158454D01*
X0218375Y0156856D02*
X0221726Y0156856D01*
X0220600Y0155257D02*
X0218375Y0155257D01*
X0218375Y0153659D02*
X0220600Y0153659D01*
X0220600Y0152060D02*
X0218375Y0152060D01*
X0218375Y0150462D02*
X0220600Y0150462D01*
X0220600Y0148863D02*
X0218375Y0148863D01*
X0218375Y0147265D02*
X0220600Y0147265D01*
X0220600Y0145666D02*
X0218375Y0145666D01*
X0218375Y0144068D02*
X0220600Y0144068D01*
X0220600Y0142469D02*
X0218375Y0142469D01*
X0218375Y0140870D02*
X0220600Y0140870D01*
X0220799Y0139272D02*
X0218375Y0139272D01*
X0218375Y0137673D02*
X0222397Y0137673D01*
X0222358Y0136075D02*
X0223996Y0136075D01*
X0223748Y0134476D02*
X0224650Y0134476D01*
X0224650Y0132878D02*
X0224006Y0132878D01*
X0223445Y0131279D02*
X0224650Y0131279D01*
X0224650Y0129681D02*
X0209246Y0129681D01*
X0210222Y0131279D02*
X0218005Y0131279D01*
X0215493Y0132878D02*
X0210219Y0132878D01*
X0209239Y0134476D02*
X0214975Y0134476D01*
X0214975Y0136075D02*
X0212040Y0136075D01*
X0213224Y0137673D02*
X0214975Y0137673D01*
X0214975Y0139272D02*
X0213431Y0139272D01*
X0212745Y0140870D02*
X0214975Y0140870D01*
X0214975Y0142469D02*
X0210750Y0142469D01*
X0213403Y0144068D02*
X0214975Y0144068D01*
X0214975Y0145666D02*
X0213403Y0145666D01*
X0213403Y0147265D02*
X0214975Y0147265D01*
X0214975Y0148863D02*
X0213403Y0148863D01*
X0213063Y0150462D02*
X0214975Y0150462D01*
X0214975Y0152060D02*
X0213403Y0152060D01*
X0213403Y0153659D02*
X0214975Y0153659D01*
X0214975Y0155257D02*
X0213403Y0155257D01*
X0213403Y0156856D02*
X0214975Y0156856D01*
X0214975Y0158454D02*
X0211868Y0158454D01*
X0212247Y0160053D02*
X0216373Y0160053D01*
X0217972Y0161651D02*
X0212627Y0161651D01*
X0213175Y0163250D02*
X0219570Y0163250D01*
X0221169Y0164848D02*
X0213768Y0164848D01*
X0214100Y0166447D02*
X0250918Y0166447D01*
X0251525Y0168045D02*
X0244757Y0168045D01*
X0246356Y0169644D02*
X0251525Y0169644D01*
X0251525Y0171242D02*
X0247954Y0171242D01*
X0249553Y0172841D02*
X0251704Y0172841D01*
X0251403Y0177636D02*
X0240841Y0177636D01*
X0241225Y0176038D02*
X0247376Y0176038D01*
X0245777Y0174439D02*
X0241225Y0174439D01*
X0241046Y0172841D02*
X0244179Y0172841D01*
X0241225Y0179235D02*
X0251125Y0179235D01*
X0251125Y0180833D02*
X0241225Y0180833D01*
X0240637Y0182432D02*
X0251811Y0182432D01*
X0251525Y0184030D02*
X0241225Y0184030D01*
X0241225Y0185629D02*
X0251525Y0185629D01*
X0252172Y0187227D02*
X0240578Y0187227D01*
X0237975Y0188826D02*
X0284671Y0188826D01*
X0284007Y0190424D02*
X0237975Y0190424D01*
X0237975Y0192023D02*
X0256380Y0192023D01*
X0256517Y0191885D02*
X0256927Y0191648D01*
X0257385Y0191526D01*
X0260095Y0191526D01*
X0260095Y0195405D01*
X0255822Y0195405D01*
X0255822Y0193089D01*
X0255945Y0192631D01*
X0256182Y0192221D01*
X0256517Y0191885D01*
X0255822Y0193621D02*
X0237975Y0193621D01*
X0240577Y0195220D02*
X0255822Y0195220D01*
X0255822Y0196364D02*
X0260095Y0196364D01*
X0260095Y0195405D01*
X0261055Y0195405D01*
X0261055Y0196364D01*
X0265328Y0196364D01*
X0265328Y0198681D01*
X0265205Y0199139D01*
X0264968Y0199549D01*
X0264633Y0199884D01*
X0264603Y0199902D01*
X0264928Y0200226D01*
X0264928Y0201665D01*
X0269106Y0201665D01*
X0270610Y0200161D01*
X0270544Y0200003D01*
X0270544Y0198697D01*
X0271043Y0197491D01*
X0271966Y0196568D01*
X0273172Y0196069D01*
X0274478Y0196069D01*
X0275684Y0196568D01*
X0276607Y0197491D01*
X0277106Y0198697D01*
X0277106Y0200003D01*
X0276607Y0201209D01*
X0275684Y0202132D01*
X0274478Y0202631D01*
X0273172Y0202631D01*
X0273014Y0202565D01*
X0270514Y0205065D01*
X0264928Y0205065D01*
X0264928Y0206504D01*
X0264108Y0207324D01*
X0262826Y0207324D01*
X0262998Y0208590D01*
X0263309Y0208718D01*
X0264232Y0209641D01*
X0264731Y0210847D01*
X0264731Y0212153D01*
X0264232Y0213359D01*
X0263309Y0214282D01*
X0262103Y0214781D01*
X0260797Y0214781D01*
X0259591Y0214282D01*
X0258668Y0213359D01*
X0258169Y0212153D01*
X0258169Y0210847D01*
X0258668Y0209641D01*
X0259585Y0208725D01*
X0259395Y0207324D01*
X0257042Y0207324D01*
X0256222Y0206504D01*
X0256222Y0200226D01*
X0256547Y0199902D01*
X0256517Y0199884D01*
X0256182Y0199549D01*
X0255945Y0199139D01*
X0255822Y0198681D01*
X0255822Y0196364D01*
X0255822Y0196818D02*
X0240628Y0196818D01*
X0240628Y0198417D02*
X0255822Y0198417D01*
X0256433Y0200015D02*
X0240628Y0200015D01*
X0240563Y0201614D02*
X0256222Y0201614D01*
X0256222Y0203212D02*
X0241028Y0203212D01*
X0241028Y0204811D02*
X0256222Y0204811D01*
X0256222Y0206409D02*
X0241028Y0206409D01*
X0241028Y0208008D02*
X0259488Y0208008D01*
X0258703Y0209606D02*
X0240616Y0209606D01*
X0236755Y0209606D02*
X0235795Y0209606D01*
X0235795Y0210249D02*
X0233085Y0210249D01*
X0232627Y0210127D01*
X0232217Y0209890D01*
X0231882Y0209554D01*
X0231645Y0209144D01*
X0231522Y0208686D01*
X0231522Y0206370D01*
X0235795Y0206370D01*
X0235795Y0210249D01*
X0235795Y0208008D02*
X0236755Y0208008D01*
X0236755Y0206409D02*
X0235795Y0206409D01*
X0231522Y0206409D02*
X0212920Y0206409D01*
X0212152Y0208008D02*
X0211321Y0208008D01*
X0216768Y0204811D02*
X0231522Y0204811D01*
X0231522Y0203212D02*
X0218367Y0203212D01*
X0219965Y0201614D02*
X0221046Y0201614D01*
X0224004Y0201614D02*
X0231987Y0201614D01*
X0231922Y0200015D02*
X0225521Y0200015D01*
X0225806Y0198417D02*
X0231922Y0198417D01*
X0231922Y0196818D02*
X0225307Y0196818D01*
X0221790Y0193058D02*
X0221454Y0193393D01*
X0221044Y0193630D01*
X0220586Y0193753D01*
X0218270Y0193753D01*
X0218270Y0189480D01*
X0222149Y0189480D01*
X0222149Y0192190D01*
X0222027Y0192648D01*
X0221790Y0193058D01*
X0221059Y0193621D02*
X0234575Y0193621D01*
X0234575Y0192023D02*
X0222149Y0192023D01*
X0222149Y0190424D02*
X0234575Y0190424D01*
X0234575Y0188826D02*
X0218270Y0188826D01*
X0218270Y0190424D02*
X0217311Y0190424D01*
X0217311Y0192023D02*
X0218270Y0192023D01*
X0218270Y0193621D02*
X0217311Y0193621D01*
X0214521Y0193621D02*
X0213636Y0193621D01*
X0214710Y0195220D02*
X0231973Y0195220D01*
X0231572Y0187227D02*
X0222149Y0187227D01*
X0222101Y0185629D02*
X0225525Y0185629D01*
X0223926Y0184030D02*
X0212010Y0184030D01*
X0212010Y0182432D02*
X0218503Y0182432D01*
X0216904Y0180833D02*
X0212010Y0180833D01*
X0212010Y0179235D02*
X0215306Y0179235D01*
X0213707Y0177636D02*
X0212010Y0177636D01*
X0212010Y0176038D02*
X0212109Y0176038D01*
X0208610Y0176038D02*
X0197289Y0176038D01*
X0197313Y0177636D02*
X0208610Y0177636D01*
X0208610Y0179235D02*
X0197336Y0179235D01*
X0197360Y0180833D02*
X0208610Y0180833D01*
X0208610Y0182432D02*
X0197383Y0182432D01*
X0197407Y0184030D02*
X0208610Y0184030D01*
X0206351Y0185629D02*
X0197430Y0185629D01*
X0198107Y0187227D02*
X0206351Y0187227D01*
X0206351Y0188826D02*
X0199359Y0188826D01*
X0200611Y0190424D02*
X0206351Y0190424D01*
X0206351Y0192023D02*
X0201864Y0192023D01*
X0203116Y0193621D02*
X0210156Y0193621D01*
X0210504Y0195220D02*
X0204368Y0195220D01*
X0205620Y0196818D02*
X0209788Y0196818D01*
X0209569Y0198417D02*
X0206872Y0198417D01*
X0210056Y0200015D02*
X0210225Y0200015D01*
X0211216Y0201614D02*
X0212907Y0201614D01*
X0215475Y0200015D02*
X0216755Y0200015D01*
X0216131Y0198417D02*
X0218354Y0198417D01*
X0219743Y0196818D02*
X0215912Y0196818D01*
X0217311Y0187227D02*
X0218270Y0187227D01*
X0218270Y0185629D02*
X0217311Y0185629D01*
X0220114Y0179235D02*
X0224644Y0179235D01*
X0224801Y0177636D02*
X0224980Y0177636D01*
X0223399Y0177636D02*
X0218515Y0177636D01*
X0216917Y0176038D02*
X0221237Y0176038D01*
X0220819Y0174439D02*
X0215318Y0174439D01*
X0214100Y0172841D02*
X0218376Y0172841D01*
X0217197Y0171242D02*
X0214100Y0171242D01*
X0214100Y0169644D02*
X0216994Y0169644D01*
X0217690Y0168045D02*
X0214100Y0168045D01*
X0210142Y0164848D02*
X0209102Y0164848D01*
X0209512Y0163250D02*
X0207504Y0163250D01*
X0205905Y0161651D02*
X0209132Y0161651D01*
X0208753Y0160053D02*
X0204307Y0160053D01*
X0202708Y0158454D02*
X0208374Y0158454D01*
X0204697Y0156856D02*
X0201560Y0156856D01*
X0199961Y0155257D02*
X0204697Y0155257D01*
X0204697Y0153659D02*
X0199046Y0153659D01*
X0199070Y0152060D02*
X0204697Y0152060D01*
X0205037Y0150462D02*
X0199094Y0150462D01*
X0199118Y0148863D02*
X0204697Y0148863D01*
X0204697Y0147265D02*
X0199142Y0147265D01*
X0199166Y0145666D02*
X0204697Y0145666D01*
X0204697Y0144068D02*
X0199190Y0144068D01*
X0199214Y0142469D02*
X0207350Y0142469D01*
X0207350Y0140870D02*
X0199238Y0140870D01*
X0199262Y0139272D02*
X0206869Y0139272D01*
X0207076Y0137673D02*
X0199286Y0137673D01*
X0199310Y0136075D02*
X0208260Y0136075D01*
X0204761Y0134476D02*
X0199334Y0134476D01*
X0199358Y0132878D02*
X0200776Y0132878D01*
X0202261Y0129681D02*
X0204754Y0129681D01*
X0201639Y0128082D02*
X0224650Y0128082D01*
X0224650Y0126484D02*
X0201762Y0126484D01*
X0201885Y0124885D02*
X0224650Y0124885D01*
X0224650Y0123287D02*
X0201899Y0123287D01*
X0201373Y0121688D02*
X0224650Y0121688D01*
X0224650Y0120090D02*
X0204064Y0120090D01*
X0206691Y0118491D02*
X0221851Y0118491D01*
X0220877Y0116893D02*
X0207131Y0116893D01*
X0206788Y0115294D02*
X0220882Y0115294D01*
X0220011Y0113696D02*
X0204990Y0113696D01*
X0202710Y0113696D02*
X0198236Y0113696D01*
X0199286Y0115294D02*
X0200912Y0115294D01*
X0200569Y0116893D02*
X0200024Y0116893D01*
X0206969Y0112097D02*
X0215981Y0112097D01*
X0215981Y0110499D02*
X0206969Y0110499D01*
X0206881Y0108900D02*
X0216069Y0108900D01*
X0215981Y0107302D02*
X0206969Y0107302D01*
X0206969Y0105703D02*
X0215981Y0105703D01*
X0215981Y0104105D02*
X0206969Y0104105D01*
X0206969Y0102506D02*
X0215981Y0102506D01*
X0215981Y0100908D02*
X0206969Y0100908D01*
X0206969Y0099309D02*
X0215981Y0099309D01*
X0216180Y0097711D02*
X0206770Y0097711D01*
X0206969Y0096112D02*
X0215981Y0096112D01*
X0215981Y0094514D02*
X0206969Y0094514D01*
X0202939Y0092915D02*
X0228886Y0092915D01*
X0227442Y0094514D02*
X0230484Y0094514D01*
X0232083Y0096112D02*
X0227442Y0096112D01*
X0227242Y0097711D02*
X0233682Y0097711D01*
X0233113Y0099309D02*
X0242762Y0099309D01*
X0243093Y0097711D02*
X0247152Y0097711D01*
X0247152Y0096112D02*
X0244692Y0096112D01*
X0241163Y0100908D02*
X0234712Y0100908D01*
X0235925Y0102506D02*
X0239565Y0102506D01*
X0237966Y0104105D02*
X0235925Y0104105D01*
X0235925Y0105703D02*
X0237251Y0105703D01*
X0236529Y0107302D02*
X0234402Y0107302D01*
X0233675Y0108900D02*
X0235807Y0108900D01*
X0235085Y0110499D02*
X0233675Y0110499D01*
X0233675Y0112097D02*
X0234406Y0112097D01*
X0233780Y0113696D02*
X0233408Y0113696D01*
X0233155Y0115294D02*
X0231810Y0115294D01*
X0231765Y0116893D02*
X0230211Y0116893D01*
X0233139Y0120090D02*
X0236687Y0120090D01*
X0235555Y0118491D02*
X0238051Y0118491D01*
X0239414Y0116893D02*
X0236180Y0116893D01*
X0236806Y0115294D02*
X0240691Y0115294D01*
X0242424Y0113696D02*
X0237431Y0113696D01*
X0238094Y0112097D02*
X0244099Y0112097D01*
X0245697Y0110499D02*
X0238816Y0110499D01*
X0239538Y0108900D02*
X0247296Y0108900D01*
X0247152Y0107302D02*
X0240260Y0107302D01*
X0241176Y0105703D02*
X0247223Y0105703D01*
X0247922Y0104105D02*
X0242774Y0104105D01*
X0244373Y0102506D02*
X0250020Y0102506D01*
X0253580Y0102506D02*
X0256428Y0102506D01*
X0255918Y0104105D02*
X0255678Y0104105D01*
X0254029Y0100908D02*
X0257760Y0100908D01*
X0257808Y0099309D02*
X0255792Y0099309D01*
X0256448Y0097711D02*
X0257152Y0097711D01*
X0257152Y0096112D02*
X0256448Y0096112D01*
X0255884Y0094514D02*
X0257716Y0094514D01*
X0257564Y0092915D02*
X0259112Y0092915D01*
X0259163Y0091317D02*
X0260558Y0091317D01*
X0263042Y0091317D02*
X0273475Y0091317D01*
X0273475Y0092915D02*
X0264488Y0092915D01*
X0265884Y0094514D02*
X0273432Y0094514D01*
X0271834Y0096112D02*
X0266448Y0096112D01*
X0266448Y0097711D02*
X0270235Y0097711D01*
X0268637Y0099309D02*
X0265792Y0099309D01*
X0265678Y0104105D02*
X0280894Y0104105D01*
X0281163Y0105703D02*
X0279557Y0105703D01*
X0281156Y0107302D02*
X0282607Y0107302D01*
X0282754Y0108900D02*
X0285400Y0108900D01*
X0285400Y0110499D02*
X0284353Y0110499D01*
X0288800Y0115294D02*
X0294883Y0115294D01*
X0294297Y0116893D02*
X0288800Y0116893D01*
X0288800Y0118491D02*
X0294297Y0118491D01*
X0294297Y0120090D02*
X0288800Y0120090D01*
X0288800Y0121688D02*
X0294297Y0121688D01*
X0294937Y0123287D02*
X0288800Y0123287D01*
X0288800Y0124885D02*
X0289199Y0124885D01*
X0293101Y0124885D02*
X0294697Y0124885D01*
X0294697Y0129681D02*
X0293684Y0129681D01*
X0298570Y0118491D02*
X0299530Y0118491D01*
X0299530Y0116893D02*
X0298570Y0116893D01*
X0298570Y0115294D02*
X0299530Y0115294D01*
X0281429Y0102506D02*
X0270248Y0102506D01*
X0273475Y0089718D02*
X0265455Y0089718D01*
X0266284Y0088120D02*
X0273475Y0088120D01*
X0273475Y0086521D02*
X0266448Y0086521D01*
X0266053Y0084923D02*
X0273475Y0084923D01*
X0273475Y0083324D02*
X0264897Y0083324D01*
X0265046Y0080127D02*
X0273475Y0080127D01*
X0273475Y0078529D02*
X0266115Y0078529D01*
X0266448Y0076930D02*
X0273475Y0076930D01*
X0273475Y0075332D02*
X0266223Y0075332D01*
X0265306Y0073733D02*
X0273475Y0073733D01*
X0273475Y0072134D02*
X0239093Y0072134D01*
X0239097Y0072125D02*
X0239032Y0072284D01*
X0238109Y0073207D01*
X0236903Y0073706D01*
X0235597Y0073706D01*
X0234391Y0073207D01*
X0233468Y0072284D01*
X0232969Y0071078D01*
X0232969Y0069772D01*
X0233468Y0068566D01*
X0234391Y0067643D01*
X0235597Y0067144D01*
X0236903Y0067144D01*
X0238109Y0067643D01*
X0239032Y0068566D01*
X0239097Y0068725D01*
X0247471Y0068725D01*
X0247538Y0068657D01*
X0247152Y0067725D01*
X0247152Y0065875D01*
X0247860Y0064167D01*
X0249167Y0062860D01*
X0250875Y0062152D01*
X0252725Y0062152D01*
X0254433Y0062860D01*
X0255740Y0064167D01*
X0256448Y0065875D01*
X0256448Y0067725D01*
X0255740Y0069433D01*
X0254433Y0070740D01*
X0252725Y0071448D01*
X0250875Y0071448D01*
X0249943Y0071062D01*
X0248879Y0072125D01*
X0239097Y0072125D01*
X0237374Y0067339D02*
X0247152Y0067339D01*
X0247208Y0065740D02*
X0202939Y0065740D01*
X0202939Y0064142D02*
X0247885Y0064142D01*
X0246659Y0063307D02*
X0245453Y0063806D01*
X0244147Y0063806D01*
X0242941Y0063307D01*
X0242018Y0062384D01*
X0241519Y0061178D01*
X0241519Y0059872D01*
X0242018Y0058666D01*
X0242941Y0057743D01*
X0244147Y0057244D01*
X0245453Y0057244D01*
X0246659Y0057743D01*
X0247514Y0058599D01*
X0247152Y0057725D01*
X0247152Y0055875D01*
X0247860Y0054167D01*
X0249167Y0052860D01*
X0250875Y0052152D01*
X0252725Y0052152D01*
X0254433Y0052860D01*
X0255740Y0054167D01*
X0256448Y0055875D01*
X0256448Y0057725D01*
X0255740Y0059433D01*
X0254433Y0060740D01*
X0252725Y0061448D01*
X0250875Y0061448D01*
X0249943Y0061062D01*
X0248779Y0062225D01*
X0247647Y0062225D01*
X0247582Y0062384D01*
X0246659Y0063307D01*
X0247422Y0062543D02*
X0249930Y0062543D01*
X0253670Y0062543D02*
X0259930Y0062543D01*
X0260875Y0061448D02*
X0259167Y0060740D01*
X0257860Y0059433D01*
X0257152Y0057725D01*
X0257152Y0055875D01*
X0257860Y0054167D01*
X0259167Y0052860D01*
X0260875Y0052152D01*
X0262725Y0052152D01*
X0264433Y0052860D01*
X0265740Y0054167D01*
X0266448Y0055875D01*
X0266448Y0057725D01*
X0265740Y0059433D01*
X0264433Y0060740D01*
X0262725Y0061448D01*
X0260875Y0061448D01*
X0259661Y0060945D02*
X0253939Y0060945D01*
X0255776Y0059346D02*
X0257824Y0059346D01*
X0257162Y0057748D02*
X0256438Y0057748D01*
X0256448Y0056149D02*
X0257152Y0056149D01*
X0257701Y0054551D02*
X0255899Y0054551D01*
X0254526Y0052952D02*
X0259074Y0052952D01*
X0260648Y0051354D02*
X0252952Y0051354D01*
X0252725Y0051448D02*
X0250875Y0051448D01*
X0249167Y0050740D01*
X0247860Y0049433D01*
X0247152Y0047725D01*
X0247152Y0045875D01*
X0247860Y0044167D01*
X0249167Y0042860D01*
X0250875Y0042152D01*
X0252725Y0042152D01*
X0254433Y0042860D01*
X0255740Y0044167D01*
X0256448Y0045875D01*
X0256448Y0047725D01*
X0255740Y0049433D01*
X0254433Y0050740D01*
X0252725Y0051448D01*
X0250648Y0051354D02*
X0197308Y0051354D01*
X0198907Y0052952D02*
X0249074Y0052952D01*
X0247701Y0054551D02*
X0200505Y0054551D01*
X0202104Y0056149D02*
X0247152Y0056149D01*
X0247162Y0057748D02*
X0246663Y0057748D01*
X0242937Y0057748D02*
X0202939Y0057748D01*
X0202939Y0059346D02*
X0241737Y0059346D01*
X0241519Y0060945D02*
X0202939Y0060945D01*
X0202939Y0062543D02*
X0242178Y0062543D01*
X0235126Y0067339D02*
X0202939Y0067339D01*
X0202939Y0068937D02*
X0233315Y0068937D01*
X0232969Y0070536D02*
X0202939Y0070536D01*
X0202939Y0072134D02*
X0233407Y0072134D01*
X0242631Y0078529D02*
X0202939Y0078529D01*
X0202939Y0080127D02*
X0219822Y0080127D01*
X0218387Y0081726D02*
X0202939Y0081726D01*
X0202939Y0083324D02*
X0218119Y0083324D01*
X0218657Y0084923D02*
X0202939Y0084923D01*
X0202939Y0086521D02*
X0218439Y0086521D01*
X0217355Y0088120D02*
X0202939Y0088120D01*
X0202939Y0089718D02*
X0217219Y0089718D01*
X0218076Y0091317D02*
X0202939Y0091317D01*
X0199539Y0091317D02*
X0194300Y0091317D01*
X0194300Y0092915D02*
X0199539Y0092915D01*
X0199539Y0089718D02*
X0194300Y0089718D01*
X0194300Y0088120D02*
X0199539Y0088120D01*
X0199539Y0086521D02*
X0194300Y0086521D01*
X0194300Y0084923D02*
X0199539Y0084923D01*
X0199539Y0083324D02*
X0194300Y0083324D01*
X0194300Y0081726D02*
X0199539Y0081726D01*
X0199539Y0080127D02*
X0193906Y0080127D01*
X0192308Y0078529D02*
X0199539Y0078529D01*
X0199539Y0076930D02*
X0191381Y0076930D01*
X0191074Y0075332D02*
X0199539Y0075332D01*
X0199539Y0073733D02*
X0189451Y0073733D01*
X0186749Y0073733D02*
X0182150Y0073733D01*
X0182145Y0072134D02*
X0199539Y0072134D01*
X0199539Y0070536D02*
X0182141Y0070536D01*
X0182137Y0068937D02*
X0199539Y0068937D01*
X0199539Y0067339D02*
X0184243Y0067339D01*
X0184778Y0065740D02*
X0199539Y0065740D01*
X0199539Y0064142D02*
X0184778Y0064142D01*
X0184778Y0062543D02*
X0199539Y0062543D01*
X0199539Y0060945D02*
X0184778Y0060945D01*
X0185080Y0059346D02*
X0199539Y0059346D01*
X0198894Y0057748D02*
X0185178Y0057748D01*
X0185178Y0055705D02*
X0180905Y0055705D01*
X0180905Y0051826D01*
X0183615Y0051826D01*
X0184073Y0051948D01*
X0184483Y0052185D01*
X0184818Y0052521D01*
X0185055Y0052931D01*
X0185178Y0053389D01*
X0185178Y0055705D01*
X0185178Y0054551D02*
X0195697Y0054551D01*
X0197295Y0056149D02*
X0180905Y0056149D01*
X0179945Y0056149D02*
X0169945Y0056149D01*
X0169945Y0054551D02*
X0175672Y0054551D01*
X0175789Y0052952D02*
X0168968Y0052952D01*
X0171527Y0057748D02*
X0175672Y0057748D01*
X0175770Y0059346D02*
X0173126Y0059346D01*
X0174724Y0060945D02*
X0176072Y0060945D01*
X0173113Y0064142D02*
X0158306Y0064142D01*
X0158306Y0065740D02*
X0176072Y0065740D01*
X0176607Y0067339D02*
X0158306Y0067339D01*
X0158306Y0068937D02*
X0178737Y0068937D01*
X0178741Y0070536D02*
X0157819Y0070536D01*
X0153630Y0070536D02*
X0152819Y0070536D01*
X0148631Y0070536D02*
X0147819Y0070536D01*
X0143631Y0070536D02*
X0142819Y0070536D01*
X0138630Y0070536D02*
X0110268Y0070536D01*
X0110728Y0075101D02*
X0116029Y0074177D01*
X0134683Y0094963D01*
X0134688Y0095065D01*
X0135145Y0095477D01*
X0135345Y0095700D01*
X0135233Y0095704D01*
X0132033Y0092504D01*
X0131789Y0092085D01*
X0131552Y0092023D01*
X0131379Y0091850D01*
X0130895Y0091850D01*
X0127799Y0091035D01*
X0127799Y0088217D01*
X0126979Y0087397D01*
X0120701Y0087397D01*
X0120377Y0087722D01*
X0120359Y0087692D01*
X0120024Y0087357D01*
X0119614Y0087120D01*
X0119156Y0086997D01*
X0116839Y0086997D01*
X0116839Y0091270D01*
X0115880Y0091270D01*
X0115880Y0086997D01*
X0113564Y0086997D01*
X0113106Y0087120D01*
X0112696Y0087357D01*
X0112360Y0087692D01*
X0112123Y0088102D01*
X0112001Y0088560D01*
X0112001Y0091270D01*
X0115880Y0091270D01*
X0115880Y0092230D01*
X0115880Y0096503D01*
X0113564Y0096503D01*
X0113106Y0096380D01*
X0112696Y0096143D01*
X0112360Y0095808D01*
X0112123Y0095398D01*
X0112001Y0094940D01*
X0112001Y0092230D01*
X0115880Y0092230D01*
X0116839Y0092230D01*
X0116839Y0096503D01*
X0119156Y0096503D01*
X0119614Y0096380D01*
X0120024Y0096143D01*
X0120359Y0095808D01*
X0120377Y0095778D01*
X0120701Y0096103D01*
X0126979Y0096103D01*
X0127799Y0095283D01*
X0127799Y0094551D01*
X0129798Y0095077D01*
X0132271Y0097550D01*
X0115313Y0097550D01*
X0114200Y0098663D01*
X0101375Y0111488D01*
X0101375Y0134888D01*
X0087863Y0148400D01*
X0077287Y0148400D01*
X0070735Y0141848D01*
X0071517Y0141848D01*
X0071517Y0137083D01*
X0072083Y0137083D01*
X0072083Y0141848D01*
X0075285Y0141848D01*
X0075743Y0141725D01*
X0076153Y0141488D01*
X0076488Y0141153D01*
X0076725Y0140743D01*
X0076848Y0140285D01*
X0076848Y0137083D01*
X0072083Y0137083D01*
X0072083Y0136517D01*
X0076848Y0136517D01*
X0076848Y0133315D01*
X0076725Y0132857D01*
X0076488Y0132447D01*
X0076153Y0132112D01*
X0075743Y0131875D01*
X0075285Y0131752D01*
X0072083Y0131752D01*
X0072083Y0136517D01*
X0071517Y0136517D01*
X0071517Y0131752D01*
X0068315Y0131752D01*
X0067857Y0131875D01*
X0067447Y0132112D01*
X0067112Y0132447D01*
X0066875Y0132857D01*
X0066752Y0133315D01*
X0066752Y0136517D01*
X0071517Y0136517D01*
X0071517Y0137083D01*
X0066752Y0137083D01*
X0066752Y0137865D01*
X0066448Y0137561D01*
X0066448Y0132972D01*
X0065628Y0132152D01*
X0057972Y0132152D01*
X0057152Y0132972D01*
X0057152Y0140628D01*
X0057972Y0141448D01*
X0059900Y0141448D01*
X0059900Y0192966D01*
X0090469Y0223535D01*
X0087589Y0223535D01*
X0085284Y0225840D01*
X0082979Y0223535D01*
X0079715Y0223535D01*
X0077407Y0225842D01*
X0077407Y0229106D01*
X0079647Y0231345D01*
X0079647Y0231477D01*
X0077407Y0233716D01*
X0077407Y0236980D01*
X0079647Y0239219D01*
X0079647Y0239351D01*
X0077407Y0241591D01*
X0077407Y0244854D01*
X0079647Y0247093D01*
X0079647Y0247225D01*
X0077407Y0249465D01*
X0077407Y0252728D01*
X0079715Y0255036D01*
X0082979Y0255036D01*
X0085218Y0252796D01*
X0085350Y0252796D01*
X0087589Y0255036D01*
X0090853Y0255036D01*
X0093158Y0252730D01*
X0095463Y0255036D01*
X0098727Y0255036D01*
X0100749Y0253013D01*
X0103171Y0255436D01*
X0104922Y0255436D01*
X0104922Y0251143D01*
X0105015Y0251143D01*
X0105015Y0255436D01*
X0106766Y0255436D01*
X0109189Y0253013D01*
X0111211Y0255036D01*
X0114475Y0255036D01*
X0116780Y0252730D01*
X0119085Y0255036D01*
X0122349Y0255036D01*
X0124654Y0252730D01*
X0126959Y0255036D01*
X0130223Y0255036D01*
X0132528Y0252730D01*
X0134833Y0255036D01*
X0138097Y0255036D01*
X0140402Y0252730D01*
X0142639Y0254967D01*
X0142639Y0263107D01*
X0141496Y0264250D01*
X0035579Y0264250D01*
X0026225Y0254896D01*
X0026225Y0124004D01*
X0040304Y0109925D01*
X0053579Y0109925D01*
X0057152Y0106352D01*
X0057152Y0107725D01*
X0057538Y0108657D01*
X0054271Y0111925D01*
X0053697Y0111925D01*
X0053632Y0111766D01*
X0052709Y0110843D01*
X0051503Y0110344D01*
X0050197Y0110344D01*
X0048991Y0110843D01*
X0048068Y0111766D01*
X0047569Y0112972D01*
X0047569Y0114278D01*
X0048068Y0115484D01*
X0048991Y0116407D01*
X0050197Y0116906D01*
X0051503Y0116906D01*
X0052709Y0116407D01*
X0053632Y0115484D01*
X0053697Y0115325D01*
X0055679Y0115325D01*
X0059943Y0111062D01*
X0060875Y0111448D01*
X0062725Y0111448D01*
X0064433Y0110740D01*
X0065740Y0109433D01*
X0066448Y0107725D01*
X0066448Y0105875D01*
X0065740Y0104167D01*
X0065423Y0103850D01*
X0067154Y0103850D01*
X0069943Y0101062D01*
X0070875Y0101448D01*
X0072725Y0101448D01*
X0074433Y0100740D01*
X0075740Y0099433D01*
X0076448Y0097725D01*
X0076448Y0096200D01*
X0077028Y0096200D01*
X0077093Y0096359D01*
X0078016Y0097282D01*
X0079222Y0097781D01*
X0080528Y0097781D01*
X0081734Y0097282D01*
X0082657Y0096359D01*
X0083156Y0095153D01*
X0083156Y0093847D01*
X0082657Y0092641D01*
X0081734Y0091718D01*
X0080528Y0091219D01*
X0079222Y0091219D01*
X0078016Y0091718D01*
X0077093Y0092641D01*
X0077028Y0092800D01*
X0074289Y0092800D01*
X0072725Y0092152D01*
X0070875Y0092152D01*
X0069167Y0092860D01*
X0067860Y0094167D01*
X0067152Y0095875D01*
X0067152Y0097725D01*
X0067538Y0098657D01*
X0065746Y0100450D01*
X0064723Y0100450D01*
X0065740Y0099433D01*
X0066448Y0097725D01*
X0066448Y0095875D01*
X0065740Y0094167D01*
X0064433Y0092860D01*
X0062725Y0092152D01*
X0060875Y0092152D01*
X0059167Y0092860D01*
X0057860Y0094167D01*
X0057152Y0095875D01*
X0057152Y0097725D01*
X0057538Y0098657D01*
X0055071Y0101125D01*
X0035697Y0101125D01*
X0035632Y0100966D01*
X0034709Y0100043D01*
X0033503Y0099544D01*
X0032197Y0099544D01*
X0030991Y0100043D01*
X0030068Y0100966D01*
X0029569Y0102172D01*
X0029569Y0103478D01*
X0030068Y0104684D01*
X0030991Y0105607D01*
X0032197Y0106106D01*
X0033503Y0106106D01*
X0034709Y0105607D01*
X0035632Y0104684D01*
X0035697Y0104525D01*
X0054171Y0104525D01*
X0052171Y0106525D01*
X0038896Y0106525D01*
X0037900Y0107521D01*
X0022825Y0122596D01*
X0022825Y0256304D01*
X0023821Y0257300D01*
X0034171Y0267650D01*
X0142904Y0267650D01*
X0143900Y0266654D01*
X0146039Y0264515D01*
X0146039Y0254967D01*
X0148276Y0252730D01*
X0150513Y0254967D01*
X0150513Y0264008D01*
X0146671Y0267850D01*
X0026804Y0267850D01*
X0016550Y0257596D01*
X0016550Y0083729D01*
X0029054Y0071225D01*
X0059779Y0071225D01*
X0059943Y0071062D01*
X0060875Y0071448D01*
X0062725Y0071448D01*
X0063216Y0071245D01*
X0065350Y0073379D01*
X0065350Y0073777D01*
X0064433Y0072860D01*
X0062725Y0072152D01*
X0060875Y0072152D01*
X0059167Y0072860D01*
X0057902Y0074125D01*
X0053247Y0074125D01*
X0053182Y0073966D01*
X0052259Y0073043D01*
X0051053Y0072544D01*
X0049747Y0072544D01*
X0048541Y0073043D01*
X0047618Y0073966D01*
X0047119Y0075172D01*
X0047119Y0076478D01*
X0047618Y0077684D01*
X0048541Y0078607D01*
X0049747Y0079106D01*
X0051053Y0079106D01*
X0052259Y0078607D01*
X0053182Y0077684D01*
X0053247Y0077525D01*
X0057152Y0077525D01*
X0057152Y0077725D01*
X0057860Y0079433D01*
X0059167Y0080740D01*
X0060875Y0081448D01*
X0062725Y0081448D01*
X0064433Y0080740D01*
X0065350Y0079823D01*
X0065350Y0082754D01*
X0067538Y0084943D01*
X0067152Y0085875D01*
X0067152Y0087725D01*
X0067860Y0089433D01*
X0069167Y0090740D01*
X0070875Y0091448D01*
X0072725Y0091448D01*
X0074433Y0090740D01*
X0075740Y0089433D01*
X0076448Y0087725D01*
X0076448Y0085875D01*
X0075740Y0084167D01*
X0074433Y0082860D01*
X0072725Y0082152D01*
X0070875Y0082152D01*
X0069943Y0082538D01*
X0068750Y0081346D01*
X0068750Y0080323D01*
X0069167Y0080740D01*
X0070875Y0081448D01*
X0072725Y0081448D01*
X0074433Y0080740D01*
X0075740Y0079433D01*
X0076448Y0077725D01*
X0076448Y0075875D01*
X0076062Y0074943D01*
X0078460Y0072544D01*
X0079034Y0072307D01*
X0079957Y0071384D01*
X0080456Y0070178D01*
X0080456Y0068872D01*
X0079957Y0067666D01*
X0079034Y0066743D01*
X0077828Y0066244D01*
X0076522Y0066244D01*
X0076448Y0066275D01*
X0076448Y0065875D01*
X0075740Y0064167D01*
X0075148Y0063575D01*
X0087946Y0063575D01*
X0097767Y0073396D01*
X0098024Y0073821D01*
X0098248Y0073877D01*
X0098411Y0074040D01*
X0098908Y0074040D01*
X0102022Y0074810D01*
X0102022Y0077274D01*
X0102347Y0077598D01*
X0102317Y0077616D01*
X0101982Y0077951D01*
X0101745Y0078361D01*
X0101622Y0078819D01*
X0101622Y0081136D01*
X0105895Y0081136D01*
X0105895Y0082095D01*
X0101622Y0082095D01*
X0101622Y0084411D01*
X0101745Y0084869D01*
X0101982Y0085279D01*
X0102317Y0085615D01*
X0102727Y0085852D01*
X0103185Y0085974D01*
X0105895Y0085974D01*
X0105895Y0082095D01*
X0106855Y0082095D01*
X0111128Y0082095D01*
X0111128Y0084411D01*
X0111005Y0084869D01*
X0110768Y0085279D01*
X0110433Y0085615D01*
X0110023Y0085852D01*
X0109565Y0085974D01*
X0106855Y0085974D01*
X0106855Y0082095D01*
X0106855Y0081136D01*
X0111128Y0081136D01*
X0111128Y0078819D01*
X0111005Y0078361D01*
X0110768Y0077951D01*
X0110433Y0077616D01*
X0110403Y0077598D01*
X0110728Y0077274D01*
X0110728Y0075101D01*
X0110728Y0075332D02*
X0117066Y0075332D01*
X0118500Y0076930D02*
X0110728Y0076930D01*
X0111050Y0078529D02*
X0119935Y0078529D01*
X0121369Y0080127D02*
X0111128Y0080127D01*
X0111128Y0083324D02*
X0124238Y0083324D01*
X0122804Y0081726D02*
X0106855Y0081726D01*
X0105895Y0081726D02*
X0069130Y0081726D01*
X0067518Y0084923D02*
X0066053Y0084923D01*
X0065740Y0084167D02*
X0066448Y0085875D01*
X0066448Y0087725D01*
X0065740Y0089433D01*
X0064433Y0090740D01*
X0062725Y0091448D01*
X0060875Y0091448D01*
X0059943Y0091062D01*
X0055479Y0095525D01*
X0033222Y0095525D01*
X0033157Y0095684D01*
X0032234Y0096607D01*
X0031028Y0097106D01*
X0029722Y0097106D01*
X0028516Y0096607D01*
X0027593Y0095684D01*
X0027094Y0094478D01*
X0027094Y0093172D01*
X0027593Y0091966D01*
X0028516Y0091043D01*
X0029722Y0090544D01*
X0031028Y0090544D01*
X0032234Y0091043D01*
X0033157Y0091966D01*
X0033222Y0092125D01*
X0054071Y0092125D01*
X0057538Y0088657D01*
X0057152Y0087725D01*
X0057152Y0085875D01*
X0057860Y0084167D01*
X0059167Y0082860D01*
X0060875Y0082152D01*
X0062725Y0082152D01*
X0064433Y0082860D01*
X0065740Y0084167D01*
X0065920Y0083324D02*
X0064897Y0083324D01*
X0065350Y0081726D02*
X0018554Y0081726D01*
X0016955Y0083324D02*
X0058703Y0083324D01*
X0057547Y0084923D02*
X0016550Y0084923D01*
X0016550Y0086521D02*
X0057152Y0086521D01*
X0057316Y0088120D02*
X0016550Y0088120D01*
X0016550Y0089718D02*
X0056478Y0089718D01*
X0054879Y0091317D02*
X0032507Y0091317D01*
X0028243Y0091317D02*
X0016550Y0091317D01*
X0016550Y0092915D02*
X0027200Y0092915D01*
X0027109Y0094514D02*
X0016550Y0094514D01*
X0016550Y0096112D02*
X0028022Y0096112D01*
X0032728Y0096112D02*
X0057152Y0096112D01*
X0057152Y0097711D02*
X0016550Y0097711D01*
X0016550Y0099309D02*
X0056887Y0099309D01*
X0055288Y0100908D02*
X0035573Y0100908D01*
X0034475Y0105703D02*
X0052993Y0105703D01*
X0054604Y0108900D02*
X0057296Y0108900D01*
X0057152Y0107302D02*
X0056202Y0107302D01*
X0055697Y0110499D02*
X0051877Y0110499D01*
X0049823Y0110499D02*
X0039730Y0110499D01*
X0038132Y0112097D02*
X0047931Y0112097D01*
X0047569Y0113696D02*
X0036533Y0113696D01*
X0034935Y0115294D02*
X0047990Y0115294D01*
X0050165Y0116893D02*
X0033336Y0116893D01*
X0031738Y0118491D02*
X0051243Y0118491D01*
X0051691Y0118043D02*
X0050768Y0118966D01*
X0050269Y0120172D01*
X0050269Y0121478D01*
X0050768Y0122684D01*
X0051691Y0123607D01*
X0052897Y0124106D01*
X0054203Y0124106D01*
X0055409Y0123607D01*
X0056332Y0122684D01*
X0056397Y0122525D01*
X0058479Y0122525D01*
X0059943Y0121062D01*
X0060875Y0121448D01*
X0062725Y0121448D01*
X0064433Y0120740D01*
X0065740Y0119433D01*
X0066448Y0117725D01*
X0066448Y0115875D01*
X0065740Y0114167D01*
X0064433Y0112860D01*
X0062725Y0112152D01*
X0060875Y0112152D01*
X0059167Y0112860D01*
X0057860Y0114167D01*
X0057152Y0115875D01*
X0057152Y0117725D01*
X0057538Y0118657D01*
X0057071Y0119125D01*
X0056397Y0119125D01*
X0056332Y0118966D01*
X0055409Y0118043D01*
X0054203Y0117544D01*
X0052897Y0117544D01*
X0051691Y0118043D01*
X0051535Y0116893D02*
X0057152Y0116893D01*
X0057393Y0115294D02*
X0055710Y0115294D01*
X0057308Y0113696D02*
X0058331Y0113696D01*
X0058907Y0112097D02*
X0101375Y0112097D01*
X0101375Y0113696D02*
X0075269Y0113696D01*
X0075740Y0114167D02*
X0076448Y0115875D01*
X0076448Y0117725D01*
X0076062Y0118657D01*
X0077204Y0119800D01*
X0081078Y0119800D01*
X0081143Y0119641D01*
X0082066Y0118718D01*
X0083272Y0118219D01*
X0084578Y0118219D01*
X0085784Y0118718D01*
X0086707Y0119641D01*
X0087206Y0120847D01*
X0087206Y0122153D01*
X0086707Y0123359D01*
X0085784Y0124282D01*
X0084578Y0124781D01*
X0083272Y0124781D01*
X0082066Y0124282D01*
X0081143Y0123359D01*
X0081078Y0123200D01*
X0075796Y0123200D01*
X0073657Y0121062D01*
X0072725Y0121448D01*
X0070875Y0121448D01*
X0069167Y0120740D01*
X0067860Y0119433D01*
X0067152Y0117725D01*
X0067152Y0115875D01*
X0067860Y0114167D01*
X0069167Y0112860D01*
X0070875Y0112152D01*
X0072725Y0112152D01*
X0074433Y0112860D01*
X0075740Y0114167D01*
X0076207Y0115294D02*
X0101375Y0115294D01*
X0101375Y0116893D02*
X0076448Y0116893D01*
X0076130Y0118491D02*
X0082615Y0118491D01*
X0085235Y0118491D02*
X0101375Y0118491D01*
X0101375Y0120090D02*
X0086892Y0120090D01*
X0087206Y0121688D02*
X0101375Y0121688D01*
X0101375Y0123287D02*
X0086736Y0123287D01*
X0081114Y0123287D02*
X0074860Y0123287D01*
X0074433Y0122860D02*
X0075740Y0124167D01*
X0076448Y0125875D01*
X0076448Y0127725D01*
X0075740Y0129433D01*
X0074433Y0130740D01*
X0072725Y0131448D01*
X0070875Y0131448D01*
X0069167Y0130740D01*
X0067860Y0129433D01*
X0067152Y0127725D01*
X0067152Y0125875D01*
X0067860Y0124167D01*
X0069167Y0122860D01*
X0070875Y0122152D01*
X0072725Y0122152D01*
X0074433Y0122860D01*
X0074284Y0121688D02*
X0059316Y0121688D01*
X0059167Y0122860D02*
X0060875Y0122152D01*
X0062725Y0122152D01*
X0064433Y0122860D01*
X0065740Y0124167D01*
X0066448Y0125875D01*
X0066448Y0127725D01*
X0065740Y0129433D01*
X0064433Y0130740D01*
X0062725Y0131448D01*
X0060875Y0131448D01*
X0059167Y0130740D01*
X0057860Y0129433D01*
X0057152Y0127725D01*
X0057152Y0125875D01*
X0057860Y0124167D01*
X0059167Y0122860D01*
X0058740Y0123287D02*
X0055728Y0123287D01*
X0057562Y0124885D02*
X0026225Y0124885D01*
X0026225Y0126484D02*
X0057152Y0126484D01*
X0057300Y0128082D02*
X0026225Y0128082D01*
X0026225Y0129681D02*
X0058108Y0129681D01*
X0060468Y0131279D02*
X0026225Y0131279D01*
X0026225Y0132878D02*
X0057246Y0132878D01*
X0057152Y0134476D02*
X0026225Y0134476D01*
X0026225Y0136075D02*
X0057152Y0136075D01*
X0057152Y0137673D02*
X0026225Y0137673D01*
X0026225Y0139272D02*
X0057152Y0139272D01*
X0057395Y0140870D02*
X0026225Y0140870D01*
X0026225Y0142469D02*
X0059900Y0142469D01*
X0059900Y0144068D02*
X0026225Y0144068D01*
X0026225Y0145666D02*
X0059900Y0145666D01*
X0059900Y0147265D02*
X0026225Y0147265D01*
X0026225Y0148863D02*
X0059900Y0148863D01*
X0059900Y0150462D02*
X0026225Y0150462D01*
X0026225Y0152060D02*
X0059900Y0152060D01*
X0059900Y0153659D02*
X0026225Y0153659D01*
X0026225Y0155257D02*
X0059900Y0155257D01*
X0059900Y0156856D02*
X0026225Y0156856D01*
X0026225Y0158454D02*
X0059900Y0158454D01*
X0059900Y0160053D02*
X0026225Y0160053D01*
X0026225Y0161651D02*
X0059900Y0161651D01*
X0059900Y0163250D02*
X0026225Y0163250D01*
X0026225Y0164848D02*
X0059900Y0164848D01*
X0059900Y0166447D02*
X0026225Y0166447D01*
X0026225Y0168045D02*
X0059900Y0168045D01*
X0059900Y0169644D02*
X0026225Y0169644D01*
X0026225Y0171242D02*
X0059900Y0171242D01*
X0059900Y0172841D02*
X0026225Y0172841D01*
X0026225Y0174439D02*
X0059900Y0174439D01*
X0059900Y0176038D02*
X0026225Y0176038D01*
X0026225Y0177636D02*
X0059900Y0177636D01*
X0059900Y0179235D02*
X0026225Y0179235D01*
X0026225Y0180833D02*
X0059900Y0180833D01*
X0059900Y0182432D02*
X0026225Y0182432D01*
X0026225Y0184030D02*
X0059900Y0184030D01*
X0059900Y0185629D02*
X0026225Y0185629D01*
X0026225Y0187227D02*
X0059900Y0187227D01*
X0059900Y0188826D02*
X0026225Y0188826D01*
X0026225Y0190424D02*
X0059900Y0190424D01*
X0059900Y0192023D02*
X0026225Y0192023D01*
X0026225Y0193621D02*
X0060555Y0193621D01*
X0062154Y0195220D02*
X0026225Y0195220D01*
X0026225Y0196818D02*
X0063752Y0196818D01*
X0065351Y0198417D02*
X0026225Y0198417D01*
X0026225Y0200015D02*
X0066949Y0200015D01*
X0068548Y0201614D02*
X0026225Y0201614D01*
X0026225Y0203212D02*
X0070146Y0203212D01*
X0071745Y0204811D02*
X0026225Y0204811D01*
X0026225Y0206409D02*
X0073343Y0206409D01*
X0074942Y0208008D02*
X0026225Y0208008D01*
X0026225Y0209606D02*
X0076540Y0209606D01*
X0078139Y0211205D02*
X0026225Y0211205D01*
X0026225Y0212803D02*
X0079737Y0212803D01*
X0081336Y0214402D02*
X0026225Y0214402D01*
X0026225Y0216001D02*
X0082934Y0216001D01*
X0084533Y0217599D02*
X0026225Y0217599D01*
X0026225Y0219198D02*
X0086131Y0219198D01*
X0087730Y0220796D02*
X0026225Y0220796D01*
X0026225Y0222395D02*
X0089328Y0222395D01*
X0087131Y0223993D02*
X0083437Y0223993D01*
X0085035Y0225592D02*
X0085532Y0225592D01*
X0079257Y0223993D02*
X0026225Y0223993D01*
X0026225Y0225592D02*
X0057266Y0225592D01*
X0058221Y0224637D02*
X0062071Y0224637D01*
X0063847Y0226413D01*
X0065622Y0224637D01*
X0069473Y0224637D01*
X0072196Y0227360D01*
X0072196Y0231211D01*
X0069473Y0233933D01*
X0065622Y0233933D01*
X0063847Y0232158D01*
X0062071Y0233933D01*
X0058221Y0233933D01*
X0055498Y0231211D01*
X0055498Y0227360D01*
X0058221Y0224637D01*
X0055668Y0227190D02*
X0026225Y0227190D01*
X0026225Y0228789D02*
X0055498Y0228789D01*
X0055498Y0230387D02*
X0026225Y0230387D01*
X0026225Y0231986D02*
X0056273Y0231986D01*
X0057872Y0233584D02*
X0026225Y0233584D01*
X0026225Y0235183D02*
X0046716Y0235183D01*
X0046639Y0235215D02*
X0048353Y0234505D01*
X0050207Y0234505D01*
X0051921Y0235215D01*
X0053232Y0236526D01*
X0053942Y0238240D01*
X0053942Y0240094D01*
X0053232Y0241808D01*
X0051921Y0243120D01*
X0050207Y0243829D01*
X0048353Y0243829D01*
X0046639Y0243120D01*
X0045327Y0241808D01*
X0044618Y0240094D01*
X0044618Y0238240D01*
X0045327Y0236526D01*
X0046639Y0235215D01*
X0045222Y0236781D02*
X0026225Y0236781D01*
X0026225Y0238380D02*
X0044618Y0238380D01*
X0044618Y0239978D02*
X0026225Y0239978D01*
X0026225Y0241577D02*
X0045232Y0241577D01*
X0046773Y0243175D02*
X0026225Y0243175D01*
X0026225Y0244774D02*
X0058084Y0244774D01*
X0058221Y0244637D02*
X0062071Y0244637D01*
X0063847Y0246413D01*
X0065622Y0244637D01*
X0069473Y0244637D01*
X0072196Y0247360D01*
X0072196Y0251211D01*
X0069473Y0253933D01*
X0065622Y0253933D01*
X0063847Y0252158D01*
X0062071Y0253933D01*
X0058221Y0253933D01*
X0055498Y0251211D01*
X0055498Y0247360D01*
X0058221Y0244637D01*
X0058221Y0243933D02*
X0055498Y0241211D01*
X0055498Y0237360D01*
X0058221Y0234637D01*
X0062071Y0234637D01*
X0063847Y0236413D01*
X0065622Y0234637D01*
X0069473Y0234637D01*
X0072196Y0237360D01*
X0072196Y0241211D01*
X0069473Y0243933D01*
X0065622Y0243933D01*
X0063847Y0242158D01*
X0062071Y0243933D01*
X0058221Y0243933D01*
X0057463Y0243175D02*
X0051786Y0243175D01*
X0053328Y0241577D02*
X0055864Y0241577D01*
X0055498Y0239978D02*
X0053942Y0239978D01*
X0053942Y0238380D02*
X0055498Y0238380D01*
X0056077Y0236781D02*
X0053338Y0236781D01*
X0051843Y0235183D02*
X0057675Y0235183D01*
X0062617Y0235183D02*
X0065077Y0235183D01*
X0065273Y0233584D02*
X0062420Y0233584D01*
X0069822Y0233584D02*
X0077540Y0233584D01*
X0077407Y0235183D02*
X0070018Y0235183D01*
X0071617Y0236781D02*
X0077407Y0236781D01*
X0078807Y0238380D02*
X0072196Y0238380D01*
X0072196Y0239978D02*
X0079020Y0239978D01*
X0077421Y0241577D02*
X0071829Y0241577D01*
X0070231Y0243175D02*
X0077407Y0243175D01*
X0077407Y0244774D02*
X0069609Y0244774D01*
X0071208Y0246372D02*
X0078926Y0246372D01*
X0078901Y0247971D02*
X0072196Y0247971D01*
X0072196Y0249569D02*
X0077407Y0249569D01*
X0077407Y0251168D02*
X0072196Y0251168D01*
X0070640Y0252766D02*
X0077446Y0252766D01*
X0079044Y0254365D02*
X0026225Y0254365D01*
X0026225Y0252766D02*
X0057054Y0252766D01*
X0055498Y0251168D02*
X0026225Y0251168D01*
X0026225Y0249569D02*
X0055498Y0249569D01*
X0055498Y0247971D02*
X0026225Y0247971D01*
X0026225Y0246372D02*
X0056486Y0246372D01*
X0062208Y0244774D02*
X0065486Y0244774D01*
X0064864Y0243175D02*
X0062829Y0243175D01*
X0063806Y0246372D02*
X0063887Y0246372D01*
X0064455Y0252766D02*
X0063238Y0252766D01*
X0083649Y0254365D02*
X0086918Y0254365D01*
X0091523Y0254365D02*
X0094792Y0254365D01*
X0093194Y0252766D02*
X0093122Y0252766D01*
X0099397Y0254365D02*
X0102101Y0254365D01*
X0104922Y0254365D02*
X0105015Y0254365D01*
X0105015Y0252766D02*
X0104922Y0252766D01*
X0104922Y0251168D02*
X0105015Y0251168D01*
X0105015Y0251050D02*
X0105015Y0247562D01*
X0105015Y0243269D01*
X0104922Y0243269D01*
X0104922Y0251050D01*
X0105015Y0251050D01*
X0105015Y0249569D02*
X0104922Y0249569D01*
X0104922Y0247971D02*
X0105015Y0247971D01*
X0105015Y0246372D02*
X0104922Y0246372D01*
X0104922Y0244774D02*
X0105015Y0244774D01*
X0105015Y0243176D02*
X0105015Y0238883D01*
X0105015Y0235395D01*
X0104922Y0235395D01*
X0104922Y0243176D01*
X0105015Y0243176D01*
X0105015Y0243175D02*
X0104922Y0243175D01*
X0104922Y0241577D02*
X0105015Y0241577D01*
X0105015Y0239978D02*
X0104922Y0239978D01*
X0104922Y0238380D02*
X0105015Y0238380D01*
X0105015Y0236781D02*
X0104922Y0236781D01*
X0104922Y0235302D02*
X0105015Y0235302D01*
X0105015Y0231814D01*
X0105015Y0227521D01*
X0104922Y0227521D01*
X0104922Y0235302D01*
X0104922Y0235183D02*
X0105015Y0235183D01*
X0105015Y0233584D02*
X0104922Y0233584D01*
X0104922Y0231986D02*
X0105015Y0231986D01*
X0105015Y0230387D02*
X0104922Y0230387D01*
X0104922Y0228789D02*
X0105015Y0228789D01*
X0105015Y0227428D02*
X0105015Y0223135D01*
X0106766Y0223135D01*
X0109189Y0225557D01*
X0111211Y0223535D01*
X0114475Y0223535D01*
X0116780Y0225840D01*
X0119085Y0223535D01*
X0122349Y0223535D01*
X0122725Y0223911D01*
X0122725Y0218279D01*
X0110896Y0206450D01*
X0098296Y0206450D01*
X0091771Y0199925D01*
X0090775Y0198929D01*
X0090775Y0193774D01*
X0088317Y0193774D01*
X0087497Y0192954D01*
X0087497Y0186676D01*
X0087822Y0186352D01*
X0087792Y0186334D01*
X0087457Y0185999D01*
X0087220Y0185589D01*
X0087097Y0185131D01*
X0087097Y0182814D01*
X0091370Y0182814D01*
X0091370Y0181855D01*
X0087097Y0181855D01*
X0087097Y0179539D01*
X0087220Y0179081D01*
X0087457Y0178671D01*
X0087792Y0178335D01*
X0088202Y0178098D01*
X0088660Y0177976D01*
X0091370Y0177976D01*
X0091370Y0181855D01*
X0092330Y0181855D01*
X0092330Y0182814D01*
X0096603Y0182814D01*
X0096603Y0185131D01*
X0096480Y0185589D01*
X0096243Y0185999D01*
X0095908Y0186334D01*
X0095878Y0186352D01*
X0096203Y0186676D01*
X0096203Y0192954D01*
X0095383Y0193774D01*
X0094175Y0193774D01*
X0094175Y0197521D01*
X0099704Y0203050D01*
X0115621Y0203050D01*
X0127900Y0190771D01*
X0127900Y0170971D01*
X0129250Y0169621D01*
X0129250Y0166717D01*
X0129114Y0166717D01*
X0128375Y0165978D01*
X0127636Y0166717D01*
X0127575Y0166717D01*
X0127575Y0167779D01*
X0126029Y0169325D01*
X0122628Y0172726D01*
X0124083Y0172726D01*
X0124903Y0173546D01*
X0124903Y0179824D01*
X0124578Y0180148D01*
X0124608Y0180166D01*
X0124943Y0180501D01*
X0125180Y0180911D01*
X0125303Y0181369D01*
X0125303Y0183686D01*
X0121030Y0183686D01*
X0121030Y0184645D01*
X0125303Y0184645D01*
X0125303Y0186961D01*
X0125180Y0187419D01*
X0124943Y0187829D01*
X0124608Y0188165D01*
X0124198Y0188402D01*
X0123740Y0188524D01*
X0121030Y0188524D01*
X0121030Y0184645D01*
X0120070Y0184645D01*
X0120070Y0183686D01*
X0115797Y0183686D01*
X0115797Y0181369D01*
X0115920Y0180911D01*
X0116157Y0180501D01*
X0116492Y0180166D01*
X0116522Y0180148D01*
X0116197Y0179824D01*
X0116197Y0173546D01*
X0117017Y0172726D01*
X0118850Y0172726D01*
X0118850Y0172025D01*
X0116782Y0172025D01*
X0116327Y0172151D01*
X0116103Y0172025D01*
X0115846Y0172025D01*
X0115512Y0171691D01*
X0110846Y0169054D01*
X0110497Y0169017D01*
X0110257Y0168721D01*
X0109925Y0168533D01*
X0109832Y0168195D01*
X0109611Y0167922D01*
X0109651Y0167544D01*
X0109549Y0167177D01*
X0109721Y0166871D01*
X0110132Y0162971D01*
X0110135Y0162925D01*
X0109515Y0162305D01*
X0105580Y0162305D01*
X0105580Y0163264D01*
X0109853Y0163264D01*
X0109853Y0165581D01*
X0109730Y0166039D01*
X0109493Y0166449D01*
X0109158Y0166784D01*
X0109128Y0166802D01*
X0109453Y0167126D01*
X0109453Y0173404D01*
X0108633Y0174224D01*
X0106800Y0174224D01*
X0106800Y0187421D01*
X0108539Y0189160D01*
X0108697Y0189094D01*
X0110003Y0189094D01*
X0111209Y0189593D01*
X0112132Y0190516D01*
X0112631Y0191722D01*
X0112631Y0193028D01*
X0112132Y0194234D01*
X0111209Y0195157D01*
X0110003Y0195656D01*
X0108697Y0195656D01*
X0107491Y0195157D01*
X0106568Y0194234D01*
X0106069Y0193028D01*
X0106069Y0191722D01*
X0106135Y0191564D01*
X0103400Y0188829D01*
X0103400Y0174224D01*
X0101567Y0174224D01*
X0100747Y0173404D01*
X0100747Y0171965D01*
X0098911Y0171965D01*
X0086536Y0159590D01*
X0086378Y0159656D01*
X0085072Y0159656D01*
X0083866Y0159157D01*
X0082943Y0158234D01*
X0082444Y0157028D01*
X0082444Y0155722D01*
X0082943Y0154516D01*
X0083866Y0153593D01*
X0085072Y0153094D01*
X0086378Y0153094D01*
X0087584Y0153593D01*
X0088507Y0154516D01*
X0089006Y0155722D01*
X0089006Y0157028D01*
X0088940Y0157186D01*
X0100319Y0168565D01*
X0100747Y0168565D01*
X0100747Y0167126D01*
X0101072Y0166802D01*
X0101042Y0166784D01*
X0100707Y0166449D01*
X0100470Y0166039D01*
X0100347Y0165581D01*
X0100347Y0163264D01*
X0104620Y0163264D01*
X0104620Y0162305D01*
X0100347Y0162305D01*
X0100347Y0159989D01*
X0100470Y0159531D01*
X0100707Y0159121D01*
X0101042Y0158785D01*
X0101452Y0158548D01*
X0101910Y0158426D01*
X0104620Y0158426D01*
X0104620Y0162305D01*
X0105580Y0162305D01*
X0105580Y0158426D01*
X0108290Y0158426D01*
X0108748Y0158548D01*
X0109099Y0158751D01*
X0109268Y0158341D01*
X0110191Y0157418D01*
X0111397Y0156919D01*
X0112703Y0156919D01*
X0113909Y0157418D01*
X0114832Y0158341D01*
X0115331Y0159547D01*
X0115331Y0160853D01*
X0114832Y0162059D01*
X0113909Y0162982D01*
X0113533Y0163137D01*
X0113518Y0163279D01*
X0113466Y0163957D01*
X0113445Y0163976D01*
X0113399Y0164407D01*
X0113768Y0163516D01*
X0114691Y0162593D01*
X0115897Y0162094D01*
X0117203Y0162094D01*
X0117605Y0162260D01*
X0118294Y0161679D01*
X0118294Y0156076D01*
X0119114Y0155256D01*
X0122636Y0155256D01*
X0123375Y0155995D01*
X0124114Y0155256D01*
X0127636Y0155256D01*
X0128375Y0155995D01*
X0129114Y0155256D01*
X0132636Y0155256D01*
X0133375Y0155995D01*
X0134114Y0155256D01*
X0137636Y0155256D01*
X0138456Y0156076D01*
X0138456Y0165897D01*
X0137636Y0166717D01*
X0134114Y0166717D01*
X0133375Y0165978D01*
X0132650Y0166703D01*
X0132650Y0171029D01*
X0131654Y0172025D01*
X0131300Y0172379D01*
X0131300Y0192179D01*
X0130304Y0193175D01*
X0117029Y0206450D01*
X0115704Y0206450D01*
X0126125Y0216871D01*
X0126125Y0224369D01*
X0126959Y0223535D01*
X0130223Y0223535D01*
X0132528Y0225840D01*
X0134833Y0223535D01*
X0138097Y0223535D01*
X0138489Y0223927D01*
X0137319Y0209978D01*
X0135521Y0209978D01*
X0134701Y0209158D01*
X0134701Y0202092D01*
X0135521Y0201272D01*
X0136420Y0201272D01*
X0136191Y0199377D01*
X0135267Y0195721D01*
X0135100Y0195554D01*
X0135100Y0195061D01*
X0134979Y0194584D01*
X0135100Y0194381D01*
X0135100Y0177496D01*
X0136735Y0175861D01*
X0136669Y0175703D01*
X0136669Y0174397D01*
X0137168Y0173191D01*
X0138091Y0172268D01*
X0139297Y0171769D01*
X0140603Y0171769D01*
X0141809Y0172268D01*
X0142732Y0173191D01*
X0143231Y0174397D01*
X0143231Y0175703D01*
X0142732Y0176909D01*
X0141809Y0177832D01*
X0140603Y0178331D01*
X0139297Y0178331D01*
X0139139Y0178265D01*
X0138500Y0178904D01*
X0138500Y0194639D01*
X0139371Y0198086D01*
X0139468Y0198162D01*
X0139540Y0198753D01*
X0139686Y0199331D01*
X0139623Y0199437D01*
X0139845Y0201272D01*
X0141799Y0201272D01*
X0142123Y0201597D01*
X0142141Y0201567D01*
X0142476Y0201232D01*
X0142886Y0200995D01*
X0143344Y0200872D01*
X0145661Y0200872D01*
X0145661Y0205145D01*
X0146620Y0205145D01*
X0146620Y0200872D01*
X0148936Y0200872D01*
X0149394Y0200995D01*
X0149804Y0201232D01*
X0150140Y0201567D01*
X0150377Y0201977D01*
X0150499Y0202435D01*
X0150499Y0205145D01*
X0146620Y0205145D01*
X0146620Y0206105D01*
X0145661Y0206105D01*
X0145661Y0210378D01*
X0143344Y0210378D01*
X0142886Y0210255D01*
X0142476Y0210018D01*
X0142141Y0209683D01*
X0142123Y0209653D01*
X0141799Y0209978D01*
X0140731Y0209978D01*
X0141933Y0224309D01*
X0142707Y0223535D01*
X0145971Y0223535D01*
X0148276Y0225840D01*
X0150581Y0223535D01*
X0151386Y0223535D01*
X0157825Y0217096D01*
X0158821Y0216100D01*
X0167146Y0216100D01*
X0174025Y0209221D01*
X0174025Y0194228D01*
X0173557Y0195359D01*
X0172634Y0196282D01*
X0171428Y0196781D01*
X0170122Y0196781D01*
X0168916Y0196282D01*
X0168721Y0196086D01*
X0168117Y0196312D01*
X0167204Y0197225D01*
X0165497Y0197225D01*
X0165922Y0197324D01*
X0166125Y0197253D01*
X0166586Y0197477D01*
X0167085Y0197593D01*
X0167199Y0197775D01*
X0167392Y0197869D01*
X0167559Y0198353D01*
X0167830Y0198788D01*
X0167782Y0198997D01*
X0168559Y0201247D01*
X0171404Y0201247D01*
X0172224Y0202067D01*
X0172224Y0209133D01*
X0171404Y0209953D01*
X0165126Y0209953D01*
X0164802Y0209628D01*
X0164784Y0209658D01*
X0164449Y0209993D01*
X0164039Y0210230D01*
X0163581Y0210353D01*
X0161264Y0210353D01*
X0161264Y0206080D01*
X0160305Y0206080D01*
X0160305Y0210353D01*
X0157989Y0210353D01*
X0157531Y0210230D01*
X0157121Y0209993D01*
X0156785Y0209658D01*
X0156548Y0209248D01*
X0156426Y0208790D01*
X0156426Y0206080D01*
X0160305Y0206080D01*
X0160305Y0205120D01*
X0161264Y0205120D01*
X0161264Y0200847D01*
X0163581Y0200847D01*
X0164039Y0200970D01*
X0164449Y0201207D01*
X0164784Y0201542D01*
X0164802Y0201572D01*
X0165004Y0201369D01*
X0164716Y0200534D01*
X0158164Y0199015D01*
X0157612Y0198988D01*
X0157497Y0198861D01*
X0157330Y0198822D01*
X0157038Y0198353D01*
X0156667Y0197943D01*
X0156676Y0197772D01*
X0156585Y0197627D01*
X0156710Y0197089D01*
X0156766Y0195967D01*
X0156739Y0195967D01*
X0156000Y0195228D01*
X0155261Y0195967D01*
X0154925Y0195967D01*
X0154925Y0196229D01*
X0153929Y0197225D01*
X0151004Y0200150D01*
X0145096Y0200150D01*
X0144100Y0199154D01*
X0142177Y0197231D01*
X0141772Y0197231D01*
X0140566Y0196732D01*
X0139643Y0195809D01*
X0139144Y0194603D01*
X0139144Y0193297D01*
X0139643Y0192091D01*
X0140566Y0191168D01*
X0141772Y0190669D01*
X0143078Y0190669D01*
X0144284Y0191168D01*
X0145207Y0192091D01*
X0145706Y0193297D01*
X0145706Y0194603D01*
X0145311Y0195557D01*
X0146504Y0196750D01*
X0149596Y0196750D01*
X0151059Y0195287D01*
X0151000Y0195228D01*
X0150261Y0195967D01*
X0146739Y0195967D01*
X0145919Y0195147D01*
X0145919Y0185326D01*
X0146739Y0184506D01*
X0150261Y0184506D01*
X0151000Y0185245D01*
X0151739Y0184506D01*
X0155261Y0184506D01*
X0156000Y0185245D01*
X0156739Y0184506D01*
X0160261Y0184506D01*
X0161000Y0185245D01*
X0161739Y0184506D01*
X0165261Y0184506D01*
X0166081Y0185326D01*
X0166081Y0193445D01*
X0166233Y0193388D01*
X0166471Y0193150D01*
X0166867Y0193150D01*
X0167494Y0192915D01*
X0167494Y0192847D01*
X0167993Y0191641D01*
X0168916Y0190718D01*
X0170122Y0190219D01*
X0171428Y0190219D01*
X0172634Y0190718D01*
X0173557Y0191641D01*
X0174025Y0192772D01*
X0174025Y0187454D01*
X0172321Y0185750D01*
X0171325Y0184754D01*
X0171325Y0157471D01*
X0172285Y0156511D01*
X0172219Y0156353D01*
X0172219Y0155047D01*
X0172718Y0153841D01*
X0173641Y0152918D01*
X0174847Y0152419D01*
X0176153Y0152419D01*
X0177359Y0152918D01*
X0177549Y0153109D01*
X0177438Y0136577D01*
X0177134Y0136882D01*
X0175928Y0137381D01*
X0174622Y0137381D01*
X0173416Y0136882D01*
X0173253Y0136718D01*
X0173253Y0138405D01*
X0168980Y0138405D01*
X0168980Y0139364D01*
X0173253Y0139364D01*
X0173253Y0141681D01*
X0173130Y0142139D01*
X0172893Y0142549D01*
X0172558Y0142884D01*
X0172528Y0142902D01*
X0172853Y0143226D01*
X0172853Y0149504D01*
X0172033Y0150324D01*
X0171574Y0150324D01*
X0171529Y0150474D01*
X0171496Y0150492D01*
X0170142Y0154477D01*
X0170407Y0154741D01*
X0170906Y0155947D01*
X0170906Y0157253D01*
X0170407Y0158459D01*
X0169484Y0159382D01*
X0168485Y0159795D01*
X0169282Y0160591D01*
X0169781Y0161797D01*
X0169781Y0163103D01*
X0169282Y0164309D01*
X0168359Y0165232D01*
X0167153Y0165731D01*
X0166081Y0165731D01*
X0166081Y0174674D01*
X0165261Y0175494D01*
X0161739Y0175494D01*
X0161000Y0174755D01*
X0160261Y0175494D01*
X0156739Y0175494D01*
X0156000Y0174755D01*
X0155261Y0175494D01*
X0151739Y0175494D01*
X0151000Y0174755D01*
X0150261Y0175494D01*
X0146739Y0175494D01*
X0145919Y0174674D01*
X0145919Y0164853D01*
X0146739Y0164033D01*
X0150261Y0164033D01*
X0151000Y0164772D01*
X0151739Y0164033D01*
X0152976Y0164033D01*
X0155429Y0152450D01*
X0152521Y0152450D01*
X0150946Y0150875D01*
X0149950Y0149879D01*
X0149950Y0134114D01*
X0149932Y0134159D01*
X0149009Y0135082D01*
X0147803Y0135581D01*
X0146497Y0135581D01*
X0145291Y0135082D01*
X0144368Y0134159D01*
X0144303Y0134000D01*
X0139304Y0134000D01*
X0138079Y0135226D01*
X0138456Y0135603D01*
X0138456Y0145424D01*
X0137636Y0146244D01*
X0134114Y0146244D01*
X0133375Y0145505D01*
X0132636Y0146244D01*
X0129114Y0146244D01*
X0128375Y0145505D01*
X0127636Y0146244D01*
X0124114Y0146244D01*
X0123375Y0145505D01*
X0122636Y0146244D01*
X0119114Y0146244D01*
X0118294Y0145424D01*
X0118294Y0135603D01*
X0119114Y0134783D01*
X0122636Y0134783D01*
X0123375Y0135522D01*
X0124114Y0134783D01*
X0124175Y0134783D01*
X0124175Y0126030D01*
X0118654Y0123628D01*
X0118258Y0124024D01*
X0111192Y0124024D01*
X0110372Y0123204D01*
X0110372Y0116926D01*
X0110697Y0116602D01*
X0110667Y0116584D01*
X0110332Y0116249D01*
X0110095Y0115839D01*
X0109972Y0115381D01*
X0109972Y0113064D01*
X0114245Y0113064D01*
X0114245Y0112105D01*
X0109972Y0112105D01*
X0109972Y0109789D01*
X0110095Y0109331D01*
X0110332Y0108921D01*
X0110667Y0108585D01*
X0111077Y0108348D01*
X0111535Y0108226D01*
X0114245Y0108226D01*
X0114245Y0112105D01*
X0115205Y0112105D01*
X0115205Y0113064D01*
X0119478Y0113064D01*
X0119478Y0115381D01*
X0119355Y0115839D01*
X0119118Y0116249D01*
X0118783Y0116584D01*
X0118753Y0116602D01*
X0119078Y0116926D01*
X0119078Y0120105D01*
X0126229Y0123215D01*
X0133806Y0123215D01*
X0134425Y0122596D01*
X0134425Y0116746D01*
X0136675Y0114496D01*
X0137671Y0113500D01*
X0146169Y0113500D01*
X0146344Y0113379D01*
X0146344Y0112522D01*
X0146843Y0111316D01*
X0147766Y0110393D01*
X0148972Y0109894D01*
X0150278Y0109894D01*
X0151484Y0110393D01*
X0152407Y0111316D01*
X0152906Y0112522D01*
X0152906Y0113828D01*
X0152625Y0114506D01*
X0155631Y0113700D01*
X0156453Y0112695D01*
X0153965Y0109475D01*
X0149665Y0109475D01*
X0149002Y0109507D01*
X0148968Y0109475D01*
X0148921Y0109475D01*
X0148452Y0109006D01*
X0144018Y0104975D01*
X0125545Y0104975D01*
X0124219Y0105324D01*
X0123832Y0106259D01*
X0122909Y0107182D01*
X0121703Y0107681D01*
X0120397Y0107681D01*
X0119191Y0107182D01*
X0118268Y0106259D01*
X0117769Y0105053D01*
X0117769Y0103747D01*
X0118268Y0102541D01*
X0119191Y0101618D01*
X0119839Y0101350D01*
X0116887Y0101350D01*
X0105175Y0113062D01*
X0105175Y0136462D01*
X0104062Y0137575D01*
X0089437Y0152200D01*
X0075713Y0152200D01*
X0074600Y0151087D01*
X0064961Y0141448D01*
X0063700Y0141448D01*
X0063700Y0191392D01*
X0095842Y0223535D01*
X0098727Y0223535D01*
X0100749Y0225557D01*
X0103171Y0223135D01*
X0104922Y0223135D01*
X0104922Y0227428D01*
X0105015Y0227428D01*
X0105015Y0227190D02*
X0104922Y0227190D01*
X0104922Y0225592D02*
X0105015Y0225592D01*
X0105015Y0223993D02*
X0104922Y0223993D01*
X0102313Y0223993D02*
X0099185Y0223993D01*
X0094702Y0222395D02*
X0122725Y0222395D01*
X0122725Y0220796D02*
X0093104Y0220796D01*
X0091505Y0219198D02*
X0122725Y0219198D01*
X0122045Y0217599D02*
X0089907Y0217599D01*
X0088308Y0216001D02*
X0120446Y0216001D01*
X0118848Y0214402D02*
X0086710Y0214402D01*
X0085111Y0212803D02*
X0117249Y0212803D01*
X0115651Y0211205D02*
X0083513Y0211205D01*
X0081914Y0209606D02*
X0114052Y0209606D01*
X0112454Y0208008D02*
X0080316Y0208008D01*
X0078717Y0206409D02*
X0098255Y0206409D01*
X0096657Y0204811D02*
X0077119Y0204811D01*
X0075520Y0203212D02*
X0095058Y0203212D01*
X0093460Y0201614D02*
X0073922Y0201614D01*
X0072323Y0200015D02*
X0091861Y0200015D01*
X0090775Y0198417D02*
X0070725Y0198417D01*
X0069126Y0196818D02*
X0090775Y0196818D01*
X0090775Y0195220D02*
X0067528Y0195220D01*
X0065929Y0193621D02*
X0088164Y0193621D01*
X0087497Y0192023D02*
X0064330Y0192023D01*
X0063700Y0190424D02*
X0087497Y0190424D01*
X0087497Y0188826D02*
X0063700Y0188826D01*
X0063700Y0187227D02*
X0087497Y0187227D01*
X0087243Y0185629D02*
X0063700Y0185629D01*
X0063700Y0184030D02*
X0087097Y0184030D01*
X0087097Y0180833D02*
X0063700Y0180833D01*
X0063700Y0179235D02*
X0087179Y0179235D01*
X0091370Y0179235D02*
X0092330Y0179235D01*
X0092330Y0177976D02*
X0095040Y0177976D01*
X0095498Y0178098D01*
X0095908Y0178335D01*
X0096243Y0178671D01*
X0096480Y0179081D01*
X0096603Y0179539D01*
X0096603Y0181855D01*
X0092330Y0181855D01*
X0092330Y0177976D01*
X0092330Y0180833D02*
X0091370Y0180833D01*
X0091370Y0182432D02*
X0063700Y0182432D01*
X0063700Y0177636D02*
X0103400Y0177636D01*
X0103400Y0176038D02*
X0063700Y0176038D01*
X0063700Y0174439D02*
X0103400Y0174439D01*
X0100747Y0172841D02*
X0063700Y0172841D01*
X0063700Y0171242D02*
X0098188Y0171242D01*
X0096590Y0169644D02*
X0063700Y0169644D01*
X0063700Y0168045D02*
X0094991Y0168045D01*
X0093393Y0166447D02*
X0063700Y0166447D01*
X0063700Y0164848D02*
X0091794Y0164848D01*
X0090195Y0163250D02*
X0063700Y0163250D01*
X0063700Y0161651D02*
X0088597Y0161651D01*
X0086998Y0160053D02*
X0063700Y0160053D01*
X0063700Y0158454D02*
X0083164Y0158454D01*
X0082444Y0156856D02*
X0063700Y0156856D01*
X0063700Y0155257D02*
X0082637Y0155257D01*
X0083801Y0153659D02*
X0063700Y0153659D01*
X0063700Y0152060D02*
X0075573Y0152060D01*
X0073975Y0150462D02*
X0063700Y0150462D01*
X0063700Y0148863D02*
X0072376Y0148863D01*
X0070778Y0147265D02*
X0063700Y0147265D01*
X0063700Y0145666D02*
X0069179Y0145666D01*
X0067581Y0144068D02*
X0063700Y0144068D01*
X0063700Y0142469D02*
X0065982Y0142469D01*
X0066560Y0137673D02*
X0066752Y0137673D01*
X0066752Y0136075D02*
X0066448Y0136075D01*
X0066448Y0134476D02*
X0066752Y0134476D01*
X0066869Y0132878D02*
X0066354Y0132878D01*
X0065492Y0129681D02*
X0068108Y0129681D01*
X0067300Y0128082D02*
X0066300Y0128082D01*
X0066448Y0126484D02*
X0067152Y0126484D01*
X0067562Y0124885D02*
X0066038Y0124885D01*
X0064860Y0123287D02*
X0068740Y0123287D01*
X0068517Y0120090D02*
X0065083Y0120090D01*
X0066130Y0118491D02*
X0067470Y0118491D01*
X0067152Y0116893D02*
X0066448Y0116893D01*
X0066207Y0115294D02*
X0067393Y0115294D01*
X0068331Y0113696D02*
X0065269Y0113696D01*
X0064675Y0110499D02*
X0068925Y0110499D01*
X0069167Y0110740D02*
X0067860Y0109433D01*
X0067152Y0107725D01*
X0067152Y0105875D01*
X0067860Y0104167D01*
X0069167Y0102860D01*
X0070875Y0102152D01*
X0072725Y0102152D01*
X0073657Y0102538D01*
X0073946Y0102250D01*
X0080178Y0102250D01*
X0080243Y0102091D01*
X0081166Y0101168D01*
X0082372Y0100669D01*
X0083678Y0100669D01*
X0084884Y0101168D01*
X0085807Y0102091D01*
X0086306Y0103297D01*
X0086306Y0104603D01*
X0085807Y0105809D01*
X0084884Y0106732D01*
X0083678Y0107231D01*
X0082372Y0107231D01*
X0081166Y0106732D01*
X0080243Y0105809D01*
X0080178Y0105650D01*
X0076355Y0105650D01*
X0076448Y0105875D01*
X0076448Y0107725D01*
X0075740Y0109433D01*
X0074433Y0110740D01*
X0072725Y0111448D01*
X0070875Y0111448D01*
X0069167Y0110740D01*
X0067639Y0108900D02*
X0065961Y0108900D01*
X0066448Y0107302D02*
X0067152Y0107302D01*
X0067223Y0105703D02*
X0066377Y0105703D01*
X0065678Y0104105D02*
X0067922Y0104105D01*
X0068498Y0102506D02*
X0070020Y0102506D01*
X0073580Y0102506D02*
X0073690Y0102506D01*
X0074029Y0100908D02*
X0081796Y0100908D01*
X0084254Y0100908D02*
X0111955Y0100908D01*
X0110357Y0102506D02*
X0085978Y0102506D01*
X0086306Y0104105D02*
X0108758Y0104105D01*
X0107160Y0105703D02*
X0085850Y0105703D01*
X0080200Y0105703D02*
X0076377Y0105703D01*
X0076448Y0107302D02*
X0105561Y0107302D01*
X0103963Y0108900D02*
X0075961Y0108900D01*
X0074675Y0110499D02*
X0102364Y0110499D01*
X0106140Y0112097D02*
X0109972Y0112097D01*
X0109972Y0110499D02*
X0107738Y0110499D01*
X0109337Y0108900D02*
X0110352Y0108900D01*
X0110935Y0107302D02*
X0119482Y0107302D01*
X0118783Y0108585D02*
X0119118Y0108921D01*
X0119355Y0109331D01*
X0119478Y0109789D01*
X0119478Y0112105D01*
X0115205Y0112105D01*
X0115205Y0108226D01*
X0117915Y0108226D01*
X0118373Y0108348D01*
X0118783Y0108585D01*
X0119098Y0108900D02*
X0148336Y0108900D01*
X0147661Y0110499D02*
X0119478Y0110499D01*
X0119478Y0112097D02*
X0146520Y0112097D01*
X0146577Y0107302D02*
X0122618Y0107302D01*
X0124062Y0105703D02*
X0144819Y0105703D01*
X0151589Y0110499D02*
X0154756Y0110499D01*
X0155992Y0112097D02*
X0152730Y0112097D01*
X0152906Y0113696D02*
X0155634Y0113696D01*
X0156851Y0116893D02*
X0162708Y0116893D01*
X0163902Y0118491D02*
X0157235Y0118491D01*
X0157784Y0118718D02*
X0158707Y0119641D01*
X0158787Y0119836D01*
X0159025Y0119597D01*
X0162154Y0119597D01*
X0162974Y0120418D01*
X0162974Y0122411D01*
X0163014Y0122451D01*
X0163251Y0122862D01*
X0163374Y0123320D01*
X0163374Y0124245D01*
X0160590Y0124245D01*
X0160590Y0124246D01*
X0163374Y0124246D01*
X0163374Y0125171D01*
X0163251Y0125629D01*
X0163014Y0126040D01*
X0162974Y0126080D01*
X0162974Y0128073D01*
X0162963Y0128084D01*
X0162974Y0128095D01*
X0162974Y0130632D01*
X0162154Y0131453D01*
X0159025Y0131453D01*
X0158911Y0131338D01*
X0156818Y0131657D01*
X0156657Y0131797D01*
X0156145Y0131759D01*
X0155638Y0131837D01*
X0155632Y0131833D01*
X0154989Y0132476D01*
X0157220Y0132476D01*
X0157220Y0136355D01*
X0158180Y0136355D01*
X0158180Y0137314D01*
X0162453Y0137314D01*
X0162453Y0139631D01*
X0162330Y0140089D01*
X0162093Y0140499D01*
X0161758Y0140834D01*
X0161728Y0140852D01*
X0162053Y0141176D01*
X0162053Y0147454D01*
X0161233Y0148274D01*
X0159789Y0148274D01*
X0159713Y0148633D01*
X0159746Y0149096D01*
X0159572Y0149297D01*
X0156374Y0164398D01*
X0156739Y0164033D01*
X0158722Y0164033D01*
X0160752Y0158285D01*
X0160714Y0158172D01*
X0160982Y0157635D01*
X0161182Y0157070D01*
X0161289Y0157018D01*
X0161342Y0156912D01*
X0161911Y0156721D01*
X0162452Y0156463D01*
X0162565Y0156502D01*
X0164364Y0155900D01*
X0164843Y0154741D01*
X0165766Y0153818D01*
X0166940Y0153332D01*
X0167962Y0150324D01*
X0164967Y0150324D01*
X0164147Y0149504D01*
X0164147Y0143226D01*
X0164472Y0142902D01*
X0164442Y0142884D01*
X0164107Y0142549D01*
X0163870Y0142139D01*
X0163747Y0141681D01*
X0163747Y0139364D01*
X0168020Y0139364D01*
X0168020Y0138405D01*
X0163747Y0138405D01*
X0163747Y0136089D01*
X0163870Y0135631D01*
X0164107Y0135221D01*
X0164442Y0134885D01*
X0164852Y0134648D01*
X0165310Y0134526D01*
X0168020Y0134526D01*
X0168020Y0138405D01*
X0168980Y0138405D01*
X0168980Y0134526D01*
X0171690Y0134526D01*
X0171994Y0134607D01*
X0171994Y0133487D01*
X0169669Y0131453D01*
X0167096Y0131453D01*
X0166276Y0130632D01*
X0166276Y0128095D01*
X0166287Y0128084D01*
X0166276Y0128073D01*
X0166276Y0125536D01*
X0166287Y0125525D01*
X0166276Y0125514D01*
X0166276Y0122977D01*
X0166287Y0122966D01*
X0166276Y0122955D01*
X0166276Y0121670D01*
X0160230Y0113576D01*
X0160222Y0113640D01*
X0159818Y0113952D01*
X0158003Y0116169D01*
X0157721Y0116659D01*
X0157569Y0116700D01*
X0157470Y0116821D01*
X0156907Y0116878D01*
X0149850Y0118771D01*
X0150809Y0119168D01*
X0151732Y0120091D01*
X0152231Y0121297D01*
X0152231Y0122603D01*
X0151769Y0123718D01*
X0153861Y0125063D01*
X0155853Y0125425D01*
X0156938Y0125425D01*
X0157841Y0125306D01*
X0157805Y0125171D01*
X0157805Y0124260D01*
X0157784Y0124282D01*
X0156578Y0124781D01*
X0155272Y0124781D01*
X0154066Y0124282D01*
X0153143Y0123359D01*
X0152644Y0122153D01*
X0152644Y0120847D01*
X0153143Y0119641D01*
X0154066Y0118718D01*
X0155272Y0118219D01*
X0156578Y0118219D01*
X0157784Y0118718D01*
X0154615Y0118491D02*
X0150893Y0118491D01*
X0151730Y0120090D02*
X0152958Y0120090D01*
X0152644Y0121688D02*
X0152231Y0121688D01*
X0151948Y0123287D02*
X0153114Y0123287D01*
X0153585Y0124885D02*
X0157805Y0124885D01*
X0162974Y0126484D02*
X0166276Y0126484D01*
X0166285Y0128082D02*
X0162965Y0128082D01*
X0162974Y0129681D02*
X0166276Y0129681D01*
X0166923Y0131279D02*
X0162327Y0131279D01*
X0161348Y0132598D02*
X0161758Y0132835D01*
X0162093Y0133171D01*
X0162330Y0133581D01*
X0162453Y0134039D01*
X0162453Y0136355D01*
X0158180Y0136355D01*
X0158180Y0132476D01*
X0160890Y0132476D01*
X0161348Y0132598D01*
X0161800Y0132878D02*
X0171298Y0132878D01*
X0171994Y0134476D02*
X0162453Y0134476D01*
X0162453Y0136075D02*
X0163751Y0136075D01*
X0163747Y0137673D02*
X0162453Y0137673D01*
X0162453Y0139272D02*
X0168020Y0139272D01*
X0168980Y0139272D02*
X0177456Y0139272D01*
X0177467Y0140870D02*
X0173253Y0140870D01*
X0172939Y0142469D02*
X0177477Y0142469D01*
X0177488Y0144068D02*
X0172853Y0144068D01*
X0172853Y0145666D02*
X0177499Y0145666D01*
X0177510Y0147265D02*
X0172853Y0147265D01*
X0172853Y0148863D02*
X0177520Y0148863D01*
X0177531Y0150462D02*
X0171533Y0150462D01*
X0170963Y0152060D02*
X0177542Y0152060D01*
X0172901Y0153659D02*
X0170420Y0153659D01*
X0170620Y0155257D02*
X0172219Y0155257D01*
X0171940Y0156856D02*
X0170906Y0156856D01*
X0171325Y0158454D02*
X0170408Y0158454D01*
X0171325Y0160053D02*
X0168743Y0160053D01*
X0169721Y0161651D02*
X0171325Y0161651D01*
X0171325Y0163250D02*
X0169720Y0163250D01*
X0168742Y0164848D02*
X0171325Y0164848D01*
X0171325Y0166447D02*
X0166081Y0166447D01*
X0166081Y0168045D02*
X0171325Y0168045D01*
X0171325Y0169644D02*
X0166081Y0169644D01*
X0166081Y0171242D02*
X0171325Y0171242D01*
X0171325Y0172841D02*
X0166081Y0172841D01*
X0166081Y0174439D02*
X0171325Y0174439D01*
X0171325Y0176038D02*
X0143092Y0176038D01*
X0143231Y0174439D02*
X0145919Y0174439D01*
X0145919Y0172841D02*
X0142381Y0172841D01*
X0145919Y0171242D02*
X0132437Y0171242D01*
X0132650Y0169644D02*
X0145919Y0169644D01*
X0145919Y0168045D02*
X0132650Y0168045D01*
X0132906Y0166447D02*
X0133844Y0166447D01*
X0129250Y0168045D02*
X0127309Y0168045D01*
X0127906Y0166447D02*
X0128844Y0166447D01*
X0129227Y0169644D02*
X0125710Y0169644D01*
X0126029Y0169325D02*
X0126029Y0169325D01*
X0127900Y0171242D02*
X0124112Y0171242D01*
X0124198Y0172841D02*
X0127900Y0172841D01*
X0127900Y0174439D02*
X0124903Y0174439D01*
X0124903Y0176038D02*
X0127900Y0176038D01*
X0127900Y0177636D02*
X0124903Y0177636D01*
X0124903Y0179235D02*
X0127900Y0179235D01*
X0127900Y0180833D02*
X0125135Y0180833D01*
X0125303Y0182432D02*
X0127900Y0182432D01*
X0127900Y0184030D02*
X0121030Y0184030D01*
X0120070Y0184030D02*
X0106800Y0184030D01*
X0106800Y0182432D02*
X0115797Y0182432D01*
X0115965Y0180833D02*
X0106800Y0180833D01*
X0106800Y0179235D02*
X0116197Y0179235D01*
X0116197Y0177636D02*
X0106800Y0177636D01*
X0106800Y0176038D02*
X0116197Y0176038D01*
X0116197Y0174439D02*
X0106800Y0174439D01*
X0109453Y0172841D02*
X0116902Y0172841D01*
X0114718Y0171242D02*
X0109453Y0171242D01*
X0109453Y0169644D02*
X0111890Y0169644D01*
X0109710Y0168045D02*
X0109453Y0168045D01*
X0109495Y0166447D02*
X0109766Y0166447D01*
X0109853Y0164848D02*
X0109934Y0164848D01*
X0110102Y0163250D02*
X0105580Y0163250D01*
X0104620Y0163250D02*
X0095004Y0163250D01*
X0096602Y0164848D02*
X0100347Y0164848D01*
X0100705Y0166447D02*
X0098201Y0166447D01*
X0099799Y0168045D02*
X0100747Y0168045D01*
X0100347Y0161651D02*
X0093405Y0161651D01*
X0091807Y0160053D02*
X0100347Y0160053D01*
X0101805Y0158454D02*
X0090208Y0158454D01*
X0089006Y0156856D02*
X0118294Y0156856D01*
X0118294Y0158454D02*
X0114878Y0158454D01*
X0115331Y0160053D02*
X0118294Y0160053D01*
X0118294Y0161651D02*
X0115000Y0161651D01*
X0114035Y0163250D02*
X0113521Y0163250D01*
X0109222Y0158454D02*
X0108395Y0158454D01*
X0105580Y0158454D02*
X0104620Y0158454D01*
X0104620Y0160053D02*
X0105580Y0160053D01*
X0105580Y0161651D02*
X0104620Y0161651D01*
X0119112Y0155257D02*
X0088813Y0155257D01*
X0087649Y0153659D02*
X0155173Y0153659D01*
X0154834Y0155257D02*
X0137638Y0155257D01*
X0138456Y0156856D02*
X0154496Y0156856D01*
X0154157Y0158454D02*
X0138456Y0158454D01*
X0138456Y0160053D02*
X0153819Y0160053D01*
X0153480Y0161651D02*
X0138456Y0161651D01*
X0138456Y0163250D02*
X0153142Y0163250D01*
X0156617Y0163250D02*
X0158998Y0163250D01*
X0159563Y0161651D02*
X0156956Y0161651D01*
X0157294Y0160053D02*
X0160128Y0160053D01*
X0160693Y0158454D02*
X0157633Y0158454D01*
X0157971Y0156856D02*
X0161510Y0156856D01*
X0164630Y0155257D02*
X0158310Y0155257D01*
X0158648Y0153659D02*
X0166152Y0153659D01*
X0167372Y0152060D02*
X0158987Y0152060D01*
X0159325Y0150462D02*
X0167915Y0150462D01*
X0164147Y0148863D02*
X0159729Y0148863D01*
X0162053Y0147265D02*
X0164147Y0147265D01*
X0164147Y0145666D02*
X0162053Y0145666D01*
X0162053Y0144068D02*
X0164147Y0144068D01*
X0164061Y0142469D02*
X0162053Y0142469D01*
X0161747Y0140870D02*
X0163747Y0140870D01*
X0168020Y0137673D02*
X0168980Y0137673D01*
X0168980Y0136075D02*
X0168020Y0136075D01*
X0173253Y0137673D02*
X0177445Y0137673D01*
X0166276Y0124885D02*
X0163374Y0124885D01*
X0163365Y0123287D02*
X0166276Y0123287D01*
X0166276Y0121688D02*
X0162974Y0121688D01*
X0162646Y0120090D02*
X0165096Y0120090D01*
X0161514Y0115294D02*
X0158719Y0115294D01*
X0160149Y0113696D02*
X0160320Y0113696D01*
X0165563Y0108900D02*
X0178220Y0108900D01*
X0178220Y0109445D02*
X0173947Y0109445D01*
X0173947Y0111761D01*
X0174070Y0112219D01*
X0174307Y0112629D01*
X0174642Y0112965D01*
X0175052Y0113202D01*
X0175510Y0113324D01*
X0178220Y0113324D01*
X0178220Y0109445D01*
X0178220Y0110499D02*
X0179180Y0110499D01*
X0179180Y0112097D02*
X0178220Y0112097D01*
X0179180Y0108900D02*
X0184072Y0108900D01*
X0183677Y0107302D02*
X0183453Y0107302D01*
X0183453Y0110499D02*
X0184466Y0110499D01*
X0184861Y0112097D02*
X0183363Y0112097D01*
X0185256Y0113696D02*
X0169559Y0113696D01*
X0168227Y0112097D02*
X0174037Y0112097D01*
X0173947Y0110499D02*
X0166895Y0110499D01*
X0170891Y0115294D02*
X0185650Y0115294D01*
X0185059Y0116893D02*
X0178388Y0116893D01*
X0183250Y0118491D02*
X0184819Y0118491D01*
X0184950Y0120090D02*
X0185425Y0120090D01*
X0186651Y0121688D02*
X0191735Y0121688D01*
X0191216Y0120090D02*
X0190775Y0120090D01*
X0192254Y0123287D02*
X0188352Y0123287D01*
X0190052Y0124885D02*
X0192774Y0124885D01*
X0193160Y0126484D02*
X0191753Y0126484D01*
X0173947Y0107302D02*
X0164231Y0107302D01*
X0162899Y0105703D02*
X0174075Y0105703D01*
X0174347Y0104105D02*
X0161567Y0104105D01*
X0160235Y0102506D02*
X0174347Y0102506D01*
X0174347Y0100908D02*
X0158903Y0100908D01*
X0157571Y0099309D02*
X0174347Y0099309D01*
X0174982Y0097711D02*
X0156238Y0097711D01*
X0154906Y0096112D02*
X0183426Y0096112D01*
X0182907Y0094514D02*
X0153574Y0094514D01*
X0152675Y0092915D02*
X0182387Y0092915D01*
X0181868Y0091317D02*
X0157511Y0091317D01*
X0158306Y0089718D02*
X0181349Y0089718D01*
X0180829Y0088120D02*
X0158306Y0088120D01*
X0158306Y0086521D02*
X0180310Y0086521D01*
X0179791Y0084923D02*
X0158306Y0084923D01*
X0158306Y0083324D02*
X0179271Y0083324D01*
X0178750Y0081726D02*
X0158306Y0081726D01*
X0157733Y0080127D02*
X0178750Y0080127D01*
X0178750Y0078529D02*
X0133503Y0078529D01*
X0131547Y0078529D02*
X0124503Y0078529D01*
X0125937Y0080127D02*
X0129615Y0080127D01*
X0129244Y0081726D02*
X0127372Y0081726D01*
X0128807Y0083324D02*
X0129657Y0083324D01*
X0130241Y0084923D02*
X0131791Y0084923D01*
X0133259Y0084923D02*
X0133368Y0084923D01*
X0134967Y0086521D02*
X0131676Y0086521D01*
X0133110Y0088120D02*
X0134040Y0088120D01*
X0131411Y0091317D02*
X0128870Y0091317D01*
X0127799Y0089718D02*
X0129976Y0089718D01*
X0128542Y0088120D02*
X0127701Y0088120D01*
X0127107Y0086521D02*
X0076448Y0086521D01*
X0076284Y0088120D02*
X0112119Y0088120D01*
X0112001Y0089718D02*
X0075455Y0089718D01*
X0073042Y0091317D02*
X0078986Y0091317D01*
X0080764Y0091317D02*
X0115880Y0091317D01*
X0115880Y0092915D02*
X0116839Y0092915D01*
X0116839Y0094514D02*
X0115880Y0094514D01*
X0115880Y0096112D02*
X0116839Y0096112D01*
X0115152Y0097711D02*
X0080698Y0097711D01*
X0079052Y0097711D02*
X0076448Y0097711D01*
X0075792Y0099309D02*
X0113554Y0099309D01*
X0115731Y0102506D02*
X0118304Y0102506D01*
X0117769Y0104105D02*
X0114132Y0104105D01*
X0112534Y0105703D02*
X0118038Y0105703D01*
X0115205Y0108900D02*
X0114245Y0108900D01*
X0114245Y0110499D02*
X0115205Y0110499D01*
X0115205Y0112097D02*
X0114245Y0112097D01*
X0119478Y0113696D02*
X0137475Y0113696D01*
X0135877Y0115294D02*
X0119478Y0115294D01*
X0119044Y0116893D02*
X0134425Y0116893D01*
X0134425Y0118491D02*
X0119078Y0118491D01*
X0119078Y0120090D02*
X0134425Y0120090D01*
X0134425Y0121688D02*
X0122719Y0121688D01*
X0121545Y0124885D02*
X0105175Y0124885D01*
X0105175Y0123287D02*
X0110455Y0123287D01*
X0110372Y0121688D02*
X0105175Y0121688D01*
X0105175Y0120090D02*
X0110372Y0120090D01*
X0110372Y0118491D02*
X0105175Y0118491D01*
X0105175Y0116893D02*
X0110406Y0116893D01*
X0109972Y0115294D02*
X0105175Y0115294D01*
X0105175Y0113696D02*
X0109972Y0113696D01*
X0105175Y0126484D02*
X0124175Y0126484D01*
X0124175Y0128082D02*
X0105175Y0128082D01*
X0105175Y0129681D02*
X0124175Y0129681D01*
X0124175Y0131279D02*
X0105175Y0131279D01*
X0105175Y0132878D02*
X0124175Y0132878D01*
X0124175Y0134476D02*
X0105175Y0134476D01*
X0105175Y0136075D02*
X0118294Y0136075D01*
X0118294Y0137673D02*
X0103964Y0137673D01*
X0102365Y0139272D02*
X0118294Y0139272D01*
X0118294Y0140870D02*
X0100766Y0140870D01*
X0099168Y0142469D02*
X0118294Y0142469D01*
X0118294Y0144068D02*
X0097569Y0144068D01*
X0095971Y0145666D02*
X0118536Y0145666D01*
X0123214Y0145666D02*
X0123536Y0145666D01*
X0128214Y0145666D02*
X0128536Y0145666D01*
X0133214Y0145666D02*
X0133536Y0145666D01*
X0138214Y0145666D02*
X0149950Y0145666D01*
X0149950Y0144068D02*
X0138456Y0144068D01*
X0138456Y0142469D02*
X0149950Y0142469D01*
X0149950Y0140870D02*
X0138456Y0140870D01*
X0138456Y0139272D02*
X0149950Y0139272D01*
X0149950Y0137673D02*
X0138456Y0137673D01*
X0138456Y0136075D02*
X0149950Y0136075D01*
X0149950Y0134476D02*
X0149614Y0134476D01*
X0144686Y0134476D02*
X0138828Y0134476D01*
X0149950Y0147265D02*
X0094372Y0147265D01*
X0092774Y0148863D02*
X0149950Y0148863D01*
X0150532Y0150462D02*
X0091175Y0150462D01*
X0089577Y0152060D02*
X0152131Y0152060D01*
X0145924Y0164848D02*
X0138456Y0164848D01*
X0137906Y0166447D02*
X0145919Y0166447D01*
X0137519Y0172841D02*
X0131300Y0172841D01*
X0131300Y0174439D02*
X0136669Y0174439D01*
X0136558Y0176038D02*
X0131300Y0176038D01*
X0131300Y0177636D02*
X0135100Y0177636D01*
X0135100Y0179235D02*
X0131300Y0179235D01*
X0131300Y0180833D02*
X0135100Y0180833D01*
X0135100Y0182432D02*
X0131300Y0182432D01*
X0131300Y0184030D02*
X0135100Y0184030D01*
X0135100Y0185629D02*
X0131300Y0185629D01*
X0131300Y0187227D02*
X0135100Y0187227D01*
X0135100Y0188826D02*
X0131300Y0188826D01*
X0131300Y0190424D02*
X0135100Y0190424D01*
X0135100Y0192023D02*
X0131300Y0192023D01*
X0129858Y0193621D02*
X0135100Y0193621D01*
X0135100Y0195220D02*
X0128259Y0195220D01*
X0126661Y0196818D02*
X0135544Y0196818D01*
X0135948Y0198417D02*
X0125062Y0198417D01*
X0123464Y0200015D02*
X0136268Y0200015D01*
X0135179Y0201614D02*
X0121865Y0201614D01*
X0120267Y0203212D02*
X0134701Y0203212D01*
X0134701Y0204811D02*
X0118668Y0204811D01*
X0117070Y0206409D02*
X0134701Y0206409D01*
X0134701Y0208008D02*
X0117262Y0208008D01*
X0118861Y0209606D02*
X0135150Y0209606D01*
X0137422Y0211205D02*
X0120459Y0211205D01*
X0122058Y0212803D02*
X0137556Y0212803D01*
X0137690Y0214402D02*
X0123656Y0214402D01*
X0125255Y0216001D02*
X0137824Y0216001D01*
X0137958Y0217599D02*
X0126125Y0217599D01*
X0126125Y0219198D02*
X0138092Y0219198D01*
X0138226Y0220796D02*
X0126125Y0220796D01*
X0126125Y0222395D02*
X0138360Y0222395D01*
X0141772Y0222395D02*
X0152526Y0222395D01*
X0154125Y0220796D02*
X0141638Y0220796D01*
X0141504Y0219198D02*
X0155723Y0219198D01*
X0157322Y0217599D02*
X0141370Y0217599D01*
X0141236Y0216001D02*
X0167245Y0216001D01*
X0168844Y0214402D02*
X0141102Y0214402D01*
X0140968Y0212803D02*
X0170442Y0212803D01*
X0172041Y0211205D02*
X0140834Y0211205D01*
X0145661Y0209606D02*
X0146620Y0209606D01*
X0146620Y0210378D02*
X0146620Y0206105D01*
X0150499Y0206105D01*
X0150499Y0208815D01*
X0150377Y0209273D01*
X0150140Y0209683D01*
X0149804Y0210018D01*
X0149394Y0210255D01*
X0148936Y0210378D01*
X0146620Y0210378D01*
X0146620Y0208008D02*
X0145661Y0208008D01*
X0145661Y0206409D02*
X0146620Y0206409D01*
X0146620Y0204811D02*
X0145661Y0204811D01*
X0145661Y0203212D02*
X0146620Y0203212D01*
X0146620Y0201614D02*
X0145661Y0201614D01*
X0144961Y0200015D02*
X0139693Y0200015D01*
X0139499Y0198417D02*
X0143363Y0198417D01*
X0140776Y0196818D02*
X0139051Y0196818D01*
X0139400Y0195220D02*
X0138647Y0195220D01*
X0138500Y0193621D02*
X0139144Y0193621D01*
X0139712Y0192023D02*
X0138500Y0192023D01*
X0138500Y0190424D02*
X0145919Y0190424D01*
X0145919Y0188826D02*
X0138500Y0188826D01*
X0138500Y0187227D02*
X0145919Y0187227D01*
X0145919Y0185629D02*
X0138500Y0185629D01*
X0138500Y0184030D02*
X0171325Y0184030D01*
X0171325Y0182432D02*
X0138500Y0182432D01*
X0138500Y0180833D02*
X0171325Y0180833D01*
X0171325Y0179235D02*
X0138500Y0179235D01*
X0142004Y0177636D02*
X0171325Y0177636D01*
X0172200Y0185629D02*
X0166081Y0185629D01*
X0166081Y0187227D02*
X0173798Y0187227D01*
X0174025Y0188826D02*
X0166081Y0188826D01*
X0166081Y0190424D02*
X0169626Y0190424D01*
X0171924Y0190424D02*
X0174025Y0190424D01*
X0174025Y0192023D02*
X0173715Y0192023D01*
X0173614Y0195220D02*
X0174025Y0195220D01*
X0174025Y0196818D02*
X0167611Y0196818D01*
X0167599Y0198417D02*
X0174025Y0198417D01*
X0174025Y0200015D02*
X0168134Y0200015D01*
X0171771Y0201614D02*
X0174025Y0201614D01*
X0174025Y0203212D02*
X0172224Y0203212D01*
X0172224Y0204811D02*
X0174025Y0204811D01*
X0174025Y0206409D02*
X0172224Y0206409D01*
X0172224Y0208008D02*
X0174025Y0208008D01*
X0173639Y0209606D02*
X0171750Y0209606D01*
X0161264Y0209606D02*
X0160305Y0209606D01*
X0160305Y0208008D02*
X0161264Y0208008D01*
X0161264Y0206409D02*
X0160305Y0206409D01*
X0160305Y0205120D02*
X0156426Y0205120D01*
X0156426Y0202410D01*
X0156548Y0201952D01*
X0156785Y0201542D01*
X0157121Y0201207D01*
X0157531Y0200970D01*
X0157989Y0200847D01*
X0160305Y0200847D01*
X0160305Y0205120D01*
X0160305Y0204811D02*
X0161264Y0204811D01*
X0161264Y0203212D02*
X0160305Y0203212D01*
X0160305Y0201614D02*
X0161264Y0201614D01*
X0162478Y0200015D02*
X0151139Y0200015D01*
X0150167Y0201614D02*
X0156744Y0201614D01*
X0156426Y0203212D02*
X0150499Y0203212D01*
X0150499Y0204811D02*
X0156426Y0204811D01*
X0156426Y0206409D02*
X0150499Y0206409D01*
X0150499Y0208008D02*
X0156426Y0208008D01*
X0156756Y0209606D02*
X0150184Y0209606D01*
X0152737Y0198417D02*
X0157077Y0198417D01*
X0156723Y0196818D02*
X0154336Y0196818D01*
X0145992Y0195220D02*
X0145450Y0195220D01*
X0145706Y0193621D02*
X0145919Y0193621D01*
X0145919Y0192023D02*
X0145138Y0192023D01*
X0127900Y0190424D02*
X0112040Y0190424D01*
X0112631Y0192023D02*
X0126648Y0192023D01*
X0125049Y0193621D02*
X0112385Y0193621D01*
X0111056Y0195220D02*
X0123451Y0195220D01*
X0121852Y0196818D02*
X0094175Y0196818D01*
X0094175Y0195220D02*
X0107644Y0195220D01*
X0106315Y0193621D02*
X0095535Y0193621D01*
X0096203Y0192023D02*
X0106069Y0192023D01*
X0104995Y0190424D02*
X0096203Y0190424D01*
X0096203Y0188826D02*
X0103400Y0188826D01*
X0103400Y0187227D02*
X0096203Y0187227D01*
X0096457Y0185629D02*
X0103400Y0185629D01*
X0103400Y0184030D02*
X0096603Y0184030D01*
X0096603Y0180833D02*
X0103400Y0180833D01*
X0103400Y0179235D02*
X0096521Y0179235D01*
X0092330Y0182432D02*
X0103400Y0182432D01*
X0106800Y0185629D02*
X0115797Y0185629D01*
X0115797Y0184645D02*
X0120070Y0184645D01*
X0120070Y0188524D01*
X0117360Y0188524D01*
X0116902Y0188402D01*
X0116492Y0188165D01*
X0116157Y0187829D01*
X0115920Y0187419D01*
X0115797Y0186961D01*
X0115797Y0184645D01*
X0115869Y0187227D02*
X0106800Y0187227D01*
X0108205Y0188826D02*
X0127900Y0188826D01*
X0127900Y0187227D02*
X0125231Y0187227D01*
X0125303Y0185629D02*
X0127900Y0185629D01*
X0121030Y0185629D02*
X0120070Y0185629D01*
X0120070Y0187227D02*
X0121030Y0187227D01*
X0120254Y0198417D02*
X0095071Y0198417D01*
X0096670Y0200015D02*
X0118655Y0200015D01*
X0117057Y0201614D02*
X0098268Y0201614D01*
X0107625Y0223993D02*
X0110753Y0223993D01*
X0114933Y0223993D02*
X0118627Y0223993D01*
X0117028Y0225592D02*
X0116531Y0225592D01*
X0126125Y0223993D02*
X0126501Y0223993D01*
X0130681Y0223993D02*
X0134375Y0223993D01*
X0132776Y0225592D02*
X0132279Y0225592D01*
X0141906Y0223993D02*
X0142249Y0223993D01*
X0146429Y0223993D02*
X0150123Y0223993D01*
X0148525Y0225592D02*
X0148027Y0225592D01*
X0148240Y0252766D02*
X0148312Y0252766D01*
X0149910Y0254365D02*
X0146642Y0254365D01*
X0146039Y0255963D02*
X0150513Y0255963D01*
X0150513Y0257562D02*
X0146039Y0257562D01*
X0146039Y0259160D02*
X0150513Y0259160D01*
X0150513Y0260759D02*
X0146039Y0260759D01*
X0146039Y0262357D02*
X0150513Y0262357D01*
X0150513Y0263956D02*
X0146039Y0263956D01*
X0145000Y0265554D02*
X0148966Y0265554D01*
X0147368Y0267153D02*
X0143401Y0267153D01*
X0141790Y0263956D02*
X0035285Y0263956D01*
X0033687Y0262357D02*
X0142639Y0262357D01*
X0142639Y0260759D02*
X0032088Y0260759D01*
X0030489Y0259160D02*
X0142639Y0259160D01*
X0142639Y0257562D02*
X0028891Y0257562D01*
X0027292Y0255963D02*
X0142639Y0255963D01*
X0142036Y0254365D02*
X0138768Y0254365D01*
X0140366Y0252766D02*
X0140438Y0252766D01*
X0134162Y0254365D02*
X0130894Y0254365D01*
X0132492Y0252766D02*
X0132564Y0252766D01*
X0126288Y0254365D02*
X0123019Y0254365D01*
X0124618Y0252766D02*
X0124690Y0252766D01*
X0118414Y0254365D02*
X0115145Y0254365D01*
X0116744Y0252766D02*
X0116816Y0252766D01*
X0110540Y0254365D02*
X0107837Y0254365D01*
X0079138Y0231986D02*
X0071421Y0231986D01*
X0072196Y0230387D02*
X0078689Y0230387D01*
X0077407Y0228789D02*
X0072196Y0228789D01*
X0072026Y0227190D02*
X0077407Y0227190D01*
X0077658Y0225592D02*
X0070427Y0225592D01*
X0064668Y0225592D02*
X0063026Y0225592D01*
X0022825Y0225592D02*
X0016550Y0225592D01*
X0016550Y0227190D02*
X0022825Y0227190D01*
X0022825Y0228789D02*
X0016550Y0228789D01*
X0016550Y0230387D02*
X0022825Y0230387D01*
X0022825Y0231986D02*
X0016550Y0231986D01*
X0016550Y0233584D02*
X0022825Y0233584D01*
X0022825Y0235183D02*
X0016550Y0235183D01*
X0016550Y0236781D02*
X0022825Y0236781D01*
X0022825Y0238380D02*
X0016550Y0238380D01*
X0016550Y0239978D02*
X0022825Y0239978D01*
X0022825Y0241577D02*
X0016550Y0241577D01*
X0016550Y0243175D02*
X0022825Y0243175D01*
X0022825Y0244774D02*
X0016550Y0244774D01*
X0016550Y0246372D02*
X0022825Y0246372D01*
X0022825Y0247971D02*
X0016550Y0247971D01*
X0016550Y0249569D02*
X0022825Y0249569D01*
X0022825Y0251168D02*
X0016550Y0251168D01*
X0016550Y0252766D02*
X0022825Y0252766D01*
X0022825Y0254365D02*
X0016550Y0254365D01*
X0016550Y0255963D02*
X0022825Y0255963D01*
X0024083Y0257562D02*
X0016550Y0257562D01*
X0018114Y0259160D02*
X0025681Y0259160D01*
X0027280Y0260759D02*
X0019713Y0260759D01*
X0021312Y0262357D02*
X0028878Y0262357D01*
X0030477Y0263956D02*
X0022910Y0263956D01*
X0024509Y0265554D02*
X0032075Y0265554D01*
X0033674Y0267153D02*
X0026107Y0267153D01*
X0024496Y0270350D02*
X0004900Y0270350D01*
X0004900Y0268751D02*
X0022897Y0268751D01*
X0021299Y0267153D02*
X0004900Y0267153D01*
X0004900Y0265554D02*
X0019700Y0265554D01*
X0018102Y0263956D02*
X0004900Y0263956D01*
X0004900Y0262357D02*
X0016503Y0262357D01*
X0014905Y0260759D02*
X0004900Y0260759D01*
X0004900Y0259160D02*
X0013306Y0259160D01*
X0013150Y0257562D02*
X0004900Y0257562D01*
X0004900Y0255963D02*
X0013150Y0255963D01*
X0013150Y0254365D02*
X0004900Y0254365D01*
X0004900Y0252766D02*
X0013150Y0252766D01*
X0013150Y0251168D02*
X0004900Y0251168D01*
X0004900Y0249569D02*
X0013150Y0249569D01*
X0013150Y0247971D02*
X0004900Y0247971D01*
X0004900Y0246372D02*
X0013150Y0246372D01*
X0013150Y0244774D02*
X0004900Y0244774D01*
X0004900Y0243175D02*
X0013150Y0243175D01*
X0013150Y0241577D02*
X0004900Y0241577D01*
X0004900Y0239978D02*
X0013150Y0239978D01*
X0013150Y0238380D02*
X0004900Y0238380D01*
X0004900Y0236781D02*
X0013150Y0236781D01*
X0013150Y0235183D02*
X0004900Y0235183D01*
X0004900Y0233584D02*
X0013150Y0233584D01*
X0013150Y0231986D02*
X0004900Y0231986D01*
X0004900Y0230387D02*
X0013150Y0230387D01*
X0013150Y0228789D02*
X0004900Y0228789D01*
X0004900Y0227190D02*
X0013150Y0227190D01*
X0013150Y0225592D02*
X0004900Y0225592D01*
X0004900Y0223993D02*
X0013150Y0223993D01*
X0013150Y0222395D02*
X0004900Y0222395D01*
X0004900Y0220796D02*
X0013150Y0220796D01*
X0013150Y0219198D02*
X0004900Y0219198D01*
X0004900Y0217599D02*
X0013150Y0217599D01*
X0013150Y0216001D02*
X0004900Y0216001D01*
X0004900Y0214402D02*
X0013150Y0214402D01*
X0013150Y0212803D02*
X0004900Y0212803D01*
X0004900Y0211205D02*
X0013150Y0211205D01*
X0013150Y0209606D02*
X0004900Y0209606D01*
X0004900Y0208008D02*
X0013150Y0208008D01*
X0013150Y0206409D02*
X0004900Y0206409D01*
X0004900Y0204811D02*
X0013150Y0204811D01*
X0013150Y0203212D02*
X0004900Y0203212D01*
X0004900Y0201614D02*
X0013150Y0201614D01*
X0013150Y0200015D02*
X0004900Y0200015D01*
X0004900Y0198417D02*
X0013150Y0198417D01*
X0013150Y0196818D02*
X0004900Y0196818D01*
X0004900Y0195220D02*
X0013150Y0195220D01*
X0013150Y0193621D02*
X0004900Y0193621D01*
X0004900Y0192023D02*
X0013150Y0192023D01*
X0013150Y0190424D02*
X0004900Y0190424D01*
X0004900Y0188826D02*
X0013150Y0188826D01*
X0013150Y0187227D02*
X0004900Y0187227D01*
X0004900Y0185629D02*
X0013150Y0185629D01*
X0013150Y0184030D02*
X0004900Y0184030D01*
X0004900Y0182432D02*
X0013150Y0182432D01*
X0013150Y0180833D02*
X0004900Y0180833D01*
X0004900Y0179235D02*
X0013150Y0179235D01*
X0013150Y0177636D02*
X0004900Y0177636D01*
X0004900Y0176038D02*
X0013150Y0176038D01*
X0013150Y0174439D02*
X0004900Y0174439D01*
X0004900Y0172841D02*
X0013150Y0172841D01*
X0013150Y0171242D02*
X0004900Y0171242D01*
X0004900Y0169644D02*
X0013150Y0169644D01*
X0013150Y0168045D02*
X0004900Y0168045D01*
X0004900Y0166447D02*
X0013150Y0166447D01*
X0013150Y0164848D02*
X0004900Y0164848D01*
X0004900Y0163250D02*
X0013150Y0163250D01*
X0013150Y0161651D02*
X0004900Y0161651D01*
X0004900Y0160053D02*
X0013150Y0160053D01*
X0013150Y0158454D02*
X0004900Y0158454D01*
X0004900Y0156856D02*
X0013150Y0156856D01*
X0013150Y0155257D02*
X0004900Y0155257D01*
X0004900Y0153659D02*
X0013150Y0153659D01*
X0013150Y0152060D02*
X0004900Y0152060D01*
X0004900Y0150462D02*
X0013150Y0150462D01*
X0013150Y0148863D02*
X0004900Y0148863D01*
X0004900Y0147265D02*
X0013150Y0147265D01*
X0013150Y0145666D02*
X0004900Y0145666D01*
X0004900Y0144068D02*
X0013150Y0144068D01*
X0013150Y0142469D02*
X0004900Y0142469D01*
X0004900Y0140870D02*
X0013150Y0140870D01*
X0013150Y0139272D02*
X0004900Y0139272D01*
X0004900Y0137673D02*
X0013150Y0137673D01*
X0013150Y0136075D02*
X0004900Y0136075D01*
X0004900Y0134476D02*
X0013150Y0134476D01*
X0013150Y0132878D02*
X0004900Y0132878D01*
X0004900Y0131279D02*
X0013150Y0131279D01*
X0013150Y0129681D02*
X0004900Y0129681D01*
X0004900Y0128082D02*
X0013150Y0128082D01*
X0013150Y0126484D02*
X0004900Y0126484D01*
X0004900Y0124885D02*
X0013150Y0124885D01*
X0013150Y0123287D02*
X0004900Y0123287D01*
X0004900Y0121688D02*
X0013150Y0121688D01*
X0013150Y0120090D02*
X0004900Y0120090D01*
X0004900Y0118491D02*
X0013150Y0118491D01*
X0013150Y0116893D02*
X0004900Y0116893D01*
X0004900Y0115294D02*
X0013150Y0115294D01*
X0013150Y0113696D02*
X0004900Y0113696D01*
X0004900Y0112097D02*
X0013150Y0112097D01*
X0013150Y0110499D02*
X0004900Y0110499D01*
X0004900Y0108900D02*
X0013150Y0108900D01*
X0013150Y0107302D02*
X0004900Y0107302D01*
X0004900Y0105703D02*
X0013150Y0105703D01*
X0013150Y0104105D02*
X0004900Y0104105D01*
X0004900Y0102506D02*
X0013150Y0102506D01*
X0013150Y0100908D02*
X0004900Y0100908D01*
X0004900Y0099309D02*
X0013150Y0099309D01*
X0013150Y0097711D02*
X0004900Y0097711D01*
X0004900Y0096112D02*
X0013150Y0096112D01*
X0013150Y0094514D02*
X0004900Y0094514D01*
X0004900Y0092915D02*
X0013150Y0092915D01*
X0013150Y0091317D02*
X0004900Y0091317D01*
X0004900Y0089718D02*
X0013150Y0089718D01*
X0013150Y0088120D02*
X0004900Y0088120D01*
X0004900Y0086521D02*
X0013150Y0086521D01*
X0013150Y0084923D02*
X0004900Y0084923D01*
X0004900Y0083324D02*
X0013150Y0083324D01*
X0013745Y0081726D02*
X0004900Y0081726D01*
X0004900Y0080127D02*
X0015344Y0080127D01*
X0016942Y0078529D02*
X0004900Y0078529D01*
X0004900Y0076930D02*
X0018541Y0076930D01*
X0020139Y0075332D02*
X0004900Y0075332D01*
X0004900Y0073733D02*
X0021738Y0073733D01*
X0023336Y0072134D02*
X0004900Y0072134D01*
X0004900Y0070536D02*
X0024935Y0070536D01*
X0026533Y0068937D02*
X0004900Y0068937D01*
X0004900Y0067339D02*
X0057152Y0067339D01*
X0057208Y0065740D02*
X0046415Y0065740D01*
X0047985Y0064142D02*
X0057885Y0064142D01*
X0059930Y0062543D02*
X0048281Y0062543D01*
X0047793Y0060945D02*
X0059661Y0060945D01*
X0057824Y0059346D02*
X0043976Y0059346D01*
X0042377Y0057748D02*
X0057162Y0057748D01*
X0057152Y0056149D02*
X0028854Y0056149D01*
X0028700Y0054551D02*
X0057701Y0054551D01*
X0059074Y0052952D02*
X0028700Y0052952D01*
X0028700Y0051354D02*
X0060648Y0051354D01*
X0062952Y0051354D02*
X0070648Y0051354D01*
X0069074Y0052952D02*
X0064526Y0052952D01*
X0065899Y0054551D02*
X0067701Y0054551D01*
X0067152Y0056149D02*
X0066448Y0056149D01*
X0066438Y0057748D02*
X0067162Y0057748D01*
X0066751Y0059346D02*
X0067824Y0059346D01*
X0065139Y0062543D02*
X0063670Y0062543D01*
X0065715Y0064142D02*
X0067885Y0064142D01*
X0067208Y0065740D02*
X0066392Y0065740D01*
X0066448Y0067339D02*
X0067152Y0067339D01*
X0067654Y0068937D02*
X0065946Y0068937D01*
X0067315Y0070536D02*
X0068963Y0070536D01*
X0068750Y0072134D02*
X0074061Y0072134D01*
X0077271Y0073733D02*
X0097970Y0073733D01*
X0096505Y0072134D02*
X0079206Y0072134D01*
X0080308Y0070536D02*
X0094907Y0070536D01*
X0093308Y0068937D02*
X0080456Y0068937D01*
X0079629Y0067339D02*
X0091710Y0067339D01*
X0090111Y0065740D02*
X0076392Y0065740D01*
X0075715Y0064142D02*
X0088513Y0064142D01*
X0090124Y0060945D02*
X0138144Y0060945D01*
X0138144Y0062543D02*
X0091723Y0062543D01*
X0093321Y0064142D02*
X0138144Y0064142D01*
X0138144Y0065740D02*
X0094920Y0065740D01*
X0096518Y0067339D02*
X0138144Y0067339D01*
X0138144Y0068937D02*
X0098117Y0068937D01*
X0099715Y0070536D02*
X0102482Y0070536D01*
X0102022Y0075332D02*
X0076223Y0075332D01*
X0076448Y0076930D02*
X0102022Y0076930D01*
X0101700Y0078529D02*
X0076115Y0078529D01*
X0075046Y0080127D02*
X0101622Y0080127D01*
X0101622Y0083324D02*
X0074897Y0083324D01*
X0076053Y0084923D02*
X0101776Y0084923D01*
X0105895Y0084923D02*
X0106855Y0084923D01*
X0106855Y0083324D02*
X0105895Y0083324D01*
X0110974Y0084923D02*
X0125673Y0084923D01*
X0123068Y0076930D02*
X0178750Y0076930D01*
X0178750Y0075332D02*
X0121634Y0075332D01*
X0120199Y0073733D02*
X0178749Y0073733D01*
X0178745Y0072134D02*
X0118765Y0072134D01*
X0135435Y0080127D02*
X0138717Y0080127D01*
X0138144Y0081726D02*
X0135806Y0081726D01*
X0136578Y0083324D02*
X0138144Y0083324D01*
X0142733Y0080127D02*
X0143717Y0080127D01*
X0147733Y0080127D02*
X0148717Y0080127D01*
X0152733Y0080127D02*
X0153717Y0080127D01*
X0153939Y0091317D02*
X0152675Y0091317D01*
X0134280Y0094514D02*
X0134043Y0094514D01*
X0132845Y0092915D02*
X0132444Y0092915D01*
X0130833Y0096112D02*
X0120055Y0096112D01*
X0116839Y0089718D02*
X0115880Y0089718D01*
X0115880Y0088120D02*
X0116839Y0088120D01*
X0112001Y0092915D02*
X0082770Y0092915D01*
X0083156Y0094514D02*
X0112001Y0094514D01*
X0112665Y0096112D02*
X0082759Y0096112D01*
X0070558Y0091317D02*
X0063042Y0091317D01*
X0064488Y0092915D02*
X0069112Y0092915D01*
X0067716Y0094514D02*
X0065884Y0094514D01*
X0066448Y0096112D02*
X0067152Y0096112D01*
X0067152Y0097711D02*
X0066448Y0097711D01*
X0066887Y0099309D02*
X0065792Y0099309D01*
X0059112Y0092915D02*
X0058089Y0092915D01*
X0057716Y0094514D02*
X0056490Y0094514D01*
X0059688Y0091317D02*
X0060558Y0091317D01*
X0065455Y0089718D02*
X0068145Y0089718D01*
X0067316Y0088120D02*
X0066284Y0088120D01*
X0066448Y0086521D02*
X0067152Y0086521D01*
X0065350Y0080127D02*
X0065046Y0080127D01*
X0058554Y0080127D02*
X0020152Y0080127D01*
X0021751Y0078529D02*
X0048463Y0078529D01*
X0047306Y0076930D02*
X0023349Y0076930D01*
X0024948Y0075332D02*
X0047119Y0075332D01*
X0047852Y0073733D02*
X0026546Y0073733D01*
X0028145Y0072134D02*
X0064105Y0072134D01*
X0065306Y0073733D02*
X0065350Y0073733D01*
X0058294Y0073733D02*
X0052948Y0073733D01*
X0052337Y0078529D02*
X0057485Y0078529D01*
X0043585Y0065740D02*
X0004900Y0065740D01*
X0004900Y0064142D02*
X0042015Y0064142D01*
X0041719Y0062543D02*
X0004900Y0062543D01*
X0004900Y0060945D02*
X0040766Y0060945D01*
X0027242Y0059346D02*
X0004900Y0059346D01*
X0004900Y0057748D02*
X0025644Y0057748D01*
X0025300Y0056149D02*
X0004900Y0056149D01*
X0004900Y0054551D02*
X0025300Y0054551D01*
X0025300Y0052952D02*
X0004900Y0052952D01*
X0004900Y0051354D02*
X0025300Y0051354D01*
X0025300Y0049755D02*
X0004900Y0049755D01*
X0004900Y0048157D02*
X0025300Y0048157D01*
X0025300Y0046558D02*
X0004900Y0046558D01*
X0004900Y0044960D02*
X0025300Y0044960D01*
X0025560Y0043361D02*
X0004900Y0043361D01*
X0004900Y0041763D02*
X0027158Y0041763D01*
X0028757Y0040164D02*
X0004900Y0040164D01*
X0004900Y0038566D02*
X0030355Y0038566D01*
X0031954Y0036967D02*
X0004900Y0036967D01*
X0004900Y0035369D02*
X0033552Y0035369D01*
X0035151Y0033770D02*
X0004900Y0033770D01*
X0004900Y0032172D02*
X0036749Y0032172D01*
X0038348Y0030573D02*
X0004900Y0030573D01*
X0004900Y0028975D02*
X0039946Y0028975D01*
X0041545Y0027376D02*
X0004900Y0027376D01*
X0004900Y0025778D02*
X0043143Y0025778D01*
X0044742Y0024179D02*
X0004900Y0024179D01*
X0004900Y0022581D02*
X0046340Y0022581D01*
X0047951Y0025778D02*
X0247474Y0025778D01*
X0249072Y0027376D02*
X0107405Y0027376D01*
X0109004Y0028975D02*
X0250671Y0028975D01*
X0252269Y0030573D02*
X0110602Y0030573D01*
X0112201Y0032172D02*
X0253868Y0032172D01*
X0255466Y0033770D02*
X0149369Y0033770D01*
X0149268Y0033596D02*
X0149505Y0034006D01*
X0149628Y0034464D01*
X0149628Y0036780D01*
X0145355Y0036780D01*
X0145355Y0032901D01*
X0148065Y0032901D01*
X0148523Y0033023D01*
X0148933Y0033260D01*
X0149268Y0033596D01*
X0149628Y0035369D02*
X0257065Y0035369D01*
X0258663Y0036967D02*
X0145355Y0036967D01*
X0144395Y0036967D02*
X0116996Y0036967D01*
X0115398Y0035369D02*
X0140122Y0035369D01*
X0140381Y0033770D02*
X0113799Y0033770D01*
X0112188Y0036967D02*
X0071623Y0036967D01*
X0071225Y0038566D02*
X0113787Y0038566D01*
X0115385Y0040164D02*
X0071225Y0040164D01*
X0071225Y0041763D02*
X0116984Y0041763D01*
X0118582Y0043361D02*
X0074935Y0043361D01*
X0076069Y0044960D02*
X0120181Y0044960D01*
X0121779Y0046558D02*
X0076448Y0046558D01*
X0076269Y0048157D02*
X0140800Y0048157D01*
X0143175Y0049755D02*
X0075418Y0049755D01*
X0072952Y0051354D02*
X0143175Y0051354D01*
X0143175Y0052952D02*
X0074526Y0052952D01*
X0075899Y0054551D02*
X0143175Y0054551D01*
X0143175Y0056149D02*
X0076448Y0056149D01*
X0076438Y0057748D02*
X0143175Y0057748D01*
X0143175Y0059346D02*
X0075776Y0059346D01*
X0068182Y0049755D02*
X0065418Y0049755D01*
X0066269Y0048157D02*
X0067331Y0048157D01*
X0067152Y0046558D02*
X0066448Y0046558D01*
X0066069Y0044960D02*
X0067531Y0044960D01*
X0067825Y0043361D02*
X0064935Y0043361D01*
X0063500Y0041763D02*
X0067825Y0041763D01*
X0067825Y0040164D02*
X0063500Y0040164D01*
X0063500Y0038566D02*
X0067825Y0038566D01*
X0067427Y0036967D02*
X0063500Y0036967D01*
X0064910Y0035369D02*
X0066364Y0035369D01*
X0063299Y0032172D02*
X0041557Y0032172D01*
X0039959Y0033770D02*
X0061701Y0033770D01*
X0060102Y0035369D02*
X0038360Y0035369D01*
X0036762Y0036967D02*
X0060100Y0036967D01*
X0060100Y0038566D02*
X0035163Y0038566D01*
X0033565Y0040164D02*
X0060100Y0040164D01*
X0060100Y0041763D02*
X0031966Y0041763D01*
X0030368Y0043361D02*
X0058665Y0043361D01*
X0057531Y0044960D02*
X0028769Y0044960D01*
X0028700Y0046558D02*
X0057152Y0046558D01*
X0057331Y0048157D02*
X0028700Y0048157D01*
X0028700Y0049755D02*
X0058182Y0049755D01*
X0072686Y0035369D02*
X0110590Y0035369D01*
X0108991Y0033770D02*
X0072805Y0033770D01*
X0071912Y0032172D02*
X0107393Y0032172D01*
X0105794Y0030573D02*
X0069706Y0030573D01*
X0066496Y0028975D02*
X0044754Y0028975D01*
X0043156Y0030573D02*
X0064898Y0030573D01*
X0068095Y0027376D02*
X0046353Y0027376D01*
X0118595Y0038566D02*
X0140122Y0038566D01*
X0140151Y0040164D02*
X0120193Y0040164D01*
X0121792Y0041763D02*
X0140522Y0041763D01*
X0140522Y0043361D02*
X0123390Y0043361D01*
X0144395Y0035369D02*
X0145355Y0035369D01*
X0145355Y0033770D02*
X0144395Y0033770D01*
X0149628Y0038566D02*
X0260100Y0038566D01*
X0260100Y0040164D02*
X0186118Y0040164D01*
X0187717Y0041763D02*
X0260100Y0041763D01*
X0258665Y0043361D02*
X0254935Y0043361D01*
X0256069Y0044960D02*
X0257531Y0044960D01*
X0257152Y0046558D02*
X0256448Y0046558D01*
X0256269Y0048157D02*
X0257331Y0048157D01*
X0258182Y0049755D02*
X0255418Y0049755D01*
X0248182Y0049755D02*
X0195709Y0049755D01*
X0194111Y0048157D02*
X0247331Y0048157D01*
X0247152Y0046558D02*
X0192512Y0046558D01*
X0190914Y0044960D02*
X0247531Y0044960D01*
X0248665Y0043361D02*
X0189315Y0043361D01*
X0187704Y0046558D02*
X0165996Y0046558D01*
X0167594Y0044960D02*
X0186106Y0044960D01*
X0184507Y0043361D02*
X0169193Y0043361D01*
X0167582Y0040164D02*
X0149599Y0040164D01*
X0149228Y0041763D02*
X0165983Y0041763D01*
X0164385Y0043361D02*
X0158926Y0043361D01*
X0159987Y0044960D02*
X0162786Y0044960D01*
X0161188Y0046558D02*
X0160104Y0046558D01*
X0159589Y0048157D02*
X0159208Y0048157D01*
X0157990Y0049755D02*
X0154249Y0049755D01*
X0152650Y0051354D02*
X0156392Y0051354D01*
X0154793Y0052952D02*
X0152450Y0052952D01*
X0152450Y0054551D02*
X0154000Y0054551D01*
X0154000Y0056149D02*
X0152450Y0056149D01*
X0152450Y0057748D02*
X0154000Y0057748D01*
X0154000Y0059346D02*
X0152450Y0059346D01*
X0149050Y0059346D02*
X0146575Y0059346D01*
X0146575Y0057748D02*
X0149050Y0057748D01*
X0149050Y0056149D02*
X0146575Y0056149D01*
X0146575Y0054551D02*
X0149050Y0054551D01*
X0149050Y0052952D02*
X0146575Y0052952D01*
X0146575Y0051354D02*
X0149050Y0051354D01*
X0149440Y0049755D02*
X0146575Y0049755D01*
X0148950Y0048157D02*
X0151039Y0048157D01*
X0152638Y0046558D02*
X0149228Y0046558D01*
X0149228Y0044960D02*
X0153663Y0044960D01*
X0154724Y0043361D02*
X0149228Y0043361D01*
X0161200Y0051354D02*
X0192500Y0051354D01*
X0194098Y0052952D02*
X0185061Y0052952D01*
X0180905Y0052952D02*
X0179945Y0052952D01*
X0179945Y0054551D02*
X0180905Y0054551D01*
X0189303Y0048157D02*
X0164397Y0048157D01*
X0162799Y0049755D02*
X0190901Y0049755D01*
X0171514Y0062543D02*
X0158306Y0062543D01*
X0158306Y0060945D02*
X0169916Y0060945D01*
X0168317Y0059346D02*
X0157400Y0059346D01*
X0157400Y0057748D02*
X0164483Y0057748D01*
X0163505Y0056149D02*
X0157400Y0056149D01*
X0158003Y0054551D02*
X0163505Y0054551D01*
X0164482Y0052952D02*
X0159602Y0052952D01*
X0182150Y0075332D02*
X0185126Y0075332D01*
X0184819Y0076930D02*
X0182150Y0076930D01*
X0182150Y0078529D02*
X0185296Y0078529D01*
X0182150Y0080127D02*
X0189098Y0080127D01*
X0190696Y0081726D02*
X0182327Y0081726D01*
X0182846Y0083324D02*
X0190900Y0083324D01*
X0190900Y0084923D02*
X0183366Y0084923D01*
X0183885Y0086521D02*
X0190900Y0086521D01*
X0190900Y0088120D02*
X0184404Y0088120D01*
X0184924Y0089718D02*
X0190900Y0089718D01*
X0190900Y0091317D02*
X0185443Y0091317D01*
X0185962Y0092915D02*
X0190900Y0092915D01*
X0190900Y0094514D02*
X0186481Y0094514D01*
X0187001Y0096112D02*
X0192258Y0096112D01*
X0195708Y0097711D02*
X0187520Y0097711D01*
X0188039Y0099309D02*
X0195508Y0099309D01*
X0190538Y0100908D02*
X0188559Y0100908D01*
X0184984Y0100908D02*
X0184768Y0100908D01*
X0184465Y0099309D02*
X0183053Y0099309D01*
X0182418Y0097711D02*
X0183945Y0097711D01*
X0202939Y0076930D02*
X0247152Y0076930D01*
X0247377Y0075332D02*
X0202939Y0075332D01*
X0202939Y0073733D02*
X0248294Y0073733D01*
X0254637Y0070536D02*
X0258963Y0070536D01*
X0257654Y0068937D02*
X0255946Y0068937D01*
X0256448Y0067339D02*
X0257152Y0067339D01*
X0257208Y0065740D02*
X0256392Y0065740D01*
X0255715Y0064142D02*
X0257885Y0064142D01*
X0263670Y0062543D02*
X0273475Y0062543D01*
X0273475Y0060945D02*
X0263939Y0060945D01*
X0265776Y0059346D02*
X0273475Y0059346D01*
X0273369Y0057748D02*
X0266438Y0057748D01*
X0266448Y0056149D02*
X0271770Y0056149D01*
X0270172Y0054551D02*
X0265899Y0054551D01*
X0264526Y0052952D02*
X0268573Y0052952D01*
X0270184Y0049755D02*
X0284725Y0049755D01*
X0284725Y0048157D02*
X0268586Y0048157D01*
X0266448Y0046558D02*
X0284725Y0046558D01*
X0284725Y0044960D02*
X0266069Y0044960D01*
X0264935Y0043361D02*
X0284725Y0043361D01*
X0284725Y0041763D02*
X0263500Y0041763D01*
X0263500Y0040164D02*
X0283460Y0040164D01*
X0281862Y0038566D02*
X0263500Y0038566D01*
X0263471Y0036967D02*
X0280263Y0036967D01*
X0278665Y0035369D02*
X0261873Y0035369D01*
X0260274Y0033770D02*
X0277066Y0033770D01*
X0275468Y0032172D02*
X0258676Y0032172D01*
X0257077Y0030573D02*
X0273869Y0030573D01*
X0272271Y0028975D02*
X0255479Y0028975D01*
X0253880Y0027376D02*
X0270672Y0027376D01*
X0269074Y0025778D02*
X0252282Y0025778D01*
X0250683Y0024179D02*
X0267475Y0024179D01*
X0265877Y0022581D02*
X0249085Y0022581D01*
X0262952Y0051354D02*
X0263950Y0051354D01*
X0271783Y0051354D02*
X0284725Y0051354D01*
X0284725Y0052952D02*
X0273382Y0052952D01*
X0274980Y0054551D02*
X0284725Y0054551D01*
X0284725Y0056149D02*
X0276579Y0056149D01*
X0276875Y0057748D02*
X0284725Y0057748D01*
X0283455Y0059346D02*
X0276875Y0059346D01*
X0276875Y0060945D02*
X0283144Y0060945D01*
X0283616Y0062543D02*
X0276875Y0062543D01*
X0273475Y0068937D02*
X0272426Y0068937D01*
X0273475Y0070536D02*
X0264637Y0070536D01*
X0265946Y0068937D02*
X0269824Y0068937D01*
X0268312Y0064142D02*
X0265715Y0064142D01*
X0258294Y0073733D02*
X0255306Y0073733D01*
X0256223Y0075332D02*
X0257377Y0075332D01*
X0257152Y0076930D02*
X0256448Y0076930D01*
X0256567Y0078529D02*
X0256115Y0078529D01*
X0258179Y0081726D02*
X0273475Y0081726D01*
X0258703Y0083324D02*
X0254897Y0083324D01*
X0256053Y0084923D02*
X0257547Y0084923D01*
X0257152Y0086521D02*
X0256448Y0086521D01*
X0256284Y0088120D02*
X0257316Y0088120D01*
X0255953Y0089718D02*
X0255455Y0089718D01*
X0243384Y0083324D02*
X0224681Y0083324D01*
X0224413Y0081726D02*
X0242186Y0081726D01*
X0241969Y0080127D02*
X0222978Y0080127D01*
X0232601Y0121688D02*
X0235324Y0121688D01*
X0219092Y0136075D02*
X0218375Y0136075D01*
X0198350Y0158454D02*
X0197031Y0158454D01*
X0197054Y0160053D02*
X0199498Y0160053D01*
X0201097Y0161651D02*
X0197078Y0161651D01*
X0197101Y0163250D02*
X0202695Y0163250D01*
X0204294Y0164848D02*
X0197125Y0164848D01*
X0197148Y0166447D02*
X0205893Y0166447D01*
X0207491Y0168045D02*
X0197172Y0168045D01*
X0197195Y0169644D02*
X0208610Y0169644D01*
X0208610Y0171242D02*
X0197219Y0171242D01*
X0197242Y0172841D02*
X0208610Y0172841D01*
X0208610Y0174439D02*
X0197266Y0174439D01*
X0222860Y0168045D02*
X0230925Y0168045D01*
X0255726Y0166447D02*
X0309724Y0166447D01*
X0309724Y0168045D02*
X0261825Y0168045D01*
X0261825Y0169644D02*
X0309724Y0169644D01*
X0309724Y0171242D02*
X0261825Y0171242D01*
X0261646Y0172841D02*
X0296561Y0172841D01*
X0297670Y0172381D02*
X0300386Y0172381D01*
X0302895Y0173421D01*
X0304816Y0175341D01*
X0305855Y0177851D01*
X0305855Y0180567D01*
X0304816Y0183076D01*
X0302895Y0184997D01*
X0300386Y0186036D01*
X0297670Y0186036D01*
X0295160Y0184997D01*
X0293240Y0183076D01*
X0292200Y0180567D01*
X0292200Y0177851D01*
X0293240Y0175341D01*
X0295160Y0173421D01*
X0297670Y0172381D01*
X0301495Y0172841D02*
X0309724Y0172841D01*
X0309724Y0174439D02*
X0303914Y0174439D01*
X0305105Y0176038D02*
X0309724Y0176038D01*
X0309724Y0177636D02*
X0305767Y0177636D01*
X0305855Y0179235D02*
X0309724Y0179235D01*
X0309724Y0180833D02*
X0305745Y0180833D01*
X0305083Y0182432D02*
X0309724Y0182432D01*
X0309724Y0184030D02*
X0303862Y0184030D01*
X0301370Y0185629D02*
X0309724Y0185629D01*
X0309724Y0187227D02*
X0290058Y0187227D01*
X0290058Y0185629D02*
X0296686Y0185629D01*
X0294194Y0184030D02*
X0290058Y0184030D01*
X0289686Y0182432D02*
X0292973Y0182432D01*
X0292311Y0180833D02*
X0288087Y0180833D01*
X0286489Y0179235D02*
X0292200Y0179235D01*
X0292289Y0177636D02*
X0284890Y0177636D01*
X0283292Y0176038D02*
X0292951Y0176038D01*
X0294142Y0174439D02*
X0281693Y0174439D01*
X0280082Y0177636D02*
X0261947Y0177636D01*
X0262225Y0179235D02*
X0281681Y0179235D01*
X0283279Y0180833D02*
X0262225Y0180833D01*
X0261539Y0182432D02*
X0284878Y0182432D01*
X0286476Y0184030D02*
X0261825Y0184030D01*
X0261825Y0185629D02*
X0286658Y0185629D01*
X0286658Y0187227D02*
X0261178Y0187227D01*
X0261055Y0191526D02*
X0263765Y0191526D01*
X0264223Y0191648D01*
X0264633Y0191885D01*
X0264968Y0192221D01*
X0265205Y0192631D01*
X0265328Y0193089D01*
X0265328Y0195405D01*
X0261055Y0195405D01*
X0261055Y0191526D01*
X0261055Y0192023D02*
X0260095Y0192023D01*
X0260095Y0193621D02*
X0261055Y0193621D01*
X0261055Y0195220D02*
X0260095Y0195220D01*
X0264770Y0192023D02*
X0284005Y0192023D01*
X0284610Y0193621D02*
X0265328Y0193621D01*
X0265328Y0195220D02*
X0286459Y0195220D01*
X0287412Y0196818D02*
X0275934Y0196818D01*
X0276990Y0198417D02*
X0284923Y0198417D01*
X0284111Y0200015D02*
X0277101Y0200015D01*
X0276201Y0201614D02*
X0284005Y0201614D01*
X0284506Y0203212D02*
X0272367Y0203212D01*
X0270768Y0204811D02*
X0284236Y0204811D01*
X0282638Y0206409D02*
X0264928Y0206409D01*
X0262919Y0208008D02*
X0281039Y0208008D01*
X0279441Y0209606D02*
X0264197Y0209606D01*
X0264731Y0211205D02*
X0277842Y0211205D01*
X0276244Y0212803D02*
X0264462Y0212803D01*
X0263018Y0214402D02*
X0274645Y0214402D01*
X0273047Y0216001D02*
X0221075Y0216001D01*
X0221075Y0217599D02*
X0241298Y0217599D01*
X0239700Y0219198D02*
X0221075Y0219198D01*
X0221075Y0220796D02*
X0238101Y0220796D01*
X0236503Y0222395D02*
X0221075Y0222395D01*
X0225169Y0223993D02*
X0227376Y0223993D01*
X0227014Y0225592D02*
X0226768Y0225592D01*
X0234531Y0223993D02*
X0236200Y0223993D01*
X0236200Y0225592D02*
X0234893Y0225592D01*
X0234893Y0227190D02*
X0236200Y0227190D01*
X0236200Y0228789D02*
X0234893Y0228789D01*
X0234893Y0230387D02*
X0236200Y0230387D01*
X0236200Y0231986D02*
X0233162Y0231986D01*
X0234760Y0233584D02*
X0236200Y0233584D01*
X0236200Y0235183D02*
X0234893Y0235183D01*
X0234893Y0236781D02*
X0236200Y0236781D01*
X0236200Y0238380D02*
X0233493Y0238380D01*
X0233280Y0239978D02*
X0236200Y0239978D01*
X0236200Y0241577D02*
X0234879Y0241577D01*
X0234893Y0243175D02*
X0236200Y0243175D01*
X0235724Y0244774D02*
X0234893Y0244774D01*
X0220442Y0214402D02*
X0259882Y0214402D01*
X0258438Y0212803D02*
X0219099Y0212803D01*
X0217764Y0211205D02*
X0258169Y0211205D01*
X0264928Y0201614D02*
X0269157Y0201614D01*
X0270549Y0200015D02*
X0264717Y0200015D01*
X0265328Y0198417D02*
X0270660Y0198417D01*
X0271716Y0196818D02*
X0265328Y0196818D01*
X0284348Y0211205D02*
X0284555Y0211205D01*
X0286137Y0212803D02*
X0282749Y0212803D01*
X0281151Y0214402D02*
X0286682Y0214402D01*
X0286533Y0214450D02*
X0287245Y0214219D01*
X0287984Y0214102D01*
X0288174Y0214102D01*
X0288174Y0218671D01*
X0288542Y0218671D01*
X0288542Y0219039D01*
X0293111Y0219039D01*
X0293111Y0219229D01*
X0292994Y0219968D01*
X0292762Y0220679D01*
X0292423Y0221346D01*
X0291983Y0221951D01*
X0291454Y0222480D01*
X0290849Y0222920D01*
X0290182Y0223259D01*
X0289471Y0223491D01*
X0288732Y0223608D01*
X0288542Y0223608D01*
X0288542Y0219039D01*
X0288174Y0219039D01*
X0288174Y0218671D01*
X0283605Y0218671D01*
X0283605Y0218481D01*
X0283722Y0217742D01*
X0283953Y0217030D01*
X0284293Y0216364D01*
X0284733Y0215759D01*
X0285262Y0215230D01*
X0285867Y0214790D01*
X0286533Y0214450D01*
X0288174Y0214402D02*
X0288542Y0214402D01*
X0288542Y0214102D02*
X0288732Y0214102D01*
X0289471Y0214219D01*
X0290182Y0214450D01*
X0290849Y0214790D01*
X0291454Y0215230D01*
X0291983Y0215759D01*
X0292423Y0216364D01*
X0292762Y0217030D01*
X0292994Y0217742D01*
X0293111Y0218481D01*
X0293111Y0218671D01*
X0288542Y0218671D01*
X0288542Y0214102D01*
X0290033Y0214402D02*
X0309724Y0214402D01*
X0309724Y0212803D02*
X0290579Y0212803D01*
X0292161Y0211205D02*
X0309724Y0211205D01*
X0309724Y0209606D02*
X0292711Y0209606D01*
X0292653Y0208008D02*
X0309724Y0208008D01*
X0309724Y0206409D02*
X0291911Y0206409D01*
X0290841Y0204811D02*
X0309724Y0204811D01*
X0309724Y0203212D02*
X0292210Y0203212D01*
X0292711Y0201614D02*
X0309724Y0201614D01*
X0309724Y0200015D02*
X0292604Y0200015D01*
X0291793Y0198417D02*
X0309724Y0198417D01*
X0309724Y0196818D02*
X0289304Y0196818D01*
X0290257Y0195220D02*
X0309724Y0195220D01*
X0309724Y0193621D02*
X0292106Y0193621D01*
X0292711Y0192023D02*
X0309724Y0192023D01*
X0309724Y0190424D02*
X0292709Y0190424D01*
X0292044Y0188826D02*
X0309724Y0188826D01*
X0309724Y0216001D02*
X0292159Y0216001D01*
X0292947Y0217599D02*
X0309724Y0217599D01*
X0309724Y0219198D02*
X0293111Y0219198D01*
X0292703Y0220796D02*
X0309724Y0220796D01*
X0309724Y0222395D02*
X0291540Y0222395D01*
X0288542Y0222395D02*
X0288174Y0222395D01*
X0288174Y0220796D02*
X0288542Y0220796D01*
X0288542Y0219198D02*
X0288174Y0219198D01*
X0288174Y0217599D02*
X0288542Y0217599D01*
X0288542Y0216001D02*
X0288174Y0216001D01*
X0284557Y0216001D02*
X0279552Y0216001D01*
X0277954Y0217599D02*
X0283769Y0217599D01*
X0283605Y0219198D02*
X0276355Y0219198D01*
X0279360Y0220796D02*
X0284013Y0220796D01*
X0286106Y0223993D02*
X0309724Y0223993D01*
X0309724Y0225592D02*
X0303334Y0225592D01*
X0302895Y0225153D02*
X0304816Y0227074D01*
X0305855Y0229583D01*
X0305855Y0232299D01*
X0304816Y0234809D01*
X0302895Y0236729D01*
X0300386Y0237769D01*
X0297670Y0237769D01*
X0295160Y0236729D01*
X0293240Y0234809D01*
X0292200Y0232299D01*
X0292200Y0229583D01*
X0293240Y0227074D01*
X0295160Y0225153D01*
X0297670Y0224114D01*
X0300386Y0224114D01*
X0302895Y0225153D01*
X0304864Y0227190D02*
X0309724Y0227190D01*
X0309724Y0228789D02*
X0305526Y0228789D01*
X0305855Y0230387D02*
X0309724Y0230387D01*
X0309724Y0231986D02*
X0305855Y0231986D01*
X0305323Y0233584D02*
X0309724Y0233584D01*
X0309724Y0235183D02*
X0304442Y0235183D01*
X0302770Y0236781D02*
X0309724Y0236781D01*
X0309724Y0238380D02*
X0284975Y0238380D01*
X0284975Y0239978D02*
X0309724Y0239978D01*
X0309724Y0241577D02*
X0284975Y0241577D01*
X0284975Y0243175D02*
X0309724Y0243175D01*
X0309724Y0244774D02*
X0284975Y0244774D01*
X0284975Y0246372D02*
X0309724Y0246372D01*
X0309724Y0247971D02*
X0284975Y0247971D01*
X0284975Y0249569D02*
X0309724Y0249569D01*
X0309724Y0251168D02*
X0284975Y0251168D01*
X0284975Y0252766D02*
X0309724Y0252766D01*
X0309724Y0254365D02*
X0284975Y0254365D01*
X0284975Y0255963D02*
X0309724Y0255963D01*
X0309724Y0257562D02*
X0284975Y0257562D01*
X0284975Y0259160D02*
X0309724Y0259160D01*
X0309724Y0260759D02*
X0284975Y0260759D01*
X0284975Y0262357D02*
X0309724Y0262357D01*
X0309724Y0263956D02*
X0284975Y0263956D01*
X0284983Y0265554D02*
X0309724Y0265554D01*
X0309724Y0267153D02*
X0284091Y0267153D01*
X0282701Y0268751D02*
X0309724Y0268751D01*
X0309724Y0270350D02*
X0281311Y0270350D01*
X0284975Y0236781D02*
X0295286Y0236781D01*
X0293614Y0235183D02*
X0284975Y0235183D01*
X0284975Y0233584D02*
X0292733Y0233584D01*
X0292200Y0231986D02*
X0284975Y0231986D01*
X0284975Y0230387D02*
X0292200Y0230387D01*
X0292529Y0228789D02*
X0284975Y0228789D01*
X0284975Y0227190D02*
X0293192Y0227190D01*
X0294722Y0225592D02*
X0285852Y0225592D01*
X0280115Y0222395D02*
X0279806Y0222395D01*
X0231934Y0209606D02*
X0217931Y0209606D01*
X0217148Y0208008D02*
X0231522Y0208008D01*
X0257182Y0160053D02*
X0271900Y0160053D01*
X0255583Y0158454D02*
X0309724Y0158454D01*
X0167835Y0192023D02*
X0166081Y0192023D01*
X0134112Y0155257D02*
X0132638Y0155257D01*
X0129112Y0155257D02*
X0127638Y0155257D01*
X0124112Y0155257D02*
X0122638Y0155257D01*
X0100188Y0136075D02*
X0076848Y0136075D01*
X0076848Y0137673D02*
X0098590Y0137673D01*
X0096991Y0139272D02*
X0076848Y0139272D01*
X0076652Y0140870D02*
X0095393Y0140870D01*
X0093794Y0142469D02*
X0071356Y0142469D01*
X0071517Y0140870D02*
X0072083Y0140870D01*
X0072083Y0139272D02*
X0071517Y0139272D01*
X0071517Y0137673D02*
X0072083Y0137673D01*
X0072083Y0136075D02*
X0071517Y0136075D01*
X0071517Y0134476D02*
X0072083Y0134476D01*
X0072083Y0132878D02*
X0071517Y0132878D01*
X0070468Y0131279D02*
X0063132Y0131279D01*
X0073132Y0131279D02*
X0101375Y0131279D01*
X0101375Y0129681D02*
X0075492Y0129681D01*
X0076300Y0128082D02*
X0101375Y0128082D01*
X0101375Y0126484D02*
X0076448Y0126484D01*
X0076038Y0124885D02*
X0101375Y0124885D01*
X0101375Y0132878D02*
X0076731Y0132878D01*
X0076848Y0134476D02*
X0101375Y0134476D01*
X0092195Y0144068D02*
X0072954Y0144068D01*
X0074553Y0145666D02*
X0090597Y0145666D01*
X0088998Y0147265D02*
X0076152Y0147265D01*
X0051372Y0123287D02*
X0026942Y0123287D01*
X0028541Y0121688D02*
X0050356Y0121688D01*
X0050303Y0120090D02*
X0030139Y0120090D01*
X0028528Y0116893D02*
X0016550Y0116893D01*
X0016550Y0118491D02*
X0026930Y0118491D01*
X0025331Y0120090D02*
X0016550Y0120090D01*
X0016550Y0121688D02*
X0023732Y0121688D01*
X0022825Y0123287D02*
X0016550Y0123287D01*
X0016550Y0124885D02*
X0022825Y0124885D01*
X0022825Y0126484D02*
X0016550Y0126484D01*
X0016550Y0128082D02*
X0022825Y0128082D01*
X0022825Y0129681D02*
X0016550Y0129681D01*
X0016550Y0131279D02*
X0022825Y0131279D01*
X0022825Y0132878D02*
X0016550Y0132878D01*
X0016550Y0134476D02*
X0022825Y0134476D01*
X0022825Y0136075D02*
X0016550Y0136075D01*
X0016550Y0137673D02*
X0022825Y0137673D01*
X0022825Y0139272D02*
X0016550Y0139272D01*
X0016550Y0140870D02*
X0022825Y0140870D01*
X0022825Y0142469D02*
X0016550Y0142469D01*
X0016550Y0144068D02*
X0022825Y0144068D01*
X0022825Y0145666D02*
X0016550Y0145666D01*
X0016550Y0147265D02*
X0022825Y0147265D01*
X0022825Y0148863D02*
X0016550Y0148863D01*
X0016550Y0150462D02*
X0022825Y0150462D01*
X0022825Y0152060D02*
X0016550Y0152060D01*
X0016550Y0153659D02*
X0022825Y0153659D01*
X0022825Y0155257D02*
X0016550Y0155257D01*
X0016550Y0156856D02*
X0022825Y0156856D01*
X0022825Y0158454D02*
X0016550Y0158454D01*
X0016550Y0160053D02*
X0022825Y0160053D01*
X0022825Y0161651D02*
X0016550Y0161651D01*
X0016550Y0163250D02*
X0022825Y0163250D01*
X0022825Y0164848D02*
X0016550Y0164848D01*
X0016550Y0166447D02*
X0022825Y0166447D01*
X0022825Y0168045D02*
X0016550Y0168045D01*
X0016550Y0169644D02*
X0022825Y0169644D01*
X0022825Y0171242D02*
X0016550Y0171242D01*
X0016550Y0172841D02*
X0022825Y0172841D01*
X0022825Y0174439D02*
X0016550Y0174439D01*
X0016550Y0176038D02*
X0022825Y0176038D01*
X0022825Y0177636D02*
X0016550Y0177636D01*
X0016550Y0179235D02*
X0022825Y0179235D01*
X0022825Y0180833D02*
X0016550Y0180833D01*
X0016550Y0182432D02*
X0022825Y0182432D01*
X0022825Y0184030D02*
X0016550Y0184030D01*
X0016550Y0185629D02*
X0022825Y0185629D01*
X0022825Y0187227D02*
X0016550Y0187227D01*
X0016550Y0188826D02*
X0022825Y0188826D01*
X0022825Y0190424D02*
X0016550Y0190424D01*
X0016550Y0192023D02*
X0022825Y0192023D01*
X0022825Y0193621D02*
X0016550Y0193621D01*
X0016550Y0195220D02*
X0022825Y0195220D01*
X0022825Y0196818D02*
X0016550Y0196818D01*
X0016550Y0198417D02*
X0022825Y0198417D01*
X0022825Y0200015D02*
X0016550Y0200015D01*
X0016550Y0201614D02*
X0022825Y0201614D01*
X0022825Y0203212D02*
X0016550Y0203212D01*
X0016550Y0204811D02*
X0022825Y0204811D01*
X0022825Y0206409D02*
X0016550Y0206409D01*
X0016550Y0208008D02*
X0022825Y0208008D01*
X0022825Y0209606D02*
X0016550Y0209606D01*
X0016550Y0211205D02*
X0022825Y0211205D01*
X0022825Y0212803D02*
X0016550Y0212803D01*
X0016550Y0214402D02*
X0022825Y0214402D01*
X0022825Y0216001D02*
X0016550Y0216001D01*
X0016550Y0217599D02*
X0022825Y0217599D01*
X0022825Y0219198D02*
X0016550Y0219198D01*
X0016550Y0220796D02*
X0022825Y0220796D01*
X0022825Y0222395D02*
X0016550Y0222395D01*
X0016550Y0223993D02*
X0022825Y0223993D01*
X0055856Y0118491D02*
X0057470Y0118491D01*
X0038119Y0107302D02*
X0016550Y0107302D01*
X0016550Y0108900D02*
X0036521Y0108900D01*
X0034922Y0110499D02*
X0016550Y0110499D01*
X0016550Y0112097D02*
X0033324Y0112097D01*
X0031725Y0113696D02*
X0016550Y0113696D01*
X0016550Y0115294D02*
X0030127Y0115294D01*
X0031225Y0105703D02*
X0016550Y0105703D01*
X0016550Y0104105D02*
X0029829Y0104105D01*
X0029569Y0102506D02*
X0016550Y0102506D01*
X0016550Y0100908D02*
X0030127Y0100908D01*
X0157220Y0132878D02*
X0158180Y0132878D01*
X0158180Y0134476D02*
X0157220Y0134476D01*
X0157220Y0136075D02*
X0158180Y0136075D01*
M02*
